<svg width="32" height="32" viewBox="0 0 32 32" fill="none" xmlns="http://www.w3.org/2000/svg">
    <g clip-path="url(#clip0_8974_1451)">
        <path d="M15.9997 5.48243C16.8661 5.48204 17.7188 5.69814 18.4805 6.11109C19.2421 6.52404 19.8885 7.12076 20.361 7.84702C20.8334 8.57329 21.1168 9.40608 21.1856 10.2697C21.2544 11.1334 21.1062 12.0006 20.7547 12.7924L15.9997 23.5174L11.2447 12.8074C10.8898 12.0149 10.7391 11.1461 10.8062 10.2804C10.8734 9.4146 11.1562 8.57945 11.629 7.8511C12.1018 7.12275 12.7495 6.5244 13.513 6.11065C14.2764 5.6969 15.1313 5.48092 15.9997 5.48243V5.48243Z" stroke="currentColor" stroke-width="1.5" stroke-miterlimit="10"/>
        <path d="M15.9997 12.5876C17.0601 12.5876 17.9197 11.7279 17.9197 10.6676C17.9197 9.60717 17.0601 8.74756 15.9997 8.74756C14.9393 8.74756 14.0797 9.60717 14.0797 10.6676C14.0797 11.7279 14.9393 12.5876 15.9997 12.5876Z" stroke="currentColor" stroke-width="1.5" stroke-miterlimit="10"/>
        <path d="M17.3147 20.5625C21.2597 20.7875 24.2747 22.0275 24.2747 23.5175C24.2747 25.1725 20.5697 26.5175 15.9997 26.5175C11.4297 26.5175 7.72467 25.1725 7.72467 23.5175C7.72467 22.0175 10.7247 20.7925 14.6697 20.5625" stroke="currentColor" stroke-width="1.5" stroke-miterlimit="10"/>
    </g>
    <defs>
        <clipPath id="clip0_8974_1451">
            <rect width="32" height="32" fill="white"/>
        </clipPath>
    </defs>
</svg>
