<svg width="32" height="32" viewBox="0 0 32 32" fill="none" xmlns="http://www.w3.org/2000/svg">
  <path
    d="M19 22.5C16.495 22.5 14.32 21.08 13.235 19H19V17H12.585C12.535 16.675 12.5 16.34 12.5 16C12.5 15.66 12.535 15.325 12.585 15H19V13H13.235C14.32 10.92 16.49 9.5 19 9.5C20.615 9.5 22.09 10.09 23.225 11.065L25 9.3C23.41 7.875 21.305 7 19 7C15.085 7 11.76 9.505 10.525 13H7V15H10.06C10.02 15.33 10 15.66 10 16C10 16.34 10.02 16.67 10.06 17H7V19H10.525C11.76 22.495 15.085 25 19 25C21.305 25 23.41 24.125 25 22.7L23.225 20.93C22.09 21.905 20.615 22.5 19 22.5Z"
    fill="currentColor"/>
</svg>
