<svg width="32" height="32" viewBox="0 0 32 32" fill="none" xmlns="http://www.w3.org/2000/svg">
  <path
    d="M25.9 7.28C25.63 7.04 25.25 6.98 24.92 7.12L6.36004 15C6.02004 15.14 5.80004 15.47 5.79004 15.84C5.79004 16.21 5.99004 16.54 6.32004 16.7L11.2 19.04V24.18C11.2 24.56 11.43 24.9 11.79 25.04C11.9 25.08 12.01 25.1 12.12 25.1C12.37 25.1 12.62 24.99 12.8 24.8L15.94 21.33L20.55 23.55C20.68 23.61 20.81 23.64 20.95 23.64C21.09 23.64 21.21 23.61 21.33 23.56C21.58 23.45 21.77 23.23 21.84 22.97L26.17 8.24C26.27 7.89 26.17 7.52 25.89 7.28H25.9ZM22.21 9.9L13.38 18.43L8.10004 15.89L22.21 9.9ZM12.69 22.68V19.76L14.53 20.64L12.69 22.67V22.68ZM20.6 21.9L14.82 19.12L24.03 10.22L20.6 21.9Z"
    fill="currentColor"/>
</svg>
