<svg width="32" height="32" viewBox="0 0 32 32" fill="none" xmlns="http://www.w3.org/2000/svg">
  <path
    d="M23.6998 15.23C23.9798 14.73 24.1598 14.15 24.1598 13.53V11.27C24.0898 9.57997 22.6898 8.21997 20.9898 8.21997H20.3898C18.6798 8.21997 17.2898 9.56997 17.2198 11.27V13.53C17.2198 14.15 17.3898 14.72 17.6798 15.23C17.0598 15.48 16.5298 15.89 16.1298 16.41C15.7298 15.89 15.1998 15.47 14.5798 15.23C14.8598 14.73 15.0398 14.15 15.0398 13.53V11.27C14.9698 9.57997 13.5798 8.21997 11.8698 8.21997H11.2698C9.55977 8.21997 8.16977 9.56997 8.09977 11.27V13.53C8.09977 14.15 8.26977 14.72 8.55977 15.23C7.21977 15.76 6.25977 17.07 6.25977 18.59V23.63H25.9998V18.59C25.9998 17.06 25.0398 15.76 23.6998 15.23ZM18.7098 11.93V11.4C18.7098 10.48 19.4598 9.71997 20.3898 9.71997H20.9898C21.9098 9.71997 22.6698 10.47 22.6698 11.4V13.53C22.6698 14.62 21.7798 15.5 20.6998 15.5C19.6198 15.5 18.7298 14.61 18.7298 13.53V11.93H18.7098ZM9.58977 11.93V11.4C9.58977 10.48 10.3398 9.71997 11.2698 9.71997H11.8698C12.7898 9.71997 13.5398 10.47 13.5398 11.4V13.53C13.5398 14.62 12.6498 15.5 11.5698 15.5C10.4898 15.5 9.59977 14.61 9.59977 13.53V11.93H9.58977ZM15.3698 22.13H7.75977V18.59C7.75977 17.46 8.64977 16.55 9.75977 16.48C10.2898 16.81 10.9098 17 11.5698 17C12.2298 17 12.8498 16.8 13.3798 16.48C14.4898 16.55 15.3798 17.46 15.3798 18.59V22.13H15.3698ZM24.4898 22.13H16.8698V18.59C16.8698 17.46 17.7598 16.55 18.8698 16.48C19.3998 16.81 20.0198 17 20.6798 17C21.3398 17 21.9598 16.8 22.4898 16.48C23.5998 16.55 24.4898 17.46 24.4898 18.59V22.13Z"
    fill="currentColor"/>
</svg>
