<svg width="48" height="48" viewBox="0 0 48 48" fill="none" xmlns="http://www.w3.org/2000/svg">
<path d="M25.2001 31.7738H8.43005V16.9763H32.7751V20.5913M33.9901 34.4888H36.1276C37.0924 34.4947 38.0156 34.8821 38.6957 35.5665C39.3758 36.2508 39.7576 37.1764 39.7576 38.1413V40.3463H21.1876V38.1413C21.1876 37.1726 21.5724 36.2435 22.2573 35.5585C22.9423 34.8736 23.8713 34.4888 24.8401 34.4888H27.0076" stroke="black" stroke-width="1.5" stroke-miterlimit="10"/>
<path d="M22.3426 10.4137L32.9701 16.8187M8.24255 16.8187L18.8701 10.4137M15.4351 20.6587H11.6926M21.9526 20.6587H18.2101M15.4351 24.3787H11.6926M21.9526 24.3787H18.2101M15.4351 28.0912H11.6926M21.9526 28.0912H18.2101M24.9301 25.2262H36.0376M31.0876 20.2837H29.8726C28.5344 20.3133 27.2626 20.8723 26.3361 21.8382C25.4096 22.8041 24.9039 24.0981 24.9301 25.4362V29.9812C24.8963 31.487 25.462 32.9445 26.5028 34.0332C27.5436 35.1218 28.9743 35.7524 30.4801 35.7862C31.98 35.745 33.4028 35.1124 34.4383 34.0263C35.4737 32.9403 36.0378 31.489 36.0076 29.9887V25.4362C36.0318 24.1024 35.5286 22.8129 34.6073 21.8481C33.686 20.8833 32.4211 20.3211 31.0876 20.2837ZM20.6026 11.8537C21.1595 11.8537 21.6937 11.6325 22.0875 11.2387C22.4813 10.8448 22.7026 10.3107 22.7026 9.75375C22.7026 9.19679 22.4813 8.66265 22.0875 8.26882C21.6937 7.875 21.1595 7.65375 20.6026 7.65375C20.0456 7.65375 19.5115 7.875 19.1176 8.26882C18.7238 8.66265 18.5026 9.19679 18.5026 9.75375C18.5026 10.3107 18.7238 10.8448 19.1176 11.2387C19.5115 11.6325 20.0456 11.8537 20.6026 11.8537Z" stroke="black" stroke-width="1.5" stroke-miterlimit="10"/>
</svg>
