<svg width="65" height="64" viewBox="0 0 65 64" fill="none" xmlns="http://www.w3.org/2000/svg">
<path d="M38.6523 39.5299V49.6399H42.8923V37.8599" stroke="#333333" stroke-width="1.5" stroke-miterlimit="10"/>
<path d="M32.6925 39.3199C33.8179 39.6202 34.9778 39.7715 36.1425 39.7699C38.6949 39.8073 41.1951 39.045 43.2925 37.5899L43.3925 37.6499C48.0125 40.0899 53.1525 39.4299 54.8625 36.1899C56.0425 33.9499 55.2825 31.0599 53.1825 28.6899C57.1025 27.0499 59.1825 22.9699 57.8125 19.4699C56.4425 15.9699 52.3125 14.4099 48.3725 15.7299C47.2405 13.7231 45.6029 12.0476 43.6225 10.8699C38.2125 7.56993 31.6225 8.43993 29.0025 12.8099C28.0381 14.456 27.6841 16.389 28.0025 18.2699C25.0025 18.2699 22.3825 19.6799 21.4025 22.0999C21.2323 22.5198 21.1179 22.9603 21.0625 23.4099" stroke="#333333" stroke-width="1.5" stroke-miterlimit="10"/>
<path d="M32.6917 49.6399H9.26172V30.1599L20.9817 23.3799L32.6917 30.1599V49.6399Z" stroke="#333333" stroke-width="1.5" stroke-miterlimit="10"/>
<path d="M5.24219 32.4899L20.9822 23.3799" stroke="#333333" stroke-width="1.5" stroke-miterlimit="10"/>
<path d="M36.7144 32.4899L20.9844 23.3799" stroke="#333333" stroke-width="1.5" stroke-miterlimit="10"/>
<path d="M24.3328 39.96H17.6328V49.64H24.3328V39.96Z" stroke="#333333" stroke-width="1.5" stroke-miterlimit="10"/>
<path d="M20.9828 35.5398C22.833 35.5398 24.3328 34.04 24.3328 32.1898C24.3328 30.3397 22.833 28.8398 20.9828 28.8398C19.1327 28.8398 17.6328 30.3397 17.6328 32.1898C17.6328 34.04 19.1327 35.5398 20.9828 35.5398Z" stroke="#333333" stroke-width="1.5" stroke-miterlimit="10"/>
<path d="M12.2109 28.4602V20.9502H15.5709V26.5102L12.2109 28.4602Z" stroke="#333333" stroke-width="1.5" stroke-miterlimit="10"/>
<path d="M20.9844 46.7598V42.8398" stroke="#333333" stroke-width="1.5" stroke-miterlimit="10"/>
</svg>
