<svg width="49" height="49" viewBox="0 0 49 49" fill="none" xmlns="http://www.w3.org/2000/svg">
<path d="M29.7608 12.8145C28.587 12.8438 27.4711 13.3308 26.6513 14.1716C25.8316 15.0123 25.373 16.1402 25.3733 17.3145C25.3737 16.1402 24.9151 15.0123 24.0953 14.1716C23.2756 13.3308 22.1597 12.8438 20.9858 12.8145C20.3848 12.8154 19.7898 12.935 19.235 13.1664C18.6803 13.3978 18.1766 13.7364 17.753 14.1628C17.3294 14.5893 16.9941 15.0951 16.7663 15.6514C16.5386 16.2076 16.4229 16.8034 16.4258 17.4045V17.2695C16.4258 20.2095 17.6558 21.177 19.8158 23.1645L25.3733 28.257L30.9233 23.1495C33.0833 21.162 34.3133 20.1945 34.3133 17.2545V17.3895C34.3153 16.1794 33.8371 15.018 32.9835 14.1602C32.13 13.3024 30.9709 12.8184 29.7608 12.8145V12.8145Z" stroke="#333333" stroke-width="1.5" stroke-miterlimit="10"/>
<path d="M23.3783 30.5293L13.8908 27.4693C13.3386 27.3218 12.7568 27.3269 12.2074 27.4841C11.6579 27.6412 11.1614 27.9446 10.7708 28.3618L7.80078 31.3993V41.7193L13.5758 39.8443C14.3551 39.5002 15.2121 39.3708 16.0583 39.4693L22.6883 40.2793C23.8111 40.4196 24.947 40.1535 25.8908 39.5293L36.7133 32.2693C37.1703 31.9634 37.4896 31.491 37.6031 30.9529C37.7166 30.4149 37.6153 29.8537 37.3208 29.3893V29.3893C37.172 29.1538 36.9781 28.9502 36.7501 28.7901C36.5222 28.63 36.2648 28.5167 35.9928 28.4567C35.7208 28.3968 35.4396 28.3913 35.1655 28.4407C34.8914 28.49 34.6298 28.5932 34.3958 28.7443L25.8908 34.2193" stroke="#333333" stroke-width="1.5" stroke-miterlimit="10"/>
<path d="M15.9297 32.6821L23.5347 35.0071C24.0608 35.1638 24.6273 35.1098 25.1144 34.8565C25.6014 34.6032 25.9709 34.1704 26.1447 33.6496V33.6496C26.2308 33.3847 26.2636 33.1054 26.2412 32.8277C26.2187 32.5501 26.1414 32.2797 26.0138 32.0321C25.8862 31.7845 25.7107 31.5647 25.4976 31.3853C25.2845 31.2059 25.0379 31.0706 24.7722 30.9871L23.3847 30.5371" stroke="#333333" stroke-width="1.5" stroke-miterlimit="10"/>
<path d="M25.0664 8.15697V5.20947" stroke="#333333" stroke-width="1.5" stroke-miterlimit="10"/>
<path d="M25.0664 8.15697V5.20947" stroke="#333333" stroke-width="1.5" stroke-miterlimit="10"/>
<path d="M33.6094 11.6968L35.6944 9.61182" stroke="#333333" stroke-width="1.5" stroke-miterlimit="10"/>
<path d="M33.6094 11.6968L35.6944 9.61182" stroke="#333333" stroke-width="1.5" stroke-miterlimit="10"/>
<path d="M16.5303 11.6968L14.4453 9.61182" stroke="#333333" stroke-width="1.5" stroke-miterlimit="10"/>
<path d="M16.5303 11.6968L14.4453 9.61182" stroke="#333333" stroke-width="1.5" stroke-miterlimit="10"/>
<path d="M12.9905 20.2319H10.043" stroke="#333333" stroke-width="1.5" stroke-miterlimit="10"/>
<path d="M12.9905 20.2319H10.043" stroke="#333333" stroke-width="1.5" stroke-miterlimit="10"/>
<path d="M37.1406 20.2319H40.0881" stroke="#333333" stroke-width="1.5" stroke-miterlimit="10"/>
<path d="M30.7578 15.6494C31.2946 16.1866 31.5961 16.915 31.5961 17.6744C31.5961 18.4338 31.2946 19.1622 30.7578 19.6994" stroke="#333333" stroke-width="1.5" stroke-miterlimit="10"/>
</svg>
