<svg width="24" height="24" viewBox="0 0 24 24" fill="none" xmlns="http://www.w3.org/2000/svg">
    <path d="M10.96 19.01C9.57 20.4 7.15 20.4 5.76 19.01L5.35 18.6C3.72 16.97 3.72 14.32 5.35 12.69L13.78 4.25001C14.77 3.26001 16.51 3.26001 17.5 4.25001C18 4.75001 18.27 5.41001 18.27 6.11001C18.27 6.81001 18 7.47001 17.5 7.97001L9.07 16.4C8.68 16.79 8.05 16.79 7.67 16.4C7.29 16.01 7.28 15.38 7.67 15L15.15 7.52001L14.09 6.46001L6.61 13.94C5.64 14.91 5.64 16.49 6.61 17.46C7.58 18.43 9.16 18.43 10.13 17.46L18.56 9.03001C19.34 8.25001 19.77 7.21001 19.77 6.11001C19.77 5.01001 19.34 3.97001 18.56 3.19001C17.78 2.41001 16.74 1.98001 15.64 1.98001C14.54 1.98001 13.5 2.41001 12.72 3.19001L4.29 11.62C2.08 13.84 2.08 17.44 4.29 19.66L4.7 20.07C5.68 21.05 6.98 21.59 8.36 21.59C9.74 21.59 11.04 21.05 12.02 20.07L19.8 12.29L18.74 11.23L10.96 19.01Z" fill="#333333"/>
</svg>
