<svg width="24" height="24" viewBox="0 0 24 24" fill="none" xmlns="http://www.w3.org/2000/svg">
    <path fill-rule="evenodd" clip-rule="evenodd" d="M17.11 2.25C19.31 2.25 21.38 2.74 22.63 3.56H22.62L22.96 3.78V17.54C22.96 17.87 22.79 18.18 22.5 18.35C22.22 18.51 21.86 18.51 21.57 18.35C20.53 17.78 18.85 17.43 17.1 17.43C15.54 17.43 14.04 17.71 12.99 18.18C12.36 18.47 11.63 18.47 10.99 18.18C9.93 17.7 8.44 17.43 6.88 17.43C5.13 17.43 3.45 17.78 2.41 18.36C2.27 18.44 2.12 18.48 1.96 18.48C1.8 18.48 1.64 18.43 1.49 18.35C1.21 18.18 1.03 17.87 1.03 17.54V3.78L1.37 3.56C2.62 2.74 4.69 2.25 6.89 2.25C8.87 2.25 10.73 2.65 12 3.32C13.27 2.64 15.13 2.25 17.11 2.25ZM2.53 16.66C3.74 16.19 5.27 15.93 6.89 15.93V15.92C8.52 15.92 10.04 16.19 11.25 16.66V4.61C10.21 4.07 8.59 3.74 6.89 3.74C5.19 3.74 3.57 4.07 2.53 4.61V16.66ZM17.11 15.93C18.73 15.93 20.27 16.19 21.47 16.66V4.62C20.43 4.08 18.81 3.75 17.11 3.75C15.41 3.75 13.79 4.08 12.75 4.62V16.67C13.96 16.2 15.49 15.93 17.11 15.93ZM13.41 19.62L13.55 19.56C17.61 17.77 22.47 20.23 22.68 20.34L21.99 21.67C21.99 21.67 21.9812 21.6659 21.9691 21.6601C21.6388 21.5012 17.5406 19.5294 14.28 20.88C13.74 21.39 13.06 21.6 12 21.6C10.94 21.6 10.26 21.39 9.72 20.88C6.33 19.48 2.01 21.67 2.01 21.67L1.32 20.34C1.53 20.23 6.39 17.77 10.45 19.56L10.59 19.62L10.69 19.73C10.87 19.92 11.11 20.1 12 20.1C12.89 20.1 13.13 19.93 13.31 19.73L13.41 19.62Z" fill="#333333"/>
</svg>
