<svg width="24" height="24" viewBox="0 0 24 24" fill="none" xmlns="http://www.w3.org/2000/svg">
    <path d="M19.48 7.22H16.92V4.75C16.92 3.39 15.81 2.28 14.45 2.28H5C3.64 2.28 2.53 3.39 2.53 4.75V14.73C2.53 16.09 3.64 17.2 5 17.2H7.56V19.67C7.56 21.03 8.67 22.14 10.03 22.14H19.48C20.84 22.14 21.95 21.03 21.95 19.67V9.69C21.95 8.33 20.84 7.22 19.48 7.22ZM5 15.7C4.46 15.7 4.03 15.26 4.03 14.73V4.75C4.03 4.21 4.47 3.78 5 3.78H14.45C14.99 3.78 15.42 4.22 15.42 4.75V7.22H10.03C8.67 7.22 7.56 8.33 7.56 9.69V15.69H5V15.7ZM20.45 19.67C20.45 20.21 20.01 20.64 19.48 20.64H10.03C9.49 20.64 9.06 20.2 9.06 19.67V9.69C9.06 9.15 9.5 8.72 10.03 8.72H19.48C20.02 8.72 20.45 9.16 20.45 9.69V19.67Z" fill="#333333"/>
</svg>
