<svg width="24" height="24" viewBox="0 0 24 24" fill="none" xmlns="http://www.w3.org/2000/svg">
    <path fill-rule="evenodd" clip-rule="evenodd" d="M14.9 2.26001C15.54 2.26001 16.16 2.50001 16.64 2.93001H16.62L20.85 6.73001C21.4 7.22001 21.72 7.93001 21.72 8.67001V18.76C21.72 20.2 20.55 21.37 19.11 21.37H4.77C3.33 21.37 2.16 20.2 2.16 18.76V4.87001C2.16 3.43001 3.33 2.26001 4.77 2.26001H14.9ZM12.33 6.36001V3.76001H7.08V6.36001C7.08 6.56001 7.24 6.72001 7.44 6.72001H11.97C12.17 6.72001 12.33 6.56001 12.33 6.36001ZM19.12 19.87C19.73 19.87 20.23 19.37 20.23 18.76H20.22V8.67001C20.22 8.35001 20.08 8.05001 19.85 7.84001L15.62 4.04001C15.42 3.86001 15.15 3.76001 14.88 3.76001H13.82V6.36001C13.82 7.38001 12.99 8.22001 11.96 8.22001H7.43C6.41 8.22001 5.57 7.39001 5.57 6.36001V3.76001H4.77C4.16 3.76001 3.66 4.26001 3.66 4.87001V18.76C3.66 19.37 4.16 19.87 4.77 19.87H19.12ZM8.65 14C8.65 12.18 10.13 10.7 11.95 10.7C13.77 10.7 15.25 12.18 15.25 14C15.25 15.82 13.77 17.3 11.95 17.3C10.13 17.3 8.65 15.82 8.65 14ZM10.15 13.99C10.15 14.98 10.96 15.79 11.95 15.79C12.94 15.79 13.75 14.98 13.75 13.99C13.75 13 12.94 12.19 11.95 12.19C10.96 12.19 10.15 13 10.15 13.99Z" fill="#333333"/>
</svg>
