<svg width="24" height="24" viewBox="0 0 24 24" fill="none" xmlns="http://www.w3.org/2000/svg">
    <path fill-rule="evenodd" clip-rule="evenodd" d="M0.269998 12.37C2.71 16.64 7.21 19.3 12 19.3C16.79 19.3 21.28 16.65 23.73 12.37L23.94 12L23.73 11.63C21.29 7.36 16.79 4.7 12 4.7C7.21 4.7 2.72 7.35 0.269998 11.63L0.0599976 12L0.269998 12.37ZM12 17.8C7.88 17.8 4.01 15.59 1.79 12C4.01 8.41 7.88 6.2 12 6.2C16.12 6.2 19.99 8.41 22.21 12C19.99 15.59 16.12 17.8 12 17.8ZM8.63 12C8.63 13.86 10.14 15.37 12 15.37C13.86 15.37 15.37 13.86 15.37 12C15.37 10.14 13.86 8.63 12 8.63C10.14 8.63 8.63 10.14 8.63 12ZM10.13 12.01C10.13 10.98 10.97 10.14 12 10.14C13.03 10.14 13.87 10.98 13.87 12.01C13.87 13.04 13.03 13.88 12 13.88C10.97 13.88 10.13 13.04 10.13 12.01Z" fill="#333333"/>
</svg>
