<svg width="24" height="24" viewBox="0 0 24 24" fill="none" xmlns="http://www.w3.org/2000/svg">
    <path fill-rule="evenodd" clip-rule="evenodd" d="M18.54 3.47V6.88H18.55C18.55 8.58 17.87 10.14 16.72 11.05L15.24 12.22L16.72 13.39C17.87 14.3 18.55 15.86 18.55 17.56V20.97H20.62V22.47H3.38V20.97H5.45V17.56C5.45 15.86 6.13 14.3 7.28 13.39L8.76 12.22L7.28 11.05C6.13 10.14 5.45 8.58 5.45 6.88V3.47H3.38V1.97H20.61V3.47H18.54ZM17.04 5.73V3.47H6.96V5.73H17.04ZM15.77 14.57L12.82 12.22L15.77 9.87C16.47 9.31 16.92 8.32 17 7.23H6.98C7.06 8.32 7.51 9.31 8.21 9.87L11.16 12.22L8.21 14.57C7.43001 15.19 6.95 16.33 6.95 17.56V20.97H11.24V18.01H12.74V20.97H17.03V17.56C17.03 16.34 16.55 15.19 15.77 14.57ZM11.25 12.22H12.75V15.36H11.25V12.22Z" fill="#333333"/>
</svg>
