<svg width="24" height="24" viewBox="0 0 24 24" fill="none" xmlns="http://www.w3.org/2000/svg">
    <path fill-rule="evenodd" clip-rule="evenodd" d="M15.35 7.72003L20.48 2.59003L21.55 3.65003L16.41 8.78003L20.87 8.77003L20.88 10.27L13.84 10.29L13.86 3.26003H15.36L15.35 7.72003ZM16.77 19.21C17.38 19.21 17.88 18.71 17.88 18.1V18.09V12.68H19.38V18.09C19.38 19.53 18.21 20.7 16.77 20.7H5.83C4.39 20.7 3.22 19.53 3.22 18.09V7.14998C3.22 5.70998 4.39 4.53998 5.83 4.53998H11.3V6.03998H5.83C5.22 6.03998 4.72 6.53998 4.72 7.14998V18.1C4.72 18.71 5.22 19.21 5.83 19.21H16.77Z" fill="#333333"/>
</svg>
