<svg width="24" height="24" viewBox="0 0 24 24" fill="none" xmlns="http://www.w3.org/2000/svg">
    <path fill-rule="evenodd" clip-rule="evenodd" d="M18.07 6.21999V8.41999C19.62 8.49999 20.86 9.77999 20.86 11.35V20.06C20.86 21.69 19.53 23.01 17.91 23.01H6.09C4.46 23.01 3.14 21.68 3.14 20.06V11.35C3.14 9.77999 4.38 8.49999 5.93 8.41999V6.21999C5.93 2.86999 8.66 0.149994 12 0.149994C15.34 0.149994 18.07 2.86999 18.07 6.21999ZM16.57 6.21999C16.57 3.69999 14.52 1.64999 12 1.64999C9.48 1.64999 7.43 3.69999 7.43 6.21999V8.39999H16.57V6.21999ZM17.9 21.5C18.7 21.5 19.35 20.85 19.35 20.05H19.36V11.34C19.36 10.54 18.71 9.88999 17.91 9.88999H6.09C5.29 9.88999 4.64 10.54 4.64 11.34V20.05C4.64 20.85 5.29 21.5 6.09 21.5H17.9ZM11.25 18V13.39H12.75V18H11.25Z" fill="#333333"/>
</svg>
