<svg width="24" height="24" viewBox="0 0 24 24" fill="none" xmlns="http://www.w3.org/2000/svg">
    <path fill-rule="evenodd" clip-rule="evenodd" d="M16.92 7.22003H19.48C20.84 7.22003 21.95 8.33003 21.95 9.69003V19.67C21.95 21.03 20.84 22.14 19.48 22.14H10.03C8.67003 22.14 7.56003 21.03 7.56003 19.67V17.2H5.00003C3.64003 17.2 2.53003 16.09 2.53003 14.73V4.75003C2.53003 3.39003 3.64003 2.28003 5.00003 2.28003H14.45C15.81 2.28003 16.92 3.39003 16.92 4.75003V7.22003ZM4.03003 14.73C4.03003 15.26 4.46003 15.7 5.00003 15.7V15.69H7.56003V9.69003C7.56003 8.33003 8.67003 7.22003 10.03 7.22003H15.42V4.75003C15.42 4.22003 14.99 3.78003 14.45 3.78003H5.00003C4.47003 3.78003 4.03003 4.21003 4.03003 4.75003V14.73ZM19.48 20.64C20.01 20.64 20.45 20.21 20.45 19.67V9.69003C20.45 9.16003 20.02 8.72003 19.48 8.72003H10.03C9.50003 8.72003 9.06003 9.15003 9.06003 9.69003V19.67C9.06003 20.2 9.49003 20.64 10.03 20.64H19.48ZM14 11.53H15.5V13.93H17.91V15.43H15.5V17.83H14V15.43H11.6V13.93H14V11.53Z" fill="#333333"/>
</svg>
