<svg width="24" height="24" viewBox="0 0 24 24" fill="none" xmlns="http://www.w3.org/2000/svg">
    <path fill-rule="evenodd" clip-rule="evenodd" d="M3.55 4.38C2.04 4.38 0.82 5.60001 0.82 7.11V16.72C0.82 18.23 2.04 19.45 3.55 19.45H20.46C21.97 19.45 23.19 18.23 23.19 16.72V7.11C23.19 5.60001 21.97 4.38 20.46 4.38H3.55ZM3.55 5.88H20.46C21.14 5.88 21.69 6.43001 21.69 7.11V8.38H2.32V7.11C2.32 6.43001 2.87 5.88 3.55 5.88ZM20.46 17.95H3.55C2.87 17.95 2.32 17.4 2.32 16.72V9.87H21.69V16.72C21.69 17.4 21.14 17.95 20.46 17.95ZM15.06 14.48H4.55V15.98H15.06V14.48ZM17.16 14.48H19.44V15.98H17.16V14.48Z" fill="#333333"/>
</svg>
