<svg width="24" height="24" viewBox="0 0 24 24" fill="none" xmlns="http://www.w3.org/2000/svg">
    <path fill-rule="evenodd" clip-rule="evenodd" d="M19.78 2.77002V6.55002H22.81V17.71H19.77V21.61H4.54V17.71H1.19V6.55002H4.54V2.77002H19.78ZM18.28 4.27002H6.05H6.04V6.55002H18.28V4.27002ZM6.04 20.11H18.27V17.71H6.04V20.11ZM2.69 16.21H21.31V8.05002H2.69V16.21ZM6.64 13.16H5.78V15.13H4.28V9.23999H6.64C7.78 9.23999 8.7 10.12 8.7 11.2C8.7 12.28 7.78 13.16 6.64 13.16ZM6.64 10.75H5.78V10.76V11.67H6.64C6.94 11.67 7.2 11.47 7.2 11.21C7.2 10.95 6.95 10.75 6.64 10.75ZM14.79 12.21C14.79 10.58 13.37 9.25 11.64 9.25H9.98V15.18H11.64C13.38 15.18 14.79 13.85 14.79 12.22V12.21ZM11.48 10.75H11.64C12.55 10.75 13.29 11.41 13.29 12.21C13.29 13.01 12.55 13.67 11.64 13.67H11.48V10.75ZM19.74 13.08H17.73V15.14H16.23V9.25H19.74V10.75H17.73V11.58H19.74V13.08Z" fill="#333333"/>
</svg>
