<svg width="24" height="24" viewBox="0 0 24 24" fill="none" xmlns="http://www.w3.org/2000/svg">
    <g clip-path="url(#clip0_1_44)">
        <path d="M12 0.83C5.84 0.83 0.830002 5.84 0.830002 12C0.830002 18.16 5.84 23.17 12 23.17C18.16 23.17 23.17 18.16 23.17 12C23.17 5.84 18.16 0.83 12 0.83ZM7 18.07C7 16.53 8.23 15.27 9.76 15.21C10.41 15.63 11.18 15.88 12 15.88C12.82 15.88 13.59 15.63 14.24 15.22C15.77 15.28 17 16.54 17 18.08V20.27C15.54 21.16 13.83 21.68 12 21.68C10.17 21.68 8.46 21.16 7 20.27V18.07ZM14.69 11.69C14.69 13.17 13.49 14.37 12.01 14.37C10.53 14.37 9.33 13.17 9.33 11.69V9C9.33 7.73 10.37 6.69 11.64 6.69H12.39C13.66 6.69 14.7 7.73 14.7 9V11.69H14.69ZM18.51 19.14V18.07C18.51 16.15 17.25 14.53 15.52 13.94C15.94 13.29 16.19 12.52 16.19 11.69V8.83C16.1 6.81 14.43 5.19 12.39 5.19H11.64C9.6 5.19 7.92 6.81 7.84 8.83V11.69C7.84 12.52 8.09 13.29 8.51 13.94C6.78 14.52 5.52 16.14 5.52 18.07V19.14C3.58 17.37 2.35 14.83 2.35 12C2.33 6.67 6.67 2.33 12 2.33C17.33 2.33 21.67 6.67 21.67 12C21.67 14.83 20.44 17.37 18.5 19.14H18.51Z" fill="#333333"/>
    </g>
    <defs>
        <clipPath id="clip0_1_44">
            <rect width="24" height="24" fill="white"/>
        </clipPath>
    </defs>
</svg>
