<svg width="24" height="24" viewBox="0 0 24 24" fill="none" xmlns="http://www.w3.org/2000/svg">
    <path d="M12 2.69C10.07 2.69 8.21002 3.3 6.66002 4.4L7.00002 1.78L5.51002 1.59L4.83002 6.93L10.17 7.61L10.36 6.12L7.37002 5.74C8.70002 4.75 10.32 4.19 12.01 4.19C16.28 4.19 19.75 7.66 19.75 11.93C19.75 16.2 16.28 19.67 12.01 19.67C7.74002 19.67 4.27002 16.2 4.27002 11.93C4.27002 11.33 4.34002 10.72 4.48002 10.14L3.02002 9.79C2.85002 10.49 2.77002 11.2 2.77002 11.93C2.77002 17.03 6.92002 21.17 12.01 21.17C17.1 21.17 21.25 17.02 21.25 11.93C21.25 6.84 17.1 2.69 12 2.69Z" fill="#333333"/>
</svg>
