<svg width="24" height="24" viewBox="0 0 24 24" fill="none" xmlns="http://www.w3.org/2000/svg">
    <g clip-path="url(#clip0_1_45)">
        <path fill-rule="evenodd" clip-rule="evenodd" d="M23.17 9.7V14.29H21.33C21.09 15.23 20.72 16.13 20.22 16.96L21.52 18.26L18.27 21.51L16.97 20.21C16.14 20.72 15.25 21.09 14.3 21.32V23.15H9.69999V21.32C8.75999 21.09 7.85999 20.71 7.02999 20.21L5.72999 21.51L2.47999 18.26L3.77999 16.96C3.26999 16.13 2.89999 15.24 2.66999 14.29H0.829987V9.69H2.66999C2.90999 8.75 3.27999 7.85 3.77999 7.02L2.47999 5.72L5.72999 2.47L7.02999 3.77C7.85999 3.26 8.74999 2.89 9.69999 2.66V0.83H14.3V2.67C15.24 2.9 16.14 3.28 16.97 3.78L18.27 2.48L21.52 5.73L20.22 7.03C20.73 7.86 21.1 8.75 21.33 9.7H23.17ZM19.99 13.42L20.1 12.8H21.67V11.2H20.1L19.99 10.58C19.79 9.4 19.34 8.32 18.66 7.35L18.3 6.83L19.41 5.72L18.28 4.59L17.17 5.7L16.66 5.34C15.69 4.67 14.6 4.22 13.43 4.01L12.81 3.9V2.33H11.21V3.9L10.59 4.01C9.40999 4.21 8.32999 4.66 7.35999 5.34L6.84999 5.7L5.73999 4.59L4.60999 5.72L5.71999 6.83L5.35999 7.35C4.68999 8.32 4.23999 9.41 4.02999 10.58L3.91999 11.2H2.34999V12.8H3.91999L4.02999 13.42C4.22999 14.6 4.67999 15.68 5.35999 16.65L5.71999 17.17L4.60999 18.28L5.73999 19.41L6.84999 18.3L7.35999 18.66C8.32999 19.33 9.41999 19.78 10.59 19.99L11.21 20.1V21.67H12.81V20.1L13.43 19.99C14.61 19.79 15.69 19.34 16.66 18.66L17.17 18.3L18.28 19.41L19.41 18.28L18.3 17.17L18.66 16.65C19.33 15.68 19.78 14.59 19.99 13.42ZM8.67999 12C8.67999 10.17 10.17 8.68 12 8.68C13.83 8.68 15.32 10.17 15.32 12C15.32 13.83 13.83 15.32 12 15.32C10.17 15.32 8.67999 13.83 8.67999 12ZM10.18 12C10.18 13 11 13.82 12 13.82C13 13.82 13.82 13 13.82 12C13.82 11 13 10.18 12 10.18C11 10.18 10.18 11 10.18 12Z" fill="#333333"/>
    </g>
    <defs>
        <clipPath id="clip0_1_45">
            <rect width="24" height="24" fill="white"/>
        </clipPath>
    </defs>
</svg>
