<svg width="24" height="24" viewBox="0 0 24 24" fill="none" xmlns="http://www.w3.org/2000/svg">
    <path fill-rule="evenodd" clip-rule="evenodd" d="M12.88 2.83C12.27 2.55 11.57 2.64 11.06 3.08L6.44 7.02H3.45C2.5 7.02 1.72 7.8 1.72 8.75V15.24C1.72 16.19 2.5 16.97 3.45 16.97H6.44L11.06 20.91C11.38 21.18 11.77 21.32 12.16 21.32C12.4 21.32 12.65 21.27 12.88 21.16C13.49 20.88 13.87 20.28 13.87 19.61V4.38C13.87 3.71 13.49 3.11 12.88 2.83ZM12.37 19.62C12.37 19.73 12.31 19.78 12.25 19.81C12.2 19.83 12.11 19.85 12.03 19.78L6.99 15.48H3.45C3.32 15.48 3.22 15.38 3.22 15.25V8.76C3.22 8.63 3.32 8.53 3.45 8.53H6.99L12.03 4.23C12.11 4.16 12.19 4.18 12.25 4.2C12.3 4.23 12.37 4.28 12.37 4.39V19.62ZM16.1 6.71002L15.02 7.75002C16.05 8.81002 16.64 10.36 16.64 12C16.64 13.64 16.05 15.19 15.02 16.25L16.1 17.29C17.4 15.95 18.14 14.02 18.14 12C18.14 9.98002 17.4 8.05002 16.1 6.71002ZM20.77 12.01C20.77 9.24002 19.77 6.62002 18.02 4.81002L19.1 3.77002C21.11 5.86002 22.27 8.86002 22.27 12.01C22.27 15.16 21.12 18.16 19.1 20.25L18.02 19.21C19.77 17.4 20.77 14.78 20.77 12.01Z" fill="#333333"/>
</svg>
