<svg width="24" height="24" viewBox="0 0 24 24" fill="none" xmlns="http://www.w3.org/2000/svg">
    <path fill-rule="evenodd" clip-rule="evenodd" d="M12 7.61C11.38 7.61 10.87 7.1 10.87 6.48C10.87 5.86 11.38 5.35 12 5.35C12.62 5.35 13.13 5.86 13.13 6.48C13.13 7.1 12.62 7.61 12 7.61ZM12 13.13C11.38 13.13 10.87 12.62 10.87 12C10.87 11.38 11.38 10.87 12 10.87C12.62 10.87 13.13 11.38 13.13 12C13.13 12.62 12.62 13.13 12 13.13ZM10.87 17.52C10.87 18.14 11.38 18.65 12 18.65C12.62 18.65 13.13 18.14 13.13 17.52C13.13 16.9 12.62 16.39 12 16.39C11.38 16.39 10.87 16.9 10.87 17.52Z" fill="#333333"/>
</svg>
