<svg width="24" height="24" viewBox="0 0 24 24" fill="none" xmlns="http://www.w3.org/2000/svg">
    <path d="M6.48001 13.13C5.86001 13.13 5.35001 12.62 5.35001 12C5.35001 11.38 5.86001 10.87 6.48001 10.87C7.10001 10.87 7.61001 11.38 7.61001 12C7.61001 12.62 7.10001 13.13 6.48001 13.13Z" fill="#333333"/>
    <path d="M12 13.13C11.38 13.13 10.87 12.62 10.87 12C10.87 11.38 11.38 10.87 12 10.87C12.62 10.87 13.13 11.38 13.13 12C13.13 12.62 12.62 13.13 12 13.13Z" fill="#333333"/>
    <path d="M17.52 13.13C16.9 13.13 16.39 12.62 16.39 12C16.39 11.38 16.9 10.87 17.52 10.87C18.14 10.87 18.65 11.38 18.65 12C18.65 12.62 18.14 13.13 17.52 13.13Z" fill="#333333"/>
</svg>
