<svg width="48" height="48" viewBox="0 0 48 48" fill="none" xmlns="http://www.w3.org/2000/svg">
    <path d="M19.1391 15.5899C18.5968 15.3392 18.0109 15.1965 17.4141 15.1699" stroke="#333333" stroke-width="1.5" stroke-miterlimit="10"/>
    <path d="M16.7318 15.1699C16.135 15.1965 15.5491 15.3392 15.0068 15.5899" stroke="#333333" stroke-width="1.5" stroke-miterlimit="10"/>
    <path d="M16.7314 15.1699C16.8439 15.1699 16.9564 15.1699 17.0689 15.1699C17.1814 15.1699 17.3014 15.1699 17.4139 15.1699" stroke="#333333" stroke-width="1.5" stroke-miterlimit="10"/>
    <path d="M15.0069 15.5898C14.2944 15.9348 13.8369 16.4373 13.8369 17.0073C13.8369 18.0348 15.2844 18.8598 17.0694 18.8598C18.8544 18.8598 20.3019 18.0348 20.3019 17.0073C20.2593 16.6863 20.1279 16.3835 19.9225 16.1331C19.7171 15.8827 19.4459 15.6945 19.1394 15.5898" stroke="#333333" stroke-width="1.5" stroke-miterlimit="10"/>
    <path d="M16.7312 15.1699C16.3151 13.7654 15.6157 12.4611 14.6762 11.3374C13.1762 9.83735 11.8637 9.66485 11.1587 10.3699C10.4537 11.0749 10.5962 12.3574 12.0962 13.8874C12.9407 14.6307 13.9178 15.2083 14.9762 15.5899" stroke="#333333" stroke-width="1.5" stroke-miterlimit="10"/>
    <path d="M19.1391 15.59C20.1975 15.2085 21.1745 14.6309 22.0191 13.8875C23.5191 12.3875 23.6841 11.075 22.9791 10.37C22.2741 9.66503 20.9991 9.80753 19.4691 11.3375C18.5295 12.4613 17.8302 13.7656 17.4141 15.17" stroke="#333333" stroke-width="1.5" stroke-miterlimit="10"/>
    <path d="M28.9792 18.8599C24.5017 22.8424 22.5967 32.0224 22.5967 38.0374" stroke="#333333" stroke-width="1.5" stroke-miterlimit="10"/>
    <path d="M31.0866 11.2625L32.4666 12.65L34.2216 11.7725C34.5194 11.6239 34.8565 11.5734 35.1848 11.6282C35.513 11.6831 35.8154 11.8405 36.0487 12.0779C36.2819 12.3153 36.4339 12.6204 36.483 12.9496C36.532 13.2787 36.4755 13.615 36.3216 13.91L35.4216 15.65L36.8016 17.045C37.0333 17.2823 37.1842 17.5866 37.2329 17.9146C37.2815 18.2427 37.2253 18.5777 37.0724 18.8719C36.9194 19.1662 36.6775 19.4046 36.3811 19.5533C36.0847 19.702 35.7489 19.7534 35.4216 19.7L33.4866 19.385L32.5866 21.125C32.4336 21.4201 32.1911 21.6591 31.8939 21.808C31.5968 21.9568 31.2601 22.0078 30.9322 21.9537C30.6043 21.8996 30.3018 21.7432 30.0682 21.5068C29.8346 21.2703 29.6818 20.9661 29.6316 20.6375L29.3466 18.71L27.4116 18.3875C27.0832 18.3336 26.7803 18.1771 26.5464 17.9403C26.3125 17.7036 26.1596 17.3989 26.1097 17.0699C26.0597 16.7409 26.1152 16.4045 26.2683 16.109C26.4213 15.8135 26.664 15.574 26.9616 15.425L28.7166 14.5475L28.4166 12.6125C28.3671 12.2847 28.4223 11.9497 28.5743 11.655C28.7263 11.3604 28.9674 11.1213 29.2633 10.9717C29.5591 10.8221 29.8946 10.7697 30.222 10.8219C30.5494 10.8741 30.852 11.0283 31.0866 11.2625V11.2625Z" stroke="#333333" stroke-width="1.5" stroke-miterlimit="10"/>
    <path d="M31.829 17.8626C32.7237 17.8626 33.449 17.1373 33.449 16.2426C33.449 15.3479 32.7237 14.6226 31.829 14.6226C30.9343 14.6226 30.209 15.3479 30.209 16.2426C30.209 17.1373 30.9343 17.8626 31.829 17.8626Z" stroke="#333333" stroke-width="1.5" stroke-miterlimit="10"/>
    <path d="M19.7765 29.5775C22.094 33.3275 23.2115 36.815 22.2815 37.3925C21.3515 37.97 18.7115 35.4125 16.394 31.67C14.9725 29.2913 14.1179 26.6172 13.8965 23.855C16.2701 25.2854 18.2821 27.2436 19.7765 29.5775V29.5775Z" stroke="#333333" stroke-width="1.5" stroke-miterlimit="10"/>
    <path d="M27.3365 30.4624C24.0665 33.4099 22.019 36.4624 22.7615 37.2724C23.504 38.0824 26.7365 36.3649 29.999 33.4174C32.037 31.53 33.6105 29.1966 34.5965 26.5999C31.9128 27.3147 29.429 28.6361 27.3365 30.4624Z" stroke="#333333" stroke-width="1.5" stroke-miterlimit="10"/>
</svg>
