<svg width="48" height="48" viewBox="0 0 48 48" fill="none" xmlns="http://www.w3.org/2000/svg">
    <path d="M17.1748 30.2774L17.1823 37.9574H19.7173L19.7098 29.2349" stroke="#333333" stroke-width="1.5" stroke-miterlimit="10"/>
    <path d="M14.1375 30.1425C15.0644 30.451 16.053 30.5262 17.0159 30.3614C17.9788 30.1965 18.8861 29.7968 19.6575 29.1975L19.71 29.235C22.1175 30.5625 24.7875 30.2025 25.71 28.44C26.325 27.2175 25.9275 25.6425 24.84 24.345C25.8019 23.9687 26.5852 23.2416 27.032 22.3104C27.4788 21.3792 27.5559 20.3132 27.2475 19.3275C27.0601 18.87 26.7841 18.4541 26.4354 18.1037C26.0867 17.7533 25.6721 17.4753 25.2156 17.2858C24.759 17.0962 24.2695 16.9987 23.7751 16.999C23.2808 16.9993 22.7914 17.0974 22.335 17.2875C21.7484 16.207 20.8967 15.2934 19.86 14.6325C17.04 12.84 13.635 13.3125 12.2475 15.6975C11.7266 16.6052 11.5383 17.666 11.715 18.6975C11.715 18.6975 7.85254 19.2825 7.85254 22.8225C7.85254 26.82 11.4675 26.73 11.4675 26.73C11.4675 26.73 11.76 29.3475 14.1375 30.1425Z" stroke="#333333" stroke-width="1.5" stroke-miterlimit="10"/>
    <path d="M24.9297 17.2125V10.0425H40.1472V37.9575H24.9297V29.34" stroke="#333333" stroke-width="1.5" stroke-miterlimit="10"/>
    <path d="M35.4668 13.7849V17.6324" stroke="#333333" stroke-width="1.5" stroke-miterlimit="10"/>
    <path d="M29.6094 13.7849V17.6324" stroke="#333333" stroke-width="1.5" stroke-miterlimit="10"/>
    <path d="M35.4668 22.3049V26.1524" stroke="#333333" stroke-width="1.5" stroke-miterlimit="10"/>
    <path d="M29.6094 22.3049V26.1524" stroke="#333333" stroke-width="1.5" stroke-miterlimit="10"/>
    <path d="M35.4668 30.4575V34.2975" stroke="#333333" stroke-width="1.5" stroke-miterlimit="10"/>
    <path d="M29.6094 30.4575V34.2975" stroke="#333333" stroke-width="1.5" stroke-miterlimit="10"/>
</svg>
