<svg width="48" height="48" viewBox="0 0 48 48" fill="none" xmlns="http://www.w3.org/2000/svg">
    <path d="M19.9199 26.1225H21.8774L22.4999 24.24C22.6017 23.9222 22.8018 23.6448 23.0714 23.4481C23.341 23.2513 23.6661 23.1453 23.9999 23.1453C24.3337 23.1453 24.6588 23.2513 24.9284 23.4481C25.198 23.6448 25.3981 23.9222 25.4999 24.24L26.1224 26.1H28.0799C28.4131 26.0963 28.7388 26.1983 29.0103 26.3913C29.2819 26.5844 29.4852 26.8586 29.591 27.1745C29.6969 27.4904 29.6998 27.8317 29.5995 28.1494C29.4991 28.4671 29.3006 28.7448 29.0324 28.9425L27.4574 30.105L28.0799 31.965C28.1863 32.2805 28.1899 32.6216 28.0903 32.9393C27.9906 33.257 27.7929 33.535 27.5255 33.7333C27.258 33.9316 26.9346 34.04 26.6017 34.043C26.2687 34.046 25.9434 33.9435 25.6724 33.75L24.0749 32.61L22.4999 33.7275C22.2325 33.9248 21.9095 34.0325 21.5772 34.0351C21.2449 34.0377 20.9202 33.9351 20.6498 33.7421C20.3793 33.549 20.1768 33.2753 20.0713 32.9601C19.9658 32.645 19.9627 32.3045 20.0624 31.9875L20.6474 30.12L19.0574 28.98C18.7888 28.7889 18.587 28.5184 18.4803 28.2065C18.3736 27.8947 18.3674 27.5572 18.4627 27.2416C18.5579 26.926 18.7498 26.6483 19.0112 26.4476C19.2726 26.2468 19.5905 26.1331 19.9199 26.1225Z" stroke="#333333" stroke-width="1.5" stroke-miterlimit="10"/>
    <path d="M24.0077 30.5549C24.9024 30.5549 25.6277 29.8296 25.6277 28.9349C25.6277 28.0402 24.9024 27.3149 24.0077 27.3149C23.113 27.3149 22.3877 28.0402 22.3877 28.9349C22.3877 29.8296 23.113 30.5549 24.0077 30.5549Z" stroke="#333333" stroke-width="1.5" stroke-miterlimit="10"/>
    <path d="M14.8948 36.7275C15.9173 36.7315 16.8966 37.14 17.6189 37.8637C18.3412 38.5874 18.7478 39.5675 18.7498 40.59H6.50977C6.50976 39.5669 6.91567 38.5856 7.63841 37.8615C8.36115 37.1373 9.34167 36.7295 10.3648 36.7275" stroke="#333333" stroke-width="1.5" stroke-miterlimit="10"/>
    <path d="M13.035 27.6675H12.2325C11.3718 27.6734 10.5485 28.02 9.94276 28.6314C9.33697 29.2428 8.99801 30.0693 9.00001 30.93V33.7725C9.00001 34.7412 9.38482 35.6702 10.0698 36.3552C10.7548 37.0402 11.6838 37.425 12.6525 37.425V37.425C13.6186 37.421 14.5438 37.0344 15.2255 36.3499C15.9073 35.6654 16.29 34.7386 16.29 33.7725V30.93C16.29 30.066 15.9473 29.2373 15.3371 28.6257C14.7269 28.0141 13.899 27.6695 13.035 27.6675Z" stroke="#333333" stroke-width="1.5" stroke-miterlimit="10"/>
    <path d="M26.1975 16.47C27.2206 16.47 28.2019 16.8759 28.9261 17.5986C29.6502 18.3214 30.058 19.3019 30.06 20.325H17.8125C17.8125 19.3026 18.2186 18.322 18.9416 17.5991C19.6646 16.8761 20.6451 16.47 21.6675 16.47" stroke="#333333" stroke-width="1.5" stroke-miterlimit="10"/>
    <path d="M24.3375 7.41005H23.535C23.105 7.40609 22.6785 7.48735 22.2802 7.64916C21.8818 7.81096 21.5194 8.0501 21.214 8.35275C20.9085 8.6554 20.6661 9.01556 20.5006 9.41245C20.3352 9.80933 20.25 10.2351 20.25 10.6651V13.5226C20.25 14.4932 20.6356 15.4242 21.322 16.1106C22.0084 16.7969 22.9393 17.1825 23.91 17.1825V17.1825C24.3928 17.1865 24.8716 17.0947 25.3187 16.9125C25.7658 16.7302 26.1723 16.4611 26.5148 16.1208C26.8572 15.7804 27.1288 15.3755 27.3138 14.9296C27.4988 14.4836 27.5935 14.0054 27.5925 13.5226V10.6651C27.5925 9.80177 27.2496 8.97385 26.6391 8.36342C26.0287 7.75299 25.2008 7.41005 24.3375 7.41005Z" stroke="#333333" stroke-width="1.5" stroke-miterlimit="10"/>
    <path d="M37.635 36.7275C38.6581 36.7295 39.6386 37.1373 40.3614 37.8615C41.0841 38.5856 41.49 39.5669 41.49 40.59H29.25C29.252 39.5663 29.6596 38.585 30.3835 37.861C31.1074 37.1371 32.0887 36.7295 33.1125 36.7275" stroke="#333333" stroke-width="1.5" stroke-miterlimit="10"/>
    <path d="M35.7675 27.6675H34.965C34.101 27.6695 33.2731 28.0141 32.6629 28.6257C32.0527 29.2373 31.71 30.066 31.71 30.93V33.7725C31.71 34.2528 31.8047 34.7283 31.9887 35.172C32.1727 35.6156 32.4424 36.0186 32.7824 36.3578C33.1224 36.6971 33.5259 36.966 33.9699 37.1491C34.4139 37.3322 34.8897 37.426 35.37 37.425V37.425C36.3348 37.419 37.258 37.0316 37.9381 36.3473C38.6183 35.6629 39 34.7373 39 33.7725V30.93C39.002 30.0693 38.663 29.2428 38.0572 28.6314C37.4514 28.02 36.6281 27.6734 35.7675 27.6675V27.6675Z" stroke="#333333" stroke-width="1.5" stroke-miterlimit="10"/>
</svg>
