<svg width="48" height="48" viewBox="0 0 48 48" fill="none" xmlns="http://www.w3.org/2000/svg">
    <g clip-path="url(#clip0_360_18)">
        <path d="M43.19 41.4901L39.51 32.7401L41.78 31.6701C42.88 31.1501 43.35 29.8401 42.83 28.7401L41.43 25.7701C41.18 25.2401 40.74 24.8401 40.18 24.6401C39.63 24.4401 39.03 24.4701 38.5 24.7201L36.78 25.5301L35.16 22.7501C34.04 20.8401 31.98 19.6501 29.76 19.6501H24.45C24.04 18.5301 22.97 17.7201 21.7 17.7201H19.37V14.3801C19.68 14.1301 19.94 13.8401 20.15 13.5001L23.36 14.3301L23.55 14.3501C24.76 14.3501 25.74 13.3701 25.74 12.1601V11.1301C25.74 9.92011 24.76 8.94011 23.55 8.94011L20.16 9.80011C19.54 8.79011 18.43 8.11011 17.16 8.11011C15.89 8.11011 14.78 8.79011 14.16 9.79011L10.95 8.96011L10.76 8.94011C9.54997 8.94011 8.56997 9.92011 8.56997 11.1301V12.1601C8.56997 13.3701 9.54997 14.3501 10.76 14.3501H10.86L14.16 13.4901C14.37 13.8301 14.63 14.1201 14.94 14.3701V17.7101H12.61C11.35 17.7101 10.28 18.5201 9.86997 19.6401H5.71997V26.8601H9.86997C10.28 27.9801 11.35 28.7901 12.61 28.7901H21.71C22.97 28.7901 24.04 27.9801 24.46 26.8601H28.64C28.99 26.8601 29.32 27.0501 29.5 27.3501L30.24 28.6101L28.44 29.4601C27.91 29.7101 27.51 30.1501 27.31 30.7101C27.11 31.2601 27.14 31.8601 27.39 32.3901L28.79 35.3601C29.04 35.8901 29.48 36.2901 30.04 36.4901C30.28 36.5801 30.53 36.6201 30.78 36.6201C31.1 36.6201 31.42 36.5501 31.72 36.4101L34.12 35.2801L38.99 43.5601L43.2 41.4701L43.19 41.4901ZM23.63 10.4601C23.98 10.5001 24.25 10.7901 24.25 11.1501V12.1801C24.25 12.5401 23.98 12.8301 23.63 12.8701L20.65 12.1001C20.67 11.9601 20.69 11.8201 20.69 11.6701C20.69 11.5201 20.66 11.3801 20.65 11.2401L23.63 10.4701V10.4601ZM17.16 9.63011C18.28 9.63011 19.2 10.5401 19.2 11.6701C19.2 12.8001 18.28 13.7101 17.16 13.7101C16.04 13.7101 15.12 12.8001 15.12 11.6701C15.12 10.5401 16.04 9.63011 17.16 9.63011ZM10.69 12.8701C10.34 12.8301 10.07 12.5401 10.07 12.1801V11.1501C10.07 10.7901 10.34 10.5001 10.69 10.4601L13.67 11.2301C13.65 11.3701 13.63 11.5101 13.63 11.6601C13.63 11.8101 13.66 11.9501 13.67 12.0901L10.69 12.8601V12.8701ZM16.45 15.1301C16.68 15.1801 16.92 15.2001 17.17 15.2001C17.42 15.2001 17.66 15.1701 17.89 15.1301V17.7401H16.45V15.1301ZM7.21997 21.1701H9.67997V25.3901H7.21997V21.1701ZM21.72 27.3201H12.62C11.88 27.3201 11.28 26.7601 11.2 26.0401V20.5201C11.28 19.8001 11.88 19.2401 12.62 19.2401H21.72C22.51 19.2401 23.15 19.8801 23.15 20.6701V25.8801C23.15 26.6701 22.51 27.3101 21.72 27.3101V27.3201ZM31.61 28.0001L30.81 26.6201C30.36 25.8601 29.54 25.3801 28.65 25.3801H24.65V21.1601H29.77C31.45 21.1601 33.02 22.0601 33.87 23.5201L35.42 26.1901L34.48 26.6401L31.59 28.0001H31.61ZM31.09 35.0801C30.92 35.1601 30.73 35.1701 30.56 35.1101C30.39 35.0501 30.24 34.9201 30.16 34.7501L28.76 31.7801C28.68 31.6101 28.67 31.4201 28.73 31.2501C28.79 31.0701 28.92 30.9301 29.09 30.8501L37.26 26.9901L37.56 26.8501L39.16 26.0901C39.25 26.0501 39.36 26.0201 39.46 26.0201C39.54 26.0201 39.62 26.0301 39.7 26.0601C39.88 26.1201 40.02 26.2501 40.1 26.4201L41.5 29.3901C41.66 29.7401 41.52 30.1501 41.17 30.3201L38.96 31.3701L38.94 31.3201L36.2 32.6701L31.1 35.0801H31.09ZM36.84 34.0201L38.18 33.3901L41.28 40.7801L39.58 41.6201L35.5 34.6801L36.84 34.0201Z" fill="#333333"/>
    </g>
    <defs>
        <clipPath id="clip0_360_18">
            <rect width="48" height="48" fill="white"/>
        </clipPath>
    </defs>
</svg>
