<svg width="48" height="48" viewBox="0 0 48 48" fill="none" xmlns="http://www.w3.org/2000/svg">
    <g clip-path="url(#clip0_234_9526)">
        <path d="M25.2486 34.7251H24.0336C23.3135 34.7251 22.623 35.0111 22.1138 35.5203C21.6046 36.0295 21.3186 36.72 21.3186 37.4401V39.1576H33.4311V37.4401C33.4311 36.72 33.1451 36.0295 32.6359 35.5203C32.1267 35.0111 31.4362 34.7251 30.7161 34.7251H29.5011" stroke="#333333" stroke-width="1.5" stroke-miterlimit="10"/>
        <path d="M25.2485 34.725V19.4475" stroke="#333333" stroke-width="1.5" stroke-miterlimit="10"/>
        <path d="M29.5012 34.725V19.4475" stroke="#333333" stroke-width="1.5" stroke-miterlimit="10"/>
        <path d="M25.2485 34.7251H29.501" stroke="#333333" stroke-width="1.5" stroke-miterlimit="10"/>
        <path d="M31.0312 15.75H35.6662" stroke="#333333" stroke-width="1.5" stroke-miterlimit="10"/>
        <path d="M15.9263 15.75H23.7188" stroke="#333333" stroke-width="1.5" stroke-miterlimit="10"/>
        <path d="M31.0312 18.5775H36.8812V15.75H35.6662" stroke="#333333" stroke-width="1.5" stroke-miterlimit="10"/>
        <path d="M15.9261 15.75H13.9836V18.5775H23.7186" stroke="#333333" stroke-width="1.5" stroke-miterlimit="10"/>
        <path d="M23.7186 18.5775C23.6333 18.389 23.5898 18.1843 23.5911 17.9775V16.3875C23.5918 16.1808 23.6352 15.9765 23.7186 15.7875C23.8326 15.5261 24.0187 15.3026 24.2551 15.1432C24.4916 14.9838 24.7685 14.8951 25.0536 14.8875H29.6961C29.9771 14.8917 30.2512 14.9749 30.4872 15.1274C30.7232 15.2798 30.9117 15.4956 31.0311 15.75C31.1145 15.939 31.1579 16.1433 31.1586 16.35V17.9775C31.1599 18.1843 31.1164 18.389 31.0311 18.5775C30.9128 18.8332 30.7248 19.0505 30.4887 19.2044C30.2526 19.3583 29.9779 19.4425 29.6961 19.4475H25.0536C24.7718 19.4425 24.4971 19.3583 24.261 19.2044C24.0249 19.0505 23.8369 18.8332 23.7186 18.5775V18.5775Z" stroke="#333333" stroke-width="1.5" stroke-miterlimit="10"/>
        <path d="M13.9837 26.0476H12.2962C11.9839 26.0476 11.6844 26.1717 11.4635 26.3925C11.2427 26.6133 11.1187 26.9128 11.1187 27.2251V28.0876C11.1187 28.3999 11.2427 28.6994 11.4635 28.9202C11.6844 29.1411 11.9839 29.2651 12.2962 29.2651H15.6712C15.9834 29.2651 16.2829 29.1411 16.5038 28.9202C16.7246 28.6994 16.8487 28.3999 16.8487 28.0876V27.2251C16.8487 26.9128 16.7246 26.6133 16.5038 26.3925C16.2829 26.1717 15.9834 26.0476 15.6712 26.0476H13.9837Z" stroke="#333333" stroke-width="1.5" stroke-miterlimit="10"/>
        <path d="M35.6663 15.75L27.3788 8.84253L15.9263 15.75" stroke="#333333" stroke-width="1.5" stroke-miterlimit="10"/>
        <path d="M13.9836 26.0475V18.585" stroke="#333333" stroke-width="1.5" stroke-miterlimit="10"/>
        <path d="M27.3711 14.8875V8.84253" stroke="#333333" stroke-width="1.5" stroke-miterlimit="10"/>
    </g>
    <defs>
        <clipPath id="clip0_234_9526">
            <rect width="48" height="48" fill="white"/>
        </clipPath>
    </defs>
</svg>
