<svg width="48" height="48" viewBox="0 0 48 48" fill="none" xmlns="http://www.w3.org/2000/svg">
    <path d="M28.9954 23.6532H19.0128L15.6931 19.1568C15.4377 18.7079 15.3034 18.2004 15.3035 17.6839V9.97685C15.3035 9.18734 15.6171 8.43017 16.1754 7.8719C16.7336 7.31363 17.4908 7 18.2803 7H29.7279C30.1185 7 30.5052 7.07705 30.8659 7.22675C31.2267 7.37645 31.5543 7.59584 31.8301 7.87237C32.1059 8.1489 32.3245 8.47712 32.4732 8.83825C32.622 9.19937 32.698 9.58629 32.697 9.97685V17.6839C32.6971 18.2004 32.5628 18.7079 32.3073 19.1568L28.9954 23.6532Z" stroke="#333333" stroke-width="1.5" stroke-miterlimit="10"/>
    <path d="M28.995 23.6531H19.0125V29.0535H28.995V23.6531Z" stroke="#333333" stroke-width="1.5" stroke-miterlimit="10"/>
    <path d="M25.8699 37.883L23.9997 41.0001L22.1294 37.883V29.0537H25.8699V37.883Z" stroke="#333333" stroke-width="1.5" stroke-miterlimit="10"/>
    <path d="M32.697 11.6211H38.6741C39.166 11.6211 39.6377 11.8165 39.9856 12.1643C40.3334 12.5121 40.5288 12.9839 40.5288 13.4758V13.4758C40.5288 13.9677 40.3334 14.4394 39.9856 14.7872C39.6377 15.1351 39.166 15.3305 38.6741 15.3305H32.697V11.6211Z" stroke="#333333" stroke-width="1.5" stroke-miterlimit="10"/>
    <path d="M15.3035 15.3228H9.32639C9.08283 15.3228 8.84166 15.2748 8.61664 15.1816C8.39162 15.0884 8.18716 14.9518 8.01493 14.7795C7.84271 14.6073 7.70609 14.4028 7.61289 14.1778C7.51968 13.9528 7.47171 13.7116 7.47171 13.4681C7.47171 13.2245 7.51968 12.9833 7.61289 12.7583C7.70609 12.5333 7.84271 12.3288 8.01493 12.1566C8.18716 11.9844 8.39162 11.8478 8.61664 11.7546C8.84166 11.6614 9.08283 11.6134 9.32639 11.6134H15.3035V15.3228Z" stroke="#333333" stroke-width="1.5" stroke-miterlimit="10"/>
    <path d="M30.0159 39.8622L32.9849 34.2047L35.1981 35.9736L37.9567 30.2771" stroke="#333333" stroke-width="1.5" stroke-miterlimit="10"/>
    <path d="M18.3505 39.8622L15.3815 34.2047L13.1683 35.9736L10.4019 30.2771" stroke="#333333" stroke-width="1.5" stroke-miterlimit="10"/>
    <path d="M20.6333 11.6211H27.3741" stroke="#333333" stroke-width="1.5" stroke-miterlimit="10"/>
    <path d="M20.6333 14.7693H27.3741" stroke="#333333" stroke-width="1.5" stroke-miterlimit="10"/>
    <path d="M20.6333 17.9255H27.3741" stroke="#333333" stroke-width="1.5" stroke-miterlimit="10"/>
</svg>
