<svg width="48" height="48" viewBox="0 0 48 48" fill="none" xmlns="http://www.w3.org/2000/svg">
    <g clip-path="url(#clip0_234_7846)">
        <path d="M21.3117 21.5588H9.70166V37.8638H21.3117V21.5588Z" stroke="#333333" stroke-width="1.5" stroke-miterlimit="10"/>
        <path d="M9.70166 10.1362V21.5587H24.3342C24.7092 21.5587 24.8742 21.1537 24.5892 20.9512L9.70166 10.1362Z" stroke="#333333" stroke-width="1.5" stroke-miterlimit="10"/>
        <path d="M17.3432 26.1338H13.9907V32.2013H17.3432V26.1338Z" stroke="#333333" stroke-width="1.5" stroke-miterlimit="10"/>
        <path d="M21.311 33.3262L24.146 34.8487L26.9735 33.3262L29.801 34.8487L32.636 33.3262L35.4635 34.8487L38.2985 33.3262L38.231 37.8637H21.311" stroke="#333333" stroke-width="1.5" stroke-miterlimit="10"/>
        <path d="M29.051 34.4438L29.0435 27.1313" stroke="#333333" stroke-width="1.5" stroke-miterlimit="10"/>
        <path d="M20.6057 18.1387C20.4707 16.5262 22.4282 15.4012 24.2207 16.1512C24.5231 15.2669 25.0762 14.4897 25.8126 13.9144C26.5491 13.3391 27.4371 12.9905 28.3682 12.9112C29.4047 12.8252 30.4383 13.1064 31.2884 13.7055C32.1385 14.3047 32.7508 15.1837 33.0182 16.1887C33.0182 16.1887 36.3557 15.6562 37.2782 18.5812C37.4497 18.9811 37.5345 19.4129 37.5271 19.8479C37.5197 20.283 37.4203 20.7116 37.2354 21.1055C37.0505 21.4994 36.7843 21.8497 36.4543 22.1334C36.1243 22.417 35.738 22.6276 35.3207 22.7512C35.3207 22.7512 36.0707 25.5787 34.3232 26.8612C33.575 27.3993 32.6826 27.7005 31.7614 27.7259C30.8401 27.7513 29.9324 27.4997 29.1557 27.0037C25.9232 28.9312 22.1282 27.9487 21.3182 25.0687" stroke="#333333" stroke-width="1.5" stroke-miterlimit="10"/>
    </g>
    <defs>
        <clipPath id="clip0_234_7846">
            <rect width="48" height="48" fill="white"/>
        </clipPath>
    </defs>
</svg>
