<svg width="48" height="48" viewBox="0 0 48 48" fill="none" xmlns="http://www.w3.org/2000/svg">
    <g clip-path="url(#clip0_234_7493)">
        <path d="M23.3418 33.1301V42.1001H27.1118V31.6401" stroke="#333333" stroke-width="1.5" stroke-miterlimit="10"/>
        <path d="M18.0512 32.9399C19.63 33.4404 21.3048 33.56 22.9386 33.2888C24.5724 33.0177 26.1188 32.3635 27.4513 31.3799C27.4844 31.3745 27.5181 31.3745 27.5512 31.3799C31.6512 33.5399 36.2112 32.9599 37.7312 30.0799C38.7812 28.0799 38.1013 25.5299 36.2413 23.4199C39.7213 21.9699 41.5512 18.3399 40.3512 15.2399C39.1512 12.1399 35.4712 10.7399 31.9712 11.9099C30.9501 10.1618 29.497 8.70526 27.7512 7.67993C23.0012 4.74993 17.1313 5.51993 14.7713 9.37993C13.8993 10.8327 13.5765 12.5497 13.8612 14.2199C13.8612 14.2199 7.28125 15.1599 7.28125 20.9299C7.28125 27.4499 13.4412 27.3099 13.4412 27.3099C13.6198 28.5808 14.1442 29.7781 14.9572 30.771C15.7702 31.7639 16.8406 32.5142 18.0512 32.9399V32.9399Z" stroke="#333333" stroke-width="1.5" stroke-miterlimit="10"/>
    </g>
    <defs>
        <clipPath id="clip0_234_7493">
            <rect width="48" height="48" fill="white"/>
        </clipPath>
    </defs>
</svg>
