<svg width="48" height="48" viewBox="0 0 48 48" fill="none" xmlns="http://www.w3.org/2000/svg">
    <path d="M22.5151 26.6904V40.8654H25.4926V25.4604" stroke="#333333" stroke-width="1.5" stroke-miterlimit="10"/>
    <path d="M18.9381 26.5928C20.0251 26.9541 21.1844 27.0418 22.3133 26.8482C23.4423 26.6546 24.5061 26.1856 25.4106 25.4828H25.4781C28.3056 27.0428 31.4406 26.6303 32.4831 24.5528C33.2331 23.1203 32.7456 21.2678 31.4631 19.7528C33.8556 18.7178 35.1231 16.0928 34.2906 13.8428C33.8336 12.7673 32.971 11.9153 31.8899 11.4716C30.8088 11.028 29.5964 11.0284 28.5156 11.4728C27.8297 10.209 26.8334 9.14047 25.6206 8.36784C22.3131 6.26034 18.3081 6.81534 16.6806 9.61284C16.0806 10.6673 15.8608 11.8958 16.0581 13.0928C16.0581 13.0928 11.5581 13.7753 11.5581 17.9303C11.5581 22.6253 15.7956 22.5203 15.7956 22.5203C15.7956 22.5203 16.1106 25.6328 18.9381 26.5928Z" stroke="#333333" stroke-width="1.5" stroke-miterlimit="10"/>
    <path d="M25.5155 29.9231C26.2216 29.8787 26.9289 29.9901 27.5873 30.2493C28.2456 30.5085 28.839 30.9092 29.3255 31.4231C34.8305 28.1231 37.2979 32.1731 36.2929 34.7756C39.7054 34.3256 40.5379 36.6956 40.5379 37.9106C40.5379 39.5456 38.8354 40.9106 36.7354 40.9106H25.3354" stroke="#333333" stroke-width="1.5" stroke-miterlimit="10"/>
    <path d="M22.6724 40.843H11.2649C9.1649 40.843 7.4624 39.5155 7.4624 37.843C7.52371 37.2164 7.77821 36.6243 8.1907 36.1487C8.60319 35.673 9.15329 35.3373 9.7649 35.188C9.52866 34.7855 9.4234 34.3195 9.46371 33.8546C9.50402 33.3897 9.68791 32.9488 9.9899 32.593C10.5198 32.0654 11.2371 31.7691 11.9849 31.7691C12.7327 31.7691 13.45 32.0654 13.9799 32.593C16.4399 30.508 19.7324 30.043 22.5149 30.043" stroke="#333333" stroke-width="1.5" stroke-miterlimit="10"/>
</svg>
