<svg width="48" height="48" viewBox="0 0 48 48" fill="none" xmlns="http://www.w3.org/2000/svg">
    <path d="M27.5661 34.2976H15.2061" stroke="#333333" stroke-width="1.5" stroke-miterlimit="10"/>
    <path d="M11.2832 30.3824C11.2833 29.5625 11.5779 28.7699 12.1134 28.1491C12.649 27.5282 13.3897 27.1204 14.2007 26.9999L31.4507 24.4199V30.3824" stroke="#333333" stroke-width="1.5" stroke-miterlimit="10"/>
    <path d="M31.4811 38.22C33.6474 38.22 35.4036 36.4638 35.4036 34.2975C35.4036 32.1312 33.6474 30.375 31.4811 30.375C29.3148 30.375 27.5586 32.1312 27.5586 34.2975C27.5586 36.4638 29.3148 38.22 31.4811 38.22Z" stroke="#333333" stroke-width="1.5" stroke-miterlimit="10"/>
    <path d="M11.2838 38.22C13.4502 38.22 15.2063 36.4638 15.2063 34.2975C15.2063 32.1312 13.4502 30.375 11.2838 30.375C9.11749 30.375 7.36133 32.1312 7.36133 34.2975C7.36133 36.4638 9.11749 38.22 11.2838 38.22Z" stroke="#333333" stroke-width="1.5" stroke-miterlimit="10"/>
    <path d="M23.3065 30.8101H19.459" stroke="#333333" stroke-width="1.5" stroke-miterlimit="10"/>
    <path d="M31.4814 24.42L36.2814 9.78003H40.6389" stroke="#333333" stroke-width="1.5" stroke-miterlimit="10"/>
    <path d="M11.2841 34.8376C11.5824 34.8376 11.8241 34.5958 11.8241 34.2976C11.8241 33.9993 11.5824 33.7576 11.2841 33.7576C10.9859 33.7576 10.7441 33.9993 10.7441 34.2976C10.7441 34.5958 10.9859 34.8376 11.2841 34.8376Z" stroke="#333333" stroke-width="1.5" stroke-miterlimit="10"/>
    <path d="M31.4814 34.8376C31.7796 34.8376 32.0214 34.5958 32.0214 34.2976C32.0214 33.9993 31.7796 33.7576 31.4814 33.7576C31.1832 33.7576 30.9414 33.9993 30.9414 34.2976C30.9414 34.5958 31.1832 34.8376 31.4814 34.8376Z" stroke="#333333" stroke-width="1.5" stroke-miterlimit="10"/>
    <path d="M18.9561 16.3501L19.6611 20.1376" stroke="#333333" stroke-width="1.5" stroke-miterlimit="10"/>
    <path d="M15.7387 21.7275L13.6162 18.51" stroke="#333333" stroke-width="1.5" stroke-miterlimit="10"/>
    <path d="M24.7163 16.4399L23.9062 20.2049" stroke="#333333" stroke-width="1.5" stroke-miterlimit="10"/>
</svg>
