<svg width="48" height="48" viewBox="0 0 48 48" fill="none" xmlns="http://www.w3.org/2000/svg">
    <g clip-path="url(#clip0_234_7804)">
        <path d="M27.1952 14.0796H20.8052C20.8052 16.3296 18.6377 18.3021 16.5902 19.2321C14.9137 19.9851 13.4899 21.2057 12.4896 22.7474C11.4892 24.2892 10.9547 26.0867 10.9502 27.9246V27.9246C10.9561 30.4569 11.9647 32.8838 13.7554 34.6744C15.546 36.4651 17.9729 37.4736 20.5052 37.4796H27.4952C30.0275 37.4736 32.4544 36.4651 34.245 34.6744C36.0357 32.8838 37.0443 30.4569 37.0502 27.9246C37.0457 26.0867 36.5112 24.2892 35.5108 22.7474C34.5105 21.2057 33.0867 19.9851 31.4102 19.2321C29.3627 18.3021 27.1952 16.3296 27.1952 14.0796Z" stroke="#333333" stroke-width="1.5" stroke-miterlimit="10"/>
        <path d="M24 14.0796C24 21.7221 20.415 21.4596 20.415 28.2471C20.415 35.0346 24 37.4796 24 37.4796" stroke="#333333" stroke-width="1.5" stroke-miterlimit="10"/>
        <path d="M27.1953 14.0796C27.1953 21.7221 32.6478 21.4596 32.6478 28.2471C32.6478 35.0346 27.9978 37.4796 27.9978 37.4796" stroke="#333333" stroke-width="1.5" stroke-miterlimit="10"/>
        <path d="M24 14.0796C24 21.7221 27.585 21.4596 27.585 28.2471C27.585 35.0346 24 37.4796 24 37.4796" stroke="#333333" stroke-width="1.5" stroke-miterlimit="10"/>
        <path d="M20.8047 14.0797V9.85721C20.8068 9.77103 20.8349 9.68751 20.8853 9.6176C20.9358 9.54769 21.0062 9.49465 21.0873 9.46546C21.1684 9.43626 21.2564 9.43226 21.3398 9.45399C21.4232 9.47572 21.4981 9.52215 21.5547 9.58721C22.4997 10.7947 23.9847 12.8872 23.9847 14.0872" stroke="#333333" stroke-width="1.5" stroke-miterlimit="10"/>
        <path d="M27.1954 14.0797V7.44216C27.1963 7.3547 27.1703 7.26908 27.121 7.19684C27.0717 7.12459 27.0015 7.0692 26.9197 7.03813C26.838 7.00707 26.7487 7.00182 26.6638 7.02311C26.579 7.04439 26.5028 7.09118 26.4454 7.15716C25.1703 8.56016 24.0326 10.0821 23.0479 11.7022" stroke="#333333" stroke-width="1.5" stroke-miterlimit="10"/>
        <path d="M20.0025 37.4796C20.0025 37.4796 15.3525 35.0421 15.3525 28.2471C15.3525 21.4521 20.805 21.7221 20.805 14.0796" stroke="#333333" stroke-width="1.5" stroke-miterlimit="10"/>
        <path d="M24 37.4797V40.9897" stroke="#333333" stroke-width="1.5" stroke-miterlimit="10"/>
        <path d="M24.0001 37.4797L21.5176 39.9622" stroke="#333333" stroke-width="1.5" stroke-miterlimit="10"/>
        <path d="M24 37.4797L26.4825 39.9622" stroke="#333333" stroke-width="1.5" stroke-miterlimit="10"/>
    </g>
    <defs>
        <clipPath id="clip0_234_7804">
            <rect width="48" height="48" fill="white"/>
        </clipPath>
    </defs>
</svg>
