<svg width="48" height="48" viewBox="0 0 48 48" fill="none" xmlns="http://www.w3.org/2000/svg">
    <g clip-path="url(#clip0_234_7830)">
        <path d="M26.91 37.0388L24 38.6813L21.0675 37.0388C18.5865 35.6295 16.5248 33.5859 15.0936 31.1175C13.6624 28.6491 12.9131 25.8446 12.9225 22.9913V9.31885H35.0775V22.9913C35.0838 25.8467 34.3308 28.6524 32.8956 31.1209C31.4604 33.5893 29.3946 35.6318 26.91 37.0388V37.0388Z" stroke="#333333" stroke-width="1.5" stroke-miterlimit="10"/>
        <path d="M24.0003 27.109C27.0453 29.509 30.7953 27.0565 29.5578 22.7515C28.5678 19.399 24.0003 13.9915 24.0003 13.9915C24.0003 13.9915 19.4028 19.4215 18.4428 22.774C17.2053 27.0565 20.9628 29.509 24.0003 27.109Z" stroke="#333333" stroke-width="1.5" stroke-miterlimit="10"/>
        <path d="M24.0005 18.2815V32.0215" stroke="#333333" stroke-width="1.5" stroke-miterlimit="10"/>
    </g>
    <defs>
        <clipPath id="clip0_234_7830">
            <rect width="48" height="48" fill="white"/>
        </clipPath>
    </defs>
</svg>
