<svg width="48" height="48" viewBox="0 0 48 48" fill="none" xmlns="http://www.w3.org/2000/svg">
    <g clip-path="url(#clip0_234_7482)">
        <path d="M19.8193 27.0193H28.5593" stroke="#333333" stroke-width="1.5" stroke-miterlimit="10"/>
        <path d="M26.0098 11.7299V7.61987C26.0098 7.08944 25.7991 6.58073 25.424 6.20566C25.0489 5.83059 24.5402 5.61987 24.0098 5.61987C23.4793 5.61987 22.9706 5.83059 22.5956 6.20566C22.2205 6.58073 22.0098 7.08944 22.0098 7.61987V11.7299" stroke="#333333" stroke-width="1.5" stroke-miterlimit="10"/>
        <path d="M23.2195 20.2801L13.4695 38.0601C13.3022 38.3662 13.0709 38.6328 12.7913 38.8416C12.5118 39.0504 12.1906 39.1965 11.8495 39.2701C11.2688 39.3859 10.6658 39.2901 10.1495 39.0001C9.86472 38.8489 9.61273 38.6428 9.40808 38.3937C9.20343 38.1445 9.05018 37.8573 8.9572 37.5486C8.86421 37.2399 8.83333 36.9158 8.86634 36.5951C8.89934 36.2744 8.99559 35.9634 9.1495 35.6801L19.5495 16.8201" stroke="#333333" stroke-width="1.5" stroke-miterlimit="10"/>
        <path d="M28.44 16.8201L38.81 35.7101C39.1217 36.2776 39.1951 36.9457 39.0141 37.5674C38.8331 38.1891 38.4126 38.7134 37.845 39.0251C37.2775 39.3367 36.6094 39.4101 35.9877 39.2291C35.366 39.0482 34.8417 38.6276 34.53 38.0601L24.79 20.3101" stroke="#333333" stroke-width="1.5" stroke-miterlimit="10"/>
        <path d="M24.0004 20.3795C26.5188 20.3795 28.5604 18.3379 28.5604 15.8195C28.5604 13.3011 26.5188 11.2595 24.0004 11.2595C21.482 11.2595 19.4404 13.3011 19.4404 15.8195C19.4404 18.3379 21.482 20.3795 24.0004 20.3795Z" stroke="#333333" stroke-width="1.5" stroke-miterlimit="10"/>
        <path d="M37.8398 39.03L39.8098 42.38" stroke="#333333" stroke-width="1.5" stroke-miterlimit="10"/>
        <path d="M10.1504 39.03L8.19043 42.38" stroke="#333333" stroke-width="1.5" stroke-miterlimit="10"/>
    </g>
    <defs>
        <clipPath id="clip0_234_7482">
            <rect width="48" height="48" fill="white"/>
        </clipPath>
    </defs>
</svg>
