<svg width="48" height="48" viewBox="0 0 48 48" fill="none" xmlns="http://www.w3.org/2000/svg">
    <g clip-path="url(#clip0_234_7837)">
        <path d="M24.5423 30.5704L16.3898 27.9304C15.915 27.802 15.4144 27.8039 14.9406 27.9358C14.4668 28.0678 14.0374 28.325 13.6973 28.6804L11.1323 31.3129V40.2304L16.0973 38.6179C16.7681 38.3209 17.5063 38.2095 18.2348 38.2954L23.9648 38.9929C24.9342 39.1102 25.9134 38.876 26.7248 38.3329L36.0623 32.0629C36.4558 31.797 36.7305 31.3887 36.8285 30.9241C36.9264 30.4594 36.84 29.9749 36.5873 29.5729C36.4585 29.3697 36.2907 29.1941 36.0936 29.0561C35.8966 28.9181 35.6741 28.8205 35.4392 28.7689C35.2042 28.7173 34.9614 28.7128 34.7246 28.7555C34.4879 28.7982 34.2619 28.8874 34.0598 29.0179L26.7098 33.7654" stroke="#333333" stroke-width="1.5" stroke-miterlimit="10"/>
        <path d="M18.1304 32.4303L24.6929 34.4403C25.1484 34.573 25.6376 34.5235 26.0573 34.3025C26.4771 34.0814 26.7946 33.706 26.9429 33.2553C27.0174 33.0264 27.0459 32.7849 27.0266 32.5449C27.0073 32.3049 26.9406 32.0711 26.8304 31.857C26.7202 31.6429 26.5687 31.4528 26.3846 31.2976C26.2005 31.1424 25.9875 31.0252 25.7579 30.9528L24.5429 30.5703" stroke="#333333" stroke-width="1.5" stroke-miterlimit="10"/>
        <path d="M26.1398 31.1254L26.1323 23.9404" stroke="#333333" stroke-width="1.5" stroke-miterlimit="10"/>
        <path d="M23.5229 25.0205L23.5304 30.2405" stroke="#333333" stroke-width="1.5" stroke-miterlimit="10"/>
        <path d="M20.3949 24.8779C21.3438 25.1891 22.3544 25.2636 23.3387 25.095C24.323 24.9263 25.2512 24.5197 26.0424 23.9104H26.1024C28.5774 25.2754 31.3524 24.9079 32.2449 23.0929C32.8749 21.8329 32.4699 20.2129 31.3449 18.8854C32.3352 18.4974 33.1418 17.7487 33.6024 16.7899C34.063 15.8312 34.1434 14.7336 33.8274 13.7179C33.4324 12.779 32.6844 12.0328 31.7445 11.64C30.8046 11.2472 29.7481 11.2393 28.8024 11.6179C28.199 10.5055 27.3212 9.56575 26.2524 8.88794C23.3574 7.04294 19.8474 7.53044 18.4149 9.98294C17.8942 10.9126 17.7013 11.9904 17.8674 13.0429C17.8674 13.0429 13.8999 13.6354 13.8999 17.2804C13.8999 21.3979 17.6499 21.3079 17.6499 21.3079C17.6499 21.3079 17.9199 24.0604 20.3949 24.8779Z" stroke="#333333" stroke-width="1.5" stroke-miterlimit="10"/>
    </g>
    <defs>
        <clipPath id="clip0_234_7837">
            <rect width="48" height="48" fill="white"/>
        </clipPath>
    </defs>
</svg>
