<svg width="48" height="48" viewBox="0 0 48 48" fill="none" xmlns="http://www.w3.org/2000/svg">
    <g clip-path="url(#clip0_234_10007)">
        <path d="M17.2416 22.0709L25.9191 30.7484C26.073 30.9008 26.1869 31.0887 26.251 31.2956C26.3151 31.5024 26.3273 31.7219 26.2865 31.9346C26.2458 32.1473 26.1533 32.3467 26.0173 32.5152C25.8813 32.6837 25.7059 32.8162 25.5066 32.9009L10.2816 39.4859C10.0372 39.5884 9.76777 39.6159 9.50768 39.5648C9.2476 39.5136 9.00862 39.3862 8.82119 39.1988C8.63376 39.0114 8.50637 38.7724 8.45524 38.5123C8.40412 38.2522 8.43157 37.9828 8.53411 37.7384L15.0891 22.5059C15.1715 22.3049 15.3022 22.1273 15.4697 21.989C15.6371 21.8506 15.8361 21.7557 16.049 21.7127C16.2619 21.6697 16.4822 21.6798 16.6902 21.7423C16.8982 21.8048 17.0876 21.9177 17.2416 22.0709Z" stroke="#333333" stroke-width="1.5"/>
        <path d="M18.5918 29.3982L24.7268 23.2632" stroke="#333333" stroke-width="1.5"/>
        <path d="M37.4708 14.7052C38.6306 13.5453 38.6318 11.666 37.4734 10.5076C36.315 9.34922 34.4357 9.35041 33.2759 10.5103L24.8754 18.9107C23.7156 20.0705 23.7144 21.9499 24.8728 23.1083C26.0312 24.2667 27.9105 24.2655 29.0704 23.1056L37.4708 14.7052Z" stroke="#333333" stroke-width="1.5"/>
    </g>
    <defs>
        <clipPath id="clip0_234_10007">
            <rect width="48" height="48" fill="white"/>
        </clipPath>
    </defs>
</svg>
