<svg width="48" height="48" viewBox="0 0 48 48" fill="none" xmlns="http://www.w3.org/2000/svg">
    <path d="M40.1199 11.04H30.2199C29.8499 7.93002 27.1999 5.52002 23.9999 5.52002C20.7999 5.52002 18.1499 7.94002 17.7799 11.04H7.87988V12.54H10.4999L14.1799 40.97H33.8099L37.4899 12.54H40.1099V11.04H40.1199ZM23.9999 7.02002C26.3699 7.02002 28.3299 8.77002 28.6999 11.04H19.3099C19.6699 8.77002 21.6299 7.02002 24.0099 7.02002H23.9999ZM32.4999 39.47H15.4999L12.0199 12.54H35.9799L32.4999 39.47Z" fill="black"/>
    <path d="M24.75 16.4399H23.25V35.5599H24.75V16.4399Z" fill="black"/>
    <path d="M29.4459 16.3796L27.8335 35.5017L29.3282 35.6277L30.9406 16.5056L29.4459 16.3796Z" fill="black"/>
    <path d="M18.5496 16.3752L17.0549 16.5012L18.6674 35.6234L20.1621 35.4973L18.5496 16.3752Z" fill="black"/>
</svg>
