<svg width="100%" height="100%" viewBox="0 0 48 48" fill="none" xmlns="http://www.w3.org/2000/svg">
<g clip-path="url(#clip0_3152_5249)">
<path d="M26.3995 37.4001V41.6601H21.5195V37.4001V36.9001H21.0195H11.1795C10.8369 36.9001 10.5355 36.7083 10.386 36.4001H11.5095H26.9395H26.9795H36.5295H37.534C37.3959 36.7014 37.0901 36.9001 36.7395 36.9001H26.8995H26.3995V37.4001ZM11.1524 35.5502L10.3653 36.3534C10.2397 36.0304 10.312 35.6612 10.5573 35.4094C10.5573 35.4093 10.5574 35.4093 10.5575 35.4092L17.3666 28.4601L18.1537 27.6568C18.2794 27.9798 18.207 28.3491 17.9617 28.6008C17.9617 28.6009 17.9616 28.601 17.9615 28.6011L11.1524 35.5502ZM17.3395 27.1101C17.6901 27.1101 17.9959 27.3089 18.134 27.6101H17.0095H14.4195C14.0769 27.6101 13.7755 27.4183 13.626 27.1101H14.7495H17.3395ZM14.3923 26.2603L13.6055 27.0638C13.4796 26.7407 13.5519 26.3711 13.7974 26.1193C13.7974 26.1192 13.7975 26.1192 13.7975 26.1192L20.3868 19.3899L21.1735 18.5864C21.2994 18.9094 21.2271 19.2788 20.9819 19.5306C20.9818 19.5308 20.9816 19.5309 20.9815 19.5311L14.3923 26.2603ZM20.3595 18.0401C20.7021 18.0401 21.0035 18.2319 21.153 18.5401H20.0295H18.2395C17.8969 18.5401 17.5955 18.3483 17.446 18.0401H18.5695H20.3595ZM18.2124 17.1901L17.4252 17.9932C17.2997 17.6703 17.372 17.3012 17.6172 17.0495C17.6173 17.0494 17.6174 17.0493 17.6175 17.0492L23.3342 11.2128C23.3368 11.2112 23.3404 11.2092 23.3452 11.2066C23.355 11.2012 23.3621 11.1975 23.3724 11.1922C23.3796 11.1884 23.3885 11.1838 23.401 11.1773C23.4252 11.1645 23.4587 11.1465 23.4945 11.1241L23.7295 10.9772V10.7001V7.37012H24.2295V10.6901V10.9474L24.4389 11.097C24.4709 11.1198 24.5015 11.139 24.5238 11.1527C24.5367 11.1605 24.5454 11.1658 24.5527 11.1702C24.5619 11.1757 24.569 11.18 24.5795 11.1866C24.5976 11.1979 24.6054 11.2037 24.6076 11.2054L30.3415 17.0492C30.3417 17.0494 30.342 17.0497 30.3422 17.0499C30.5719 17.2861 30.6497 17.6254 30.5548 17.933L29.8266 17.1901L24.3766 11.6301L24.0195 11.2658L23.6624 11.6301L18.2124 17.1901ZM29.4695 18.0401H30.514C30.3759 18.3414 30.0701 18.5401 29.7195 18.5401H27.9295H26.8851C27.0231 18.2389 27.3289 18.0401 27.6795 18.0401H29.4695ZM27.0569 19.5305C26.827 19.2942 26.7492 18.9545 26.8444 18.6467L27.5723 19.3899L34.1615 26.1192C34.1616 26.1193 34.1617 26.1193 34.1618 26.1194C34.392 26.3558 34.4698 26.6956 34.3746 27.0036L33.6468 26.2603L27.0575 19.5311C27.0573 19.5309 27.0571 19.5307 27.0569 19.5305ZM33.2895 27.1101H34.334C34.1959 27.4114 33.8901 27.6101 33.5395 27.6101H30.9495H29.9051C30.0431 27.3089 30.3489 27.1101 30.6995 27.1101H33.2895ZM30.0773 28.6008C29.8471 28.3646 29.7692 28.0249 29.8643 27.717L30.5924 28.4601L36.5696 34.5601H36.5337L37.3615 35.4092C37.5903 35.6438 37.6704 35.9706 37.5857 36.2636L36.8866 35.5502L30.0775 28.6011C30.0774 28.601 30.0774 28.6009 30.0773 28.6008ZM25.4395 41.1601H25.9395V40.6601V37.4001V36.9001H25.4395H22.5595H22.0595V37.4001V40.6601V41.1601H22.5595H25.4395Z" fill="#006817" stroke="#006817"/>
<path d="M17.9395 32.8398C17.9395 32.2659 18.4056 31.7998 18.9795 31.7998C19.5533 31.7998 20.0195 32.2659 20.0195 32.8398C20.0195 33.4137 19.5533 33.8798 18.9795 33.8798C18.4056 33.8798 17.9395 33.4137 17.9395 32.8398Z" fill="#006817" stroke="#006817"/>
<path d="M26.1992 30.6699C26.1992 30.096 26.6654 29.6299 27.2392 29.6299C27.8131 29.6299 28.2792 30.096 28.2792 30.6699C28.2792 31.2437 27.8131 31.7099 27.2392 31.7099C26.6654 31.7099 26.1992 31.2437 26.1992 30.6699Z" fill="#006817" stroke="#006817"/>
<path d="M22.0801 24.0205C22.0801 23.4466 22.5462 22.9805 23.1201 22.9805C23.6939 22.9805 24.1601 23.4466 24.1601 24.0205C24.1601 24.5943 23.6939 25.0605 23.1201 25.0605C22.5462 25.0605 22.0801 24.5943 22.0801 24.0205Z" fill="#006817" stroke="#006817"/>
<path d="M22.959 15.9697C22.959 15.3958 23.4251 14.9297 23.999 14.9297C24.5728 14.9297 25.039 15.3958 25.039 15.9697C25.039 16.5435 24.5728 17.0097 23.999 17.0097C23.4251 17.0097 22.959 16.5435 22.959 15.9697Z" fill="#006817" stroke="#006817"/>
</g>
<defs>
<clipPath id="clip0_3152_5249">
<rect width="48" height="48" fill="white"/>
</clipPath>
</defs>
</svg>
