<svg width="100%" height="100%" viewBox="0 0 48 48" fill="none" xmlns="http://www.w3.org/2000/svg">
<path d="M17.1738 30.2779L17.1813 37.9579H19.7163L19.7088 29.2354" stroke="#006817" stroke-width="1.5" stroke-miterlimit="10"/>
<path d="M14.1366 30.1427C15.0634 30.4513 16.0521 30.5264 17.0149 30.3616C17.9778 30.1968 18.8851 29.797 19.6566 29.1977L19.7091 29.2352C22.1166 30.5627 24.7866 30.2027 25.7091 28.4402C26.3241 27.2177 25.9266 25.6427 24.8391 24.3452C25.8009 23.9689 26.5843 23.2419 27.0311 22.3107C27.4779 21.3795 27.5549 20.3135 27.2466 19.3277C27.0592 18.8703 26.7832 18.4544 26.4344 18.104C26.0857 17.7536 25.6712 17.4756 25.2146 17.286C24.7581 17.0964 24.2685 16.999 23.7742 16.9993C23.2798 16.9996 22.7904 17.0976 22.3341 17.2877C21.7474 16.2073 20.8958 15.2937 19.8591 14.6327C17.0391 12.8402 13.6341 13.3127 12.2466 15.6977C11.7256 16.6054 11.5373 17.6662 11.7141 18.6977C11.7141 18.6977 7.85156 19.2827 7.85156 22.8227C7.85156 26.8202 11.4666 26.7302 11.4666 26.7302C11.4666 26.7302 11.7591 29.3477 14.1366 30.1427Z" stroke="#006817" stroke-width="1.5" stroke-miterlimit="10"/>
<path d="M24.9297 17.213V10.043H40.1472V37.958H24.9297V29.3405" stroke="#006817" stroke-width="1.5" stroke-miterlimit="10"/>
<path d="M35.4648 13.7852V17.6327" stroke="#006817" stroke-width="1.5" stroke-miterlimit="10"/>
<path d="M29.6094 13.7852V17.6327" stroke="#006817" stroke-width="1.5" stroke-miterlimit="10"/>
<path d="M35.4648 22.3057V26.1532" stroke="#006817" stroke-width="1.5" stroke-miterlimit="10"/>
<path d="M29.6094 22.3057V26.1532" stroke="#006817" stroke-width="1.5" stroke-miterlimit="10"/>
<path d="M35.4648 30.458V34.298" stroke="#006817" stroke-width="1.5" stroke-miterlimit="10"/>
<path d="M29.6094 30.458V34.298" stroke="#006817" stroke-width="1.5" stroke-miterlimit="10"/>
</svg>
