<svg width="100%" height="100%" viewBox="0 0 48 48" fill="none" xmlns="http://www.w3.org/2000/svg">
<g clip-path="url(#clip0_3152_3785)">
<path d="M21.9753 28.3423L25.5978 31.9648L20.7528 36.8098C19.3144 38.2498 17.4482 39.1852 15.4337 39.4759C13.4192 39.7665 11.3647 39.3969 9.57783 38.4223V38.4223C8.60324 36.6355 8.23362 34.581 8.52431 32.5665C8.81499 30.552 9.75034 28.6858 11.1903 27.2473L16.0353 22.4023L19.6578 26.0248" stroke="#005F88" stroke-width="1.5"/>
<path d="M34.2904 16.0646L31.9729 13.7471L19.6579 26.0246L19.0654 27.9596C19.0109 28.0959 18.9975 28.2452 19.027 28.389C19.0565 28.5328 19.1276 28.6648 19.2314 28.7686C19.3352 28.8724 19.4672 28.9435 19.611 28.973C19.7548 29.0025 19.9041 28.9891 20.0404 28.9346L21.9754 28.3421L34.2904 16.0646Z" stroke="#005F88" stroke-width="1.5"/>
<path d="M38.0829 13.785L34.2168 9.91894C33.3938 9.09591 32.0594 9.09591 31.2363 9.91894L31.1992 9.95606C30.3762 10.7791 30.3762 12.1135 31.1992 12.9365L35.0653 16.8026C35.8883 17.6257 37.2227 17.6257 38.0458 16.8026L38.0829 16.7655C38.9059 15.9425 38.9059 14.6081 38.0829 13.785Z" stroke="#005F88" stroke-width="1.5"/>
<path d="M14.2578 33.7423L19.1778 28.8223" stroke="#005F88" stroke-width="1.5"/>
</g>
<defs>
<clipPath id="clip0_3152_3785">
<rect width="48" height="48" fill="white"/>
</clipPath>
</defs>
</svg>
