<svg width="100%" height="100%" viewBox="0 0 48 48" fill="none" xmlns="http://www.w3.org/2000/svg">
<path d="M21.3112 21.5596H9.70117V37.8646H21.3112V21.5596Z" stroke="#006817" stroke-width="1.5" stroke-miterlimit="10"/>
<path d="M9.70117 10.1367V21.5592H24.3337C24.7087 21.5592 24.8737 21.1542 24.5887 20.9517L9.70117 10.1367Z" stroke="#006817" stroke-width="1.5" stroke-miterlimit="10"/>
<path d="M17.3427 26.1348H13.9902V32.2023H17.3427V26.1348Z" stroke="#006817" stroke-width="1.5" stroke-miterlimit="10"/>
<path d="M21.3105 33.3262L24.1455 34.8487L26.973 33.3262L29.8005 34.8487L32.6355 33.3262L35.463 34.8487L38.298 33.3262L38.2305 37.8637H21.3105" stroke="#006817" stroke-width="1.5" stroke-miterlimit="10"/>
<path d="M29.0505 34.4443L29.043 27.1318" stroke="#006817" stroke-width="1.5" stroke-miterlimit="10"/>
<path d="M20.6043 18.1392C20.4693 16.5267 22.4268 15.4017 24.2193 16.1517C24.5216 15.2674 25.0747 14.4902 25.8112 13.9149C26.5476 13.3395 27.4356 12.991 28.3668 12.9117C29.4032 12.8257 30.4369 13.1068 31.2869 13.706C32.137 14.3052 32.7493 15.1841 33.0168 16.1892C33.0168 16.1892 36.3543 15.6567 37.2768 18.5817C37.4482 18.9816 37.533 19.4133 37.5257 19.8484C37.5183 20.2835 37.4189 20.7121 37.234 21.106C37.049 21.4999 36.7828 21.8502 36.4528 22.1339C36.1228 22.4175 35.7365 22.6281 35.3193 22.7517C35.3193 22.7517 36.0693 25.5792 34.3218 26.8617C33.5736 27.3998 32.6811 27.701 31.7599 27.7264C30.8387 27.7518 29.931 27.5002 29.1543 27.0042C25.9218 28.9317 22.1268 27.9492 21.3168 25.0692" stroke="#006817" stroke-width="1.5" stroke-miterlimit="10"/>
</svg>
