<svg width="100%" height="100%" viewBox="0 0 48 48" fill="none" xmlns="http://www.w3.org/2000/svg">
<path d="M19.9189 26.1228H21.8764L22.4989 24.2403C22.6007 23.9224 22.8008 23.6451 23.0704 23.4483C23.34 23.2515 23.6652 23.1455 23.9989 23.1455C24.3327 23.1455 24.6578 23.2515 24.9274 23.4483C25.197 23.6451 25.3972 23.9224 25.4989 24.2403L26.1214 26.1003H28.0789C28.4121 26.0965 28.7378 26.1985 29.0094 26.3916C29.2809 26.5847 29.4842 26.8588 29.59 27.1748C29.6959 27.4907 29.6989 27.832 29.5985 28.1497C29.4981 28.4674 29.2996 28.745 29.0314 28.9428L27.4564 30.1053L28.0789 31.9653C28.1853 32.2808 28.1889 32.6219 28.0893 32.9396C27.9897 33.2573 27.7919 33.5352 27.5245 33.7335C27.257 33.9318 26.9336 34.0402 26.6007 34.0433C26.2678 34.0463 25.9424 33.9437 25.6714 33.7503L24.0739 32.6103L22.4989 33.7278C22.2315 33.9251 21.9085 34.0327 21.5762 34.0354C21.2439 34.038 20.9193 33.9354 20.6488 33.7423C20.3783 33.5492 20.1758 33.2755 20.0703 32.9604C19.9648 32.6452 19.9617 32.3048 20.0614 31.9878L20.6464 30.1203L19.0564 28.9803C18.7879 28.7892 18.586 28.5186 18.4793 28.2068C18.3726 27.8949 18.3665 27.5574 18.4617 27.2418C18.557 26.9263 18.7488 26.6486 19.0102 26.4478C19.2717 26.247 19.5895 26.1334 19.9189 26.1228Z" stroke="#006817" stroke-width="1.5" stroke-miterlimit="10"/>
<path d="M24.0067 30.5554C24.9014 30.5554 25.6267 29.8301 25.6267 28.9354C25.6267 28.0407 24.9014 27.3154 24.0067 27.3154C23.112 27.3154 22.3867 28.0407 22.3867 28.9354C22.3867 29.8301 23.112 30.5554 24.0067 30.5554Z" stroke="#006817" stroke-width="1.5" stroke-miterlimit="10"/>
<path d="M14.8948 36.7275C15.9173 36.7315 16.8966 37.14 17.6189 37.8637C18.3412 38.5874 18.7478 39.5675 18.7498 40.59H6.50977C6.50976 39.5669 6.91567 38.5856 7.63841 37.8615C8.36115 37.1373 9.34167 36.7295 10.3648 36.7275" stroke="#006817" stroke-width="1.5" stroke-miterlimit="10"/>
<path d="M13.035 27.668H12.2325C11.3718 27.6739 10.5485 28.0205 9.94276 28.6319C9.33697 29.2433 8.99801 30.0698 9.00001 30.9305V33.773C9.00001 34.7417 9.38482 35.6707 10.0698 36.3557C10.7548 37.0407 11.6838 37.4255 12.6525 37.4255V37.4255C13.6186 37.4215 14.5438 37.0349 15.2255 36.3504C15.9073 35.6658 16.29 34.7391 16.29 33.773V30.9305C16.29 30.0665 15.9473 29.2378 15.3371 28.6262C14.7269 28.0146 13.899 27.67 13.035 27.668Z" stroke="#006817" stroke-width="1.5" stroke-miterlimit="10"/>
<path d="M26.1975 16.4707C27.2206 16.4707 28.2019 16.8766 28.9261 17.5993C29.6502 18.3221 30.058 19.3026 30.06 20.3257H17.8125C17.8125 19.3033 18.2186 18.3228 18.9416 17.5998C19.6646 16.8769 20.6451 16.4707 21.6675 16.4707" stroke="#006817" stroke-width="1.5" stroke-miterlimit="10"/>
<path d="M24.3375 7.41029H23.535C23.105 7.40633 22.6785 7.4876 22.2802 7.6494C21.8818 7.81121 21.5194 8.05034 21.214 8.35299C20.9085 8.65564 20.6661 9.01581 20.5006 9.41269C20.3352 9.80957 20.25 10.2353 20.25 10.6653V13.5228C20.25 14.4935 20.6356 15.4244 21.322 16.1108C22.0084 16.7972 22.9393 17.1828 23.91 17.1828V17.1828C24.3928 17.1868 24.8716 17.095 25.3187 16.9127C25.7658 16.7305 26.1723 16.4614 26.5148 16.121C26.8572 15.7807 27.1288 15.3758 27.3138 14.9298C27.4988 14.4838 27.5935 14.0056 27.5925 13.5228V10.6653C27.5925 9.80201 27.2496 8.97409 26.6391 8.36366C26.0287 7.75323 25.2008 7.41029 24.3375 7.41029Z" stroke="#006817" stroke-width="1.5" stroke-miterlimit="10"/>
<path d="M37.635 36.7275C38.6581 36.7295 39.6386 37.1373 40.3614 37.8615C41.0841 38.5856 41.49 39.5669 41.49 40.59H29.25C29.252 39.5663 29.6596 38.585 30.3835 37.861C31.1074 37.1371 32.0887 36.7295 33.1125 36.7275" stroke="#006817" stroke-width="1.5" stroke-miterlimit="10"/>
<path d="M35.7684 27.668H34.9659C34.102 27.67 33.2741 28.0146 32.6638 28.6262C32.0536 29.2378 31.7109 30.0665 31.7109 30.9305V33.773C31.7109 34.2533 31.8057 34.7288 31.9897 35.1725C32.1737 35.6161 32.4434 36.0191 32.7834 36.3583C33.1233 36.6976 33.5269 36.9665 33.9709 37.1496C34.4149 37.3327 34.8907 37.4265 35.3709 37.4255V37.4255C36.3357 37.4195 37.259 37.0321 37.9391 36.3478C38.6192 35.6634 39.001 34.7378 39.0009 33.773V30.9305C39.0029 30.0698 38.664 29.2433 38.0582 28.6319C37.4524 28.0205 36.6291 27.6739 35.7684 27.668V27.668Z" stroke="#006817" stroke-width="1.5" stroke-miterlimit="10"/>
</svg>
