<svg width="48" height="48" viewBox="0 0 48 48" fill="none" xmlns="http://www.w3.org/2000/svg">
<path d="M16.2392 33.5099C19.1392 33.5099 21.8392 34.0599 23.6392 35.0299L23.9892 35.2199L24.3392 35.0299C26.1392 34.0599 28.8392 33.5099 31.7392 33.5099C34.6392 33.5099 37.3392 34.0599 39.1392 35.0299L40.2392 35.6199V10.8299L39.8392 10.6199C37.8192 9.53992 34.8692 8.91992 31.7292 8.91992C28.7692 8.91992 25.9692 9.46992 23.9692 10.4399C21.9692 9.46992 19.1692 8.91992 16.2092 8.91992C13.0692 8.91992 10.1092 9.53992 8.09922 10.6199L7.69922 10.8299V35.6199L8.79922 35.0299C10.5992 34.0599 13.2992 33.5099 16.1992 33.5099H16.2392ZM38.7592 11.7399V33.1999C36.8392 32.4399 34.3592 32.0099 31.7492 32.0099C29.1392 32.0099 26.6592 32.4399 24.7392 33.1999V11.7499C26.5292 10.8999 29.0492 10.4199 31.7492 10.4199C34.4492 10.4199 36.9692 10.8999 38.7592 11.7399ZM9.22922 11.7399C11.0192 10.8999 13.5392 10.4199 16.2392 10.4199C18.9392 10.4199 21.4492 10.9099 23.2492 11.7499V33.1999C21.3292 32.4399 18.8492 32.0099 16.2392 32.0099C13.6292 32.0099 11.1492 32.4399 9.22922 33.1999V11.7399Z" fill="#EC8F39"/>
<path d="M32.1097 35.9004C29.0097 35.9004 26.0897 36.4804 23.9997 37.4904C21.9097 36.4804 18.9897 35.9004 15.8897 35.9004C12.6097 35.9004 9.52969 36.5504 7.42969 37.6704L8.13969 38.9904C10.0297 37.9804 12.8597 37.4004 15.8897 37.4004C18.9197 37.4004 21.7497 37.9804 23.6397 38.9904L23.9897 39.1804L24.3397 38.9904C26.2297 37.9804 29.0597 37.4004 32.0897 37.4004C35.1197 37.4004 37.9497 37.9804 39.8397 38.9904L40.5497 37.6704C38.4497 36.5404 35.3597 35.9004 32.0897 35.9004H32.1097Z" fill="#EC8F39"/>
</svg>
