<svg width="48" height="48" viewBox="0 0 48 48" fill="none" xmlns="http://www.w3.org/2000/svg">
<path d="M33.9807 22.3696C34.2107 21.8296 34.1607 20.7596 33.1807 19.7696C32.2007 20.7496 32.2007 21.8296 32.3807 22.3696C31.7807 22.0596 31.4007 21.4396 31.4007 20.7596C31.4007 19.7796 31.8007 18.5296 33.1907 16.2896C34.5807 18.5296 34.9807 19.7796 34.9807 20.7596C34.9807 21.4396 34.6007 22.0596 33.9907 22.3696M43.3007 9.79965V8.89965H33.1907C28.3807 8.89965 24.4807 12.7996 24.4907 17.6096C24.4907 17.6096 24.4907 17.6096 24.4907 17.6196V31.7196H23.5807V17.6196C23.5907 12.8096 19.7007 8.89965 14.8907 8.88965C14.8807 8.88965 14.8707 8.88965 14.8607 8.88965H4.7207V9.78965C5.8007 11.3996 6.0607 12.9696 6.0607 16.0596V32.8396C6.0607 36.1496 5.7907 37.4496 4.7207 39.1096V39.9897H9.5507C12.2107 39.9997 14.3707 37.8496 14.3807 35.1996C14.3807 35.1996 14.3807 35.1796 14.3807 35.1696V21.0896C13.2207 22.2196 12.1107 22.4796 11.3607 22.3396C11.6107 21.6096 12.4007 20.7696 13.9707 20.3396C12.4107 19.8996 11.6307 19.0696 11.3807 18.3396C12.1307 18.1896 13.2507 18.4596 14.4207 19.5996C13.9907 17.9896 14.3207 16.8696 14.8307 16.2896C15.3407 16.8796 15.6707 17.9896 15.2407 19.5996C16.4207 18.4596 17.5107 18.1896 18.2807 18.3396C18.0307 19.0696 17.2507 19.8996 15.6907 20.3396C17.2607 20.7796 18.0507 21.6096 18.3007 22.3396C17.5507 22.4896 16.4407 22.2196 15.2807 21.0896V31.2796C15.1807 36.0996 19.0107 40.0796 23.8307 40.1796C28.6507 40.2796 32.6307 36.4496 32.7307 31.6296C32.7307 31.5096 32.7307 31.3897 32.7307 31.2696V22.9896H33.6207V35.1596C33.6207 37.8196 35.7707 39.9796 38.4307 39.9796C38.4407 39.9796 38.4507 39.9796 38.4707 39.9796H43.3007V39.0996C42.2207 37.4396 41.9607 36.1497 41.9607 32.8297V16.0496C41.9607 12.9596 42.2307 11.3896 43.3007 9.77965" fill="#333333"/>
</svg>
