<svg width="48" height="48" viewBox="0 0 48 48" fill="none" xmlns="http://www.w3.org/2000/svg">
<path d="M29.2109 20.8996C29.4009 20.5996 29.5409 20.2696 29.6309 19.9096L32.7809 18.7296V11.4696L35.9709 10.2896L35.4509 8.87961L31.2809 10.4296V17.6996L29.6109 18.3296C29.2409 16.9496 27.9909 15.9296 26.4909 15.9296C25.8509 15.9296 25.2609 16.1196 24.7509 16.4396V7.84961H23.2509V16.4296C22.7509 16.1096 22.1509 15.9096 21.5109 15.9096C20.0109 15.9096 18.7609 16.9296 18.3909 18.3096L16.7209 17.6796V10.4096L12.5509 8.85961L12.0309 10.2696L15.2209 11.4496V18.7096L18.3709 19.8896C18.4609 20.2496 18.6009 20.5796 18.7909 20.8796H5.63086V21.6296C5.63086 24.8496 9.36086 27.3796 14.1209 27.3796C15.5709 27.3796 16.9309 27.1396 18.1109 26.7196L15.2209 30.5596V35.6696L11.8409 38.2596L12.7509 39.4496L16.7209 36.4096V31.0596L20.6609 25.8196V37.4996C20.6609 39.3396 22.1609 40.8396 24.0009 40.8396C25.8409 40.8396 27.3309 39.3396 27.3309 37.4996V25.8196L31.2709 31.0596V36.4096L35.2409 39.4496L36.1509 38.2596L32.7709 35.6696V30.5596L29.8809 26.7196C31.0609 27.1396 32.4209 27.3796 33.8709 27.3796C38.6309 27.3796 42.3609 24.8596 42.3609 21.6296V20.8796H29.2009L29.2109 20.8996ZM26.4809 17.4096C27.4409 17.4096 28.2209 18.1896 28.2209 19.1496C28.2209 20.1096 27.4409 20.8896 26.4809 20.8896C25.5209 20.8896 24.7909 20.1496 24.7409 19.2196V19.1596C24.7409 19.1596 24.7409 19.1496 24.7409 19.1396C24.7409 19.1296 24.7409 19.1296 24.7409 19.1196V19.0596C24.7809 18.1396 25.5409 17.3896 26.4809 17.3896V17.4096ZM19.7609 19.1496C19.7609 18.1896 20.5409 17.4096 21.5009 17.4096C22.4609 17.4096 23.2109 18.1696 23.2409 19.1096C23.2409 19.1296 23.2409 19.1396 23.2409 19.1596C23.2409 19.1796 23.2409 19.1896 23.2409 19.2096C23.2109 20.1496 22.4509 20.9096 21.5009 20.9096C20.5509 20.9096 19.7609 20.1296 19.7609 19.1696V19.1496ZM7.23086 22.3896H20.9909C20.3909 24.3496 17.4809 25.8896 14.1109 25.8896C10.7409 25.8896 7.83086 24.3496 7.23086 22.3896ZM25.8309 37.5096C25.8309 38.5196 25.0109 39.3496 24.0009 39.3496C22.9909 39.3496 22.1609 38.5296 22.1609 37.5096V24.2196C22.1609 23.2096 22.9809 22.3796 24.0009 22.3796C25.0209 22.3796 25.8309 23.1996 25.8309 24.2196V37.5096ZM33.8809 25.8796C30.5109 25.8796 27.6009 24.3396 27.0009 22.3796H40.7609C40.1609 24.3396 37.2509 25.8796 33.8809 25.8796Z" fill="#006817"/>
</svg>
