<svg width="100%" height="100%" viewBox="0 0 48 48" fill="none" xmlns="http://www.w3.org/2000/svg">
<g clip-path="url(#clip0_3152_2910)">
<path d="M32.5452 9.03516H11.5952C10.1813 9.03516 9.03516 10.1813 9.03516 11.5952V32.5452C9.03516 33.959 10.1813 35.1052 11.5952 35.1052H32.5452C33.959 35.1052 35.1052 33.959 35.1052 32.5452V11.5952C35.1052 10.1813 33.959 9.03516 32.5452 9.03516Z" stroke="#005F88" stroke-width="1.5" stroke-miterlimit="10"/>
<path d="M38.9651 12.4551V33.0551C38.9598 34.6209 38.3355 36.1211 37.2283 37.2283C36.1211 38.3355 34.6209 38.9598 33.0551 38.9651H12.4551" stroke="#005F88" stroke-width="1.5" stroke-miterlimit="10"/>
<path d="M19.8945 16.2559H22.8945C23.8016 16.2559 24.6715 16.6162 25.3128 17.2576C25.9542 17.8989 26.3145 18.7688 26.3145 19.6759C26.3145 20.5829 25.9542 21.4528 25.3128 22.0942C24.6715 22.7355 23.8016 23.0959 22.8945 23.0959H19.8945V16.2559Z" stroke="#005F88" stroke-width="1.5" stroke-miterlimit="10"/>
<path d="M19.8945 29.3855V23.1055" stroke="#005F88" stroke-width="1.5" stroke-miterlimit="10"/>
</g>
<defs>
<clipPath id="clip0_3152_2910">
<rect width="48" height="48" fill="white"/>
</clipPath>
</defs>
</svg>
