<svg width="100%" height="100%" viewBox="0 0 48 48" fill="none" xmlns="http://www.w3.org/2000/svg">
<g clip-path="url(#clip0_3152_3823)">
<path d="M22.4288 33.8887H22.5713C24.0433 33.8887 25.4549 34.4734 26.4958 35.5142C27.5366 36.5551 28.1213 37.9667 28.1213 39.4387V40.2412H7.92383V39.4387C7.92383 37.9667 8.50856 36.5551 9.54939 35.5142C10.5902 34.4734 12.0019 33.8887 13.4738 33.8887H13.6163" stroke="#E46054" stroke-width="1.5" stroke-miterlimit="10"/>
<path d="M24.0247 25.8413C24.4214 25.9734 24.8366 26.0418 25.2547 26.0438H29.5672C29.6393 26.7981 29.5044 27.5578 29.1772 28.2413C28.992 28.64 28.7381 29.003 28.4272 29.3138C28.1346 29.5996 27.7641 29.7927 27.3622 29.8688C27.2148 29.9198 27.087 30.0155 26.9966 30.1425C26.9061 30.2695 26.8575 30.4216 26.8575 30.5775C26.8575 30.7335 26.9061 30.8856 26.9966 31.0126C27.087 31.1396 27.2148 31.2353 27.3622 31.2863C27.5245 31.2977 27.6874 31.2977 27.8497 31.2863C28.4299 31.2806 29.0015 31.1448 29.5222 30.8888C30.1653 30.5751 30.7451 30.1454 31.2322 29.6213C32.1876 28.6207 32.8335 27.3654 33.0922 26.0063H36.2422C37.2574 26.0023 38.2299 25.5973 38.9478 24.8794C39.6657 24.1615 40.0707 23.189 40.0747 22.1738V11.5838C40.0707 10.5693 39.6654 9.59752 38.9473 8.88083C38.2293 8.16415 37.2567 7.76076 36.2422 7.75879H25.2547C24.2408 7.76077 23.2691 8.1644 22.5522 8.88129C21.8353 9.59819 21.4317 10.5699 21.4297 11.5838V16.6763" stroke="#E46054" stroke-width="1.5" stroke-miterlimit="10"/>
<path d="M23.929 21.873C23.9767 22.0823 24.0019 22.296 24.004 22.5105V29.7705C24.004 31.3618 23.3719 32.888 22.2466 34.0132C21.1214 35.1384 19.5953 35.7705 18.004 35.7705C16.4127 35.7705 14.8866 35.1384 13.7614 34.0132C12.6361 32.888 12.004 31.3618 12.004 29.7705V22.5105C12.0025 22.3218 12.0201 22.1333 12.0565 21.948" stroke="#E46054" stroke-width="1.5" stroke-miterlimit="10"/>
<path d="M16.1133 28.6232V25.1582" stroke="#E46054" stroke-width="1.5" stroke-miterlimit="10"/>
<path d="M19.9082 28.6232V25.1582" stroke="#E46054" stroke-width="1.5" stroke-miterlimit="10"/>
<path d="M30.7148 22.0311V19.2861" stroke="#E46054" stroke-width="1.5" stroke-miterlimit="10"/>
<path d="M30.7148 17.4783V11.5908" stroke="#E46054" stroke-width="1.5" stroke-miterlimit="10"/>
<path d="M15.5063 15.3029C16.3331 15.2628 17.1573 15.4225 17.9093 15.7685C18.6613 16.1145 19.3188 16.6365 19.8263 17.2904C20.4437 16.8645 21.1763 16.6369 21.9263 16.6379C22.7634 16.6121 23.5783 16.9092 24.2024 17.4677C24.8264 18.0261 25.2118 18.8032 25.2788 19.6379V19.6379C25.2788 21.1379 23.8538 22.3604 22.0913 22.3604H13.9238C12.1613 22.3604 10.7363 21.1379 10.7363 19.6379C10.7363 17.3654 12.8213 15.3704 15.5063 15.3029Z" stroke="#E46054" stroke-width="1.5" stroke-miterlimit="10"/>
</g>
<defs>
<clipPath id="clip0_3152_3823">
<rect width="48" height="48" fill="white"/>
</clipPath>
</defs>
</svg>
