<svg width="48" height="48" viewBox="0 0 48 48" fill="none" xmlns="http://www.w3.org/2000/svg">
<g clip-path="url(#clip0_3152_5272)">
<mask id="path-1-inside-1_3152_5272" fill="white">
<path d="M43.1907 41.4904L39.5107 32.7404L41.7807 31.6704C42.8807 31.1504 43.3507 29.8404 42.8307 28.7404L41.4307 25.7704C41.1807 25.2404 40.7407 24.8404 40.1807 24.6404C39.6307 24.4403 39.0307 24.4704 38.5007 24.7204L36.7807 25.5304L35.1607 22.7504C34.0407 20.8404 31.9807 19.6504 29.7607 19.6504H24.4507C24.0407 18.5304 22.9707 17.7204 21.7007 17.7204H19.3707V14.3804C19.6807 14.1304 19.9407 13.8404 20.1507 13.5004L23.3607 14.3304L23.5507 14.3504C24.7607 14.3504 25.7407 13.3704 25.7407 12.1604V11.1304C25.7407 9.92035 24.7607 8.94035 23.5507 8.94035L20.1607 9.80035C19.5407 8.79035 18.4307 8.11035 17.1607 8.11035C15.8907 8.11035 14.7807 8.79035 14.1607 9.79035L10.9507 8.96035L10.7607 8.94035C9.5507 8.94035 8.5707 9.92035 8.5707 11.1304V12.1604C8.5707 13.3704 9.5507 14.3504 10.7607 14.3504H10.8607L14.1607 13.4904C14.3707 13.8304 14.6307 14.1204 14.9407 14.3704V17.7104H12.6107C11.3507 17.7104 10.2807 18.5204 9.8707 19.6404H5.7207V26.8604H9.8707C10.2807 27.9804 11.3507 28.7904 12.6107 28.7904H21.7107C22.9707 28.7904 24.0407 27.9804 24.4607 26.8604H28.6407C28.9907 26.8604 29.3207 27.0504 29.5007 27.3504L30.2407 28.6104L28.4407 29.4604C27.9107 29.7104 27.5107 30.1504 27.3107 30.7104C27.1107 31.2603 27.1407 31.8603 27.3907 32.3904L28.7907 35.3604C29.0407 35.8904 29.4807 36.2904 30.0407 36.4904C30.2807 36.5804 30.5307 36.6203 30.7807 36.6203C31.1007 36.6203 31.4207 36.5504 31.7207 36.4104L34.1207 35.2803L38.9907 43.5604L43.2007 41.4704L43.1907 41.4904ZM23.6307 10.4604C23.9807 10.5004 24.2507 10.7904 24.2507 11.1504V12.1804C24.2507 12.5404 23.9807 12.8304 23.6307 12.8704L20.6507 12.1004C20.6707 11.9604 20.6907 11.8204 20.6907 11.6704C20.6907 11.5204 20.6607 11.3804 20.6507 11.2404L23.6307 10.4704V10.4604ZM17.1607 9.63035C18.2807 9.63035 19.2007 10.5404 19.2007 11.6704C19.2007 12.8004 18.2807 13.7104 17.1607 13.7104C16.0407 13.7104 15.1207 12.8004 15.1207 11.6704C15.1207 10.5404 16.0407 9.63035 17.1607 9.63035ZM10.6907 12.8704C10.3407 12.8304 10.0707 12.5404 10.0707 12.1804V11.1504C10.0707 10.7904 10.3407 10.5004 10.6907 10.4604L13.6707 11.2304C13.6507 11.3704 13.6307 11.5104 13.6307 11.6604C13.6307 11.8104 13.6607 11.9504 13.6707 12.0904L10.6907 12.8604V12.8704ZM16.4507 15.1304C16.6807 15.1804 16.9207 15.2004 17.1707 15.2004C17.4207 15.2004 17.6607 15.1704 17.8907 15.1304V17.7404H16.4507V15.1304ZM7.2207 21.1704H9.6807V25.3904H7.2207V21.1704ZM21.7207 27.3204H12.6207C11.8807 27.3204 11.2807 26.7604 11.2007 26.0404V20.5204C11.2807 19.8004 11.8807 19.2404 12.6207 19.2404H21.7207C22.5107 19.2404 23.1507 19.8804 23.1507 20.6704V25.8804C23.1507 26.6704 22.5107 27.3104 21.7207 27.3104V27.3204ZM31.6107 28.0004L30.8107 26.6204C30.3607 25.8604 29.5407 25.3804 28.6507 25.3804H24.6507V21.1604H29.7707C31.4507 21.1604 33.0207 22.0604 33.8707 23.5204L35.4207 26.1904L34.4807 26.6404L31.5907 28.0004H31.6107ZM31.0907 35.0804C30.9207 35.1604 30.7307 35.1704 30.5607 35.1104C30.3907 35.0504 30.2407 34.9204 30.1607 34.7504L28.7607 31.7804C28.6807 31.6104 28.6707 31.4204 28.7307 31.2504C28.7907 31.0704 28.9207 30.9304 29.0907 30.8504L37.2607 26.9904L37.5607 26.8504L39.1607 26.0904C39.2507 26.0504 39.3607 26.0204 39.4607 26.0204C39.5407 26.0204 39.6207 26.0304 39.7007 26.0604C39.8807 26.1204 40.0207 26.2504 40.1007 26.4204L41.5007 29.3904C41.6607 29.7404 41.5207 30.1504 41.1707 30.3204L38.9607 31.3704L38.9407 31.3204L36.2007 32.6703L31.1007 35.0804H31.0907ZM36.8407 34.0204L38.1807 33.3904L41.2807 40.7803L39.5807 41.6203L35.5007 34.6804L36.8407 34.0204Z"/>
</mask>
<path d="M43.1907 41.4904L39.5107 32.7404L41.7807 31.6704C42.8807 31.1504 43.3507 29.8404 42.8307 28.7404L41.4307 25.7704C41.1807 25.2404 40.7407 24.8404 40.1807 24.6404C39.6307 24.4403 39.0307 24.4704 38.5007 24.7204L36.7807 25.5304L35.1607 22.7504C34.0407 20.8404 31.9807 19.6504 29.7607 19.6504H24.4507C24.0407 18.5304 22.9707 17.7204 21.7007 17.7204H19.3707V14.3804C19.6807 14.1304 19.9407 13.8404 20.1507 13.5004L23.3607 14.3304L23.5507 14.3504C24.7607 14.3504 25.7407 13.3704 25.7407 12.1604V11.1304C25.7407 9.92035 24.7607 8.94035 23.5507 8.94035L20.1607 9.80035C19.5407 8.79035 18.4307 8.11035 17.1607 8.11035C15.8907 8.11035 14.7807 8.79035 14.1607 9.79035L10.9507 8.96035L10.7607 8.94035C9.5507 8.94035 8.5707 9.92035 8.5707 11.1304V12.1604C8.5707 13.3704 9.5507 14.3504 10.7607 14.3504H10.8607L14.1607 13.4904C14.3707 13.8304 14.6307 14.1204 14.9407 14.3704V17.7104H12.6107C11.3507 17.7104 10.2807 18.5204 9.8707 19.6404H5.7207V26.8604H9.8707C10.2807 27.9804 11.3507 28.7904 12.6107 28.7904H21.7107C22.9707 28.7904 24.0407 27.9804 24.4607 26.8604H28.6407C28.9907 26.8604 29.3207 27.0504 29.5007 27.3504L30.2407 28.6104L28.4407 29.4604C27.9107 29.7104 27.5107 30.1504 27.3107 30.7104C27.1107 31.2603 27.1407 31.8603 27.3907 32.3904L28.7907 35.3604C29.0407 35.8904 29.4807 36.2904 30.0407 36.4904C30.2807 36.5804 30.5307 36.6203 30.7807 36.6203C31.1007 36.6203 31.4207 36.5504 31.7207 36.4104L34.1207 35.2803L38.9907 43.5604L43.2007 41.4704L43.1907 41.4904ZM23.6307 10.4604C23.9807 10.5004 24.2507 10.7904 24.2507 11.1504V12.1804C24.2507 12.5404 23.9807 12.8304 23.6307 12.8704L20.6507 12.1004C20.6707 11.9604 20.6907 11.8204 20.6907 11.6704C20.6907 11.5204 20.6607 11.3804 20.6507 11.2404L23.6307 10.4704V10.4604ZM17.1607 9.63035C18.2807 9.63035 19.2007 10.5404 19.2007 11.6704C19.2007 12.8004 18.2807 13.7104 17.1607 13.7104C16.0407 13.7104 15.1207 12.8004 15.1207 11.6704C15.1207 10.5404 16.0407 9.63035 17.1607 9.63035ZM10.6907 12.8704C10.3407 12.8304 10.0707 12.5404 10.0707 12.1804V11.1504C10.0707 10.7904 10.3407 10.5004 10.6907 10.4604L13.6707 11.2304C13.6507 11.3704 13.6307 11.5104 13.6307 11.6604C13.6307 11.8104 13.6607 11.9504 13.6707 12.0904L10.6907 12.8604V12.8704ZM16.4507 15.1304C16.6807 15.1804 16.9207 15.2004 17.1707 15.2004C17.4207 15.2004 17.6607 15.1704 17.8907 15.1304V17.7404H16.4507V15.1304ZM7.2207 21.1704H9.6807V25.3904H7.2207V21.1704ZM21.7207 27.3204H12.6207C11.8807 27.3204 11.2807 26.7604 11.2007 26.0404V20.5204C11.2807 19.8004 11.8807 19.2404 12.6207 19.2404H21.7207C22.5107 19.2404 23.1507 19.8804 23.1507 20.6704V25.8804C23.1507 26.6704 22.5107 27.3104 21.7207 27.3104V27.3204ZM31.6107 28.0004L30.8107 26.6204C30.3607 25.8604 29.5407 25.3804 28.6507 25.3804H24.6507V21.1604H29.7707C31.4507 21.1604 33.0207 22.0604 33.8707 23.5204L35.4207 26.1904L34.4807 26.6404L31.5907 28.0004H31.6107ZM31.0907 35.0804C30.9207 35.1604 30.7307 35.1704 30.5607 35.1104C30.3907 35.0504 30.2407 34.9204 30.1607 34.7504L28.7607 31.7804C28.6807 31.6104 28.6707 31.4204 28.7307 31.2504C28.7907 31.0704 28.9207 30.9304 29.0907 30.8504L37.2607 26.9904L37.5607 26.8504L39.1607 26.0904C39.2507 26.0504 39.3607 26.0204 39.4607 26.0204C39.5407 26.0204 39.6207 26.0304 39.7007 26.0604C39.8807 26.1204 40.0207 26.2504 40.1007 26.4204L41.5007 29.3904C41.6607 29.7404 41.5207 30.1504 41.1707 30.3204L38.9607 31.3704L38.9407 31.3204L36.2007 32.6703L31.1007 35.0804H31.0907ZM36.8407 34.0204L38.1807 33.3904L41.2807 40.7803L39.5807 41.6203L35.5007 34.6804L36.8407 34.0204Z" fill="#006817" stroke="#006817" stroke-width="2" mask="url(#path-1-inside-1_3152_5272)"/>
</g>
<defs>
<clipPath id="clip0_3152_5272">
<rect width="48" height="48" fill="white"/>
</clipPath>
</defs>
</svg>
