<svg width="48" height="48" viewBox="0 0 48 48" fill="none" xmlns="http://www.w3.org/2000/svg">
<path d="M15.0098 29.9004H17.6698V30.4004H15.0098V29.9004Z" fill="#E46054" stroke="#E46054"/>
<path d="M15.0098 17.6104H27.4898V18.1104H15.0098V17.6104Z" fill="#E46054" stroke="#E46054"/>
<path d="M15.0098 20.79H25.7998V21.29H15.0098V20.79Z" fill="#E46054" stroke="#E46054"/>
<path d="M33.2909 26.1798H33.7044C38.3926 26.4017 42.1409 30.2878 42.1409 35.0298C42.1409 39.9136 38.1648 43.8898 33.2809 43.8898C30.1594 43.8898 27.4138 42.2634 25.8312 39.8088L25.6835 39.5798H25.4109H7.71094V9.68976H11.2309H11.7309V9.18976V5.25977H24.3538L31.9909 12.8969V25.7198V26.2582L32.5279 26.2184L32.5485 26.2169C32.8142 26.1972 33.0491 26.1798 33.2909 26.1798ZM25.3545 6.97621L24.5009 6.12266V7.32977V12.2598V12.7598H25.0009H29.9309H31.138L30.2845 11.9062L25.3545 6.97621ZM12.7309 5.76977H12.2309V6.26977V34.1698V34.6698H12.7309H23.9709H24.4254L24.4687 34.2174C24.8282 30.4614 27.5449 27.3832 31.1143 26.4743L31.4909 26.3784V25.9898V13.7598V13.2598H30.9909H24.0009V6.26977V5.76977H23.5009H12.7309ZM8.21094 38.5898V39.0898H8.71094H24.6309H25.3709L25.0948 38.4032C24.7441 37.5312 24.5262 36.6027 24.4598 35.6259L24.4281 35.1598H23.9609H11.7309V10.6898V10.1898H11.2309H8.71094H8.21094V10.6898V38.5898ZM24.9209 35.0398C24.9209 39.6563 28.6752 43.3998 33.2809 43.3998C37.8971 43.3998 41.6409 39.6559 41.6409 35.0398C41.6409 30.4236 37.8971 26.6798 33.2809 26.6798C28.6648 26.6798 24.9209 30.4236 24.9209 35.0398Z" fill="#E46054" stroke="#E46054"/>
<path d="M34.2708 31.2305C34.7508 31.2305 35.2308 31.3805 35.7008 31.6905L36.5208 30.4405C35.8108 29.9705 35.0508 29.7305 34.2708 29.7305C32.3708 29.7305 30.7308 31.0805 30.0408 33.0005H28.3008V34.5005H29.7408C29.7208 34.6805 29.6908 34.8605 29.6908 35.0405C29.6908 35.2205 29.7208 35.4005 29.7408 35.5805H28.3008V37.0805H30.0408C30.7308 39.0005 32.3608 40.3505 34.2708 40.3505C35.0508 40.3505 35.8108 40.1105 36.5208 39.6405L35.7008 38.3905C35.2408 38.6905 34.7608 38.8505 34.2708 38.8505C33.1808 38.8505 32.2208 38.1405 31.6808 37.0805H34.2108V35.5805H31.2308C31.2108 35.4005 31.1908 35.2305 31.1908 35.0405C31.1908 34.8505 31.2108 34.6805 31.2308 34.5005H34.7108V33.0005H31.6808C32.2308 31.9405 33.1808 31.2305 34.2708 31.2305Z" fill="#E46054"/>
</svg>
