<svg width="100%" height="100%" viewBox="0 0 48 48" fill="none" xmlns="http://www.w3.org/2000/svg">
<path d="M39.0553 32.4404H8.94531V37.8504H39.0553V32.4404Z" stroke="#EC8F39" stroke-width="1.5" stroke-miterlimit="10"/>
<path d="M39.0553 10.1504H8.94531V14.0804H39.0553V10.1504Z" stroke="#EC8F39" stroke-width="1.5" stroke-miterlimit="10"/>
<path d="M39.0553 14.0801H8.94531V32.4401H39.0553V14.0801Z" stroke="#EC8F39" stroke-width="1.5" stroke-miterlimit="10"/>
<path d="M17.3453 14.0801C17.3453 14.0801 16.8053 27.0801 8.94531 27.0801" stroke="#EC8F39" stroke-width="1.5" stroke-miterlimit="10"/>
<path d="M14.3253 32.4408C14.3253 32.4408 13.9853 27.0508 8.94531 27.0508" stroke="#EC8F39" stroke-width="1.5" stroke-miterlimit="10"/>
<path d="M30.6562 14.0801C30.6562 14.0801 31.1962 27.0801 39.0562 27.0801" stroke="#EC8F39" stroke-width="1.5" stroke-miterlimit="10"/>
<path d="M33.6641 32.4408C33.6641 32.4408 34.0141 27.0508 39.0541 27.0508" stroke="#EC8F39" stroke-width="1.5" stroke-miterlimit="10"/>
<path d="M17.3459 14.0801H30.6559C30.6559 15.6502 30.0322 17.1559 28.922 18.2662C27.8118 19.3764 26.306 20.0001 24.7359 20.0001H23.2559C21.6859 20.0001 20.1801 19.3764 19.0699 18.2662C17.9596 17.1559 17.3359 15.6502 17.3359 14.0801V14.0801H17.3459Z" stroke="#EC8F39" stroke-width="1.5" stroke-miterlimit="10"/>
</svg>
