<svg width="100%" height="100%" viewBox="0 0 38 38" fill="none" xmlns="http://www.w3.org/2000/svg">
<mask id="path-1-inside-1_3152_557" fill="white">
<path d="M33.2493 14.7395C32.5993 13.8795 31.5593 13.3695 30.4793 13.3695H22.7493C21.4993 13.3695 20.4793 14.3895 20.4793 15.6395V19.5895L6.2093 1.28954C5.7493 0.709544 5.0993 0.339544 4.3593 0.269544C3.6193 0.199544 2.9093 0.419544 2.3493 0.909544C1.3093 1.80954 1.1193 3.32954 1.8993 4.45954L2.9793 6.01954V13.0795C2.9793 13.7995 2.6593 14.4395 2.1493 14.7695C1.0593 15.4595 0.549297 16.7695 0.879297 18.0295C1.1393 19.0295 1.9493 19.8495 2.9593 20.0995C3.2193 20.1695 3.4793 20.1995 3.7293 20.1995C4.3793 20.1995 5.0093 19.9895 5.5293 19.5795C6.2593 19.0195 6.6693 18.1695 6.6693 17.2495H5.1693C5.1693 17.6995 4.9593 18.1195 4.6093 18.3995C4.2493 18.6795 3.7893 18.7695 3.3293 18.6495C2.8593 18.5295 2.4493 18.1295 2.3293 17.6495C2.1593 17.0095 2.4093 16.3695 2.9493 16.0295C3.8993 15.4295 4.4693 14.3195 4.4693 13.0795V8.18954L15.5693 24.2195H0.779297V33.0695H4.8393C4.9593 33.6895 5.1893 34.2895 5.5493 34.8295C6.0693 35.6095 6.7993 36.2095 7.6693 36.5595C8.2493 36.7995 8.8593 36.9195 9.4693 36.9195C9.7793 36.9195 10.0893 36.8895 10.3893 36.8295C11.3093 36.6495 12.1393 36.1995 12.8093 35.5395C13.4693 34.8795 13.9193 34.0495 14.0993 33.1295C14.0993 33.1095 14.0993 33.0895 14.0993 33.0595H21.9593H23.8993C24.0093 33.7195 24.2493 34.3595 24.6293 34.9295C25.1493 35.7095 25.8793 36.3095 26.7493 36.6595C27.3293 36.8995 27.9393 37.0195 28.5493 37.0195C28.8593 37.0195 29.1693 36.9895 29.4693 36.9295C30.3893 36.7495 31.2193 36.2995 31.8893 35.6395C32.5493 34.9795 32.9993 34.1495 33.1793 33.2295C33.1893 33.1695 33.1893 33.1195 33.1993 33.0595H35.7693C36.9593 33.0595 37.9293 32.0895 37.9293 30.8995V20.9295L33.2193 14.7395H33.2493ZM32.0593 15.6495L36.4593 21.4395V24.2095H28.3893C26.9593 24.2095 25.7893 23.0395 25.7893 21.6095V14.8695H30.4793C31.0893 14.8695 31.6793 15.1595 32.0593 15.6495ZM3.1293 3.59954C2.7893 3.09954 2.8693 2.42954 3.3293 2.03954C3.5793 1.82954 3.8893 1.72954 4.2093 1.75954C4.5293 1.78954 4.8193 1.94954 5.0193 2.20954L20.4693 22.0295V24.2095H17.3893L3.1293 3.59954ZM12.6293 32.8295C12.5093 33.4495 12.1993 34.0195 11.7493 34.4695C11.2993 34.9195 10.7293 35.2195 10.0993 35.3495C9.4693 35.4695 8.8293 35.4095 8.2393 35.1695C7.6493 34.9295 7.1493 34.5195 6.7993 33.9895C6.4593 33.4895 6.2793 32.8995 6.2593 32.2995V32.2095C6.2593 31.3595 6.5893 30.5495 7.1993 29.9495C7.8093 29.3495 8.6193 29.0095 9.4693 29.0095C10.1093 29.0095 10.7193 29.1995 11.2593 29.5495C11.7893 29.8995 12.1993 30.3995 12.4493 30.9895C12.6993 31.5795 12.7593 32.2195 12.6293 32.8395V32.8295ZM12.0893 28.2895C11.3093 27.7695 10.4093 27.4995 9.4693 27.4995C8.2093 27.4995 7.0293 27.9895 6.1393 28.8795C5.3993 29.6095 4.9593 30.5495 4.8193 31.5595H2.2693V25.7095H20.4693V31.5595H14.1293C14.0693 31.1695 13.9793 30.7795 13.8193 30.4095C13.4593 29.5495 12.8593 28.8195 12.0793 28.2995L12.0893 28.2895ZM31.7193 32.9295C31.5993 33.5495 31.2893 34.1195 30.8393 34.5695C30.3893 35.0195 29.8193 35.3195 29.1893 35.4495C28.5593 35.5695 27.9193 35.5095 27.3293 35.2695C26.7393 35.0295 26.2393 34.6195 25.8893 34.0895C25.5393 33.5595 25.3493 32.9395 25.3493 32.3095C25.3493 31.4595 25.6793 30.6495 26.2893 30.0495C26.8893 29.4495 27.7193 29.1095 28.5593 29.1095C29.1993 29.1095 29.8193 29.2995 30.3493 29.6495C30.8793 29.9995 31.2893 30.4995 31.5393 31.0895C31.7893 31.6795 31.8493 32.3195 31.7193 32.9395V32.9295ZM35.7893 31.5595H33.2093C33.1493 31.1995 33.0593 30.8495 32.9193 30.5095C32.5593 29.6495 31.9593 28.9195 31.1793 28.3995C30.3993 27.8795 29.4993 27.6095 28.5593 27.6095C27.3193 27.6095 26.0993 28.1095 25.2293 28.9895C24.5193 29.6995 24.0793 30.5895 23.9193 31.5595H21.9693V24.9595V15.6395C21.9693 15.2195 22.3093 14.8695 22.7393 14.8695H24.2793V21.6095C24.2793 23.8695 26.1193 25.7095 28.3793 25.7095H36.4493V30.8995C36.4493 31.2695 36.1493 31.5595 35.7893 31.5595Z"/>
</mask>
<path d="M33.2493 14.7395C32.5993 13.8795 31.5593 13.3695 30.4793 13.3695H22.7493C21.4993 13.3695 20.4793 14.3895 20.4793 15.6395V19.5895L6.2093 1.28954C5.7493 0.709544 5.0993 0.339544 4.3593 0.269544C3.6193 0.199544 2.9093 0.419544 2.3493 0.909544C1.3093 1.80954 1.1193 3.32954 1.8993 4.45954L2.9793 6.01954V13.0795C2.9793 13.7995 2.6593 14.4395 2.1493 14.7695C1.0593 15.4595 0.549297 16.7695 0.879297 18.0295C1.1393 19.0295 1.9493 19.8495 2.9593 20.0995C3.2193 20.1695 3.4793 20.1995 3.7293 20.1995C4.3793 20.1995 5.0093 19.9895 5.5293 19.5795C6.2593 19.0195 6.6693 18.1695 6.6693 17.2495H5.1693C5.1693 17.6995 4.9593 18.1195 4.6093 18.3995C4.2493 18.6795 3.7893 18.7695 3.3293 18.6495C2.8593 18.5295 2.4493 18.1295 2.3293 17.6495C2.1593 17.0095 2.4093 16.3695 2.9493 16.0295C3.8993 15.4295 4.4693 14.3195 4.4693 13.0795V8.18954L15.5693 24.2195H0.779297V33.0695H4.8393C4.9593 33.6895 5.1893 34.2895 5.5493 34.8295C6.0693 35.6095 6.7993 36.2095 7.6693 36.5595C8.2493 36.7995 8.8593 36.9195 9.4693 36.9195C9.7793 36.9195 10.0893 36.8895 10.3893 36.8295C11.3093 36.6495 12.1393 36.1995 12.8093 35.5395C13.4693 34.8795 13.9193 34.0495 14.0993 33.1295C14.0993 33.1095 14.0993 33.0895 14.0993 33.0595H21.9593H23.8993C24.0093 33.7195 24.2493 34.3595 24.6293 34.9295C25.1493 35.7095 25.8793 36.3095 26.7493 36.6595C27.3293 36.8995 27.9393 37.0195 28.5493 37.0195C28.8593 37.0195 29.1693 36.9895 29.4693 36.9295C30.3893 36.7495 31.2193 36.2995 31.8893 35.6395C32.5493 34.9795 32.9993 34.1495 33.1793 33.2295C33.1893 33.1695 33.1893 33.1195 33.1993 33.0595H35.7693C36.9593 33.0595 37.9293 32.0895 37.9293 30.8995V20.9295L33.2193 14.7395H33.2493ZM32.0593 15.6495L36.4593 21.4395V24.2095H28.3893C26.9593 24.2095 25.7893 23.0395 25.7893 21.6095V14.8695H30.4793C31.0893 14.8695 31.6793 15.1595 32.0593 15.6495ZM3.1293 3.59954C2.7893 3.09954 2.8693 2.42954 3.3293 2.03954C3.5793 1.82954 3.8893 1.72954 4.2093 1.75954C4.5293 1.78954 4.8193 1.94954 5.0193 2.20954L20.4693 22.0295V24.2095H17.3893L3.1293 3.59954ZM12.6293 32.8295C12.5093 33.4495 12.1993 34.0195 11.7493 34.4695C11.2993 34.9195 10.7293 35.2195 10.0993 35.3495C9.4693 35.4695 8.8293 35.4095 8.2393 35.1695C7.6493 34.9295 7.1493 34.5195 6.7993 33.9895C6.4593 33.4895 6.2793 32.8995 6.2593 32.2995V32.2095C6.2593 31.3595 6.5893 30.5495 7.1993 29.9495C7.8093 29.3495 8.6193 29.0095 9.4693 29.0095C10.1093 29.0095 10.7193 29.1995 11.2593 29.5495C11.7893 29.8995 12.1993 30.3995 12.4493 30.9895C12.6993 31.5795 12.7593 32.2195 12.6293 32.8395V32.8295ZM12.0893 28.2895C11.3093 27.7695 10.4093 27.4995 9.4693 27.4995C8.2093 27.4995 7.0293 27.9895 6.1393 28.8795C5.3993 29.6095 4.9593 30.5495 4.8193 31.5595H2.2693V25.7095H20.4693V31.5595H14.1293C14.0693 31.1695 13.9793 30.7795 13.8193 30.4095C13.4593 29.5495 12.8593 28.8195 12.0793 28.2995L12.0893 28.2895ZM31.7193 32.9295C31.5993 33.5495 31.2893 34.1195 30.8393 34.5695C30.3893 35.0195 29.8193 35.3195 29.1893 35.4495C28.5593 35.5695 27.9193 35.5095 27.3293 35.2695C26.7393 35.0295 26.2393 34.6195 25.8893 34.0895C25.5393 33.5595 25.3493 32.9395 25.3493 32.3095C25.3493 31.4595 25.6793 30.6495 26.2893 30.0495C26.8893 29.4495 27.7193 29.1095 28.5593 29.1095C29.1993 29.1095 29.8193 29.2995 30.3493 29.6495C30.8793 29.9995 31.2893 30.4995 31.5393 31.0895C31.7893 31.6795 31.8493 32.3195 31.7193 32.9395V32.9295ZM35.7893 31.5595H33.2093C33.1493 31.1995 33.0593 30.8495 32.9193 30.5095C32.5593 29.6495 31.9593 28.9195 31.1793 28.3995C30.3993 27.8795 29.4993 27.6095 28.5593 27.6095C27.3193 27.6095 26.0993 28.1095 25.2293 28.9895C24.5193 29.6995 24.0793 30.5895 23.9193 31.5595H21.9693V24.9595V15.6395C21.9693 15.2195 22.3093 14.8695 22.7393 14.8695H24.2793V21.6095C24.2793 23.8695 26.1193 25.7095 28.3793 25.7095H36.4493V30.8995C36.4493 31.2695 36.1493 31.5595 35.7893 31.5595Z" fill="black" stroke="#005F88" stroke-width="2" mask="url(#path-1-inside-1_3152_557)"/>
</svg>
