<svg width="100%" height="100%" viewBox="0 0 48 48" fill="none" xmlns="http://www.w3.org/2000/svg">
<g clip-path="url(#clip0_3152_5150)">
<path d="M33.4248 36.8004H14.5648C13.7166 36.8385 12.8878 36.5389 12.26 35.9672C11.6321 35.3956 11.2563 34.5985 11.2148 33.7504L13.1348 14.4904C13.25 13.7089 13.6493 12.9973 14.2563 12.4918C14.8633 11.9862 15.6354 11.7223 16.4248 11.7504H31.5648C32.3548 11.72 33.1281 11.9832 33.7356 12.4891C34.3431 12.9951 34.7418 13.708 34.8548 14.4904L36.7848 33.7504C36.7434 34.6003 36.3662 35.399 35.7362 35.9709C35.1061 36.5428 34.2748 36.8412 33.4248 36.8004Z" stroke="#005F88" stroke-width="1.5" stroke-miterlimit="10"/>
<path d="M13.8945 40.7798L17.6645 36.7998" stroke="#005F88" stroke-width="1.5" stroke-miterlimit="10"/>
<path d="M34.0552 40.7798L30.2852 36.7998" stroke="#005F88" stroke-width="1.5" stroke-miterlimit="10"/>
<path d="M12.0039 25.4004H35.9339" stroke="#005F88" stroke-width="1.5" stroke-miterlimit="10"/>
<path d="M12.9141 16.3398H35.0341" stroke="#005F88" stroke-width="1.5" stroke-miterlimit="10"/>
<path d="M14.7734 29.5996L19.8734 30.6796" stroke="#005F88" stroke-width="1.5" stroke-miterlimit="10"/>
<path d="M33.1742 29.5996L28.0742 30.6796" stroke="#005F88" stroke-width="1.5" stroke-miterlimit="10"/>
<path d="M22.4844 11.7495L27.4244 7.43945" stroke="#005F88" stroke-width="1.5" stroke-miterlimit="10"/>
<path d="M36.7739 7.21973H12.0039" stroke="#005F88" stroke-width="1.5" stroke-miterlimit="10"/>
</g>
<defs>
<clipPath id="clip0_3152_5150">
<rect width="48" height="48" fill="white"/>
</clipPath>
</defs>
</svg>
