<svg width="48" height="48" viewBox="0 0 48 48" fill="none" xmlns="http://www.w3.org/2000/svg">
<path d="M23.3418 33.1306V42.1006H27.1118V31.6406" stroke="#006817" stroke-width="1.5" stroke-miterlimit="10"/>
<path d="M18.0512 32.9404C19.63 33.4409 21.3048 33.5604 22.9386 33.2893C24.5724 33.0182 26.1188 32.364 27.4513 31.3804C27.4844 31.375 27.5181 31.375 27.5512 31.3804C31.6512 33.5404 36.2112 32.9604 37.7312 30.0804C38.7812 28.0804 38.1013 25.5304 36.2413 23.4204C39.7213 21.9704 41.5512 18.3404 40.3512 15.2404C39.1512 12.1404 35.4712 10.7404 31.9712 11.9104C30.9501 10.1623 29.497 8.70575 27.7512 7.68042C23.0012 4.75042 17.1313 5.52042 14.7713 9.38042C13.8993 10.8332 13.5765 12.5502 13.8612 14.2204C13.8612 14.2204 7.28125 15.1604 7.28125 20.9304C7.28125 27.4504 13.4412 27.3104 13.4412 27.3104C13.6198 28.5813 14.1442 29.7786 14.9572 30.7715C15.7702 31.7644 16.8406 32.5147 18.0512 32.9404V32.9404Z" stroke="#006817" stroke-width="1.5" stroke-miterlimit="10"/>
</svg>
