<svg width="48" height="48" viewBox="0 0 48 48" fill="none" xmlns="http://www.w3.org/2000/svg">
<path d="M23.9209 22.04C24.8044 22.04 25.6371 22.4411 26.1898 23.1298L26.3086 23.3029L29.8286 28.4329L29.8288 28.4331C30.5045 29.4168 30.5213 30.6476 29.8716 31.6477L29.871 31.6486C29.3217 32.4984 28.4285 32.98 27.4609 32.98C27.2829 32.98 27.1042 32.9631 26.9245 32.9289L26.9245 32.9288L26.9187 32.9278L24.3404 32.4681C24.3401 32.4681 24.3398 32.468 24.3395 32.4679C24.0609 32.4174 23.7709 32.4174 23.4923 32.4679C23.4921 32.468 23.4918 32.4681 23.4915 32.4681L20.9132 32.9278L20.9112 32.9282C19.7416 33.1416 18.6115 32.6502 17.9602 31.6477C17.3106 30.6476 17.3273 29.4168 18.003 28.4332L18.0032 28.4329L21.5228 23.3035C21.5228 23.3034 21.5229 23.3034 21.5229 23.3033C22.0697 22.5089 22.9656 22.04 23.9209 22.04ZM24.4229 31.9803L24.4228 31.9804L24.4332 31.9823L27.0101 32.4417C27.0106 32.4418 27.0111 32.4419 27.0117 32.442C28.1782 32.6568 29.0503 32.016 29.4607 31.3817C29.8722 30.7457 30.0941 29.6923 29.4231 28.717C29.423 28.7169 29.4229 28.7167 29.4228 28.7165L25.9045 23.5891C25.9043 23.5887 25.904 23.5884 25.9038 23.588C25.4501 22.9209 24.7252 22.54 23.9209 22.54C23.1166 22.54 22.3917 22.9209 21.938 23.588C21.9378 23.5884 21.9376 23.5887 21.9373 23.5891L18.4191 28.7165C18.419 28.7167 18.4189 28.7168 18.4188 28.717C17.7478 29.6922 17.9696 30.7456 18.3811 31.3817C18.7916 32.016 19.6636 32.6568 20.8302 32.442C20.8307 32.4419 20.8312 32.4418 20.8318 32.4417L23.4017 31.9835C23.5839 31.9564 23.7556 31.94 23.9209 31.94C24.1059 31.94 24.2689 31.9495 24.4229 31.9803Z" fill="black" stroke="#EC8F39"/>
<path d="M26.95 19.7878L26.95 19.7877L26.9417 19.7863C26.4024 19.6977 25.9049 19.3156 25.5914 18.6636C25.312 18.0792 25.218 17.3352 25.3439 16.571C25.4694 15.8093 25.7985 15.1367 26.2488 14.6685C26.7561 14.1537 27.3485 13.9544 27.8889 14.043C28.9409 14.2187 29.774 15.5083 29.4873 17.2581C29.2202 18.8593 28.1749 19.8097 27.2006 19.8097C27.1184 19.8097 27.0284 19.802 26.95 19.7878ZM26.617 15.0061L26.617 15.0061L26.6116 15.0116C26.2986 15.3344 26.0688 15.7659 25.9329 16.2297H25.8892L25.826 16.6564C25.7351 17.2699 25.7971 17.9225 26.0369 18.4399L26.04 18.4467L26.0433 18.4533C26.0978 18.5622 26.1943 18.7354 26.3395 18.895C26.4828 19.0525 26.7073 19.2331 27.0193 19.2831C27.5274 19.369 27.9918 19.0712 28.3044 18.714C28.6351 18.3359 28.8904 17.7972 28.9938 17.1616C29.1023 16.5202 29.0323 15.9268 28.8399 15.4631C28.6581 15.025 28.3134 14.595 27.808 14.5157L27.7695 14.5097H27.7306H27.7304H27.7302H27.73H27.7299H27.7297H27.7295H27.7293H27.7292H27.729H27.7288H27.7286H27.7285H27.7283H27.7281H27.7279H27.7277H27.7276H27.7274H27.7272H27.727H27.7269H27.7267H27.7265H27.7263H27.7262H27.726H27.7258H27.7256H27.7255H27.7253H27.7251H27.7249H27.7248H27.7246H27.7244H27.7242H27.7241H27.7239H27.7237H27.7235H27.7234H27.7232H27.723H27.7228H27.7227H27.7225H27.7223H27.7221H27.7219H27.7218H27.7216H27.7214H27.7212H27.7211H27.7209H27.7207H27.7205H27.7204H27.7202H27.72H27.7198H27.7197H27.7195H27.7193H27.7191H27.719H27.7188H27.7186H27.7184H27.7183H27.7181H27.7179H27.7177H27.7176H27.7174H27.7172H27.717H27.7169H27.7167H27.7165H27.7163H27.7161H27.716H27.7158H27.7156H27.7154H27.7153H27.7151H27.7149H27.7147H27.7146H27.7144H27.7142H27.714H27.7139H27.7137H27.7135H27.7133H27.7132H27.713H27.7128H27.7126H27.7125H27.7123H27.7121H27.7119H27.7118H27.7116H27.7114H27.7112H27.7111H27.7109H27.7107H27.7105H27.7103H27.7102H27.71H27.7098H27.7096H27.7095H27.7093H27.7091H27.7089H27.7088H27.7086H27.7084H27.7082H27.7081H27.7079H27.7077H27.7075H27.7074H27.7072H27.707H27.7068H27.7067H27.7065H27.7063H27.7061H27.706H27.7058H27.7056H27.7054H27.7052H27.7051H27.7049H27.7047H27.7045H27.7044H27.7042H27.704H27.7038H27.7037H27.7035H27.7033H27.7031H27.703H27.7028H27.7026H27.7024H27.7023H27.7021H27.7019H27.7017H27.7016H27.7014H27.7012H27.701H27.7009H27.7007H27.7005H27.7003H27.7002H27.7H27.6998H27.6996H27.6994H27.6993H27.6991H27.6989H27.6987H27.6986H27.6984H27.6982H27.698H27.6979H27.6977H27.6975H27.6973H27.6972H27.697H27.6968H27.6966H27.6965H27.6963H27.6961H27.6959H27.6958H27.6956H27.6954H27.6952H27.6951H27.6949H27.6947H27.6945H27.6944H27.6942H27.694H27.6938H27.6936H27.6935H27.6933H27.6931H27.6929H27.6928H27.6926H27.6924H27.6922H27.6921H27.6919H27.6917H27.6915H27.6914H27.6912H27.691H27.6908H27.6907H27.6905H27.6903H27.6901H27.69H27.6898H27.6896H27.6894H27.6893H27.6891H27.6889H27.6887H27.6886H27.6884H27.6882H27.688H27.6878H27.6877H27.6875H27.6873H27.6871H27.687H27.6868H27.6866H27.6864H27.6863H27.6861H27.6859H27.6857H27.6856H27.6854H27.6852H27.685H27.6849H27.6847H27.6845H27.6843H27.6842H27.684H27.6838H27.6836H27.6835H27.6833H27.6831H27.6829H27.6827H27.6826H27.6824H27.6822H27.682H27.6819H27.6817H27.6815H27.6813H27.6812H27.681H27.6808H27.6806H27.6805H27.6803H27.6801H27.6799H27.6798H27.6796H27.6794H27.6792H27.6791H27.6789H27.6787H27.6785H27.6784H27.6782H27.678H27.6778H27.6777H27.6775H27.6773H27.6771H27.6769H27.6768H27.6766H27.6764H27.6762H27.6761H27.6759H27.6757H27.6755H27.6754H27.6752H27.675H27.6748H27.6747H27.6745H27.6743H27.6741H27.674H27.6738H27.6736H27.6734H27.6733H27.6731H27.6729H27.6727H27.6726H27.6724H27.6722H27.672H27.6719H27.6717H27.6715H27.6713H27.6711H27.671H27.6708H27.6706H27.6704H27.6703H27.6701H27.6699H27.6697H27.6696H27.6694H27.6692H27.669H27.6689H27.6687H27.6685H27.6683H27.6682H27.668H27.6678H27.6676H27.6675H27.6673H27.6671H27.6669H27.6668H27.6666H27.6664H27.6662H27.6661H27.6659H27.6657H27.6655H27.6653H27.6652H27.665H27.6648H27.6646H27.6645H27.6643H27.6641H27.6639H27.6638H27.6636H27.6634H27.6632H27.6631H27.6629H27.6627H27.6625H27.6624H27.6622H27.662H27.6618H27.6617H27.6615H27.6613H27.6611H27.661H27.6608H27.6606H27.6604H27.6602H27.6601H27.6599H27.6597H27.6595H27.6594H27.6592H27.659H27.6588H27.6587H27.6585H27.6583H27.6581H27.658H27.6578H27.6576H27.6574H27.6573H27.6571H27.6569H27.6567H27.6566H27.6564H27.6562H27.656H27.6559H27.6557H27.6555H27.6553H27.6552H27.655H27.6548H27.6546H27.6544H27.6543H27.6541H27.6539H27.6537H27.6536H27.6534H27.6532H27.653H27.6529H27.6527H27.6525H27.6523H27.6522H27.652H27.6518H27.6516H27.6515H27.6513H27.6511H27.6509H27.6508H27.6506H27.6504H27.6502H27.6501H27.6499H27.6497H27.6495H27.6494H27.6492H27.649H27.6488H27.6486H27.6485H27.6483H27.6481H27.6479H27.6478H27.6476H27.6474H27.6472H27.6471H27.6469H27.6467H27.6465H27.6464H27.6462H27.646H27.6458H27.6457H27.6455H27.6453H27.6451H27.645H27.6448H27.6446H27.6444H27.6443H27.6441H27.6439H27.6437H27.6436H27.6434H27.6432H27.643H27.6428H27.6427H27.6425H27.6423H27.6421H27.642H27.6418H27.6416H27.6414H27.6413H27.6411H27.6409H27.6407H27.6406C27.3697 14.5097 27.1428 14.6114 26.9822 14.7109C26.8199 14.8115 26.6935 14.9296 26.617 15.0061Z" fill="#EC8F39" stroke="#EC8F39"/>
<path d="M29.8748 21.0594L29.876 21.0576C30.3043 20.415 30.8861 19.945 31.493 19.7055C32.1562 19.4454 32.7892 19.5115 33.241 19.8152C33.6919 20.1182 33.9916 20.6812 34 21.3961L34 21.3968C34.0085 22.0408 33.7869 22.7529 33.3548 23.4016C32.6742 24.4081 31.7254 24.9202 30.9199 24.9202C30.5754 24.9202 30.2588 24.8327 29.9951 24.6496L29.9952 24.6495L29.9881 24.6447C29.107 24.0549 28.8829 22.5332 29.8748 21.0594ZM32.9339 23.1207L33.0199 22.9937V22.9788C33.3254 22.4855 33.4999 21.9163 33.4999 21.4002V21.3883L33.4994 21.3765C33.4937 21.2585 33.4789 21.0601 33.4146 20.8546C33.3505 20.6498 33.2222 20.3909 32.9573 20.2142L32.9573 20.2141L32.9484 20.2084C32.742 20.0771 32.5139 20.0302 32.3099 20.0302C32.0366 20.0302 31.7947 20.1183 31.6845 20.1584L31.6791 20.1603L31.6706 20.1634L31.6623 20.1668C31.1367 20.3795 30.6426 20.8009 30.2857 21.3303C29.9242 21.864 29.7417 22.4307 29.7228 22.9314C29.7049 23.4043 29.8364 23.9389 30.2604 24.2248C30.6842 24.5106 31.2281 24.4324 31.6595 24.239C32.1161 24.0343 32.5728 23.6537 32.9339 23.1207Z" fill="#EC8F39" stroke="#EC8F39"/>
<path d="M21.0594 19.7868L21.0339 19.791L21.0089 19.7978C20.9747 19.8071 20.9234 19.8102 20.8005 19.8102C19.8262 19.8102 18.7808 18.8598 18.5138 17.2585C18.388 16.4944 18.482 15.7507 18.7613 15.1664C19.0748 14.5143 19.5723 14.1322 20.1116 14.0436L20.1116 14.0436L20.1132 14.0433C21.1545 13.8685 22.3702 14.822 22.6571 16.5711L22.6571 16.5714C22.783 17.3357 22.689 18.0796 22.4096 18.664C22.0962 19.3161 21.5986 19.6982 21.0594 19.7868ZM22.1737 16.658L22.1734 16.6566C22.0645 16.0144 21.8031 15.4782 21.4709 15.1035C21.1581 14.7507 20.6982 14.4575 20.2024 14.5363C19.8931 14.5849 19.668 14.7597 19.5214 14.9191C19.3752 15.0779 19.2775 15.2523 19.2199 15.3735C18.9658 15.8961 18.9043 16.5545 19.0073 17.1724L19.0073 17.1724L19.0077 17.1745C19.1167 17.8119 19.3783 18.3473 19.7094 18.7223C20.0202 19.0744 20.4803 19.3733 20.9786 19.294C21.2878 19.2455 21.5129 19.0707 21.6596 18.9113C21.8058 18.7525 21.9035 18.5781 21.9611 18.4568C22.2152 17.9343 22.2767 17.2759 22.1737 16.658Z" fill="#EC8F39" stroke="#EC8F39"/>
<path d="M18.0211 24.6453L18.0211 24.6452L18.0173 24.6479C17.7585 24.8253 17.4392 24.9202 17.09 24.9202C16.8423 24.9202 16.5639 24.8658 16.2711 24.7542C15.6649 24.5145 15.084 24.0448 14.6561 23.4029L14.6561 23.4029L14.6543 23.4002C14.2244 22.7643 14.0015 22.0429 14.01 21.3968L14.01 21.3961C14.0184 20.6812 14.3181 20.1182 14.769 19.8152C15.2201 19.512 15.8432 19.4449 16.518 19.7059C17.1221 19.9445 17.7053 20.4234 18.1358 21.0603C18.5657 21.6962 18.7886 22.4176 18.7801 23.0637L18.7801 23.0644C18.7717 23.7793 18.472 24.3422 18.0211 24.6453ZM17.7374 24.2363L17.7375 24.2364L17.7478 24.2291C17.9992 24.0522 18.1296 23.8045 18.1969 23.5971C18.2641 23.3899 18.28 23.1893 18.28 23.0502C18.28 22.4838 18.0701 21.8682 17.7147 21.3408C17.3648 20.8217 16.8749 20.3857 16.342 20.1784C16.1806 20.1073 15.9467 20.0402 15.69 20.0402C15.5171 20.0402 15.263 20.0649 15.0292 20.2335C14.7798 20.4103 14.6503 20.6568 14.5832 20.8634C14.516 21.0706 14.5 21.2711 14.5 21.4102C14.5 21.9767 14.71 22.5923 15.0654 23.1197C15.4175 23.6421 15.9113 24.0803 16.4482 24.286C16.5728 24.3356 16.7623 24.3979 16.9769 24.416C17.1939 24.4342 17.477 24.4099 17.7374 24.2363Z" fill="#EC8F39" stroke="#EC8F39"/>
<path d="M11.8809 37.3997V36.8997H11.3809H9.12086C8.027 36.8997 7.13086 36.0035 7.13086 34.9097V11.9197C7.13086 10.8258 8.027 9.92969 9.12086 9.92969H38.8709C39.9647 9.92969 40.8609 10.8258 40.8609 11.9197V34.9097C40.8609 36.0035 39.9647 36.8997 38.8709 36.8997H36.6109H36.1109V37.3997V41.7197H35.6109V37.3997V36.8997H35.1109H12.8809H12.3809V37.3997V41.7197H11.8809V37.3997ZM38.8809 36.3997C39.707 36.3997 40.3709 35.7358 40.3709 34.9097V11.9197C40.3709 11.0935 39.707 10.4297 38.8809 10.4297H9.12086C8.29472 10.4297 7.63086 11.0935 7.63086 11.9197V34.9097C7.63086 35.7358 8.29472 36.3997 9.12086 36.3997H38.8809Z" fill="#EC8F39" stroke="#EC8F39"/>
</svg>
