<svg width="48" height="48" viewBox="0 0 48 48" fill="none" xmlns="http://www.w3.org/2000/svg">
<path d="M31.1702 14.3362V18.8062H16.8302V14.3362L12.7652 10.3237L8.7002 14.3362V19.8937V37.6762H39.3077V19.8937V14.3362L35.1902 10.3237L31.1702 14.3362Z" stroke="#333333" stroke-width="1.5" stroke-miterlimit="10"/>
<path d="M8.69238 15.0488H16.8299" stroke="#333333" stroke-width="1.5" stroke-miterlimit="10"/>
<path d="M12.5928 20.9063V17.8838" stroke="#333333" stroke-width="1.5" stroke-miterlimit="10"/>
<path d="M35.2354 20.9063V17.8838" stroke="#333333" stroke-width="1.5" stroke-miterlimit="10"/>
<path d="M12.5928 27.7466V24.7241" stroke="#333333" stroke-width="1.5" stroke-miterlimit="10"/>
<path d="M35.2354 27.7466V24.7241" stroke="#333333" stroke-width="1.5" stroke-miterlimit="10"/>
<path d="M12.5928 34.5791V31.5566" stroke="#333333" stroke-width="1.5" stroke-miterlimit="10"/>
<path d="M24 27.7466V24.7241" stroke="#333333" stroke-width="1.5" stroke-miterlimit="10"/>
<path d="M24 34.5791V31.5566" stroke="#333333" stroke-width="1.5" stroke-miterlimit="10"/>
<path d="M18.5625 27.7466V24.7241" stroke="#333333" stroke-width="1.5" stroke-miterlimit="10"/>
<path d="M18.5625 34.5791V31.5566" stroke="#333333" stroke-width="1.5" stroke-miterlimit="10"/>
<path d="M29.6172 27.7466V24.7241" stroke="#333333" stroke-width="1.5" stroke-miterlimit="10"/>
<path d="M29.6172 34.5791V31.5566" stroke="#333333" stroke-width="1.5" stroke-miterlimit="10"/>
<path d="M35.2354 34.5791V31.5566" stroke="#333333" stroke-width="1.5" stroke-miterlimit="10"/>
<path d="M31.1699 15.0488H39.3074" stroke="#333333" stroke-width="1.5" stroke-miterlimit="10"/>
<path d="M31.1701 18.8066H16.8301V22.1741H31.1701V18.8066Z" stroke="#333333" stroke-width="1.5" stroke-miterlimit="10"/>
</svg>
