<svg width="48" height="48" viewBox="0 0 48 48" fill="none" xmlns="http://www.w3.org/2000/svg">
<path d="M23.5871 28.057H38.3021C38.5269 28.057 38.7425 28.1463 38.9014 28.3052C39.0604 28.4641 39.1496 28.6797 39.1496 28.9045V34.3195H22.7021V28.9045C22.702 28.79 22.7251 28.6766 22.7701 28.5713C22.815 28.4659 22.8808 28.3708 22.9635 28.2916C23.0462 28.2123 23.1441 28.1507 23.2513 28.1104C23.3585 28.0701 23.4727 28.0519 23.5871 28.057Z" stroke="#333333" stroke-width="1.5" stroke-miterlimit="10"/>
<path d="M21.0823 34.3193H40.8073C40.9784 34.3193 41.1425 34.3873 41.2634 34.5083C41.3844 34.6292 41.4523 34.7933 41.4523 34.9643V35.8793C41.4523 36.0285 41.3931 36.1716 41.2876 36.2771C41.1821 36.3826 41.039 36.4418 40.8898 36.4418H20.9998C20.8533 36.4379 20.714 36.3769 20.6117 36.2719C20.5095 36.1668 20.4523 36.026 20.4523 35.8793V34.9793C20.4503 34.8946 20.4651 34.8104 20.4956 34.7313C20.5262 34.6523 20.5721 34.5801 20.6306 34.5188C20.6891 34.4575 20.7591 34.4084 20.8366 34.3741C20.9141 34.3399 20.9976 34.3213 21.0823 34.3193V34.3193Z" stroke="#333333" stroke-width="1.5" stroke-miterlimit="10"/>
<path d="M21.5693 36.427V42.3895" stroke="#333333" stroke-width="1.5" stroke-miterlimit="10"/>
<path d="M40.3193 36.427V42.3895" stroke="#333333" stroke-width="1.5" stroke-miterlimit="10"/>
<path d="M38.0176 36.427V42.3895" stroke="#333333" stroke-width="1.5" stroke-miterlimit="10"/>
<path d="M23.8721 36.427V42.3895" stroke="#333333" stroke-width="1.5" stroke-miterlimit="10"/>
<path d="M17.8496 25.1543L17.8571 42.3893" stroke="#333333" stroke-width="1.5" stroke-miterlimit="10"/>
<path d="M14.0544 25.3793C15.157 25.7473 16.3333 25.8378 17.4792 25.6429C18.6252 25.448 19.7054 24.9737 20.6244 24.2618L20.6919 24.2993C23.5494 25.8818 26.6919 25.4543 27.7944 23.3543C28.5444 21.8993 28.0569 20.0243 26.7519 18.4868C29.1819 17.4293 30.5019 14.7818 29.6169 12.4868C29.1589 11.3943 28.2886 10.5264 27.1949 10.0715C26.1011 9.61659 24.872 9.61131 23.7744 10.0568C23.0827 8.77067 22.0698 7.68548 20.8344 6.90682C17.4519 4.76932 13.4244 5.33182 11.7669 8.17432C11.1621 9.24621 10.9399 10.4919 11.1369 11.7068C11.1369 11.7068 6.54688 12.3968 6.54688 16.6118C6.54688 21.3668 10.8444 21.2618 10.8444 21.2618C10.8444 21.2618 11.1969 24.4118 14.0544 25.3793Z" stroke="#333333" stroke-width="1.5" stroke-miterlimit="10"/>
</svg>
