<svg width="100%" height="100%" viewBox="0 0 48 48" fill="none" xmlns="http://www.w3.org/2000/svg">
<path d="M40.1209 11.0395H30.2209C29.8509 7.92953 27.2009 5.51953 24.0009 5.51953C20.8009 5.51953 18.1509 7.93953 17.7809 11.0395H7.88086V12.5395H10.5009L14.1809 40.9695H33.8109L37.4909 12.5395H40.1109V11.0395H40.1209ZM24.0009 7.01953C26.3709 7.01953 28.3309 8.76953 28.7009 11.0395H19.3109C19.6709 8.76953 21.6309 7.01953 24.0109 7.01953H24.0009ZM32.5009 39.4695H15.5009L12.0209 12.5395H35.9809L32.5009 39.4695Z" fill="#006817"/>
<path d="M24.75 16.4395H23.25V35.5595H24.75V16.4395Z" fill="#006817"/>
<path d="M29.4464 16.3798L27.834 35.502L29.3287 35.628L30.9411 16.5059L29.4464 16.3798Z" fill="#006817"/>
<path d="M18.5494 16.3759L17.0547 16.502L18.6671 35.6241L20.1618 35.4981L18.5494 16.3759Z" fill="#006817"/>
</svg>
