<svg width="100%" height="100%" viewBox="0 0 48 48" fill="none" xmlns="http://www.w3.org/2000/svg">
<path d="M19.8203 27.0195H28.5603" stroke="#006817" stroke-width="1.5" stroke-miterlimit="10"/>
<path d="M26.0117 11.7291V7.61914C26.0117 7.08871 25.801 6.58 25.4259 6.20493C25.0509 5.82985 24.5422 5.61914 24.0117 5.61914C23.4813 5.61914 22.9726 5.82985 22.5975 6.20493C22.2224 6.58 22.0117 7.08871 22.0117 7.61914V11.7291" stroke="#006817" stroke-width="1.5" stroke-miterlimit="10"/>
<path d="M23.2215 20.2803L13.4715 38.0603C13.3041 38.3665 13.0728 38.633 12.7933 38.8418C12.5137 39.0506 12.1925 39.1968 11.8515 39.2703C11.2707 39.3862 10.6677 39.2904 10.1515 39.0003C9.86667 38.8491 9.61468 38.643 9.41003 38.3939C9.20538 38.1448 9.05213 37.8576 8.95915 37.5488C8.86616 37.2401 8.83528 36.916 8.86829 36.5953C8.9013 36.2746 8.99754 35.9636 9.15145 35.6803L19.5515 16.8203" stroke="#006817" stroke-width="1.5" stroke-miterlimit="10"/>
<path d="M28.441 16.8203L38.811 35.7103C39.1226 36.2779 39.196 36.946 39.0151 37.5677C38.8341 38.1894 38.4136 38.7137 37.846 39.0253C37.2785 39.3369 36.6103 39.4103 35.9887 39.2294C35.367 39.0484 34.8426 38.6279 34.531 38.0603L24.791 20.3103" stroke="#006817" stroke-width="1.5" stroke-miterlimit="10"/>
<path d="M24.0014 20.3778C26.5198 20.3778 28.5614 18.3362 28.5614 15.8178C28.5614 13.2994 26.5198 11.2578 24.0014 11.2578C21.483 11.2578 19.4414 13.2994 19.4414 15.8178C19.4414 18.3362 21.483 20.3778 24.0014 20.3778Z" stroke="#006817" stroke-width="1.5" stroke-miterlimit="10"/>
<path d="M37.8398 39.0293L39.8098 42.3793" stroke="#006817" stroke-width="1.5" stroke-miterlimit="10"/>
<path d="M10.1514 39.0293L8.19141 42.3793" stroke="#006817" stroke-width="1.5" stroke-miterlimit="10"/>
</svg>
