<svg width="100%" height="100%" viewBox="0 0 48 48" fill="none" xmlns="http://www.w3.org/2000/svg">
<path d="M30.8991 15.7791H44.4691V15.0291C44.4691 10.5291 40.8091 6.86914 36.3091 6.86914C34.2291 6.86914 32.3391 7.64914 30.8891 8.93914C29.4491 7.65914 27.5591 6.86914 25.4791 6.86914C21.2291 6.86914 17.7391 10.1291 17.3591 14.2791H4.28906V15.7791H17.3191V39.4991C15.6991 39.2091 14.7191 38.4991 14.7191 37.9591H13.2191C13.2191 38.6391 11.6291 39.6291 9.12906 39.6291C6.62906 39.6291 5.03906 38.6391 5.03906 37.9591H3.53906C3.53906 39.7691 5.93906 41.1291 9.12906 41.1291C11.2491 41.1291 13.0191 40.5291 13.9691 39.5891C14.9191 40.5191 16.6891 41.1291 18.8091 41.1291C20.9291 41.1291 22.6991 40.5291 23.6491 39.5891C24.5991 40.5191 26.3691 41.1291 28.4891 41.1291C30.6091 41.1291 32.3791 40.5291 33.3291 39.5891C34.2791 40.5191 36.0491 41.1291 38.1691 41.1291C41.3591 41.1291 43.7591 39.7691 43.7591 37.9591H42.2591C42.2591 38.6391 40.6691 39.6291 38.1691 39.6291C35.6691 39.6291 34.0791 38.6391 34.0791 37.9591H32.5791C32.5791 38.5291 31.4691 39.2991 29.6591 39.5391V15.7791H30.9091H30.8991ZM29.6891 14.2791C29.8191 13.1291 30.2491 12.0691 30.8891 11.1691C31.5291 12.0691 31.9591 13.1291 32.0891 14.2791H29.6791H29.6891ZM42.9291 14.2791H33.6091C33.4591 12.6891 32.8591 11.2291 31.9191 10.0291C33.0891 8.99914 34.6291 8.36914 36.3091 8.36914C39.7291 8.36914 42.5491 10.9591 42.9291 14.2791ZM25.4791 8.36914C27.1591 8.36914 28.6891 8.99914 29.8691 10.0291C28.9391 11.2291 28.3291 12.6891 28.1791 14.2791H18.8591C19.2291 10.9591 22.0591 8.36914 25.4691 8.36914H25.4791ZM28.1491 33.5891H18.8191V28.8291H28.1491V33.5891ZM28.1491 27.3291H18.8191V22.2991H28.1491V27.3291ZM24.3991 37.9691H22.8991C22.8991 38.6491 21.3091 39.6291 18.8291 39.6391V35.0891H28.1591V39.6191C25.8591 39.5291 24.4091 38.6191 24.4091 37.9691H24.3991ZM28.1491 20.8091H18.8191V15.7791H28.1491V20.8091Z" fill="#4349AA"/>
</svg>
