<svg width="48" height="48" viewBox="0 0 48 48" fill="none" xmlns="http://www.w3.org/2000/svg">
    <path d="M13.0071 21.6522H34.9929C36.0404 21.6522 37.0449 22.0683 37.7856 22.809C38.5262 23.5497 38.9423 24.5542 38.9423 25.6017V33.0273H9.05762V25.6017C9.05762 24.5542 9.47372 23.5497 10.2144 22.809C10.955 22.0683 11.9596 21.6522 13.0071 21.6522V21.6522Z" stroke="#333333" stroke-width="1.5" stroke-miterlimit="10"/>
    <path d="M15.3794 12H32.6211C32.9318 12 33.2395 12.0612 33.5265 12.1801C33.8136 12.299 34.0744 12.4733 34.2941 12.693C34.5138 12.9127 34.6881 13.1735 34.807 13.4606C34.9259 13.7477 34.9871 14.0553 34.9871 14.366V21.6461H13.0073V14.366C13.0073 14.0548 13.0687 13.7466 13.188 13.4592C13.3073 13.1717 13.4821 12.9106 13.7025 12.6909C13.9228 12.4711 14.1844 12.2969 14.4721 12.1784C14.7599 12.0598 15.0682 11.9992 15.3794 12V12Z" stroke="#333333" stroke-width="1.5" stroke-miterlimit="10"/>
    <path d="M9.05762 29.7089H38.9423" stroke="#333333" stroke-width="1.5" stroke-miterlimit="10"/>
    <path d="M18.4243 18.9342H22.4284C22.8451 18.9342 23.2447 19.0997 23.5394 19.3944C23.8341 19.6891 23.9996 20.0888 23.9996 20.5055V21.6521H16.853V20.5055C16.853 20.0888 17.0186 19.6891 17.3132 19.3944C17.6079 19.0997 18.0076 18.9342 18.4243 18.9342Z" stroke="#333333" stroke-width="1.5" stroke-miterlimit="10"/>
    <path d="M25.5713 18.9342H29.5753C29.9921 18.9342 30.3917 19.0997 30.6864 19.3944C30.9811 19.6891 31.1466 20.0888 31.1466 20.5055V21.6521H24V20.5055C24 20.0888 24.1655 19.6891 24.4602 19.3944C24.7549 19.0997 25.1546 18.9342 25.5713 18.9342Z" stroke="#333333" stroke-width="1.5" stroke-miterlimit="10"/>
    <path d="M13.0073 33.0272V35.9999" stroke="#333333" stroke-width="1.5" stroke-miterlimit="10"/>
    <path d="M34.9927 33.0272V35.9999" stroke="#333333" stroke-width="1.5" stroke-miterlimit="10"/>
</svg>
