<svg width="48" height="48" viewBox="0 0 48 48" fill="none" xmlns="http://www.w3.org/2000/svg">
    <path d="M28.3621 16.0125C27.4817 16.0345 26.6448 16.3997 26.03 17.0303C25.4152 17.6609 25.0712 18.5068 25.0715 19.3875C25.0718 18.5068 24.7278 17.6609 24.113 17.0303C23.4982 16.3997 22.6613 16.0345 21.7809 16.0125C21.3301 16.0132 20.8838 16.1029 20.4678 16.2764C20.0517 16.45 19.674 16.7039 19.3563 17.0237C19.0385 17.3436 18.7871 17.7229 18.6162 18.1401C18.4454 18.5573 18.3587 19.0041 18.3609 19.455V19.3537C18.3609 21.5587 19.2834 22.2843 20.9034 23.775L25.0715 27.5943L29.234 23.7637C30.854 22.2731 31.7765 21.5475 31.7765 19.3425V19.4437C31.778 18.5361 31.4193 17.6651 30.7791 17.0218C30.139 16.3784 29.2697 16.0154 28.3621 16.0125V16.0125Z" stroke="#333333" stroke-width="1.5" stroke-miterlimit="10"/>
    <path d="M23.5752 29.2987L16.4596 27.0037C16.0455 26.8931 15.6091 26.8969 15.197 27.0148C14.7849 27.1327 14.4125 27.3602 14.1196 27.6731L11.8921 29.9512V37.6912L16.2233 36.285C16.8078 36.0269 17.4506 35.9298 18.0852 36.0037L23.0577 36.6112C23.8998 36.7164 24.7518 36.5169 25.4596 36.0487L33.5765 30.6037C33.9192 30.3743 34.1587 30.02 34.2438 29.6164C34.3289 29.2129 34.253 28.792 34.0321 28.4437V28.4437C33.9205 28.2671 33.7751 28.1144 33.6041 27.9943C33.4332 27.8743 33.2401 27.7893 33.0361 27.7443C32.8321 27.6993 32.6212 27.6952 32.4156 27.7322C32.21 27.7692 32.0138 27.8467 31.8383 27.96L25.4596 32.0662" stroke="#333333" stroke-width="1.5" stroke-miterlimit="10"/>
    <path d="M17.9893 30.9131L23.693 32.6568C24.0876 32.7744 24.5125 32.7339 24.8778 32.5439C25.2431 32.3539 25.5202 32.0293 25.6505 31.6387V31.6387C25.7151 31.44 25.7397 31.2305 25.7229 31.0223C25.706 30.8141 25.6481 30.6112 25.5523 30.4255C25.4566 30.2399 25.325 30.075 25.1652 29.9405C25.0054 29.8059 24.8204 29.7044 24.6211 29.6418L23.5805 29.3043" stroke="#333333" stroke-width="1.5" stroke-miterlimit="10"/>
    <path d="M24.8413 12.5193V10.3087" stroke="#333333" stroke-width="1.5" stroke-miterlimit="10"/>
    <path d="M24.8413 12.5193V10.3087" stroke="#333333" stroke-width="1.5" stroke-miterlimit="10"/>
    <path d="M31.248 15.1743L32.8118 13.6106" stroke="#333333" stroke-width="1.5" stroke-miterlimit="10"/>
    <path d="M31.248 15.1743L32.8118 13.6106" stroke="#333333" stroke-width="1.5" stroke-miterlimit="10"/>
    <path d="M18.4397 15.1743L16.876 13.6106" stroke="#333333" stroke-width="1.5" stroke-miterlimit="10"/>
    <path d="M18.4397 15.1743L16.876 13.6106" stroke="#333333" stroke-width="1.5" stroke-miterlimit="10"/>
    <path d="M15.7848 21.5756H13.5742" stroke="#333333" stroke-width="1.5" stroke-miterlimit="10"/>
    <path d="M15.7848 21.5756H13.5742" stroke="#333333" stroke-width="1.5" stroke-miterlimit="10"/>
    <path d="M33.897 21.5756H36.1076" stroke="#333333" stroke-width="1.5" stroke-miterlimit="10"/>
</svg>
