<svg width="48" height="48" viewBox="0 0 48 48" fill="none" xmlns="http://www.w3.org/2000/svg">
    <g clip-path="url(#clip0_234_7233)">
        <path d="M25.3398 7.8502C26.3151 7.86334 27.246 8.26001 27.9309 8.95435C28.6159 9.64869 28.9999 10.5848 28.9998 11.5602V15.5602C28.9998 16.0435 28.9047 16.522 28.7197 16.9685C28.5348 17.4149 28.2637 17.8206 27.922 18.1623C27.5803 18.5041 27.1746 18.7751 26.7281 18.9601C26.2816 19.145 25.8031 19.2402 25.3198 19.2402C24.3306 19.2402 23.3818 18.8472 22.6823 18.1477C21.9828 17.4482 21.5898 16.4995 21.5898 15.5102V11.5102C21.603 10.528 22.0052 9.59106 22.7082 8.90494C23.4112 8.21883 24.3576 7.83952 25.3398 7.8502V7.8502Z" stroke="#333333" stroke-width="1.5" stroke-miterlimit="10"/>
        <path d="M21.6401 15.0001H17.9401C16.1207 15.0001 14.3758 15.7229 13.0893 17.0094C11.8028 18.2959 11.0801 20.0407 11.0801 21.8601V39.6001H24.7501V26.7101H31.6001C32.1491 26.7101 32.6756 26.492 33.0638 26.1038C33.452 25.7156 33.6701 25.1891 33.6701 24.6401C33.6701 24.0911 33.452 23.5646 33.0638 23.1764C32.6756 22.7882 32.1491 22.5701 31.6001 22.5701H24.7501V19.2501" stroke="#333333" stroke-width="1.5" stroke-miterlimit="10"/>
        <path d="M36.9197 40.15V27.88C36.9197 27.0207 36.5783 26.1966 35.9707 25.589C35.3631 24.9814 34.539 24.64 33.6797 24.64V24.64" stroke="#333333" stroke-width="1.5" stroke-miterlimit="10"/>
        <path d="M24.7501 31.14H11.0801" stroke="#333333" stroke-width="1.5" stroke-miterlimit="10"/>
    </g>
    <defs>
        <clipPath id="clip0_234_7233">
            <rect width="48" height="48" fill="white"/>
        </clipPath>
    </defs>
</svg>
