<svg width="48" height="48" viewBox="0 0 48 48" fill="none" xmlns="http://www.w3.org/2000/svg">
    <g clip-path="url(#clip0_234_7220)">
        <path d="M31.4502 10.885C29.4615 10.9217 27.5668 11.7375 26.1735 13.157C24.7802 14.5764 23.9998 16.486 24.0002 18.475C24.0005 16.486 23.2201 14.5764 21.8268 13.157C20.4336 11.7375 18.5388 10.9217 16.5502 10.885C15.5299 10.8863 14.5199 11.0891 13.5782 11.4816C12.6364 11.8742 11.7815 12.4488 11.0624 13.1726C10.3432 13.8964 9.77412 14.755 9.38763 15.6992C9.00114 16.6435 8.8049 17.6547 8.81016 18.675V18.455C8.81016 23.455 10.9002 25.085 14.5702 28.455L24.0002 37.115L33.4302 28.455C37.1002 25.085 39.1902 23.455 39.1902 18.455V18.675C39.1954 17.6547 38.9992 16.6435 38.6127 15.6992C38.2262 14.755 37.6571 13.8964 36.938 13.1726C36.2188 12.4488 35.3639 11.8742 34.4222 11.4816C33.4804 11.0891 32.4704 10.8863 31.4502 10.885V10.885Z" stroke="#333333" stroke-width="1.5" stroke-miterlimit="10"/>
        <path d="M33.1509 15.6851C33.6032 16.1365 33.9621 16.6727 34.2069 17.263C34.4518 17.8532 34.5778 18.486 34.5778 19.1251C34.5778 19.7641 34.4518 20.3969 34.2069 20.9872C33.9621 21.5774 33.6032 22.1136 33.1509 22.5651" stroke="#333333" stroke-width="1.5" stroke-miterlimit="10"/>
    </g>
    <defs>
        <clipPath id="clip0_234_7220">
            <rect width="48" height="48" fill="white"/>
        </clipPath>
    </defs>
</svg>
