<svg width="48" height="48" viewBox="0 0 48 48" fill="none" xmlns="http://www.w3.org/2000/svg">
    <path d="M31.7451 30.7795C34.5927 30.8412 37.3976 30.0805 39.8239 28.5886V21.5492C38.2353 21.5492 37.8396 20.1319 35.5837 18.6968C35.2471 18.4783 34.3081 17.8405 33.4636 17.3858C33.3069 17.2774 33.1303 17.2011 32.9439 17.1614C32.7575 17.1217 32.5651 17.1193 32.3778 17.1545C32.1906 17.1896 32.0121 17.2616 31.8528 17.3662C31.6935 17.4708 31.5566 17.6059 31.4498 17.7638V17.7638C31.2898 18.0707 31.2565 18.4281 31.357 18.7593C31.4574 19.0905 31.6837 19.3691 31.9872 19.5354L34.0955 20.8701H29.1821" stroke="#333333" stroke-width="1.5" stroke-miterlimit="10"/>
    <path d="M31.2608 28.3051H26.2293C25.904 28.3066 25.5925 28.4365 25.3625 28.6665C25.1324 28.8966 25.0025 29.2081 25.001 29.5334V29.5334C25.0025 29.8587 25.1324 30.1702 25.3625 30.4003C25.5925 30.6303 25.904 30.7602 26.2293 30.7617H31.7451" stroke="#333333" stroke-width="1.5" stroke-miterlimit="10"/>
    <path d="M31.261 25.8365H24.0858C23.761 25.8365 23.4495 25.9651 23.2193 26.1942C22.9891 26.4233 22.859 26.7342 22.8574 27.059V27.059C22.859 27.3837 22.9891 27.6947 23.2193 27.9237C23.4495 28.1528 23.761 28.2814 24.0858 28.2814H31.261" stroke="#333333" stroke-width="1.5" stroke-miterlimit="10"/>
    <path d="M31.261 23.3622H23.4716C23.3091 23.3607 23.1478 23.3913 22.9971 23.4522C22.8463 23.5132 22.7091 23.6033 22.5933 23.7175C22.4776 23.8316 22.3855 23.9675 22.3224 24.1173C22.2592 24.2672 22.2264 24.428 22.2256 24.5906V24.5906C22.2271 24.9159 22.3571 25.2274 22.5871 25.4574C22.8171 25.6875 23.1286 25.8174 23.4539 25.8189H31.261" stroke="#333333" stroke-width="1.5" stroke-miterlimit="10"/>
    <path d="M30.5527 20.8937H25.2377C25.0754 20.8922 24.9144 20.9228 24.764 20.9838C24.6136 21.0449 24.4768 21.1351 24.3615 21.2493C24.2462 21.3635 24.1546 21.4995 24.0922 21.6493C24.0297 21.7991 23.9976 21.9598 23.9976 22.1221V22.1221C23.9991 22.4468 24.1292 22.7578 24.3594 22.9868C24.5896 23.2159 24.9011 23.3445 25.2259 23.3445H31.2613" stroke="#333333" stroke-width="1.5" stroke-miterlimit="10"/>
    <path d="M8.17627 30.7795V13.063C8.1778 12.7826 8.28948 12.514 8.48722 12.3151C8.68497 12.1163 8.95294 12.0031 9.23336 12H31.0837C31.3672 12 31.6391 12.1126 31.8396 12.3131C32.04 12.5135 32.1526 12.7854 32.1526 13.0689V17.2028" stroke="#333333" stroke-width="1.5" stroke-miterlimit="10"/>
    <path d="M32.1763 30.7736V34.9074C32.1717 35.1958 32.0551 35.471 31.8512 35.6749C31.6473 35.8788 31.3721 35.9954 31.0837 36H9.28651C8.99205 36 8.70966 35.883 8.50145 35.6748C8.29324 35.4666 8.17627 35.1842 8.17627 34.8897V30.7559" stroke="#333333" stroke-width="1.5" stroke-miterlimit="10"/>
    <path d="M22.2254 17.4035L21.2215 16.9134C21.2105 16.9077 21.1984 16.9047 21.1861 16.9047C21.1737 16.9047 21.1616 16.9077 21.1506 16.9134L20.2176 17.5984C20.2055 17.6071 20.191 17.6117 20.1762 17.6117C20.1614 17.6117 20.1469 17.6071 20.1349 17.5984L19.2254 16.9134C19.2145 16.9077 19.2023 16.9047 19.19 16.9047C19.1777 16.9047 19.1655 16.9077 19.1546 16.9134L18.0916 17.4449C18.0816 17.45 18.0704 17.4524 18.0592 17.4519C18.048 17.4514 18.0371 17.4481 18.0276 17.4421C18.0181 17.4362 18.0103 17.4279 18.0049 17.418C17.9996 17.4081 17.9969 17.397 17.9971 17.3858V12H22.3199L22.2845 17.315C22.2883 17.3247 22.2897 17.3352 22.2886 17.3456C22.2874 17.356 22.2838 17.3659 22.278 17.3746C22.2722 17.3833 22.2644 17.3905 22.2553 17.3955C22.2461 17.4006 22.2359 17.4033 22.2254 17.4035V17.4035Z" stroke="#333333" stroke-width="1.5" stroke-miterlimit="10"/>
</svg>
