<svg width="48" height="48" viewBox="0 0 48 48" fill="none" xmlns="http://www.w3.org/2000/svg">
    <g clip-path="url(#clip0_234_7225)">
        <path d="M24.8274 25.22L13.4074 21.54C12.7397 21.3548 12.0341 21.3567 11.3674 21.5454C10.7008 21.7341 10.0989 22.1024 9.62736 22.61L6.04736 26.27V38.67L12.9874 36.44C13.9282 36.0213 14.9651 35.8658 15.9874 35.99L23.9874 36.99C25.3434 37.1341 26.7062 36.7863 27.8274 36.01L40.8274 27.29C41.3775 26.921 41.7617 26.3517 41.8981 25.7035C42.0345 25.0552 41.9122 24.3794 41.5574 23.82V23.82C41.3784 23.5365 41.1449 23.2913 40.8705 23.0988C40.596 22.9063 40.286 22.7703 39.9584 22.6987C39.6309 22.627 39.2924 22.6212 38.9626 22.6815C38.6328 22.7418 38.3183 22.8671 38.0374 23.05L27.8274 29.66" stroke="#333333" stroke-width="1.5" stroke-miterlimit="10"/>
        <path d="M15.8276 27.8101L24.9676 30.6001C25.6028 30.7864 26.2856 30.7184 26.8715 30.4105C27.4575 30.1026 27.9008 29.5789 28.1076 28.9501C28.2102 28.6317 28.2489 28.2961 28.2214 27.9627C28.1939 27.6293 28.1008 27.3046 27.9475 27.0072C27.7942 26.7099 27.5837 26.4458 27.328 26.23C27.0723 26.0143 26.7765 25.8512 26.4576 25.7501L24.8276 25.2101" stroke="#333333" stroke-width="1.5" stroke-miterlimit="10"/>
        <path d="M22.8278 18.11C22.2846 18.11 21.7467 18.2171 21.245 18.4253C20.7432 18.6335 20.2875 18.9386 19.9039 19.3232C19.5202 19.7077 19.2162 20.1642 19.0093 20.6664C18.8023 21.1687 18.6965 21.7068 18.6978 22.25V23.25" stroke="#333333" stroke-width="1.5" stroke-miterlimit="10"/>
        <path d="M27.6577 18.1102C28.2043 18.1049 28.7464 18.2081 29.2528 18.4139C29.7592 18.6197 30.2196 18.924 30.6075 19.3091C30.9954 19.6942 31.303 20.1525 31.5124 20.6573C31.7219 21.1622 31.8291 21.7036 31.8277 22.2502V27.0702" stroke="#333333" stroke-width="1.5" stroke-miterlimit="10"/>
        <path d="M24.9581 9.32996H25.4981C26.4104 9.32996 27.2854 9.69238 27.9305 10.3375C28.5756 10.9826 28.9381 11.8576 28.9381 12.77V15.72C28.9381 16.1691 28.8496 16.6138 28.6777 17.0287C28.5059 17.4437 28.2539 17.8207 27.9364 18.1383C27.6188 18.4558 27.2418 18.7078 26.8268 18.8796C26.4119 19.0515 25.9672 19.14 25.5181 19.14H24.9781C24.5237 19.14 24.0738 19.0505 23.654 18.8766C23.2342 18.7027 22.8528 18.4478 22.5315 18.1265C22.2102 17.8053 21.9553 17.4238 21.7814 17.004C21.6076 16.5843 21.5181 16.1343 21.5181 15.68V12.77C21.5181 11.8576 21.8805 10.9826 22.5256 10.3375C23.1707 9.69238 24.0457 9.32996 24.9581 9.32996V9.32996Z" stroke="#333333" stroke-width="1.5" stroke-miterlimit="10"/>
    </g>
    <defs>
        <clipPath id="clip0_234_7225">
            <rect width="48" height="48" fill="white"/>
        </clipPath>
    </defs>
</svg>
