<svg width="302" height="31" viewBox="0 0 302 31" fill="none" xmlns="http://www.w3.org/2000/svg">
<path d="M301 29.9302H1" stroke="#BABABA" stroke-width="1.5" stroke-linecap="round" stroke-linejoin="round"/>
<path d="M133.51 29.93H117.68C116.863 29.93 116.079 29.6055 115.502 29.0279C114.924 28.4503 114.6 27.6669 114.6 26.85C114.6 26.0332 114.924 25.2497 115.502 24.6721C116.079 24.0945 116.863 23.77 117.68 23.77H119.19" stroke="#BABABA" stroke-width="1.5" stroke-linecap="round" stroke-linejoin="round"/>
<path d="M121.37 23.77H133.51" stroke="#BABABA" stroke-width="1.5" stroke-linecap="round" stroke-linejoin="round"/>
<path d="M133.51 29.93C132.8 29.93 132.22 28.55 132.22 26.85C132.22 25.15 132.8 23.77 133.51 23.77" stroke="#BABABA" stroke-width="1.5" stroke-linecap="round" stroke-linejoin="round"/>
<path d="M115.77 18.9503H131.61C132.397 18.9054 133.138 18.5608 133.68 17.9872C134.222 17.4136 134.524 16.6544 134.524 15.8653C134.524 15.0762 134.222 14.317 133.68 13.7433C133.138 13.1697 132.397 12.8251 131.61 12.7803H115.77" stroke="#BABABA" stroke-width="1.5" stroke-linecap="round" stroke-linejoin="round"/>
<path d="M115.77 12.7803C116.49 12.7803 117.06 14.1603 117.06 15.8703C117.06 17.5803 116.49 18.9503 115.77 18.9503" stroke="#BABABA" stroke-width="1.5" stroke-linecap="round" stroke-linejoin="round"/>
<path d="M119.19 23.7702H117.95C117.634 23.7702 117.32 23.7079 117.028 23.5867C116.735 23.4656 116.47 23.2881 116.246 23.0643C116.022 22.8405 115.845 22.5749 115.723 22.2825C115.602 21.9901 115.54 21.6767 115.54 21.3602C115.54 21.0437 115.602 20.7303 115.723 20.4379C115.845 20.1455 116.022 19.8799 116.246 19.6561C116.47 19.4323 116.735 19.2548 117.028 19.1336C117.32 19.0125 117.634 18.9502 117.95 18.9502H134.81" stroke="#BABABA" stroke-width="1.5" stroke-linecap="round" stroke-linejoin="round"/>
<path d="M134.59 23.7702C134.15 23.7702 133.8 22.6902 133.8 21.3602C133.8 20.0302 134.15 18.9502 134.59 18.9502" stroke="#BABABA" stroke-width="1.5" stroke-linecap="round" stroke-linejoin="round"/>
<path d="M121.37 21.3604V27.2903L120.28 26.1404L119.19 27.2903V21.3604H121.37Z" stroke="#BABABA" stroke-width="1.5" stroke-linecap="round" stroke-linejoin="round"/>
<path d="M136.662 1.00019L131.319 2.42773L138.671 29.9424L144.014 28.5149L136.662 1.00019Z" stroke="#BABABA" stroke-width="1.5" stroke-linecap="round" stroke-linejoin="round"/>
<path d="M137.168 3.18311L143.195 1.00022L152.89 27.7685C152.895 27.781 152.894 27.7948 152.888 27.8068C152.883 27.8188 152.873 27.8281 152.86 27.8326L146.965 29.9678C146.952 29.9723 146.939 29.9717 146.927 29.9661C146.915 29.9604 146.905 29.9503 146.901 29.9378L137.206 3.16948L137.168 3.18311Z" stroke="#BABABA" stroke-width="1.5" stroke-linecap="round" stroke-linejoin="round"/>
<path d="M156.75 5.06006H152.82V29.9301H156.75V5.06006Z" stroke="#BABABA" stroke-width="1.5" stroke-linecap="round" stroke-linejoin="round"/>
<path d="M168.64 5.06006H162.51V29.9301H168.64V5.06006Z" stroke="#BABABA" stroke-width="1.5" stroke-linecap="round" stroke-linejoin="round"/>
<path d="M162.51 3.71045H156.75V29.9305H162.51V3.71045Z" stroke="#BABABA" stroke-width="1.5" stroke-linecap="round" stroke-linejoin="round"/>
<path d="M194.32 25.6104H172.97C172.197 25.6104 171.57 26.2372 171.57 27.0104V28.5304C171.57 29.3036 172.197 29.9304 172.97 29.9304H194.32C195.094 29.9304 195.72 29.3036 195.72 28.5304V27.0104C195.72 26.2372 195.094 25.6104 194.32 25.6104Z" stroke="#BABABA" stroke-width="1.5" stroke-linecap="round" stroke-linejoin="round"/>
<path d="M196.84 22.29H174.47C173.697 22.29 173.07 22.9168 173.07 23.69V24.21C173.07 24.9832 173.697 25.61 174.47 25.61H196.84C197.614 25.61 198.24 24.9832 198.24 24.21V23.69C198.24 22.9168 197.614 22.29 196.84 22.29Z" stroke="#BABABA" stroke-width="1.5" stroke-linecap="round" stroke-linejoin="round"/>
<path d="M159.63 18.1605V15.4805" stroke="#BABABA" stroke-width="1.5" stroke-linecap="round" stroke-linejoin="round"/>
<path d="M165.58 21.7804V13.2104" stroke="#BABABA" stroke-width="1.5" stroke-linecap="round" stroke-linejoin="round"/>
<path d="M134.81 23.77H133.51" stroke="#BABABA" stroke-width="1.5" stroke-linecap="round" stroke-linejoin="round"/>
<path d="M182.2 27.77H185.12" stroke="#BABABA" stroke-width="1.5" stroke-linecap="round" stroke-linejoin="round"/>
<path d="M143.44 11.1504L146.61 19.9004" stroke="#BABABA" stroke-width="1.5" stroke-linecap="round" stroke-linejoin="round"/>
<path d="M132.49 6.82039L137.8 5.40039" stroke="#BABABA" stroke-width="1.5" stroke-linecap="round" stroke-linejoin="round"/>
<path d="M137.18 24.3503L142.54 23.0103" stroke="#BABABA" stroke-width="1.5" stroke-linecap="round" stroke-linejoin="round"/>
<path d="M121.82 16.8203H128.38" stroke="#BABABA" stroke-width="1.5" stroke-linecap="round" stroke-linejoin="round"/>
<path d="M177.19 22.2902H193.02C193.44 22.3142 193.861 22.2521 194.256 22.1079C194.651 21.9636 195.012 21.7403 195.318 21.4515C195.624 21.1626 195.867 20.8145 196.034 20.4282C196.2 20.042 196.286 19.6258 196.286 19.2052C196.286 18.7847 196.2 18.3685 196.034 17.9823C195.867 17.596 195.624 17.2478 195.318 16.959C195.012 16.6702 194.651 16.4468 194.256 16.3026C193.861 16.1584 193.44 16.0963 193.02 16.1202H177.19" stroke="#BABABA" stroke-width="1.5" stroke-linecap="round" stroke-linejoin="round"/>
<path d="M177.19 16.1201C177.9 16.1201 178.48 17.5001 178.48 19.2101C178.48 20.9201 177.9 22.2901 177.19 22.2901" stroke="#BABABA" stroke-width="1.5" stroke-linecap="round" stroke-linejoin="round"/>
<path d="M178.93 19.2104H185.65" stroke="#BABABA" stroke-width="1.5" stroke-linecap="round" stroke-linejoin="round"/>
<path d="M110.41 29.93H90.0605C89.2436 29.93 88.4602 29.6055 87.8826 29.0279C87.305 28.4503 86.9805 27.6669 86.9805 26.85C86.9805 26.0332 87.305 25.2497 87.8826 24.6721C88.4602 24.0945 89.2436 23.77 90.0605 23.77H110.41" stroke="#BABABA" stroke-width="1.5" stroke-linecap="round" stroke-linejoin="round"/>
<path d="M110.41 23.77C109.7 23.77 109.12 25.15 109.12 26.85C109.12 28.55 109.7 29.93 110.41 29.93" stroke="#BABABA" stroke-width="1.5" stroke-linecap="round" stroke-linejoin="round"/>
<path d="M98.2902 26.8501H91.7402" stroke="#BABABA" stroke-width="1.5" stroke-linecap="round" stroke-linejoin="round"/>
<path d="M124.72 27.3804H132.22" stroke="#BABABA" stroke-width="1.5" stroke-linecap="round" stroke-linejoin="round"/>
</svg>
