<svg width="734" height="48" viewBox="0 0 734 48" fill="none" xmlns="http://www.w3.org/2000/svg">
<path d="M732 45.79H2" stroke="#DADADA" stroke-width="3" stroke-linecap="round" stroke-linejoin="round"/>
<path d="M199.84 28.1L204.43 22.74C205.155 21.8962 206.055 21.2191 207.066 20.7548C208.077 20.2906 209.177 20.0501 210.29 20.05H221.63C223.372 20.0521 225.063 20.6403 226.43 21.72L234.5 28.1" stroke="#DADADA" stroke-width="3" stroke-linecap="round" stroke-linejoin="round"/>
<path d="M208.961 38.45H230.511" stroke="#DADADA" stroke-width="3" stroke-linecap="round" stroke-linejoin="round"/>
<path d="M199.839 28.1H197.499C197.07 28.0987 196.645 28.182 196.248 28.3453C195.852 28.5085 195.491 28.7484 195.187 29.0513C194.884 29.3541 194.643 29.714 194.478 30.1101C194.314 30.5063 194.229 30.931 194.229 31.36V36.1C194.216 36.7182 194.446 37.3169 194.871 37.7662C195.296 38.2154 195.881 38.4791 196.499 38.5H199.809" stroke="#DADADA" stroke-width="3" stroke-linecap="round" stroke-linejoin="round"/>
<path d="M239.63 38.5H241.3C242.096 38.5 242.859 38.1839 243.421 37.6213C243.984 37.0587 244.3 36.2956 244.3 35.5V31.08C244.3 30.2843 243.984 29.5213 243.421 28.9587C242.859 28.3961 242.096 28.08 241.3 28.08H234.5" stroke="#DADADA" stroke-width="3" stroke-linecap="round" stroke-linejoin="round"/>
<path d="M235.06 33.85C235.962 33.8447 236.846 34.1082 237.597 34.6069C238.349 35.1056 238.935 35.8169 239.28 36.65C239.633 37.4877 239.727 38.4122 239.549 39.3036C239.37 40.1951 238.929 41.0125 238.28 41.65C237.645 42.2881 236.834 42.7232 235.95 42.9C235.064 43.0703 234.147 42.98 233.31 42.64C232.496 42.2845 231.801 41.7011 231.31 40.96C230.854 40.2745 230.593 39.4782 230.554 38.6558C230.515 37.8334 230.7 37.0159 231.089 36.2903C231.478 35.5647 232.056 34.9582 232.763 34.5355C233.469 34.1128 234.277 33.8897 235.1 33.89L235.06 33.85Z" stroke="#DADADA" stroke-width="3" stroke-linecap="round" stroke-linejoin="round"/>
<path d="M204.389 33.85C205.291 33.8447 206.175 34.1082 206.926 34.6069C207.678 35.1056 208.264 35.8169 208.609 36.65C208.959 37.4804 209.05 38.3972 208.869 39.28C208.694 40.1617 208.263 40.9722 207.629 41.61C206.988 42.2465 206.175 42.6811 205.289 42.86C204.404 43.0364 203.485 42.9462 202.65 42.6009C201.816 42.2556 201.102 41.6707 200.599 40.92C200.144 40.2345 199.882 39.4382 199.843 38.6158C199.804 37.7934 199.989 36.9759 200.378 36.2503C200.767 35.5247 201.345 34.9182 202.052 34.4955C202.758 34.0728 203.566 33.8497 204.389 33.85V33.85Z" stroke="#DADADA" stroke-width="3" stroke-linecap="round" stroke-linejoin="round"/>
<path d="M384.721 28.1L390.061 22.74C391.893 20.9829 394.342 20.0167 396.881 20.05H410.071C412.055 20.0406 413.998 20.622 415.651 21.72L425.041 28.1" stroke="#DADADA" stroke-width="3" stroke-linecap="round" stroke-linejoin="round"/>
<path d="M399.5 38.45H421.05" stroke="#DADADA" stroke-width="3" stroke-linecap="round" stroke-linejoin="round"/>
<path d="M384.719 28.1V36.1C384.713 36.4128 384.769 36.7238 384.884 37.0147C384.999 37.3056 385.171 37.5706 385.39 37.7941C385.609 38.0177 385.87 38.1952 386.158 38.3165C386.447 38.4377 386.756 38.5001 387.069 38.5H390.379" stroke="#DADADA" stroke-width="3" stroke-linecap="round" stroke-linejoin="round"/>
<path d="M430.169 38.5H431.839C432.635 38.5 433.398 38.1839 433.96 37.6213C434.523 37.0587 434.839 36.2956 434.839 35.5V31.08C434.839 30.2843 434.523 29.5213 433.96 28.9587C433.398 28.3961 432.635 28.08 431.839 28.08H425.039" stroke="#DADADA" stroke-width="3" stroke-linecap="round" stroke-linejoin="round"/>
<path d="M425.6 33.85C426.502 33.8447 427.386 34.1082 428.137 34.6069C428.889 35.1056 429.475 35.8169 429.82 36.65C430.174 37.4877 430.267 38.4122 430.089 39.3036C429.91 40.1951 429.469 41.0125 428.82 41.65C428.182 42.2718 427.376 42.6925 426.5 42.86C425.614 43.0303 424.697 42.94 423.86 42.6C423.027 42.2527 422.315 41.6686 421.81 40.92C421.354 40.2345 421.093 39.4382 421.054 38.6158C421.015 37.7934 421.2 36.9759 421.589 36.2503C421.978 35.5247 422.556 34.9182 423.263 34.4955C423.969 34.0728 424.777 33.8497 425.6 33.85V33.85Z" stroke="#DADADA" stroke-width="3" stroke-linecap="round" stroke-linejoin="round"/>
<path d="M394.94 33.85C395.613 33.8495 396.278 33.9978 396.886 34.2845C397.495 34.5711 398.033 34.989 398.461 35.508C398.889 36.027 399.197 36.6344 399.363 37.2866C399.529 37.9387 399.548 38.6195 399.42 39.28C399.287 39.9417 399.009 40.5657 398.606 41.1071C398.203 41.6485 397.685 42.0939 397.089 42.4114C396.493 42.7288 395.835 42.9103 395.161 42.9429C394.486 42.9756 393.813 42.8584 393.19 42.6C392.375 42.2455 391.68 41.6619 391.19 40.92C390.685 40.1731 390.417 39.2915 390.42 38.39C390.421 37.1862 390.899 36.0319 391.75 35.18C392.61 34.3292 393.77 33.8514 394.98 33.85H394.94Z" stroke="#DADADA" stroke-width="3" stroke-linecap="round" stroke-linejoin="round"/>
<path d="M327.72 37.79H305.68" stroke="#DADADA" stroke-width="3" stroke-linecap="round" stroke-linejoin="round"/>
<path d="M295.351 37.79H289.591C288.898 37.79 288.233 37.5153 287.742 37.0262C287.251 36.537 286.973 35.8731 286.971 35.18V14.73C286.973 14.0369 287.251 13.373 287.742 12.8838C288.233 12.3947 288.898 12.12 289.591 12.12H343.811C344.503 12.12 345.167 12.395 345.656 12.8844C346.146 13.3739 346.421 14.0378 346.421 14.73V35.18C346.421 35.8722 346.146 36.5361 345.656 37.0255C345.167 37.515 344.503 37.79 343.811 37.79H338.051" stroke="#DADADA" stroke-width="3" stroke-linecap="round" stroke-linejoin="round"/>
<path d="M300.501 32.65C301.521 32.6501 302.518 32.949 303.37 33.51C304.218 34.0755 304.879 34.8793 305.27 35.82C305.672 36.7664 305.777 37.8127 305.571 38.82C305.381 39.7813 304.922 40.669 304.248 41.3796C303.573 42.0902 302.71 42.5944 301.76 42.8336C300.81 43.0728 299.811 43.037 298.881 42.7305C297.95 42.424 297.126 41.8593 296.504 41.1023C295.882 40.3453 295.488 39.4271 295.367 38.4547C295.247 37.4823 295.405 36.4957 295.824 35.6099C296.243 34.7241 296.905 33.9756 297.733 33.4516C298.561 32.9275 299.521 32.6495 300.501 32.65V32.65Z" stroke="#DADADA" stroke-width="3" stroke-linecap="round" stroke-linejoin="round"/>
<path d="M338.05 37.84C338.043 38.1755 338.01 38.5099 337.95 38.84C337.738 39.8307 337.241 40.7376 336.519 41.4486C335.798 42.1595 334.884 42.6433 333.89 42.84C332.883 43.0422 331.839 42.9413 330.89 42.55C330.107 42.2258 329.417 41.7137 328.88 41.0589C328.342 40.4042 327.975 39.627 327.81 38.7963C327.645 37.9656 327.687 37.107 327.933 36.2966C328.179 35.4861 328.621 34.7488 329.22 34.15C330.192 33.1889 331.503 32.6499 332.87 32.65C333.89 32.6501 334.888 32.949 335.74 33.51C336.451 33.9857 337.033 34.6301 337.435 35.3856C337.836 36.1412 338.044 36.9844 338.04 37.84" stroke="#DADADA" stroke-width="3" stroke-linecap="round" stroke-linejoin="round"/>
<path d="M317.61 12.12L307.49 2" stroke="#DADADA" stroke-width="3" stroke-linecap="round" stroke-linejoin="round"/>
<path d="M327.63 12.12L317.51 2" stroke="#DADADA" stroke-width="3" stroke-linecap="round" stroke-linejoin="round"/>
<path d="M294.25 24.96H339.15" stroke="#DADADA" stroke-width="3" stroke-linecap="round" stroke-linejoin="round"/>
<path d="M515.149 37.79H493.109" stroke="#DADADA" stroke-width="3" stroke-linecap="round" stroke-linejoin="round"/>
<path d="M511.09 12.12H531.24C531.931 12.1226 532.594 12.3985 533.082 12.8874C533.571 13.3763 533.847 14.0386 533.85 14.73V35.18C533.847 35.8714 533.571 36.5337 533.082 37.0226C532.594 37.5115 531.931 37.7874 531.24 37.79H526.5" stroke="#DADADA" stroke-width="3" stroke-linecap="round" stroke-linejoin="round"/>
<path d="M487.939 32.65C488.959 32.6501 489.957 32.949 490.809 33.51C491.658 34.0757 492.319 34.8801 492.711 35.8216C493.103 36.7631 493.206 37.7995 493.009 38.8C492.798 39.7907 492.301 40.6976 491.579 41.4086C490.857 42.1195 489.943 42.6033 488.949 42.8C488.201 42.953 487.428 42.9374 486.687 42.7544C485.946 42.5713 485.255 42.2254 484.664 41.7418C484.073 41.2582 483.597 40.649 483.271 39.9585C482.945 39.268 482.777 38.5136 482.779 37.75C482.779 37.0737 482.912 36.4039 483.171 35.7792C483.43 35.1545 483.81 34.5872 484.289 34.11C485.261 33.1489 486.573 32.6099 487.939 32.61V32.65Z" stroke="#DADADA" stroke-width="3" stroke-linecap="round" stroke-linejoin="round"/>
<path d="M526.5 37.84C526.501 38.509 526.368 39.1714 526.109 39.7881C525.849 40.4047 525.469 40.963 524.99 41.43C524.271 42.1539 523.351 42.6452 522.35 42.84C521.347 43.0409 520.308 42.9401 519.363 42.5503C518.418 42.1605 517.609 41.4992 517.04 40.65C516.382 39.6579 516.087 38.4687 516.205 37.284C516.324 36.0994 516.848 34.9921 517.69 34.15C518.657 33.1886 519.966 32.6493 521.33 32.65C522.353 32.6487 523.355 32.9477 524.21 33.51C525.057 34.0755 525.718 34.8793 526.11 35.82C526.376 36.4528 526.509 37.1336 526.5 37.82" stroke="#DADADA" stroke-width="3" stroke-linecap="round" stroke-linejoin="round"/>
<path d="M520.33 24.96H533.85" stroke="#DADADA" stroke-width="3" stroke-linecap="round" stroke-linejoin="round"/>
<path d="M520.33 12.12V24.96" stroke="#DADADA" stroke-width="3" stroke-linecap="round" stroke-linejoin="round"/>
<path d="M493.111 37.79H510.811V9.04999C510.811 8.51955 510.6 8.01085 510.225 7.63577C509.85 7.2607 509.341 7.04999 508.811 7.04999H476.811C476.491 7.05128 476.175 7.11583 475.881 7.23991C475.586 7.36399 475.319 7.54514 475.095 7.77291C474.871 8.00068 474.694 8.27057 474.575 8.56699C474.456 8.86342 474.397 9.18051 474.401 9.49999V35.79C474.401 36.3204 474.611 36.8291 474.986 37.2042C475.361 37.5793 475.87 37.79 476.401 37.79H482.781" stroke="#DADADA" stroke-width="3" stroke-linecap="round" stroke-linejoin="round"/>
</svg>
