<svg width="302" height="41" viewBox="0 0 302 41" fill="none" xmlns="http://www.w3.org/2000/svg">
<path d="M301 39.6562H1" stroke="#BABABA" stroke-width="1.5" stroke-linecap="round" stroke-linejoin="round"/>
<path d="M180.42 8.68604V12.556H194.77V39.656H199.61V12.556H205.5V8.68604H180.42Z" stroke="#BABABA" stroke-width="1.5" stroke-linecap="round" stroke-linejoin="round"/>
<path d="M197.19 8.68598V1.37598" stroke="#BABABA" stroke-width="1.5" stroke-linecap="round" stroke-linejoin="round"/>
<path d="M180.41 8.68598L197.19 1.37598" stroke="#BABABA" stroke-width="1.5" stroke-linecap="round" stroke-linejoin="round"/>
<path d="M205.5 8.68598L197.19 1.37598" stroke="#BABABA" stroke-width="1.5" stroke-linecap="round" stroke-linejoin="round"/>
<path d="M184.27 12.5562V25.1962" stroke="#BABABA" stroke-width="1.5" stroke-linecap="round" stroke-linejoin="round"/>
<path d="M98.0898 14.1162V17.9862H103.98V39.6562H108.82V17.9862H123.17V14.1162H98.0898Z" stroke="#BABABA" stroke-width="1.5" stroke-linecap="round" stroke-linejoin="round"/>
<path d="M106.4 14.1162V6.80615" stroke="#BABABA" stroke-width="1.5" stroke-linecap="round" stroke-linejoin="round"/>
<path d="M123.17 14.1162L106.4 6.80615" stroke="#BABABA" stroke-width="1.5" stroke-linecap="round" stroke-linejoin="round"/>
<path d="M98.0898 14.1162L106.4 6.80615" stroke="#BABABA" stroke-width="1.5" stroke-linecap="round" stroke-linejoin="round"/>
<path d="M119.31 17.9858V25.1958" stroke="#BABABA" stroke-width="1.5" stroke-linecap="round" stroke-linejoin="round"/>
<path d="M212.69 35.6558H205V39.6558H212.69V35.6558Z" stroke="#BABABA" stroke-width="1.5" stroke-linecap="round" stroke-linejoin="round"/>
<path d="M220.38 35.6558H212.69V39.6558H220.38V35.6558Z" stroke="#BABABA" stroke-width="1.5" stroke-linecap="round" stroke-linejoin="round"/>
<path d="M216.53 31.666H208.84V35.666H216.53V31.666Z" stroke="#BABABA" stroke-width="1.5" stroke-linecap="round" stroke-linejoin="round"/>
<path d="M188.32 25.1958H180.22V29.4058H188.32V25.1958Z" stroke="#BABABA" stroke-width="1.5" stroke-linecap="round" stroke-linejoin="round"/>
<path d="M123.36 25.8159H115.26V30.0259H123.36V25.8159Z" stroke="#BABABA" stroke-width="1.5" stroke-linecap="round" stroke-linejoin="round"/>
<path d="M98.5199 35.4458H90.4199V39.6558H98.5199V35.4458Z" stroke="#BABABA" stroke-width="1.5" stroke-linecap="round" stroke-linejoin="round"/>
<path d="M153.44 27.2959H134.3V39.6559H153.44V27.2959Z" stroke="#BABABA" stroke-width="1.5" stroke-linecap="round" stroke-linejoin="round"/>
<path d="M171.74 31.666H153.44V39.656H171.74V31.666Z" stroke="#BABABA" stroke-width="1.5" stroke-linecap="round" stroke-linejoin="round"/>
<path d="M134.3 27.2959V21.5859" stroke="#BABABA" stroke-width="1.5" stroke-linecap="round" stroke-linejoin="round"/>
<path d="M138.91 27.2958V17.9858" stroke="#BABABA" stroke-width="1.5" stroke-linecap="round" stroke-linejoin="round"/>
<path d="M153.44 27.296V18.876" stroke="#BABABA" stroke-width="1.5" stroke-linecap="round" stroke-linejoin="round"/>
<path d="M149.2 27.2959V21.5859" stroke="#BABABA" stroke-width="1.5" stroke-linecap="round" stroke-linejoin="round"/>
</svg>
