<svg width="302" height="28" viewBox="0 0 302 28" fill="none" xmlns="http://www.w3.org/2000/svg">
<path d="M301 27.1787L180.972 27.0587V4.06867C180.971 3.6667 180.89 3.26899 180.732 2.89918C180.579 2.52416 180.351 2.18413 180.062 1.89961C179.774 1.61836 179.435 1.39448 179.063 1.2399C178.688 1.0899 178.287 1.0119 177.883 1.01H173.445C173.043 1.00736 172.644 1.0842 172.271 1.23611C171.898 1.38802 171.559 1.61201 171.273 1.89524C170.987 2.17846 170.76 2.51536 170.604 2.88661C170.449 3.25786 170.368 3.65616 170.367 4.05867V27.0487H166.568V4.05867C166.567 3.6567 166.486 3.25899 166.328 2.88918C166.175 2.51417 165.947 2.17414 165.659 1.88961C165.37 1.60836 165.031 1.38448 164.659 1.2299C164.284 1.0799 163.884 1.00191 163.48 1L159.291 1.12994C158.475 1.12992 157.691 1.45338 157.112 2.02955C156.827 2.30963 156.6 2.64407 156.445 3.01315C156.291 3.38224 156.212 3.77851 156.213 4.17862V27.1687L152.334 27.0687V4.07867C152.333 3.6777 152.255 3.28067 152.105 2.90917C151.948 2.53603 151.72 2.19665 151.435 1.90961C151.149 1.62473 150.809 1.40035 150.435 1.24989C150.061 1.09801 149.66 1.01994 149.256 1.01999H144.838C144.433 1.02093 144.033 1.09896 143.658 1.24989C143.284 1.40035 142.944 1.62473 142.659 1.90961C142.368 2.1921 142.139 2.53267 141.989 2.90917C141.831 3.27898 141.75 3.6767 141.749 4.07867V27.0687H1" stroke="#BABABA" stroke-width="1.5" stroke-linecap="round" stroke-linejoin="round"/>
<path d="M193.866 22.7805C196.025 22.7805 197.775 21.0307 197.775 18.8722C197.775 16.7137 196.025 14.9639 193.866 14.9639C191.708 14.9639 189.958 16.7137 189.958 18.8722C189.958 21.0307 191.708 22.7805 193.866 22.7805Z" stroke="#BABABA" stroke-width="1.5" stroke-linecap="round" stroke-linejoin="round"/>
<path d="M193.866 26.9889V22.7808" stroke="#BABABA" stroke-width="1.5" stroke-linecap="round" stroke-linejoin="round"/>
<path d="M206.301 22.7805C208.459 22.7805 210.209 21.0307 210.209 18.8722C210.209 16.7137 208.459 14.9639 206.301 14.9639C204.142 14.9639 202.393 16.7137 202.393 18.8722C202.393 21.0307 204.142 22.7805 206.301 22.7805Z" stroke="#BABABA" stroke-width="1.5" stroke-linecap="round" stroke-linejoin="round"/>
<path d="M206.301 26.9889V22.7808" stroke="#BABABA" stroke-width="1.5" stroke-linecap="round" stroke-linejoin="round"/>
<path d="M112.272 22.7805C114.43 22.7805 116.18 21.0307 116.18 18.8722C116.18 16.7137 114.43 14.9639 112.272 14.9639C110.113 14.9639 108.363 16.7137 108.363 18.8722C108.363 21.0307 110.113 22.7805 112.272 22.7805Z" stroke="#BABABA" stroke-width="1.5" stroke-linecap="round" stroke-linejoin="round"/>
<path d="M112.271 27.1789V22.7808" stroke="#BABABA" stroke-width="1.5" stroke-linecap="round" stroke-linejoin="round"/>
<path d="M136.852 27.0591H185.041" stroke="#BABABA" stroke-width="1.5" stroke-linecap="round" stroke-linejoin="round"/>
</svg>
