<svg width="1114" height="55" viewBox="0 0 1114 55" fill="none" xmlns="http://www.w3.org/2000/svg">
<path d="M1112 53.3H2" stroke="#DADADA" stroke-width="3" stroke-linecap="round" stroke-linejoin="round"/>
<path d="M790.021 7.86011H727.721V53.3001H790.021V7.86011Z" stroke="#DADADA" stroke-width="3" stroke-linecap="round" stroke-linejoin="round"/>
<path d="M790.029 7.86011H773.869V53.3001H790.029V7.86011Z" stroke="#DADADA" stroke-width="3" stroke-linecap="round" stroke-linejoin="round"/>
<path d="M745.849 2H736.449V7.86H745.849V2Z" stroke="#DADADA" stroke-width="3" stroke-linecap="round" stroke-linejoin="round"/>
<path d="M768.281 2H758.881V7.86H768.281V2Z" stroke="#DADADA" stroke-width="3" stroke-linecap="round" stroke-linejoin="round"/>
<path d="M737.449 16.9299V20.6599" stroke="#DADADA" stroke-width="3" stroke-linecap="round" stroke-linejoin="round"/>
<path d="M749.99 16.9299V20.6599" stroke="#DADADA" stroke-width="3" stroke-linecap="round" stroke-linejoin="round"/>
<path d="M762.539 16.9299V20.6599" stroke="#DADADA" stroke-width="3" stroke-linecap="round" stroke-linejoin="round"/>
<path d="M737.449 28.72V32.45" stroke="#DADADA" stroke-width="3" stroke-linecap="round" stroke-linejoin="round"/>
<path d="M749.99 28.72V32.45" stroke="#DADADA" stroke-width="3" stroke-linecap="round" stroke-linejoin="round"/>
<path d="M762.539 28.72V32.45" stroke="#DADADA" stroke-width="3" stroke-linecap="round" stroke-linejoin="round"/>
<path d="M737.449 40.51V44.25" stroke="#DADADA" stroke-width="3" stroke-linecap="round" stroke-linejoin="round"/>
<path d="M749.99 40.51V44.25" stroke="#DADADA" stroke-width="3" stroke-linecap="round" stroke-linejoin="round"/>
<path d="M762.539 40.51V44.25" stroke="#DADADA" stroke-width="3" stroke-linecap="round" stroke-linejoin="round"/>
<path d="M956.309 53.3L1018.61 53.3V7.86005L956.309 7.86005V53.3Z" stroke="#DADADA" stroke-width="3" stroke-linecap="round" stroke-linejoin="round"/>
<path d="M956.301 53.3H972.461V7.86005H956.301V53.3Z" stroke="#DADADA" stroke-width="3" stroke-linecap="round" stroke-linejoin="round"/>
<path d="M1000.49 7.86011L1009.89 7.86011V2.00011L1000.49 2.00011V7.86011Z" stroke="#DADADA" stroke-width="3" stroke-linecap="round" stroke-linejoin="round"/>
<path d="M978.049 7.86011L987.449 7.86011V2.00011L978.049 2.00011V7.86011Z" stroke="#DADADA" stroke-width="3" stroke-linecap="round" stroke-linejoin="round"/>
<path d="M1008.89 16.9299V20.6599" stroke="#DADADA" stroke-width="3" stroke-linecap="round" stroke-linejoin="round"/>
<path d="M996.34 16.9299V20.6599" stroke="#DADADA" stroke-width="3" stroke-linecap="round" stroke-linejoin="round"/>
<path d="M983.801 16.9299V20.6599" stroke="#DADADA" stroke-width="3" stroke-linecap="round" stroke-linejoin="round"/>
<path d="M1008.89 28.72V32.45" stroke="#DADADA" stroke-width="3" stroke-linecap="round" stroke-linejoin="round"/>
<path d="M996.34 28.72V32.45" stroke="#DADADA" stroke-width="3" stroke-linecap="round" stroke-linejoin="round"/>
<path d="M983.801 28.72V32.45" stroke="#DADADA" stroke-width="3" stroke-linecap="round" stroke-linejoin="round"/>
<path d="M1008.89 40.51V44.25" stroke="#DADADA" stroke-width="3" stroke-linecap="round" stroke-linejoin="round"/>
<path d="M996.34 40.51V44.25" stroke="#DADADA" stroke-width="3" stroke-linecap="round" stroke-linejoin="round"/>
<path d="M983.801 40.51V44.25" stroke="#DADADA" stroke-width="3" stroke-linecap="round" stroke-linejoin="round"/>
<path d="M817.66 16.9299V20.6599" stroke="#DADADA" stroke-width="3" stroke-linecap="round" stroke-linejoin="round"/>
<path d="M830.211 16.9299V20.6599" stroke="#DADADA" stroke-width="3" stroke-linecap="round" stroke-linejoin="round"/>
<path d="M842.75 16.9299V20.6599" stroke="#DADADA" stroke-width="3" stroke-linecap="round" stroke-linejoin="round"/>
<path d="M817.66 28.72V32.45" stroke="#DADADA" stroke-width="3" stroke-linecap="round" stroke-linejoin="round"/>
<path d="M830.211 28.72V32.45" stroke="#DADADA" stroke-width="3" stroke-linecap="round" stroke-linejoin="round"/>
<path d="M842.75 28.72V32.45" stroke="#DADADA" stroke-width="3" stroke-linecap="round" stroke-linejoin="round"/>
<path d="M817.66 40.51V44.25" stroke="#DADADA" stroke-width="3" stroke-linecap="round" stroke-linejoin="round"/>
<path d="M830.211 40.51V44.25" stroke="#DADADA" stroke-width="3" stroke-linecap="round" stroke-linejoin="round"/>
<path d="M842.75 40.51V44.25" stroke="#DADADA" stroke-width="3" stroke-linecap="round" stroke-linejoin="round"/>
<path d="M855.49 16.9299V20.6599" stroke="#DADADA" stroke-width="3" stroke-linecap="round" stroke-linejoin="round"/>
<path d="M868.029 16.9299V20.6599" stroke="#DADADA" stroke-width="3" stroke-linecap="round" stroke-linejoin="round"/>
<path d="M880.57 16.9299V20.6599" stroke="#DADADA" stroke-width="3" stroke-linecap="round" stroke-linejoin="round"/>
<path d="M855.49 28.72V32.45" stroke="#DADADA" stroke-width="3" stroke-linecap="round" stroke-linejoin="round"/>
<path d="M868.029 28.72V32.45" stroke="#DADADA" stroke-width="3" stroke-linecap="round" stroke-linejoin="round"/>
<path d="M880.57 28.72V32.45" stroke="#DADADA" stroke-width="3" stroke-linecap="round" stroke-linejoin="round"/>
<path d="M855.49 40.51V44.25" stroke="#DADADA" stroke-width="3" stroke-linecap="round" stroke-linejoin="round"/>
<path d="M868.029 40.51V44.25" stroke="#DADADA" stroke-width="3" stroke-linecap="round" stroke-linejoin="round"/>
<path d="M880.57 40.51V44.25" stroke="#DADADA" stroke-width="3" stroke-linecap="round" stroke-linejoin="round"/>
<path d="M892.471 16.9299V20.6599" stroke="#DADADA" stroke-width="3" stroke-linecap="round" stroke-linejoin="round"/>
<path d="M892.471 28.72V32.45" stroke="#DADADA" stroke-width="3" stroke-linecap="round" stroke-linejoin="round"/>
<path d="M892.471 40.51V44.25" stroke="#DADADA" stroke-width="3" stroke-linecap="round" stroke-linejoin="round"/>
<path d="M902.539 7.86011H807.949V53.3001H902.539V7.86011Z" stroke="#DADADA" stroke-width="3" stroke-linecap="round" stroke-linejoin="round"/>
<path d="M918.699 7.86011H902.539V53.3001H918.699V7.86011Z" stroke="#DADADA" stroke-width="3" stroke-linecap="round" stroke-linejoin="round"/>
<path d="M826.08 2H816.68V7.86H826.08V2Z" stroke="#DADADA" stroke-width="3" stroke-linecap="round" stroke-linejoin="round"/>
<path d="M848.5 2H839.1V7.86H848.5V2Z" stroke="#DADADA" stroke-width="3" stroke-linecap="round" stroke-linejoin="round"/>
<path d="M871.14 2H861.74V7.86H871.14V2Z" stroke="#DADADA" stroke-width="3" stroke-linecap="round" stroke-linejoin="round"/>
<path d="M893.769 2H884.369V7.86H893.769V2Z" stroke="#DADADA" stroke-width="3" stroke-linecap="round" stroke-linejoin="round"/>
<path d="M932.19 43.9899C936.569 43.9899 940.12 40.4395 940.12 36.0599C940.12 31.6803 936.569 28.1299 932.19 28.1299C927.81 28.1299 924.26 31.6803 924.26 36.0599C924.26 40.4395 927.81 43.9899 932.19 43.9899Z" stroke="#DADADA" stroke-width="3" stroke-linecap="round" stroke-linejoin="round"/>
<path d="M932.189 52.9V43.99" stroke="#DADADA" stroke-width="3" stroke-linecap="round" stroke-linejoin="round"/>
<path d="M1049.41 43.9899C1053.79 43.9899 1057.34 40.4395 1057.34 36.0599C1057.34 31.6803 1053.79 28.1299 1049.41 28.1299C1045.03 28.1299 1041.48 31.6803 1041.48 36.0599C1041.48 40.4395 1045.03 43.9899 1049.41 43.9899Z" stroke="#DADADA" stroke-width="3" stroke-linecap="round" stroke-linejoin="round"/>
<path d="M1049.41 52.9V43.99" stroke="#DADADA" stroke-width="3" stroke-linecap="round" stroke-linejoin="round"/>
<path d="M699.459 43.9899C703.839 43.9899 707.389 40.4395 707.389 36.0599C707.389 31.6803 703.839 28.1299 699.459 28.1299C695.08 28.1299 691.529 31.6803 691.529 36.0599C691.529 40.4395 695.08 43.9899 699.459 43.9899Z" stroke="#DADADA" stroke-width="3" stroke-linecap="round" stroke-linejoin="round"/>
<path d="M699.461 52.9V43.99" stroke="#DADADA" stroke-width="3" stroke-linecap="round" stroke-linejoin="round"/>
<path d="M705.369 30.76C706.441 29.5619 707.852 28.7175 709.415 28.3386C710.977 27.9597 712.618 28.0641 714.12 28.6381C715.622 29.212 716.914 30.2284 717.826 31.5528C718.738 32.8772 719.226 34.4471 719.226 36.055C719.226 37.6629 718.738 39.2328 717.826 40.5572C716.914 41.8816 715.622 42.898 714.12 43.4719C712.618 44.0459 710.977 44.1503 709.415 43.7714C707.852 43.3925 706.441 42.5481 705.369 41.35" stroke="#DADADA" stroke-width="3" stroke-linecap="round" stroke-linejoin="round"/>
<path d="M711.27 52.9V43.99" stroke="#DADADA" stroke-width="3" stroke-linecap="round" stroke-linejoin="round"/>
<path d="M1018.56 28.1201C1020.62 28.1931 1022.56 29.0611 1023.99 30.5412C1025.42 32.0213 1026.22 33.9981 1026.22 36.0551C1026.22 38.1122 1025.42 40.0889 1023.99 41.569C1022.56 43.0492 1020.62 43.9171 1018.56 43.9901" stroke="#DADADA" stroke-width="3" stroke-linecap="round" stroke-linejoin="round"/>
</svg>
