<svg width="302" height="29" viewBox="0 0 302 29" fill="none" xmlns="http://www.w3.org/2000/svg">
<path d="M301 28.1904H1" stroke="#BABABA" stroke-width="1.5" stroke-linecap="round" stroke-linejoin="round"/>
<path d="M101.04 19.3499L103.31 16.6999C103.668 16.2849 104.112 15.9521 104.611 15.7243C105.11 15.4965 105.652 15.379 106.2 15.3799H111.79C112.65 15.3795 113.484 15.6683 114.16 16.1999L118.16 19.3499" stroke="#BABABA" stroke-width="1.48" stroke-linecap="round" stroke-linejoin="round"/>
<path d="M105.54 24.46H116.17" stroke="#BABABA" stroke-width="1.48" stroke-linecap="round" stroke-linejoin="round"/>
<path d="M101.04 19.3501H99.8598C99.4345 19.3527 99.0276 19.5235 98.7278 19.8252C98.428 20.1268 98.2598 20.5348 98.2598 20.9601V23.2601C98.2598 23.5677 98.382 23.8628 98.5995 24.0803C98.8171 24.2979 99.1121 24.4201 99.4198 24.4201H101.05" stroke="#BABABA" stroke-width="1.48" stroke-linecap="round" stroke-linejoin="round"/>
<path d="M120.67 24.4601H121.5C121.694 24.4601 121.886 24.4218 122.065 24.3473C122.244 24.2728 122.406 24.1636 122.543 24.026C122.679 23.8885 122.787 23.7252 122.861 23.5457C122.934 23.3662 122.971 23.174 122.97 22.9801V20.8201C122.97 20.4302 122.815 20.0563 122.539 19.7807C122.263 19.505 121.89 19.3501 121.5 19.3501H118.14" stroke="#BABABA" stroke-width="1.48" stroke-linecap="round" stroke-linejoin="round"/>
<path d="M118.42 22.1799C118.864 22.1831 119.299 22.3151 119.67 22.5599C120.038 22.8052 120.326 23.1528 120.5 23.5599C120.624 23.867 120.679 24.1977 120.661 24.5284C120.643 24.8592 120.553 25.1819 120.396 25.4739C120.24 25.7658 120.021 26.0198 119.755 26.2179C119.49 26.4159 119.184 26.5532 118.86 26.6199C118.423 26.7026 117.971 26.6574 117.56 26.4899C117.153 26.3166 116.805 26.0281 116.56 25.6599C116.312 25.2939 116.179 24.862 116.18 24.4199C116.18 23.8232 116.417 23.2509 116.839 22.8289C117.261 22.407 117.833 22.1699 118.43 22.1699L118.42 22.1799Z" stroke="#BABABA" stroke-width="1.48" stroke-linecap="round" stroke-linejoin="round"/>
<path d="M103.26 22.1802C103.704 22.1834 104.138 22.3153 104.51 22.5602C104.878 22.8055 105.166 23.1531 105.34 23.5602C105.464 23.8673 105.519 24.1979 105.501 24.5287C105.483 24.8594 105.392 25.1822 105.236 25.4741C105.079 25.7661 104.861 26.0201 104.595 26.2181C104.33 26.4162 104.024 26.5534 103.7 26.6202C103.263 26.7023 102.811 26.6571 102.4 26.4902C101.992 26.3169 101.645 26.0284 101.4 25.6602C101.152 25.2941 101.019 24.8622 101.02 24.4202C101.022 23.8269 101.259 23.2587 101.679 22.8392C102.098 22.4197 102.666 22.1828 103.26 22.1802V22.1802Z" stroke="#BABABA" stroke-width="1.48" stroke-linecap="round" stroke-linejoin="round"/>
<path d="M153.03 19.3499L155.26 16.6999C155.619 16.2849 156.062 15.9521 156.561 15.7243C157.06 15.4965 157.602 15.379 158.15 15.3799H163.74C164.6 15.3811 165.434 15.6697 166.11 16.1999L170.11 19.3499" stroke="#BABABA" stroke-width="1.48" stroke-linecap="round" stroke-linejoin="round"/>
<path d="M157.53 24.46H168.16" stroke="#BABABA" stroke-width="1.48" stroke-linecap="round" stroke-linejoin="round"/>
<path d="M153.03 19.3501H151.85C151.426 19.3554 151.022 19.5273 150.724 19.8287C150.427 20.13 150.26 20.5365 150.26 20.9601V23.2601C150.26 23.5677 150.382 23.8628 150.6 24.0803C150.817 24.2979 151.112 24.4201 151.42 24.4201H153.05" stroke="#BABABA" stroke-width="1.48" stroke-linecap="round" stroke-linejoin="round"/>
<path d="M172.66 24.4601H173.48C173.872 24.4601 174.249 24.3042 174.526 24.0266C174.804 23.7491 174.96 23.3727 174.96 22.9801V20.8201C174.96 20.6262 174.922 20.4343 174.847 20.2553C174.773 20.0763 174.663 19.9138 174.526 19.7771C174.388 19.6405 174.225 19.5324 174.046 19.4591C173.866 19.3859 173.674 19.3488 173.48 19.3501H170.13" stroke="#BABABA" stroke-width="1.48" stroke-linecap="round" stroke-linejoin="round"/>
<path d="M170.41 22.1802C170.854 22.1845 171.288 22.3164 171.66 22.5602C172.036 22.801 172.332 23.1483 172.51 23.5579C172.688 23.9675 172.74 24.4208 172.66 24.8602C172.57 25.2957 172.354 25.6953 172.04 26.0098C171.725 26.3243 171.325 26.5399 170.89 26.6302C170.453 26.7128 170.002 26.6677 169.59 26.5002C169.183 26.3269 168.835 26.0384 168.59 25.6702C168.342 25.3041 168.21 24.8722 168.21 24.4302C168.21 23.8334 168.447 23.2611 168.869 22.8392C169.291 22.4172 169.863 22.1802 170.46 22.1802H170.41Z" stroke="#BABABA" stroke-width="1.48" stroke-linecap="round" stroke-linejoin="round"/>
<path d="M155.26 22.1802C155.704 22.1845 156.138 22.3164 156.51 22.5602C156.878 22.8055 157.166 23.1531 157.34 23.5602C157.464 23.8673 157.519 24.1979 157.501 24.5287C157.483 24.8594 157.392 25.1822 157.236 25.4741C157.079 25.7661 156.861 26.0201 156.595 26.2181C156.33 26.4162 156.024 26.5534 155.7 26.6202C155.263 26.7028 154.811 26.6577 154.4 26.4902C153.992 26.3169 153.645 26.0284 153.4 25.6602C153.152 25.2941 153.019 24.8622 153.02 24.4202C153.022 23.8269 153.259 23.2587 153.679 22.8392C154.098 22.4197 154.666 22.1828 155.26 22.1802Z" stroke="#BABABA" stroke-width="1.48" stroke-linecap="round" stroke-linejoin="round"/>
<path d="M202.89 19.3499L200.63 16.6999C200.271 16.2854 199.828 15.9529 199.329 15.7252C198.83 15.4974 198.288 15.3796 197.74 15.3799H192.14C191.284 15.3794 190.452 15.6684 189.78 16.1999L185.78 19.3499" stroke="#BABABA" stroke-width="1.48" stroke-linecap="round" stroke-linejoin="round"/>
<path d="M198.39 24.46H187.76" stroke="#BABABA" stroke-width="1.48" stroke-linecap="round" stroke-linejoin="round"/>
<path d="M202.89 19.3501H204.07C204.497 19.3501 204.906 19.5197 205.208 19.8217C205.51 20.1236 205.68 20.5331 205.68 20.9601V23.2601C205.681 23.412 205.652 23.5626 205.595 23.7033C205.538 23.8439 205.453 23.9719 205.346 24.0797C205.239 24.1876 205.112 24.2732 204.972 24.3316C204.832 24.39 204.682 24.4201 204.53 24.4201H202.89" stroke="#BABABA" stroke-width="1.48" stroke-linecap="round" stroke-linejoin="round"/>
<path d="M183.26 24.4601H182.44C182.246 24.4601 182.054 24.4218 181.875 24.3473C181.696 24.2728 181.533 24.1636 181.397 24.026C181.26 23.8885 181.152 23.7252 181.079 23.5457C181.005 23.3662 180.968 23.174 180.97 22.9801V20.8201C180.97 20.4302 181.125 20.0563 181.4 19.7807C181.676 19.505 182.05 19.3501 182.44 19.3501H185.8" stroke="#BABABA" stroke-width="1.48" stroke-linecap="round" stroke-linejoin="round"/>
<path d="M185.52 22.1802C185.073 22.1794 184.637 22.311 184.265 22.5584C183.893 22.8058 183.602 23.1579 183.43 23.5702C183.265 23.9804 183.224 24.4299 183.311 24.8633C183.398 25.2968 183.61 25.6954 183.92 26.0102C184.237 26.3268 184.641 26.5425 185.08 26.6302C185.517 26.7123 185.968 26.6672 186.38 26.5002C186.79 26.3313 187.14 26.0442 187.386 25.6755C187.631 25.3068 187.762 24.8733 187.76 24.4302C187.762 24.1354 187.705 23.8432 187.594 23.5704C187.482 23.2976 187.318 23.0494 187.11 22.8402C186.687 22.4209 186.116 22.1839 185.52 22.1802V22.1802Z" stroke="#BABABA" stroke-width="1.48" stroke-linecap="round" stroke-linejoin="round"/>
<path d="M200.65 22.1802C200.203 22.1794 199.766 22.311 199.394 22.5584C199.022 22.8058 198.732 23.1579 198.56 23.5702C198.395 23.9804 198.354 24.4299 198.441 24.8633C198.528 25.2968 198.74 25.6954 199.05 26.0102C199.365 26.3246 199.764 26.5401 200.2 26.6302C200.64 26.7125 201.095 26.6674 201.51 26.5002C201.92 26.3313 202.27 26.0442 202.516 25.6755C202.761 25.3068 202.892 24.8733 202.89 24.4302C202.892 24.1354 202.835 23.8432 202.724 23.5704C202.612 23.2976 202.448 23.0494 202.24 22.8402C201.817 22.4209 201.246 22.1839 200.65 22.1802V22.1802Z" stroke="#BABABA" stroke-width="1.48" stroke-linecap="round" stroke-linejoin="round"/>
<path d="M142.45 1H132.11C131.414 1 130.85 1.56412 130.85 2.26V12.6C130.85 13.2959 131.414 13.86 132.11 13.86H142.45C143.145 13.86 143.71 13.2959 143.71 12.6V2.26C143.71 1.56412 143.145 1 142.45 1Z" stroke="#BABABA" stroke-width="1.48" stroke-linecap="round" stroke-linejoin="round"/>
<path d="M135.71 4.25977H137.71C138.158 4.25977 138.588 4.43782 138.905 4.75476C139.222 5.07169 139.4 5.50155 139.4 5.94977V6.48977C139.411 6.72089 139.374 6.9518 139.292 7.16821C139.21 7.38461 139.085 7.5819 138.924 7.74784C138.762 7.91377 138.569 8.04483 138.355 8.13289C138.141 8.22095 137.911 8.26413 137.68 8.25977H135.68V4.25977H135.71Z" stroke="#BABABA" stroke-width="1.48" stroke-linecap="round" stroke-linejoin="round"/>
<path d="M135.71 10.5499V7.93994" stroke="#BABABA" stroke-width="1.48" stroke-linecap="round" stroke-linejoin="round"/>
<path d="M137.54 13.8599V28.1899" stroke="#BABABA" stroke-width="1.48" stroke-linecap="round" stroke-linejoin="round"/>
</svg>
