<svg width="732" height="88" viewBox="0 0 732 88" fill="none" xmlns="http://www.w3.org/2000/svg">
<path d="M731 86.54H1" stroke="#BABABA" stroke-width="1.5" stroke-linecap="round" stroke-linejoin="round"/>
<path d="M262.18 61.7197C262.298 59.3128 263.178 57.0057 264.69 55.1301C266.203 53.2544 268.272 51.907 270.599 51.2815C272.927 50.656 275.392 50.7847 277.642 51.6491C279.891 52.5135 281.808 54.0691 283.118 56.0921C284.427 58.115 285.061 60.5012 284.929 62.9073C284.796 65.3134 283.904 67.6155 282.38 69.4825C280.857 71.3495 278.78 72.6851 276.45 73.2974C274.119 73.9096 271.654 73.7669 269.41 72.8897" stroke="#BABABA" stroke-width="1.5" stroke-linecap="round" stroke-linejoin="round"/>
<path d="M273.57 86.54V73.71" stroke="#BABABA" stroke-width="1.5" stroke-linecap="round" stroke-linejoin="round"/>
<path d="M262.17 77.6198C263.739 77.6198 265.272 77.1547 266.576 76.2833C267.88 75.412 268.896 74.1735 269.497 72.7244C270.097 71.2754 270.254 69.681 269.948 68.1427C269.642 66.6044 268.887 65.1914 267.778 64.0824C266.669 62.9734 265.256 62.2181 263.717 61.9121C262.179 61.6062 260.585 61.7632 259.136 62.3634C257.687 62.9636 256.448 63.98 255.577 65.2841C254.705 66.5882 254.24 68.1214 254.24 69.6898C254.24 71.7929 255.076 73.81 256.563 75.2971C258.05 76.7843 260.067 77.6198 262.17 77.6198Z" stroke="#BABABA" stroke-width="1.5" stroke-linecap="round" stroke-linejoin="round"/>
<path d="M262.17 86.5401V77.6201" stroke="#BABABA" stroke-width="1.5" stroke-linecap="round" stroke-linejoin="round"/>
<path d="M459.24 73.7097C461.495 73.7097 463.699 73.0411 465.573 71.7884C467.448 70.5358 468.909 68.7553 469.772 66.6723C470.635 64.5892 470.861 62.297 470.421 60.0856C469.981 57.8743 468.895 55.843 467.301 54.2487C465.707 52.6543 463.675 51.5686 461.464 51.1287C459.252 50.6888 456.96 50.9146 454.877 51.7774C452.794 52.6403 451.014 54.1015 449.761 55.9762C448.508 57.8509 447.84 60.055 447.84 62.3097C447.84 65.3331 449.041 68.2328 451.179 70.3707C453.317 72.5086 456.216 73.7097 459.24 73.7097V73.7097Z" stroke="#BABABA" stroke-width="1.5" stroke-linecap="round" stroke-linejoin="round"/>
<path d="M459.24 86.54V73.71" stroke="#BABABA" stroke-width="1.5" stroke-linecap="round" stroke-linejoin="round"/>
<path d="M494.65 77.6198C496.218 77.6198 497.751 77.1547 499.055 76.2833C500.359 75.412 501.376 74.1735 501.976 72.7244C502.576 71.2754 502.733 69.681 502.427 68.1427C502.121 66.6044 501.366 65.1914 500.257 64.0824C499.148 62.9734 497.735 62.2181 496.197 61.9121C494.659 61.6062 493.064 61.7632 491.615 62.3634C490.166 62.9636 488.928 63.98 488.056 65.2841C487.185 66.5882 486.72 68.1214 486.72 69.6898C486.72 71.7929 487.555 73.81 489.042 75.2971C490.53 76.7843 492.547 77.6198 494.65 77.6198Z" stroke="#BABABA" stroke-width="1.5" stroke-linecap="round" stroke-linejoin="round"/>
<path d="M494.65 86.5401V77.6201" stroke="#BABABA" stroke-width="1.5" stroke-linecap="round" stroke-linejoin="round"/>
<path d="M171.1 77.6198C172.668 77.6198 174.202 77.1547 175.506 76.2833C176.81 75.412 177.826 74.1735 178.426 72.7244C179.026 71.2754 179.184 69.681 178.878 68.1427C178.572 66.6044 177.816 65.1914 176.707 64.0824C175.598 62.9734 174.185 62.2181 172.647 61.9121C171.109 61.6062 169.514 61.7632 168.065 62.3634C166.616 62.9636 165.378 63.98 164.506 65.2841C163.635 66.5882 163.17 68.1214 163.17 69.6898C163.17 71.7929 164.005 73.81 165.493 75.2971C166.98 76.7843 168.997 77.6198 171.1 77.6198Z" stroke="#BABABA" stroke-width="1.5" stroke-linecap="round" stroke-linejoin="round"/>
<path d="M171.1 86.5401V77.6201" stroke="#BABABA" stroke-width="1.5" stroke-linecap="round" stroke-linejoin="round"/>
<path d="M459.24 84.0697C459.24 81.2397 456.18 78.9497 452.41 78.9497C451.588 78.9477 450.77 79.0621 449.98 79.2897C449.251 77.6409 448.05 76.2451 446.528 75.2787C445.006 74.3122 443.232 73.8184 441.43 73.8597C439.348 73.7885 437.306 74.4501 435.662 75.7293C434.017 77.0084 432.873 78.824 432.43 80.8597C431.865 80.5728 431.243 80.4189 430.61 80.4097C429.533 80.4101 428.501 80.8382 427.74 81.5997C427.36 81.9745 427.059 82.4215 426.855 82.9144C426.65 83.4073 426.547 83.9361 426.55 84.4697V86.5297H459.24V84.4497C459.25 84.3232 459.25 84.1962 459.24 84.0697V84.0697Z" stroke="#BABABA" stroke-width="1.5" stroke-linecap="round" stroke-linejoin="round"/>
<path d="M214.74 84.0699C214.74 81.2399 217.8 78.9499 221.57 78.9499C222.392 78.9479 223.21 79.0623 224 79.2899C224.725 77.6448 225.922 76.2524 227.44 75.2899C228.964 74.3266 230.738 73.8327 232.54 73.8699C234.622 73.8026 236.661 74.4657 238.305 75.7442C239.948 77.0227 241.093 78.836 241.54 80.8699C242.156 80.542 242.846 80.3807 243.543 80.402C244.24 80.4233 244.92 80.6265 245.514 80.9913C246.108 81.3562 246.597 81.8701 246.931 82.482C247.266 83.0939 247.434 83.7827 247.42 84.4799V86.5399H214.74V84.4499C214.765 84.3244 214.765 84.1954 214.74 84.0699V84.0699Z" stroke="#BABABA" stroke-width="1.5" stroke-linecap="round" stroke-linejoin="round"/>
<path d="M506.18 84.0697C506.18 81.2397 509.24 78.9497 513.01 78.9497C513.832 78.9477 514.65 79.0621 515.44 79.2897C516.169 77.6393 517.372 76.2424 518.896 75.2758C520.419 74.3093 522.196 73.8164 524 73.8597C526.082 73.7885 528.123 74.4501 529.768 75.7293C531.412 77.0084 532.556 78.824 533 80.8597C533.564 80.5715 534.186 80.4175 534.82 80.4097C535.896 80.4097 536.929 80.8374 537.691 81.5988C538.452 82.3602 538.88 83.3929 538.88 84.4697V86.5297H506.18V84.4497C506.204 84.3242 506.204 84.1952 506.18 84.0697V84.0697Z" stroke="#BABABA" stroke-width="1.5" stroke-linecap="round" stroke-linejoin="round"/>
<path d="M437.44 20.8899C437.44 19.5108 437.988 18.1882 438.963 17.213C439.939 16.2378 441.261 15.6899 442.64 15.6899C444.02 15.6899 445.342 16.2378 446.317 17.213C447.293 18.1882 447.84 19.5108 447.84 20.8899" stroke="#BABABA" stroke-width="1.5" stroke-linecap="round" stroke-linejoin="round"/>
<path d="M427.06 20.8898C427.029 20.1879 427.141 19.487 427.39 18.8298C427.634 18.1722 428.011 17.5714 428.496 17.0642C428.981 16.557 429.564 16.154 430.21 15.8798C430.856 15.6028 431.552 15.46 432.255 15.46C432.958 15.46 433.653 15.6028 434.3 15.8798C434.938 16.1574 435.516 16.5584 436 17.0598C436.482 17.5712 436.86 18.1726 437.11 18.8298C437.358 19.487 437.471 20.1879 437.44 20.8898" stroke="#BABABA" stroke-width="1.5" stroke-linecap="round" stroke-linejoin="round"/>
<path d="M411.74 6.42998C411.74 5.05085 412.288 3.72821 413.263 2.75302C414.238 1.77784 415.561 1.22998 416.94 1.22998C418.319 1.22998 419.642 1.77784 420.617 2.75302C421.592 3.72821 422.14 5.05085 422.14 6.42998" stroke="#BABABA" stroke-width="1.5" stroke-linecap="round" stroke-linejoin="round"/>
<path d="M401.35 6.42988C401.319 5.72794 401.431 5.02706 401.68 4.36988C401.924 3.71225 402.301 3.11146 402.786 2.60424C403.271 2.09701 403.854 1.69401 404.5 1.41988C405.146 1.14285 405.842 1 406.545 1C407.248 1 407.944 1.14285 408.59 1.41988C409.232 1.69631 409.813 2.09738 410.3 2.59988C410.782 3.1112 411.16 3.71266 411.41 4.36988C411.658 5.02706 411.771 5.72794 411.74 6.42988" stroke="#BABABA" stroke-width="1.5" stroke-linecap="round" stroke-linejoin="round"/>
<path d="M382.55 47.6197L359.67 24.7197L336.79 47.6197H302.34V86.5297H417V47.6197H382.55Z" stroke="#BABABA" stroke-width="1.5" stroke-linecap="round" stroke-linejoin="round"/>
<path d="M367.68 32.7397H402.82L417 47.6197" stroke="#BABABA" stroke-width="1.5" stroke-linecap="round" stroke-linejoin="round"/>
<path d="M351.35 32.7397H316.51L302.34 47.6197" stroke="#BABABA" stroke-width="1.5" stroke-linecap="round" stroke-linejoin="round"/>
<path d="M359.67 24.7199V10.9399" stroke="#BABABA" stroke-width="1.5" stroke-linecap="round" stroke-linejoin="round"/>
<path d="M376.03 10.9399H359.67V19.4499H376.03V10.9399Z" stroke="#BABABA" stroke-width="1.5" stroke-linecap="round" stroke-linejoin="round"/>
<path d="M359.67 47.6201C363.133 47.6201 365.94 44.8129 365.94 41.3501C365.94 37.8872 363.133 35.0801 359.67 35.0801C356.208 35.0801 353.4 37.8872 353.4 41.3501C353.4 44.8129 356.208 47.6201 359.67 47.6201Z" stroke="#BABABA" stroke-width="1.5" stroke-linecap="round" stroke-linejoin="round"/>
<path d="M358.82 69.3896H360.45C362.02 69.3896 363.526 70.0134 364.636 71.1236C365.747 72.2338 366.37 73.7396 366.37 75.3096V86.5296H352.9V75.3096C352.9 73.7396 353.524 72.2338 354.634 71.1236C355.745 70.0134 357.25 69.3896 358.82 69.3896V69.3896Z" stroke="#BABABA" stroke-width="1.5" stroke-linecap="round" stroke-linejoin="round"/>
<path d="M359.64 86.5396V69.3896" stroke="#BABABA" stroke-width="1.5" stroke-linecap="round" stroke-linejoin="round"/>
<path d="M315.63 70.5601H308.85V80.8601H315.63V70.5601Z" stroke="#BABABA" stroke-width="1.5" stroke-linecap="round" stroke-linejoin="round"/>
<path d="M329.1 70.5601H322.32V80.8601H329.1V70.5601Z" stroke="#BABABA" stroke-width="1.5" stroke-linecap="round" stroke-linejoin="round"/>
<path d="M342.57 70.5601H335.79V80.8601H342.57V70.5601Z" stroke="#BABABA" stroke-width="1.5" stroke-linecap="round" stroke-linejoin="round"/>
<path d="M315.63 54.5098H308.85V64.8098H315.63V54.5098Z" stroke="#BABABA" stroke-width="1.5" stroke-linecap="round" stroke-linejoin="round"/>
<path d="M329.1 54.5098H322.32V64.8098H329.1V54.5098Z" stroke="#BABABA" stroke-width="1.5" stroke-linecap="round" stroke-linejoin="round"/>
<path d="M342.57 54.5098H335.79V64.8098H342.57V54.5098Z" stroke="#BABABA" stroke-width="1.5" stroke-linecap="round" stroke-linejoin="round"/>
<path d="M382.98 70.5601H376.2V80.8601H382.98V70.5601Z" stroke="#BABABA" stroke-width="1.5" stroke-linecap="round" stroke-linejoin="round"/>
<path d="M396.45 70.5601H389.67V80.8601H396.45V70.5601Z" stroke="#BABABA" stroke-width="1.5" stroke-linecap="round" stroke-linejoin="round"/>
<path d="M409.92 70.5601H403.14V80.8601H409.92V70.5601Z" stroke="#BABABA" stroke-width="1.5" stroke-linecap="round" stroke-linejoin="round"/>
<path d="M382.98 54.5098H376.2V64.8098H382.98V54.5098Z" stroke="#BABABA" stroke-width="1.5" stroke-linecap="round" stroke-linejoin="round"/>
<path d="M396.45 54.5098H389.67V64.8098H396.45V54.5098Z" stroke="#BABABA" stroke-width="1.5" stroke-linecap="round" stroke-linejoin="round"/>
<path d="M356.04 54.5098H349.26V64.8098H356.04V54.5098Z" stroke="#BABABA" stroke-width="1.5" stroke-linecap="round" stroke-linejoin="round"/>
<path d="M369.51 54.5098H362.73V64.8098H369.51V54.5098Z" stroke="#BABABA" stroke-width="1.5" stroke-linecap="round" stroke-linejoin="round"/>
<path d="M409.92 54.5098H403.14V64.8098H409.92V54.5098Z" stroke="#BABABA" stroke-width="1.5" stroke-linecap="round" stroke-linejoin="round"/>
<path d="M358.53 39.1899V42.4799L361.59 41.6999" stroke="#BABABA" stroke-width="1.5" stroke-linecap="round" stroke-linejoin="round"/>
</svg>
