<svg width="734" height="64" viewBox="0 0 734 64" fill="none" xmlns="http://www.w3.org/2000/svg">
<path d="M732.001 57.06H477.211" stroke="#DADADA" stroke-width="3" stroke-linecap="round" stroke-linejoin="round"/>
<path d="M226.53 57.1L2 57.06" stroke="#DADADA" stroke-width="3" stroke-linecap="round" stroke-linejoin="round"/>
<path d="M407.57 57.16C407.57 59.75 404.46 61.86 400.57 61.86C396.68 61.86 393.57 59.75 393.57 57.16" stroke="#DADADA" stroke-width="3" stroke-linecap="round" stroke-linejoin="round"/>
<path d="M421.5 57.16C421.5 59.75 418.38 61.86 414.5 61.86C410.62 61.86 407.5 59.75 407.5 57.16" stroke="#DADADA" stroke-width="3" stroke-linecap="round" stroke-linejoin="round"/>
<path d="M435.43 57.16C435.43 59.75 432.31 61.86 428.43 61.86C424.55 61.86 421.43 59.75 421.43 57.16" stroke="#DADADA" stroke-width="3" stroke-linecap="round" stroke-linejoin="round"/>
<path d="M449.35 57.16C449.35 59.75 446.24 61.86 442.35 61.86C438.46 61.86 435.35 59.75 435.35 57.16" stroke="#DADADA" stroke-width="3" stroke-linecap="round" stroke-linejoin="round"/>
<path d="M463.279 57.16C463.279 59.75 460.159 61.86 456.279 61.86C452.399 61.86 449.279 59.75 449.279 57.16" stroke="#DADADA" stroke-width="3" stroke-linecap="round" stroke-linejoin="round"/>
<path d="M477.211 57.16C477.211 59.75 474.091 61.86 470.211 61.86C466.331 61.86 463.211 59.75 463.211 57.16" stroke="#DADADA" stroke-width="3" stroke-linecap="round" stroke-linejoin="round"/>
<path d="M324.01 57.16C324.01 59.75 320.9 61.86 317.01 61.86C313.12 61.86 310.01 59.75 310.01 57.16" stroke="#DADADA" stroke-width="3" stroke-linecap="round" stroke-linejoin="round"/>
<path d="M337.939 57.16C337.939 59.75 334.819 61.86 330.939 61.86C327.059 61.86 323.939 59.75 323.939 57.16" stroke="#DADADA" stroke-width="3" stroke-linecap="round" stroke-linejoin="round"/>
<path d="M351.869 57.16C351.869 59.75 348.749 61.86 344.869 61.86C340.989 61.86 337.869 59.75 337.869 57.16" stroke="#DADADA" stroke-width="3" stroke-linecap="round" stroke-linejoin="round"/>
<path d="M365.789 57.16C365.789 59.75 362.679 61.86 358.789 61.86C354.899 61.86 351.789 59.75 351.789 57.16" stroke="#DADADA" stroke-width="3" stroke-linecap="round" stroke-linejoin="round"/>
<path d="M379.721 57.16C379.721 59.75 376.601 61.86 372.721 61.86C368.841 61.86 365.721 59.75 365.721 57.16" stroke="#DADADA" stroke-width="3" stroke-linecap="round" stroke-linejoin="round"/>
<path d="M393.65 57.16C393.65 59.75 390.53 61.86 386.65 61.86C382.77 61.86 379.65 59.75 379.65 57.16" stroke="#DADADA" stroke-width="3" stroke-linecap="round" stroke-linejoin="round"/>
<path d="M240.5 57.16C240.5 59.75 237.38 61.86 233.5 61.86C229.62 61.86 226.5 59.75 226.5 57.16" stroke="#DADADA" stroke-width="3" stroke-linecap="round" stroke-linejoin="round"/>
<path d="M254.381 57.16C254.381 59.75 251.261 61.86 247.381 61.86C243.501 61.86 240.381 59.75 240.381 57.16" stroke="#DADADA" stroke-width="3" stroke-linecap="round" stroke-linejoin="round"/>
<path d="M268.311 57.16C268.311 59.75 265.191 61.86 261.311 61.86C257.431 61.86 254.311 59.75 254.311 57.16" stroke="#DADADA" stroke-width="3" stroke-linecap="round" stroke-linejoin="round"/>
<path d="M282.23 57.16C282.23 59.75 279.12 61.86 275.23 61.86C271.34 61.86 268.23 59.75 268.23 57.16" stroke="#DADADA" stroke-width="3" stroke-linecap="round" stroke-linejoin="round"/>
<path d="M296.16 57.16C296.16 59.75 293.04 61.86 289.16 61.86C285.28 61.86 282.16 59.75 282.16 57.16" stroke="#DADADA" stroke-width="3" stroke-linecap="round" stroke-linejoin="round"/>
<path d="M310.09 57.16C310.09 59.75 306.97 61.86 303.09 61.86C299.21 61.86 296.09 59.75 296.09 57.16" stroke="#DADADA" stroke-width="3" stroke-linecap="round" stroke-linejoin="round"/>
<path d="M374.33 61.74C373.073 58.945 372.425 55.9146 372.43 52.85V44.58H432.43C432.438 50.7271 430.541 56.7257 427 61.75" stroke="#DADADA" stroke-width="3" stroke-linecap="round" stroke-linejoin="round"/>
<path d="M398.74 33.85H377.84V44.58H398.74V33.85Z" stroke="#DADADA" stroke-width="3" stroke-linecap="round" stroke-linejoin="round"/>
<path d="M417.039 37.41H408.699V44.58H417.039V37.41Z" stroke="#DADADA" stroke-width="3" stroke-linecap="round" stroke-linejoin="round"/>
<path d="M425.379 37.41H417.039V44.58H425.379V37.41Z" stroke="#DADADA" stroke-width="3" stroke-linecap="round" stroke-linejoin="round"/>
<path d="M421.209 30.27H412.869V37.44H421.209V30.27Z" stroke="#DADADA" stroke-width="3" stroke-linecap="round" stroke-linejoin="round"/>
<path d="M384.311 33.85V21.3" stroke="#DADADA" stroke-width="3" stroke-linecap="round" stroke-linejoin="round"/>
<path d="M496.09 44.04H482.06L477.07 57.05H501.08L496.09 44.04Z" stroke="#DADADA" stroke-width="3" stroke-linecap="round" stroke-linejoin="round"/>
<path d="M501.09 31.24H476.98V44.04H501.09V31.24Z" stroke="#DADADA" stroke-width="3" stroke-linecap="round" stroke-linejoin="round"/>
<path d="M476.98 31.24L463.26 2" stroke="#DADADA" stroke-width="3" stroke-linecap="round" stroke-linejoin="round"/>
<path d="M501.09 31.24L463.26 2" stroke="#DADADA" stroke-width="3" stroke-linecap="round" stroke-linejoin="round"/>
<path d="M455.539 20.5L463.259 2" stroke="#DADADA" stroke-width="3" stroke-linecap="round" stroke-linejoin="round"/>
</svg>
