<svg width="1114" height="64" viewBox="0 0 1114 64" fill="none" xmlns="http://www.w3.org/2000/svg">
<path d="M1112 57.0601H954.66" stroke="#DADADA" stroke-width="3" stroke-linecap="round" stroke-linejoin="round"/>
<path d="M703.98 57.1001L2 57.0601" stroke="#DADADA" stroke-width="3" stroke-linecap="round" stroke-linejoin="round"/>
<path d="M885.029 57.16C885.029 59.75 881.909 61.86 878.029 61.86C874.149 61.86 871.029 59.75 871.029 57.16" stroke="#DADADA" stroke-width="3" stroke-linecap="round" stroke-linejoin="round"/>
<path d="M898.961 57.16C898.961 59.75 895.841 61.86 891.961 61.86C888.081 61.86 884.961 59.75 884.961 57.16" stroke="#DADADA" stroke-width="3" stroke-linecap="round" stroke-linejoin="round"/>
<path d="M912.881 57.16C912.881 59.75 909.761 61.86 905.881 61.86C902.001 61.86 898.881 59.75 898.881 57.16" stroke="#DADADA" stroke-width="3" stroke-linecap="round" stroke-linejoin="round"/>
<path d="M926.811 57.16C926.811 59.75 923.691 61.86 919.811 61.86C915.931 61.86 912.811 59.75 912.811 57.16" stroke="#DADADA" stroke-width="3" stroke-linecap="round" stroke-linejoin="round"/>
<path d="M940.74 57.16C940.74 59.75 937.62 61.86 933.74 61.86C929.86 61.86 926.74 59.75 926.74 57.16" stroke="#DADADA" stroke-width="3" stroke-linecap="round" stroke-linejoin="round"/>
<path d="M954.66 57.16C954.66 59.75 951.54 61.86 947.66 61.86C943.78 61.86 940.66 59.75 940.66 57.16" stroke="#DADADA" stroke-width="3" stroke-linecap="round" stroke-linejoin="round"/>
<path d="M801.5 57.16C801.5 59.75 798.38 61.86 794.5 61.86C790.62 61.86 787.5 59.75 787.5 57.16" stroke="#DADADA" stroke-width="3" stroke-linecap="round" stroke-linejoin="round"/>
<path d="M815.4 57.16C815.4 59.75 812.28 61.86 808.4 61.86C804.52 61.86 801.4 59.75 801.4 57.16" stroke="#DADADA" stroke-width="3" stroke-linecap="round" stroke-linejoin="round"/>
<path d="M829.32 57.16C829.32 59.75 826.21 61.86 822.32 61.86C818.43 61.86 815.32 59.75 815.32 57.16" stroke="#DADADA" stroke-width="3" stroke-linecap="round" stroke-linejoin="round"/>
<path d="M843.25 57.16C843.25 59.75 840.13 61.86 836.25 61.86C832.37 61.86 829.25 59.75 829.25 57.16" stroke="#DADADA" stroke-width="3" stroke-linecap="round" stroke-linejoin="round"/>
<path d="M857.18 57.16C857.18 59.75 854.06 61.86 850.18 61.86C846.3 61.86 843.18 59.75 843.18 57.16" stroke="#DADADA" stroke-width="3" stroke-linecap="round" stroke-linejoin="round"/>
<path d="M871.1 57.16C871.1 59.75 867.98 61.86 864.1 61.86C860.22 61.86 857.1 59.75 857.1 57.16" stroke="#DADADA" stroke-width="3" stroke-linecap="round" stroke-linejoin="round"/>
<path d="M717.91 57.16C717.91 59.75 714.79 61.86 710.91 61.86C707.03 61.86 703.91 59.75 703.91 57.16" stroke="#DADADA" stroke-width="3" stroke-linecap="round" stroke-linejoin="round"/>
<path d="M731.84 57.16C731.84 59.75 728.72 61.86 724.84 61.86C720.96 61.86 717.84 59.75 717.84 57.16" stroke="#DADADA" stroke-width="3" stroke-linecap="round" stroke-linejoin="round"/>
<path d="M745.76 57.16C745.76 59.75 742.65 61.86 738.76 61.86C734.87 61.86 731.76 59.75 731.76 57.16" stroke="#DADADA" stroke-width="3" stroke-linecap="round" stroke-linejoin="round"/>
<path d="M759.689 57.16C759.689 59.75 756.569 61.86 752.689 61.86C748.809 61.86 745.689 59.75 745.689 57.16" stroke="#DADADA" stroke-width="3" stroke-linecap="round" stroke-linejoin="round"/>
<path d="M773.619 57.16C773.619 59.75 770.499 61.86 766.619 61.86C762.739 61.86 759.619 59.75 759.619 57.16" stroke="#DADADA" stroke-width="3" stroke-linecap="round" stroke-linejoin="round"/>
<path d="M787.5 57.16C787.5 59.75 784.39 61.86 780.5 61.86C776.61 61.86 773.5 59.75 773.5 57.16" stroke="#DADADA" stroke-width="3" stroke-linecap="round" stroke-linejoin="round"/>
<path d="M851.791 61.74C850.526 58.9472 849.875 55.9157 849.881 52.85V44.58H909.881C909.889 50.727 907.992 56.7256 904.451 61.75" stroke="#DADADA" stroke-width="3" stroke-linecap="round" stroke-linejoin="round"/>
<path d="M876.189 33.8501H855.289V44.5801H876.189V33.8501Z" stroke="#DADADA" stroke-width="3" stroke-linecap="round" stroke-linejoin="round"/>
<path d="M894.49 37.41H886.15V44.58H894.49V37.41Z" stroke="#DADADA" stroke-width="3" stroke-linecap="round" stroke-linejoin="round"/>
<path d="M902.83 37.41H894.49V44.58H902.83V37.41Z" stroke="#DADADA" stroke-width="3" stroke-linecap="round" stroke-linejoin="round"/>
<path d="M898.66 30.27H890.32V37.44H898.66V30.27Z" stroke="#DADADA" stroke-width="3" stroke-linecap="round" stroke-linejoin="round"/>
<path d="M861.76 33.85V21.3" stroke="#DADADA" stroke-width="3" stroke-linecap="round" stroke-linejoin="round"/>
<path d="M973.549 44.04H959.52L954.52 57.05H978.539L973.549 44.04Z" stroke="#DADADA" stroke-width="3" stroke-linecap="round" stroke-linejoin="round"/>
<path d="M978.54 31.24H954.43V44.04H978.54V31.24Z" stroke="#DADADA" stroke-width="3" stroke-linecap="round" stroke-linejoin="round"/>
<path d="M954.431 31.24L940.721 2" stroke="#DADADA" stroke-width="3" stroke-linecap="round" stroke-linejoin="round"/>
<path d="M978.541 31.24L940.721 2" stroke="#DADADA" stroke-width="3" stroke-linecap="round" stroke-linejoin="round"/>
<path d="M932.99 20.5L940.72 2" stroke="#DADADA" stroke-width="3" stroke-linecap="round" stroke-linejoin="round"/>
</svg>
