<svg width="302" height="35" viewBox="0 0 302 35" fill="none" xmlns="http://www.w3.org/2000/svg">
<path d="M301 33.6599H1" stroke="#BABABA" stroke-width="1.5" stroke-linecap="round" stroke-linejoin="round"/>
<path d="M133.47 13.1001H119.38V33.6601H171.73V13.1001H157.78" stroke="#BABABA" stroke-width="1.5" stroke-linecap="round" stroke-linejoin="round"/>
<path d="M157.66 8.82007H133.47V33.6601H157.66V8.82007Z" stroke="#BABABA" stroke-width="1.5" stroke-linecap="round" stroke-linejoin="round"/>
<path d="M157.66 8.82007C157.66 7.22877 157.028 5.70265 155.902 4.57743C154.777 3.45221 153.251 2.82007 151.66 2.82007H139.51C137.918 2.82007 136.392 3.45221 135.267 4.57743C134.142 5.70265 133.51 7.22877 133.51 8.82007V8.82007" stroke="#BABABA" stroke-width="1.5" stroke-linecap="round" stroke-linejoin="round"/>
<path d="M133.47 12.28H157.66" stroke="#BABABA" stroke-width="1.5" stroke-linecap="round" stroke-linejoin="round"/>
<path d="M137.29 17.9299V24.8099" stroke="#BABABA" stroke-width="1.5" stroke-linecap="round" stroke-linejoin="round"/>
<path d="M142.8 17.9299V24.1199" stroke="#BABABA" stroke-width="1.5" stroke-linecap="round" stroke-linejoin="round"/>
<path d="M148.31 17.9299V24.1199" stroke="#BABABA" stroke-width="1.5" stroke-linecap="round" stroke-linejoin="round"/>
<path d="M153.83 17.9299V24.8099" stroke="#BABABA" stroke-width="1.5" stroke-linecap="round" stroke-linejoin="round"/>
<path d="M137.29 24.8101V33.6601" stroke="#BABABA" stroke-width="1.5" stroke-linecap="round" stroke-linejoin="round"/>
<path d="M142.8 26.45V33.66" stroke="#BABABA" stroke-width="1.5" stroke-linecap="round" stroke-linejoin="round"/>
<path d="M148.31 26.45V33.66" stroke="#BABABA" stroke-width="1.5" stroke-linecap="round" stroke-linejoin="round"/>
<path d="M153.83 24.8101V33.6601" stroke="#BABABA" stroke-width="1.5" stroke-linecap="round" stroke-linejoin="round"/>
<path d="M157.64 24.1201H133.47V26.4501H157.64V24.1201Z" stroke="#BABABA" stroke-width="1.5" stroke-linecap="round" stroke-linejoin="round"/>
<path d="M133.47 17.9299H157.64" stroke="#BABABA" stroke-width="1.5" stroke-linecap="round" stroke-linejoin="round"/>
<path d="M139.82 15.55C140.052 15.55 140.24 15.3619 140.24 15.13C140.24 14.898 140.052 14.71 139.82 14.71C139.588 14.71 139.4 14.898 139.4 15.13C139.4 15.3619 139.588 15.55 139.82 15.55Z" stroke="#BABABA" stroke-width="1.5" stroke-linecap="round" stroke-linejoin="round"/>
<path d="M145.33 15.55C145.562 15.55 145.75 15.3619 145.75 15.13C145.75 14.898 145.562 14.71 145.33 14.71C145.098 14.71 144.91 14.898 144.91 15.13C144.91 15.3619 145.098 15.55 145.33 15.55Z" stroke="#BABABA" stroke-width="1.5" stroke-linecap="round" stroke-linejoin="round"/>
<path d="M150.85 15.55C151.082 15.55 151.27 15.3619 151.27 15.13C151.27 14.898 151.082 14.71 150.85 14.71C150.618 14.71 150.43 14.898 150.43 15.13C150.43 15.3619 150.618 15.55 150.85 15.55Z" stroke="#BABABA" stroke-width="1.5" stroke-linecap="round" stroke-linejoin="round"/>
<path d="M117.81 13.1001H119.38" stroke="#BABABA" stroke-width="1.5" stroke-linecap="round" stroke-linejoin="round"/>
<path d="M171.73 13.1001H173.3" stroke="#BABABA" stroke-width="1.5" stroke-linecap="round" stroke-linejoin="round"/>
<path d="M133.54 9.54004H129.5L126.9 12.76" stroke="#BABABA" stroke-width="1.5" stroke-linecap="round" stroke-linejoin="round"/>
<path d="M157.6 9.54004H161.64L164.23 12.76" stroke="#BABABA" stroke-width="1.5" stroke-linecap="round" stroke-linejoin="round"/>
<path d="M145.48 5.03991C145.712 5.03726 145.942 5.08057 146.156 5.16734C146.371 5.2541 146.566 5.38258 146.731 5.54535C146.895 5.70811 147.026 5.90193 147.115 6.11556C147.205 6.3292 147.25 6.5584 147.25 6.78991V8.78991H143.73V6.78991C143.73 6.32578 143.915 5.88066 144.243 5.55247C144.571 5.22428 145.016 5.03991 145.48 5.03991Z" stroke="#BABABA" stroke-width="1.5" stroke-linecap="round" stroke-linejoin="round"/>
<path d="M138.51 6.25H138.93C139.177 6.25 139.413 6.34798 139.588 6.52239C139.762 6.6968 139.86 6.93335 139.86 7.18V8.68H137.59V7.2C137.587 7.07703 137.609 6.95477 137.654 6.84027C137.699 6.72577 137.766 6.62133 137.852 6.53297C137.937 6.44462 138.04 6.37412 138.153 6.32554C138.266 6.27697 138.387 6.25129 138.51 6.25Z" stroke="#BABABA" stroke-width="1.5" stroke-linecap="round" stroke-linejoin="round"/>
<path d="M152.06 6.25H152.48C152.602 6.25 152.723 6.27406 152.836 6.32079C152.948 6.36753 153.051 6.43603 153.137 6.52239C153.224 6.60875 153.292 6.71127 153.339 6.8241C153.386 6.93694 153.41 7.05787 153.41 7.18V8.68H151.14V7.2C151.14 6.95335 151.238 6.7168 151.412 6.54239C151.586 6.36798 151.823 6.27 152.07 6.27L152.06 6.25Z" stroke="#BABABA" stroke-width="1.5" stroke-linecap="round" stroke-linejoin="round"/>
<path d="M133.47 25.6299H119.38" stroke="#BABABA" stroke-width="1.5" stroke-linecap="round" stroke-linejoin="round"/>
<path d="M171.74 25.6299H157.65" stroke="#BABABA" stroke-width="1.5" stroke-linecap="round" stroke-linejoin="round"/>
<path d="M141.34 1V2.4" stroke="#BABABA" stroke-width="1.5" stroke-linecap="round" stroke-linejoin="round"/>
<path d="M149.33 1V2.4" stroke="#BABABA" stroke-width="1.5" stroke-linecap="round" stroke-linejoin="round"/>
<path d="M129.6 31.22H131.2" stroke="#BABABA" stroke-width="1.5" stroke-linecap="round" stroke-linejoin="round"/>
<path d="M125.6 31.22H127.2" stroke="#BABABA" stroke-width="1.5" stroke-linecap="round" stroke-linejoin="round"/>
<path d="M121.61 31.22H123.21" stroke="#BABABA" stroke-width="1.5" stroke-linecap="round" stroke-linejoin="round"/>
<path d="M167.9 31.22H169.5" stroke="#BABABA" stroke-width="1.5" stroke-linecap="round" stroke-linejoin="round"/>
<path d="M163.9 31.22H165.5" stroke="#BABABA" stroke-width="1.5" stroke-linecap="round" stroke-linejoin="round"/>
<path d="M159.9 31.22H161.5" stroke="#BABABA" stroke-width="1.5" stroke-linecap="round" stroke-linejoin="round"/>
<path d="M129.6 16.04H131.2" stroke="#BABABA" stroke-width="1.5" stroke-linecap="round" stroke-linejoin="round"/>
<path d="M125.6 16.04H127.2" stroke="#BABABA" stroke-width="1.5" stroke-linecap="round" stroke-linejoin="round"/>
<path d="M121.61 16.04H123.21" stroke="#BABABA" stroke-width="1.5" stroke-linecap="round" stroke-linejoin="round"/>
<path d="M167.9 16.04H169.5" stroke="#BABABA" stroke-width="1.5" stroke-linecap="round" stroke-linejoin="round"/>
<path d="M163.9 16.04H165.5" stroke="#BABABA" stroke-width="1.5" stroke-linecap="round" stroke-linejoin="round"/>
<path d="M159.9 16.04H161.5" stroke="#BABABA" stroke-width="1.5" stroke-linecap="round" stroke-linejoin="round"/>
<path d="M129.6 22.04H131.2" stroke="#BABABA" stroke-width="1.5" stroke-linecap="round" stroke-linejoin="round"/>
<path d="M125.6 22.04H127.2" stroke="#BABABA" stroke-width="1.5" stroke-linecap="round" stroke-linejoin="round"/>
<path d="M121.61 22.04H123.21" stroke="#BABABA" stroke-width="1.5" stroke-linecap="round" stroke-linejoin="round"/>
<path d="M167.9 22.04H169.5" stroke="#BABABA" stroke-width="1.5" stroke-linecap="round" stroke-linejoin="round"/>
<path d="M163.9 22.04H165.5" stroke="#BABABA" stroke-width="1.5" stroke-linecap="round" stroke-linejoin="round"/>
<path d="M159.9 22.04H161.5" stroke="#BABABA" stroke-width="1.5" stroke-linecap="round" stroke-linejoin="round"/>
<path d="M114.92 30.76H98.0498V33.66H114.92V30.76Z" stroke="#BABABA" stroke-width="1.5" stroke-linecap="round" stroke-linejoin="round"/>
<path d="M109.13 28.3201H103.85V30.5801H109.13V28.3201Z" stroke="#BABABA" stroke-width="1.5" stroke-linecap="round" stroke-linejoin="round"/>
<path d="M108.51 24.62H104.46C103.738 24.619 103.03 24.4175 102.416 24.0378C101.802 23.6582 101.305 23.1154 100.98 22.47H111.98C111.657 23.1139 111.162 23.6557 110.549 24.0352C109.937 24.4147 109.231 24.6171 108.51 24.62V24.62Z" stroke="#BABABA" stroke-width="1.5" stroke-linecap="round" stroke-linejoin="round"/>
<path d="M106.49 24.6201V28.3201" stroke="#BABABA" stroke-width="1.5" stroke-linecap="round" stroke-linejoin="round"/>
<path d="M106.49 22.47V16.04" stroke="#BABABA" stroke-width="1.5" stroke-linecap="round" stroke-linejoin="round"/>
<path d="M103.19 18.0701H109.78" stroke="#BABABA" stroke-width="1.5" stroke-linecap="round" stroke-linejoin="round"/>
<path d="M193.99 28.0799C193.068 28.442 192.054 28.5015 191.096 28.2499C190.138 27.9982 189.285 27.4484 188.66 26.6799C188.056 25.9047 187.706 24.9615 187.66 23.9799C187.595 22.74 188.025 21.5251 188.856 20.6024C189.687 19.6797 190.85 19.1249 192.09 19.0599C193.33 18.9949 194.545 19.4251 195.467 20.2559C196.39 21.0867 196.945 22.25 197.01 23.4899" stroke="#BABABA" stroke-width="1.5" stroke-linecap="round" stroke-linejoin="round"/>
<path d="M192.25 28.4199V33.6899" stroke="#BABABA" stroke-width="1.5" stroke-linecap="round" stroke-linejoin="round"/>
<path d="M200.25 26.76C200.25 26.1152 200.059 25.4849 199.701 24.9488C199.343 24.4127 198.834 23.9949 198.238 23.7482C197.642 23.5014 196.987 23.4369 196.354 23.5626C195.722 23.6884 195.141 23.9989 194.685 24.4548C194.229 24.9108 193.919 25.4916 193.793 26.124C193.667 26.7564 193.732 27.4119 193.979 28.0075C194.225 28.6032 194.643 29.1124 195.179 29.4706C195.715 29.8288 196.346 30.02 196.99 30.02C197.419 30.0213 197.843 29.9379 198.24 29.7745C198.636 29.6112 198.996 29.3711 199.299 29.0681C199.602 28.7651 199.842 28.4052 200.005 28.0091C200.168 27.613 200.252 27.1885 200.25 26.76V26.76Z" stroke="#BABABA" stroke-width="1.5" stroke-linecap="round" stroke-linejoin="round"/>
<path d="M196.97 30.02V33.69" stroke="#BABABA" stroke-width="1.5" stroke-linecap="round" stroke-linejoin="round"/>
<path d="M180.36 29.99C181.004 29.99 181.635 29.7988 182.171 29.4406C182.707 29.0824 183.125 28.5732 183.371 27.9775C183.618 27.3818 183.683 26.7264 183.557 26.094C183.431 25.4616 183.121 24.8807 182.665 24.4248C182.209 23.9689 181.628 23.6584 180.996 23.5326C180.363 23.4068 179.708 23.4714 179.112 23.7181C178.516 23.9649 178.007 24.3827 177.649 24.9188C177.291 25.4549 177.1 26.0852 177.1 26.73C177.1 27.5946 177.443 28.4238 178.054 29.0351C178.666 29.6465 179.495 29.99 180.36 29.99Z" stroke="#BABABA" stroke-width="1.5" stroke-linecap="round" stroke-linejoin="round"/>
<path d="M180.36 33.66V29.99" stroke="#BABABA" stroke-width="1.5" stroke-linecap="round" stroke-linejoin="round"/>
<path d="M74.5498 29.99C75.195 29.9919 75.8263 29.8024 76.3637 29.4454C76.9011 29.0884 77.3205 28.58 77.5688 27.9845C77.817 27.3889 77.883 26.7332 77.7584 26.1001C77.6337 25.4671 77.324 24.8853 76.8685 24.4283C76.413 23.9714 75.8321 23.6599 75.1995 23.5333C74.5668 23.4067 73.9108 23.4707 73.3146 23.7172C72.7183 23.9636 72.2086 24.3814 71.8499 24.9178C71.4913 25.4541 71.2998 26.0848 71.2998 26.73C71.2998 27.5928 71.6419 28.4205 72.2511 29.0316C72.8603 29.6427 73.6869 29.9873 74.5498 29.99Z" stroke="#BABABA" stroke-width="1.5" stroke-linecap="round" stroke-linejoin="round"/>
<path d="M74.5498 33.66V29.99" stroke="#BABABA" stroke-width="1.5" stroke-linecap="round" stroke-linejoin="round"/>
<path d="M201.14 32.6501C201.14 31.4801 202.4 30.5401 203.94 30.5401C204.278 30.5411 204.614 30.5882 204.94 30.6801C205.238 30.0027 205.731 29.4293 206.356 29.0323C206.981 28.6353 207.71 28.4327 208.45 28.4501C209.306 28.4211 210.145 28.6935 210.821 29.2198C211.497 29.7461 211.968 30.4929 212.15 31.3301C212.381 31.2078 212.638 31.1427 212.9 31.1401C213.343 31.1401 213.767 31.316 214.081 31.6292C214.394 31.9424 214.57 32.3672 214.57 32.8101V33.6601H201.14V32.8001C201.15 32.7506 201.15 32.6996 201.14 32.6501Z" stroke="#BABABA" stroke-width="1.5" stroke-linecap="round" stroke-linejoin="round"/>
<path d="M77.8096 32.6499C77.8096 31.4799 79.0696 30.5399 80.6196 30.5399C80.9577 30.5415 81.294 30.5886 81.6196 30.6799C81.9183 30.0025 82.4112 29.4291 83.0361 29.0321C83.6609 28.6351 84.3895 28.4325 85.1296 28.4499C85.9854 28.4206 86.8244 28.6931 87.4996 29.2199C88.1737 29.7481 88.6438 30.4938 88.8296 31.3299C89.0573 31.2077 89.3112 31.1425 89.5696 31.1399C89.7889 31.1396 90.0061 31.1827 90.2086 31.2668C90.4111 31.3509 90.595 31.4743 90.7496 31.6299C90.9079 31.7829 91.0337 31.9663 91.1196 32.169C91.2055 32.3718 91.2497 32.5897 91.2496 32.8099V33.6599H77.8096V32.7999C77.8195 32.7504 77.8195 32.6994 77.8096 32.6499Z" stroke="#BABABA" stroke-width="1.5" stroke-linecap="round" stroke-linejoin="round"/>
</svg>
