<svg width="1112" height="85" viewBox="0 0 1112 85" fill="none" xmlns="http://www.w3.org/2000/svg">
<path d="M1111 83.8701H1" stroke="#BABABA" stroke-width="1.5" stroke-linecap="round" stroke-linejoin="round"/>
<path d="M831.02 33.8501H796.74V83.8701H924.13V33.8501H890.18" stroke="#BABABA" stroke-width="1.5" stroke-linecap="round" stroke-linejoin="round"/>
<path d="M889.89 23.4299H831.02V83.8699H889.89V23.4299Z" stroke="#BABABA" stroke-width="1.5" stroke-linecap="round" stroke-linejoin="round"/>
<path d="M889.89 23.43C889.89 19.534 888.342 15.7975 885.587 13.0426C882.832 10.2877 879.096 8.74 875.2 8.74H845.71C843.779 8.73738 841.867 9.1154 840.082 9.85247C838.298 10.5895 836.676 11.6712 835.31 13.0355C833.943 14.3999 832.86 16.0202 832.12 17.8038C831.381 19.5873 831 21.4992 831 23.43V23.43" stroke="#BABABA" stroke-width="1.5" stroke-linecap="round" stroke-linejoin="round"/>
<path d="M831.02 31.8501H889.89" stroke="#BABABA" stroke-width="1.5" stroke-linecap="round" stroke-linejoin="round"/>
<path d="M831.02 36.79H889.84" stroke="#BABABA" stroke-width="1.5" stroke-linecap="round" stroke-linejoin="round"/>
<path d="M840.3 45.6101V62.3401" stroke="#BABABA" stroke-width="1.5" stroke-linecap="round" stroke-linejoin="round"/>
<path d="M853.72 45.6101V60.6701" stroke="#BABABA" stroke-width="1.5" stroke-linecap="round" stroke-linejoin="round"/>
<path d="M867.14 45.6101V60.6701" stroke="#BABABA" stroke-width="1.5" stroke-linecap="round" stroke-linejoin="round"/>
<path d="M880.56 45.6101V62.3401" stroke="#BABABA" stroke-width="1.5" stroke-linecap="round" stroke-linejoin="round"/>
<path d="M840.3 62.3401V83.8701" stroke="#BABABA" stroke-width="1.5" stroke-linecap="round" stroke-linejoin="round"/>
<path d="M853.72 66.3401V83.8701" stroke="#BABABA" stroke-width="1.5" stroke-linecap="round" stroke-linejoin="round"/>
<path d="M867.14 66.3401V83.8701" stroke="#BABABA" stroke-width="1.5" stroke-linecap="round" stroke-linejoin="round"/>
<path d="M880.56 62.3401V83.8701" stroke="#BABABA" stroke-width="1.5" stroke-linecap="round" stroke-linejoin="round"/>
<path d="M889.84 60.6699H831.02V66.3399H889.84V60.6699Z" stroke="#BABABA" stroke-width="1.5" stroke-linecap="round" stroke-linejoin="round"/>
<path d="M831.02 45.6101H889.84" stroke="#BABABA" stroke-width="1.5" stroke-linecap="round" stroke-linejoin="round"/>
<path d="M846.47 42.2099C847.028 42.2099 847.48 41.7578 847.48 41.1999C847.48 40.6421 847.028 40.1899 846.47 40.1899C845.912 40.1899 845.46 40.6421 845.46 41.1999C845.46 41.7578 845.912 42.2099 846.47 42.2099Z" stroke="#BABABA" stroke-width="1.5" stroke-linecap="round" stroke-linejoin="round"/>
<path d="M835.47 42.2099C835.674 42.2099 835.84 41.7578 835.84 41.1999C835.84 40.6421 835.674 40.1899 835.47 40.1899C835.265 40.1899 835.1 40.6421 835.1 41.1999C835.1 41.7578 835.265 42.2099 835.47 42.2099Z" stroke="#BABABA" stroke-width="1.5" stroke-linecap="round" stroke-linejoin="round"/>
<path d="M884.95 42.2099C885.154 42.2099 885.32 41.7578 885.32 41.1999C885.32 40.6421 885.154 40.1899 884.95 40.1899C884.746 40.1899 884.58 40.6421 884.58 41.1999C884.58 41.7578 884.746 42.2099 884.95 42.2099Z" stroke="#BABABA" stroke-width="1.5" stroke-linecap="round" stroke-linejoin="round"/>
<path d="M859.89 42.2099C860.448 42.2099 860.9 41.7578 860.9 41.1999C860.9 40.6421 860.448 40.1899 859.89 40.1899C859.332 40.1899 858.88 40.6421 858.88 41.1999C858.88 41.7578 859.332 42.2099 859.89 42.2099Z" stroke="#BABABA" stroke-width="1.5" stroke-linecap="round" stroke-linejoin="round"/>
<path d="M873.31 42.2099C873.868 42.2099 874.32 41.7578 874.32 41.1999C874.32 40.6421 873.868 40.1899 873.31 40.1899C872.752 40.1899 872.3 40.6421 872.3 41.1999C872.3 41.7578 872.752 42.2099 873.31 42.2099Z" stroke="#BABABA" stroke-width="1.5" stroke-linecap="round" stroke-linejoin="round"/>
<path d="M792.91 33.8501H796.73" stroke="#BABABA" stroke-width="1.5" stroke-linecap="round" stroke-linejoin="round"/>
<path d="M924.13 33.8501H927.95" stroke="#BABABA" stroke-width="1.5" stroke-linecap="round" stroke-linejoin="round"/>
<path d="M831.021 29.1001H796.73V33.8401H831.021V29.1001Z" stroke="#BABABA" stroke-width="1.5" stroke-linecap="round" stroke-linejoin="round"/>
<path d="M924.13 29.1001H889.89V33.8401H924.13V29.1001Z" stroke="#BABABA" stroke-width="1.5" stroke-linecap="round" stroke-linejoin="round"/>
<path d="M831.18 21.25H821.35L815.04 29.1" stroke="#BABABA" stroke-width="1.5" stroke-linecap="round" stroke-linejoin="round"/>
<path d="M889.73 21.25H899.56L905.87 29.1" stroke="#BABABA" stroke-width="1.5" stroke-linecap="round" stroke-linejoin="round"/>
<path d="M874.68 4.76001H845.09V8.74001H874.68V4.76001Z" stroke="#BABABA" stroke-width="1.5" stroke-linecap="round" stroke-linejoin="round"/>
<path d="M847.48 27.6001H872.3" stroke="#BABABA" stroke-width="1.5" stroke-linecap="round" stroke-linejoin="round"/>
<path d="M859.89 12.8601C861.025 12.8601 862.113 13.311 862.916 14.1137C863.719 14.9163 864.17 16.005 864.17 17.1401V23.4201H855.6V17.1501C855.6 16.015 856.051 14.9263 856.853 14.1237C857.656 13.321 858.745 12.8701 859.88 12.8701L859.89 12.8601Z" stroke="#BABABA" stroke-width="1.5" stroke-linecap="round" stroke-linejoin="round"/>
<path d="M876.95 16.0801C877.552 16.0801 878.13 16.3192 878.556 16.7449C878.981 17.1707 879.22 17.748 879.22 18.3501V23.1001H874.69V18.3501C874.69 17.748 874.93 17.1707 875.355 16.7449C875.781 16.3192 876.358 16.0801 876.96 16.0801H876.95Z" stroke="#BABABA" stroke-width="1.5" stroke-linecap="round" stroke-linejoin="round"/>
<path d="M842.83 16.0801C843.432 16.0801 844.01 16.3192 844.435 16.7449C844.861 17.1707 845.1 17.748 845.1 18.3501V23.1001H840.57V18.3501C840.57 17.7498 840.808 17.1739 841.232 16.7485C841.655 16.323 842.23 16.0827 842.83 16.0801V16.0801Z" stroke="#BABABA" stroke-width="1.5" stroke-linecap="round" stroke-linejoin="round"/>
<path d="M831.021 64.3401H796.73" stroke="#BABABA" stroke-width="1.5" stroke-linecap="round" stroke-linejoin="round"/>
<path d="M924.15 64.3401H889.86" stroke="#BABABA" stroke-width="1.5" stroke-linecap="round" stroke-linejoin="round"/>
<path d="M850.67 1V4.4" stroke="#BABABA" stroke-width="1.5" stroke-linecap="round" stroke-linejoin="round"/>
<path d="M870.13 1V4.4" stroke="#BABABA" stroke-width="1.5" stroke-linecap="round" stroke-linejoin="round"/>
<path d="M825.5 52.04H821.6V58.86H825.5V52.04Z" stroke="#BABABA" stroke-width="1.5" stroke-linecap="round" stroke-linejoin="round"/>
<path d="M815.78 52.04H811.88V58.86H815.78V52.04Z" stroke="#BABABA" stroke-width="1.5" stroke-linecap="round" stroke-linejoin="round"/>
<path d="M806.05 52.04H802.15V58.86H806.05V52.04Z" stroke="#BABABA" stroke-width="1.5" stroke-linecap="round" stroke-linejoin="round"/>
<path d="M825.5 38.8H821.6V42.91H825.5V38.8Z" stroke="#BABABA" stroke-width="1.5" stroke-linecap="round" stroke-linejoin="round"/>
<path d="M815.78 38.8H811.88V42.91H815.78V38.8Z" stroke="#BABABA" stroke-width="1.5" stroke-linecap="round" stroke-linejoin="round"/>
<path d="M806.05 38.8H802.15V42.91H806.05V38.8Z" stroke="#BABABA" stroke-width="1.5" stroke-linecap="round" stroke-linejoin="round"/>
<path d="M825.5 74.5601H821.6V78.9101H825.5V74.5601Z" stroke="#BABABA" stroke-width="1.5" stroke-linecap="round" stroke-linejoin="round"/>
<path d="M815.78 74.5601H811.88V78.9101H815.78V74.5601Z" stroke="#BABABA" stroke-width="1.5" stroke-linecap="round" stroke-linejoin="round"/>
<path d="M806.05 74.5601H802.15V78.9101H806.05V74.5601Z" stroke="#BABABA" stroke-width="1.5" stroke-linecap="round" stroke-linejoin="round"/>
<path d="M821.6 68.8701H825.5" stroke="#BABABA" stroke-width="1.5" stroke-linecap="round" stroke-linejoin="round"/>
<path d="M811.88 68.8701H815.77" stroke="#BABABA" stroke-width="1.5" stroke-linecap="round" stroke-linejoin="round"/>
<path d="M802.15 68.8701H806.05" stroke="#BABABA" stroke-width="1.5" stroke-linecap="round" stroke-linejoin="round"/>
<path d="M918.69 74.5601H914.79V78.9101H918.69V74.5601Z" stroke="#BABABA" stroke-width="1.5" stroke-linecap="round" stroke-linejoin="round"/>
<path d="M908.96 74.5601H905.06V78.9101H908.96V74.5601Z" stroke="#BABABA" stroke-width="1.5" stroke-linecap="round" stroke-linejoin="round"/>
<path d="M899.23 74.5601H895.33V78.9101H899.23V74.5601Z" stroke="#BABABA" stroke-width="1.5" stroke-linecap="round" stroke-linejoin="round"/>
<path d="M914.79 68.8701H918.68" stroke="#BABABA" stroke-width="1.5" stroke-linecap="round" stroke-linejoin="round"/>
<path d="M905.06 68.8701H908.96" stroke="#BABABA" stroke-width="1.5" stroke-linecap="round" stroke-linejoin="round"/>
<path d="M895.33 68.8701H899.23" stroke="#BABABA" stroke-width="1.5" stroke-linecap="round" stroke-linejoin="round"/>
<path d="M918.69 52.04H914.79V58.86H918.69V52.04Z" stroke="#BABABA" stroke-width="1.5" stroke-linecap="round" stroke-linejoin="round"/>
<path d="M908.96 52.04H905.06V58.86H908.96V52.04Z" stroke="#BABABA" stroke-width="1.5" stroke-linecap="round" stroke-linejoin="round"/>
<path d="M899.23 52.04H895.33V58.86H899.23V52.04Z" stroke="#BABABA" stroke-width="1.5" stroke-linecap="round" stroke-linejoin="round"/>
<path d="M918.69 38.8H914.79V42.91H918.69V38.8Z" stroke="#BABABA" stroke-width="1.5" stroke-linecap="round" stroke-linejoin="round"/>
<path d="M908.96 38.8H905.06V42.91H908.96V38.8Z" stroke="#BABABA" stroke-width="1.5" stroke-linecap="round" stroke-linejoin="round"/>
<path d="M899.23 38.8H895.33V42.91H899.23V38.8Z" stroke="#BABABA" stroke-width="1.5" stroke-linecap="round" stroke-linejoin="round"/>
<path d="M785.89 79.1101H744.82V83.8701H785.89V79.1101Z" stroke="#BABABA" stroke-width="1.5" stroke-linecap="round" stroke-linejoin="round"/>
<path d="M771.78 73.6201H758.93V79.1101H771.78V73.6201Z" stroke="#BABABA" stroke-width="1.5" stroke-linecap="round" stroke-linejoin="round"/>
<path d="M767.68 61.8701H763.03V73.6201H767.68V61.8701Z" stroke="#BABABA" stroke-width="1.5" stroke-linecap="round" stroke-linejoin="round"/>
<path d="M770.29 61.8699H760.42C758.671 61.8599 756.958 61.3661 755.472 60.443C753.986 59.5199 752.784 58.2037 752 56.6399H778.81C778.018 58.2189 776.801 59.5452 775.295 60.4693C773.79 61.3933 772.056 61.8785 770.29 61.8699V61.8699Z" stroke="#BABABA" stroke-width="1.5" stroke-linecap="round" stroke-linejoin="round"/>
<path d="M767.68 44.8701V42.1301C767.642 41.5398 767.38 40.9864 766.948 40.582C766.516 40.1776 765.947 39.9526 765.355 39.9526C764.764 39.9526 764.194 40.1776 763.763 40.582C763.331 40.9864 763.069 41.5398 763.03 42.1301V44.8701H757.03L759.03 48.8701H763.03V56.6801H767.68V48.8301H771.68L773.68 44.8301L767.68 44.8701Z" stroke="#BABABA" stroke-width="1.5" stroke-linecap="round" stroke-linejoin="round"/>
<path d="M978.29 70.3001C976.042 71.187 973.57 71.3346 971.232 70.7214C968.895 70.1083 966.813 68.7662 965.29 66.8901C964.151 65.4949 963.359 63.8495 962.98 62.089C962.6 60.3285 962.643 58.5031 963.106 56.7625C963.568 55.022 964.437 53.4159 965.64 52.0761C966.844 50.7363 968.348 49.701 970.029 49.0552C971.71 48.4093 973.521 48.1714 975.312 48.3608C977.103 48.5502 978.823 49.1616 980.332 50.1449C981.841 51.1281 983.095 52.4552 983.992 54.0171C984.888 55.579 985.402 57.3312 985.49 59.1301" stroke="#BABABA" stroke-width="1.5" stroke-linecap="round" stroke-linejoin="round"/>
<path d="M974.13 71.1201V84.0001" stroke="#BABABA" stroke-width="1.5" stroke-linecap="round" stroke-linejoin="round"/>
<path d="M993.46 67.0999C993.466 65.5302 993.005 63.9941 992.138 62.6861C991.27 61.3781 990.034 60.357 988.585 59.7522C987.137 59.1474 985.541 58.986 984.001 59.2886C982.461 59.5912 981.045 60.3441 979.933 61.4519C978.821 62.5598 978.063 63.9727 977.754 65.5118C977.446 67.0508 977.601 68.6468 978.2 70.0976C978.8 71.5484 979.816 72.7887 981.121 73.6613C982.425 74.534 983.96 74.9999 985.53 74.9999C987.628 74.9999 989.64 74.1686 991.126 72.6879C992.613 71.2072 993.452 69.1979 993.46 67.0999Z" stroke="#BABABA" stroke-width="1.5" stroke-linecap="round" stroke-linejoin="round"/>
<path d="M985.53 75V84" stroke="#BABABA" stroke-width="1.5" stroke-linecap="round" stroke-linejoin="round"/>
<path d="M945.12 74.9999C946.685 74.9998 948.216 74.5365 949.518 73.6682C950.821 72.7999 951.837 71.5655 952.439 70.1205C953.041 68.6756 953.202 67.0847 952.902 65.5484C952.602 64.0121 951.853 62.599 950.751 61.4872C949.649 60.3755 948.243 59.6147 946.709 59.3009C945.176 58.9871 943.583 59.1341 942.133 59.7236C940.683 60.3131 939.44 61.3186 938.56 62.6135C937.68 63.9083 937.204 65.4345 937.19 66.9999C937.181 68.0472 937.379 69.0859 937.773 70.0561C938.168 71.0263 938.75 71.9088 939.487 72.6526C940.225 73.3964 941.102 73.9867 942.069 74.3896C943.036 74.7925 944.072 74.9999 945.12 74.9999V74.9999Z" stroke="#BABABA" stroke-width="1.5" stroke-linecap="round" stroke-linejoin="round"/>
<path d="M945.12 83.87V75" stroke="#BABABA" stroke-width="1.5" stroke-linecap="round" stroke-linejoin="round"/>
<path d="M687.66 74.9999C689.225 74.9998 690.756 74.5365 692.058 73.6682C693.361 72.7999 694.377 71.5655 694.979 70.1205C695.581 68.6756 695.743 67.0847 695.442 65.5484C695.142 64.0121 694.393 62.599 693.291 61.4872C692.189 60.3755 690.783 59.6147 689.249 59.3009C687.716 58.9871 686.124 59.1341 684.673 59.7236C683.223 60.3131 681.98 61.3186 681.1 62.6135C680.22 63.9083 679.744 65.4345 679.73 66.9999C679.721 68.0472 679.919 69.0859 680.313 70.0561C680.708 71.0263 681.29 71.9088 682.028 72.6526C682.765 73.3964 683.642 73.9867 684.609 74.3896C685.576 74.7925 686.612 74.9999 687.66 74.9999V74.9999Z" stroke="#BABABA" stroke-width="1.5" stroke-linecap="round" stroke-linejoin="round"/>
<path d="M687.66 83.87V75" stroke="#BABABA" stroke-width="1.5" stroke-linecap="round" stroke-linejoin="round"/>
<path d="M995.68 81.41C995.68 78.58 998.74 76.29 1002.51 76.29C1003.33 76.2879 1004.15 76.4024 1004.94 76.63C1005.66 74.9804 1006.86 73.5834 1008.38 72.6166C1009.9 71.6498 1011.68 71.1567 1013.48 71.2C1015.56 71.1327 1017.6 71.7958 1019.24 73.0743C1020.89 74.3528 1022.03 76.1661 1022.48 78.2C1023.04 77.9079 1023.67 77.7537 1024.3 77.75C1025.38 77.75 1026.41 78.1777 1027.17 78.9391C1027.93 79.7005 1028.36 80.7332 1028.36 81.81V83.87H995.68V81.79C995.704 81.6645 995.704 81.5355 995.68 81.41V81.41Z" stroke="#BABABA" stroke-width="1.5" stroke-linecap="round" stroke-linejoin="round"/>
<path d="M695.59 81.41C695.59 78.58 698.65 76.29 702.42 76.29C703.242 76.2879 704.06 76.4024 704.85 76.63C705.571 74.9829 706.769 73.5897 708.29 72.63C709.812 71.6622 711.587 71.168 713.39 71.21C715.471 71.1427 717.51 71.8058 719.154 73.0843C720.798 74.3628 721.943 76.1761 722.39 78.21C722.952 77.9179 723.576 77.7637 724.21 77.76C725.287 77.76 726.319 78.1877 727.081 78.9491C727.842 79.7105 728.27 80.7432 728.27 81.82V83.88H695.59V81.79C695.614 81.6645 695.614 81.5355 695.59 81.41V81.41Z" stroke="#BABABA" stroke-width="1.5" stroke-linecap="round" stroke-linejoin="round"/>
</svg>
