<svg xmlns="http://www.w3.org/2000/svg" width="24" height="24" fill="none" viewBox="0 0 24 24">
  <g clip-path="url(#a)">
    <path fill="currentColor" d="M12 16.12c-2.02 0-3.67-1.65-3.67-3.67S9.97 8.78 12 8.78c2.03 0 3.67 1.65 3.67 3.67s-1.64 3.67-3.67 3.67Zm0-5.83c-1.2 0-2.17.97-2.17 2.17s.97 2.17 2.17 2.17 2.17-.97 2.17-2.17-.97-2.17-2.17-2.17Z"/>
    <path fill="currentColor" d="M18.79 19.46H5.21c-1.45 0-2.63-1.18-2.63-2.63V8.68c0-1.45 1.18-2.63 2.63-2.63h1.36l.44-.88c.35-.7 1.04-1.13 1.82-1.13h6.33c.78 0 1.47.43 1.82 1.13l.44.88h1.36c1.45 0 2.63 1.18 2.63 2.63v8.15c0 1.45-1.18 2.63-2.63 2.63h.01ZM5.21 7.55c-.62 0-1.13.51-1.13 1.13v8.15c0 .62.51 1.13 1.13 1.13h13.57c.62 0 1.13-.51 1.13-1.13V8.68c0-.62-.51-1.13-1.13-1.13h-2.29l-.85-1.71a.546.546 0 0 0-.48-.3H8.83c-.2 0-.39.11-.48.3L7.5 7.55H5.21Z"/>
  </g>
  <defs>
    <clipPath id="a">
      <path fill="#fff" d="M0 0h24v24H0z"/>
    </clipPath>
  </defs>
</svg>
