<svg xmlns="http://www.w3.org/2000/svg" width="24" height="24" fill="none" viewBox="0 0 24 24">
  <path fill="currentColor" fill-rule="evenodd" d="M16.92 7.22h2.56c1.36 0 2.47 1.11 2.47 2.47v9.98c0 1.36-1.11 2.47-2.47 2.47h-9.45c-1.36 0-2.47-1.11-2.47-2.47V17.2H5c-1.36 0-2.47-1.11-2.47-2.47V4.75c0-1.36 1.11-2.47 2.47-2.47h9.45c1.36 0 2.47 1.11 2.47 2.47v2.47ZM4.03 14.73c0 .53.43.97.97.97v-.01h2.56v-6c0-1.36 1.11-2.47 2.47-2.47h5.39V4.75a.97.97 0 0 0-.97-.97H5a.97.97 0 0 0-.97.97v9.98Zm15.45 5.91c.53 0 .97-.43.97-.97V9.69a.97.97 0 0 0-.97-.97h-9.45a.97.97 0 0 0-.97.97v9.98c0 .53.43.97.97.97h9.45ZM14 11.53h1.5v2.4h2.41v1.5H15.5v2.4H14v-2.4h-2.4v-1.5H14v-2.4Z" clip-rule="evenodd"/>
</svg>
