<svg width="48" height="48" viewBox="0 0 48 48" fill="none" xmlns="http://www.w3.org/2000/svg">
    <g clip-path="url(#clip0_234_8512)">
        <path d="M16.1504 31.0051C17.2467 31.0078 18.2971 31.4451 19.0714 32.2212C19.8456 32.9973 20.2804 34.0489 20.2804 35.1451V39.9651H7.15039V35.1451C7.15039 34.0471 7.58657 32.9941 8.36297 32.2177C9.13937 31.4413 10.1924 31.0051 11.2904 31.0051" stroke="#333333" stroke-width="1.5" stroke-miterlimit="10"/>
        <path d="M13.45 22.2254H14C14.9123 22.2254 15.7873 22.5878 16.4324 23.2329C17.0776 23.878 17.44 24.753 17.44 25.6654V28.6154C17.44 29.0662 17.3509 29.5125 17.1778 29.9288C17.0046 30.345 16.7509 30.7229 16.4312 31.0408C16.1115 31.3586 15.7322 31.6101 15.3149 31.7808C14.8977 31.9515 14.4508 32.038 14 32.0354H13.46C12.5424 32.0354 11.6623 31.6708 11.0134 31.0219C10.3645 30.3731 10 29.493 10 28.5754V25.6654C10 25.2128 10.0893 24.7646 10.2628 24.3466C10.4363 23.9286 10.6906 23.5489 11.0111 23.2294C11.3316 22.9098 11.712 22.6566 12.1305 22.4843C12.549 22.312 12.9974 22.224 13.45 22.2254V22.2254Z" stroke="#333333" stroke-width="1.5" stroke-miterlimit="10"/>
        <path d="M36.7097 16.8152C37.2529 16.8139 37.7911 16.9197 38.2933 17.1267C38.7955 17.3337 39.252 17.6377 39.6365 18.0213C40.0211 18.4049 40.3262 18.8607 40.5344 19.3624C40.7426 19.8641 40.8497 20.402 40.8497 20.9452V25.7652H27.7197V20.9452C27.7197 19.8499 28.1549 18.7994 28.9294 18.0248C29.7039 17.2503 30.7544 16.8152 31.8497 16.8152" stroke="#333333" stroke-width="1.5" stroke-miterlimit="10"/>
        <path d="M34.0004 8.03497H34.5404C34.9939 8.03233 35.4433 8.11937 35.863 8.29106C36.2827 8.46276 36.6643 8.71573 36.9858 9.03542C37.3074 9.35512 37.5626 9.73523 37.7367 10.1539C37.9108 10.5726 38.0005 11.0215 38.0004 11.475V14.425C38.0004 14.8741 37.912 15.3188 37.7401 15.7337C37.5682 16.1487 37.3163 16.5257 36.9987 16.8433C36.6812 17.1609 36.3042 17.4128 35.8892 17.5846C35.4743 17.7565 35.0296 17.845 34.5804 17.845H34.0004C33.5452 17.8398 33.0955 17.7448 32.677 17.5654C32.2586 17.3861 31.8796 17.1259 31.5619 16.7998C31.2442 16.4737 30.994 16.0882 30.8256 15.6652C30.6571 15.2422 30.5738 14.7902 30.5804 14.335V11.475C30.5804 10.5661 30.9401 9.69412 31.5809 9.04957C32.2217 8.40501 33.0916 8.04025 34.0004 8.03497V8.03497Z" stroke="#333333" stroke-width="1.5" stroke-miterlimit="10"/>
        <path d="M36.3205 28.7751C35.4472 31.4251 33.7603 33.7321 31.4999 35.3678C29.2394 37.0034 26.5206 37.8843 23.7305 37.8851" stroke="#333333" stroke-width="1.5" stroke-miterlimit="10"/>
        <path d="M11.5801 19.3351C12.9304 16.2573 15.3967 13.8054 18.4824 12.4732C21.5681 11.1409 25.044 11.0273 28.2101 12.1551" stroke="#333333" stroke-width="1.5" stroke-miterlimit="10"/>
    </g>
    <defs>
        <clipPath id="clip0_234_8512">
            <rect width="48" height="48" fill="white"/>
        </clipPath>
    </defs>
</svg>
