<svg width="48" height="48" viewBox="0 0 48 48" fill="none" xmlns="http://www.w3.org/2000/svg">
    <g clip-path="url(#clip0_234_8479)">
        <path d="M34.4 17.7678C34.3928 16.0928 33.9812 14.4442 33.2 12.9625C32.4189 11.4807 31.2914 10.2096 29.9135 9.25715C28.5356 8.30472 26.948 7.69922 25.2858 7.49214C23.6236 7.28506 21.936 7.48253 20.3665 8.06776C18.797 8.65299 17.3921 9.60866 16.2713 10.8535C15.1505 12.0983 14.347 13.5954 13.929 15.2175C13.5111 16.8395 13.4911 18.5385 13.8709 20.17C14.2506 21.8014 15.0187 23.317 16.11 24.5878C18.4346 27.1665 19.7363 30.5061 19.77 33.9778V34.3578H28.22V33.9778C28.2706 30.5034 29.5697 27.1633 31.88 24.5678C33.5166 22.6815 34.4121 20.265 34.4 17.7678Z" stroke="#333333" stroke-width="1.5" stroke-miterlimit="10"/>
        <path d="M28.22 37.4578C28.22 38.2844 27.893 39.0775 27.3103 39.664C26.7277 40.2504 25.9367 40.5825 25.11 40.5878H22.91C22.079 40.5878 21.2818 40.2583 20.6932 39.6716C20.1047 39.0849 19.7727 38.2888 19.77 37.4578V37.4578" stroke="#333333" stroke-width="1.5" stroke-miterlimit="10"/>
        <path d="M25.6802 12.5178C26.8312 12.5178 27.9351 12.9751 28.749 13.789C29.5629 14.6029 30.0202 15.7068 30.0202 16.8578" stroke="#333333" stroke-width="1.5" stroke-miterlimit="10"/>
        <path d="M24.1001 34.3178V24.4778" stroke="#333333" stroke-width="1.5" stroke-miterlimit="10"/>
        <path d="M28.2202 37.4576V34.3176" stroke="#333333" stroke-width="1.5" stroke-miterlimit="10"/>
        <path d="M19.77 37.4576V34.3176" stroke="#333333" stroke-width="1.5" stroke-miterlimit="10"/>
    </g>
    <defs>
        <clipPath id="clip0_234_8479">
            <rect width="48" height="48" fill="white"/>
        </clipPath>
    </defs>
</svg>
