<svg width="48" height="48" viewBox="0 0 48 48" fill="none" xmlns="http://www.w3.org/2000/svg">
    <path d="M18.1698 9.19995H14.5098V10.7H18.1698V9.19995Z" fill="black"/>
    <path d="M18.1698 29.3999H14.5098V30.8999H18.1698V29.3999Z" fill="black"/>
    <path d="M27.9898 17.1101H14.5098V18.6101H27.9898V17.1101Z" fill="black"/>
    <path d="M26.2998 20.29H14.5098V21.79H26.2998V20.29Z" fill="black"/>
    <path d="M33.29 25.68C33.02 25.68 32.76 25.7 32.49 25.72V12.69L24.56 4.76001H11.23V9.19001H7.20996V40.08H25.41C27.08 42.67 29.98 44.39 33.28 44.39C38.44 44.39 42.64 40.19 42.64 35.03C42.64 29.87 38.44 25.67 33.28 25.67L33.29 25.68ZM25 7.33001L29.93 12.26H25V7.33001ZM12.73 6.27001H23.5V13.76H30.99V25.99C27.22 26.95 24.35 30.2 23.97 34.17H12.73V6.27001ZM8.70996 38.59V10.69H11.23V35.66H23.96C24.03 36.69 24.26 37.67 24.63 38.59H8.70996ZM33.28 42.9C28.95 42.9 25.42 39.38 25.42 35.04C25.42 30.7 28.94 27.18 33.28 27.18C37.62 27.18 41.14 30.7 41.14 35.04C41.14 39.38 37.62 42.9 33.28 42.9Z" fill="black"/>
    <path d="M34.2698 31.23C34.7498 31.23 35.2298 31.38 35.6998 31.69L36.5198 30.44C35.8098 29.97 35.0498 29.73 34.2698 29.73C32.3698 29.73 30.7298 31.08 30.0398 33H28.2998V34.5H29.7398C29.7198 34.68 29.6898 34.86 29.6898 35.04C29.6898 35.22 29.7198 35.4 29.7398 35.58H28.2998V37.08H30.0398C30.7298 39 32.3598 40.35 34.2698 40.35C35.0498 40.35 35.8098 40.11 36.5198 39.64L35.6998 38.39C35.2398 38.69 34.7598 38.85 34.2698 38.85C33.1798 38.85 32.2198 38.14 31.6798 37.08H34.2098V35.58H31.2298C31.2098 35.4 31.1898 35.23 31.1898 35.04C31.1898 34.85 31.2098 34.68 31.2298 34.5H34.7098V33H31.6798C32.2298 31.94 33.1798 31.23 34.2698 31.23Z" fill="black"/>
</svg>
