<svg width="64" height="64" viewBox="0 0 64 64" fill="none" xmlns="http://www.w3.org/2000/svg">
<path d="M41.6748 40.9775H22.3281" stroke="#333333" stroke-width="1.5" stroke-miterlimit="10"/>
<path d="M13.2604 40.9774H8.95372C8.14623 40.9774 7.37162 40.6576 6.79939 40.0878C6.22716 39.5181 5.90392 38.7449 5.90039 37.9374V21.4841C5.92125 20.6882 6.25212 19.932 6.82249 19.3766C7.39286 18.8212 8.1576 18.5105 8.95372 18.5107H55.0471C55.8545 18.5107 56.6292 18.8306 57.2014 19.4003C57.7736 19.9701 58.0969 20.7433 58.1004 21.5507V37.9374C58.0969 38.7449 57.7736 39.5181 57.2014 40.0878C56.6292 40.6576 55.8545 40.9774 55.0471 40.9774H50.7404" stroke="#333333" stroke-width="1.5" stroke-miterlimit="10"/>
<path d="M17.7805 36.457C18.6811 36.4569 19.562 36.7212 20.3138 37.217C21.0581 37.7123 21.6382 38.4178 21.9805 39.2437C22.3409 40.0844 22.4295 41.0168 22.2338 41.9104C22.0612 42.7901 21.6293 43.5981 20.9938 44.2304C20.3592 44.8656 19.5498 45.2974 18.6688 45.4708C17.7878 45.6441 16.8751 45.5511 16.0471 45.2037C15.2187 44.8657 14.5121 44.2846 14.0205 43.537C13.5669 42.8564 13.3064 42.0654 13.267 41.2484C13.2275 40.4314 13.4105 39.619 13.7964 38.8978C14.1823 38.1766 14.7567 37.5737 15.4583 37.1532C16.16 36.7328 16.9625 36.5106 17.7805 36.5104V36.457Z" stroke="#333333" stroke-width="1.5" stroke-miterlimit="10"/>
<path d="M46.2064 36.4573C47.0986 36.4471 47.9743 36.6973 48.7264 37.1773C49.5051 37.6691 50.111 38.3916 50.4597 39.244C50.8178 40.0851 50.9108 41.0153 50.7264 41.9107C50.552 42.792 50.119 43.6014 49.4825 44.2355C48.846 44.8696 48.0351 45.2996 47.1531 45.4707C46.5362 45.5882 45.9016 45.5759 45.2898 45.4346C44.6779 45.2932 44.1022 45.0259 43.5994 44.6498C43.0966 44.2736 42.6777 43.7968 42.3694 43.2497C42.0611 42.7026 41.8701 42.0973 41.8088 41.4723C41.7474 40.8474 41.8169 40.2165 42.0129 39.6199C42.2089 39.0233 42.527 38.4741 42.947 38.0073C43.367 37.5404 43.8797 37.1663 44.4524 36.9086C45.0251 36.6509 45.6451 36.5154 46.2731 36.5107L46.2064 36.4573Z" stroke="#333333" stroke-width="1.5" stroke-miterlimit="10"/>
<path d="M5.90039 29.7104H58.1004" stroke="#333333" stroke-width="1.5" stroke-miterlimit="10"/>
<path d="M46.2207 18.4443V29.711" stroke="#333333" stroke-width="1.5" stroke-miterlimit="10"/>
<path d="M32.0078 18.4443V29.711" stroke="#333333" stroke-width="1.5" stroke-miterlimit="10"/>
<path d="M17.7812 18.4443V29.711" stroke="#333333" stroke-width="1.5" stroke-miterlimit="10"/>
</svg>
