<svg width="64" height="64" viewBox="0 0 64 64" fill="none" xmlns="http://www.w3.org/2000/svg">
<path d="M42.4859 17.8678V24.4047H21.5152V17.8678L15.5706 12L9.62598 17.8678V25.9951V52H54.386V25.9951V17.8678L48.3647 12L42.4859 17.8678Z" stroke="#333333" stroke-width="1.5" stroke-miterlimit="10"/>
<path d="M9.61523 18.9102H21.5154" stroke="#333333" stroke-width="1.5" stroke-miterlimit="10"/>
<path d="M15.3184 27.4757V23.0557" stroke="#333333" stroke-width="1.5" stroke-miterlimit="10"/>
<path d="M48.4316 27.4757V23.0557" stroke="#333333" stroke-width="1.5" stroke-miterlimit="10"/>
<path d="M15.3184 37.4787V33.0586" stroke="#333333" stroke-width="1.5" stroke-miterlimit="10"/>
<path d="M48.4316 37.4787V33.0586" stroke="#333333" stroke-width="1.5" stroke-miterlimit="10"/>
<path d="M15.3184 47.4704V43.0503" stroke="#333333" stroke-width="1.5" stroke-miterlimit="10"/>
<path d="M32.001 37.4787V33.0586" stroke="#333333" stroke-width="1.5" stroke-miterlimit="10"/>
<path d="M32.001 47.4704V43.0503" stroke="#333333" stroke-width="1.5" stroke-miterlimit="10"/>
<path d="M24.0488 37.4787V33.0586" stroke="#333333" stroke-width="1.5" stroke-miterlimit="10"/>
<path d="M24.0488 47.4704V43.0503" stroke="#333333" stroke-width="1.5" stroke-miterlimit="10"/>
<path d="M40.2158 37.4787V33.0586" stroke="#333333" stroke-width="1.5" stroke-miterlimit="10"/>
<path d="M40.2158 47.4704V43.0503" stroke="#333333" stroke-width="1.5" stroke-miterlimit="10"/>
<path d="M48.4316 47.4704V43.0503" stroke="#333333" stroke-width="1.5" stroke-miterlimit="10"/>
<path d="M42.4854 18.9102H54.3855" stroke="#333333" stroke-width="1.5" stroke-miterlimit="10"/>
<path d="M42.4863 24.4048H21.5156V29.3294H42.4863V24.4048Z" stroke="#333333" stroke-width="1.5" stroke-miterlimit="10"/>
</svg>
