<svg width="64" height="64" viewBox="0 0 64 64" fill="none" xmlns="http://www.w3.org/2000/svg">
<path d="M42.4797 18.9102V24.405H21.5092V18.9102H9.62012V25.9954V52.0001H54.3798V25.9954V18.9102H42.4797Z" fill="white" stroke="#333333" stroke-width="1.5" stroke-miterlimit="10"/>
<path d="M21.5092 18.9097H9.62012V17.8678L15.5647 12L21.5092 17.8678V18.9097Z" fill="#E46054" stroke="#E46054" stroke-width="1.5" stroke-miterlimit="10"/>
<path d="M15.3125 27.4757V23.0557" stroke="#333333" stroke-width="1.5" stroke-miterlimit="10"/>
<path d="M48.4258 27.4757V23.0557" stroke="#333333" stroke-width="1.5" stroke-miterlimit="10"/>
<path d="M15.3125 37.4781V33.0581" stroke="#333333" stroke-width="1.5" stroke-miterlimit="10"/>
<path d="M48.4258 37.4781V33.0581" stroke="#333333" stroke-width="1.5" stroke-miterlimit="10"/>
<path d="M15.3125 47.4703V43.0503" stroke="#333333" stroke-width="1.5" stroke-miterlimit="10"/>
<path d="M31.9951 37.4781V33.0581" stroke="#333333" stroke-width="1.5" stroke-miterlimit="10"/>
<path d="M31.9951 47.4703V43.0503" stroke="#333333" stroke-width="1.5" stroke-miterlimit="10"/>
<path d="M24.043 37.4781V33.0581" stroke="#333333" stroke-width="1.5" stroke-miterlimit="10"/>
<path d="M24.043 47.4703V43.0503" stroke="#333333" stroke-width="1.5" stroke-miterlimit="10"/>
<path d="M40.21 37.4781V33.0581" stroke="#333333" stroke-width="1.5" stroke-miterlimit="10"/>
<path d="M40.21 47.4703V43.0503" stroke="#333333" stroke-width="1.5" stroke-miterlimit="10"/>
<path d="M48.4258 47.4703V43.0503" stroke="#333333" stroke-width="1.5" stroke-miterlimit="10"/>
<path d="M42.4812 24.4048H21.5107V29.3293H42.4812V24.4048Z" fill="#E46054" stroke="#E46054" stroke-width="1.5" stroke-miterlimit="10"/>
<path d="M54.3796 18.9097V17.8678L48.3582 12L42.4795 17.8678V18.9097H54.3796Z" fill="#E46054" stroke="#E46054" stroke-width="1.5" stroke-miterlimit="10"/>
</svg>
