<svg width="64" height="64" viewBox="0 0 64 64" fill="none" xmlns="http://www.w3.org/2000/svg">
<path d="M33.6002 42.3653H11.2402V22.6353H43.7002V27.4553" stroke="#333333" stroke-width="1.5" stroke-miterlimit="10"/>
<path d="M45.32 45.9849H48.17C49.4564 45.9928 50.6874 46.5094 51.5942 47.4218C52.5011 48.3343 53.01 49.5684 53.01 50.8549V53.7949H28.25V50.8549C28.25 49.5633 28.7631 48.3246 29.6764 47.4113C30.5897 46.498 31.8284 45.9849 33.12 45.9849H36.01" stroke="#333333" stroke-width="1.5" stroke-miterlimit="10"/>
<path d="M41.4502 27.0449H39.8302C38.0461 27.0843 36.3503 27.8297 35.115 29.1175C33.8796 30.4054 33.2054 32.1307 33.2402 33.9149V39.9749C33.2177 40.9691 33.3912 41.958 33.7509 42.8851C34.1106 43.8122 34.6495 44.6593 35.3367 45.3781C36.0239 46.0968 36.8459 46.6732 37.756 47.0741C38.666 47.4751 39.6461 47.6928 40.6402 47.7149V47.7149C42.6402 47.6599 44.5373 46.8164 45.9179 45.3684C47.2985 43.9204 48.0506 41.9852 48.0102 39.9849V33.9149C48.0426 32.1365 47.3716 30.4172 46.1432 29.1307C44.9148 27.8443 43.2283 27.0947 41.4502 27.0449V27.0449Z" stroke="#333333" stroke-width="1.5" stroke-miterlimit="10"/>
<path d="M29.79 13.8853L43.96 22.4253" stroke="#333333" stroke-width="1.5" stroke-miterlimit="10"/>
<path d="M10.9902 22.4253L25.1602 13.8853" stroke="#333333" stroke-width="1.5" stroke-miterlimit="10"/>
<path d="M27.4699 15.8051C29.0163 15.8051 30.2699 14.5515 30.2699 13.0051C30.2699 11.4587 29.0163 10.2051 27.4699 10.2051C25.9235 10.2051 24.6699 11.4587 24.6699 13.0051C24.6699 14.5515 25.9235 15.8051 27.4699 15.8051Z" stroke="#333333" stroke-width="1.5" stroke-miterlimit="10"/>
<path d="M20.5798 27.5449H15.5898" stroke="#333333" stroke-width="1.5" stroke-miterlimit="10"/>
<path d="M29.2693 27.5449H24.2793" stroke="#333333" stroke-width="1.5" stroke-miterlimit="10"/>
<path d="M20.5798 32.5049H15.5898" stroke="#333333" stroke-width="1.5" stroke-miterlimit="10"/>
<path d="M29.2693 32.5049H24.2793" stroke="#333333" stroke-width="1.5" stroke-miterlimit="10"/>
<path d="M20.5798 37.4551H15.5898" stroke="#333333" stroke-width="1.5" stroke-miterlimit="10"/>
<path d="M29.2693 37.4551H24.2793" stroke="#333333" stroke-width="1.5" stroke-miterlimit="10"/>
<path d="M33.2402 33.6353H48.0502" stroke="#333333" stroke-width="1.5" stroke-miterlimit="10"/>
</svg>
