<svg width="64" height="64" viewBox="0 0 64 64" fill="none" xmlns="http://www.w3.org/2000/svg">
<path d="M21.5332 41.3398C22.9949 41.3434 24.3955 41.9265 25.4278 42.9613C26.4601 43.9961 27.0399 45.3982 27.0399 46.8598V53.2865H9.5332V46.8598C9.5332 45.3959 10.1148 43.9918 11.15 42.9566C12.1852 41.9214 13.5892 41.3398 15.0532 41.3398" stroke="#333333" stroke-width="1.5" stroke-miterlimit="10"/>
<path d="M17.932 29.6333H18.6654C19.8818 29.6333 21.0485 30.1166 21.9086 30.9767C22.7688 31.8369 23.252 33.0035 23.252 34.22V38.1533C23.252 38.7544 23.1332 39.3495 22.9024 39.9045C22.6716 40.4595 22.3333 40.9634 21.907 41.3872C21.4808 41.811 20.9749 42.1463 20.4186 42.3739C19.8623 42.6015 19.2664 42.7168 18.6654 42.7133H17.9454C16.7218 42.7133 15.5484 42.2273 14.6832 41.3621C13.8181 40.4969 13.332 39.3235 13.332 38.1V34.22C13.332 33.6165 13.4511 33.019 13.6824 32.4617C13.9138 31.9043 14.2528 31.3981 14.6801 30.972C15.1075 30.5459 15.6147 30.2083 16.1727 29.9786C16.7307 29.7489 17.3286 29.6316 17.932 29.6333V29.6333Z" stroke="#333333" stroke-width="1.5" stroke-miterlimit="10"/>
<path d="M48.9457 22.4199C49.6699 22.4182 50.3874 22.5593 51.0571 22.8353C51.7267 23.1112 52.3353 23.5166 52.8481 24.0281C53.3608 24.5396 53.7676 25.1472 54.0452 25.8162C54.3228 26.4852 54.4657 27.2023 54.4657 27.9266V34.3533H36.959V27.9266C36.959 26.4661 37.5392 25.0655 38.5719 24.0328C39.6046 23.0001 41.0052 22.4199 42.4657 22.4199" stroke="#333333" stroke-width="1.5" stroke-miterlimit="10"/>
<path d="M45.3329 10.713H46.0529C46.6575 10.7095 47.2568 10.8255 47.8164 11.0544C48.3759 11.2834 48.8847 11.6206 49.3135 12.0469C49.7422 12.4732 50.0824 12.98 50.3146 13.5382C50.5468 14.0964 50.6663 14.6951 50.6663 15.2996V19.233C50.6663 19.8318 50.5483 20.4248 50.3192 20.978C50.09 21.5312 49.7541 22.0339 49.3307 22.4574C48.9073 22.8808 48.4046 23.2167 47.8513 23.4459C47.2981 23.675 46.7051 23.793 46.1063 23.793H45.3329C44.726 23.786 44.1263 23.6593 43.5684 23.4202C43.0105 23.1811 42.5052 22.8342 42.0816 22.3994C41.658 21.9647 41.3243 21.4506 41.0998 20.8866C40.8752 20.3227 40.7641 19.7199 40.7729 19.113V15.2996C40.7729 14.0878 41.2525 12.9252 42.1069 12.0658C42.9613 11.2064 44.1211 10.72 45.3329 10.713V10.713Z" stroke="#333333" stroke-width="1.5" stroke-miterlimit="10"/>
<path d="M48.4263 38.3667C47.262 41.9 45.0128 44.976 41.9989 47.1569C38.9849 49.3377 35.3599 50.5123 31.6396 50.5134" stroke="#333333" stroke-width="1.5" stroke-miterlimit="10"/>
<path d="M15.4395 25.78C17.2399 21.6763 20.5283 18.4071 24.6426 16.6307C28.7568 14.8544 33.3913 14.7029 37.6128 16.2067" stroke="#333333" stroke-width="1.5" stroke-miterlimit="10"/>
</svg>
