<svg width="64" height="64" viewBox="0 0 64 64" fill="none" xmlns="http://www.w3.org/2000/svg">
<path d="M50.1371 49.292H18.623V53.0001H50.1371V49.292Z" fill="white" stroke="#333333" stroke-width="1.5" stroke-miterlimit="10"/>
<path d="M37.2949 30.9301H50.522V28.1607L37.7643 23.8706" fill="white"/>
<path d="M37.2949 30.9301H50.522V28.1607L37.7643 23.8706" stroke="#333333" stroke-width="1.5" stroke-miterlimit="10"/>
<path d="M46.4194 40.2609V30.9297H42.2982V39.0218H42.2888V45.7151L40.8525 49.2918H47.8557L46.4194 45.7151V40.2609Z" fill="white" stroke="#333333" stroke-width="1.5" stroke-miterlimit="10"/>
<path d="M32.3103 38.4024V39.0219V45.7153L30.874 49.2919H37.8771L36.4408 45.7153V40.2611V33.2861" fill="white"/>
<path d="M32.3103 38.4024V39.0219V45.7153L30.874 49.2919H37.8771L36.4408 45.7153V40.2611V33.2861" stroke="#333333" stroke-width="1.5" stroke-miterlimit="10"/>
<path d="M22.3318 40.6084V45.7152L20.8955 49.2919H27.8986L26.4623 45.7152V41.7255" fill="white"/>
<path d="M22.3318 40.6084V45.7152L20.8955 49.2919H27.8986L26.4623 45.7152V41.7255" stroke="#333333" stroke-width="1.5" stroke-miterlimit="10"/>
<path d="M25.5697 11C29.6822 10.9965 33.7704 11.6298 37.689 12.8775L37.7641 27.3438C37.771 29.6716 37.1936 31.9639 36.0849 34.0107C34.9762 36.0575 33.3716 37.7934 31.4182 39.0594L28.386 41.0027C27.5837 41.5089 26.6545 41.7776 25.7058 41.7776C24.7572 41.7776 23.8279 41.5089 23.0257 41.0027L19.9841 39.0688C18.0071 37.8266 16.3749 36.1064 15.2379 34.0671C14.1009 32.0277 13.4958 29.7349 13.4785 27.4001V12.9339C17.3864 11.6751 21.4642 11.0229 25.5697 11V11Z" fill="#E07D21" stroke="#E07D21" stroke-width="1.5" stroke-miterlimit="10"/>
<path d="M21.2705 31.5781C22.498 32.5948 24.0419 33.1511 25.6357 33.1511C27.2296 33.1511 28.7734 32.5948 30.0009 31.5781V31.5781" stroke="#333333" stroke-width="1.5" stroke-miterlimit="10"/>
<path d="M23.6738 23.1943C22.0685 21.0915 19.7498 21.0915 18.1445 23.1943" stroke="#333333" stroke-width="1.5" stroke-miterlimit="10"/>
<path d="M33.1269 23.1943C31.5217 21.0915 29.1935 21.0915 27.5977 23.1943" stroke="#333333" stroke-width="1.5" stroke-miterlimit="10"/>
</svg>
