<svg width="64" height="64" viewBox="0 0 64 64" fill="none" xmlns="http://www.w3.org/2000/svg">
<path d="M32.5867 43.187H19.6533" stroke="#333333" stroke-width="1.5" stroke-miterlimit="10"/>
<path d="M33.8262 49.5344C46.7062 49.5344 54.5729 43.921 54.5729 43.921V25.7744C54.5729 25.7744 49.4929 22.1477 43.6929 18.4544C42.8129 17.8944 40.3996 16.2544 38.2396 15.081C36.4129 14.081 34.0529 14.2277 33.0796 16.0544C32.6697 16.8105 32.5629 17.6943 32.7808 18.5263C32.9987 19.3583 33.525 20.0762 34.2529 20.5344L39.3596 23.7744C39.3914 23.7945 39.4159 23.8244 39.4293 23.8596C39.4426 23.8948 39.4441 23.9334 39.4336 23.9696C39.423 24.0057 39.401 24.0375 39.3708 24.06C39.3406 24.0825 39.3039 24.0946 39.2662 24.0944H17.1062C16.2717 24.0944 15.4713 24.4259 14.8812 25.016C14.2911 25.6061 13.9596 26.4065 13.9596 27.241V27.241C13.9452 27.6632 14.0161 28.0838 14.1678 28.478C14.3195 28.8722 14.549 29.2318 14.8426 29.5354C15.1363 29.8389 15.488 30.0803 15.8769 30.2451C16.2658 30.4098 16.6839 30.4946 17.1062 30.4944H12.5729C11.7384 30.4944 10.938 30.8259 10.3479 31.416C9.75776 32.0061 9.42623 32.8065 9.42623 33.641V33.641C9.41915 34.0587 9.49531 34.4737 9.65028 34.8616C9.80524 35.2496 10.0359 35.6028 10.3288 35.9006C10.6217 36.1985 10.971 36.4351 11.3563 36.5965C11.7416 36.758 12.1551 36.8411 12.5729 36.841H14.1462C13.3117 36.841 12.5113 37.1726 11.9212 37.7627C11.3311 38.3528 10.9996 39.1532 10.9996 39.9877V39.9877C10.9996 40.4009 11.081 40.8101 11.2391 41.1919C11.3972 41.5737 11.629 41.9205 11.9212 42.2127C12.2134 42.5049 12.5603 42.7367 12.9421 42.8949C13.3238 43.053 13.733 43.1344 14.1462 43.1344H19.6529C18.8184 43.1344 18.018 43.4659 17.4279 44.056C16.8378 44.6461 16.5062 45.4465 16.5062 46.2811V46.2811C16.5062 47.1156 16.8378 47.916 17.4279 48.5061C18.018 49.0962 18.8184 49.4277 19.6529 49.4277L33.8262 49.5344Z" stroke="#333333" stroke-width="1.5" stroke-miterlimit="10"/>
<path d="M17.0938 30.4944H33.0804" stroke="#333333" stroke-width="1.5" stroke-miterlimit="10"/>
<path d="M14.1465 36.8406H33.0798" stroke="#333333" stroke-width="1.5" stroke-miterlimit="10"/>
<path d="M19.6533 43.187H33.08" stroke="#333333" stroke-width="1.5" stroke-miterlimit="10"/>
</svg>
