<svg width="64" height="64" viewBox="0 0 64 64" fill="none" xmlns="http://www.w3.org/2000/svg">
<path d="M54.9101 22.9902H9.08008V49.3402H54.9101V22.9902Z" stroke="#333333" stroke-width="1.5" stroke-miterlimit="10"/>
<path d="M28.3099 18.0801H9.48988L6.87988 22.9901H8.79988H31.9999H55.1999H57.1199L54.5099 18.0801H35.6899" stroke="#333333" stroke-width="1.5" stroke-miterlimit="10"/>
<path d="M23.0703 22.9499H40.9303L32.0003 14.6499L23.0703 22.9499Z" stroke="#333333" stroke-width="1.5" stroke-miterlimit="10"/>
<path d="M15.8496 31.6401V27.6201" stroke="#333333" stroke-width="1.5" stroke-miterlimit="10"/>
<path d="M23.9199 31.6401V27.6201" stroke="#333333" stroke-width="1.5" stroke-miterlimit="10"/>
<path d="M32 31.6401V27.6201" stroke="#333333" stroke-width="1.5" stroke-miterlimit="10"/>
<path d="M40.0801 31.6401V27.6201" stroke="#333333" stroke-width="1.5" stroke-miterlimit="10"/>
<path d="M48.1504 31.6401V27.6201" stroke="#333333" stroke-width="1.5" stroke-miterlimit="10"/>
<path d="M15.8496 38.6499V34.6299" stroke="#333333" stroke-width="1.5" stroke-miterlimit="10"/>
<path d="M48.1504 38.6499V34.6299" stroke="#333333" stroke-width="1.5" stroke-miterlimit="10"/>
<path d="M15.8496 45.6601V41.6401" stroke="#333333" stroke-width="1.5" stroke-miterlimit="10"/>
<path d="M48.1504 45.6601V41.6401" stroke="#333333" stroke-width="1.5" stroke-miterlimit="10"/>
<path d="M40.8603 37.0801H23.0703V49.3501H40.8603V37.0801Z" stroke="#333333" stroke-width="1.5" stroke-miterlimit="10"/>
<path d="M28.7998 37.0801V49.3401" stroke="#333333" stroke-width="1.5" stroke-miterlimit="10"/>
<path d="M34.9697 37.0801V49.3401" stroke="#333333" stroke-width="1.5" stroke-miterlimit="10"/>
</svg>
