<svg width="64" height="64" viewBox="0 0 64 64" fill="none" xmlns="http://www.w3.org/2000/svg">
<path d="M46.1348 32.6704V39.3404C46.1217 40.6906 45.5768 41.9811 44.6183 42.9321C43.6598 43.8831 42.3651 44.4178 41.0148 44.4204H34.2148" stroke="#333333" stroke-width="1.5" stroke-miterlimit="10"/>
<path d="M33.5748 41.5601H13.7748C12.4238 41.5549 11.1297 41.0158 10.1744 40.0605C9.21908 39.1052 8.68007 37.8111 8.6748 36.4601V21.2201C8.67745 19.8683 9.21562 18.5727 10.1715 17.6168C11.1273 16.6609 12.423 16.1228 13.7748 16.1201H38.7748C40.1275 16.1227 41.4242 16.6606 42.3817 17.6162C43.3391 18.5718 43.8795 19.8674 43.8848 21.2201V32.0601" stroke="#333333" stroke-width="1.5" stroke-miterlimit="10"/>
<path d="M15.3743 24.0903H18.6643V28.9803C18.6616 29.4162 18.4866 29.8333 18.1775 30.1406C17.8683 30.4479 17.4501 30.6203 17.0143 30.6203V30.6203C16.5767 30.6203 16.157 30.4465 15.8475 30.1371C15.5381 29.8276 15.3643 29.4079 15.3643 28.9703V24.0903H15.3743Z" stroke="#333333" stroke-width="1.5" stroke-miterlimit="10"/>
<path d="M33.5745 24.0903H36.8645V28.9803C36.8645 29.4179 36.6906 29.8376 36.3812 30.1471C36.0717 30.4565 35.6521 30.6303 35.2145 30.6303C34.7768 30.6303 34.3572 30.4565 34.0477 30.1471C33.7383 29.8376 33.5645 29.4179 33.5645 28.9803V24.0903H33.5745Z" stroke="#333333" stroke-width="1.5" stroke-miterlimit="10"/>
<path d="M36.8643 26.3604H43.8343" stroke="#333333" stroke-width="1.5" stroke-miterlimit="10"/>
<path d="M18.665 26.3604H33.575" stroke="#333333" stroke-width="1.5" stroke-miterlimit="10"/>
<path d="M8.6748 26.3604H15.3748" stroke="#333333" stroke-width="1.5" stroke-miterlimit="10"/>
<path d="M20.0145 11.2002H32.4445C33.0893 11.2002 33.7278 11.3272 34.3235 11.5739C34.9192 11.8207 35.4605 12.1824 35.9164 12.6383C36.3724 13.0942 36.734 13.6355 36.9808 14.2312C37.2275 14.8269 37.3545 15.4654 37.3545 16.1102H15.1445C15.1445 14.8149 15.6563 13.572 16.5685 12.6524C17.4806 11.7327 18.7193 11.2107 20.0145 11.2002V11.2002Z" stroke="#333333" stroke-width="1.5" stroke-miterlimit="10"/>
<path d="M42.6442 50.1102C47.6534 50.1102 51.7142 46.0494 51.7142 41.0402C51.7142 36.031 47.6534 31.9702 42.6442 31.9702C37.635 31.9702 33.5742 36.031 33.5742 41.0402C33.5742 46.0494 37.635 50.1102 42.6442 50.1102Z" stroke="#333333" stroke-width="1.5" stroke-miterlimit="10"/>
<path d="M49.4951 46.9702L55.3251 52.8002" stroke="#333333" stroke-width="1.5" stroke-miterlimit="10"/>
<path d="M37.7051 40.2705C37.7051 39.7373 37.8101 39.2093 38.0141 38.7168C38.2182 38.2242 38.5172 37.7766 38.8942 37.3996C39.2712 37.0226 39.7188 36.7235 40.2114 36.5195C40.704 36.3155 41.2319 36.2104 41.7651 36.2104" stroke="#333333" stroke-width="1.5" stroke-miterlimit="10"/>
<path d="M23.9443 21.0503H28.5543" stroke="#333333" stroke-width="1.5" stroke-miterlimit="10"/>
</svg>
