<svg width="64" height="64" viewBox="0 0 64 64" fill="none" xmlns="http://www.w3.org/2000/svg">
<path d="M29.5662 53.4332C36.6649 53.4332 42.4196 47.6786 42.4196 40.5799C42.4196 33.4812 36.6649 27.7266 29.5662 27.7266C22.4675 27.7266 16.7129 33.4812 16.7129 40.5799C16.7129 47.6786 22.4675 53.4332 29.5662 53.4332Z" stroke="#333333" stroke-width="1.5" stroke-miterlimit="10"/>
<path d="M29.5664 27.7266H36.2331C39.642 27.7266 42.9113 29.0807 45.3218 31.4912C47.7322 33.9017 49.0864 37.171 49.0864 40.5799C49.0864 43.9888 47.7322 47.2581 45.3218 49.6686C42.9113 52.079 39.642 53.4332 36.2331 53.4332H29.5664" stroke="#333333" stroke-width="1.5" stroke-miterlimit="10"/>
<path d="M24.8734 28.6064L13.2734 10.5664H24.3401L35.3801 27.7131" stroke="#333333" stroke-width="1.5" stroke-miterlimit="10"/>
<path d="M39.2868 28.5264L50.7268 10.5664H39.6602L32.0068 22.4731" stroke="#333333" stroke-width="1.5" stroke-miterlimit="10"/>
<path d="M26.0332 40.0727L29.0065 37.0861C29.0819 37.0122 29.1775 36.9623 29.2812 36.9428C29.3849 36.9233 29.4921 36.9349 29.5891 36.9763C29.6862 37.0177 29.7688 37.087 29.8265 37.1754C29.8842 37.2637 29.9144 37.3672 29.9132 37.4727V44.8861" stroke="#333333" stroke-width="1.5" stroke-miterlimit="10"/>
</svg>
