<svg width="64" height="64" viewBox="0 0 64 64" fill="none" xmlns="http://www.w3.org/2000/svg">
<path d="M33.1035 33.6272L17.8768 28.7205C16.9867 28.4736 16.0458 28.4761 15.1569 28.7277C14.2681 28.9793 13.4655 29.4703 12.8368 30.1472L8.06348 35.0272V51.5605L17.3168 48.5872C18.5713 48.0289 19.9537 47.8215 21.3168 47.9872L31.9835 49.3205C33.7916 49.5126 35.6085 49.0489 37.1035 48.0138L54.4368 36.3872C55.1703 35.8952 55.6826 35.1361 55.8644 34.2718C56.0463 33.4075 55.8832 32.5063 55.4101 31.7605V31.7605C55.1716 31.3825 54.8603 31.0556 54.4943 30.7989C54.1283 30.5423 53.7149 30.3609 53.2782 30.2654C52.8415 30.1699 52.3902 30.1621 51.9505 30.2425C51.5108 30.3229 51.0914 30.4899 50.7168 30.7338L37.1035 39.5472" stroke="#333333" stroke-width="1.5" stroke-miterlimit="10"/>
<path d="M21.1025 37.0795L33.2892 40.7995C34.1361 41.0479 35.0464 40.9572 35.8277 40.5467C36.609 40.1361 37.2 39.4378 37.4759 38.5995C37.6126 38.1749 37.6642 37.7275 37.6275 37.2829C37.5909 36.8384 37.4668 36.4055 37.2624 36.009C37.058 35.6126 36.7773 35.2604 36.4363 34.9727C36.0954 34.6851 35.7011 34.4676 35.2759 34.3328L33.1025 33.6128" stroke="#333333" stroke-width="1.5" stroke-miterlimit="10"/>
<path d="M30.4364 24.1465C29.7121 24.1465 28.9949 24.2894 28.326 24.5669C27.657 24.8445 27.0494 25.2513 26.5378 25.7641C26.0263 26.2768 25.621 26.8854 25.345 27.5551C25.0691 28.2247 24.9279 28.9422 24.9297 29.6665V30.9998" stroke="#333333" stroke-width="1.5" stroke-miterlimit="10"/>
<path d="M36.876 24.1467C37.6047 24.1397 38.3276 24.2773 39.0028 24.5518C39.6779 24.8262 40.2919 25.2319 40.809 25.7453C41.3262 26.2588 41.7363 26.8698 42.0156 27.5429C42.2949 28.2161 42.4378 28.938 42.436 29.6667V36.0934" stroke="#333333" stroke-width="1.5" stroke-miterlimit="10"/>
<path d="M33.2761 12.4395H33.9961C35.2126 12.4395 36.3792 12.9227 37.2394 13.7829C38.0995 14.643 38.5828 15.8097 38.5828 17.0261V20.9595C38.5828 21.5583 38.4648 22.1512 38.2357 22.7045C38.0065 23.2577 37.6706 23.7604 37.2472 24.1839C36.8238 24.6073 36.3211 24.9432 35.7678 25.1723C35.2146 25.4015 34.6216 25.5195 34.0228 25.5195H33.3028C32.697 25.5195 32.0971 25.4001 31.5373 25.1683C30.9776 24.9364 30.4691 24.5966 30.0407 24.1682C29.6123 23.7399 29.2725 23.2313 29.0406 22.6716C28.8088 22.1119 28.6895 21.512 28.6895 20.9061V17.0261C28.6895 15.8097 29.1727 14.643 30.0329 13.7829C30.893 12.9227 32.0597 12.4395 33.2761 12.4395V12.4395Z" stroke="#333333" stroke-width="1.5" stroke-miterlimit="10"/>
</svg>
