<svg width="64" height="64" viewBox="0 0 64 64" fill="none" xmlns="http://www.w3.org/2000/svg">
<path d="M31.9999 52.0799C43.0898 52.0799 52.0799 43.0898 52.0799 31.9999C52.0799 20.91 43.0898 11.9199 31.9999 11.9199C20.91 11.9199 11.9199 20.91 11.9199 31.9999C11.9199 43.0898 20.91 52.0799 31.9999 52.0799Z" stroke="#333333" stroke-width="1.5" stroke-miterlimit="10"/>
<path d="M51.8939 29.6659C51.8939 29.6659 49.5873 24.3326 44.9873 27.7459C40.3873 31.1592 40.9073 36.1726 38.0273 42.6926C36.3777 46.0354 34.2085 49.0957 31.6006 51.7592" stroke="#333333" stroke-width="1.5" stroke-miterlimit="10"/>
<path d="M34.3202 12.1062C34.3202 12.1062 39.6536 14.3995 36.2402 19.0129C32.8269 23.6262 27.8136 23.0929 21.3069 25.9862C17.9671 27.641 14.9077 29.8096 12.2402 32.4129" stroke="#333333" stroke-width="1.5" stroke-miterlimit="10"/>
<path d="M45.9604 18.0398L18.3604 45.6398" stroke="#333333" stroke-width="1.5" stroke-miterlimit="10"/>
<path d="M47.4265 44.4666C47.5451 40.7715 46.9047 37.0914 45.5449 33.6536C44.1851 30.2158 42.1348 27.0933 39.5206 24.4792C36.9065 21.865 33.784 19.8147 30.3462 18.4549C26.9084 17.0951 23.2283 16.4547 19.5332 16.5732" stroke="#333333" stroke-width="1.5" stroke-miterlimit="10"/>
</svg>
