<svg width="64" height="64" viewBox="0 0 64 64" fill="none" xmlns="http://www.w3.org/2000/svg">
<path d="M44.5665 49.0672H19.4198C18.2888 49.1179 17.1838 48.7185 16.3466 47.9563C15.5095 47.1941 15.0084 46.1313 14.9531 45.0005L17.5131 19.3205C17.6667 18.2785 18.1991 17.3297 19.0084 16.6557C19.8177 15.9817 20.8472 15.6297 21.8998 15.6672H42.0865C43.1398 15.6267 44.1708 15.9776 44.9808 16.6522C45.7908 17.3267 46.3224 18.2773 46.4731 19.3205L49.0465 45.0005C48.9912 46.1337 48.4883 47.1987 47.6482 47.9612C46.8082 48.7238 45.6997 49.1216 44.5665 49.0672Z" stroke="#333333" stroke-width="1.5" stroke-miterlimit="10"/>
<path d="M18.5264 54.3736L23.553 49.0669" stroke="#333333" stroke-width="1.5" stroke-miterlimit="10"/>
<path d="M45.4056 54.3736L40.3789 49.0669" stroke="#333333" stroke-width="1.5" stroke-miterlimit="10"/>
<path d="M16.0068 33.8672H47.9135" stroke="#333333" stroke-width="1.5" stroke-miterlimit="10"/>
<path d="M17.2188 21.7871H46.7121" stroke="#333333" stroke-width="1.5" stroke-miterlimit="10"/>
<path d="M19.6992 39.4673L26.4992 40.9073" stroke="#333333" stroke-width="1.5" stroke-miterlimit="10"/>
<path d="M44.2326 39.4673L37.4326 40.9073" stroke="#333333" stroke-width="1.5" stroke-miterlimit="10"/>
<path d="M29.9795 15.6671L36.5662 9.92041" stroke="#333333" stroke-width="1.5" stroke-miterlimit="10"/>
<path d="M49.0335 9.62695H16.0068" stroke="#333333" stroke-width="1.5" stroke-miterlimit="10"/>
</svg>
