<svg width="64" height="64" viewBox="0 0 64 64" fill="none" xmlns="http://www.w3.org/2000/svg">
<path d="M42.3989 30.3686V15.239L30.8067 12L19.2145 15.239L7.64355 12V41.1724L14.3879 43.0582" fill="white"/>
<path d="M42.3989 30.3686V15.239L30.8067 12L19.2145 15.239L7.64355 12V41.1724L14.3879 43.0582" stroke="#333333" stroke-width="1.5" stroke-miterlimit="10"/>
<path d="M19.2354 15.2393V30.3688" stroke="#333333" stroke-width="1.5" stroke-miterlimit="10"/>
<path d="M30.8066 30.3682V12.0103" stroke="#333333" stroke-width="1.5" stroke-miterlimit="10"/>
<path d="M14.6865 39.3716H56.3568V45.9455C56.3568 46.5926 56.0997 47.2132 55.6421 47.6708C55.1846 48.1283 54.564 48.3854 53.9169 48.3854H17.0838C16.4441 48.3742 15.8344 48.1122 15.386 47.6559C14.9376 47.1995 14.6864 46.5853 14.6865 45.9455V39.3716Z" fill="#0F6D95"/>
<path d="M14.6865 39.3713V32.8081C14.6893 32.1618 14.9473 31.5429 15.4043 31.0859C15.8612 30.6289 16.4802 30.371 17.1264 30.3682H53.9169C54.5631 30.371 55.1821 30.6289 55.639 31.0859C56.096 31.5429 56.354 32.1618 56.3568 32.8081V39.3713H14.6865Z" fill="white"/>
<path d="M20.5253 48.3851H17.0838C16.445 48.3713 15.8369 48.1084 15.3891 47.6526C14.9412 47.1969 14.6892 46.5842 14.6865 45.9452V32.8081C14.6893 32.1618 14.9473 31.5429 15.4043 31.0859C15.8612 30.6289 16.4802 30.371 17.1264 30.3682H53.9169C54.5631 30.371 55.1821 30.6289 55.639 31.0859C56.096 31.5429 56.354 32.1618 56.3568 32.8081V45.9452C56.354 46.5915 56.096 47.2104 55.639 47.6674C55.1821 48.1244 54.5631 48.3823 53.9169 48.3851H50.4754" stroke="#333333" stroke-width="1.5" stroke-miterlimit="10"/>
<path d="M24.1485 44.7734C24.8647 44.7748 25.5647 44.9859 26.1622 45.3808C26.6098 45.6741 26.9859 46.064 27.2629 46.5218C27.5399 46.9796 27.7107 47.4937 27.7628 48.0262C27.815 48.5587 27.747 49.0962 27.5641 49.599C27.3811 50.1019 27.0878 50.5573 26.7056 50.9318C26.2019 51.4418 25.5556 51.7873 24.8517 51.9227C24.1373 52.0734 23.394 52.0028 22.7208 51.7203C21.9498 51.3996 21.3138 50.8217 20.9209 50.0849C20.528 49.3481 20.4026 48.498 20.5658 47.6791C20.7291 46.8602 21.171 46.1232 21.8165 45.5935C22.4619 45.0637 23.2709 44.7739 24.1059 44.7734H24.1485Z" fill="white" stroke="#333333" stroke-width="1.5" stroke-miterlimit="10"/>
<path d="M46.8531 44.7734C47.5692 44.7748 48.2693 44.9859 48.8668 45.3808C49.4642 45.7736 49.9286 46.3382 50.1986 47.0003C50.4685 47.6613 50.537 48.3874 50.3955 49.0873C50.2541 49.7872 49.9089 50.4296 49.4035 50.934C48.898 51.4383 48.2547 51.782 47.5545 51.9219C46.8543 52.0618 46.1284 51.9916 45.468 51.7203C44.8043 51.4487 44.2369 50.9853 43.8382 50.3892C43.4396 49.7932 43.228 49.0917 43.2305 48.3747C43.2361 47.4176 43.6203 46.5017 44.299 45.8269C44.9778 45.1522 45.896 44.7734 46.8531 44.7734V44.7734Z" fill="white" stroke="#333333" stroke-width="1.5" stroke-miterlimit="10"/>
<path d="M14.6436 39.3716H56.3564" stroke="#333333" stroke-width="1.5" stroke-miterlimit="10"/>
<path d="M46.8643 30.3682V39.3713" stroke="#333333" stroke-width="1.5" stroke-miterlimit="10"/>
<path d="M35.5059 30.3682V39.3713" stroke="#333333" stroke-width="1.5" stroke-miterlimit="10"/>
<path d="M24.1377 30.3682V39.3713" stroke="#333333" stroke-width="1.5" stroke-miterlimit="10"/>
<path d="M43.2304 48.3853H27.7705" stroke="#333333" stroke-width="1.5" stroke-miterlimit="10"/>
<path d="M56.3569 39.3716V45.9455C56.3541 46.5917 56.0962 47.2107 55.6392 47.6677C55.1822 48.1246 54.5633 48.3826 53.917 48.3854H50.4756" stroke="#333333" stroke-width="1.5" stroke-miterlimit="10"/>
</svg>
