<svg width="64" height="64" viewBox="0 0 64 64" fill="none" xmlns="http://www.w3.org/2000/svg">
<path d="M31.1211 44.1732V56.1332H36.1478V42.1865" stroke="#333333" stroke-width="1.5" stroke-miterlimit="10"/>
<path d="M24.068 43.9201C26.173 44.5874 28.406 44.7468 30.5845 44.3853C32.7629 44.0237 34.8248 43.1515 36.6013 41.8401C36.6455 41.8329 36.6905 41.8329 36.7347 41.8401C42.2013 44.7201 48.2813 43.9467 50.308 40.1067C51.708 37.4401 50.8013 34.0401 48.3213 31.2267C52.9613 29.2934 55.4013 24.4534 53.8013 20.3201C52.2013 16.1867 47.2947 14.3201 42.628 15.8801C41.2664 13.5492 39.329 11.6072 37.0013 10.2401C30.668 6.33341 22.8413 7.36008 19.6947 12.5067C18.5321 14.4438 18.1017 16.7331 18.4813 18.9601C18.4813 18.9601 9.70801 20.2134 9.70801 27.9067C9.70801 36.6001 17.9213 36.4134 17.9213 36.4134C18.1593 38.1079 18.8586 39.7043 19.9426 41.0282C21.0267 42.3521 22.4538 43.3525 24.068 43.9201V43.9201Z" stroke="#333333" stroke-width="1.5" stroke-miterlimit="10"/>
</svg>
