<svg width="64" height="64" viewBox="0 0 64 64" fill="none" xmlns="http://www.w3.org/2000/svg">
<path d="M29.9287 28.1751V22.9551" stroke="#333333" stroke-width="1.5" stroke-miterlimit="10"/>
<path d="M33.6887 36.585V53.655H29.9287V36.585" stroke="#333333" stroke-width="1.5" stroke-miterlimit="10"/>
<path d="M33.6885 22.9551V28.1751" stroke="#333333" stroke-width="1.5" stroke-miterlimit="10"/>
<path d="M29.9287 14.5552V12.2152C29.9314 11.7183 30.1306 11.2427 30.4829 10.8923C30.8352 10.5419 31.3118 10.3452 31.8087 10.3452V10.3452C32.3056 10.3452 32.7823 10.5419 33.1346 10.8923C33.4868 11.2427 33.6861 11.7183 33.6887 12.2152V14.5552" stroke="#333333" stroke-width="1.5" stroke-miterlimit="10"/>
<path d="M47.7193 22.9552H14.3193V14.5552H47.7193L51.2993 18.7552L47.7193 22.9552Z" stroke="#333333" stroke-width="1.5" stroke-miterlimit="10"/>
<path d="M34.6892 36.5853H16.2792L12.6992 32.3753L16.2792 28.1753H34.6892H49.6792V36.5853H34.6892Z" stroke="#333333" stroke-width="1.5" stroke-miterlimit="10"/>
<path d="M21.8294 18.7554H17.6494" stroke="#333333" stroke-width="1.5" stroke-miterlimit="10"/>
<path d="M39.3294 18.7554H35.1494" stroke="#333333" stroke-width="1.5" stroke-miterlimit="10"/>
<path d="M45.179 18.7554H40.999" stroke="#333333" stroke-width="1.5" stroke-miterlimit="10"/>
<path d="M23.6192 32.375H19.4492" stroke="#333333" stroke-width="1.5" stroke-miterlimit="10"/>
<path d="M33.2991 18.7554H23.6191" stroke="#333333" stroke-width="1.5" stroke-miterlimit="10"/>
<path d="M46.0694 32.375H36.3994" stroke="#333333" stroke-width="1.5" stroke-miterlimit="10"/>
<path d="M34.7689 32.375H25.0889" stroke="#333333" stroke-width="1.5" stroke-miterlimit="10"/>
</svg>
