<svg version="1.2" xmlns="http://www.w3.org/2000/svg" viewBox="0 0 40 40" width="40" height="40">
	<title>activities-new-svg</title>
	<style>
		.s0 { fill: none;stroke: #333333;stroke-width: 1.5 } 
	</style>
	<path id="Layer" class="s0" d="m20.2 28.1h-9.5"/>
	<path id="Layer" class="s0" d="m10.7 32.6c-0.6 0-1.2-0.2-1.6-0.6-0.5-0.5-0.7-1.1-0.7-1.7 0-0.6 0.2-1.2 0.7-1.6 0.4-0.4 1-0.7 1.6-0.7h-4.1q-0.4 0-0.8-0.2-0.5-0.1-0.8-0.5-0.3-0.3-0.5-0.7-0.2-0.4-0.2-0.9c0-0.6 0.3-1.2 0.7-1.6 0.4-0.5 1-0.7 1.6-0.7h-1.1q-0.5 0-0.9-0.2-0.4-0.2-0.8-0.5-0.3-0.3-0.5-0.8-0.1-0.4-0.1-0.9c0-0.6 0.2-1.2 0.7-1.6 0.4-0.4 1-0.7 1.6-0.7h3.3q-0.5 0-0.9-0.1-0.4-0.2-0.7-0.6-0.4-0.3-0.5-0.7-0.2-0.5-0.2-1c0-0.6 0.2-1.2 0.7-1.6 0.4-0.4 1-0.7 1.6-0.7h16.3q0 0 0.1 0 0 0 0-0.1 0-0.1 0-0.1l-3.8-2.4c-0.5-0.3-0.9-0.8-1.1-1.5q-0.2-0.9 0.3-1.8c0.7-1.3 2.4-1.4 3.7-0.7 1.6 0.9 3.4 2.1 4 2.5 4.3 2.7 8 5.4 8 5.4v13.3c0 0-5.7 4.1-15.2 4.1z"/>
	<path id="Layer" class="s0" d="m8.8 18.7h11.8"/>
	<path id="Layer" class="s0" d="m6.6 23.4h14"/>
	<path id="Layer" class="s0" d="m10.7 28.1h9.9"/>
</svg>