<svg width="24" height="24" viewBox="0 0 24 24" fill="none" xmlns="http://www.w3.org/2000/svg">
  <path fill-rule="evenodd" clip-rule="evenodd"
        d="M1.52993 21.61H22.4599C22.9499 21.61 23.3899 21.35 23.6299 20.93C23.8799 20.51 23.8699 20 23.6299 19.58L13.1599 1.77997C12.6699 0.949971 11.3299 0.949971 10.8399 1.77997L0.359932 19.58C0.119932 19.99 0.119932 20.51 0.359932 20.93C0.599932 21.36 1.03993 21.61 1.52993 21.61ZM22.1999 20.11H1.79993L11.9999 2.76997L22.1999 20.11ZM12.7499 7.69997H11.2499V14.48H12.7499V7.69997ZM11.9999 18.46C11.3699 18.46 10.8599 17.95 10.8599 17.32C10.8599 16.69 11.3699 16.18 11.9999 16.18C12.6299 16.18 13.1399 16.69 13.1399 17.32C13.1399 17.95 12.6299 18.46 11.9999 18.46Z"
        fill="currentColor"/>
</svg>
