<svg width="65" height="65" viewBox="0 0 65 65" fill="none" xmlns="http://www.w3.org/2000/svg">
<path d="M18.7305 48.846C19.3328 48.846 19.9291 48.7272 20.4855 48.4964C21.0418 48.2656 21.5471 47.9274 21.9726 47.501C22.398 47.0747 22.7351 46.5686 22.9647 46.0118C23.1943 45.4549 23.3118 44.8583 23.3105 44.256V15.666H49.9105V44.256C49.9105 45.4707 49.4279 46.6356 48.569 47.4946C47.7101 48.3535 46.5452 48.836 45.3305 48.836H18.7305" stroke="#333333" stroke-width="1.5"/>
<path d="M18.7304 48.846C18.1281 48.846 17.5317 48.7272 16.9754 48.4964C16.4191 48.2656 15.9137 47.9274 15.4883 47.501C15.0629 47.0746 14.7257 46.5686 14.4962 46.0117C14.2666 45.4549 14.1491 44.8583 14.1504 44.256V17.636" stroke="#333333" stroke-width="1.5"/>
<path d="M18.7305 17.636V44.826" stroke="#333333" stroke-width="1.5"/>
<path d="M28.291 21.656H35.631" stroke="#333333" stroke-width="1.5"/>
<path d="M28.291 25.696H42.051" stroke="#333333" stroke-width="1.5"/>
<path d="M44.4716 32.4961H29.1016V43.5561H44.4716V32.4961Z" stroke="#333333" stroke-width="1.5"/>
</svg>
