<svg width="530" height="386" viewBox="0 0 530 386" fill="none"
  xmlns="http://www.w3.org/2000/svg">
  <path d="M391.834 172.383C360.293 172.425 330.056 184.975 307.755 207.28C285.454 229.585 272.91 259.824 272.874 291.365L272.879 292.604L511.106 292.24L511.113 291.599C511.126 275.934 508.049 260.421 502.058 245.947C496.068 231.473 487.281 218.323 476.202 207.249C465.122 196.176 451.967 187.396 437.49 181.414C423.013 175.431 407.498 172.362 391.834 172.383Z" fill="#EF4E30"/>
  <path d="M428.445 149.211L392.775 149.175L392.917 18.2303L428.445 149.211Z" fill="#EF4E30"/>
  <path d="M392.776 149.174L357.078 149.13L392.917 18.2297L392.776 149.174Z" fill="white"/>
  <path d="M392.778 149.173L357.105 149.124L379.47 193.1L392.724 193.122L392.778 149.173Z" fill="#704B9D"/>
  <path d="M405.986 193.13L428.459 149.206L392.776 149.173L392.722 193.122L405.986 193.13Z" fill="#EF4E30"/>
  <path d="M41.9485 84.8435L28.625 89.2527L96.3336 293.85L109.657 289.441L41.9485 84.8435Z" fill="#704B9D"/>
  <path d="M71.3454 137.519L9.10449 137.45C46.7347 178.958 95.8674 179.015 133.594 137.625L71.3454 137.519Z" fill="#EF4E30"/>
  <path d="M9.09933 137.423L71.3654 137.487L133.601 137.662C95.9457 96.0935 46.8256 96.0338 9.09933 137.423Z" fill="white"/>
  <path d="M527.35 280.992L494.565 280.96C462.881 240.091 397.819 213.886 327.432 213.812C316.181 213.805 304.939 214.456 293.765 215.765C282.37 217.084 271.072 219.133 259.94 221.899C248.585 224.714 237.454 228.367 226.638 232.827L229.137 239.002L226.635 232.815C214.691 237.718 203.264 243.797 192.522 250.962C180.231 259.058 169.302 269.053 160.143 280.575L137.712 280.551L72.9568 84.8865L59.634 89.3026L127.345 293.912L163.42 293.948L234.657 294.027L267.874 294.067L290.657 294.088L309.813 294.118L327.335 294.138L491.254 294.353L527.341 294.387L527.35 280.992ZM177.748 280.552C183.328 274.759 189.427 269.49 195.97 264.811L215.638 280.59L177.748 280.552ZM237.013 280.622L207.667 257.12C213.955 253.418 220.456 250.091 227.136 247.155L253.924 280.655L237.013 280.622ZM271.092 280.665L240.1 241.895C245.89 239.77 251.884 237.894 258.008 236.214L279.917 280.669L271.092 280.665ZM294.802 280.69L271.215 232.956C277.158 231.689 283.22 230.635 289.349 229.79L301.32 280.709L294.802 280.69ZM315.1 280.682L302.781 228.237C308.772 227.693 314.767 227.369 320.73 227.222L320.637 280.76L315.1 280.682ZM339.32 280.712L334.019 280.706L334.112 227.167C340.069 227.321 345.966 227.665 351.804 228.198L339.32 280.712ZM353.032 280.672L365.114 229.724C371.181 230.588 377.143 231.65 383 232.911L359.311 280.673L353.032 280.672ZM374.222 280.688L396.291 236.164C402.343 237.826 408.243 239.714 413.955 241.782L382.697 280.707L374.222 280.688ZM399.815 280.727L427.004 247.092C433.62 249.997 440.062 253.285 446.296 256.938L416.303 280.868L399.815 280.727ZM437.677 280.757L458.028 264.487C464.85 269.308 471.192 274.775 476.966 280.811L437.677 280.757Z" fill="#704B9D"/>
  <path d="M269.351 94.7497C284.015 91.915 293.604 77.7295 290.77 63.0656C287.935 48.4017 273.749 38.8122 259.085 41.647C244.422 44.4818 234.832 58.6672 237.667 73.3311C240.502 87.995 254.687 97.5845 269.351 94.7497Z" fill="white"/>
</svg>
