<svg width="170" height="29" viewBox="0 0 170 29" fill="none" xmlns="http://www.w3.org/2000/svg">
<path fill-rule="evenodd" clip-rule="evenodd" d="M43.9707 19.3262V6.0191H50.1753C52.6874 6.0191 54.5613 7.10542 54.5613 9.39329C54.5613 11.0706 53.6915 12.0056 52.1853 12.501V12.5386C53.9817 12.9015 54.9092 13.8538 54.9092 15.4754C54.9092 18.6576 52.0682 19.3254 49.6527 19.3254H43.9715L43.9707 19.3262ZM47.566 13.6837V16.8087H48.6287C49.9428 16.8087 51.3147 16.6198 51.3147 15.267C51.3147 13.817 49.9041 13.6837 48.6674 13.6837H47.566ZM47.566 8.53583V11.2814H48.5702C49.7491 11.2814 50.9676 10.9953 50.9676 9.87061C50.9676 8.65183 49.8076 8.53583 48.6089 8.53583H47.566ZM57.6347 19.3262V6.0191H64.0505C66.4463 6.0191 68.3985 7.08661 68.3985 9.37369C68.3985 11.1474 67.5485 12.3293 65.809 12.7291V12.7683C66.9681 13.0724 67.0456 14.0834 67.7225 15.7035L69.0366 19.3246H65.2871L64.5146 16.9239C63.7793 14.636 63.3151 14.0646 61.982 14.0646H61.2285V19.3254H57.6347V19.3262ZM61.2285 8.53583V11.5479H62.1749C63.3349 11.5479 64.804 11.5111 64.804 10.0039C64.804 8.76469 63.5468 8.53583 62.1749 8.53583H61.2285ZM70.293 19.3262L75.4128 6.0191H79.8201L85.0182 19.3254H81.075L80.07 16.4857H75.008L73.9445 19.3254H70.2922L70.293 19.3262ZM79.2216 13.969L77.6173 8.76469H77.5777L75.8398 13.969H79.2216ZM88.2102 19.3262V8.65104H84.8862V6.02066H95.1281V8.65261H91.8048V19.327H88.2102V19.3262ZM97.5824 19.3262H101.177V6.0191H97.5824V19.3254V19.3262ZM104.365 18.9829C105.565 19.3654 107.129 19.555 108.386 19.555C111.381 19.555 114.319 18.62 114.319 15.1706C114.319 10.366 107.941 11.816 107.941 9.66056C107.941 8.49899 109.449 8.42218 110.357 8.42218C111.381 8.42218 112.425 8.61185 113.354 9.03196L113.586 6.28715C112.676 5.98148 111.4 5.79102 110.105 5.79102C107.4 5.79102 104.231 6.66885 104.231 9.87061C104.231 14.7136 110.608 13.15 110.608 15.6283C110.608 16.6958 109.526 16.9247 108.386 16.9247C106.897 16.9247 105.602 16.5437 104.674 16.0468L104.365 18.9829ZM117.218 19.3262H126.377V16.6958H120.812V6.02066H117.218V19.3262ZM127.634 19.3262L132.755 6.01988H137.162L142.36 19.3262H138.416L137.412 16.4865H132.35L131.287 19.3262H127.634H127.634ZM136.562 13.969L134.959 8.76469H134.919L133.18 13.969H136.562ZM146.618 19.3262L142.096 6.01988H145.922L148.918 16.4677H148.956L151.971 6.01988H155.662L151.064 19.3262H146.618ZM155.223 19.3262L160.346 6.0191H164.75L169.949 19.3254H166.005L165.003 16.4857H159.938L158.876 19.3254H155.223V19.3262ZM164.152 13.969L162.547 8.76469H162.507L160.769 13.969H164.152Z" 
fill="#d71920"/>
<mask id="mask0" style="mask-type:alpha" maskUnits="userSpaceOnUse" x="0" y="0" width="170" height="29">
<path d="M0 28.9451H169.949V0H0V28.9451Z" fill="#d71920"/>
</mask>
<g mask="url(#mask0)">
<path fill-rule="evenodd" clip-rule="evenodd" d="M0 28.9451H4.87544V24.1351H0V28.9451ZM9.75167 28.9451H14.6287V24.1351H9.75167V28.9451ZM19.418 28.9451H24.2934V24.1351H19.418V28.9451ZM29.3428 28.9451H34.2182V24.1351H29.3428V28.9451ZM34.219 19.325V0H29.342V4.93784H24.3804V0H19.5041V4.93784H4.87623V0H0V19.325H4.87544V9.7487H19.5041V19.325H24.3804V9.7487H29.342V19.325H34.219ZM9.75247 19.325H14.6279V14.4734H9.75167V19.325H9.75247Z" 
fill="#d71920"/>
</g>
</svg>
