<svg width="170" height="30" viewBox="0 0 170 30" fill="none" xmlns="http://www.w3.org/2000/svg">
<path fill-rule="evenodd" clip-rule="evenodd" d="M43.9707 20.0664V6.75933H50.1753C52.6874 6.75933 54.5613 7.84566 54.5613 10.1335C54.5613 11.8108 53.6915 12.7459 52.1853 13.2412V13.2788C53.9817 13.6417 54.9092 14.594 54.9092 16.2157C54.9092 19.3978 52.0682 20.0656 49.6527 20.0656H43.9715L43.9707 20.0664ZM47.566 14.424V17.5489H48.6287C49.9428 17.5489 51.3147 17.36 51.3147 16.0072C51.3147 14.5572 49.9041 14.424 48.6674 14.424H47.566ZM47.566 9.27606V12.0217H48.5702C49.7491 12.0217 50.9676 11.7356 50.9676 10.6108C50.9676 9.39206 49.8076 9.27606 48.6089 9.27606H47.566ZM57.6347 20.0664V6.75933H64.0505C66.4463 6.75933 68.3985 7.82684 68.3985 10.1139C68.3985 11.8876 67.5485 13.0696 65.809 13.4693V13.5085C66.9681 13.8126 67.0456 14.8237 67.7225 16.4438L69.0366 20.0648H65.2871L64.5146 17.6641C63.7793 15.3763 63.3151 14.8049 61.982 14.8049H61.2285V20.0656H57.6347V20.0664ZM61.2285 9.27606V12.2881H62.1749C63.3349 12.2881 64.804 12.2513 64.804 10.7441C64.804 9.50493 63.5468 9.27606 62.1749 9.27606H61.2285ZM70.293 20.0664L75.4128 6.75933H79.8201L85.0182 20.0656H81.075L80.07 17.226H75.008L73.9445 20.0656H70.2922L70.293 20.0664ZM79.2216 14.7093L77.6173 9.50493H77.5777L75.8398 14.7093H79.2216ZM88.2102 20.0664V9.39128H84.8862V6.7609H95.1281V9.39284H91.8048V20.0672H88.2102V20.0664ZM97.5824 20.0664H101.177V6.75933H97.5824V20.0656V20.0664ZM104.365 19.7231C105.565 20.1056 107.129 20.2953 108.386 20.2953C111.381 20.2953 114.319 19.3602 114.319 15.9108C114.319 11.1062 107.941 12.5562 107.941 10.4008C107.941 9.23922 109.449 9.16241 110.357 9.16241C111.381 9.16241 112.425 9.35209 113.354 9.7722L113.586 7.02739C112.676 6.72171 111.4 6.53125 110.105 6.53125C107.4 6.53125 104.231 7.40909 104.231 10.6108C104.231 15.4538 110.608 13.8902 110.608 16.3685C110.608 17.436 109.526 17.6649 108.386 17.6649C106.897 17.6649 105.602 17.284 104.674 16.7871L104.365 19.7231ZM117.218 20.0664H126.377V17.436H120.812V6.7609H117.218V20.0664ZM127.634 20.0664L132.755 6.76012H137.162L142.36 20.0664H138.416L137.412 17.2268H132.35L131.287 20.0664H127.634H127.634ZM136.562 14.7093L134.959 9.50493H134.919L133.18 14.7093H136.562ZM146.618 20.0664L142.096 6.76012H145.922L148.918 17.208H148.956L151.971 6.76012H155.662L151.064 20.0664H146.618ZM155.223 20.0664L160.346 6.75933H164.75L169.949 20.0656H166.005L165.003 17.226H159.938L158.876 20.0656H155.223V20.0664ZM164.152 14.7093L162.547 9.50493H162.507L160.769 14.7093H164.152Z" fill="#F23005"/>
<mask id="mask0_3788_126" style="mask-type:alpha" maskUnits="userSpaceOnUse" x="0" y="0" width="170" height="30">
<path d="M0 29.6854H169.949V0.740234H0V29.6854Z" fill="#D71920"/>
</mask>
<g mask="url(#mask0_3788_126)">
<path fill-rule="evenodd" clip-rule="evenodd" d="M0 29.6854H4.87544V24.8753H0V29.6854ZM9.75167 29.6854H14.6287V24.8753H9.75167V29.6854ZM19.418 29.6854H24.2934V24.8753H19.418V29.6854ZM29.3428 29.6854H34.2182V24.8753H29.3428V29.6854ZM34.219 20.0652V0.740234H29.342V5.67807H24.3804V0.740234H19.5041V5.67807H4.87623V0.740234H0V20.0652H4.87544V10.4889H19.5041V20.0652H24.3804V10.4889H29.342V20.0652H34.219ZM9.75247 20.0652H14.6279V15.2136H9.75167V20.0652H9.75247Z" fill="#F23005"/>
</g>
</svg>
