<svg width="174" height="228" viewBox="0 0 174 228" fill="none" xmlns="http://www.w3.org/2000/svg">
<g clip-path="url(#clip0_1:71)">
<path d="M19 41V136.639C19 174.127 49.5037 204.635 86.996 204.635C124.488 204.635 154.996 174.131 154.996 136.639V41H19Z" fill="#F23005"/>
<path d="M89 85.6559C88.9766 85.2099 88.7557 84.7889 88.3832 84.4805C88.0107 84.1721 87.5152 84 87 84C86.4848 84 85.9893 84.1721 85.6168 84.4805C85.2443 84.7889 85.0234 85.2099 85 85.6559V94H89V85.6559ZM87.7616 92.9342H86.2095V85.6559C86.2095 85.4776 86.2913 85.3065 86.4368 85.1804C86.5823 85.0543 86.7797 84.9835 86.9856 84.9835C87.1914 84.9835 87.3888 85.0543 87.5343 85.1804C87.6798 85.3065 87.7616 85.4776 87.7616 85.6559V92.9342Z" fill="white"/>
<path d="M94 85.7181C94 85.2625 93.842 84.8254 93.5607 84.5032C93.2794 84.181 92.8978 84 92.5 84C92.1022 84 91.7206 84.181 91.4393 84.5032C91.158 84.8254 91 85.2625 91 85.7181V94H94V85.7181ZM93.0981 92.935H91.9329V85.7181C91.9329 85.5411 91.9942 85.3714 92.1035 85.2462C92.2128 85.1211 92.361 85.0508 92.5155 85.0508C92.67 85.0508 92.8182 85.1211 92.9275 85.2462C93.0368 85.3714 93.0981 85.5411 93.0981 85.7181V92.935Z" fill="white"/>
<path d="M80 85.6559V94H83V85.6559C82.9825 85.2099 82.8168 84.7889 82.5374 84.4805C82.258 84.1721 81.8864 84 81.5 84C81.1136 84 80.742 84.1721 80.4626 84.4805C80.1832 84.7889 80.0175 85.2099 80 85.6559ZM80.9288 85.6559C80.9288 85.4776 80.9901 85.3065 81.0993 85.1804C81.2084 85.0543 81.3565 84.9835 81.5108 84.9835C81.6652 84.9835 81.8132 85.0543 81.9224 85.1804C82.0316 85.3065 82.0929 85.4776 82.0929 85.6559V92.927H80.9288V85.6559Z" fill="white"/>
<path d="M62.9982 93.6074C63.0081 93.4 62.9767 93.1928 62.9058 92.9983C62.835 92.8038 62.7263 92.6259 62.5862 92.4756C62.4461 92.3253 62.2776 92.2057 62.0908 92.1239C61.9041 92.0422 61.7031 92 61.5 92C61.2969 92 61.0959 92.0422 60.9092 92.1239C60.7224 92.2057 60.5539 92.3253 60.4138 92.4756C60.2737 92.6259 60.165 92.8038 60.0941 92.9983C60.0233 93.1928 59.9919 93.4 60.0018 93.6074V100H62.9982V93.6074ZM61.9319 98.9249H61.0432V93.6074C61.0432 93.487 61.0901 93.3715 61.1734 93.2863C61.2567 93.2012 61.3697 93.1533 61.4876 93.1533C61.6054 93.1533 61.7184 93.2012 61.8017 93.2863C61.8851 93.3715 61.9319 93.487 61.9319 93.6074V98.9249Z" fill="white"/>
<path d="M60 119H63V110H60V119ZM61.0676 111.036H61.9573V117.964H61.0676V111.036Z" fill="white"/>
<path d="M54 110H50V119H54V110ZM52.9796 117.964H50.9966V111.036H53.0034L52.9796 117.964Z" fill="white"/>
<path d="M55.9982 93.6074C56.0081 93.4 55.9767 93.1928 55.9059 92.9983C55.835 92.8038 55.7263 92.6259 55.5862 92.4756C55.4461 92.3253 55.2776 92.2057 55.0908 92.1239C54.9041 92.0422 54.7031 92 54.5 92C54.2969 92 54.0959 92.0422 53.9092 92.1239C53.7224 92.2057 53.5539 92.3253 53.4138 92.4756C53.2737 92.6259 53.165 92.8038 53.0941 92.9983C53.0233 93.1928 52.9919 93.4 53.0018 93.6074V100H55.9982V93.6074ZM54.9319 98.9249H54.0432V93.6074C54.0432 93.487 54.0901 93.3715 54.1734 93.2863C54.2567 93.2012 54.3697 93.1533 54.4876 93.1533C54.6054 93.1533 54.7184 93.2012 54.8017 93.2863C54.8851 93.3715 54.9319 93.487 54.9319 93.6074V98.9249Z" fill="white"/>
<path d="M50.9982 93.6074C51.0081 93.4 50.9767 93.1928 50.9059 92.9983C50.835 92.8038 50.7263 92.6259 50.5862 92.4756C50.4461 92.3253 50.2776 92.2057 50.0909 92.1239C49.9041 92.0422 49.7031 92 49.5 92C49.2969 92 49.0959 92.0422 48.9092 92.1239C48.7224 92.2057 48.5539 92.3253 48.4138 92.4756C48.2737 92.6259 48.165 92.8038 48.0942 92.9983C48.0233 93.1928 47.9919 93.4 48.0018 93.6074V100H50.9982V93.6074ZM49.9319 98.9249H49.0468V93.6074C49.0413 93.5446 49.0486 93.4813 49.0684 93.4216C49.0881 93.3618 49.1198 93.307 49.1614 93.2604C49.2031 93.2139 49.2537 93.1767 49.3102 93.1513C49.3666 93.1259 49.4276 93.1128 49.4893 93.1128C49.551 93.1128 49.612 93.1259 49.6685 93.1513C49.725 93.1767 49.7756 93.2139 49.8172 93.2604C49.8589 93.307 49.8906 93.3618 49.9103 93.4216C49.93 93.4813 49.9374 93.5446 49.9319 93.6074V98.9249Z" fill="white"/>
<path d="M114 94.3512C114 93.9928 113.842 93.6492 113.561 93.3958C113.279 93.1424 112.898 93 112.5 93C112.102 93 111.721 93.1424 111.439 93.3958C111.158 93.6492 111 93.9928 111 94.3512V100H114V94.3512ZM112.931 99.05H112.04V94.3512C112.04 94.2448 112.087 94.1428 112.171 94.0675C112.254 93.9923 112.368 93.95 112.486 93.95C112.604 93.95 112.717 93.9923 112.801 94.0675C112.884 94.1428 112.931 94.2448 112.931 94.3512V99.05Z" fill="white"/>
<path d="M111 119H114V110H111V119ZM112.071 111.036H112.964V117.964H112.071V111.036Z" fill="white"/>
<path d="M120 119H124V110H120V119ZM121.02 111.036H123.003V117.964H121.01L121.02 111.036Z" fill="white"/>
<path d="M121 94.2996C120.981 93.9492 120.815 93.6188 120.536 93.3769C120.257 93.1349 119.886 93 119.5 93C119.114 93 118.743 93.1349 118.464 93.3769C118.185 93.6188 118.019 93.9492 118 94.2996V100H121V94.2996ZM119.932 99.0386H119.043V94.2996C119.043 94.1922 119.09 94.0893 119.173 94.0134C119.256 93.9376 119.37 93.8949 119.488 93.8949C119.606 93.8949 119.719 93.9376 119.802 94.0134C119.886 94.0893 119.932 94.1922 119.932 94.2996V99.0386Z" fill="white"/>
<path d="M126 94.2996C125.981 93.9492 125.815 93.6188 125.536 93.3769C125.257 93.1349 124.886 93 124.5 93C124.114 93 123.743 93.1349 123.464 93.3769C123.185 93.6188 123.019 93.9492 123 94.2996V100H126V94.2996ZM124.932 99.0386H124.046V94.2996C124.041 94.2436 124.048 94.1872 124.068 94.134C124.088 94.0807 124.119 94.0318 124.161 93.9904C124.203 93.9489 124.253 93.9158 124.31 93.8931C124.366 93.8705 124.428 93.8588 124.489 93.8588C124.551 93.8588 124.612 93.8705 124.669 93.8931C124.725 93.9158 124.776 93.9489 124.818 93.9904C124.859 94.0318 124.891 94.0807 124.911 94.134C124.931 94.1872 124.938 94.2436 124.932 94.2996V99.0386Z" fill="white"/>
<path d="M78.2884 163.08V151.801H79.6584V154.876C79.6584 155.017 79.7136 155.151 79.812 155.251C79.9104 155.35 80.044 155.406 80.1837 155.407V155.407C80.3224 155.407 80.4555 155.352 80.5539 155.254C80.6523 155.156 80.708 155.023 80.709 154.884V151.801H83.0692V154.901C83.0692 155.043 83.1253 155.179 83.2251 155.279C83.325 155.38 83.4604 155.436 83.6016 155.436C83.7428 155.436 83.8782 155.38 83.9781 155.279C84.0779 155.179 84.134 155.043 84.134 154.901V151.801H86.4836V154.901C86.4836 155.043 86.5397 155.179 86.6395 155.279C86.7394 155.38 86.8748 155.436 87.016 155.436C87.1572 155.436 87.2926 155.38 87.3924 155.279C87.4923 155.179 87.5484 155.043 87.5484 154.901V151.801H89.9015V154.901C89.9015 155.043 89.9576 155.179 90.0574 155.279C90.1573 155.38 90.2927 155.436 90.4339 155.436C90.5751 155.436 90.7105 155.38 90.8104 155.279C90.9102 155.179 90.9663 155.043 90.9663 154.901V151.801H93.2697V154.923C93.2697 155.063 93.325 155.197 93.4234 155.297C93.5218 155.396 93.6554 155.453 93.795 155.454V155.454C93.9347 155.454 94.0687 155.398 94.1677 155.299C94.2668 155.201 94.3229 155.067 94.3239 154.926V151.801H95.7081V167H137L133.685 162.367V121.742H129.28V128.356H128.166V106.339L129.302 104.351L128.166 102.366V89.2909L129.302 87.3059L128.272 85.5027L129.465 83.9383L129.664 83.6781L124.812 73.9529H123.243V73.1083C123.771 72.9903 124.243 72.6951 124.582 72.2714C124.92 71.8477 125.105 71.3208 125.105 70.7777C125.105 70.2346 124.92 69.7077 124.582 69.284C124.243 68.8603 123.771 68.5651 123.243 68.4471V67.2176C123.243 67.0758 123.187 66.9399 123.087 66.8396C122.987 66.7394 122.852 66.6831 122.711 66.6831C122.57 66.6831 122.434 66.7394 122.334 66.8396C122.234 66.9399 122.178 67.0758 122.178 67.2176V68.4506C121.65 68.5686 121.178 68.8638 120.84 69.2875C120.501 69.7112 120.317 70.2381 120.317 70.7813C120.317 71.3244 120.501 71.8513 120.84 72.275C121.178 72.6987 121.65 72.9939 122.178 73.1119V73.9565H113.873V73.1119C114.401 72.9939 114.873 72.6987 115.212 72.275C115.55 71.8513 115.735 71.3244 115.735 70.7813C115.735 70.2381 115.55 69.7112 115.212 69.2875C114.873 68.8638 114.401 68.5686 113.873 68.4506V67.2176C113.873 67.0758 113.817 66.9399 113.717 66.8396C113.617 66.7394 113.482 66.6831 113.341 66.6831C113.2 66.6831 113.064 66.7394 112.964 66.8396C112.864 66.9399 112.808 67.0758 112.808 67.2176V68.4506C112.28 68.5686 111.808 68.8638 111.47 69.2875C111.131 69.7112 110.947 70.2381 110.947 70.7813C110.947 71.3244 111.131 71.8513 111.47 72.275C111.808 72.6987 112.28 72.9939 112.808 73.1119V73.9565H111.264L106.402 83.6781L107.793 85.5027L106.764 87.3059L107.9 89.2909V102.366L106.764 104.351L107.9 106.339V121.742H106.895V128.356H102.249V121.742H101.327V103.635L97.9867 100.94L98.9627 99.2264L97.8305 97.2414V81.401H98.5404V77.0961L99.2822 75.2537L98.622 73.6322L100.397 71.7185L94.4552 61.1594H92.858V60.4467C93.386 60.3287 93.8582 60.0335 94.1966 59.6098C94.535 59.186 94.7194 58.6591 94.7194 58.116C94.7194 57.5729 94.535 57.046 94.1966 56.6223C93.8582 56.1986 93.386 55.9034 92.858 55.7854V54.5345C92.858 54.3928 92.8019 54.2568 92.7021 54.1566C92.6023 54.0563 92.4668 54 92.3256 54C92.1844 54 92.049 54.0563 91.9492 54.1566C91.8493 54.2568 91.7933 54.3928 91.7933 54.5345V55.7676C91.2653 55.8856 90.7931 56.1808 90.4547 56.6045C90.1163 57.0282 89.9318 57.5551 89.9318 58.0982C89.9318 58.6413 90.1163 59.1682 90.4547 59.5919C90.7931 60.0156 91.2653 60.3109 91.7933 60.4288V61.1416H82.1925V60.4467C82.7206 60.3287 83.1927 60.0335 83.5311 59.6098C83.8695 59.186 84.054 58.6591 84.054 58.116C84.054 57.5729 83.8695 57.046 83.5311 56.6223C83.1927 56.1986 82.7206 55.9034 82.1925 55.7854V54.5345C82.1925 54.3928 82.1365 54.2568 82.0366 54.1566C81.9368 54.0563 81.8014 54 81.6602 54C81.519 54 81.3835 54.0563 81.2837 54.1566C81.1839 54.2568 81.1278 54.3928 81.1278 54.5345V55.7676C80.5998 55.8856 80.1276 56.1808 79.7892 56.6045C79.4508 57.0282 79.2664 57.5551 79.2664 58.0982C79.2664 58.6413 79.4508 59.1682 79.7892 59.5919C80.1276 60.0156 80.5998 60.3109 81.1278 60.4288V61.1416H79.5271L73.575 71.7042L73.8412 71.9858L75.3638 73.6179L74.7107 75.243L75.4525 77.0854V81.401H76.1624V97.2414L75.0302 99.2264L76.0098 100.94L72.6841 103.635V121.742H71.7187V128.356H67.0515V121.742H66.0896V106.339L67.2218 104.351L66.0896 102.366V89.2909L67.2218 87.3059L66.1961 85.5027L67.3851 83.9383L67.5839 83.6781L62.7462 73.9529H61.181V73.1083C61.709 72.9903 62.1812 72.6951 62.5196 72.2714C62.858 71.8477 63.0424 71.3208 63.0424 70.7777C63.0424 70.2346 62.858 69.7077 62.5196 69.284C62.1812 68.8603 61.709 68.5651 61.181 68.4471V67.2176C61.181 67.0758 61.1249 66.9399 61.0251 66.8396C60.9252 66.7394 60.7898 66.6831 60.6486 66.6831C60.5074 66.6831 60.372 66.7394 60.2722 66.8396C60.1723 66.9399 60.1162 67.0758 60.1162 67.2176V68.4506C59.5882 68.5686 59.1161 68.8638 58.7777 69.2875C58.4392 69.7112 58.2548 70.2381 58.2548 70.7813C58.2548 71.3244 58.4392 71.8513 58.7777 72.275C59.1161 72.6987 59.5882 72.9939 60.1162 73.1119V73.9565H51.811V73.1119C52.339 72.9939 52.8112 72.6987 53.1496 72.275C53.488 71.8513 53.6724 71.3244 53.6724 70.7813C53.6724 70.2381 53.488 69.7112 53.1496 69.2875C52.8112 68.8638 52.339 68.5686 51.811 68.4506V67.2176C51.811 67.0758 51.7549 66.9399 51.6551 66.8396C51.5552 66.7394 51.4198 66.6831 51.2786 66.6831C51.1374 66.6831 51.002 66.7394 50.9022 66.8396C50.8023 66.9399 50.7462 67.0758 50.7462 67.2176V68.4506C50.2182 68.5686 49.7461 68.8638 49.4076 69.2875C49.0692 69.7112 48.8848 70.2381 48.8848 70.7813C48.8848 71.3244 49.0692 71.8513 49.4076 72.275C49.7461 72.6987 50.2182 72.9939 50.7462 73.1119V73.9565H49.1881L44.3363 83.6817L44.5351 83.9418L45.7276 85.5063L44.6983 87.3095L45.8305 89.2945V102.37L44.6983 104.354L45.8305 106.343V128.359H44.7161V121.742H40.315V162.367L37 167H78.2884V163.08ZM79.6619 150.739H78.3239C78.3797 149.839 78.5199 148.947 78.7427 148.073H79.6726L79.6619 150.739ZM79.6619 147.015H79.0373C79.2178 146.481 79.4275 145.958 79.6655 145.447L79.6619 147.015ZM83.055 150.739H80.6983V148.073H83.0444L83.055 150.739ZM83.055 147.015H80.7125V144.353H83.0444L83.055 147.015ZM83.055 143.295H80.9255C81.5426 142.404 82.2569 141.585 83.055 140.853V143.295ZM86.4587 150.739H84.1091V148.073H86.4587V150.739ZM86.4587 147.015H84.1091V144.353H86.4587V147.015ZM86.4587 143.295H84.1091V140.629H86.4587V143.295ZM86.4587 139.574H84.6841C85.2505 139.187 85.8435 138.84 86.4587 138.537V139.574ZM89.8625 150.739H87.5093V148.073H89.8625V150.739ZM89.8625 147.015H87.5093V144.353H89.8625V147.015ZM89.8625 143.295H87.5093V140.629H89.8625V143.295ZM87.5093 139.574V138.537C88.1245 138.84 88.7175 139.187 89.2839 139.574H87.5093ZM93.2697 150.746H90.9272V148.081H93.2697V150.746ZM93.2697 147.022H90.9272V144.36H93.2981L93.2697 147.022ZM90.9272 143.302V140.861C91.7252 141.592 92.4394 142.411 93.0568 143.302H90.9272ZM94.3345 150.746V148.081H95.2538C95.473 148.955 95.6132 149.847 95.6726 150.746H94.3345ZM94.3345 147.022V145.515C94.5646 146.005 94.7649 146.508 94.9343 147.022H94.3345ZM134.941 165.952H96.7622V163.101H132.897L134.941 165.952ZM65.9051 84.145L65.3052 84.9325H57.9938L57.394 84.145H65.9051ZM58.3594 83.0759L59.9423 79.9007V83.0759H58.3594ZM61.0284 122.811H65.9973V128.37H61.0284V122.811ZM59.9636 121.742V128.356H58.3736V106.724H65.0284V121.742H59.9636ZM58.0967 88.6209L57.7915 88.0864L57.646 87.8334H65.6992L65.2484 88.6209H58.0967ZM65.0284 89.69V101.995H58.3842V89.6686H65.039L65.0284 89.69ZM57.646 86.7892L57.7915 86.5398L58.0967 86.0052H65.2484L65.6992 86.7892H57.6566H57.646ZM65.2484 103.05L65.6992 103.838H46.2103L46.661 103.05H65.2484ZM46.1996 87.8476H56.4321L56.8829 88.6352H46.661L46.1996 87.8476ZM57.3336 89.6686V101.974H46.8846V89.6686H57.3336ZM56.4428 86.7678H46.2103L46.661 85.9838H56.8935L56.4428 86.7678ZM46.6149 84.9254L46.0186 84.1378H56.0701L56.6699 84.9254H46.6149ZM65.7099 104.882L65.2591 105.666H46.661L46.2103 104.882H65.7099ZM46.8988 106.724H57.3478V128.356H55.3319V121.742H48.244V128.356H46.8846L46.8988 106.724ZM54.2813 122.796V128.356H49.3123V122.811L54.2813 122.796ZM48.0914 129.414H58.3097V133.961H48.0772L48.0914 129.414ZM53.724 135.016H63.9459V139.56H53.724V135.016ZM69.5679 140.629V145.176H59.3461V140.629H69.5679ZM64.9823 139.56V135.016H75.2005V139.56H64.9823ZM58.2955 140.629V145.176H48.0772V140.629H58.2955ZM53.7098 146.224H63.9317V150.768H53.7098V146.224ZM58.2955 151.826V156.373H48.0772V151.826H58.2955ZM53.7098 157.428H63.9317V162.029H53.7098V157.428ZM59.3461 156.359V151.826H69.5679V156.373L59.3461 156.359ZM64.9823 157.428H74.2564V162.029H64.9823V157.428ZM70.6185 156.359V151.826H74.2564V156.373L70.6185 156.359ZM64.9823 150.768V146.224H75.0692C74.6212 147.7 74.3565 149.226 74.2813 150.768H64.9823ZM70.6185 145.165V140.629H77.8767C76.8552 142.024 76.0311 143.554 75.4277 145.176L70.6185 145.165ZM76.2547 139.56V135.016H84.4854C82.2811 136.131 80.3204 137.675 78.7178 139.56H76.2547ZM81.8909 133.958V129.414H92.1091V133.961H87.1402L87.0018 133.901L86.8634 133.961L81.8909 133.958ZM77.2201 121.742V101.6H96.7799V121.742H95.1721V128.341H90.5155V121.742H83.4419V128.341H78.7817V121.742H77.2201ZM83.307 81.401V80.8735C83.3234 80.577 83.4522 80.298 83.6671 80.0939C83.882 79.8898 84.1665 79.7761 84.4623 79.7761C84.7581 79.7761 85.0426 79.8898 85.2575 80.0939C85.4723 80.298 85.6012 80.577 85.6176 80.8735V81.401H88.3789V80.8735C88.3789 80.5654 88.5008 80.2699 88.7178 80.0521C88.9348 79.8342 89.2291 79.7118 89.5359 79.7118C89.8428 79.7118 90.1371 79.8342 90.3541 80.0521C90.5711 80.2699 90.693 80.5654 90.693 80.8735V81.401H93.4543V80.8735C93.4707 80.577 93.5995 80.298 93.8144 80.0939C94.0293 79.8898 94.3138 79.7761 94.6096 79.7761C94.9054 79.7761 95.1899 79.8898 95.4048 80.0939C95.6196 80.298 95.7485 80.577 95.7649 80.8735V81.401H96.7799V96.8565H77.2201V81.401H78.2316V80.8735C78.2316 80.5654 78.3535 80.2699 78.5705 80.0521C78.7875 79.8342 79.0818 79.7118 79.3886 79.7118C79.6955 79.7118 79.9898 79.8342 80.2068 80.0521C80.4238 80.2699 80.5457 80.5654 80.5457 80.8735V81.401H83.307ZM96.7941 97.9114H97.0142L97.1455 98.1395L97.3194 98.4459L97.465 98.6989H76.5492L76.6948 98.4459L76.8687 98.1395L77 97.9114H96.7799H96.7941ZM97.3194 80.3461H96.7693C96.6514 79.8647 96.3761 79.4368 95.9875 79.131C95.5989 78.8251 95.1193 78.6589 94.6256 78.6589C94.1318 78.6589 93.6523 78.8251 93.2636 79.131C92.875 79.4368 92.5997 79.8647 92.4818 80.3461H91.6939C91.576 79.8647 91.3007 79.4368 90.9121 79.131C90.5234 78.8251 90.0439 78.6589 89.5501 78.6589C89.0564 78.6589 88.5768 78.8251 88.1882 79.131C87.7996 79.4368 87.5243 79.8647 87.4064 80.3461H86.622C86.5054 79.863 86.2305 79.4333 85.8414 79.126C85.4522 78.8187 84.9716 78.6516 84.4765 78.6516C83.9814 78.6516 83.5007 78.8187 83.1116 79.126C82.7225 79.4333 82.4476 79.863 82.331 80.3461H81.5466C81.4287 79.8647 81.1534 79.4368 80.7648 79.131C80.3761 78.8251 79.8966 78.6589 79.4028 78.6589C78.9091 78.6589 78.4295 78.8251 78.0409 79.131C77.6523 79.4368 77.377 79.8647 77.2591 80.3461H76.5492V77.5201H97.5111V80.3461H97.3194ZM76.6948 99.7538H97.4508L97.3052 100.007L97.1562 100.271L97.1313 100.313L97 100.541H77L76.8687 100.313L76.8438 100.271L76.6948 100.007L76.5492 99.7538H76.6948ZM89.472 122.796V128.356H84.5031V122.811L89.472 122.796ZM97.7524 135.016V139.56H95.2928C93.6887 137.675 91.7269 136.129 89.5217 135.013L97.7524 135.016ZM103.382 140.629V145.176H98.5688C97.9635 143.553 97.1357 142.022 96.1091 140.629H103.382ZM108.961 121.742V106.724H115.63V128.356H113.994V121.742H108.961ZM116.606 84.145L116.006 84.9325H108.695L108.095 84.145H116.606ZM114.058 83.0759V79.9007L115.641 83.0759H114.058ZM127.343 85.9909L127.79 86.775H117.554L117.106 85.9909H127.343ZM117.334 84.9218L117.933 84.1343H127.981L127.382 84.9218H117.33H117.334ZM117.557 87.8227H127.79L127.343 88.6209H117.106L117.557 87.8227ZM127.115 89.6686V101.974H116.666V89.6686H127.115ZM127.339 103.029L127.786 103.816H108.29L108.737 103.029H127.339ZM109.018 157.428V162.029H99.7436V157.428H109.018ZM99.7436 156.359V151.826H103.382V156.373L99.7436 156.359ZM104.432 156.359V151.826H114.65V156.373L104.432 156.359ZM120.287 146.21V150.753H110.068V146.224L120.287 146.21ZM115.705 145.141V140.629H125.923V145.176L115.705 145.141ZM110.068 157.403H120.287V162.004H110.068V157.403ZM115.705 156.334V151.826H125.923V156.373L115.705 156.334ZM121.341 157.403H132.634V162.004H121.341V157.403ZM126.977 156.334V151.826H132.634V156.373L126.977 156.334ZM121.341 150.728V146.224H132.634V150.768L121.341 150.728ZM126.988 145.165V140.629H132.645V145.176L126.988 145.165ZM121.341 139.56V135.016H132.634V139.56H121.341ZM125.923 133.961H115.705V129.414H125.923V133.961ZM119.69 128.356V122.811H124.659V128.37L119.69 128.356ZM125.724 128.356V121.742H118.64V128.356H116.666V106.724H127.115V128.356H125.724ZM108.748 105.666L108.301 104.882H127.797L127.35 105.666H108.748ZM116.201 87.8476H116.34L116.194 88.1006L115.889 88.6352H108.737L108.29 87.8476H116.201ZM108.294 86.7785L108.741 85.9945H115.896L116.201 86.5255L116.347 86.7785H108.29H108.294ZM115.63 89.6686V101.974H108.961V89.6686H115.63ZM108.258 122.811H112.929V128.37H107.96V122.811H108.258ZM120.287 135.03V139.56H110.068V135.016L120.287 135.03ZM114.65 140.629V145.176H104.432V140.629H114.65ZM109.018 139.56H98.7959V135.016H109.018V139.56ZM109.018 146.22V150.764H99.7152C99.6417 149.222 99.377 147.696 98.9272 146.22H109.018ZM130.335 122.811H132.634V128.37H130.335V122.811ZM130.335 129.428H132.634V133.976H126.988V129.414L130.335 129.428ZM124.148 75.0078L128.18 83.0901H126.242L122.21 75.0078H124.148ZM121.387 70.7813C121.387 70.5203 121.464 70.2651 121.607 70.0472C121.75 69.8294 121.954 69.6584 122.193 69.5554C122.306 69.5089 122.426 69.4778 122.547 69.4627C122.606 69.4532 122.665 69.4473 122.725 69.4449C122.783 69.4471 122.841 69.4531 122.899 69.4627C123.021 69.4781 123.14 69.5092 123.254 69.5554C123.493 69.6579 123.697 69.8287 123.84 70.0467C123.984 70.2646 124.06 70.5201 124.06 70.7813C124.06 71.0425 123.984 71.2979 123.84 71.5159C123.697 71.7338 123.493 71.9047 123.254 72.0072C123.141 72.055 123.021 72.0862 122.899 72.0998C122.841 72.1035 122.783 72.1035 122.725 72.0998C122.666 72.1033 122.607 72.1033 122.547 72.0998C122.425 72.0865 122.306 72.0553 122.193 72.0072C121.953 71.9045 121.75 71.7336 121.606 71.5157C121.463 71.2978 121.387 71.0424 121.387 70.7813V70.7813ZM121.032 75.0113L125.064 83.0937H123.094L119.062 75.0113H121.032ZM117.887 75.0113L121.919 83.0937H119.949L115.917 75.0113H117.887ZM112.028 70.7813C112.028 70.5204 112.105 70.2654 112.248 70.0476C112.391 69.8298 112.595 69.6588 112.833 69.5554C112.947 69.5092 113.066 69.4781 113.188 69.4627C113.246 69.4531 113.304 69.4471 113.362 69.4449C113.421 69.4473 113.481 69.4532 113.539 69.4627C113.661 69.4785 113.78 69.5096 113.894 69.5554C114.132 69.6591 114.335 69.8304 114.477 70.0482C114.62 70.266 114.695 70.5208 114.695 70.7813C114.695 71.0418 114.62 71.2966 114.477 71.5144C114.335 71.7322 114.132 71.9035 113.894 72.0072C113.781 72.0545 113.662 72.0857 113.539 72.0998C113.48 72.1033 113.421 72.1033 113.362 72.0998C113.304 72.1035 113.246 72.1035 113.188 72.0998C113.066 72.0862 112.946 72.055 112.833 72.0072C112.594 71.9041 112.391 71.7332 112.248 71.5153C112.104 71.2975 112.028 71.0423 112.028 70.7813V70.7813ZM114.757 75.0113L118.789 83.0937H116.819L112.791 75.0078L114.757 75.0113ZM110.622 77.6057L111.761 75.3178L113.004 77.8124V83.0973H110.622V77.6057ZM107.882 83.0937L109.568 79.7118V83.0937H107.882ZM104.432 129.421H114.65V133.968H104.432V129.421ZM103.367 129.421V133.968H93.1455V129.414H103.367V129.421ZM101.181 128.352H96.2121V122.811H101.181V128.352ZM100.258 104.137V121.742H97.8163V102.17L100.258 104.137ZM96.7799 67.4314L98.8421 71.0949H96.7799V67.4314ZM93.0852 62.2285H93.8412L95.7542 65.5783V71.1091H93.0958L93.0852 62.2285ZM91.0018 58.116C91.0005 57.8542 91.0758 57.5978 91.2184 57.3786C91.361 57.1593 91.5646 56.987 91.8039 56.883C91.9179 56.8373 92.0371 56.8062 92.1588 56.7903C92.2759 56.7661 92.3967 56.7661 92.5138 56.7903C92.6355 56.8062 92.7547 56.8373 92.8687 56.883C93.1067 56.9867 93.3093 57.158 93.4516 57.3758C93.5939 57.5936 93.6698 57.8484 93.6698 58.1089C93.6698 58.3694 93.5939 58.6242 93.4516 58.842C93.3093 59.0598 93.1067 59.2311 92.8687 59.3348C92.7558 59.3838 92.6361 59.4151 92.5138 59.4274C92.3967 59.4516 92.2759 59.4516 92.1588 59.4274C92.0365 59.4151 91.9168 59.3838 91.8039 59.3348C91.5638 59.2309 91.3595 59.0581 91.2168 58.8381C91.0741 58.6181 90.9993 58.3607 91.0018 58.0982V58.116ZM89.3656 62.2285H92.0204V71.1376H89.3656V62.2285ZM85.6566 62.2285H88.3115V71.1376H85.6566V62.2285ZM84.5918 62.2285V71.1376H81.937V62.2285H84.5918ZM80.3363 58.0982C80.3392 57.8391 80.4168 57.5864 80.5598 57.3708C80.7028 57.1551 80.905 56.9857 81.142 56.883C81.2558 56.8368 81.3751 56.8057 81.4969 56.7903C81.5544 56.7807 81.6125 56.7748 81.6708 56.7725C81.7303 56.7749 81.7895 56.7809 81.8483 56.7903C81.9701 56.8054 82.0895 56.8366 82.2032 56.883C82.4425 56.9855 82.6465 57.1563 82.7899 57.3743C82.9333 57.5922 83.0097 57.8477 83.0097 58.1089C83.0097 58.3701 82.9333 58.6256 82.7899 58.8435C82.6465 59.0615 82.4425 59.2323 82.2032 59.3348C82.0906 59.3847 81.9708 59.4159 81.8483 59.4274C81.7892 59.431 81.7299 59.431 81.6708 59.4274C81.6129 59.4311 81.5548 59.4311 81.4969 59.4274C81.3745 59.4155 81.2547 59.3843 81.142 59.3348C80.9014 59.2311 80.6967 59.0584 80.5534 58.8385C80.4101 58.6185 80.3346 58.361 80.3363 58.0982V58.0982ZM78.2564 65.5819L80.1553 62.2285H80.9113V71.1376H78.2564V65.5819ZM75.1402 71.1127L77.2059 67.4492V71.1127H75.1402ZM75.4525 72.1818H98.5475L97.7773 73.005H76.2334L75.4525 72.1818ZM76.3469 74.0598H97.6424L97.9157 74.744H76.0701L76.3469 74.0598ZM76.0701 75.7989H97.9264L97.6531 76.4831H76.3576L76.0701 75.7989ZM73.724 104.158L76.1659 102.188V121.742H73.724V104.158ZM72.7587 122.811H77.7276V128.37H72.7587V122.811ZM70.6291 129.428H80.8474V133.976H70.6185L70.6291 129.428ZM69.5643 129.428V133.976H59.3425V129.414H69.5643V129.428ZM64.4286 79.7082L66.1145 83.0901H64.4286V79.7082ZM63.3638 77.6021V83.0901H60.9787V77.8052L62.2209 75.3107L63.3638 77.6021ZM59.307 70.7813C59.3079 70.5204 59.3845 70.2654 59.5277 70.0476C59.6708 69.8298 59.8741 69.6588 60.1127 69.5554C60.2265 69.5092 60.3458 69.4781 60.4676 69.4627C60.5252 69.4531 60.5832 69.4471 60.6415 69.4449V69.4449C60.701 69.4473 60.7602 69.4532 60.819 69.4627C60.9407 69.4785 61.0599 69.5096 61.1739 69.5554C61.4119 69.6591 61.6145 69.8304 61.7568 70.0482C61.8992 70.266 61.975 70.5208 61.975 70.7813C61.975 71.0418 61.8992 71.2966 61.7568 71.5144C61.6145 71.7322 61.4119 71.9035 61.1739 72.0072C61.0605 72.0545 60.941 72.0857 60.819 72.0998C60.7599 72.1033 60.7006 72.1033 60.6415 72.0998V72.0998C60.5836 72.1035 60.5255 72.1035 60.4676 72.0998C60.3455 72.0862 60.226 72.055 60.1127 72.0072C59.8738 71.9041 59.6703 71.7332 59.5271 71.5153C59.3839 71.2975 59.3074 71.0423 59.307 70.7813V70.7813ZM61.213 75.0113L57.181 83.0937H55.2112L59.2431 75.0113H61.213ZM58.0648 75.0113L54.0364 83.0937H52.0666L56.0985 75.0113H58.0648ZM52.9503 75.0113H54.9379L50.9059 83.0937H48.9042L52.9503 75.0113ZM49.9689 70.7813C49.9693 70.5203 50.0458 70.2651 50.189 70.0472C50.3322 69.8294 50.5358 69.6584 50.7746 69.5554C50.8884 69.5092 51.0077 69.4781 51.1295 69.4627C51.1883 69.4532 51.2476 69.4473 51.307 69.4449V69.4449C51.3653 69.4471 51.4234 69.4531 51.4809 69.4627C51.6027 69.4781 51.722 69.5092 51.8358 69.5554C52.0751 69.6579 52.2791 69.8287 52.4225 70.0467C52.5659 70.2646 52.6424 70.5201 52.6424 70.7813C52.6424 71.0425 52.5659 71.2979 52.4225 71.5159C52.2791 71.7338 52.0751 71.9047 51.8358 72.0072C51.7226 72.055 51.603 72.0862 51.4809 72.0998C51.423 72.1035 51.3649 72.1035 51.307 72.0998V72.0998C51.2479 72.1033 51.1886 72.1033 51.1295 72.0998C51.0075 72.086 50.8879 72.0548 50.7746 72.0072C50.5355 71.9045 50.3317 71.7336 50.1884 71.5157C50.0452 71.2978 49.9689 71.0424 49.9689 70.7813ZM45.8234 83.0937L49.8554 75.0113H51.7933L47.7613 83.0937H45.8234ZM41.3656 122.811H43.6655V128.37H41.3656V122.811ZM41.3656 129.428H47.0231V133.976H41.3656V129.428ZM41.3656 135.03H52.6593V139.56H41.3656V135.03ZM41.3656 140.633H47.0231V145.18H41.3656V140.633ZM41.3656 146.238H52.6593V150.782H41.3656V146.238ZM41.3656 151.84H47.0231V156.387H41.3656V151.84ZM41.3656 157.442H52.6593V162.043H41.3656V157.442ZM77.2378 165.967H39.0515L41.0958 163.08H77.2378V165.967ZM77.7879 147.592C77.4716 148.755 77.2906 149.951 77.2484 151.156C77.2484 151.234 77.2484 151.316 77.2484 151.398C77.2484 151.48 77.2484 151.612 77.2484 151.719V162.054H75.3177V151.719C75.3133 148.249 76.3299 144.854 78.24 141.962C80.1501 139.07 82.8686 136.808 86.0541 135.462L86.4836 135.28L86.8385 135.134L87.0124 135.059L87.1899 135.134L87.5448 135.28L87.9778 135.462C91.1624 136.809 93.8799 139.071 95.7893 141.963C97.6986 144.855 98.715 148.249 98.7107 151.719V162.054H96.7835V151.719C96.7835 151.612 96.7835 151.502 96.7835 151.395C96.7835 151.288 96.7835 151.238 96.7835 151.156C96.7414 149.951 96.5603 148.755 96.244 147.592C96.2156 147.482 96.1837 147.371 96.1517 147.264C95.7949 146.048 95.2919 144.88 94.654 143.786L94.4268 143.405C93.4792 141.886 92.2787 140.542 90.8775 139.432L90.551 139.179C89.6182 138.472 88.6085 137.874 87.5413 137.397C87.4348 137.347 87.3319 137.297 87.2218 137.251H87.1934L87.016 137.176L86.8421 137.251H86.8137L86.4907 137.397C85.4246 137.874 84.4161 138.472 83.4845 139.179L83.1544 139.432C81.7602 140.544 80.5658 141.888 79.6229 143.405L79.3957 143.786C78.7578 144.88 78.2548 146.048 77.898 147.264C77.8483 147.357 77.8163 147.468 77.7879 147.578V147.592Z" fill="white"/>
<path d="M92 110.189C92.0023 108.673 91.5493 107.19 90.6977 105.926C89.8462 104.663 88.6342 103.676 87.214 103.088L86.9981 103L86.786 103.088C85.3658 103.676 84.1538 104.663 83.3023 105.926C82.4507 107.19 81.9977 108.673 82 110.189V118H92V110.189ZM90.8835 116.912H83.1016V110.189C83.098 108.925 83.4633 107.688 84.1541 106.623C84.8449 105.558 85.8321 104.711 86.9981 104.183C88.1628 104.713 89.1487 105.561 89.8392 106.625C90.5297 107.689 90.896 108.926 90.8947 110.189L90.8835 116.912Z" fill="white"/>
<path d="M88 107.5C88 107.203 87.9414 106.913 87.8315 106.667C87.7216 106.42 87.5654 106.228 87.3827 106.114C87.2 106.001 86.9989 105.971 86.8049 106.029C86.6109 106.087 86.4327 106.23 86.2929 106.439C86.153 106.649 86.0578 106.916 86.0192 107.207C85.9806 107.498 86.0004 107.8 86.0761 108.074C86.1518 108.348 86.28 108.582 86.4444 108.747C86.6089 108.912 86.8022 109 87 109C87.2652 109 87.5196 108.842 87.7071 108.561C87.8946 108.279 88 107.898 88 107.5V107.5ZM87 107.834C86.956 107.834 86.913 107.814 86.8764 107.778C86.8398 107.741 86.8113 107.689 86.7944 107.628C86.7776 107.567 86.7732 107.5 86.7818 107.435C86.7903 107.37 86.8115 107.311 86.8427 107.264C86.8738 107.217 86.9134 107.186 86.9566 107.173C86.9998 107.16 87.0445 107.166 87.0852 107.192C87.1258 107.217 87.1606 107.26 87.185 107.315C87.2095 107.369 87.2225 107.434 87.2225 107.5C87.2225 107.589 87.1991 107.673 87.1573 107.736C87.1156 107.799 87.059 107.834 87 107.834V107.834Z" fill="white"/>
<path d="M85.5 109C85.1025 109.001 84.7215 109.134 84.4405 109.371C84.1594 109.608 84.001 109.928 84 110.263V116H87V110.263C87 109.928 86.842 109.607 86.5607 109.37C86.2794 109.133 85.8978 109 85.5 109V109ZM85.8644 115.054H85.1394V110.263C85.1342 110.22 85.1396 110.177 85.1555 110.136C85.1713 110.095 85.1972 110.058 85.2313 110.026C85.2655 109.994 85.3072 109.969 85.3539 109.951C85.4005 109.934 85.4509 109.925 85.5019 109.925C85.5529 109.925 85.6034 109.934 85.65 109.951C85.6966 109.969 85.7383 109.994 85.7725 110.026C85.8067 110.058 85.8325 110.095 85.8484 110.136C85.8642 110.177 85.8697 110.22 85.8644 110.263V115.054Z" fill="white"/>
<path d="M87.0077 110.263V116H90V110.263C90 109.928 89.842 109.607 89.5607 109.37C89.2794 109.133 88.8978 109 88.5 109C88.1022 109 87.7206 109.133 87.4393 109.37C87.158 109.607 87 109.928 87 110.263H87.0077ZM88.8721 110.263V115.054H88.1471V110.263C88.1418 110.22 88.1473 110.177 88.1632 110.136C88.179 110.095 88.2048 110.058 88.239 110.026C88.2732 109.994 88.3149 109.969 88.3615 109.951C88.4081 109.934 88.4586 109.925 88.5096 109.925C88.5606 109.925 88.611 109.934 88.6577 109.951C88.7043 109.969 88.746 109.994 88.7802 110.026C88.8143 110.058 88.8402 110.095 88.856 110.136C88.8719 110.177 88.8773 110.22 88.8721 110.263Z" fill="white"/>
</g>
<defs>
<clipPath id="clip0_1:71">
<rect width="136" height="163.635" fill="white" transform="translate(19 41)"/>
</clipPath>
</defs>
</svg>
