<svg width="33" height="32" viewBox="0 0 33 32" fill="none" xmlns="http://www.w3.org/2000/svg">
<path d="M22.0318 14.6253C22.0331 13.6605 21.8005 12.7097 21.354 11.8544C20.9075 10.9991 20.2603 10.2647 19.4679 9.71424C18.6755 9.16375 17.7615 8.81353 16.8041 8.69355C15.8468 8.57358 14.8746 8.68743 13.9709 9.02536C13.0671 9.36329 12.2588 9.91523 11.615 10.6339C10.9712 11.3526 10.5112 12.2166 10.2744 13.1519C10.0376 14.0873 10.031 15.0661 10.2552 16.0045C10.4794 16.9429 10.9277 17.8131 11.5618 18.5403C12.8809 20.02 13.6182 21.9281 13.6368 23.9103V24.1253H18.4868V23.9103C18.5117 21.9128 19.2575 19.9915 20.5868 18.5003C21.5167 17.4232 22.0294 16.0483 22.0318 14.6253V14.6253Z" stroke="#333333" stroke-miterlimit="10"/>
<path d="M18.4887 24.125H13.6387V25.925H18.4887V24.125Z" stroke="#333333" stroke-miterlimit="10"/>
<path d="M13.6387 25.925H18.4887C18.4887 26.1614 18.4421 26.3955 18.3517 26.6139C18.2612 26.8323 18.1286 27.0307 17.9615 27.1978C17.7943 27.365 17.5959 27.4976 17.3775 27.588C17.1591 27.6785 16.9251 27.725 16.6887 27.725H15.4387C14.9613 27.725 14.5034 27.5354 14.1659 27.1978C13.8283 26.8603 13.6387 26.4024 13.6387 25.925V25.925Z" stroke="#333333" stroke-miterlimit="10"/>
<path d="M17.8965 11.375C18.3894 11.3763 18.8617 11.5727 19.2102 11.9212C19.5588 12.2698 19.7552 12.7421 19.7565 13.235" stroke="#333333" stroke-miterlimit="10"/>
<path d="M16.9765 18.4753H15.1465V24.1253H16.9765V18.4753Z" stroke="#333333" stroke-miterlimit="10"/>
<path d="M15.1465 16.3899V18.4999" stroke="#333333" stroke-miterlimit="10"/>
<path d="M16.9785 16.3899V18.4999" stroke="#333333" stroke-miterlimit="10"/>
<path d="M16.0625 6.16499V4.23999" stroke="#333333" stroke-miterlimit="10"/>
<path d="M22.0879 8.46511L23.4429 7.11011" stroke="#333333" stroke-miterlimit="10"/>
<path d="M10.0366 8.46511L8.68164 7.11011" stroke="#333333" stroke-miterlimit="10"/>
<path d="M7.7325 14.49H5.8125" stroke="#333333" stroke-miterlimit="10"/>
<path d="M24.3926 14.49H26.3126" stroke="#333333" stroke-miterlimit="10"/>
<path d="M10.0366 20.5149L8.68164 21.8699" stroke="#333333" stroke-miterlimit="10"/>
<path d="M22.0879 20.5149L23.4429 21.8699" stroke="#333333" stroke-miterlimit="10"/>
</svg>
