<svg width="28" height="28" viewBox="0 0 28 28" fill="none" xmlns="http://www.w3.org/2000/svg">
<path opacity="0.8" d="M24.3906 2.1875H21.875V0.875C21.875 0.391781 21.4833 0 21 0C20.5167 0 20.125 0.391781 20.125 0.875V2.1875H7.875V0.875C7.875 0.391781 7.48327 0 7 0C6.51673 0 6.125 0.391781 6.125 0.875V2.1875H3.60938C1.61913 2.1875 0 3.80663 0 5.79688V24.3906C0 26.3809 1.61913 28 3.60938 28H24.3906C26.3809 28 28 26.3809 28 24.3906V5.79688C28 3.80663 26.3809 2.1875 24.3906 2.1875ZM3.60938 3.9375H6.125V4.8125C6.125 5.29572 6.51673 5.6875 7 5.6875C7.48327 5.6875 7.875 5.29572 7.875 4.8125V3.9375H20.125V4.8125C20.125 5.29572 20.5167 5.6875 21 5.6875C21.4833 5.6875 21.875 5.29572 21.875 4.8125V3.9375H24.3906C25.4159 3.9375 26.25 4.77159 26.25 5.79688V7.875H1.75V5.79688C1.75 4.77159 2.58409 3.9375 3.60938 3.9375ZM24.3906 26.25H3.60938C2.58409 26.25 1.75 25.4159 1.75 24.3906V9.625H26.25V24.3906C26.25 25.4159 25.4159 26.25 24.3906 26.25Z" 
fill="currentColor" stroke="currentColor"/>
</svg>
