<svg width="40" height="40" viewBox="0 0 40 40" fill="none"
  xmlns="http://www.w3.org/2000/svg">
  <path d="M34.8438 3.125H31.25V1.25C31.25 0.559687 30.6904 0 30 0C29.3096 0 28.75 0.559687 28.75 1.25V3.125H11.25V1.25C11.25 0.559687 10.6904 0 10 0C9.30961 0 8.75 0.559687 8.75 1.25V3.125H5.15625C2.31305 3.125 0 5.43805 0 8.28125V34.8438C0 37.687 2.31305 40 5.15625 40H34.8438C37.687 40 40 37.687 40 34.8438V8.28125C40 5.43805 37.687 3.125 34.8438 3.125ZM5.15625 5.625H8.75V6.875C8.75 7.56531 9.30961 8.125 10 8.125C10.6904 8.125 11.25 7.56531 11.25 6.875V5.625H28.75V6.875C28.75 7.56531 29.3096 8.125 30 8.125C30.6904 8.125 31.25 7.56531 31.25 6.875V5.625H34.8438C36.3084 5.625 37.5 6.81656 37.5 8.28125V11.25H2.5V8.28125C2.5 6.81656 3.69156 5.625 5.15625 5.625ZM34.8438 37.5H5.15625C3.69156 37.5 2.5 36.3084 2.5 34.8438V13.75H37.5V34.8438C37.5 36.3084 36.3084 37.5 34.8438 37.5Z" fill="currentColor"/>
</svg>
