<svg width="36" height="32" viewBox="0 0 36 32" fill="none" xmlns="http://www.w3.org/2000/svg">
<g clip-path="url(#clip0_2791:8616)">
<path d="M30.25 0L25.2646 5.06285V9.64431H10.7683V5.06285L5.69254 0L0.625 5.06285V31.7714H35.375V5.06285L30.25 0ZM30.25 1.75125L34.028 5.48613H26.5705L30.25 1.75125ZM25.2646 10.8893V13.3792H10.7683V10.8893H25.2646ZM9.42954 5.48613H1.95554L5.69254 1.75125L9.42954 5.48613ZM1.85698 30.5265V6.73109H9.53631V14.6159H26.4719V6.73109H34.143V30.5265H1.85698Z" fill="#F23005"/>
<path d="M6.12761 9.24609H4.89563V12.5909H6.12761V9.24609Z" fill="#F23005"/>
<path d="M30.9234 9.24609H29.6914V12.5909H30.9234V9.24609Z" fill="#F23005"/>
<path d="M6.12761 16.8149H4.89563V20.1597H6.12761V16.8149Z" fill="#F23005"/>
<path d="M30.9234 16.8149H29.6914V20.1597H30.9234V16.8149Z" fill="#F23005"/>
<path d="M6.12761 24.376H4.89563V27.7208H6.12761V24.376Z" fill="#F23005"/>
<path d="M18.6198 16.8149H17.3878V20.1597H18.6198V16.8149Z" fill="#F23005"/>
<path d="M18.6198 24.376H17.3878V27.7208H18.6198V24.376Z" fill="#F23005"/>
<path d="M12.6655 16.8149H11.4335V20.1597H12.6655V16.8149Z" fill="#F23005"/>
<path d="M12.6655 24.376H11.4335V27.7208H12.6655V24.376Z" fill="#F23005"/>
<path d="M24.772 16.8149H23.54V20.1597H24.772V16.8149Z" fill="#F23005"/>
<path d="M24.772 24.376H23.54V27.7208H24.772V24.376Z" fill="#F23005"/>
<path d="M30.9234 24.376H29.6914V27.7208H30.9234V24.376Z" fill="#F23005"/>
</g>
<defs>
<clipPath id="clip0_2791:8616">
<rect width="34.75" height="31.7714" fill="white" transform="translate(0.625)"/>
</clipPath>
</defs>
</svg>
