<svg width="24" height="40" viewBox="0 0 24 40" fill="none" xmlns="http://www.w3.org/2000/svg">
<path d="M20.1631 19.5918V3.26531C20.1631 1.46939 18.6937 0 16.8978 0H7.1019C5.30598 0 3.83659 1.46939 3.83659 3.26531V19.5918C2.04068 19.5918 0.571289 21.0612 0.571289 22.8571V25.3061C0.571289 25.7959 0.89782 26.1224 1.38762 26.1224H2.20394V39.1837C2.20394 39.6735 2.53047 40 3.02027 40C3.51006 40 3.83659 39.6735 3.83659 39.1837V26.1224H20.1631V39.1837C20.1631 39.6735 20.4897 40 20.9795 40C21.4692 40 21.7958 39.6735 21.7958 39.1837V26.1224H22.6121C23.1019 26.1224 23.4284 25.7959 23.4284 25.3061V22.8571C23.4284 21.0612 21.959 19.5918 20.1631 19.5918ZM5.46925 3.26531C5.46925 2.36735 6.20394 1.63265 7.1019 1.63265H16.8978C17.7958 1.63265 18.5305 2.36735 18.5305 3.26531V19.5918H5.46925V3.26531ZM21.7958 24.4898H2.20394V22.8571C2.20394 21.9592 2.93864 21.2245 3.83659 21.2245H20.1631C21.0611 21.2245 21.7958 21.9592 21.7958 22.8571V24.4898Z" 
fill="currentColor"/>
</svg>
