<svg width="120" height="120" viewBox="0 0 120 120" fill="none" xmlns="http://www.w3.org/2000/svg">
<path fill-rule="evenodd" clip-rule="evenodd" d="M120 60.0156C120 78.7614 111.408 95.4998 97.9477 106.506V105.882C97.9477 103.132 96.8553 100.552 95.0228 98.6448C93.602 97.1658 92.3503 96.5435 90.4399 95.8392L78.9119 91.6462C78.9533 91.1021 78.7698 90.5488 78.373 90.1318L74.6892 86.2606V79.7621C75.0787 79.4411 75.4626 79.1114 75.8346 78.7628C80.4818 74.4058 83.147 68.2543 83.147 61.8858V56.6959C84.5503 53.6415 85.2614 50.4094 85.2614 47.0807V25.9314C85.2614 24.8389 84.376 23.9533 83.2839 23.9533H53.6817C43.264 23.9533 34.7888 32.431 34.7888 42.8511V47.0812C34.7888 50.4099 35.4999 53.642 36.9032 56.6964V61.1618C36.9032 68.556 40.1901 75.2176 45.361 79.6094V86.2609L41.6772 90.1321C41.2804 90.5491 41.0969 91.1024 41.1382 91.6465L28.9711 96.0718C26.9173 96.8188 24.7028 98.4051 23.6924 100.359C22.6778 101.983 22.1019 103.887 22.1019 105.882V106.546C8.61337 95.541 0 78.7844 0 60.0156C0 26.8699 26.8629 0 60 0C93.1371 0 120 26.8699 120 60.0156ZM93.9926 105.882V109.477C91.2396 111.374 88.3204 113.046 85.2613 114.469V112.646C85.2613 111.554 84.3759 110.668 83.2838 110.668C82.1916 110.668 81.3062 111.553 81.3062 112.646V116.137C75.2765 118.429 68.7817 119.776 62.0024 119.998V100.502L65.2603 103.761C66.0336 104.534 67.0686 104.96 68.1493 104.96C68.2846 104.96 68.4207 104.953 68.557 104.94C69.782 104.818 70.876 104.161 71.5586 103.137L76.899 95.1247L89.727 99.7905C92.2782 100.719 93.9926 103.167 93.9926 105.882ZM58.0473 100.502V120C51.2688 119.783 44.7742 118.442 38.7438 116.156V112.646C38.7438 111.554 37.8584 110.668 36.7663 110.668C35.6742 110.668 34.7887 111.553 34.7887 112.646V114.492C31.7298 113.073 28.8105 111.404 26.057 109.511V105.882C26.057 103.166 27.7711 100.718 30.3227 99.79L43.1509 95.1242L48.491 103.137C49.1736 104.161 50.2676 104.818 51.4924 104.94C51.629 104.953 51.7648 104.96 51.9003 104.96C52.9808 104.96 54.0157 104.534 54.7893 103.761L58.0473 100.502ZM40.8582 61.1615V56.2538C40.8582 55.9561 40.791 55.662 40.6615 55.3938C39.3891 52.758 38.7438 49.9613 38.7438 47.0812V42.8514C38.7438 34.6124 45.4451 27.9097 53.6817 27.9097H81.3063V47.0815C81.3063 49.9615 80.6611 52.7582 79.3886 55.3941C79.2592 55.6623 79.1919 55.9563 79.1919 56.2541V61.8863C79.1919 67.2431 77.039 72.2117 73.1298 75.8769C72.6418 76.3342 72.1353 76.7631 71.6116 77.1627C71.6045 77.1675 71.5975 77.1727 71.5906 77.1779L71.5904 77.178L71.5776 77.1874C67.9155 79.9686 63.4299 81.3203 58.7455 81.0167C48.7151 80.3671 40.8582 71.6457 40.8582 61.1615ZM51.9925 100.963C51.9786 100.977 51.9467 101.009 51.8826 101.002C51.8183 100.996 51.793 100.958 51.7822 100.942L45.632 91.714L47.6111 89.6339L56.9412 96.013L51.9928 100.963L51.9925 100.963ZM60.0251 93.3294L49.316 86.0075V82.3151C52.087 83.8134 55.1896 84.7505 58.4894 84.9641C59.0107 84.9978 59.5288 85.0145 60.0454 85.0145C63.8267 85.0145 67.4659 84.1104 70.7341 82.3942V86.0075L60.0251 93.3294ZM68.268 100.942C68.2572 100.959 68.2319 100.996 68.1675 101.003C68.1058 101.01 68.0741 100.98 68.0593 100.965L68.0573 100.963L63.109 96.0138L72.439 89.6344L74.4184 91.7145L68.268 100.942ZM46.7149 42.7089C53.0963 41.7468 68.745 40.3165 76.2243 47.7978C76.9966 48.57 76.9966 49.8225 76.2243 50.595C75.4523 51.3675 74.2001 51.3675 73.4278 50.595C70.7855 47.9518 66.3189 46.4034 60.1522 45.9928C54.9117 45.6433 49.8537 46.2362 47.3047 46.6205C47.2457 46.6294 47.2014 46.6869 47.2014 46.7542V51.3113C47.2014 52.4038 46.316 53.2894 45.2238 53.2894C44.1317 53.2894 43.2463 52.4038 43.2463 51.3113V46.7544C43.2463 44.7134 44.7049 43.012 46.7149 42.7089Z" fill="#C4C4C4"/>
</svg>
