<svg width="75" height="75" viewBox="0 0 75 75" fill="none" xmlns="http://www.w3.org/2000/svg">
    <path d="M5 13C5 8.58172 8.58172 5 13 5H61C65.4183 5 69 8.58172 69 13V61C69 65.4183 65.4183 69 61 69H13C8.58172 69 5 65.4183 5 61V13Z" fill="#C4EFCE"/>
    <path d="M37.9893 42.7269L23.4267 38.0012C22.574 37.7729 21.6754 37.7813 20.8271 38.0256C19.9788 38.2699 19.2127 38.7409 18.6109 39.3881L14 44.0753V59.9988L22.8887 57.1094C24.0938 56.5717 25.4218 56.372 26.7311 56.5316L36.9775 57.8157C38.7092 58.0252 40.4584 57.6061 41.9086 56.6343L58.5589 45.4236C59.2635 44.9498 59.7556 44.2187 59.9303 43.3863C60.105 42.5538 59.9484 41.6859 59.4939 40.9676V40.9676C59.2614 40.6016 58.9585 40.2858 58.6028 40.0386C58.2471 39.7915 57.8457 39.618 57.4223 39.5283C56.9989 39.4386 56.5619 39.4345 56.1368 39.5163C55.7118 39.5981 55.3073 39.764 54.9471 40.0045L41.8317 48.4286" stroke="#333333" stroke-width="1.5" stroke-miterlimit="10"/>
    <path d="M26.5254 46.0536L38.2319 49.6364C39.0438 49.8797 39.9183 49.7957 40.6693 49.4024C41.4204 49.0091 41.9888 48.3375 42.2536 47.5304V47.5304C42.3851 47.1207 42.4348 46.6889 42.3998 46.2598C42.3648 45.8308 42.2457 45.4129 42.0494 45.03C41.8531 44.6471 41.5835 44.3068 41.2559 44.0286C40.9283 43.7503 40.5492 43.5395 40.1403 43.4083L38.0013 42.7148" stroke="#333333" stroke-width="1.5" stroke-miterlimit="10"/>
    <path d="M32.7129 25.4941C35.1848 29.5906 36.9011 35.1382 37.2469 42.7404" stroke="#333333" stroke-width="1.5" stroke-miterlimit="10"/>
    <path d="M41.2936 32.4805C38.9688 35.4155 37.6245 39.0098 37.4512 42.7537" stroke="#333333" stroke-width="1.5" stroke-miterlimit="10"/>
    <path d="M33.8794 24.301C31.5099 27.627 26.2714 26.1759 23.2872 22.9013C20.8793 20.1789 19.7266 14.1434 19.7266 14.1434C19.7266 14.1434 26.5276 13.4885 30.0882 14.9781C34.3533 16.7502 36.2617 20.9751 33.8794 24.301Z" stroke="#333333" stroke-width="1.5" stroke-miterlimit="10"/>
    <path d="M41.036 31.4548C39.038 28.5526 41.7405 24.7387 45.237 23.3004C48.1445 22.1062 53.3445 22.928 53.3445 22.928C53.3445 22.928 51.8972 28.6297 49.6686 31.0824C47.0045 34.0231 43.0341 34.3442 41.036 31.4548Z" stroke="#333333" stroke-width="1.5" stroke-miterlimit="10"/>
</svg>
