<svg width="180" height="134" viewBox="0 0 180 134" fill="none" xmlns="http://www.w3.org/2000/svg">
<path d="M171.953 97.9522L161.064 94.8408C160.594 94.7065 160.265 94.2713 160.265 93.7823V90.1475C161.151 89.5336 161.996 88.8467 162.786 88.0799C166.615 84.3646 168.723 79.3812 168.723 74.0473V69.0316L169.776 66.9261C170.932 64.6145 171.542 62.0267 171.542 59.4427V45.8548C171.542 44.3986 170.362 43.2181 168.906 43.2181H143.532C134.306 43.2181 126.799 50.7247 126.799 59.9511V60.1082C126.799 62.257 127.307 64.4089 128.268 66.3305L129.619 69.0312V73.3379C129.619 80.1631 132.982 86.287 138.077 89.972L138.077 93.7816C138.077 94.369 138.077 94.6123 135.9 95.2346L130.586 96.7526L115.216 91.1635C115.271 90.4382 115.026 89.7006 114.497 89.1448L109.586 83.9846V75.3221C110.105 74.8942 110.617 74.4548 111.113 73.99C117.309 68.1822 120.863 59.9824 120.863 51.4932V44.5751C122.734 40.5037 123.682 36.1953 123.682 31.7582V3.56641C123.682 2.11023 122.501 0.929688 121.045 0.929688H81.5755C67.6853 0.929688 56.385 12.2303 56.385 26.1202V31.7589C56.385 36.196 57.3332 40.5044 59.2042 44.5758V50.5281C59.2042 60.3845 63.5868 69.2643 70.4812 75.1185V83.9849L65.5696 89.1452C65.0405 89.701 64.7958 90.4386 64.851 91.1638L48.6281 97.0627C47.4525 97.4902 46.3602 98.0692 45.3684 98.7706L42.821 97.4969C50.4042 94.1961 52.8064 89.5537 52.9218 89.3231C53.293 88.5809 53.293 87.7069 52.9218 86.9648C51.0209 83.163 50.7906 76.1947 50.6057 70.5957C50.5441 68.7317 50.4858 66.9707 50.3743 65.4027C49.4754 52.7556 39.8609 43.2181 28.0097 43.2181C16.1585 43.2181 6.54363 52.7553 5.64504 65.4027C5.53359 66.9711 5.47523 68.732 5.41371 70.5964C5.22879 76.195 4.99816 83.1626 3.09762 86.9644C2.72637 87.7066 2.72637 88.5806 3.09762 89.3227C3.21293 89.5533 5.61023 94.1862 13.2086 97.4909L6.13266 101.029C2.34984 102.921 0 106.724 0 110.953V130.432C0 131.888 1.18055 133.069 2.63672 133.069C4.09289 133.069 5.27344 131.888 5.27344 130.432V110.953C5.27344 108.734 6.50637 106.738 8.49094 105.746L17.3021 101.341L20.3671 104.253C22.5102 106.29 25.2594 107.308 28.0097 107.308C30.7593 107.308 33.5099 106.289 35.6523 104.253L38.7169 101.341L41.5898 102.777C40.237 104.942 39.4692 107.48 39.4692 110.139V130.433C39.4692 131.889 40.6498 133.07 42.1059 133.07C43.5621 133.07 44.7427 131.889 44.7427 130.433V110.139C44.7427 106.519 47.0282 103.256 50.4302 102.019L67.5345 95.7995L74.6546 106.48C75.5648 107.846 77.0235 108.722 78.6565 108.883C78.8386 108.901 79.0197 108.91 79.2004 108.91C80.6411 108.91 82.0209 108.343 83.0524 107.312L87.3963 102.968V130.433C87.3963 131.89 88.5769 133.07 90.033 133.07C91.4892 133.07 92.6698 131.89 92.6698 130.433V102.968L97.0137 107.312C98.0448 108.343 99.4247 108.91 100.866 108.91C101.046 108.91 101.228 108.902 101.409 108.884C103.043 108.722 104.501 107.846 105.411 106.481L112.532 95.8003L129.636 102.02C133.038 103.257 135.323 106.52 135.323 110.14V130.434C135.323 131.89 136.504 133.07 137.96 133.07C139.416 133.07 140.597 131.89 140.597 130.434V110.14C140.597 106.474 139.14 103.035 136.697 100.493L137.348 100.307C138.006 100.119 138.902 99.8618 139.802 99.4206L146.534 106.153V130.434C146.534 131.89 147.715 133.07 149.171 133.07C150.627 133.07 151.808 131.89 151.808 130.434V106.153L158.493 99.4674C158.848 99.6481 159.222 99.8007 159.615 99.9128L170.505 103.024C172.99 103.734 174.727 106.036 174.727 108.621V130.434C174.727 131.89 175.907 133.07 177.363 133.07C178.819 133.07 180 131.89 180 130.434V108.621C180 103.693 176.691 99.306 171.953 97.9522ZM16.9154 93.295C11.9834 91.5203 9.50941 89.1543 8.45332 87.8623C9.17332 85.98 9.64019 83.8243 9.95625 81.5486C11.4103 85.035 13.8456 88.0114 16.9154 90.1348V93.295ZM32.0203 100.431C29.7714 102.568 26.2484 102.567 24.0001 100.431L21.548 98.1005C21.9618 97.3253 22.1892 96.4464 22.1892 95.5257V92.7153C24.0286 93.2901 25.984 93.6002 28.0104 93.6002C30.0343 93.6002 31.9887 93.2887 33.8312 92.717L33.8309 95.5253C33.8309 96.4464 34.058 97.3257 34.4721 98.1012L32.0203 100.431ZM28.0111 88.3267C20.1375 88.3267 13.7324 81.9213 13.7324 74.048C13.7324 72.5918 12.5518 71.4113 11.0957 71.4113C10.948 71.4113 10.8039 71.4264 10.6629 71.45C10.6706 71.2232 10.678 70.9961 10.6857 70.7715C10.7445 68.9584 10.8011 67.246 10.9055 65.7772C11.2423 61.0395 13.1354 56.6738 16.2362 53.4837C19.3648 50.2648 23.5463 48.4922 28.0104 48.4922C32.4745 48.4922 36.6557 50.2648 39.7846 53.4837C42.8854 56.6738 44.7785 61.0395 45.1153 65.7772C45.2194 67.2456 45.2763 68.9577 45.3361 70.7704C45.3414 70.9261 45.3466 71.084 45.3519 71.2408C42.4832 66.821 38.0528 63.5637 32.3283 61.7243C27.0397 60.0252 22.4912 60.1304 22.2993 60.1353C21.6088 60.1546 20.9535 60.4436 20.4743 60.9407L15.717 65.8745C14.7062 66.9229 14.7364 68.5921 15.7848 69.6029C16.8332 70.6136 18.5024 70.583 19.5131 69.535L23.4717 65.4298C26.8808 65.5965 37.8485 66.8719 42.114 76.2646C41.0407 83.1862 35.0916 88.3267 28.0111 88.3267ZM39.1039 93.3038L39.1043 90.1591C42.1717 88.0472 44.6105 85.0765 46.0656 81.5637C46.3816 83.8341 46.8482 85.985 47.5668 87.863C46.5166 89.1427 44.0311 91.5298 39.1039 93.3038ZM64.4776 50.5278V43.9859C64.4776 43.589 64.388 43.197 64.2153 42.8395C62.5187 39.3259 61.6584 35.598 61.6584 31.7589V26.1206C61.6584 15.1381 70.5934 6.20348 81.5755 6.20348H118.408V31.7593C118.408 35.5983 117.548 39.3263 115.851 42.8398C115.679 43.1973 115.589 43.5893 115.589 43.9863V51.4939C115.589 58.6345 112.719 65.2575 107.506 70.1432C106.856 70.7528 106.18 71.3245 105.482 71.8571C105.467 71.8676 105.452 71.8792 105.437 71.8901C100.554 75.5974 94.5731 77.3991 88.3273 76.9945C74.9535 76.1286 64.4776 64.5031 64.4776 50.5278ZM79.3238 103.582C79.3055 103.601 79.2629 103.644 79.1768 103.635C79.091 103.626 79.0573 103.576 79.0428 103.554L70.8427 91.2538L73.4815 88.4811L85.9215 96.9843L79.3238 103.582ZM90.0334 93.4072L75.7547 83.6471V78.7252C79.4493 80.7224 83.5861 81.9715 87.9859 82.2563C88.6809 82.3013 89.3718 82.3234 90.0605 82.3234C95.1022 82.3234 99.9545 81.1183 104.312 78.8307V83.6471L90.0334 93.4072ZM101.024 103.555C101.01 103.577 100.976 103.627 100.89 103.636C100.804 103.646 100.762 103.601 100.743 103.583L94.1453 96.9854L106.585 88.4818L109.224 91.2545L101.024 103.555ZM149.171 101.33L143.187 95.3471C143.292 94.8728 143.351 94.3536 143.35 93.7809L143.35 92.6682C145.01 93.2131 146.76 93.5365 148.571 93.5907C148.775 93.597 148.976 93.5998 149.179 93.5998C151.18 93.5998 153.133 93.2975 154.992 92.7206V93.7823C154.992 94.3082 155.058 94.8236 155.182 95.319L149.171 101.33ZM159.114 84.2957C156.319 87.0077 152.628 88.4399 148.73 88.3197C141.1 88.0908 134.892 81.37 134.892 73.3386V68.4093C134.892 67.9997 134.797 67.5961 134.614 67.2302L132.985 63.9726C132.388 62.779 132.073 61.4431 132.073 60.1086V59.9514C132.073 53.6324 137.214 48.4919 143.532 48.4919H166.269V59.4431C166.269 61.2128 165.851 62.985 165.059 64.5681L163.728 67.2302C163.545 67.5965 163.45 67.9997 163.45 68.4093V74.0477C163.45 77.943 161.91 81.5824 159.114 84.2957Z" fill="black"/>
</svg>
