<svg width="33" height="32" viewBox="0 0 33 32" fill="none" xmlns="http://www.w3.org/2000/svg">
<path d="M16.0621 23.0944C19.9796 23.0944 23.1554 19.9186 23.1554 16.001C23.1554 12.0835 19.9796 8.90771 16.0621 8.90771C12.1445 8.90771 8.96875 12.0835 8.96875 16.001C8.96875 19.9186 12.1445 23.0944 16.0621 23.0944Z" stroke="#333333" stroke-miterlimit="10"/>
<path d="M16.0625 8.90659V6.59326" stroke="#333333" stroke-miterlimit="10"/>
<path d="M16.0625 25.5277V23.2144" stroke="#333333" stroke-miterlimit="10"/>
<path d="M11.0025 11.0001L9.5625 9.56006" stroke="#333333" stroke-miterlimit="10"/>
<path d="M22.563 22.5601L21.123 21.1201" stroke="#333333" stroke-miterlimit="10"/>
<path d="M8.90904 16.061H6.5957" stroke="#333333" stroke-miterlimit="10"/>
<path d="M25.5301 16.061H23.2168" stroke="#333333" stroke-miterlimit="10"/>
<path d="M11.0025 21.1201L9.5625 22.5601" stroke="#333333" stroke-miterlimit="10"/>
<path d="M22.563 9.56006L21.123 11.0001" stroke="#333333" stroke-miterlimit="10"/>
<path d="M16.0627 6.59441C16.8654 6.59441 17.516 5.94373 17.516 5.14108C17.516 4.33842 16.8654 3.68774 16.0627 3.68774C15.2601 3.68774 14.6094 4.33842 14.6094 5.14108C14.6094 5.94373 15.2601 6.59441 16.0627 6.59441Z" stroke="#333333" stroke-miterlimit="10"/>
<path d="M16.0627 28.4345C16.8654 28.4345 17.516 27.7838 17.516 26.9812C17.516 26.1785 16.8654 25.5278 16.0627 25.5278C15.2601 25.5278 14.6094 26.1785 14.6094 26.9812C14.6094 27.7838 15.2601 28.4345 16.0627 28.4345Z" stroke="#333333" stroke-miterlimit="10"/>
<path d="M8.53536 9.98748C9.33802 9.98748 9.9887 9.3368 9.9887 8.53414C9.9887 7.73149 9.33802 7.08081 8.53536 7.08081C7.73271 7.08081 7.08203 7.73149 7.08203 8.53414C7.08203 9.3368 7.73271 9.98748 8.53536 9.98748Z" stroke="#333333" stroke-miterlimit="10"/>
<path d="M23.5901 25.0402C24.3927 25.0402 25.0434 24.3895 25.0434 23.5869C25.0434 22.7842 24.3927 22.1335 23.5901 22.1335C22.7874 22.1335 22.1367 22.7842 22.1367 23.5869C22.1367 24.3895 22.7874 25.0402 23.5901 25.0402Z" stroke="#333333" stroke-miterlimit="10"/>
<path d="M5.14279 17.5143C5.94544 17.5143 6.59612 16.8637 6.59612 16.061C6.59612 15.2583 5.94544 14.6077 5.14279 14.6077C4.34013 14.6077 3.68945 15.2583 3.68945 16.061C3.68945 16.8637 4.34013 17.5143 5.14279 17.5143Z" stroke="#333333" stroke-miterlimit="10"/>
<path d="M26.9826 17.5143C27.7853 17.5143 28.436 16.8637 28.436 16.061C28.436 15.2583 27.7853 14.6077 26.9826 14.6077C26.18 14.6077 25.5293 15.2583 25.5293 16.061C25.5293 16.8637 26.18 17.5143 26.9826 17.5143Z" stroke="#333333" stroke-miterlimit="10"/>
<path d="M8.53536 25.0402C9.33802 25.0402 9.9887 24.3895 9.9887 23.5869C9.9887 22.7842 9.33802 22.1335 8.53536 22.1335C7.73271 22.1335 7.08203 22.7842 7.08203 23.5869C7.08203 24.3895 7.73271 25.0402 8.53536 25.0402Z" stroke="#333333" stroke-miterlimit="10"/>
<path d="M23.5901 9.98748C24.3927 9.98748 25.0434 9.3368 25.0434 8.53414C25.0434 7.73149 24.3927 7.08081 23.5901 7.08081C22.7874 7.08081 22.1367 7.73149 22.1367 8.53414C22.1367 9.3368 22.7874 9.98748 23.5901 9.98748Z" stroke="#333333" stroke-miterlimit="10"/>
<path d="M13.1565 15.7873C13.9591 15.7873 14.6098 15.1366 14.6098 14.3339C14.6098 13.5313 13.9591 12.8806 13.1565 12.8806C12.3538 12.8806 11.7031 13.5313 11.7031 14.3339C11.7031 15.1366 12.3538 15.7873 13.1565 15.7873Z" stroke="#333333" stroke-miterlimit="10"/>
<path d="M18.9084 15.7873C19.7111 15.7873 20.3617 15.1366 20.3617 14.3339C20.3617 13.5313 19.7111 12.8806 18.9084 12.8806C18.1058 12.8806 17.4551 13.5313 17.4551 14.3339C17.4551 15.1366 18.1058 15.7873 18.9084 15.7873Z" stroke="#333333" stroke-miterlimit="10"/>
<path d="M16.0627 20.1479C16.8654 20.1479 17.516 19.4972 17.516 18.6945C17.516 17.8919 16.8654 17.2412 16.0627 17.2412C15.2601 17.2412 14.6094 17.8919 14.6094 18.6945C14.6094 19.4972 15.2601 20.1479 16.0627 20.1479Z" stroke="#333333" stroke-miterlimit="10"/>
</svg>
