<svg width="302" height="43" viewBox="0 0 302 43" fill="none" xmlns="http://www.w3.org/2000/svg">
<path d="M63.8448 41.3026L71.6614 30.4473H61.7257V26.529L58.687 26.499H55.6584V30.4473H45.7227L53.5293 41.3026" stroke="#BABABA" stroke-width="1.5" stroke-linecap="round" stroke-linejoin="round"/>
<path d="M88.2241 41.3131V18.3231C88.2264 17.9213 88.148 17.5231 87.9935 17.1522C87.8389 16.7814 87.6114 16.4453 87.3245 16.164C86.744 15.5915 85.9607 15.2717 85.1454 15.2744H80.7273C79.9096 15.2745 79.1242 15.5937 78.5383 16.164C78.254 16.452 78.0268 16.7912 77.8686 17.1636C77.7177 17.5351 77.6397 17.9321 77.6387 18.3331V41.3231" stroke="#BABABA" stroke-width="1.5" stroke-linecap="round" stroke-linejoin="round"/>
<path d="M102.418 41.3126V18.3226C102.421 17.9208 102.342 17.5226 102.188 17.1517C102.033 16.7808 101.806 16.4448 101.519 16.1635C101.233 15.8786 100.893 15.6543 100.519 15.5038C100.171 15.3546 99.7983 15.2699 99.4197 15.2539L95.2115 15.3739C94.4071 15.3684 93.633 15.6801 93.0567 16.2414C92.4805 16.8026 92.1486 17.5683 92.1328 18.3726V41.3126" stroke="#BABABA" stroke-width="1.5" stroke-linecap="round" stroke-linejoin="round"/>
<path d="M116.851 34.3656V18.3126C116.85 17.9116 116.772 17.5146 116.621 17.1431C116.468 16.7681 116.24 16.428 115.951 16.1435C115.666 15.8586 115.326 15.6343 114.952 15.4838C114.58 15.3329 114.183 15.2549 113.782 15.2539H109.344C108.529 15.2523 107.746 15.5719 107.165 16.1435C106.878 16.4248 106.651 16.7608 106.496 17.1317C106.342 17.5026 106.263 17.9008 106.266 18.3026V41.2426" stroke="#BABABA" stroke-width="1.5" stroke-linecap="round" stroke-linejoin="round"/>
<path d="M145.739 24.5603L148.558 19.0926L143.56 1.00049L138.562 19.0926L141.401 24.5603" stroke="#BABABA" stroke-width="1.5" stroke-linecap="round" stroke-linejoin="round"/>
<path d="M191.688 33.3264V13.0752H187.31V17.4033H177.314V13.0752H172.946V17.4033H165.39V13.0752H161.021V28.3486" stroke="#BABABA" stroke-width="1.5" stroke-linecap="round" stroke-linejoin="round"/>
<path d="M219.447 22.7515L218.188 18.9331" stroke="#BABABA" stroke-width="1.5" stroke-linecap="round" stroke-linejoin="round"/>
<path d="M215.868 23.0707L214.748 19.9121" stroke="#BABABA" stroke-width="1.5" stroke-linecap="round" stroke-linejoin="round"/>
<path d="M215.619 29.5586L205.373 41.3135" stroke="#BABABA" stroke-width="1.5" stroke-linecap="round" stroke-linejoin="round"/>
<path d="M221.655 29.3483C222.631 28.9457 223.543 28.4036 224.364 27.739C224.888 27.31 225.382 26.8458 225.843 26.3496C224.22 24.4365 221.971 23.1614 219.496 22.7512C217.894 22.5897 216.277 22.8368 214.796 23.4696C213.316 24.1024 212.02 25.1001 211.029 26.3696C212.289 27.7979 213.882 28.8931 215.667 29.5582C216.666 29.8678 217.711 30.0064 218.756 29.9681C219.752 29.9387 220.734 29.7287 221.655 29.3483V29.3483Z" stroke="#BABABA" stroke-width="1.5" stroke-linecap="round" stroke-linejoin="round"/>
<path d="M225.655 41.2434L221.656 29.3086" stroke="#BABABA" stroke-width="1.5" stroke-linecap="round" stroke-linejoin="round"/>
<path d="M219.467 26.5195L246.595 41.2432" stroke="#BABABA" stroke-width="1.5" stroke-linecap="round" stroke-linejoin="round"/>
<path d="M222.206 41.2428L218.707 30.2476" stroke="#BABABA" stroke-width="1.5" stroke-linecap="round" stroke-linejoin="round"/>
<path d="M1.20117 41.2433H106.266C106.266 41.2433 110.684 38.6644 116.851 34.3063C119.252 32.2517 121.881 30.4808 124.688 29.0286C126.193 28.2711 127.741 27.6036 129.326 27.0295C133.203 25.6033 137.274 24.7709 141.4 24.5605H145.709C150.997 24.8218 156.184 26.1085 160.982 28.3489C160.982 28.3489 168.839 32.1473 171.677 34.3463C176.745 32.4471 185.012 30.8978 191.669 33.3467C196.52 35.1935 200.996 37.9026 204.883 41.3433H205.373H204.993H301.201" stroke="#BABABA" stroke-width="1.5" stroke-linecap="round" stroke-linejoin="round"/>
</svg>
