<svg width="1111" viewBox="0 0 1111 84" fill="none" xmlns="http://www.w3.org/2000/svg">
<path d="M573.389 82.9961L589.219 60.9761H569.079V53.0261L562.929 52.9761H556.779V60.9761H536.639L552.469 82.9961" stroke="#BABABA" stroke-width="2" stroke-linecap="round" stroke-linejoin="round"/>
<path d="M622.82 82.9958V36.3658C622.822 35.5516 622.662 34.7451 622.349 33.9933C622.037 33.2414 621.578 32.559 621 31.9858C619.822 30.8248 618.234 30.1745 616.58 30.1758H607.58C606.757 30.176 605.942 30.3356 605.18 30.6458C604.431 30.9561 603.752 31.4115 603.18 31.9858C602.593 32.5508 602.129 33.2319 601.82 33.9858C601.501 34.735 601.337 35.5414 601.34 36.3558V82.9958" stroke="#BABABA" stroke-width="2" stroke-linecap="round" stroke-linejoin="round"/>
<path d="M651.689 82.9958V36.3658C651.689 35.5527 651.53 34.7475 651.219 33.9958C650.741 32.8616 649.938 31.894 648.911 31.2144C647.885 30.5348 646.681 30.1735 645.449 30.1758L636.93 30.4258C635.278 30.4228 633.693 31.0735 632.519 32.2358C631.941 32.8092 631.481 33.4914 631.167 34.2431C630.853 34.9948 630.691 35.8011 630.689 36.6158V82.9958" stroke="#BABABA" stroke-width="2" stroke-linecap="round" stroke-linejoin="round"/>
<path d="M680.879 68.9158V36.3658C680.879 35.5527 680.719 34.7475 680.409 33.9958C680.099 33.2446 679.64 32.5642 679.059 31.9958C677.885 30.8274 676.296 30.1728 674.639 30.1758H665.639C664.004 30.1897 662.439 30.8429 661.279 31.9958C660.7 32.567 660.241 33.2474 659.927 33.9975C659.612 34.7476 659.45 35.5526 659.449 36.3658V82.9458" stroke="#BABABA" stroke-width="2" stroke-linecap="round" stroke-linejoin="round"/>
<path d="M739.46 49.0259L745.17 37.9359L735.09 1.25586L725.01 37.9359L730.72 49.0259" stroke="#BABABA" stroke-width="2" stroke-linecap="round" stroke-linejoin="round"/>
<path d="M832.64 66.8159V25.7559H823.77V34.5459H803.5V25.7559H794.63V34.5459H779.28V25.7559H770.41V56.7559" stroke="#BABABA" stroke-width="2" stroke-linecap="round" stroke-linejoin="round"/>
<path d="M888.929 45.3657L886.369 37.6157" stroke="#BABABA" stroke-width="2" stroke-linecap="round" stroke-linejoin="round"/>
<path d="M881.668 46.006L879.398 39.606" stroke="#BABABA" stroke-width="2" stroke-linecap="round" stroke-linejoin="round"/>
<path d="M881.16 59.166L860.43 82.996" stroke="#BABABA" stroke-width="2" stroke-linecap="round" stroke-linejoin="round"/>
<path d="M893.409 58.7557C895.351 57.9334 897.166 56.8391 898.799 55.5057C899.864 54.6332 900.866 53.6876 901.799 52.6757C897.879 48.3957 893.449 45.9757 888.939 45.3857C886.5 45.1829 884.045 45.3994 881.679 46.0257C877.805 47.2578 874.368 49.5805 871.779 52.7157C874.325 55.6168 877.552 57.8401 881.169 59.1857C883.195 59.8122 885.311 60.0928 887.429 60.0157C889.483 59.9676 891.511 59.5404 893.409 58.7557V58.7557Z" stroke="#BABABA" stroke-width="2" stroke-linecap="round" stroke-linejoin="round"/>
<path d="M901.51 82.9459L893.41 58.7559" stroke="#BABABA" stroke-width="2" stroke-linecap="round" stroke-linejoin="round"/>
<path d="M888.959 53.0156L943.959 82.9456" stroke="#BABABA" stroke-width="2" stroke-linecap="round" stroke-linejoin="round"/>
<path d="M894.53 82.9459L887.42 60.7559" stroke="#BABABA" stroke-width="2" stroke-linecap="round" stroke-linejoin="round"/>
<path d="M1.7793 82.9459H659.409C659.409 82.9459 668.409 77.7259 680.879 68.8759C685.745 64.7101 691.077 61.1228 696.769 58.1859C707.316 52.7339 718.911 49.6102 730.769 49.0259H739.509C750.243 49.5581 760.771 52.1698 770.509 56.7159C770.509 56.7159 786.449 64.4159 792.199 68.8759C802.489 65.0259 819.199 61.8759 832.729 66.8159C842.56 70.5534 851.636 76.0346 859.519 82.9959H860.519H859.759H1109.6" stroke="#BABABA" stroke-width="2" stroke-linecap="round" stroke-linejoin="round"/>
</svg>
