<svg width="28" height="36" viewBox="0 0 28 36" fill="none" xmlns="http://www.w3.org/2000/svg">
<path d="M19.0451 0.278229C18.8831 0.10437 18.6609 0 18.4306 0H4.64393C2.09992 0 0 2.13053 0 4.72166V31.2781C0 33.8695 2.09992 36.0001 4.64393 36.0001H23.3561C25.9001 36.0001 28 33.8695 28 31.2781V10.1912C28 9.96517 27.8975 9.74791 27.7525 9.58257L19.0451 0.278229ZM19.2927 3.06959L25.1233 9.30434H21.333C20.2062 9.30434 19.2927 8.38258 19.2927 7.23478V3.06959ZM23.3561 34.2609H4.64393C3.04769 34.2609 1.70733 32.9132 1.70733 31.2781V4.72166C1.70733 3.09568 3.03906 1.73914 4.64393 1.73914H17.5853V7.23478C17.5853 9.34773 19.2587 11.0435 21.333 11.0435H26.2927V31.2781C26.2927 32.9132 24.9609 34.2609 23.3561 34.2609Z" fill="currentColor"/>
<path d="M21.026 28.2612H6.97476C6.50532 28.2612 6.12109 28.6523 6.12109 29.1308C6.12109 29.609 6.50532 30.0004 6.97476 30.0004H21.0346C21.5041 30.0004 21.8883 29.609 21.8883 29.1308C21.8883 28.6523 21.5041 28.2612 21.026 28.2612Z" fill="currentColor"/>
<path d="M13.3753 25.1393C13.5376 25.3132 13.7595 25.4176 13.9984 25.4176C14.2376 25.4176 14.4595 25.3132 14.6215 25.1393L19.6241 19.6698C19.9484 19.3218 19.9228 18.7653 19.5815 18.4437C19.2398 18.1133 18.6935 18.1391 18.3778 18.4871L14.8521 22.3392V12.8437C14.8521 12.3652 14.4678 11.9741 13.9984 11.9741C13.529 11.9741 13.1447 12.3652 13.1447 12.8437V22.3392L9.6276 18.4871C9.30323 18.1394 8.76531 18.1133 8.42395 18.4437C8.08259 18.7741 8.05697 19.3221 8.38135 19.6698L13.3753 25.1393Z" fill="currentColor"/>
</svg>
