<svg width="32" height="32" viewBox="0 0 32 32" fill="none" xmlns="http://www.w3.org/2000/svg">
    <g clip-path="url(#clip0_8974_4836)">
        <path d="M17.295 18.5184H5.79497C5.35425 18.5184 4.93151 18.3437 4.61941 18.0325C4.3073 17.7213 4.1313 17.2991 4.12997 16.8584V7.8584C4.14037 7.42551 4.319 7.0137 4.62798 6.71032C4.93695 6.40694 5.35197 6.23587 5.78497 6.2334H22.785C23.2214 6.23466 23.6399 6.40722 23.9503 6.71394C24.2608 7.02067 24.4384 7.43702 24.445 7.8734V15.2884" stroke="currentColor" stroke-width="1.5" stroke-miterlimit="10"/>
        <path d="M4.65497 6.65332L14.275 14.2483L23.92 6.69332" stroke="currentColor" stroke-width="1.5" stroke-miterlimit="10"/>
        <path d="M24.445 17.6534V21.1534C24.445 21.3799 24.4898 21.6041 24.5769 21.8132C24.6641 22.0222 24.7917 22.2119 24.9526 22.3714C25.1134 22.5308 25.3043 22.6569 25.5141 22.7422C25.7239 22.8275 25.9485 22.8704 26.175 22.8684V22.8684C26.6264 22.8631 27.0574 22.6801 27.3748 22.359C27.6921 22.038 27.87 21.6048 27.87 21.1534V20.4834C27.8849 19.0822 27.3688 17.7273 26.4254 16.6912C25.4821 15.6551 24.1814 15.0145 22.785 14.8984C21.9658 14.8447 21.145 14.9771 20.3843 15.2857C19.6235 15.5942 18.9425 16.071 18.3922 16.6802C17.8419 17.2895 17.4366 18.0153 17.2067 18.8035C16.9768 19.5916 16.9283 20.4215 17.0648 21.231C17.2013 22.0406 17.5192 22.8087 17.9948 23.4779C18.4703 24.1471 19.0912 24.7 19.8108 25.0952C20.5304 25.4903 21.3301 25.7174 22.15 25.7596C22.9699 25.8017 23.7887 25.6577 24.545 25.3384" stroke="currentColor" stroke-width="1.5" stroke-miterlimit="10"/>
        <path d="M22.23 22.5782C23.4505 22.5782 24.44 21.5888 24.44 20.3682C24.44 19.1477 23.4505 18.1582 22.23 18.1582C21.0094 18.1582 20.02 19.1477 20.02 20.3682C20.02 21.5888 21.0094 22.5782 22.23 22.5782Z" stroke="currentColor" stroke-width="1.5" stroke-miterlimit="10"/>
    </g>
    <defs>
        <clipPath id="clip0_8974_4836">
            <rect width="32" height="32" fill="white"/>
        </clipPath>
    </defs>
</svg>
