<svg width="26" height="22" viewBox="0 0 26 22" fill="none" xmlns="http://www.w3.org/2000/svg">
<path d="M12.8966 9.11714V2.72262C12.8966 2.19945 12.6887 1.6977 12.3188 1.32777C11.9489 0.957829 11.4471 0.75 10.9239 0.75H2.97262C2.44945 0.75 1.9477 0.957829 1.57777 1.32777C1.20783 1.6977 1 2.19945 1 2.72262V18.7723C0.999998 19.296 1.20766 19.7982 1.57746 20.169C1.94725 20.5397 2.44898 20.7487 2.97262 20.75H10.9239C11.4476 20.7487 11.9493 20.5397 12.3191 20.169C12.6889 19.7982 12.8966 19.296 12.8966 18.7723V17.6111" stroke="black" stroke-width="0.75" stroke-miterlimit="10"/>
<path d="M12.8888 17.6109L17.1789 19.1981C17.8495 19.4444 18.5766 19.4941 19.2746 19.3414C19.9726 19.1887 20.6125 18.8399 21.119 18.336L23.6545 15.831C24.1078 15.3783 24.4673 14.8408 24.7126 14.2491C24.958 13.6574 25.0842 13.0232 25.0842 12.3827C25.0842 11.7421 24.958 11.1079 24.7126 10.5162C24.4673 9.92453 24.1078 9.38701 23.6545 8.9344L19.8817 5.15651L19.4709 4.74069C19.2153 4.49431 18.8859 4.33857 18.5333 4.29735C18.1806 4.25613 17.8242 4.33171 17.5186 4.51249C17.3397 4.63897 17.1902 4.8026 17.0804 4.9922C16.9705 5.1818 16.9029 5.39288 16.8822 5.61102C16.8615 5.82915 16.8882 6.04918 16.9604 6.25606C17.0326 6.46293 17.1486 6.65177 17.3006 6.80965L17.1281 6.68795C16.8757 6.50079 16.5715 6.39641 16.2573 6.38915C15.9431 6.38188 15.6344 6.47209 15.3736 6.64738C15.2001 6.77634 15.0561 6.94079 14.9511 7.12978C14.8462 7.31877 14.7827 7.52795 14.765 7.7434C14.7472 7.95884 14.7756 8.17559 14.8482 8.37921C14.9208 8.58283 15.0359 8.76864 15.186 8.92426V8.92426C15.0039 8.74378 14.7791 8.61225 14.5326 8.54189C14.2861 8.47152 14.0257 8.4646 13.7758 8.52177C13.5259 8.57894 13.2945 8.69834 13.103 8.86889C12.9116 9.03943 12.7664 9.25559 12.6809 9.49728C12.5924 9.75952 12.5798 10.0414 12.6444 10.3105C12.7089 10.5796 12.8482 10.8251 13.046 11.0186V11.0186L8.34011 6.3127C8.0562 6.03699 7.67603 5.88277 7.28028 5.88277C6.88452 5.88277 6.50435 6.03699 6.22044 6.3127V6.3127C5.94624 6.59637 5.79297 6.97547 5.79297 7.37C5.79297 7.76453 5.94624 8.14363 6.22044 8.4273L10.3888 12.5957L10.8046 15.3948C10.8771 15.8811 11.087 16.3364 11.4095 16.7075C11.732 17.0785 12.1537 17.3497 12.6251 17.4892L12.8787 17.5804" stroke="black" stroke-width="0.75" stroke-miterlimit="10"/>
<path d="M10.4023 12.616L13.4602 15.6738" stroke="black" stroke-width="0.75" stroke-miterlimit="10"/>
<path d="M7.1875 4.62446V2.29688" stroke="black" stroke-width="0.75" stroke-miterlimit="10"/>
<path d="M4.44477 7.43872H2.11719" stroke="black" stroke-width="0.75" stroke-miterlimit="10"/>
<path d="M5.08167 5.44549L3.43359 3.80249" stroke="black" stroke-width="0.75" stroke-miterlimit="10"/>
<path d="M9.29297 5.44549L10.941 3.80249" stroke="black" stroke-width="0.75" stroke-miterlimit="10"/>
<path d="M5.29925 9.51807L3.65625 11.1611" stroke="black" stroke-width="0.75" stroke-miterlimit="10"/>
<path d="M8.11274 18.5591H5.78516" stroke="black" stroke-width="0.75" stroke-miterlimit="10"/>
</svg>
