<svg width="96" height="96" viewBox="0 0 96 96" fill="none" xmlns="http://www.w3.org/2000/svg">
<path d="M55.0502 59.355H20.5502C19.228 59.355 17.9598 58.8308 17.0235 57.8973C16.0872 56.9638 15.5591 55.6972 15.5552 54.375V27.375C15.5864 26.0763 16.1223 24.8409 17.0492 23.9308C17.9761 23.0206 19.2211 22.5074 20.5202 22.5H71.5202C72.8294 22.5038 74.0849 23.0215 75.0163 23.9416C75.9477 24.8618 76.4805 26.1109 76.5002 27.42V49.665" stroke="currentColor" stroke-width="1.5" stroke-miterlimit="10"/>
<path d="M17.1299 23.7598L45.9899 46.5448L74.9249 23.8798" stroke="currentColor" stroke-width="1.5" stroke-miterlimit="10"/>
<path d="M76.4997 56.7599V67.2599C76.4997 67.9394 76.6342 68.6121 76.8956 69.2393C77.157 69.8664 77.54 70.4356 78.0225 70.914C78.5051 71.3923 79.0776 71.7704 79.707 72.0263C80.3364 72.2822 81.0103 72.4109 81.6897 72.4049V72.4049C83.0438 72.3891 84.3371 71.8401 85.289 70.8769C86.241 69.9138 86.7748 68.6141 86.7747 67.2599V65.2499C86.8195 61.0464 85.2712 56.9818 82.4411 53.8734C79.611 50.7651 75.709 48.8434 71.5197 48.4949C69.0621 48.3338 66.5999 48.731 64.3176 49.6568C62.0353 50.5825 59.9922 52.0129 58.3413 53.8405C56.6904 55.6682 55.4746 57.8458 54.7849 60.2102C54.0953 62.5745 53.9497 65.0643 54.3592 67.4929C54.7686 69.9216 55.7224 72.226 57.149 74.2336C58.5757 76.2412 60.4383 77.8999 62.5971 79.0853C64.756 80.2707 67.1551 80.9521 69.6148 81.0785C72.0744 81.2048 74.5308 80.7729 76.7997 79.8149" stroke="currentColor" stroke-width="1.5" stroke-miterlimit="10"/>
<path d="M69.8551 71.5354C73.5167 71.5354 76.4851 68.567 76.4851 64.9054C76.4851 61.2437 73.5167 58.2754 69.8551 58.2754C66.1934 58.2754 63.2251 61.2437 63.2251 64.9054C63.2251 68.567 66.1934 71.5354 69.8551 71.5354Z" stroke="currentColor" stroke-width="1.5" stroke-miterlimit="10"/>
</svg>
