<svg width="22" height="16" viewBox="0 0 22 16" fill="none" xmlns="http://www.w3.org/2000/svg">
<path d="M21.2141 13.5001V4.07157C21.2141 4.07157 11.6808 10.7239 10.7536 11.0691C9.8422 10.7397 0.261719 4.07157 0.261719 4.07157V13.5001C0.261719 14.8097 0.539338 15.0716 1.83315 15.0716H19.6427C20.9674 15.0716 21.2141 14.8416 21.2141 13.5001ZM21.1989 2.22304C21.1989 1.26919 20.9208 0.928711 19.6427 0.928711H1.83315C0.518385 0.928711 0.261719 1.33728 0.261719 2.29062L0.277433 2.43728C0.277433 2.43728 9.74215 8.95347 10.7536 9.30966C11.8222 8.89585 21.2141 2.29062 21.2141 2.29062L21.1989 2.22304Z" fill="currentColor"/>
</svg>
