<svg width="33" height="32" viewBox="0 0 33 32" fill="none" xmlns="http://www.w3.org/2000/svg">
<path d="M17.0634 13.5901V7.28509C17.0634 7.02967 17.0131 6.77675 16.9153 6.54077C16.8176 6.30479 16.6743 6.09038 16.4937 5.90977C16.3131 5.72916 16.0987 5.58589 15.8627 5.48814C15.6267 5.3904 15.3738 5.34009 15.1184 5.34009H7.26336C6.74751 5.34009 6.25279 5.54501 5.88804 5.90977C5.52328 6.27452 5.31836 6.76924 5.31836 7.28509V23.1101C5.31836 23.6259 5.52328 24.1207 5.88804 24.4854C6.25279 24.8502 6.74751 25.0551 7.26336 25.0551H15.1034C15.36 25.0571 15.6146 25.0082 15.8523 24.9114C16.09 24.8145 16.3062 24.6715 16.4884 24.4907C16.6706 24.3099 16.8152 24.0948 16.9139 23.8579C17.0126 23.6209 17.0634 23.3668 17.0634 23.1101V21.9551" stroke="#333333" stroke-miterlimit="10"/>
<path d="M17.0623 21.9546L21.2773 23.4996C21.9371 23.7446 22.6533 23.7952 23.341 23.6454C24.0287 23.4956 24.6591 23.1518 25.1573 22.6546L27.6573 20.1846C28.1043 19.7379 28.4589 19.2075 28.7009 18.6237C28.9429 18.0399 29.0674 17.4141 29.0674 16.7821C29.0674 16.1502 28.9429 15.5244 28.7009 14.9406C28.4589 14.3567 28.1043 13.8263 27.6573 13.3796V13.3796L23.9423 9.66963L23.5373 9.25963C23.2854 9.01665 22.9609 8.86267 22.6134 8.82115C22.2659 8.77963 21.9143 8.85284 21.6123 9.02963C21.4358 9.15434 21.2884 9.31568 21.1801 9.50263C21.0718 9.68957 21.0052 9.8977 20.9848 10.1128C20.9644 10.3279 20.9907 10.5448 21.0619 10.7488C21.133 10.9528 21.2475 11.139 21.3973 11.2946C21.1144 11.0363 20.7434 10.896 20.3603 10.9025C19.9773 10.909 19.6112 11.0618 19.3373 11.3296C19.1955 11.4593 19.0818 11.6167 19.0033 11.7921C18.9247 11.9675 18.883 12.1571 18.8807 12.3492C18.8783 12.5414 18.9154 12.7319 18.9896 12.9092C19.0639 13.0864 19.1737 13.2465 19.3123 13.3796V13.3796C19.1319 13.2054 18.9106 13.0791 18.6688 13.0124C18.427 12.9458 18.1723 12.9408 17.928 12.998C17.6838 13.0552 17.4578 13.1728 17.2708 13.3399C17.0837 13.507 16.9415 13.7184 16.8573 13.9546C16.7682 14.213 16.7548 14.4914 16.8186 14.7571C16.8823 15.0228 17.0207 15.2648 17.2173 15.4546V15.4546L12.5623 10.8446C12.2823 10.5728 11.9075 10.4207 11.5173 10.4207C11.1271 10.4207 10.7522 10.5728 10.4723 10.8446V10.8446C10.2019 11.1243 10.0508 11.4981 10.0508 11.8871C10.0508 12.2761 10.2019 12.6499 10.4723 12.9296L14.5823 17.0396L14.9923 19.7946C15.0632 20.2743 15.2699 20.7236 15.588 21.0895C15.906 21.4554 16.3222 21.7226 16.7873 21.8596L17.0373 21.9546" stroke="#333333" stroke-miterlimit="10"/>
<path d="M14.5918 17.04L17.6068 20.055" stroke="#333333" stroke-miterlimit="10"/>
<path d="M11.4219 9.15511V6.86011" stroke="#333333" stroke-miterlimit="10"/>
<path d="M8.71687 11.9299H6.42188" stroke="#333333" stroke-miterlimit="10"/>
<path d="M9.34766 9.96997L7.72266 8.34497" stroke="#333333" stroke-miterlimit="10"/>
<path d="M13.498 9.96997L15.118 8.34497" stroke="#333333" stroke-miterlimit="10"/>
<path d="M9.5575 13.9797L7.9375 15.6047" stroke="#333333" stroke-miterlimit="10"/>
<path d="M12.3332 22.8953H10.0332" stroke="#333333" stroke-miterlimit="10"/>
</svg>
