<svg width="647" height="56" viewBox="0 0 647 56" fill="none" xmlns="http://www.w3.org/2000/svg">
<g clip-path="url(#clip0_7121_112668)">
<mask id="mask0_7121_112668" style="mask-type:alpha" maskUnits="userSpaceOnUse" x="146" y="26" width="358" height="31">
<rect width="357.262" height="29.9425" transform="matrix(1 0 0 -1 146.055 56.1348)" fill="white"/>
</mask>
<g mask="url(#mask0_7121_112668)">
<path d="M502.834 56.3747C470.711 56.3747 461.786 53.3833 442 52.5C419.055 51.4757 401.678 55.2501 379.5 53C368.199 51.8535 359.232 44.8492 347 36.5C338.552 30.7336 323.56 26.5 307.5 26.5C288.335 26.5 272.274 31.6272 265 39.3357C260.315 38.0132 253.707 38.3856 247.5 39C231.323 40.5985 216.117 56.3747 216.117 56.3747H145.572" fill="white"/>
</g>
<path d="M427.206 52.2015L420.822 43.3189H428.309V40.3641L430.594 40.3433H432.882V43.3189H440.369L434.149 52.247" stroke="#BABABA" stroke-linecap="round" stroke-linejoin="round"/>
<path d="M390.387 53.3965V33.5289C390.386 33.2267 390.447 32.9275 390.564 32.6489C390.68 32.3693 390.851 32.1154 391.066 31.9018C391.283 31.6877 391.539 31.5179 391.821 31.4019C392.102 31.2866 392.404 31.2282 392.708 31.2301H396.039C396.345 31.2269 396.649 31.2853 396.932 31.4019C397.214 31.5158 397.471 31.6844 397.687 31.898C397.904 32.1116 398.076 32.3659 398.194 32.6463C398.311 32.9259 398.371 33.2259 398.371 33.5289V53.3201" stroke="#BABABA" stroke-linecap="round" stroke-linejoin="round"/>
<path d="M379.659 52.9305V33.5287C379.658 33.2266 379.719 32.9274 379.836 32.6488C379.953 32.3696 380.124 32.1159 380.338 31.9016C380.776 31.471 381.366 31.2298 381.98 31.23L385.147 31.3211C385.762 31.3209 386.351 31.5621 386.789 31.9928C387.004 32.2058 387.175 32.4593 387.291 32.7385C387.408 33.0177 387.468 33.3173 387.469 33.6199V53.3605" stroke="#BABABA" stroke-linecap="round" stroke-linejoin="round"/>
<path d="M368.807 49.9042V33.5288C368.811 32.9163 369.058 32.3305 369.493 31.8996C369.928 31.4687 370.516 31.2279 371.129 31.23H374.47C375.084 31.2305 375.672 31.4717 376.11 31.9017C376.325 32.1147 376.495 32.3681 376.612 32.6474C376.728 32.9266 376.789 33.2262 376.789 33.5288V52.5296" stroke="#BABABA" stroke-linecap="round" stroke-linejoin="round"/>
<path d="M305.247 26.3723L302.481 21.0016L307.361 3.23633L312.24 21.0016L309.474 26.3723" stroke="#BABABA" stroke-linecap="round" stroke-linejoin="round"/>
<path d="M187.273 41.5972L186.32 38.7153" stroke="#BABABA" stroke-linecap="round" stroke-linejoin="round"/>
<path d="M184.572 41.8367L183.729 39.4546" stroke="#BABABA" stroke-linecap="round" stroke-linejoin="round"/>
<path d="M184.384 46.7285L176.678 55.5903" stroke="#BABABA" stroke-linecap="round" stroke-linejoin="round"/>
<path d="M188.934 46.5697C189.658 46.2648 190.334 45.8571 190.941 45.3592C191.336 45.0391 191.707 44.6911 192.052 44.3178C190.595 42.7272 188.947 41.8264 187.271 41.6077C186.365 41.5326 185.452 41.6136 184.572 41.8472C183.132 42.3043 181.854 43.1676 180.893 44.3334C181.837 45.4136 183.037 46.2404 184.383 46.7389C184.383 46.7389 185.163 47.0487 186.725 47.0487C187.485 47.0268 188.234 46.8644 188.934 46.5697V46.5697Z" stroke="#BABABA" stroke-linecap="round" stroke-linejoin="round"/>
<path d="M191.947 55.5748L188.934 46.5698" stroke="#BABABA" stroke-linecap="round" stroke-linejoin="round"/>
<path d="M190.104 45.9722L207.739 55.5749" stroke="#BABABA" stroke-linecap="round" stroke-linejoin="round"/>
<path d="M189.352 55.5695L186.713 47.3091" stroke="#BABABA" stroke-linecap="round" stroke-linejoin="round"/>
<path d="M288.014 25.7793C286.874 25.7793 285.951 24.855 285.951 23.7148C285.951 22.5747 286.874 21.6504 288.014 21.6504C289.154 21.6504 290.078 22.5747 290.078 23.7148C290.078 24.855 289.154 25.7793 288.014 25.7793Z" stroke="#BABABA" stroke-linecap="round" stroke-linejoin="round"/>
<path d="M288.014 28.101V25.7788" stroke="#BABABA" stroke-linecap="round" stroke-linejoin="round"/>
<path d="M282.739 27.1455C281.599 27.1455 280.675 26.2212 280.675 25.0811C280.675 23.9409 281.599 23.0166 282.739 23.0166C283.879 23.0166 284.803 23.9409 284.803 25.0811C284.803 26.2212 283.879 27.1455 282.739 27.1455Z" stroke="#BABABA" stroke-linecap="round" stroke-linejoin="round"/>
<path d="M282.738 29.4677V27.1455" stroke="#BABABA" stroke-linecap="round" stroke-linejoin="round"/>
<path d="M332.906 29.6269V27.3047" stroke="#BABABA" stroke-linecap="round" stroke-linejoin="round"/>
<path d="M345.438 35.2812V32.959" stroke="#BABABA" stroke-linecap="round" stroke-linejoin="round"/>
<path d="M350.86 36.499C349.72 36.499 348.796 35.5747 348.796 34.4346C348.796 33.2944 349.72 32.3701 350.86 32.3701C352 32.3701 352.924 33.2944 352.924 34.4346C352.924 35.5747 352 36.499 350.86 36.499Z" stroke="#BABABA" stroke-linecap="round" stroke-linejoin="round"/>
<path d="M350.859 38.8212V36.499" stroke="#BABABA" stroke-linecap="round" stroke-linejoin="round"/>
<path d="M413.999 50.2993C412.859 50.2993 411.935 49.375 411.935 48.2349C411.935 47.0947 412.859 46.1704 413.999 46.1704C415.139 46.1704 416.062 47.0947 416.062 48.2349C416.062 49.375 415.139 50.2993 413.999 50.2993Z" stroke="#BABABA" stroke-linecap="round" stroke-linejoin="round"/>
<path d="M413.998 52.6215V50.2993" stroke="#BABABA" stroke-linecap="round" stroke-linejoin="round"/>
<path d="M407.798 50.8731C406.658 50.8731 405.734 49.9488 405.734 48.8086C405.734 47.6684 406.658 46.7441 407.798 46.7441C408.937 46.7441 409.861 47.6684 409.861 48.8086C409.861 49.9488 408.937 50.8731 407.798 50.8731Z" stroke="#BABABA" stroke-linecap="round" stroke-linejoin="round"/>
<path d="M407.797 53.1952V50.873" stroke="#BABABA" stroke-linecap="round" stroke-linejoin="round"/>
<path d="M444.708 50.1524C443.568 50.1524 442.644 49.2281 442.644 48.0879C442.644 46.9477 443.568 46.0234 444.708 46.0234C445.847 46.0234 446.771 46.9477 446.771 48.0879C446.771 49.2281 445.847 50.1524 444.708 50.1524Z" stroke="#BABABA" stroke-linecap="round" stroke-linejoin="round"/>
<path d="M444.709 52.4745V50.1523" stroke="#BABABA" stroke-linecap="round" stroke-linejoin="round"/>
<path d="M235.008 40.0845C233.869 40.0845 232.945 39.1602 232.945 38.02C232.945 36.8799 233.869 35.9556 235.008 35.9556C236.148 35.9556 237.072 36.8799 237.072 38.02C237.072 39.1602 236.148 40.0845 235.008 40.0845Z" stroke="#BABABA" stroke-linecap="round" stroke-linejoin="round"/>
<path d="M235.01 42.4067V40.0845" stroke="#BABABA" stroke-linecap="round" stroke-linejoin="round"/>
<path d="M262.805 38.5586V25.0811H259.528V28.3326H253.862V25.0811H250.586V28.3326H243.098V25.0811H239.822V40.6882" stroke="#BABABA" stroke-linecap="round" stroke-linejoin="round"/>
<path d="M646.154 55.5978H481.753C481.753 55.5978 455.361 53.0759 442.192 52.5689C417.398 51.6141 401.636 55.3721 379.458 53.122C368.158 51.9755 358.547 44.2735 346.315 35.9243C337.868 30.1578 323.673 26.3726 307.613 26.3726C288.449 26.3726 271.972 31.7537 264.698 39.4622C260.014 38.1397 254.918 37.9445 248.711 38.5589C232.534 40.1573 216.44 55.5978 216.44 55.5978H0.000417045" stroke="#BABABA" stroke-linecap="square" stroke-linejoin="round"/>
<path d="M318.977 24.4798H323.763L321.369 20.3872L318.977 24.4798Z" stroke="#BABABA" stroke-linecap="round" stroke-linejoin="round"/>
<path d="M330.559 27.1455H335.384L332.97 23.2837L330.559 27.1455Z" stroke="#BABABA" stroke-linecap="round" stroke-linejoin="round"/>
<path d="M343.105 32.6162H347.931L345.517 28.7544L343.105 32.6162Z" stroke="#BABABA" stroke-linecap="round" stroke-linejoin="round"/>
<path d="M321.369 26.9479V24.5356" stroke="#BABABA" stroke-linecap="round" stroke-linejoin="round"/>
<path d="M302.053 2.08572C302.053 1.7268 301.91 1.38259 301.656 1.12879C301.403 0.875001 301.058 0.732422 300.699 0.732422C300.341 0.732422 299.996 0.875001 299.743 1.12879C299.489 1.38259 299.346 1.7268 299.346 2.08572" stroke="#BABABA" stroke-linecap="round" stroke-linejoin="round"/>
<path d="M304.743 2.08549C304.751 1.90295 304.722 1.72068 304.657 1.54967C304.593 1.37865 304.495 1.22244 304.369 1.09044C304.242 0.958438 304.09 0.853387 303.922 0.781619C303.754 0.709851 303.574 0.672852 303.391 0.672852C303.208 0.672852 303.027 0.709851 302.859 0.781619C302.691 0.853387 302.54 0.958438 302.413 1.09044C302.287 1.22244 302.189 1.37865 302.124 1.54967C302.06 1.72068 302.031 1.90295 302.039 2.08549" stroke="#BABABA" stroke-linecap="round" stroke-linejoin="round"/>
<path d="M296.641 5.55204C296.641 5.19312 296.498 4.8489 296.244 4.5951C295.99 4.34131 295.646 4.19873 295.287 4.19873C294.928 4.19873 294.584 4.34131 294.33 4.5951C294.077 4.8489 293.934 5.19312 293.934 5.55204" stroke="#BABABA" stroke-linecap="round" stroke-linejoin="round"/>
<path d="M299.344 5.55228C299.352 5.36975 299.323 5.18748 299.259 5.01646C299.195 4.84545 299.096 4.68923 298.97 4.55723C298.844 4.42523 298.692 4.32018 298.524 4.24842C298.356 4.17665 298.175 4.13965 297.992 4.13965C297.81 4.13965 297.629 4.17665 297.461 4.24842C297.293 4.32018 297.141 4.42523 297.015 4.55723C296.888 4.68923 296.79 4.84545 296.726 5.01646C296.661 5.18748 296.632 5.36975 296.64 5.55228" stroke="#BABABA" stroke-linecap="round" stroke-linejoin="round"/>
<path d="M283.02 6.97147C283.02 6.61255 282.877 6.26833 282.623 6.01454C282.369 5.76074 282.025 5.61816 281.666 5.61816C281.307 5.61816 280.963 5.76074 280.709 6.01454C280.455 6.26833 280.313 6.61255 280.313 6.97147" stroke="#BABABA" stroke-linecap="round" stroke-linejoin="round"/>
<path d="M285.727 6.97147C285.727 6.61255 285.584 6.26833 285.33 6.01454C285.076 5.76074 284.732 5.61816 284.373 5.61816C284.014 5.61816 283.67 5.76074 283.416 6.01454C283.163 6.26833 283.02 6.61255 283.02 6.97147" stroke="#BABABA" stroke-linecap="round" stroke-linejoin="round"/>
<path d="M335.613 12.0198C335.613 11.6609 335.471 11.3167 335.217 11.0629C334.963 10.8091 334.619 10.6665 334.26 10.6665C333.901 10.6665 333.557 10.8091 333.303 11.0629C333.049 11.3167 332.907 11.6609 332.907 12.0198" stroke="#BABABA" stroke-linecap="round" stroke-linejoin="round"/>
<path d="M338.315 12.0201C338.323 11.8375 338.294 11.6552 338.23 11.4842C338.165 11.3132 338.067 11.157 337.941 11.025C337.814 10.893 337.663 10.788 337.495 10.7162C337.327 10.6444 337.146 10.6074 336.963 10.6074C336.78 10.6074 336.6 10.6444 336.432 10.7162C336.263 10.788 336.112 10.893 335.985 11.025C335.859 11.157 335.761 11.3132 335.696 11.4842C335.632 11.6552 335.603 11.8375 335.611 12.0201" stroke="#BABABA" stroke-linecap="round" stroke-linejoin="round"/>
<path d="M393.377 11.3431C393.377 10.9841 393.234 10.6399 392.981 10.3861C392.727 10.1323 392.383 9.98975 392.024 9.98975C391.665 9.98975 391.32 10.1323 391.067 10.3861C390.813 10.6399 390.67 10.9841 390.67 11.3431" stroke="#BABABA" stroke-linecap="round" stroke-linejoin="round"/>
<path d="M396.09 11.3428C396.099 11.1603 396.069 10.978 396.005 10.807C395.941 10.636 395.843 10.4798 395.716 10.3478C395.59 10.2158 395.438 10.1107 395.27 10.0389C395.102 9.96717 394.921 9.93018 394.738 9.93018C394.556 9.93018 394.375 9.96717 394.207 10.0389C394.039 10.1107 393.887 10.2158 393.761 10.3478C393.634 10.4798 393.536 10.636 393.472 10.807C393.407 10.978 393.378 11.1603 393.386 11.3428" stroke="#BABABA" stroke-linecap="round" stroke-linejoin="round"/>
</g>
<defs>
<clipPath id="clip0_7121_112668">
<rect width="646.154" height="56" fill="white"/>
</clipPath>
</defs>
</svg>
