<svg width="2560" viewBox="0 0 2560 176" fill="none" xmlns="http://www.w3.org/2000/svg">
<g clip-path="url(#clip0_7055_128805)">
<mask id="mask0_7055_128805" style="mask-type:alpha" maskUnits="userSpaceOnUse" x="725" y="84" width="1110" height="93">
<rect width="1110" height="93" transform="matrix(1 0 0 -1 725 177)" fill="white"/>
</mask>
<g mask="url(#mask0_7055_128805)">
<path d="M1833.5 176.072C1733.7 176.072 1705.47 168.743 1644 166C1572.71 162.819 1517.41 174.489 1448.5 167.5C1413.39 163.939 1386 140.432 1348 114.5C1321.75 96.5897 1275.4 84.5 1225.5 84.5C1165.96 84.5 1116.1 101.058 1093.5 125C1078.95 120.892 1061.28 120.592 1042 122.5C995 127.151 942.681 176.072 942.681 176.072H723.5" fill="white"/>
</g>
<path d="M1598.53 164.784L1578.69 137.195H1601.95V128.018L1609.05 127.953H1616.16V137.195H1639.42L1620.1 164.925" stroke="#BABABA" stroke-width="1.5" stroke-linecap="round" stroke-linejoin="round"/>
<path d="M1484.13 168.495V106.788C1484.13 105.849 1484.31 104.92 1484.68 104.055C1485.04 103.186 1485.57 102.397 1486.24 101.734C1486.91 101.069 1487.71 100.542 1488.58 100.182C1489.46 99.8233 1490.4 99.6419 1491.34 99.6479H1501.69C1502.64 99.6378 1503.58 99.8193 1504.46 100.182C1505.34 100.535 1506.14 101.059 1506.81 101.722C1507.48 102.386 1508.02 103.176 1508.39 104.047C1508.75 104.915 1508.94 105.847 1508.94 106.788V168.258" stroke="#BABABA" stroke-width="1.5" stroke-linecap="round" stroke-linejoin="round"/>
<path d="M1450.79 167.048V106.787C1450.79 105.849 1450.98 104.92 1451.34 104.054C1451.71 103.187 1452.24 102.399 1452.91 101.734C1454.27 100.396 1456.1 99.6469 1458.01 99.6475L1467.85 99.9305C1469.76 99.9299 1471.59 100.679 1472.95 102.017C1473.62 102.678 1474.15 103.466 1474.51 104.333C1474.87 105.2 1475.06 106.13 1475.06 107.07V168.384" stroke="#BABABA" stroke-width="1.5" stroke-linecap="round" stroke-linejoin="round"/>
<path d="M1417.08 157.649V106.787C1417.09 104.885 1417.86 103.065 1419.21 101.727C1420.56 100.389 1422.39 99.641 1424.29 99.6475H1434.68C1436.58 99.6491 1438.41 100.398 1439.77 101.734C1440.44 102.395 1440.97 103.183 1441.33 104.05C1441.69 104.917 1441.88 105.847 1441.88 106.787V165.803" stroke="#BABABA" stroke-width="1.5" stroke-linecap="round" stroke-linejoin="round"/>
<path d="M1219.6 84.5605L1211.01 67.8793L1226.17 12.7012L1241.33 67.8793L1232.73 84.5605" stroke="#BABABA" stroke-width="1.5" stroke-linecap="round" stroke-linejoin="round"/>
<path d="M853.059 131.847L850.1 122.896" stroke="#BABABA" stroke-width="1.5" stroke-linecap="round" stroke-linejoin="round"/>
<path d="M844.669 132.59L842.049 125.192" stroke="#BABABA" stroke-width="1.5" stroke-linecap="round" stroke-linejoin="round"/>
<path d="M844.083 147.784L820.141 175.309" stroke="#BABABA" stroke-width="1.5" stroke-linecap="round" stroke-linejoin="round"/>
<path d="M858.222 147.291C860.47 146.345 862.57 145.078 864.456 143.532C865.683 142.538 866.837 141.457 867.909 140.297C863.381 135.357 858.262 132.559 853.055 131.88C850.238 131.646 847.402 131.898 844.67 132.624C840.195 134.043 836.225 136.725 833.236 140.346C836.172 143.701 839.899 146.269 844.079 147.817C844.079 147.817 846.505 148.779 851.357 148.779C853.717 148.711 856.045 148.207 858.222 147.291V147.291Z" stroke="#BABABA" stroke-width="1.5" stroke-linecap="round" stroke-linejoin="round"/>
<path d="M867.584 175.26L858.221 147.291" stroke="#BABABA" stroke-width="1.5" stroke-linecap="round" stroke-linejoin="round"/>
<path d="M861.855 145.435L916.649 175.26" stroke="#BABABA" stroke-width="1.5" stroke-linecap="round" stroke-linejoin="round"/>
<path d="M859.517 175.243L851.318 149.587" stroke="#BABABA" stroke-width="1.5" stroke-linecap="round" stroke-linejoin="round"/>
<path d="M1166.06 82.7178C1162.52 82.7178 1159.65 79.847 1159.65 76.3057C1159.65 72.7644 1162.52 69.8936 1166.06 69.8936C1169.6 69.8936 1172.47 72.7644 1172.47 76.3057C1172.47 79.847 1169.6 82.7178 1166.06 82.7178Z" stroke="#BABABA" stroke-width="1.5" stroke-linecap="round" stroke-linejoin="round"/>
<path d="M1166.06 89.9294V82.7168" stroke="#BABABA" stroke-width="1.5" stroke-linecap="round" stroke-linejoin="round"/>
<path d="M1149.67 86.9619C1146.13 86.9619 1143.26 84.0911 1143.26 80.5498C1143.26 77.0085 1146.13 74.1377 1149.67 74.1377C1153.21 74.1377 1156.08 77.0085 1156.08 80.5498C1156.08 84.0911 1153.21 86.9619 1149.67 86.9619Z" stroke="#BABABA" stroke-width="1.5" stroke-linecap="round" stroke-linejoin="round"/>
<path d="M1149.67 94.1745V86.9619" stroke="#BABABA" stroke-width="1.5" stroke-linecap="round" stroke-linejoin="round"/>
<path d="M1305.54 94.6682V87.4556" stroke="#BABABA" stroke-width="1.5" stroke-linecap="round" stroke-linejoin="round"/>
<path d="M1344.47 112.231V105.018" stroke="#BABABA" stroke-width="1.5" stroke-linecap="round" stroke-linejoin="round"/>
<path d="M1361.32 116.013C1357.78 116.013 1354.91 113.142 1354.91 109.601C1354.91 106.06 1357.78 103.189 1361.32 103.189C1364.86 103.189 1367.73 106.06 1367.73 109.601C1367.73 113.142 1364.86 116.013 1361.32 116.013Z" stroke="#BABABA" stroke-width="1.5" stroke-linecap="round" stroke-linejoin="round"/>
<path d="M1361.32 123.226V116.013" stroke="#BABABA" stroke-width="1.5" stroke-linecap="round" stroke-linejoin="round"/>
<path d="M1557.49 158.876C1553.95 158.876 1551.07 156.005 1551.07 152.463C1551.07 148.922 1553.95 146.051 1557.49 146.051C1561.03 146.051 1563.9 148.922 1563.9 152.463C1563.9 156.005 1561.03 158.876 1557.49 158.876Z" stroke="#BABABA" stroke-width="1.5" stroke-linecap="round" stroke-linejoin="round"/>
<path d="M1557.49 166.088V158.875" stroke="#BABABA" stroke-width="1.5" stroke-linecap="round" stroke-linejoin="round"/>
<path d="M1538.22 160.658C1534.68 160.658 1531.81 157.787 1531.81 154.246C1531.81 150.705 1534.68 147.834 1538.22 147.834C1541.76 147.834 1544.63 150.705 1544.63 154.246C1544.63 157.787 1541.76 160.658 1538.22 160.658Z" stroke="#BABABA" stroke-width="1.5" stroke-linecap="round" stroke-linejoin="round"/>
<path d="M1538.22 167.871V160.658" stroke="#BABABA" stroke-width="1.5" stroke-linecap="round" stroke-linejoin="round"/>
<path d="M1652.9 158.42C1649.36 158.42 1646.49 155.549 1646.49 152.008C1646.49 148.467 1649.36 145.596 1652.9 145.596C1656.44 145.596 1659.31 148.467 1659.31 152.008C1659.31 155.549 1656.44 158.42 1652.9 158.42Z" stroke="#BABABA" stroke-width="1.5" stroke-linecap="round" stroke-linejoin="round"/>
<path d="M1652.9 165.633V158.42" stroke="#BABABA" stroke-width="1.5" stroke-linecap="round" stroke-linejoin="round"/>
<path d="M1001.38 127.149C997.834 127.149 994.963 124.278 994.963 120.737C994.963 117.196 997.834 114.325 1001.38 114.325C1004.92 114.325 1007.79 117.196 1007.79 120.737C1007.79 124.278 1004.92 127.149 1001.38 127.149Z" stroke="#BABABA" stroke-width="1.5" stroke-linecap="round" stroke-linejoin="round"/>
<path d="M1001.38 134.362V127.149" stroke="#BABABA" stroke-width="1.5" stroke-linecap="round" stroke-linejoin="round"/>
<path d="M1087.73 122.41V80.5498H1077.55V90.6491H1059.95V80.5498H1049.77V90.6491H1026.51V80.5498H1016.33V129.025" stroke="#BABABA" stroke-width="1.5" stroke-linecap="round" stroke-linejoin="round"/>
<path d="M2560 175.333H1768C1768 175.333 1686 167.5 1645.09 165.925C1568.05 162.96 1519.08 174.632 1450.17 167.643C1415.06 164.082 1385.2 140.16 1347.2 114.228C1320.95 96.3174 1276.85 84.5605 1226.95 84.5605C1167.41 84.5605 1116.22 101.274 1093.62 125.216C1079.06 121.109 1063.23 120.502 1043.95 122.411C993.684 127.375 943.681 175.333 943.681 175.333H0" stroke="#BABABA" stroke-width="1.5" stroke-linecap="square" stroke-linejoin="round"/>
<path d="M1262.26 78.6813H1277.13L1269.69 65.9697L1262.26 78.6813Z" stroke="#BABABA" stroke-width="1.5" stroke-linecap="round" stroke-linejoin="round"/>
<path d="M1298.24 86.9604H1313.24L1305.73 74.9658L1298.24 86.9604Z" stroke="#BABABA" stroke-width="1.5" stroke-linecap="round" stroke-linejoin="round"/>
<path d="M1337.22 103.953H1352.22L1344.72 91.958L1337.22 103.953Z" stroke="#BABABA" stroke-width="1.5" stroke-linecap="round" stroke-linejoin="round"/>
<path d="M1269.69 86.347V78.8545" stroke="#BABABA" stroke-width="1.5" stroke-linecap="round" stroke-linejoin="round"/>
<path d="M1209.67 5.38922C1209.67 4.27408 1209.23 3.20461 1208.44 2.41608C1207.65 1.62756 1206.58 1.18457 1205.47 1.18457C1204.35 1.18457 1203.28 1.62756 1202.5 2.41608C1201.71 3.20461 1201.26 4.27408 1201.26 5.38922" stroke="#BABABA" stroke-width="1.5" stroke-linecap="round" stroke-linejoin="round"/>
<path d="M1218.04 5.38901C1218.06 4.82187 1217.97 4.25556 1217.77 3.72423C1217.57 3.1929 1217.26 2.70754 1216.87 2.29742C1216.48 1.8873 1216.01 1.56092 1215.49 1.33794C1214.96 1.11496 1214.4 1 1213.83 1C1213.27 1 1212.7 1.11496 1212.18 1.33794C1211.66 1.56092 1211.19 1.8873 1210.8 2.29742C1210.4 2.70754 1210.1 3.1929 1209.9 3.72423C1209.7 4.25556 1209.61 4.82187 1209.63 5.38901" stroke="#BABABA" stroke-width="1.5" stroke-linecap="round" stroke-linejoin="round"/>
<path d="M1192.87 16.5499C1192.87 15.4347 1192.42 14.3653 1191.63 13.5767C1190.85 12.7882 1189.78 12.3452 1188.66 12.3452C1187.55 12.3452 1186.48 12.7882 1185.69 13.5767C1184.9 14.3653 1184.46 15.4347 1184.46 16.5499" stroke="#BABABA" stroke-width="1.5" stroke-linecap="round" stroke-linejoin="round"/>
<path d="M1201.27 16.5506C1201.29 15.9835 1201.2 15.4172 1201 14.8859C1200.8 14.3545 1200.5 13.8692 1200.1 13.459C1199.71 13.0489 1199.24 12.7225 1198.72 12.4996C1198.19 12.2766 1197.63 12.1616 1197.06 12.1616C1196.5 12.1616 1195.94 12.2766 1195.41 12.4996C1194.89 12.7225 1194.42 13.0489 1194.03 13.459C1193.63 13.8692 1193.33 14.3545 1193.13 14.8859C1192.93 15.4172 1192.84 15.9835 1192.86 16.5506" stroke="#BABABA" stroke-width="1.5" stroke-linecap="round" stroke-linejoin="round"/>
<path d="M1150.54 22.631C1150.54 21.5158 1150.1 20.4463 1149.31 19.6578C1148.52 18.8693 1147.45 18.4263 1146.34 18.4263C1145.22 18.4263 1144.15 18.8693 1143.37 19.6578C1142.58 20.4463 1142.13 21.5158 1142.13 22.631" stroke="#BABABA" stroke-width="1.5" stroke-linecap="round" stroke-linejoin="round"/>
<path d="M1158.95 22.631C1158.95 21.5158 1158.51 20.4463 1157.72 19.6578C1156.93 18.8693 1155.86 18.4263 1154.75 18.4263C1153.63 18.4263 1152.56 18.8693 1151.77 19.6578C1150.98 20.4463 1150.54 21.5158 1150.54 22.631" stroke="#BABABA" stroke-width="1.5" stroke-linecap="round" stroke-linejoin="round"/>
<path d="M1313.95 39.9835C1313.95 38.8683 1313.51 37.7989 1312.72 37.0103C1311.93 36.2218 1310.86 35.7788 1309.75 35.7788C1308.63 35.7788 1307.56 36.2218 1306.77 37.0103C1305.98 37.7989 1305.54 38.8683 1305.54 39.9835" stroke="#BABABA" stroke-width="1.5" stroke-linecap="round" stroke-linejoin="round"/>
<path d="M1322.34 39.9832C1322.37 39.4161 1322.28 38.8498 1322.08 38.3184C1321.88 37.7871 1321.57 37.3018 1321.18 36.8917C1320.79 36.4815 1320.31 36.1552 1319.79 35.9322C1319.27 35.7092 1318.71 35.5942 1318.14 35.5942C1317.57 35.5942 1317.01 35.7092 1316.49 35.9322C1315.97 36.1552 1315.5 36.4815 1315.1 36.8917C1314.71 37.3018 1314.41 37.7871 1314.21 38.3184C1314.01 38.8498 1313.92 39.4161 1313.94 39.9832" stroke="#BABABA" stroke-width="1.5" stroke-linecap="round" stroke-linejoin="round"/>
<path d="M1493.42 37.881C1493.42 36.7658 1492.97 35.6963 1492.19 34.9078C1491.4 34.1193 1490.33 33.6763 1489.21 33.6763C1488.1 33.6763 1487.03 34.1193 1486.24 34.9078C1485.45 35.6963 1485.01 36.7658 1485.01 37.881" stroke="#BABABA" stroke-width="1.5" stroke-linecap="round" stroke-linejoin="round"/>
<path d="M1501.85 37.8807C1501.87 37.3135 1501.78 36.7472 1501.58 36.2159C1501.38 35.6846 1501.08 35.1992 1500.69 34.7891C1500.29 34.379 1499.82 34.0526 1499.3 33.8296C1498.78 33.6067 1498.22 33.4917 1497.65 33.4917C1497.08 33.4917 1496.52 33.6067 1496 33.8296C1495.48 34.0526 1495 34.379 1494.61 34.7891C1494.22 35.1992 1493.91 35.6846 1493.71 36.2159C1493.51 36.7472 1493.42 37.3135 1493.45 37.8807" stroke="#BABABA" stroke-width="1.5" stroke-linecap="round" stroke-linejoin="round"/>
</g>
<defs>
<clipPath id="clip0_7055_128805">
<rect width="2560" height="176" fill="white"/>
</clipPath>
</defs>
</svg>
