<svg width="65" height="65" viewBox="0 0 65 65" fill="none" xmlns="http://www.w3.org/2000/svg">
<path d="M47.0177 16.0427H17.471C14.9037 16.0427 12.4416 17.0626 10.6262 18.8779C8.81087 20.6933 7.79102 23.1554 7.79102 25.7227V48.4961H56.711V25.7227C56.711 24.4504 56.4602 23.1906 55.9729 22.0153C55.4856 20.84 54.7714 19.7723 53.8711 18.8732C52.9708 17.9742 51.9021 17.2614 50.7262 16.7757C49.5502 16.2901 48.29 16.041 47.0177 16.0427V16.0427Z" stroke="#333333" stroke-width="1.5" stroke-miterlimit="10"/>
<path d="M38.791 28.8293H46.5377V36.8293C46.5377 37.7806 46.1598 38.6929 45.4872 39.3655C44.8145 40.0381 43.9023 40.416 42.951 40.416H42.391C41.4398 40.416 40.5275 40.0381 39.8549 39.3655C39.1822 38.6929 38.8043 37.7806 38.8043 36.8293V28.8293H38.791Z" stroke="#333333" stroke-width="1.5" stroke-miterlimit="10"/>
<path d="M42.6582 36.0432V33.1499" stroke="#333333" stroke-width="1.5" stroke-miterlimit="10"/>
<path d="M8.41797 28.8293H56.0713" stroke="#333333" stroke-width="1.5" stroke-miterlimit="10"/>
<path d="M18.457 16.0166C21.0256 16.0201 23.4877 17.043 25.3026 18.8604C27.1176 20.6779 28.137 23.1414 28.137 25.7099V48.4699" stroke="#333333" stroke-width="1.5" stroke-miterlimit="10"/>
</svg>
