<svg version="1.2" xmlns="http://www.w3.org/2000/svg" viewBox="0 0 48 48" width="48" height="48">
	<title>icon-book-with-child-colored-svg</title>
	<style>
		.s0 { fill: none;stroke: #333333;stroke-width: 1.6 } 
		.s1 { fill: #5158d8;stroke: #5158d8;stroke-width: 1.6 } 
		.s2 { fill: #ffffff;stroke: #333333;stroke-width: 1.6 } 
		.s3 { fill: #c7caff;stroke: #333333;stroke-width: 1.6 } 
	</style>
	<path id="Layer" class="s0" d="m37.4 42h0.2q1.5 0 2.9 0.6 1.5 0.6 2.6 1.7 1.1 1.1 1.7 2.5 0.6 1.5 0.6 3h-24.8q0-1.5 0.6-3 0.6-1.4 1.7-2.5 1.1-1.1 2.5-1.7 1.4-0.6 3-0.6h0.2"/>
	<path id="Layer" class="s1" d="m26.2 39.1h-21.9c-0.8 0-1.6-0.3-2.2-0.9-0.6-0.6-0.9-1.4-0.9-2.3q0-0.1 0-0.3v-32.6c0 1.7 1.8 3.1 4.1 3.1h26.8q0.1 0 0.2-0.1c0.1 0-0.1-0.8 0.2-0.3v15.8z"/>
	<path id="Layer" class="s0" d="m10.9 11.9h12.8"/>
	<path id="Layer" class="s0" d="m8 15.9h18.8"/>
	<path id="Layer" class="s2" d="m32.5 5.6c0.1 0.2-0.1 0.5-0.4 0.5h-26.8c-2.3 0-4.1-1.4-4.1-3.1v-1.8c0-1.7 1.8-3 4.1-3h26.8c0.4 0 0.5 0.2 0.4 0.5-0.7 1-1 2.2-1 3.4 0 1.2 0.3 2.4 1 3.5z"/>
	<path id="Layer" class="s0" d="m19.5 20h-4.3"/>
	<path id="Layer" class="s2" d="m40.4 29.9v6.1c0 2-0.8 3.9-2.2 5.3-1.4 1.4-3.2 2.1-5.2 2.1-2 0-3.8-0.7-5.2-2.1-1.4-1.4-2.2-3.3-2.2-5.3v-6.1z"/>
	<path id="Layer" class="s3" d="m25.6 29.9v-3.7c0-1.2 0.5-2.4 1.4-3.3 0.8-0.9 2-1.4 3.3-1.4h5.4c1.2 0 2.4 0.5 3.3 1.4 0.9 0.9 1.4 2.1 1.4 3.3v3.7z"/>
	<path id="Layer" class="s0" d="m36.1 29.9h10.9"/>
	<path id="Layer" class="s0" d="m30.6 37.3v-4.3"/>
	<path id="Layer" class="s0" d="m35.3 37.3v-4.3"/>
</svg>