<svg version="1.2" xmlns="http://www.w3.org/2000/svg" viewBox="0 0 49 48" width="49" height="48">
	<title>Group 1040-svg</title>
	<style>
		.s0 { fill: none;stroke: #333333;stroke-width: 1.5 } 
	</style>
	<path id="Layer" class="s0" d="m32.9 38.2h-18.8c-0.9 0-1.7-0.3-2.3-0.9-0.7-0.5-1-1.3-1.1-2.2l1.9-19.2c0.1-0.8 0.5-1.5 1.2-2 0.6-0.5 1.3-0.8 2.1-0.8h15.2c0.8 0 1.5 0.3 2.1 0.8 0.6 0.5 1 1.2 1.2 2l1.9 19.2c-0.1 0.9-0.4 1.7-1.1 2.2-0.6 0.6-1.4 0.9-2.3 0.9z"/>
	<path id="Layer" class="s0" d="m13.4 42.1l3.8-3.9"/>
	<path id="Layer" class="s0" d="m33.6 42.1l-3.8-3.9"/>
	<path id="Layer" class="s0" d="m11.5 26.8h23.9"/>
	<path id="Layer" class="s0" d="m12.4 17.7h22.1"/>
	<path id="Layer" class="s0" d="m14.3 31l5.1 1.1"/>
	<path id="Layer" class="s0" d="m32.7 31l-5.1 1.1"/>
	<path id="Layer" class="s0" d="m22 13.1l4.9-4.3"/>
	<path id="Layer" class="s0" d="m36.3 8.6h-24.8"/>
</svg>