<svg version="1.2" xmlns="http://www.w3.org/2000/svg" viewBox="0 0 48 48" width="48" height="48">
	<title>icon-castle-colored-svg</title>
	<style>
		.s0 { fill: #ffffff;stroke: #000000;stroke-width: 1.5 } 
		.s1 { fill: #e46054;stroke: #e46054;stroke-width: 1.5 } 
		.s2 { fill: none;stroke: #000000;stroke-width: 1.5 } 
	</style>
	<path id="Layer" class="s0" d="m47 11.1v7.2 26.7h-46v-26.7-7.2h12.2v5.6h21.6v-5.6z"/>
	<path id="Layer" class="s1" d="m13.2 11.1h-12.2v-1.1l6.1-6 6.1 6z"/>
	<path id="Layer" class="s2" d="m6.8 19.8v-4.5"/>
	<path id="Layer" class="s2" d="m40.9 19.8v-4.5"/>
	<path id="Layer" class="s2" d="m6.8 30.1v-4.5"/>
	<path id="Layer" class="s2" d="m40.9 30.1v-4.5"/>
	<path id="Layer" class="s2" d="m6.8 40.4v-4.6"/>
	<path id="Layer" class="s2" d="m24 30.1v-4.5"/>
	<path id="Layer" class="s2" d="m24 40.4v-4.6"/>
	<path id="Layer" class="s2" d="m15.8 30.1v-4.5"/>
	<path id="Layer" class="s2" d="m15.8 40.4v-4.6"/>
	<path id="Layer" class="s2" d="m32.5 30.1v-4.5"/>
	<path id="Layer" class="s2" d="m32.5 40.4v-4.6"/>
	<path id="Layer" class="s2" d="m40.9 40.4v-4.6"/>
	<path id="Layer" class="s1" d="m13.2 16.7h21.6v5.1h-21.6z"/>
	<path id="Layer" class="s1" d="m35.8 9.1v-1.1l6-6 6.2 6v1.1z"/>
</svg>