<svg version="1.2" xmlns="http://www.w3.org/2000/svg" viewBox="0 0 40 40" width="40" height="40">
	<title>icon-comunity-svg</title>
	<style>
		.s0 { fill: none;stroke: #333333;stroke-width: 1.2 } 
	</style>
	<path id="Layer" class="s0" d="m16.3 27.4h-15.2c0-1.7 0.7-3.3 1.9-4.4 1.1-1.2 2.7-1.9 4.4-1.9"/>
	<path id="Layer" class="s0" d="m16.3 27.4h0.2"/>
	<path id="Layer" class="s0" d="m17 13.3v-0.4-1.2"/>
	<path id="Layer" class="s0" d="m14 21.5c-0.9 0.5-1.9 0.8-2.9 0.8-1.6 0-3.1-0.6-4.2-1.7-1.1-1.2-1.8-2.7-1.8-4.2v-4.7"/>
	<path id="Layer" class="s0" d="m5.1 11.7c0-1.4 0.6-2.7 1.6-3.7 1-1 2.3-1.6 3.7-1.6h1.3c1.4 0 2.8 0.6 3.8 1.6 0.9 1 1.5 2.3 1.5 3.7"/>
	<path id="Layer" class="s0" d="m17 11.7v-0.3"/>
	<path id="Layer" class="s0" d="m5.1 11.7v-0.3"/>
	<path id="Layer" class="s0" d="m23.5 27.4h0.1"/>
	<path id="Layer" class="s0" d="m32.6 21.1c1.7 0 3.3 0.7 4.4 1.9 1.2 1.1 1.9 2.7 1.9 4.4h-15.3"/>
	<path id="Layer" class="s0" d="m34.9 11.7v4.7q0 1.1-0.5 2.2-0.4 1.1-1.3 2-0.8 0.8-1.9 1.2-1.1 0.5-2.3 0.5c-1.1 0-2.1-0.3-3-0.9"/>
	<path id="Layer" class="s0" d="m34.9 11.7v-0.3"/>
	<path id="Layer" class="s0" d="m23 11.7c0-1.4 0.6-2.7 1.5-3.7 1-1 2.4-1.6 3.8-1.6h1.3c1.4 0 2.7 0.6 3.7 1.6 1 1 1.6 2.3 1.6 3.7"/>
	<path id="Layer" class="s0" d="m23 11.7v-0.3"/>
	<path id="Layer" class="s0" d="m23 13.3v-0.4-1.2"/>
	<path id="Layer" class="s0" d="m23.6 27.4c1.7 0 3.3 0.6 4.5 1.8 1.1 1.2 1.8 2.8 1.8 4.4h-19.9c0-1.6 0.7-3.2 1.9-4.4 1.1-1.2 2.7-1.8 4.4-1.8"/>
	<path id="Layer" class="s0" d="m14 17.9c0-0.9 0.3-1.9 0.8-2.7 0.6-0.8 1.3-1.5 2.2-1.9"/>
	<path id="Layer" class="s0" d="m14 17.7v0.3"/>
	<path id="Layer" class="s0" d="m23 13.3c0.9 0.4 1.6 1.1 2.1 1.9 0.5 0.8 0.8 1.8 0.8 2.7"/>
	<path id="Layer" class="s0" d="m25.9 18v1.1 2.3"/>
	<path id="Layer" class="s0" d="m25.9 21.4v1.2c0 0.9-0.2 1.9-0.6 2.7-0.5 0.8-1.1 1.5-1.8 2.1"/>
	<path id="Layer" class="s0" d="m23.5 27.4c-1 0.7-2.3 1.1-3.5 1.1-1.3 0-2.5-0.4-3.5-1.1"/>
	<path id="Layer" class="s0" d="m16.5 27.4c-0.8-0.6-1.4-1.3-1.8-2.1-0.4-0.8-0.7-1.8-0.7-2.7v-1.1"/>
	<path id="Layer" class="s0" d="m14 18v1.1 2.4"/>
	<path id="Layer" class="s0" d="m25.9 18v-0.3"/>
	<path id="Layer" class="s0" d="m17 13.3q1.1-0.6 2.3-0.6h1.3c0.8 0 1.7 0.2 2.4 0.6"/>
</svg>