<svg version="1.2" xmlns="http://www.w3.org/2000/svg" viewBox="0 0 40 40" width="40" height="40">
	<title>02_Doprava a mapy_iconset-svg</title>
	<style>
		.s0 { fill: none;stroke: #333333;stroke-width: 1.5 } 
	</style>
	<path id="Layer" class="s0" d="m26.8 30.1h-14.2"/>
	<path id="Layer" class="s0" d="m6 30.1h-3.1c-0.6 0-1.2-0.2-1.6-0.7-0.4-0.4-0.7-0.9-0.7-1.5v-12.1c0-0.5 0.3-1.1 0.7-1.5 0.4-0.4 1-0.6 1.6-0.6h33.7c0.6 0 1.1 0.2 1.6 0.6 0.4 0.4 0.6 1 0.6 1.6v12c0 0.6-0.2 1.1-0.6 1.5-0.5 0.5-1 0.7-1.6 0.7h-3.2"/>
	<path id="Layer" class="s0" d="m9.3 26.8c0.7 0 1.3 0.2 1.9 0.5 0.5 0.4 0.9 0.9 1.2 1.5 0.3 0.6 0.3 1.3 0.2 2-0.1 0.6-0.5 1.2-0.9 1.7-0.5 0.4-1.1 0.8-1.7 0.9-0.7 0.1-1.3 0-1.9-0.2-0.7-0.3-1.2-0.7-1.5-1.2-0.4-0.5-0.6-1.1-0.6-1.7 0-0.6 0.1-1.2 0.4-1.7 0.3-0.6 0.7-1 1.2-1.3 0.5-0.3 1.1-0.5 1.7-0.5z"/>
	<path id="Layer" class="s0" d="m30.1 26.8c0.7 0 1.3 0.2 1.9 0.5 0.5 0.4 1 0.9 1.2 1.5 0.3 0.6 0.4 1.3 0.2 2-0.1 0.6-0.4 1.2-0.9 1.7-0.4 0.4-1 0.8-1.7 0.9q-0.7 0.1-1.4 0-0.6-0.2-1.2-0.6-0.5-0.4-0.9-1-0.3-0.6-0.4-1.3-0.1-0.7 0.2-1.4 0.2-0.7 0.6-1.2 0.5-0.5 1.1-0.8 0.7-0.3 1.4-0.3z"/>
	<path id="Layer" class="s0" d="m20.3 13.6l-6.5-6.5"/>
	<path id="Layer" class="s0" d="m24.2 13.6l-6.5-6.5"/>
	<path id="Layer" class="s0" d="m0.6 21.9h38.2"/>
	<path id="Layer" class="s0" d="m30.1 13.6v8.3"/>
	<path id="Layer" class="s0" d="m19.7 13.6v8.3"/>
	<path id="Layer" class="s0" d="m9.3 13.6v8.3"/>
</svg>