<svg version="1.2" xmlns="http://www.w3.org/2000/svg" viewBox="0 0 40 39" width="40" height="39">
	<title>06_Kultúra a komunity_iconset-svg</title>
	<style>
		.s0 { fill: none;stroke: #333333;stroke-width: 1.8 } 
	</style>
	<path id="Layer" class="s0" d="m15.8 29.2h-15.1c0-2.3 0.7-4.4 1.8-6 1.2-1.6 2.8-2.4 4.4-2.4"/>
	<path id="Layer" class="s0" d="m15.8 29.2h0.2"/>
	<path id="Layer" class="s0" d="m16.5 10.2v-0.6-1.5"/>
	<path id="Layer" class="s0" d="m13.6 21.2c-0.9 0.7-1.9 1.1-3 1.1-1.6 0-3.1-0.8-4.2-2.3-1.1-1.5-1.7-3.5-1.7-5.6v-6.3"/>
	<path id="Layer" class="s0" d="m4.7 8.1c0-1.9 0.5-3.7 1.5-5 1-1.3 2.4-2.1 3.8-2.1h1.3c1.4 0 2.7 0.8 3.7 2.1 1 1.3 1.5 3.1 1.5 5"/>
	<path id="Layer" class="s0" d="m16.5 8.1v-0.4"/>
	<path id="Layer" class="s0" d="m4.7 8.1v-0.4"/>
	<path id="Layer" class="s0" d="m23 29.2h0.2"/>
	<path id="Layer" class="s0" d="m32.2 20.8c1.6 0 3.2 0.8 4.4 2.4 1.1 1.6 1.8 3.7 1.8 6h-15.2"/>
	<path id="Layer" class="s0" d="m34.4 8.1v6.3q0 1.5-0.4 3-0.5 1.5-1.3 2.6-0.9 1.1-1.9 1.7-1.1 0.6-2.3 0.6c-1.1 0-2.2-0.4-3.1-1.1"/>
	<path id="Layer" class="s0" d="m34.4 8.1v-0.4"/>
	<path id="Layer" class="s0" d="m22.6 8.1c0-1.9 0.5-3.7 1.5-5 1-1.3 2.3-2.1 3.7-2.1h1.3c1.4 0 2.8 0.8 3.8 2.1 1 1.3 1.5 3.1 1.5 5"/>
	<path id="Layer" class="s0" d="m22.6 8.1v-0.4"/>
	<path id="Layer" class="s0" d="m22.6 10.2v-0.6-1.5"/>
	<path id="Layer" class="s0" d="m23.2 29.2c1.6 0 3.2 0.8 4.4 2.4 1.2 1.6 1.8 3.7 1.8 6h-19.8c0-2.3 0.7-4.4 1.8-6 1.2-1.6 2.8-2.4 4.4-2.4"/>
	<path id="Layer" class="s0" d="m13.6 16.5c0-1.3 0.3-2.6 0.8-3.7 0.5-1.2 1.3-2.1 2.1-2.6"/>
	<path id="Layer" class="s0" d="m13.6 16.1v0.4"/>
	<path id="Layer" class="s0" d="m22.6 10.2c0.8 0.6 1.5 1.5 2.1 2.6 0.5 1.1 0.7 2.4 0.7 3.7"/>
	<path id="Layer" class="s0" d="m25.4 16.5v1.6 3.1"/>
	<path id="Layer" class="s0" d="m25.4 21.2v1.6c0 1.2-0.2 2.4-0.6 3.5-0.4 1.2-1 2.1-1.8 2.9"/>
	<path id="Layer" class="s0" d="m23 29.2c-1 1-2.2 1.5-3.5 1.5-1.2 0-2.5-0.5-3.5-1.5"/>
	<path id="Layer" class="s0" d="m16 29.2c-0.7-0.8-1.3-1.7-1.8-2.9-0.4-1.1-0.6-2.3-0.6-3.5v-1.6"/>
	<path id="Layer" class="s0" d="m13.6 16.5v1.6 3.1"/>
	<path id="Layer" class="s0" d="m25.4 16.5v-0.4"/>
	<path id="Layer" class="s0" d="m16.5 10.2q1.1-0.8 2.4-0.8h1.3c0.8 0 1.6 0.3 2.4 0.8"/>
</svg>