<svg version="1.2" xmlns="http://www.w3.org/2000/svg" viewBox="0 0 48 48" width="48" height="48">
	<title>00_Main_iconset-svg</title>
	<style>
		.s0 { fill: #ffffff;stroke: #333333;stroke-width: 1.4 } 
		.s1 { fill: #f1b830 } 
		.s2 { fill: none;stroke: #333333;stroke-width: 1.4 } 
	</style>
	<path id="Layer" class="s0" d="m33.2 10.9q1 0.5 1.9 1.3 0.8 0.8 1.2 1.9 0.5 1.1 0.5 2.2v-0.1c0 3.7-1.6 5-4.4 7.5l-7.1 6.5-7.1-6.5c-2.8-2.5-4.4-3.8-4.4-7.5v0.1q0-1.1 0.5-2.2 0.4-1.1 1.2-1.9 0.9-0.8 1.9-1.3 1.1-0.4 2.3-0.4c1.5 0 2.9 0.6 4 1.7 1 1.1 1.6 2.5 1.6 4 0-1.5 0.6-2.9 1.6-4 1.1-1.1 2.5-1.7 4-1.7q1.2 0 2.3 0.4z"/>
	<path id="Layer" class="s1" d="m26 37.9l10.9-7.1q0.4-0.2 1-0.3 0.5-0.1 1 0 0.5 0.1 1 0.4 0.4 0.3 0.7 0.8c0.4 0.6 0.5 1.3 0.4 2-0.2 0.7-0.6 1.3-1.2 1.7l-13.8 9.2c-1.2 0.8-2.7 1.2-4.1 1l-8.5-1c-1.1-0.2-2.2 0-3.2 0.5l-7.4 2.4v-13.3l3.8-3.8c0.5-0.6 1.2-1 1.9-1.2 0.7-0.2 1.4-0.2 2.1 0l12.2 3.9"/>
	<path id="Layer" class="s1" d="m22.8 33.1l1.8 0.6q0.5 0.2 0.9 0.5 0.4 0.4 0.6 0.9 0.3 0.4 0.3 1 0.1 0.5-0.1 1c-0.2 0.7-0.7 1.2-1.3 1.6-0.6 0.3-1.4 0.4-2 0.2l-9.8-3"/>
	<path id="Layer" class="s2" d="m26.3 37.1c-0.2 0.7-0.7 1.2-1.3 1.6-0.6 0.3-1.4 0.4-2 0.2l-9.8-3"/>
	<path id="Layer" class="s2" d="m32.2 14.1c0.7 0.7 1.1 1.6 1.1 2.6 0 0.9-0.4 1.9-1.1 2.6"/>
	<path id="Layer" class="s2" d="m24.9 4.5v-3.8"/>
	<path id="Layer" class="s2" d="m24.9 4.5v-3.8"/>
	<path id="Layer" class="s2" d="m35.9 9l2.6-2.6"/>
	<path id="Layer" class="s2" d="m35.9 9l2.6-2.6"/>
	<path id="Layer" class="s2" d="m14 9l-2.7-2.6"/>
	<path id="Layer" class="s2" d="m14 9l-2.7-2.6"/>
	<path id="Layer" class="s2" d="m9.5 19.9h-3.8"/>
	<path id="Layer" class="s2" d="m9.5 19.9h-3.8"/>
	<path id="Layer" class="s2" d="m40.4 19.9h3.8"/>
</svg>