<svg version="1.2" xmlns="http://www.w3.org/2000/svg" viewBox="0 0 40 40" width="40" height="40">
	<title>02_Doprava a mapy_iconset (1)-svg</title>
	<style>
		.s0 { fill: none;stroke: #333333;stroke-width: 1.7 } 
	</style>
	<path id="Layer" class="s0" d="m29.9 34.6h-20.9c-1 0.1-1.9-0.3-2.6-0.9-0.7-0.6-1.1-1.5-1.2-2.5l2.2-21.4c0.1-0.8 0.5-1.6 1.2-2.2 0.7-0.5 1.5-0.8 2.4-0.8h16.8c0.9 0 1.8 0.3 2.5 0.8 0.6 0.6 1.1 1.4 1.2 2.2l2.1 21.4c0 1-0.4 1.9-1.1 2.5-0.7 0.6-1.6 1-2.6 0.9z"/>
	<path id="Layer" class="s0" d="m8.2 39.1l4.2-4.5"/>
	<path id="Layer" class="s0" d="m30.6 39.1l-4.2-4.5"/>
	<path id="Layer" class="s0" d="m6.1 22h26.6"/>
	<path id="Layer" class="s0" d="m7.1 11.9h24.6"/>
	<path id="Layer" class="s0" d="m9.2 26.6l5.7 1.2"/>
	<path id="Layer" class="s0" d="m29.6 26.6l-5.6 1.2"/>
	<path id="Layer" class="s0" d="m17.8 6.8l5.4-4.8"/>
	<path id="Layer" class="s0" d="m33.6 1.8h-27.5"/>
</svg>