<svg version="1.2" xmlns="http://www.w3.org/2000/svg" viewBox="0 0 48 48" width="48" height="48">
	<title>icon-hand-heart-colored-svg</title>
	<style>
		.s0 { fill: #ffffff;stroke: #333333;stroke-width: 1.6 } 
		.s1 { fill: #e3a612 } 
		.s2 { fill: none;stroke: #333333;stroke-width: 1.6 } 
	</style>
	<path id="Layer" class="s0" d="m34.7 8.2q1.3 0.5 2.2 1.5 0.9 0.9 1.5 2.2 0.5 1.2 0.5 2.6v-0.2c0 4.3-1.9 5.7-5.1 8.7l-8.1 7.5-8.2-7.5c-3.2-3-5.1-4.4-5.1-8.7v0.2q0-1.4 0.5-2.6 0.6-1.3 1.5-2.2 1-1 2.2-1.5 1.2-0.5 2.6-0.5c1.7 0 3.4 0.7 4.6 2 1.2 1.2 1.9 2.8 1.9 4.6 0-1.7 0.6-3.4 1.8-4.6 1.3-1.3 2.9-2 4.6-2q1.4 0 2.6 0.5z"/>
	<path id="Layer" class="s1" d="m26.8 40.7l12.6-8.1q0.5-0.4 1.1-0.5 0.6-0.1 1.2 0.1 0.7 0.1 1.2 0.4 0.5 0.4 0.8 0.9c0.4 0.7 0.6 1.5 0.4 2.3-0.1 0.8-0.6 1.5-1.3 2l-15.9 10.7c-1.4 0.9-3.1 1.3-4.8 1.1l-9.7-1.1c-1.3-0.2-2.6 0-3.7 0.5l-8.5 2.8v-15.2l4.4-4.6c0.6-0.6 1.3-1 2.1-1.2 0.8-0.3 1.7-0.3 2.5-0.1l14 4.6"/>
	<path id="Layer" class="s1" d="m23.1 35.2l2.1 0.7q0.6 0.2 1.1 0.6 0.4 0.4 0.7 0.9 0.3 0.6 0.3 1.2 0.1 0.6-0.1 1.2c-0.2 0.8-0.8 1.4-1.5 1.8-0.7 0.4-1.5 0.5-2.3 0.3l-11.2-3.5"/>
	<path id="Layer" class="s2" d="m27.2 39.8c-0.2 0.8-0.8 1.4-1.5 1.8-0.7 0.4-1.5 0.5-2.3 0.3l-11.2-3.5"/>
	<path id="Layer" class="s2" d="m25.7 0.3v-4.3"/>
	<path id="Layer" class="s2" d="m25.7 0.3v-4.3"/>
	<path id="Layer" class="s2" d="m38.3 5.6l3-3.1"/>
	<path id="Layer" class="s2" d="m38.3 5.6l3-3.1"/>
	<path id="Layer" class="s2" d="m13.1 5.6l-3.1-3.1"/>
	<path id="Layer" class="s2" d="m13.1 5.6l-3.1-3.1"/>
	<path id="Layer" class="s2" d="m7.8 18.2h-4.3"/>
	<path id="Layer" class="s2" d="m7.8 18.2h-4.3"/>
	<path id="Layer" class="s2" d="m43.5 18.2h4.3"/>
	<path id="Layer" class="s2" d="m33.6 11.9c0.8 0.7 1.3 1.8 1.3 2.9 0 1.2-0.5 2.2-1.3 3"/>
</svg>