<svg version="1.2" xmlns="http://www.w3.org/2000/svg" viewBox="0 0 40 40" width="40" height="40">
	<title>03_Životné prostredie a výstavba_iconset-svg</title>
	<style>
		.s0 { fill: none;stroke: #333333;stroke-width: 1.9 } 
	</style>
	<path id="Layer" class="s0" d="m14.2 17.3l11.7-7.5"/>
	<path id="Layer" class="s0" d="m25.9 30.2l-11.7-7.5"/>
	<path id="Layer" class="s0" d="m6.3 23.6c-0.9-1-1.5-2.3-1.5-3.6 0-1 0.3-2 0.9-2.8 0.6-0.9 1.4-1.5 2.3-1.9 0.9-0.4 1.9-0.5 2.9-0.3 1 0.2 1.9 0.7 2.6 1.4 0.7 0.7 1.2 1.6 1.4 2.6 0.2 1 0.1 2-0.3 2.9-0.4 1-1 1.8-1.8 2.3-0.9 0.6-1.9 0.9-2.9 0.9-1.3 0-2.6-0.5-3.6-1.5z"/>
	<path id="Layer" class="s0" d="m28.3 11.8q-1-0.4-1.7-1.1-0.7-0.7-1.1-1.7-0.4-0.9-0.4-1.9c0-1 0.3-2 0.8-2.9 0.6-0.8 1.4-1.4 2.3-1.8 0.9-0.4 2-0.5 2.9-0.3 1 0.2 1.9 0.6 2.6 1.3 0.8 0.8 1.2 1.7 1.4 2.6 0.3 1 0.2 2-0.2 3-0.4 0.9-1 1.7-1.9 2.3-0.8 0.5-1.8 0.8-2.8 0.8q-1 0.1-1.9-0.3z"/>
	<path id="Layer" class="s0" d="m28.3 37.7q-1-0.4-1.7-1.1-0.7-0.8-1.1-1.7-0.4-0.9-0.4-2c0-1 0.3-1.9 0.8-2.8 0.6-0.8 1.4-1.5 2.3-1.9 0.9-0.3 2-0.4 2.9-0.3 1 0.2 1.9 0.7 2.6 1.4 0.8 0.7 1.2 1.6 1.4 2.6 0.3 1 0.2 2-0.2 3-0.4 0.9-1 1.7-1.9 2.2-0.8 0.6-1.8 0.9-2.8 0.9q-1 0-1.9-0.3z"/>
</svg>