<svg version="1.2" xmlns="http://www.w3.org/2000/svg" viewBox="0 0 48 48" width="48" height="48">
	<title>00_Main_iconset (1)-svg</title>
	<style>
		.s0 { fill: #5158d8;stroke: #5158d8;stroke-width: 1.6 } 
		.s1 { fill: none;stroke: #333333;stroke-width: 1.6 } 
		.s2 { fill: #ffffff;stroke: #333333;stroke-width: 1.6 } 
	</style>
	<path id="Layer" class="s0" d="m30.6 41h-25.9c-0.8 0-1.6-0.3-2.2-0.9-0.6-0.6-1-1.4-1-2.3q0-0.2 0-0.3v-32.9c0 1.7 1.9 3.1 4.2 3.1h27.2l0.4 0.1v15.5z"/>
	<path id="Layer" class="s1" d="m11.4 13.6h13"/>
	<path id="Layer" class="s1" d="m8.5 17.6h19"/>
	<path id="Layer" class="s2" d="m33.2 7.2c0.2 0.2 0 0.5-0.4 0.5h-27.1c-2.3 0-4.2-1.4-4.2-3.1v-1.8c0-1.7 1.9-3.1 4.2-3.1h27.1c0.4 0 0.6 0.3 0.4 0.5-0.7 1.1-1 2.3-0.9 3.5-0.1 1.2 0.2 2.5 0.9 3.5z"/>
	<path id="Layer" class="s1" d="m20 21.8h-4.3"/>
	<path id="Layer" class="s2" d="m38.2 40.2h0.1q1.6 0 3.1 0.6 1.4 0.6 2.5 1.8 1.1 1.1 1.7 2.5 0.6 1.5 0.6 3h-25c0-2.1 0.8-4.1 2.3-5.5 1.5-1.5 3.5-2.4 5.6-2.4z"/>
	<path id="Layer" class="s2" d="m41.2 28v6.2c0 2-0.8 3.9-2.2 5.3-1.4 1.4-3.3 2.2-5.3 2.2-1.9 0-3.8-0.8-5.2-2.2-1.4-1.4-2.2-3.3-2.2-5.3v-6.2z"/>
	<path id="Layer" class="s1" d="m36.9 28h11"/>
	<path id="Layer" class="s1" d="m31.4 35.5v-4.3"/>
	<path id="Layer" class="s1" d="m36.1 35.5v-4.3"/>
	<path id="Layer" class="s2" d="m26.2 28v-3.6c0-1.3 0.5-2.5 1.4-3.4 0.9-0.9 2.1-1.4 3.4-1.4h5.4c1.3 0 2.5 0.5 3.4 1.4 0.9 0.9 1.4 2.1 1.4 3.4v3.6z"/>
</svg>