<svg version="1.2" xmlns="http://www.w3.org/2000/svg" viewBox="0 0 40 40" width="40" height="40">
	<title>02_Doprava a mapy_iconset (2)-svg</title>
	<style>
		.s0 { fill: none;stroke: #333333;stroke-width: 1.9 } 
	</style>
	<path id="Layer" class="s0" d="m0.8 3.9c0-1.7 1.3-3 3-3h26.6c1.6 0 3 1.3 3 3v26.5c0 1.7-1.4 3-3 3h-26.6c-1.7 0-3-1.3-3-3z"/>
	<path id="Layer" class="s0" d="m38.2 5.1v25.8c0 1.9-0.8 3.8-2.2 5.2-1.3 1.4-3.2 2.2-5.2 2.2h-25.7"/>
	<path id="Layer" class="s0" d="m14.4 9.9h3.7c1.2 0 2.2 0.4 3.1 1.2 0.8 0.8 1.2 1.9 1.2 3.1 0 1.1-0.4 2.2-1.2 3-0.9 0.8-1.9 1.2-3.1 1.2h-3.7z"/>
	<path id="Layer" class="s0" d="m14.4 26.3v-7.8"/>
</svg>