<svg version="1.2" xmlns="http://www.w3.org/2000/svg" viewBox="0 0 40 40" width="40" height="40">
	<title>icon-share-new-svg</title>
	<style>
		.s0 { fill: none;stroke: #333333;stroke-width: 2.1 } 
	</style>
	<path id="Layer" class="s0" d="m12.9 17.3l14.3-7.6"/>
	<path id="Layer" class="s0" d="m27.2 30.3l-14.3-7.6"/>
	<path id="Layer" class="s0" d="m3.2 23.6c-1.2-1-1.8-2.2-1.8-3.6 0-1 0.3-2 1.1-2.9 0.6-0.7 1.5-1.5 2.7-1.9 1.1-0.3 2.3-0.3 3.6-0.2 1.2 0.2 2.4 0.7 3.2 1.4 0.9 0.7 1.5 1.6 1.7 2.6 0.3 1 0.1 2-0.3 3q-0.7 1.3-2.3 2.2c-1.1 0.5-2.3 0.9-3.6 0.9-1.5 0-3.2-0.6-4.3-1.5z"/>
	<path id="Layer" class="s0" d="m30.2 11.8q-1.3-0.4-2-1.2-1-0.6-1.4-1.6-0.5-0.9-0.5-2c0-1 0.3-1.9 0.9-2.8 0.8-0.8 1.7-1.5 3-1.8 1-0.4 2.3-0.5 3.5-0.3 1.2 0.1 2.3 0.6 3.2 1.4 0.9 0.6 1.6 1.5 1.7 2.5 0.3 1 0.2 2-0.3 3-0.5 0.9-1.2 1.7-2.3 2.2-0.9 0.7-2.2 0.9-3.4 0.9q-1.2 0-2.4-0.4z"/>
	<path id="Layer" class="s0" d="m30.2 37.6q-1.3-0.4-2-1.1-1-0.6-1.4-1.6-0.5-0.9-0.5-1.9c0-1.1 0.3-2 0.9-2.9 0.8-0.8 1.7-1.5 3-1.9 1-0.3 2.3-0.4 3.5-0.2 1.2 0.1 2.3 0.6 3.2 1.4 0.9 0.6 1.6 1.5 1.7 2.5 0.3 1 0.2 2-0.3 3-0.5 0.8-1.2 1.7-2.3 2.2-0.9 0.6-2.2 0.9-3.4 0.9q-1.2 0-2.4-0.4z"/>
</svg>