<svg version="1.2" xmlns="http://www.w3.org/2000/svg" viewBox="0 0 40 40" width="40" height="40">
	<title>02_Doprava a mapy_iconset (3)-svg</title>
	<style>
		.s0 { fill: none;stroke: #333333;stroke-linejoin: round;stroke-width: 1.5 } 
	</style>
	<path id="Layer" class="s0" d="m7.5 16.4c1.4 0 2.7 0.4 3.8 1.2 1.2 0.7 2.1 1.8 2.6 3.1 0.4 0.9 0.6 1.9 0.5 2.9 0 1.1-0.3 2-0.8 2.9-0.5 0.9-1.2 1.7-2 2.3-0.8 0.6-1.7 1.1-2.7 1.3-1.4 0.2-2.8 0.1-4-0.4-1.3-0.6-2.4-1.5-3.1-2.6-0.7-1-1.1-2.2-1.2-3.5 0-1.2 0.3-2.5 0.8-3.6 0.6-1 1.5-2 2.6-2.6 1-0.6 2.3-1 3.5-1z"/>
	<path id="Layer" class="s0" d="m32.3 16.4c1.4 0 2.7 0.4 3.9 1.2 1.1 0.7 2 1.8 2.5 3.1 0.5 1.2 0.7 2.6 0.4 3.9-0.2 1.4-0.9 2.6-1.9 3.5-0.9 1-2.2 1.7-3.5 1.9-1.3 0.3-2.7 0.2-4-0.4-1.5-0.6-2.7-1.7-3.4-3.1-0.8-1.4-1-3-0.7-4.6 0.3-1.5 1.2-2.9 2.4-3.9 1.2-1 2.8-1.6 4.3-1.6z"/>
	<path id="Layer" class="s0" d="m11 8.4l9.7 14.9h-6.3"/>
	<path id="Layer" class="s0" d="m14.4 23.3h-6.9l5.7-11.3h13.4l5.8 11.3"/>
	<path id="Layer" class="s0" d="m20.7 23.3l5.9-11.3"/>
	<path id="Layer" class="s0" d="m26.6 12v-3.6h3.9"/>
	<path id="Layer" class="s0" d="m8.7 8.4h7.1"/>
</svg>