<svg version="1.2" xmlns="http://www.w3.org/2000/svg" viewBox="0 0 48 48" width="48" height="48">
	<title>06_Kultúra a komunity_iconset (1)-svg</title>
	<style>
		.s0 { fill: none;stroke: #333333;stroke-width: 1.5 } 
	</style>
	<path id="Layer" class="s0" d="m9.3 32.7h29.5v5.3h-29.5z"/>
	<path id="Layer" class="s0" d="m9.3 10.9h29.5v3.8h-29.5z"/>
	<path id="Layer" class="s0" d="m9.3 14.7h29.5v18h-29.5z"/>
	<path id="Layer" class="s0" d="m17.6 14.7c0 0-0.6 12.8-8.3 12.8"/>
	<path id="Layer" class="s0" d="m14.6 32.7c0 0-0.3-5.3-5.3-5.3"/>
	<path id="Layer" class="s0" d="m30.6 14.7c0 0 0.5 12.8 8.2 12.8"/>
	<path id="Layer" class="s0" d="m33.5 32.7c0 0 0.4-5.3 5.3-5.3"/>
	<path id="Layer" class="s0" d="m17.6 14.7h13c0 1.6-0.6 3-1.7 4.1-1.1 1.1-2.6 1.7-4.1 1.7h-1.5c-1.5 0-3-0.6-4.1-1.7-1-1.1-1.7-2.5-1.7-4.1z"/>
</svg>