<svg version="1.2" xmlns="http://www.w3.org/2000/svg" viewBox="0 0 40 40" width="40" height="40">
	<title>icon-lighting-svg</title>
	<style>
		.s0 { fill: none;stroke: #333333;stroke-width: 1.3 } 
	</style>
	<path id="Layer" class="s0" d="m23.3 26.5h-6.6c-0.7 0.1-1.4-0.1-2-0.6-0.5-0.4-0.9-1-1-1.7l-2.2-17.7h17l-2.2 17.7c-0.2 0.7-0.5 1.3-1.1 1.7-0.5 0.4-1.2 0.7-1.9 0.6z"/>
	<path id="Layer" class="s0" d="m6.6 6.5h26.7z"/>
	<path id="Layer" class="s0" d="m17.1 0.9h5.7q1.1 0 2.2 0.4 1 0.5 1.8 1.3 0.8 0.8 1.2 1.8 0.5 1 0.5 2.2h-17c0-1.5 0.6-3 1.6-4 1.1-1.1 2.5-1.7 4-1.7z"/>
	<path id="Layer" class="s0" d="m17.7 26.5h4.6v13.2h-4.6z"/>
	<path id="Layer" class="s0" d="m1.7 21.3l5.6-1"/>
	<path id="Layer" class="s0" d="m9.7 26.1l-4.8 3.1"/>
	<path id="Layer" class="s0" d="m1.8 12.8l5.6 1.2"/>
	<path id="Layer" class="s0" d="m38.2 21.3l-5.6-1"/>
	<path id="Layer" class="s0" d="m30.3 26.1l4.7 3.1"/>
	<path id="Layer" class="s0" d="m38.1 12.8l-5.6 1.2"/>
</svg>