<svg version="1.2" xmlns="http://www.w3.org/2000/svg" viewBox="0 0 48 48" width="48" height="48">
	<title>icon-car-with-map-colored-svg</title>
	<style>
		.s0 { fill: #ffffff } 
		.s1 { fill: none;stroke: #333333;stroke-width: 1.3 } 
		.s2 { fill: #d0ecf8;stroke: #333333;stroke-width: 1.3 } 
		.s3 { fill: #0f6d95;stroke: #0f6d95;stroke-width: 1.3 } 
	</style>
	<path id="Layer" class="s0" d="m7.2 34.1l-6.4-1.8v-24.7l9.7 2.7 9.7-2.7 9.7 2.7v12.1"/>
	<path id="Layer" class="s1" d="m7.2 34.1l-6.4-1.8v-24.7l9.7 2.7 9.7-2.7 9.7 2.7v12.1"/>
	<path id="Layer" class="s2" d="m11.7 28.9l3.7-4.3q0.9-1.1 2.1-1.7 1.2-0.5 2.6-0.5h9c1.4 0 2.8 0.5 3.9 1.3l6.4 5.2z"/>
	<path id="Layer" class="s3" d="m11.7 37.3h-2.6q-0.4 0-0.8-0.2-0.3-0.1-0.6-0.4-0.2-0.3-0.4-0.6-0.1-0.4-0.1-0.7v-3.9q0-0.5 0.2-1 0.2-0.5 0.5-0.8 0.4-0.4 0.9-0.6 0.5-0.2 1-0.2h35.1c0.6 0 1.2 0.2 1.7 0.7 0.4 0.4 0.7 1.1 0.7 1.7v3.5c0 0.7-0.3 1.3-0.7 1.8-0.5 0.4-1.1 0.7-1.7 0.7z"/>
	<path id="Layer" class="s2" d="m39.9 33.6c0.7 0 1.4 0.2 2 0.6 0.6 0.4 1.1 1 1.4 1.7 0.2 0.6 0.3 1.4 0.2 2.1-0.2 0.7-0.5 1.3-1 1.9-0.5 0.5-1.2 0.8-1.9 1q-0.8 0.1-1.5 0-0.8-0.2-1.4-0.7-0.6-0.4-1-1.1-0.4-0.7-0.5-1.5 0-0.7 0.2-1.5 0.3-0.7 0.8-1.3 0.5-0.6 1.2-0.9 0.7-0.3 1.5-0.3z"/>
	<path id="Layer" class="s2" d="m15.4 33.5c0.7 0 1.4 0.2 2 0.6 0.6 0.4 1.1 1 1.4 1.7 0.2 0.6 0.3 1.4 0.2 2.1-0.2 0.7-0.5 1.4-1.1 1.9-0.5 0.5-1.1 0.8-1.8 1-0.7 0.1-1.5 0.1-2.1-0.2-0.7-0.3-1.3-0.8-1.7-1.4-0.4-0.6-0.6-1.3-0.6-2q0-0.7 0.3-1.4 0.2-0.7 0.8-1.2 0.5-0.6 1.2-0.8 0.6-0.3 1.4-0.3z"/>
	<path id="Layer" class="s1" d="m44.2 32.1h3.7"/>
	<path id="Layer" class="s1" d="m6.6 32.1h3.6"/>
	<path id="Layer" class="s1" d="m15 37.2c0-0.3 0.1-0.4 0.3-0.4 0.3 0 0.4 0.1 0.4 0.4 0 0.2-0.1 0.4-0.4 0.4-0.2 0-0.3-0.2-0.3-0.4z"/>
	<path id="Layer" class="s1" d="m39.5 37.2c0-0.3 0.2-0.4 0.4-0.4 0.2 0 0.4 0.1 0.4 0.4 0 0.2-0.2 0.4-0.4 0.4-0.2 0-0.4-0.2-0.4-0.4z"/>
	<path id="Layer" class="s1" d="m25.8 22.4v12.4"/>
	<path id="Layer" class="s1" d="m10.5 10.3v17.9"/>
	<path id="Layer" class="s1" d="m20.2 22.4v-14.8"/>
</svg>