<svg version="1.2" xmlns="http://www.w3.org/2000/svg" viewBox="0 0 40 40" width="40" height="40">
	<title>icon-trolleybus-new-svg</title>
	<style>
		.s0 { fill: none;stroke: #333333;stroke-width: 1.7 } 
	</style>
	<path id="Layer" class="s0" d="m26.8 34.3h-14.1"/>
	<path id="Layer" class="s0" d="m6 34.3h-3.2c-0.6 0-1.1-0.4-1.5-0.9-0.4-0.6-0.7-1.4-0.7-2.2v-17.1c0.1-0.9 0.3-1.5 0.7-2.2 0.5-0.6 0.9-0.9 1.5-0.9h33.8c0.6 0 1.2 0.3 1.5 1 0.4 0.6 0.7 1.4 0.7 2.2v17c0 0.8-0.3 1.6-0.7 2.2-0.3 0.5-0.9 0.9-1.5 0.9h-3.1"/>
	<path id="Layer" class="s0" d="m9.4 29.7c0.6 0 1.2 0.2 1.8 0.6 0.5 0.6 0.9 1.3 1.2 2.3 0.3 0.8 0.3 1.7 0.2 2.6-0.1 0.9-0.5 1.8-0.9 2.5q-0.7 1-1.7 1.2c-0.6 0.3-1.3 0.1-1.9-0.3-0.7-0.3-1.2-0.9-1.6-1.6-0.3-0.7-0.5-1.6-0.5-2.4 0-0.9 0.1-1.8 0.4-2.5 0.3-0.8 0.7-1.3 1.2-1.8 0.5-0.4 1.1-0.6 1.8-0.6z"/>
	<path id="Layer" class="s0" d="m30.1 29.7c0.6 0 1.3 0.1 1.9 0.6 0.5 0.6 1 1.3 1.3 2.1 0.2 1 0.3 1.9 0.2 2.8-0.2 0.9-0.5 1.8-1 2.5-0.4 0.6-1.1 1.1-1.7 1.2q-0.7 0.3-1.3 0-0.7-0.3-1.3-0.8-0.6-0.6-0.9-1.4-0.4-1-0.4-1.9-0.1-1 0.1-2 0.3-0.8 0.7-1.6 0.5-0.7 1.2-1.1 0.6-0.4 1.2-0.4z"/>
	<path id="Layer" class="s0" d="m20.3 10.9l-6.4-9.1"/>
	<path id="Layer" class="s0" d="m24.2 10.9l-6.5-9.1"/>
	<path id="Layer" class="s0" d="m0.6 22.6h38.2"/>
	<path id="Layer" class="s0" d="m30.1 10.9v11.7"/>
	<path id="Layer" class="s0" d="m19.7 10.9v11.7"/>
	<path id="Layer" class="s0" d="m9.4 10.9v11.7"/>
</svg>