<svg version="1.2" xmlns="http://www.w3.org/2000/svg" viewBox="0 0 40 40" width="40" height="40">
	<title>icon-bicycle-new-svg</title>
	<style>
		.s0 { fill: none;stroke: #333333;stroke-linejoin: round;stroke-width: 1.5 } 
	</style>
	<path id="Layer" class="s0" d="m7.3 17c1.4 0 2.7 0.4 3.8 1.1 1.1 0.8 1.9 1.8 2.5 3 0.3 1 0.5 2 0.5 2.9-0.1 1-0.4 2-0.8 2.9-0.5 0.9-1.2 1.6-2 2.2q-1.2 0.9-2.7 1.2c-1.3 0.3-2.6 0.1-3.8-0.4-1.3-0.5-2.3-1.4-3.1-2.5-0.6-1-1-2.1-1.1-3.4 0-1.2 0.2-2.4 0.8-3.5 0.6-1 1.4-1.9 2.5-2.5 1-0.7 2.2-1 3.4-1z"/>
	<path id="Layer" class="s0" d="m31.5 17c1.4 0 2.7 0.4 3.8 1.1 1.1 0.8 1.9 1.8 2.5 3q0.7 1.9 0.3 3.9c-0.2 1.3-0.9 2.5-1.8 3.4-0.9 1-2.1 1.6-3.4 1.9-1.4 0.2-2.7 0.1-3.9-0.4-1.5-0.6-2.6-1.7-3.4-3-0.7-1.4-0.9-3-0.6-4.5 0.3-1.5 1.1-2.9 2.3-3.9 1.2-1 2.7-1.5 4.2-1.5z"/>
	<path id="Layer" class="s0" d="m10.8 9.2l9.4 14.5h-6.1"/>
	<path id="Layer" class="s0" d="m14.1 23.7h-6.8l5.6-11h13.1l5.5 11"/>
	<path id="Layer" class="s0" d="m20.2 23.7l5.8-11"/>
	<path id="Layer" class="s0" d="m26 12.7v-3.5h3.7"/>
	<path id="Layer" class="s0" d="m8.5 9.2h6.9"/>
</svg>