<svg width="17" height="17" viewBox="0 0 17 17" fill="none" xmlns="http://www.w3.org/2000/svg">
<path fill-rule="evenodd" clip-rule="evenodd" d="M8.3256 0C6.0647 0 5.78096 0.00988583 4.89297 0.0502963C4.00671 0.0908803 3.40177 0.23119 2.87244 0.437058C2.3249 0.64969 1.86044 0.934124 1.39772 1.39702C0.934645 1.85975 0.65021 2.32421 0.436884 2.87157C0.230496 3.40107 0.0900131 4.00619 0.0501229 4.8921C0.0104061 5.78009 0 6.064 0 8.32491C0 10.5858 0.0100593 10.8687 0.0502963 11.7567C0.0910537 12.6429 0.231363 13.2479 0.437058 13.7772C0.649863 14.3247 0.934298 14.7892 1.3972 15.2519C1.85975 15.715 2.32421 16.0001 2.8714 16.2128C3.40107 16.4186 4.00619 16.5589 4.89227 16.5995C5.78026 16.6399 6.06383 16.6498 8.32456 16.6498C10.5856 16.6498 10.8685 16.6399 11.7565 16.5995C12.6428 16.5589 13.2484 16.4186 13.7781 16.2128C14.3254 16.0001 14.7892 15.715 15.2518 15.2519C15.7148 14.7892 15.9993 14.3247 16.2126 13.7774C16.4172 13.2479 16.5577 12.6428 16.5994 11.7569C16.6392 10.8689 16.6496 10.5858 16.6496 8.32491C16.6496 6.064 16.6392 5.78026 16.5994 4.89227C16.5577 4.00602 16.4172 3.40107 16.2126 2.87175C15.9993 2.32421 15.7148 1.85975 15.2518 1.39702C14.7887 0.933951 14.3256 0.649517 13.7776 0.437058C13.2468 0.23119 12.6416 0.0908803 11.7553 0.0502963C10.8673 0.00988583 10.5846 0 8.323 0H8.3256ZM7.57861 1.50037C7.80026 1.50003 8.04758 1.50037 8.32543 1.50037C10.5482 1.50037 10.8116 1.50835 11.6894 1.54824C12.5011 1.58536 12.9416 1.72098 13.235 1.83493C13.6235 1.98582 13.9005 2.16619 14.1917 2.45756C14.4831 2.74894 14.6635 3.02643 14.8147 3.41493C14.9286 3.70803 15.0644 4.14856 15.1014 4.96024C15.1413 5.83782 15.1499 6.10145 15.1499 8.32316C15.1499 10.5449 15.1413 10.8085 15.1014 11.6861C15.0643 12.4978 14.9286 12.9383 14.8147 13.2314C14.6638 13.6199 14.4831 13.8965 14.1917 14.1877C13.9003 14.4791 13.6237 14.6595 13.235 14.8103C12.9419 14.9248 12.5011 15.0601 11.6894 15.0972C10.8118 15.1371 10.5482 15.1458 8.32543 15.1458C6.1025 15.1458 5.83905 15.1371 4.96147 15.0972C4.14979 15.0597 3.70926 14.9241 3.41564 14.8102C3.02714 14.6593 2.74964 14.4789 2.45827 14.1875C2.1669 13.8962 1.98653 13.6194 1.83529 13.2307C1.72134 12.9376 1.58554 12.4971 1.5486 11.6854C1.50871 10.8078 1.50073 10.5442 1.50073 8.32108C1.50073 6.09798 1.50871 5.83574 1.5486 4.95816C1.58572 4.14648 1.72134 3.70595 1.83529 3.4125C1.98618 3.024 2.1669 2.74651 2.45827 2.45514C2.74964 2.16376 3.02714 1.98339 3.41564 1.83215C3.70909 1.71769 4.14979 1.58241 4.96147 1.54512C5.72944 1.51043 6.02706 1.50003 7.57861 1.49829V1.50037ZM12.7692 2.88267C12.2177 2.88267 11.7703 3.32962 11.7703 3.88132C11.7703 4.43284 12.2177 4.88031 12.7692 4.88031C13.3206 4.88031 13.7681 4.43284 13.7681 3.88132C13.7681 3.32979 13.3206 2.88232 12.7692 2.88232V2.88267ZM8.3253 4.0498C5.96435 4.0498 4.05017 5.96401 4.05017 8.32499C4.05017 10.686 5.96435 12.5993 8.3253 12.5993C10.6862 12.5993 12.5997 10.686 12.5997 8.32499C12.5997 5.96401 10.6861 4.0498 8.32512 4.0498H8.3253ZM8.32544 5.55029C9.85788 5.55029 11.1003 6.79261 11.1003 8.32526C11.1003 9.85773 9.85788 11.1002 8.32544 11.1002C6.79283 11.1002 5.55054 9.85773 5.55054 8.32526C5.55054 6.79261 6.79283 5.55029 8.32544 5.55029Z" 
fill="currentColor"/>
</svg>
