<svg width="24" height="24" viewBox="0 0 24 24" fill="none" xmlns="http://www.w3.org/2000/svg">
<g clip-path="url(#clip0_7096_1477)">
<path fill-rule="evenodd" clip-rule="evenodd" d="M12.0001 23.13C5.86012 23.13 0.870117 18.14 0.870117 12C0.870117 5.86 5.86012 0.869999 12.0001 0.869999C18.1401 0.869999 23.1301 5.86 23.1301 12C23.1301 18.14 18.1401 23.13 12.0001 23.13ZM12.0001 2.38C6.69012 2.37 2.37012 6.69 2.37012 12C2.37012 17.31 6.69012 21.63 12.0001 21.63C17.3101 21.63 21.6301 17.31 21.6301 12C21.6301 6.69 17.3101 2.37 12.0001 2.37V2.38ZM12.0001 8.61C11.3801 8.61 10.8701 8.1 10.8701 7.48C10.8701 6.86 11.3801 6.35 12.0001 6.35C12.6201 6.35 13.1301 6.86 13.1301 7.48C13.1301 8.1 12.6201 8.61 12.0001 8.61ZM11.2501 10.26H12.7501V16.9H11.2501V10.26Z" fill="currentColor"/>
</g>
<defs>
<clipPath id="clip0_7096_1477">
<rect width="24" height="24" fill="white"/>
</clipPath>
</defs>
</svg>
