<svg width="18" height="21" viewBox="0 0 18 21" fill="none" xmlns="http://www.w3.org/2000/svg">
<path d="M13.8125 8.84613C13.8133 8.0246 13.6149 7.21512 13.2344 6.487C12.8539 5.75889 12.3027 5.13382 11.6278 4.66531C10.953 4.19681 10.1746 3.89882 9.35947 3.79687C8.54428 3.69492 7.71653 3.79203 6.94708 4.0799C6.17763 4.36777 5.48941 4.83782 4.94132 5.4498C4.39324 6.06178 4.00163 6.79747 3.80001 7.59388C3.59839 8.39029 3.59278 9.2237 3.78365 10.0228C3.97452 10.8218 4.35619 11.5627 4.89598 12.182C6.01341 13.4425 6.63588 15.0654 6.648 16.7498V16.9336H10.7934V16.7537C10.8168 15.0561 11.4529 13.4242 12.5846 12.1586C13.3767 11.2367 13.8123 10.0616 13.8125 8.84613Z" stroke="black" stroke-width="0.75" stroke-miterlimit="10"/>
<path d="M10.7938 16.9336H6.66406V18.4666H10.7938V16.9336Z" stroke="black" stroke-width="0.75" stroke-miterlimit="10"/>
<path d="M6.64844 18.4666H10.7939C10.7939 18.8731 10.6323 19.2631 10.3448 19.5506C10.0573 19.8381 9.66742 19.9996 9.26083 19.9996H8.21275C8.00881 20.0037 7.80609 19.9672 7.61647 19.892C7.42685 19.8168 7.25414 19.7045 7.10845 19.5618C6.96277 19.419 6.84704 19.2486 6.76805 19.0605C6.68906 18.8725 6.6484 18.6705 6.64844 18.4666V18.4666Z" stroke="black" stroke-width="0.75" stroke-miterlimit="10"/>
<path d="M10.2891 6.07349C10.7105 6.07349 11.1148 6.24064 11.4132 6.5383C11.7116 6.83595 11.8797 7.2398 11.8807 7.66126" stroke="black" stroke-width="0.75" stroke-miterlimit="10"/>
<path d="M9.50571 12.1233H7.94922V16.9335H9.50571V12.1233Z" stroke="black" stroke-width="0.75" stroke-miterlimit="10"/>
<path d="M7.94922 10.3479V12.1429" stroke="black" stroke-width="0.75" stroke-miterlimit="10"/>
<path d="M9.50781 10.3479V12.1429" stroke="black" stroke-width="0.75" stroke-miterlimit="10"/>
<path d="M8.73047 1.6347V0" stroke="black" stroke-width="0.75" stroke-miterlimit="10"/>
<path d="M13.8594 3.59802L15.017 2.44043" stroke="black" stroke-width="0.75" stroke-miterlimit="10"/>
<path d="M3.59899 3.59802L2.44141 2.44043" stroke="black" stroke-width="0.75" stroke-miterlimit="10"/>
<path d="M1.6347 8.72876H0" stroke="black" stroke-width="0.75" stroke-miterlimit="10"/>
<path d="M15.8242 8.72876H17.4589" stroke="black" stroke-width="0.75" stroke-miterlimit="10"/>
<path d="M3.59899 13.8599L2.44141 15.0175" stroke="black" stroke-width="0.75" stroke-miterlimit="10"/>
<path d="M13.8594 13.8599L15.017 15.0175" stroke="black" stroke-width="0.75" stroke-miterlimit="10"/>
</svg>
