<svg width="32" height="32" viewBox="0 0 32 32" fill="none" xmlns="http://www.w3.org/2000/svg">
<path d="M18.3486 19.785H6.84859C6.40787 19.785 5.98513 19.6103 5.67303 19.2991C5.36092 18.9879 5.18492 18.5657 5.18359 18.125V9.125C5.19399 8.69211 5.37262 8.2803 5.6816 7.97692C5.99057 7.67355 6.40559 7.50248 6.83859 7.5H23.8386C24.275 7.50126 24.6935 7.67382 25.004 7.98055C25.3144 8.28727 25.492 8.70363 25.4986 9.14V16.555" stroke="#333333" stroke-opacity="0.5" stroke-miterlimit="10"/>
<path d="M5.71094 7.91992L15.3309 15.5149L24.9759 7.95992" stroke="#333333" stroke-opacity="0.5" stroke-miterlimit="10"/>
<path d="M25.4988 18.9209V22.4209C25.4988 22.6474 25.5437 22.8717 25.6308 23.0807C25.7179 23.2898 25.8456 23.4795 26.0064 23.639C26.1673 23.7984 26.3581 23.9244 26.5679 24.0097C26.7777 24.095 27.0024 24.1379 27.2288 24.1359V24.1359C27.6802 24.1307 28.1113 23.9477 28.4286 23.6266C28.7459 23.3056 28.9239 22.8724 28.9238 22.4209V21.7509C28.9388 20.3498 28.4227 18.9949 27.4793 17.9588C26.5359 16.9227 25.2353 16.2821 23.8388 16.166C23.0196 16.1122 22.1989 16.2446 21.4381 16.5532C20.6774 16.8618 19.9963 17.3386 19.446 17.9478C18.8957 18.557 18.4905 19.2829 18.2606 20.071C18.0307 20.8592 17.9822 21.6891 18.1187 22.4986C18.2551 23.3082 18.5731 24.0763 19.0486 24.7455C19.5242 25.4147 20.145 25.9676 20.8646 26.3627C21.5843 26.7579 22.384 26.985 23.2039 27.0271C24.0237 27.0693 24.8425 26.9253 25.5988 26.6059" stroke="#333333" stroke-opacity="0.5" stroke-miterlimit="10"/>
<path d="M23.2842 23.8458C24.5048 23.8458 25.4942 22.8563 25.4942 21.6358C25.4942 20.4152 24.5048 19.4258 23.2842 19.4258C22.0637 19.4258 21.0742 20.4152 21.0742 21.6358C21.0742 22.8563 22.0637 23.8458 23.2842 23.8458Z" stroke="#333333" stroke-opacity="0.5" stroke-miterlimit="10"/>
</svg>
