<?xml version="1.0" encoding="utf-8"?>
<!-- Generator: Adobe Illustrator 24.1.1, SVG Export Plug-In . SVG Version: 6.00 Build 0)  -->
<svg version="1.1" id="Layer_1" xmlns="http://www.w3.org/2000/svg" xmlns:xlink="http://www.w3.org/1999/xlink" x="0px" y="0px"
	 viewBox="0 0 512 512" width="24" height="24" style="enable-background:new 0 0 512 512;" xml:space="preserve">
<g>
	<path fill="currentColor" d="M426.7,85.3c15.4,0,28.4,13,28.4,28.4v199.1c0,15.4-13,28.4-28.4,28.4H175.5l-4.9,4.9v-4.9H85.3c-15.4,0-28.4-13-28.4-28.4
		V113.8c0-15.4,13-28.4,28.4-28.4H426.7 M426.7,28.4H85.3C38.4,28.4,0,66.8,0,113.8v199.1c0,46.9,38.4,85.3,85.3,85.3h28.4v85.3
		l85.3-85.3h227.6c46.9,0,85.3-38.4,85.3-85.3V113.8C512,66.8,473.6,28.4,426.7,28.4z"/>
</g>
</svg>
