<svg width="120" height="120" viewBox="0 0 120 120" fill="none" xmlns="http://www.w3.org/2000/svg">
<path d="M117.804 99.9946H115.196V56.9224C115.196 55.9507 114.409 55.1633 113.437 55.1633C112.465 55.1633 111.678 55.9507 111.678 56.9224V99.9946H23.8361C22.8644 99.9946 22.0771 100.782 22.0771 101.754C22.0771 102.725 22.8644 103.513 23.8361 103.513H116.482V105.143C116.482 107.879 114.256 110.104 111.521 110.104H8.4792C5.74373 110.104 3.51815 107.879 3.51815 105.143V103.513H16.3397C17.3114 103.513 18.0988 102.725 18.0988 101.754C18.0988 100.782 17.3114 99.9946 16.3397 99.9946H8.32206V38.7575C8.32206 35.8443 10.6921 33.4742 13.6054 33.4742H33.6126C34.5843 33.4742 35.3717 32.6868 35.3717 31.7151C35.3717 30.7434 34.5843 29.9561 33.6126 29.9561H13.6056C8.75244 29.9561 4.80415 33.9044 4.80415 38.7575V99.9946H2.19579C0.985081 99.9946 0 100.98 0 102.191V105.143C0 109.819 3.80382 113.622 8.4792 113.622H111.521C116.196 113.622 120 109.818 120 105.143V102.191C120 100.98 119.015 99.9946 117.804 99.9946Z" fill="currentColor"/>
<path d="M86.6224 33.4742H106.395C109.308 33.4742 111.678 35.844 111.678 38.7573V49.4257C111.678 50.3974 112.466 51.1848 113.437 51.1848C114.409 51.1848 115.196 50.3974 115.196 49.4257V38.7573C115.196 33.9044 111.248 29.9561 106.395 29.9561H86.6224C85.6506 29.9561 84.8633 30.7434 84.8633 31.7151C84.8633 32.6868 85.6509 33.4742 86.6224 33.4742Z" fill="currentColor"/>
<path d="M11.8398 38.7575V94.7174C11.8398 95.6891 12.6272 96.4764 13.5989 96.4764H106.399C106.866 96.4764 107.313 96.2911 107.643 95.9611C107.973 95.6314 108.158 95.1839 108.158 94.7171L108.153 38.7512C108.153 37.7797 107.366 36.9923 106.394 36.9923L84.5881 36.994C83.6166 36.994 82.8292 37.7815 82.8292 38.7533C82.8292 39.7247 83.6168 40.5121 84.5885 40.5121L104.635 40.5107L104.64 92.9583H15.358V40.5166L35.6467 40.5151C36.6184 40.5151 37.4057 39.7276 37.4057 38.7561C37.4057 37.7844 36.6182 36.997 35.6464 36.997L13.5989 36.9984C12.6274 36.9984 11.8398 37.786 11.8398 38.7575Z" fill="currentColor"/>
<path d="M60.1164 49.3833C71.9733 49.3833 81.6193 39.7372 81.6193 27.8803C81.6193 24.4516 80.8308 21.168 79.2751 18.1205C78.8334 17.2555 77.7745 16.9122 76.9085 17.3536C76.0435 17.7952 75.6999 18.8547 76.1416 19.7201C77.4419 22.2673 78.101 25.0128 78.101 27.8803C78.101 37.7971 70.0331 45.8651 60.1162 45.8651C50.1992 45.8651 42.1314 37.7973 42.1314 27.8803C42.1314 17.9634 50.1992 9.89534 60.1162 9.89534C64.4445 9.89534 68.6294 11.46 71.9001 14.3008C72.6335 14.9378 73.7448 14.8602 74.3816 14.1263C75.0188 13.3929 74.9407 12.2818 74.2071 11.6448C70.2963 8.24791 65.2921 6.3772 60.1162 6.3772C48.2593 6.3772 38.6133 16.0235 38.6133 27.8803C38.6133 39.7372 48.2598 49.3833 60.1164 49.3833Z" fill="currentColor"/>
<path d="M42.7917 87.296H77.4405C79.7444 87.296 81.6189 85.4215 81.6189 83.1174V77.7991C81.6189 75.4949 79.7444 73.6205 77.4405 73.6205H53.8759C52.9042 73.6205 52.1169 74.4078 52.1169 75.3796C52.1169 76.3513 52.9042 77.1386 53.8759 77.1386H77.4405C77.8047 77.1386 78.1007 77.4351 78.1007 77.7991V83.1174C78.1007 83.4816 77.8045 83.7779 77.4405 83.7779H42.7917C42.4274 83.7779 42.1314 83.4814 42.1314 83.1174V77.7991C42.1314 77.4349 42.4277 77.1386 42.7917 77.1386H46.3795C47.3512 77.1386 48.1385 76.3513 48.1385 75.3796C48.1385 74.4078 47.3512 73.6205 46.3795 73.6205H42.7917C40.4877 73.6205 38.6133 75.4949 38.6133 77.7991V83.1174C38.6133 85.4215 40.4877 87.296 42.7917 87.296Z" fill="currentColor"/>
<path d="M42.9681 59.7717C42.9681 53.6107 37.9557 48.5983 31.7945 48.5983C25.6335 48.5983 20.6211 53.6107 20.6211 59.7717C20.6211 65.9326 25.6335 70.9451 31.7945 70.9451C37.9557 70.9448 42.9681 65.9324 42.9681 59.7717ZM31.7945 67.4267C27.5734 67.4267 24.1392 63.9925 24.1392 59.7714C24.1392 55.5504 27.5734 52.1162 31.7945 52.1162C36.0156 52.1162 39.45 55.5504 39.45 59.7714C39.45 63.9925 36.0158 67.4267 31.7945 67.4267Z" fill="currentColor"/>
<path d="M50.1282 58.6815H52.8534C53.8251 58.6815 54.6124 57.8941 54.6124 56.9224C54.6124 55.9507 53.8251 55.1633 52.8534 55.1633H50.1282C49.1565 55.1633 48.3691 55.9507 48.3691 56.9224C48.3691 57.8941 49.1567 58.6815 50.1282 58.6815Z" fill="currentColor"/>
<path d="M95.9616 55.1633H59.9993C59.0276 55.1633 58.2402 55.9507 58.2402 56.9224C58.2402 57.8941 59.0276 58.6815 59.9993 58.6815H95.9613C96.9331 58.6815 97.7204 57.8941 97.7204 56.9224C97.7204 55.9507 96.9331 55.1633 95.9616 55.1633Z" fill="currentColor"/>
<path d="M97.7201 64.2307C97.7201 63.259 96.9327 62.4717 95.961 62.4717H50.1282C49.1565 62.4717 48.3691 63.259 48.3691 64.2307C48.3691 65.2025 49.1565 65.9898 50.1282 65.9898H95.9608C96.9325 65.9898 97.7201 65.2025 97.7201 64.2307Z" fill="currentColor"/>
<path d="M52.4277 23.949H54.1797V32.625H52.6017L48.4797 26.655V32.625H46.7337V23.949H48.4677L52.4277 29.691V23.949ZM56.1204 32.625V23.949H62.0784L62.0724 25.425H57.8784V27.531H61.5204V28.977H57.8664V31.131L62.1384 31.137V32.625H56.1204ZM74.2417 23.949L71.6797 32.625H70.2817L68.6497 26.955L67.0057 32.625H65.6317L63.0757 23.949H64.7917L66.4057 29.679L68.0197 23.949H69.2857L70.9177 29.679L72.5317 23.949H74.2417Z" fill="currentColor"/>
</svg>
