<svg width="65" height="64" viewBox="0 0 65 64" fill="none" xmlns="http://www.w3.org/2000/svg">
<path d="M45.7911 47.0601H45.9511C46.9224 47.0588 47.8844 47.2489 48.7822 47.6197C49.6799 47.9905 50.4958 48.5347 51.1831 49.221C51.8704 49.9074 52.4156 50.7225 52.7876 51.6197C53.1596 52.517 53.3511 53.4788 53.3511 54.4501H29.8711C29.8711 52.4901 30.6497 50.6104 32.0356 49.2245C33.4215 47.8386 35.3011 47.0601 37.2611 47.0601H37.4311" stroke="#333333" stroke-width="1.5" stroke-miterlimit="10"/>
<path d="M41.2031 27.6902V16.2002" stroke="#333333" stroke-width="1.5" stroke-miterlimit="10"/>
<path d="M11.4921 12.8101V44.4701C11.4818 44.5731 11.4818 44.677 11.4921 44.7801V44.7801C11.4921 45.5757 11.8082 46.3388 12.3708 46.9014C12.9334 47.464 13.6965 47.7801 14.4921 47.7801H33.9421" stroke="#333333" stroke-width="1.5" stroke-miterlimit="10"/>
<path d="M20.7031 22.04H32.8531" stroke="#333333" stroke-width="1.5" stroke-miterlimit="10"/>
<path d="M17.9219 25.7998H35.7619" stroke="#333333" stroke-width="1.5" stroke-miterlimit="10"/>
<path d="M40.2531 12.8101C40.1896 11.6586 40.4943 10.5168 41.1231 9.55008C41.2931 9.34008 41.1231 9.08008 40.7831 9.08008H15.3531C13.2131 9.08008 11.4531 10.3801 11.4531 11.9701V13.6501C11.4531 15.2401 13.2131 16.5301 15.3531 16.5301H40.7831C41.1031 16.5301 41.2931 16.2801 41.1231 16.0701C40.4956 15.1028 40.191 13.9614 40.2531 12.8101V12.8101Z" stroke="#333333" stroke-width="1.5" stroke-miterlimit="10"/>
<path d="M28.7917 29.7598H24.7617" stroke="#333333" stroke-width="1.5" stroke-miterlimit="10"/>
<path d="M48.6211 35.6001V41.4301C48.6211 43.2866 47.8836 45.0671 46.5708 46.3798C45.2581 47.6926 43.4776 48.4301 41.6211 48.4301C39.7646 48.4301 37.9841 47.6926 36.6713 46.3798C35.3586 45.0671 34.6211 43.2866 34.6211 41.4301V35.6001" stroke="#333333" stroke-width="1.5" stroke-miterlimit="10"/>
<path d="M34.6016 35.5999V32.1599C34.6016 30.9762 35.0711 29.8407 35.9073 29.0027C36.7434 28.1647 37.8778 27.6926 39.0616 27.6899H44.1416C45.3271 27.6899 46.464 28.1609 47.3023 28.9992C48.1406 29.8375 48.6116 30.9744 48.6116 32.1599V35.5999H34.6016Z" stroke="#333333" stroke-width="1.5" stroke-miterlimit="10"/>
<path d="M44.5625 35.6001H54.9225" stroke="#333333" stroke-width="1.5" stroke-miterlimit="10"/>
<path d="M39.4023 42.5901V38.5601" stroke="#333333" stroke-width="1.5" stroke-miterlimit="10"/>
<path d="M43.8242 42.5901V38.5601" stroke="#333333" stroke-width="1.5" stroke-miterlimit="10"/>
</svg>
