<svg width="49" height="49" viewBox="0 0 49 49" fill="none" xmlns="http://www.w3.org/2000/svg">
<path d="M29.332 30.2969V37.8794H32.512V29.0444" stroke="#333333" stroke-width="1.5" stroke-miterlimit="10"/>
<path d="M24.8631 30.1395C25.7071 30.3647 26.5771 30.4782 27.4506 30.477C29.365 30.505 31.2401 29.9333 32.8131 28.842L32.8881 28.887C36.3531 30.717 40.2081 30.222 41.4906 27.792C42.3756 26.112 41.8056 23.9445 40.2306 22.167C43.1706 20.937 44.7306 17.877 43.7031 15.252C42.6756 12.627 39.5781 11.457 36.6231 12.447C35.7741 10.9419 34.5459 9.68524 33.0606 8.80198C29.0031 6.32698 24.0606 6.97948 22.0956 10.257C21.3723 11.4915 21.1068 12.9413 21.3456 14.352C19.0956 14.352 17.1306 15.4095 16.3956 17.2245C16.2679 17.5394 16.1822 17.8697 16.1406 18.207" stroke="#333333" stroke-width="1.5" stroke-miterlimit="10"/>
<path d="M24.8616 37.8796H7.28906V23.2696L16.0791 18.1846L24.8616 23.2696V37.8796Z" stroke="#333333" stroke-width="1.5" stroke-miterlimit="10"/>
<path d="M4.27734 25.0171L16.0823 18.1846" stroke="#333333" stroke-width="1.5" stroke-miterlimit="10"/>
<path d="M27.8795 25.0171L16.082 18.1846" stroke="#333333" stroke-width="1.5" stroke-miterlimit="10"/>
<path d="M18.5914 30.6196H13.5664V37.8796H18.5914V30.6196Z" stroke="#333333" stroke-width="1.5" stroke-miterlimit="10"/>
<path d="M16.0789 27.3043C17.4665 27.3043 18.5914 26.1794 18.5914 24.7918C18.5914 23.4042 17.4665 22.2793 16.0789 22.2793C14.6913 22.2793 13.5664 23.4042 13.5664 24.7918C13.5664 26.1794 14.6913 27.3043 16.0789 27.3043Z" stroke="#333333" stroke-width="1.5" stroke-miterlimit="10"/>
<path d="M9.50391 21.9943V16.3618H12.0239V20.5318L9.50391 21.9943Z" stroke="#333333" stroke-width="1.5" stroke-miterlimit="10"/>
<path d="M16.082 35.7193V32.7793" stroke="#333333" stroke-width="1.5" stroke-miterlimit="10"/>
</svg>
