<svg width="49" height="49" viewBox="0 0 49 49" fill="none" xmlns="http://www.w3.org/2000/svg">
<path d="M31.5598 14.0442V18.5142H17.2198V14.0442L13.1548 10.0317L9.08984 14.0442V19.6017V37.3842H39.6973V19.6017V14.0442L35.5798 10.0317L31.5598 14.0442Z" stroke="#333333" stroke-width="1.5" stroke-miterlimit="10"/>
<path d="M9.08203 14.7568H17.2195" stroke="#333333" stroke-width="1.5" stroke-miterlimit="10"/>
<path d="M12.9844 20.6143V17.5918" stroke="#333333" stroke-width="1.5" stroke-miterlimit="10"/>
<path d="M35.625 20.6143V17.5918" stroke="#333333" stroke-width="1.5" stroke-miterlimit="10"/>
<path d="M12.9844 27.4546V24.4321" stroke="#333333" stroke-width="1.5" stroke-miterlimit="10"/>
<path d="M35.625 27.4546V24.4321" stroke="#333333" stroke-width="1.5" stroke-miterlimit="10"/>
<path d="M12.9844 34.2871V31.2646" stroke="#333333" stroke-width="1.5" stroke-miterlimit="10"/>
<path d="M24.3906 27.4546V24.4321" stroke="#333333" stroke-width="1.5" stroke-miterlimit="10"/>
<path d="M24.3906 34.2871V31.2646" stroke="#333333" stroke-width="1.5" stroke-miterlimit="10"/>
<path d="M18.9531 27.4546V24.4321" stroke="#333333" stroke-width="1.5" stroke-miterlimit="10"/>
<path d="M18.9531 34.2871V31.2646" stroke="#333333" stroke-width="1.5" stroke-miterlimit="10"/>
<path d="M30.0078 27.4546V24.4321" stroke="#333333" stroke-width="1.5" stroke-miterlimit="10"/>
<path d="M30.0078 34.2871V31.2646" stroke="#333333" stroke-width="1.5" stroke-miterlimit="10"/>
<path d="M35.625 34.2871V31.2646" stroke="#333333" stroke-width="1.5" stroke-miterlimit="10"/>
<path d="M31.5625 14.7568H39.7" stroke="#333333" stroke-width="1.5" stroke-miterlimit="10"/>
<path d="M31.5588 18.5146H17.2188V21.8821H31.5588V18.5146Z" stroke="#333333" stroke-width="1.5" stroke-miterlimit="10"/>
</svg>
