<svg width="49" height="49" viewBox="0 0 49 49" fill="none" xmlns="http://www.w3.org/2000/svg">
<path d="M14.8438 11.1118V29.3743" stroke="#333333" stroke-width="1.5" stroke-miterlimit="10"/>
<path d="M22.9883 25.1369V8.83936" stroke="#333333" stroke-width="1.5" stroke-miterlimit="10"/>
<path d="M31.1486 25.8795V11.112L22.9886 8.83203L14.8286 11.112L6.68359 8.83203V29.367L11.4311 30.6945" stroke="#333333" stroke-width="1.5" stroke-miterlimit="10"/>
<path d="M13.8438 30.5367L16.9262 26.9442C17.4139 26.3774 18.0182 25.9226 18.6977 25.6106C19.3772 25.2987 20.116 25.137 20.8637 25.1367H28.4763C29.6431 25.1413 30.7752 25.5345 31.6938 26.2542L37.1387 30.5367H13.8438Z" stroke="#333333" stroke-width="1.5" stroke-miterlimit="10"/>
<path d="M40.5605 37.4896H41.678C41.9416 37.4906 42.2028 37.4395 42.4466 37.3393C42.6904 37.2391 42.9121 37.0918 43.0988 36.9057C43.2856 36.7197 43.4337 36.4986 43.5348 36.2552C43.6359 36.0117 43.688 35.7507 43.688 35.4871V32.5471C43.688 32.014 43.4762 31.5028 43.0993 31.1258C42.7223 30.7489 42.2111 30.5371 41.678 30.5371H12.2405C11.6577 30.5371 11.0987 30.7686 10.6866 31.1807C10.2745 31.5929 10.043 32.1518 10.043 32.7346V35.8996C10.042 36.1093 10.0827 36.3171 10.1627 36.511C10.2427 36.7049 10.3605 36.8809 10.5091 37.0288C10.6577 37.1768 10.8343 37.2937 11.0285 37.3728C11.2228 37.4519 11.4308 37.4916 11.6405 37.4896H13.8905" stroke="#333333" stroke-width="1.5" stroke-miterlimit="10"/>
<path d="M19.9648 37.4893H34.4323" stroke="#333333" stroke-width="1.5" stroke-miterlimit="10"/>
<path d="M37.4915 34.4369C38.1042 34.427 38.7056 34.6017 39.2176 34.9383C39.7296 35.2749 40.1284 35.7578 40.3623 36.3242C40.5961 36.8905 40.6541 37.5141 40.5286 38.1139C40.4032 38.7136 40.1002 39.2617 39.659 39.6869C39.2316 40.1166 38.6856 40.4089 38.091 40.5265C37.4965 40.6441 36.8803 40.5816 36.3215 40.3469C35.669 40.0765 35.1304 39.5883 34.7976 38.9653C34.4648 38.3423 34.3583 37.6232 34.4963 36.9305C34.6344 36.2378 35.0083 35.6144 35.5545 35.1665C36.1006 34.7187 36.7852 34.4741 37.4915 34.4744V34.4369Z" stroke="#333333" stroke-width="1.5" stroke-miterlimit="10"/>
<path d="M16.8901 34.3995C17.4952 34.4 18.0869 34.5773 18.5926 34.9095C19.0953 35.2455 19.4868 35.7232 19.7176 36.282C19.9436 36.8275 20.0036 37.4276 19.8901 38.007C19.7722 38.5963 19.483 39.1377 19.0587 39.5633C18.6345 39.9889 18.094 40.2798 17.5051 40.3995C16.8617 40.5314 16.1928 40.4522 15.598 40.1736C15.0031 39.8951 14.514 39.4322 14.2032 38.8535C13.8924 38.2749 13.7765 37.6115 13.8728 36.9617C13.9691 36.312 14.2724 35.7107 14.7376 35.247C15.3183 34.6965 16.0899 34.3927 16.8901 34.3995V34.3995Z" stroke="#333333" stroke-width="1.5" stroke-miterlimit="10"/>
<path d="M41.0469 33.207H44.1069" stroke="#333333" stroke-width="1.5" stroke-miterlimit="10"/>
<path d="M10.043 33.207H13.103" stroke="#333333" stroke-width="1.5" stroke-miterlimit="10"/>
<path d="M16.8964 37.7445C17.0787 37.7445 17.2264 37.5967 17.2264 37.4145C17.2264 37.2322 17.0787 37.0845 16.8964 37.0845C16.7142 37.0845 16.5664 37.2322 16.5664 37.4145C16.5664 37.5967 16.7142 37.7445 16.8964 37.7445Z" stroke="#333333" stroke-width="1.5" stroke-miterlimit="10"/>
<path d="M37.4941 37.7445C37.6763 37.7445 37.8241 37.5967 37.8241 37.4145C37.8241 37.2322 37.6763 37.0845 37.4941 37.0845C37.3118 37.0845 37.1641 37.2322 37.1641 37.4145C37.1641 37.5967 37.3118 37.7445 37.4941 37.7445Z" stroke="#333333" stroke-width="1.5" stroke-miterlimit="10"/>
<path d="M25.6445 25.1367V35.4267" stroke="#333333" stroke-width="1.5" stroke-miterlimit="10"/>
</svg>
