<svg width="64" height="64" viewBox="0 0 64 64" fill="none" xmlns="http://www.w3.org/2000/svg">
<path d="M31.45 37.4093H51.07C51.3697 37.4093 51.6571 37.5284 51.869 37.7403C52.081 37.9522 52.2 38.2396 52.2 38.5393V45.7593H30.27V38.5393C30.2699 38.3866 30.3007 38.2355 30.3606 38.095C30.4204 37.9545 30.5082 37.8277 30.6185 37.7221C30.7288 37.6165 30.8593 37.5343 31.0022 37.4805C31.1451 37.4268 31.2975 37.4026 31.45 37.4093Z" stroke="#333333" stroke-width="1.5" stroke-miterlimit="10"/>
<path d="M28.1103 45.7593H54.4103C54.6383 45.7593 54.8571 45.8499 55.0184 46.0112C55.1797 46.1724 55.2703 46.3912 55.2703 46.6193V47.8393C55.2703 48.0382 55.1912 48.229 55.0506 48.3696C54.9099 48.5103 54.7192 48.5893 54.5203 48.5893H28.0003C27.8048 48.5841 27.6192 48.5028 27.4828 48.3627C27.3465 48.2226 27.2702 48.0348 27.2703 47.8393V46.6393C27.2676 46.5263 27.2872 46.414 27.328 46.3086C27.3688 46.2033 27.4299 46.107 27.5079 46.0252C27.5859 45.9435 27.6793 45.878 27.7826 45.8323C27.886 45.7867 27.9973 45.7619 28.1103 45.7593V45.7593Z" stroke="#333333" stroke-width="1.5" stroke-miterlimit="10"/>
<path d="M28.7603 48.5693V56.5193" stroke="#333333" stroke-width="1.5" stroke-miterlimit="10"/>
<path d="M53.7603 48.5693V56.5193" stroke="#333333" stroke-width="1.5" stroke-miterlimit="10"/>
<path d="M50.6899 48.5693V56.5193" stroke="#333333" stroke-width="1.5" stroke-miterlimit="10"/>
<path d="M31.8296 48.5693V56.5193" stroke="#333333" stroke-width="1.5" stroke-miterlimit="10"/>
<path d="M23.8003 33.5393L23.8103 56.5193" stroke="#333333" stroke-width="1.5" stroke-miterlimit="10"/>
<path d="M18.74 33.8393C20.2101 34.33 21.7786 34.4507 23.3065 34.1908C24.8344 33.9309 26.2747 33.2985 27.5 32.3493L27.59 32.3993C31.4 34.5093 35.59 33.9393 37.06 31.1393C38.06 29.1993 37.41 26.6993 35.67 24.6493C38.91 23.2393 40.67 19.7093 39.49 16.6493C38.8794 15.1927 37.719 14.0355 36.2606 13.4289C34.8022 12.8224 33.1635 12.8153 31.7 13.4093C30.7777 11.6945 29.4272 10.2475 27.78 9.20934C23.27 6.35934 17.9 7.10934 15.69 10.8993C14.8836 12.3285 14.5874 13.9895 14.85 15.6093C14.85 15.6093 8.72998 16.5293 8.72998 22.1493C8.72998 28.4893 14.46 28.3493 14.46 28.3493C14.46 28.3493 14.93 32.5493 18.74 33.8393Z" stroke="#333333" stroke-width="1.5" stroke-miterlimit="10"/>
</svg>
