<svg version="1.2" xmlns="http://www.w3.org/2000/svg" viewBox="0 0 40 40" width="40" height="40">
	<title>Partnership-new-svg</title>
	<style>
		.s0 { fill: none;stroke: #333333;stroke-width: 1.3 } 
	</style>
	<path id="Layer" class="s0" d="m11.3 28.6c1.2 0 2.4 0.6 3.2 1.4 0.9 1 1.4 2.3 1.4 3.5v5.8h-14.7v-5.8c0-1.2 0.6-2.5 1.5-3.5 0.8-0.8 1.9-1.4 3.2-1.4"/>
	<path id="Layer" class="s0" d="m8.3 18.2h0.6c1 0 1.9 0.5 2.7 1.3 0.7 0.7 1.1 1.7 1.1 2.8v3.5q0 0.9-0.3 1.6-0.3 0.7-0.8 1.3-0.6 0.5-1.3 0.9-0.6 0.3-1.4 0.3h-0.6c-1 0-2-0.5-2.7-1.3-0.7-0.7-1.2-1.8-1.2-2.8v-3.5q0-0.8 0.3-1.6 0.4-0.7 0.9-1.2 0.5-0.7 1.2-0.9 0.8-0.4 1.5-0.4z"/>
	<path id="Layer" class="s0" d="m34.1 11.8q0.9 0 1.8 0.4 0.8 0.3 1.4 1 0.7 0.8 1.1 1.6 0.4 0.9 0.4 1.9v5.7h-14.6v-5.7c0-1.2 0.4-2.5 1.3-3.5 0.8-0.8 2-1.4 3.2-1.4"/>
	<path id="Layer" class="s0" d="m31.1 1.4h0.6q0.7 0 1.5 0.3 0.7 0.3 1.2 0.9 0.5 0.6 0.9 1.3 0.3 0.8 0.3 1.6v3.5q0 0.8-0.3 1.6-0.4 0.7-0.9 1.2-0.5 0.6-1.2 0.9-0.7 0.4-1.5 0.4h-0.6q-0.8 0-1.5-0.4-0.6-0.3-1.2-0.9-0.5-0.6-0.8-1.3-0.3-0.8-0.3-1.6v-3.4c0-1.1 0.4-2.1 1.1-2.8 0.8-0.8 1.7-1.3 2.7-1.3z"/>
	<path id="Layer" class="s0" d="m33.7 26c-1 3.2-2.9 5.9-5.3 7.8-2.6 1.9-5.6 3-8.7 3"/>
	<path id="Layer" class="s0" d="m6.2 14.8c1.5-3.6 4.2-6.5 7.7-8.1 3.4-1.6 7.3-1.7 10.8-0.4"/>
</svg>