<svg width="32" height="32" viewBox="0 0 32 32" fill="none" xmlns="http://www.w3.org/2000/svg">
<path d="M11.032 16.7362C11.532 18.2862 13.507 20.3712 15.032 20.7362C15.3803 20.8085 15.743 20.7547 16.0553 20.5843C16.3676 20.414 16.6092 20.1382 16.737 19.8062C16.8152 19.5721 16.9525 19.3621 17.1357 19.1966C17.3188 19.0311 17.5415 18.9156 17.7823 18.8613C18.0231 18.807 18.2738 18.8157 18.5102 18.8867C18.7467 18.9576 18.9608 19.0883 19.132 19.2662L21.297 21.4312C21.5573 21.7159 21.7017 22.0878 21.7017 22.4737C21.7017 22.8595 21.5573 23.2314 21.297 23.5162L19.847 25.0112C18.302 26.5612 14.202 24.8562 10.567 21.2212C6.93196 17.5862 5.30696 13.4912 6.77696 11.9412L8.24696 10.4712C8.53255 10.2105 8.90527 10.0659 9.29196 10.0659C9.67865 10.0659 10.0514 10.2105 10.337 10.4712L12.502 12.6362C12.6844 12.8079 12.819 13.0242 12.8926 13.2637C12.9662 13.5032 12.9763 13.7577 12.9218 14.0023C12.8674 14.2469 12.7503 14.4731 12.582 14.6587C12.4137 14.8443 12.2 14.983 11.962 15.0612C11.7852 15.1004 11.6187 15.1767 11.4736 15.285C11.3285 15.3933 11.208 15.5311 11.1201 15.6894C11.0322 15.8477 10.9789 16.0229 10.9637 16.2033C10.9485 16.3838 10.9718 16.5654 11.032 16.7362V16.7362Z" stroke="currentColor" stroke-miterlimit="10"/>
<path d="M14.4619 11.7358C16.0343 11.7422 17.5413 12.3656 18.6587 13.4718C19.7761 14.578 20.4147 16.0786 20.4369 17.6508" stroke="currentColor" stroke-miterlimit="10"/>
<path d="M14.4619 9.15625C16.7214 9.1575 18.8889 10.0515 20.4922 11.6436C22.0955 13.2357 23.0048 15.3968 23.0219 17.6562" stroke="currentColor" stroke-miterlimit="10"/>
<path d="M14.4619 6.41602C17.4476 6.41597 20.312 7.59757 22.4293 9.7027C24.5466 11.8078 25.7447 14.6653 25.7619 17.651" stroke="currentColor" stroke-miterlimit="10"/>
</svg>
