<svg width="32" height="32" viewBox="0 0 32 32" fill="none" xmlns="http://www.w3.org/2000/svg">
<path d="M11.0949 16.6741C11.5949 18.2241 13.5699 20.3091 15.0949 20.6741C15.4433 20.7465 15.806 20.6927 16.1183 20.5223C16.4306 20.352 16.6722 20.0762 16.7999 19.7441C16.8782 19.51 17.0155 19.3001 17.1987 19.1346C17.3818 18.969 17.6045 18.8536 17.8453 18.7993C18.0861 18.745 18.3368 18.7537 18.5732 18.8246C18.8097 18.8956 19.0238 19.0263 19.1949 19.2041L21.3599 21.3691C21.6203 21.6539 21.7647 22.0258 21.7647 22.4116C21.7647 22.7975 21.6203 23.1694 21.3599 23.4541L19.9099 24.9491C18.3649 26.4991 14.2649 24.7941 10.6299 21.1591C6.99495 17.5241 5.36995 13.4291 6.83995 11.8791L8.30995 10.4091C8.59554 10.1484 8.96826 10.0039 9.35495 10.0039C9.74163 10.0039 10.1144 10.1484 10.3999 10.4091L12.5649 12.5741C12.7474 12.7459 12.882 12.9622 12.9556 13.2017C13.0292 13.4412 13.0393 13.6957 12.9848 13.9403C12.9304 14.1848 12.8132 14.411 12.645 14.5967C12.4767 14.7823 12.263 14.921 12.0249 14.9991C11.8482 15.0384 11.6817 15.1146 11.5366 15.2229C11.3915 15.3313 11.271 15.4691 11.1831 15.6274C11.0952 15.7857 11.0419 15.9609 11.0267 16.1413C11.0115 16.3218 11.0348 16.5034 11.0949 16.6741V16.6741Z" stroke="#333333" stroke-opacity="0.5" stroke-miterlimit="10"/>
<path d="M14.5234 11.6758C16.0958 11.6822 17.6028 12.3055 18.7202 13.4117C19.8376 14.5179 20.4762 16.0186 20.4984 17.5908" stroke="#333333" stroke-opacity="0.5" stroke-miterlimit="10"/>
<path d="M14.5234 9.0957C16.7829 9.09696 18.9504 9.99099 20.5537 11.5831C22.157 13.1751 23.0663 15.3363 23.0834 17.5957" stroke="#333333" stroke-opacity="0.5" stroke-miterlimit="10"/>
<path d="M14.5234 6.35547C17.5092 6.35542 20.3735 7.53703 22.4909 9.64215C24.6082 11.7473 25.8063 14.6048 25.8234 17.5905" stroke="#333333" stroke-opacity="0.5" stroke-miterlimit="10"/>
</svg>
