<svg width="48" height="48" viewBox="0 0 48 48" fill="none" xmlns="http://www.w3.org/2000/svg">
<path d="M16.6444 25.0132C17.3944 27.3382 20.3569 30.4657 22.6444 31.0132C23.1669 31.1217 23.7109 31.041 24.1794 30.7855C24.6478 30.5299 25.0102 30.1162 25.2019 29.6182C25.3193 29.267 25.5253 28.9521 25.7999 28.7038C26.0746 28.4555 26.4087 28.2823 26.7699 28.2009C27.1311 28.1194 27.5072 28.1325 27.8618 28.2389C28.2164 28.3453 28.5376 28.5414 28.7944 28.8082L32.0419 32.0557C32.4324 32.4828 32.649 33.0407 32.649 33.6194C32.649 34.1982 32.4324 34.756 32.0419 35.1832L29.8669 37.4257C27.5494 39.7507 21.3994 37.1932 15.9469 31.7407C10.4944 26.2882 8.05687 20.1457 10.2619 17.8207L12.4669 15.6157C12.8953 15.2246 13.4543 15.0078 14.0344 15.0078C14.6144 15.0078 15.1735 15.2246 15.6019 15.6157L18.8494 18.8632C19.123 19.1208 19.3249 19.4452 19.4354 19.8044C19.5458 20.1637 19.5609 20.5455 19.4792 20.9124C19.3975 21.2792 19.2218 21.6185 18.9694 21.897C18.717 22.1754 18.3965 22.3835 18.0394 22.5007C17.7742 22.5595 17.5245 22.6739 17.3069 22.8364C17.0892 22.9988 16.9085 23.2056 16.7766 23.4431C16.6448 23.6805 16.5648 23.9433 16.542 24.2139C16.5192 24.4846 16.5541 24.757 16.6444 25.0132V25.0132Z" stroke="#333333" stroke-opacity="0.5" stroke-width="1.5" stroke-miterlimit="10"/>
<path d="M21.7891 17.5117C24.1476 17.5213 26.4081 18.4563 28.0842 20.1156C29.7604 21.775 30.7182 24.0259 30.7516 26.3842" stroke="#333333" stroke-opacity="0.5" stroke-width="1.5" stroke-miterlimit="10"/>
<path d="M21.7891 13.6426C25.1783 13.6445 28.4295 14.9855 30.8345 17.3736C33.2395 19.7617 34.6033 23.0034 34.6291 26.3926" stroke="#333333" stroke-opacity="0.5" stroke-width="1.5" stroke-miterlimit="10"/>
<path d="M21.7891 9.5332C26.2676 9.53313 30.5642 11.3055 33.7402 14.4632C36.9161 17.6209 38.7133 21.9072 38.7391 26.3857" stroke="#333333" stroke-opacity="0.5" stroke-width="1.5" stroke-miterlimit="10"/>
</svg>
