<svg width="65" height="65" viewBox="0 0 65 65" fill="none" xmlns="http://www.w3.org/2000/svg">
<path d="M29.791 29.396V24.176" stroke="#333333" stroke-width="1.5" stroke-miterlimit="10"/>
<path d="M33.551 37.8062V54.8762H29.791V37.8062" stroke="#333333" stroke-width="1.5" stroke-miterlimit="10"/>
<path d="M33.5508 24.176V29.396" stroke="#333333" stroke-width="1.5" stroke-miterlimit="10"/>
<path d="M29.791 15.7762V13.4362C29.7937 12.9393 29.9929 12.4637 30.3452 12.1133C30.6975 11.7629 31.1741 11.5662 31.671 11.5662V11.5662C32.1679 11.5662 32.6446 11.7629 32.9969 12.1133C33.3491 12.4637 33.5484 12.9393 33.551 13.4362V15.7762" stroke="#333333" stroke-width="1.5" stroke-miterlimit="10"/>
<path d="M47.5816 24.1761H14.1816V15.7761H47.5816L51.1616 19.9761L47.5816 24.1761Z" stroke="#333333" stroke-width="1.5" stroke-miterlimit="10"/>
<path d="M34.5505 37.806H16.1405L12.5605 33.596L16.1405 29.396H34.5505H49.5405V37.806H34.5505Z" stroke="#333333" stroke-width="1.5" stroke-miterlimit="10"/>
<path d="M21.6917 19.9761H17.5117" stroke="#333333" stroke-width="1.5" stroke-miterlimit="10"/>
<path d="M39.1917 19.9761H35.0117" stroke="#333333" stroke-width="1.5" stroke-miterlimit="10"/>
<path d="M45.0413 19.9761H40.8613" stroke="#333333" stroke-width="1.5" stroke-miterlimit="10"/>
<path d="M23.4805 33.5962H19.3105" stroke="#333333" stroke-width="1.5" stroke-miterlimit="10"/>
<path d="M33.1605 19.9761H23.4805" stroke="#333333" stroke-width="1.5" stroke-miterlimit="10"/>
<path d="M45.9317 33.5962H36.2617" stroke="#333333" stroke-width="1.5" stroke-miterlimit="10"/>
<path d="M34.6312 33.5962H24.9512" stroke="#333333" stroke-width="1.5" stroke-miterlimit="10"/>
</svg>
