<svg width="75" height="75" viewBox="0 0 75 75" fill="none" xmlns="http://www.w3.org/2000/svg">
    <path d="M5 13C5 8.58172 8.58172 5 13 5H61C65.4183 5 69 8.58172 69 13V61C69 65.4183 65.4183 69 61 69H13C8.58172 69 5 65.4183 5 61V13Z" fill="#F8D7D4"/>
    <path d="M33.977 18C23.4963 18 15 26.5037 15 36.9935C15 47.4834 23.4963 55.9871 33.977 55.9871C44.4577 55.9871 52.954 47.4834 52.954 36.9935C52.954 26.5037 44.4577 18 33.977 18ZM33.977 18H41.5057C46.4546 18.1293 51.1574 20.1878 54.6121 23.7369C58.0667 27.286 60 32.0451 60 37C60 41.9549 58.0667 46.714 54.6121 50.2631C51.1574 53.8122 46.4546 55.8707 41.5057 56H33.977M39.9016 29.4583C38.8713 28.7647 37.6633 28.3827 36.4219 28.3578C32.4117 28.3578 29.1648 32.2419 29.1648 36.9935C29.1648 41.7451 32.4117 45.6293 36.4219 45.6293C37.6649 45.6141 38.8756 45.2312 39.9016 44.5288M25.0641 34.5595H37.198M25.0641 39.4405H36.2537" stroke="#333333" stroke-width="1.5" stroke-miterlimit="10"/>
</svg>
