<svg width="83" height="83" viewBox="0 0 83 83" fill="none" xmlns="http://www.w3.org/2000/svg">
<path d="M72.3008 6.48438H64.8438V2.59375C64.8438 1.16135 63.6826 0 62.25 0C60.8174 0 59.6562 1.16135 59.6562 2.59375V6.48438H23.3438V2.59375C23.3438 1.16135 22.1826 0 20.75 0C19.3174 0 18.1562 1.16135 18.1562 2.59375V6.48438H10.6992C4.79957 6.48438 0 11.2839 0 17.1836V72.3008C0 78.2004 4.79957 83 10.6992 83H72.3008C78.2004 83 83 78.2004 83 72.3008V17.1836C83 11.2839 78.2004 6.48438 72.3008 6.48438ZM10.6992 11.6719H18.1562V14.2656C18.1562 15.698 19.3174 16.8594 20.75 16.8594C22.1826 16.8594 23.3438 15.698 23.3438 14.2656V11.6719H59.6562V14.2656C59.6562 15.698 60.8174 16.8594 62.25 16.8594C63.6826 16.8594 64.8438 15.698 64.8438 14.2656V11.6719H72.3008C75.34 11.6719 77.8125 14.1444 77.8125 17.1836V23.3438H5.1875V17.1836C5.1875 14.1444 7.65999 11.6719 10.6992 11.6719ZM72.3008 77.8125H10.6992C7.65999 77.8125 5.1875 75.34 5.1875 72.3008V28.5312H77.8125V72.3008C77.8125 75.34 75.34 77.8125 72.3008 77.8125Z" 
fill="currentColor"/>
</svg>
