<svg width="21" height="20" viewBox="0 0 21 20" fill="none" xmlns="http://www.w3.org/2000/svg">
<path d="M9.78959 3.12517C8.66353 3.12517 7.56277 3.45919 6.6266 4.08497C5.69043 4.71075 4.96092 5.60016 4.53038 6.64066C4.09984 7.68116 3.98761 8.82599 4.2079 9.93029C4.42819 11.0346 4.9711 12.0487 5.76793 12.8444C6.56475 13.6401 7.57969 14.1815 8.68431 14.4002C9.78894 14.6188 10.9336 14.5049 11.9735 14.0729C13.0133 13.6408 13.9017 12.91 14.5261 11.9729C15.1505 11.0358 15.4829 9.93456 15.4813 8.8085C15.479 7.30042 14.8784 5.85486 13.8113 4.78927C12.7441 3.72368 11.2977 3.12517 9.78959 3.12517ZM9.78959 2.2085C11.0973 2.20685 12.3761 2.59323 13.4641 3.31873C14.5521 4.04423 15.4004 5.07623 15.9016 6.28408C16.4028 7.49194 16.5344 8.82134 16.2797 10.104C16.025 11.3867 15.3954 12.5649 14.4707 13.4896C13.546 14.4143 12.3678 15.0439 11.0851 15.2986C9.80243 15.5533 8.47302 15.4217 7.26517 14.9205C6.05731 14.4193 5.02532 13.571 4.29982 12.483C3.57432 11.395 3.18794 10.1162 3.18959 8.8085C3.19179 7.05875 3.88785 5.38129 5.12512 4.14403C6.36238 2.90677 8.03983 2.21071 9.78959 2.2085Z" fill="#333333" stroke="#333333"/>
<path d="M14.0635 13.0835L18.4219 17.4418" stroke="#333333" stroke-width="2" stroke-miterlimit="10"/>
</svg>
