<svg width="24" height="24" viewBox="0 0 24 24" fill="none" xmlns="http://www.w3.org/2000/svg">
  <path fill-rule="evenodd" clip-rule="evenodd"
        d="M5.62348 5.62348C2.79217 8.45478 2.79217 13.0452 5.62348 15.8765C8.45478 18.7078 13.0452 18.7078 15.8765 15.8765C18.7078 13.0452 18.7078 8.45478 15.8765 5.62348C13.0452 2.79217 8.45478 2.79217 5.62348 5.62348ZM4.56282 16.9372C1.14573 13.5201 1.14573 7.9799 4.56282 4.56282C7.9799 1.14573 13.5201 1.14573 16.9372 4.56282C20.1756 7.80126 20.3449 12.9466 17.4451 16.3844L22.594 21.5334L21.5334 22.594L16.3844 17.4451C12.9466 20.3449 7.80126 20.1756 4.56282 16.9372Z"
        fill="currentColor"/>
</svg>
