<svg width="26" height="22" viewBox="0 0 26 22" fill="none" xmlns="http://www.w3.org/2000/svg">
<path d="M11.9968 1.20076L5.67775 5.04716H1.70311C1.31481 5.04716 1 5.36196 1 5.75027V16.2501C1 16.6384 1.31481 16.9532 1.70311 16.9532H5.67775L11.9968 20.7996C13.4028 21.6554 15.2028 20.6444 15.2028 18.9978V3.00256C15.2028 1.35653 13.4032 0.344654 11.9968 1.20076ZM2.40622 6.45338H5.17179V15.547H2.40622V6.45338ZM13.7966 18.9978C13.7966 19.5461 13.1972 19.8841 12.7279 19.5984L6.57802 15.8549V6.14542L12.7279 2.402C13.1964 2.11682 13.7966 2.45314 13.7966 3.0026V18.9978Z" 
fill="currentColor" stroke="currentColor" stroke-width="0.5"/>
<path d="M18.203 9.17713C17.9284 9.45172 17.9284 9.89688 18.203 10.1715C18.661 10.6295 18.661 11.3707 18.203 11.8287C17.9284 12.1033 17.9284 12.5485 18.203 12.823C18.4776 13.0976 18.9228 13.0977 19.1974 12.823C20.2025 11.8179 20.2025 10.1823 19.1974 9.17713C18.9228 8.90254 18.4776 8.90254 18.203 9.17713Z" 
fill="currentColor" stroke="currentColor" stroke-width="0.5"/>
<path d="M22.4405 4.93446C22.166 4.65987 21.7208 4.65987 21.4462 4.93446C21.1716 5.20905 21.1716 5.65421 21.4462 5.9288C24.2898 8.77246 24.2898 13.2275 21.4462 16.0712C21.1716 16.3458 21.1716 16.7909 21.4462 17.0655C21.7207 17.3401 22.1659 17.3402 22.4405 17.0655C25.8517 13.6543 25.8553 8.34928 22.4405 4.93446Z" 
fill="currentColor" stroke="currentColor" stroke-width="0.5"/>
</svg>
