<svg width="21" height="18" viewBox="0 0 21 18" fill="none" xmlns="http://www.w3.org/2000/svg">
<path d="M9.70129 1.24617L4.7013 4.28965H1.55634C1.24909 4.28965 1 4.53875 1 4.84599V13.154C1 13.4613 1.24909 13.7104 1.55634 13.7104H4.7013L9.70125 16.7538C10.8138 17.4311 12.2381 16.631 12.2381 15.3282V2.67185C12.2381 1.36942 10.8141 0.56877 9.70129 1.24617ZM2.11268 5.40234H4.30096V12.5977H2.11268V5.40234ZM11.1254 15.3282C11.1254 15.762 10.6511 16.0295 10.2798 15.8034L5.41364 12.8414V5.15866L10.2798 2.19666C10.6505 1.97101 11.1254 2.23713 11.1254 2.67189V15.3282Z" fill="#333333" stroke="#F8D7D4" stroke-width="0.25"/>
<path d="M14.6122 7.55748C14.3949 7.77475 14.3949 8.12699 14.6122 8.34426C14.9745 8.70666 14.9746 9.29315 14.6122 9.65555C14.3949 9.87282 14.3949 10.2251 14.6122 10.4423C14.8294 10.6596 15.1817 10.6596 15.399 10.4423C16.1943 9.64699 16.1943 8.35283 15.399 7.55748C15.1817 7.34021 14.8294 7.34021 14.6122 7.55748Z" fill="#333333" stroke="#F8D7D4" stroke-width="0.25"/>
<path d="M17.9614 4.20055C17.7442 3.98328 17.3919 3.98328 17.1747 4.20055C16.9574 4.41782 16.9574 4.77006 17.1747 4.98733C19.4247 7.23739 19.4247 10.7625 17.1747 13.0125C16.9574 13.2298 16.9574 13.5821 17.1747 13.7993C17.3919 14.0166 17.7442 14.0166 17.9614 13.7993C20.6606 11.1002 20.6634 6.90255 17.9614 4.20055Z" fill="#333333" stroke="#F8D7D4" stroke-width="0.25"/>
</svg>
