<svg width="21" height="24" viewBox="0 0 21 24" fill="none" xmlns="http://www.w3.org/2000/svg">
<path d="M2.26136 18L3.32955 14.9205H7.875L8.9375 18H10.8011L6.61364 6.36364H4.58523L0.397727 18H2.26136ZM3.84091 13.4432L5.55682 8.47727H5.64773L7.36364 13.4432H3.84091ZM14.8849 18.1932C16.3281 18.1932 17.1406 17.4602 17.4645 16.8068H17.5327V18H19.1918V12.2045C19.1918 9.66477 17.1918 9.15909 15.8054 9.15909C14.2259 9.15909 12.7713 9.79545 12.2031 11.3864L13.7997 11.75C14.0497 11.1307 14.6861 10.5341 15.8281 10.5341C16.9247 10.5341 17.4872 11.108 17.4872 12.0966V12.1364C17.4872 12.7557 16.8509 12.7443 15.2827 12.9261C13.6293 13.1193 11.9361 13.5511 11.9361 15.5341C11.9361 17.25 13.2259 18.1932 14.8849 18.1932ZM15.2543 16.8295C14.294 16.8295 13.6009 16.3977 13.6009 15.5568C13.6009 14.6477 14.4077 14.3239 15.3906 14.1932C15.9418 14.1193 17.2486 13.9716 17.4929 13.7273V14.8523C17.4929 15.8864 16.669 16.8295 15.2543 16.8295Z" fill="#333333"/>
</svg>
