<svg width="33" height="32" viewBox="0 0 33 32" fill="none" xmlns="http://www.w3.org/2000/svg">
<path d="M14.9434 14.57V11.96" stroke="#333333" stroke-miterlimit="10"/>
<path d="M16.8234 18.7747V27.3097H14.9434V18.7747" stroke="#333333" stroke-miterlimit="10"/>
<path d="M16.8223 11.96V14.57" stroke="#333333" stroke-miterlimit="10"/>
<path d="M14.9434 7.76003V6.59003C14.9447 6.34159 15.0443 6.10378 15.2204 5.92858C15.3966 5.75337 15.6349 5.65503 15.8834 5.65503V5.65503C16.1318 5.65503 16.3701 5.75337 16.5463 5.92858C16.7224 6.10378 16.822 6.34159 16.8234 6.59003V7.76003" stroke="#333333" stroke-miterlimit="10"/>
<path d="M23.8367 11.96H7.13672V7.76001H23.8367L25.6267 9.86001L23.8367 11.96Z" stroke="#333333" stroke-miterlimit="10"/>
<path d="M17.3231 18.7751H8.11813L6.32812 16.6701L8.11813 14.5701H17.3231H24.8181V18.7751H17.3231Z" stroke="#333333" stroke-miterlimit="10"/>
<path d="M10.8927 9.86011H8.80273" stroke="#333333" stroke-miterlimit="10"/>
<path d="M19.6427 9.86011H17.5527" stroke="#333333" stroke-miterlimit="10"/>
<path d="M22.5685 9.86011H20.4785" stroke="#333333" stroke-miterlimit="10"/>
<path d="M11.7881 16.6699H9.70312" stroke="#333333" stroke-miterlimit="10"/>
<path d="M16.6271 9.86011H11.7871" stroke="#333333" stroke-miterlimit="10"/>
<path d="M23.0127 16.6699H18.1777" stroke="#333333" stroke-miterlimit="10"/>
<path d="M17.3634 16.6699H12.5234" stroke="#333333" stroke-miterlimit="10"/>
</svg>
