<svg width="48" height="48" viewBox="0 0 48 48" fill="none" xmlns="http://www.w3.org/2000/svg">
<g opacity="0.25">
<path d="M31.1692 13.3953V17.8653H16.8292V13.3953L12.7642 9.38281L8.69922 13.3953V18.9528V36.7353H39.3067V18.9528V13.3953L35.1892 9.38281L31.1692 13.3953Z" stroke="#333333" stroke-width="1.5" stroke-miterlimit="10"/>
<path d="M8.69141 14.1074H16.8289" stroke="#333333" stroke-width="1.5" stroke-miterlimit="10"/>
<path d="M12.5938 19.9649V16.9424" stroke="#333333" stroke-width="1.5" stroke-miterlimit="10"/>
<path d="M35.2344 19.9649V16.9424" stroke="#333333" stroke-width="1.5" stroke-miterlimit="10"/>
<path d="M12.5938 26.8047V23.7822" stroke="#333333" stroke-width="1.5" stroke-miterlimit="10"/>
<path d="M35.2344 26.8047V23.7822" stroke="#333333" stroke-width="1.5" stroke-miterlimit="10"/>
<path d="M12.5938 33.6377V30.6152" stroke="#333333" stroke-width="1.5" stroke-miterlimit="10"/>
<path d="M24 26.8047V23.7822" stroke="#333333" stroke-width="1.5" stroke-miterlimit="10"/>
<path d="M24 33.6377V30.6152" stroke="#333333" stroke-width="1.5" stroke-miterlimit="10"/>
<path d="M18.5625 26.8047V23.7822" stroke="#333333" stroke-width="1.5" stroke-miterlimit="10"/>
<path d="M18.5625 33.6377V30.6152" stroke="#333333" stroke-width="1.5" stroke-miterlimit="10"/>
<path d="M29.6172 26.8047V23.7822" stroke="#333333" stroke-width="1.5" stroke-miterlimit="10"/>
<path d="M29.6172 33.6377V30.6152" stroke="#333333" stroke-width="1.5" stroke-miterlimit="10"/>
<path d="M35.2344 33.6377V30.6152" stroke="#333333" stroke-width="1.5" stroke-miterlimit="10"/>
<path d="M31.1719 14.1074H39.3094" stroke="#333333" stroke-width="1.5" stroke-miterlimit="10"/>
<path d="M31.1681 17.8652H16.8281V21.2327H31.1681V17.8652Z" stroke="#333333" stroke-width="1.5" stroke-miterlimit="10"/>
</g>
</svg>
