<svg width="65" height="65" viewBox="0 0 65 65" fill="none" xmlns="http://www.w3.org/2000/svg">
<path d="M26.1641 36.2827H37.8174" stroke="#333333" stroke-width="1.5" stroke-miterlimit="10"/>
<path d="M34.4173 15.8964V10.4164C34.4173 9.70918 34.1364 9.0309 33.6363 8.5308C33.1362 8.03071 32.4579 7.74976 31.7507 7.74976C31.0434 7.74976 30.3651 8.03071 29.865 8.5308C29.3649 9.0309 29.084 9.70918 29.084 10.4164V15.8964" stroke="#333333" stroke-width="1.5" stroke-miterlimit="10"/>
<path d="M30.6976 27.2957L17.6976 51.0024C17.4745 51.4106 17.1661 51.766 16.7934 52.0444C16.4207 52.3228 15.9924 52.5176 15.5376 52.6157C14.7633 52.7702 13.9593 52.6425 13.2709 52.2557C12.8912 52.0542 12.5552 51.7793 12.2824 51.4472C12.0095 51.115 11.8052 50.732 11.6812 50.3204C11.5572 49.9088 11.5161 49.4767 11.5601 49.0491C11.6041 48.6214 11.7324 48.2068 11.9376 47.829L25.8043 22.6824" stroke="#333333" stroke-width="1.5" stroke-miterlimit="10"/>
<path d="M37.6577 22.6824L51.4844 47.869C51.8999 48.6258 51.9977 49.5166 51.7564 50.3455C51.5151 51.1744 50.9544 51.8735 50.1977 52.289C49.4409 52.7045 48.5501 52.8024 47.7212 52.5611C46.8923 52.3198 46.1932 51.7591 45.7777 51.0024L32.791 27.3357" stroke="#333333" stroke-width="1.5" stroke-miterlimit="10"/>
<path d="M31.7382 27.429C35.0961 27.429 37.8182 24.7069 37.8182 21.349C37.8182 17.9912 35.0961 15.269 31.7382 15.269C28.3803 15.269 25.6582 17.9912 25.6582 21.349C25.6582 24.7069 28.3803 27.429 31.7382 27.429Z" stroke="#333333" stroke-width="1.5" stroke-miterlimit="10"/>
<path d="M50.1914 52.2957L52.8181 56.7623" stroke="#333333" stroke-width="1.5" stroke-miterlimit="10"/>
<path d="M13.2715 52.2957L10.6582 56.7623" stroke="#333333" stroke-width="1.5" stroke-miterlimit="10"/>
</svg>
