<svg width="24" height="17" viewBox="0 0 24 17" fill="none" xmlns="http://www.w3.org/2000/svg">
<path d="M23.5055 2.6294C23.229 1.60122 22.4183 0.790724 21.3903 0.513868C19.5122 0 11.9997 0 11.9997 0C11.9997 0 4.48756 0 2.60948 0.494386C1.60122 0.770949 0.770802 1.60137 0.494239 2.6294C0 4.50733 0 8.40192 0 8.40192C0 8.40192 0 12.3161 0.494239 14.1744C0.771095 15.2025 1.58145 16.013 2.60962 16.2898C4.50733 16.8038 12 16.8038 12 16.8038C12 16.8038 19.5122 16.8038 21.3903 16.3095C22.4185 16.0327 23.229 15.2222 23.5058 14.1942C23.9999 12.3161 23.9999 8.4217 23.9999 8.4217C23.9999 8.4217 24.0197 4.50733 23.5055 2.6294ZM9.60793 11.9999V4.80396L15.8549 8.40192L9.60793 11.9999Z" 
fill="currentColor"/>
</svg>
