<svg width="64" height="64" viewBox="0 0 64 64" fill="none" xmlns="http://www.w3.org/2000/svg">
<path d="M31.74 28.7849V16.1749C31.74 15.6641 31.6394 15.1582 31.4439 14.6863C31.2484 14.2143 30.9619 13.7855 30.6006 13.4243C30.2394 13.063 29.8106 12.7765 29.3386 12.581C28.8667 12.3855 28.3608 12.2849 27.85 12.2849H12.14C11.1083 12.2849 10.1189 12.6948 9.38935 13.4243C8.65984 14.1538 8.25 15.1432 8.25 16.1749V47.8249C8.25 48.8566 8.65984 49.846 9.38935 50.5756C10.1189 51.3051 11.1083 51.7149 12.14 51.7149H27.82C28.3334 51.7189 28.8424 51.6212 29.3179 51.4275C29.7933 51.2337 30.2257 50.9478 30.5901 50.5862C30.9545 50.2246 31.2437 49.7944 31.441 49.3205C31.6384 48.8466 31.74 48.3383 31.74 47.8249V45.5149" stroke="#333333" stroke-width="1.5" stroke-miterlimit="10"/>
<path d="M31.7398 45.5145L40.1698 48.6045C41.4894 49.0944 42.9219 49.1955 44.2973 48.896C45.6727 48.5964 46.9333 47.9088 47.9298 46.9145L52.9298 41.9745C53.8239 41.0811 54.5331 40.0203 55.017 38.8526C55.501 37.685 55.75 36.4334 55.75 35.1695C55.75 33.9055 55.501 32.654 55.017 31.4864C54.5331 30.3187 53.8239 29.2579 52.9298 28.3645V28.3645L45.4998 20.9445L44.6898 20.1245C44.186 19.6385 43.5371 19.3306 42.8421 19.2475C42.147 19.1645 41.4439 19.3109 40.8398 19.6645C40.4869 19.9139 40.1921 20.2366 39.9755 20.6105C39.7589 20.9844 39.6257 21.4006 39.5848 21.8308C39.544 22.2609 39.5966 22.6948 39.739 23.1028C39.8813 23.5108 40.1102 23.8832 40.4098 24.1945C39.844 23.6778 39.1019 23.3972 38.3358 23.4102C37.5698 23.4233 36.8377 23.7289 36.2898 24.2645C36.0062 24.5239 35.7788 24.8387 35.6218 25.1894C35.4647 25.5401 35.3812 25.9194 35.3765 26.3037C35.3719 26.6879 35.446 27.0691 35.5945 27.4236C35.743 27.778 35.9626 28.0983 36.2398 28.3645V28.3645C35.8789 28.0159 35.4365 27.7634 34.9528 27.6301C34.4692 27.4968 33.9598 27.4868 33.4713 27.6012C32.9829 27.7156 32.5309 27.9507 32.1567 28.285C31.7826 28.6192 31.4983 29.042 31.3298 29.5145C31.1517 30.0312 31.1248 30.588 31.2524 31.1195C31.3799 31.6509 31.6566 32.1349 32.0498 32.5145V32.5145L22.7398 23.2945C22.1799 22.7508 21.4302 22.4467 20.6498 22.4467C19.8693 22.4467 19.1196 22.7508 18.5598 23.2945V23.2945C18.019 23.8539 17.7168 24.6015 17.7168 25.3795C17.7168 26.1575 18.019 26.9051 18.5598 27.4645L26.7798 35.6845L27.5998 41.1945C27.7416 42.1537 28.155 43.0524 28.7911 43.7842C29.4273 44.516 30.2596 45.0505 31.1898 45.3245L31.6898 45.5145" stroke="#333333" stroke-width="1.5" stroke-miterlimit="10"/>
<path d="M26.7998 35.6848L32.8298 41.7148" stroke="#333333" stroke-width="1.5" stroke-miterlimit="10"/>
<path d="M20.46 19.915V15.325" stroke="#333333" stroke-width="1.5" stroke-miterlimit="10"/>
<path d="M15.05 25.4646H10.46" stroke="#333333" stroke-width="1.5" stroke-miterlimit="10"/>
<path d="M16.3105 21.5447L13.0605 18.2947" stroke="#333333" stroke-width="1.5" stroke-miterlimit="10"/>
<path d="M24.6104 21.5447L27.8504 18.2947" stroke="#333333" stroke-width="1.5" stroke-miterlimit="10"/>
<path d="M16.7302 29.5647L13.4902 32.8147" stroke="#333333" stroke-width="1.5" stroke-miterlimit="10"/>
<path d="M22.2807 47.3948H17.6807" stroke="#333333" stroke-width="1.5" stroke-miterlimit="10"/>
</svg>
