<svg width="64" height="54" viewBox="0 0 64 54" fill="none"
  xmlns="http://www.w3.org/2000/svg">
  <path d="M49.1767 10.6698C48.3513 9.87427 47.2908 9.37392 46.1574 9.2453C45.024 9.11668 43.8802 9.36688 42.9008 9.95762C42.313 10.3664 41.8213 10.9008 41.4605 11.523C41.0998 12.1453 40.8788 12.84 40.8132 13.5582C40.7738 13.9485 40.7738 14.3417 40.8132 14.732C40.2066 14.6274 39.5856 14.6446 38.9856 14.7826C38.3856 14.9206 37.8184 15.1768 37.3164 15.5365C36.7492 15.9513 36.2781 16.4858 35.9356 17.103C35.5931 17.7202 35.3876 18.4052 35.3331 19.1107C35.2939 19.4613 35.2939 19.8152 35.3331 20.1658C34.7851 20.0671 34.2241 20.0671 33.6761 20.1658C33.2688 20.2567 32.8744 20.3985 32.5018 20.5879V6.08009C32.4916 4.47528 31.8582 2.93873 30.738 1.80147C29.6178 0.664209 28.1005 0.0172606 26.5129 0L6.05413 0C4.44847 0 2.90858 0.644747 1.77321 1.7924C0.637844 2.94006 0 4.49662 0 6.11965L0 47.8625C-3.71569e-06 49.4868 0.637423 51.0447 1.77242 52.1945C2.90741 53.3442 4.44727 53.9919 6.05413 53.9954H26.5129C27.3129 54.0006 28.1061 53.8458 28.8467 53.5399C29.5874 53.2341 30.2608 52.7832 30.8284 52.2132C31.3959 51.6432 31.8463 50.9653 32.1537 50.2186C32.461 49.472 32.6192 48.6713 32.6192 47.8625V46.2403L42.3397 49.8672C43.5129 50.3074 44.7548 50.5308 46.0061 50.5267C48.8023 50.5486 51.4939 49.4537 53.4955 47.4801L60.0194 40.8856C61.2763 39.6166 62.2734 38.1096 62.9537 36.4508C63.6341 34.792 63.9842 33.0139 63.9842 31.2181C63.9842 29.4224 63.6341 27.6443 62.9537 25.9855C62.2734 24.3267 61.2763 22.8197 60.0194 21.5507L49.1767 10.6698ZM30.6099 47.8625C30.6099 48.9621 30.1786 50.0168 29.4107 50.7956C28.6427 51.5743 27.6007 52.0135 26.5129 52.017H6.05413C4.96634 52.0135 3.92429 51.5743 3.15633 50.7956C2.38837 50.0168 1.95715 48.9621 1.95715 47.8625V6.11965C1.96059 5.02238 2.39334 3.97104 3.16093 3.19514C3.92852 2.41925 4.9686 1.98181 6.05413 1.97834H26.5129C27.5984 1.98181 28.6385 2.41925 29.4061 3.19514C30.1737 3.97104 30.6064 5.02238 30.6099 6.11965V22.4211C30.4301 22.7162 30.2731 23.0249 30.1402 23.3444C30.0404 23.6181 29.9661 23.9007 29.9183 24.1885L20.6023 14.7584C19.6974 13.8419 18.4694 13.3264 17.1884 13.3251C15.9075 13.3239 14.6785 13.8371 13.7718 14.7518C12.8652 15.6665 12.3552 16.9078 12.3539 18.2026C12.3527 19.4974 12.8604 20.7397 13.7653 21.6562L24.2687 32.2732L25.2864 39.2238C25.4982 40.663 26.1096 42.0119 27.0496 43.1139C27.9896 44.2158 29.2197 45.0255 30.5968 45.449L30.6099 47.8625ZM58.545 39.4876L52.0211 46.0029C50.8468 47.1833 49.3627 47.9993 47.7443 48.3545C46.1259 48.7098 44.4407 48.5894 42.8877 48.0076L31.8494 43.8927L31.1318 43.6289C30.0997 43.3166 29.1765 42.7145 28.4697 41.8927C27.7629 41.0708 27.3015 40.063 27.1392 38.9864L26.5129 34.6736L32.28 40.5031L33.663 39.1051L25.8344 31.1918L15.1484 20.3109C14.6103 19.7652 14.3086 19.0258 14.3099 18.2554C14.3111 17.4849 14.6151 16.7465 15.1549 16.2026C15.6947 15.6586 16.4262 15.3538 17.1884 15.355C17.9506 15.3562 18.6811 15.6635 19.2192 16.2092L31.3144 28.4485C31.4925 28.6134 31.7253 28.705 31.9668 28.705C32.2084 28.705 32.4412 28.6134 32.6192 28.4485C32.8002 28.2591 32.9013 28.0061 32.9013 27.7429C32.9013 27.4796 32.8002 27.2266 32.6192 27.0373C32.2343 26.6702 31.961 26.1996 31.8316 25.681C31.7022 25.1623 31.7219 24.617 31.8885 24.1093C32.0602 23.625 32.3498 23.1923 32.7306 22.8511C33.1115 22.51 33.5713 22.2714 34.0675 22.1574C34.5333 22.0604 35.0156 22.082 35.4711 22.2201C35.9266 22.3583 36.341 22.6086 36.677 22.9487C36.8626 23.1234 37.1079 23.2185 37.3614 23.214C37.6149 23.2095 37.8568 23.1057 38.0361 22.9245C38.2154 22.7432 38.3181 22.4987 38.3226 22.2425C38.3271 21.9862 38.233 21.7382 38.0601 21.5507C37.7716 21.2462 37.5522 20.8819 37.4171 20.4831C37.2821 20.0842 37.2347 19.6604 37.2781 19.2411C37.3216 18.8218 37.4549 18.4172 37.6688 18.0553C37.8827 17.6934 38.1721 17.3829 38.5168 17.1456C39.0267 16.8133 39.625 16.6466 40.2314 16.6678C40.8377 16.6891 41.4232 16.8972 41.9092 17.2643L42.3528 17.5676C42.5534 17.7052 42.7969 17.7637 43.0374 17.7321C43.2778 17.7006 43.4984 17.581 43.6576 17.3962C43.8121 17.208 43.8912 16.9681 43.8791 16.7239C43.867 16.4796 43.7647 16.2489 43.5923 16.0773C43.2966 15.7741 43.0698 15.4093 42.9278 15.0084C42.7859 14.6075 42.7321 14.1801 42.7703 13.756C42.8072 13.3293 42.9376 12.9161 43.152 12.5466C43.3664 12.1771 43.6594 11.8604 44.0098 11.6194C44.6098 11.2831 45.3003 11.149 45.9809 11.2368C46.6614 11.3246 47.2965 11.6296 47.7937 12.1074L58.545 22.9751C60.7058 25.1677 61.919 28.1364 61.919 31.2313C61.919 34.3262 60.7058 37.295 58.545 39.4876Z" fill="#333333"/>
  <path d="M17.8898 5.01184H15.9326V11.0655H17.8898V5.01184Z" fill="#333333"/>
  <path d="M9.85315 17.3964H3.86426V19.3747H9.85315V17.3964Z" fill="#333333"/>
  <path d="M7.94837 8.21915L6.56445 9.61804L10.7992 13.8987L12.1832 12.4998L7.94837 8.21915Z" fill="#333333"/>
  <path d="M25.8774 8.21926L21.6426 12.4999L23.0265 13.8988L27.2613 9.61816L25.8774 8.21926Z" fill="#333333"/>
  <path d="M11.3627 23.0858L7.12793 27.3665L8.51185 28.7653L12.7466 24.4847L11.3627 23.0858Z" fill="#333333"/>
  <path d="M19.2848 46.3196H13.2959V48.2979H19.2848V46.3196Z" fill="#333333"/>
</svg>
