<svg width="64" height="64" viewBox="0 0 64 64" fill="none" xmlns="http://www.w3.org/2000/svg">
<path d="M43.9396 29.2851C43.9422 27.3554 43.4771 25.4538 42.584 23.7432C41.691 22.0326 40.3966 20.5639 38.8118 19.4629C37.227 18.3619 35.399 17.6615 33.4843 17.4215C31.5695 17.1816 29.6252 17.4093 27.8177 18.0851C26.0102 18.761 24.3935 19.8649 23.1059 21.3022C21.8184 22.7396 20.8984 24.4676 20.4248 26.3383C19.9512 28.209 19.938 30.1666 20.3864 32.0434C20.8348 33.9203 21.7315 35.6605 22.9996 37.1151C25.6378 40.0744 27.1124 43.8907 27.1496 47.8551V48.2851H36.8496V47.8551C36.8993 43.86 38.3909 40.0175 41.0496 37.0351C42.9094 34.8809 43.9348 32.131 43.9396 29.2851V29.2851Z" stroke="#333333" stroke-width="1.5" stroke-miterlimit="10"/>
<path d="M36.8504 48.2849H27.1504V51.8849H36.8504V48.2849Z" stroke="#333333" stroke-width="1.5" stroke-miterlimit="10"/>
<path d="M27.1504 51.885H36.8504C36.8504 52.3578 36.7573 52.8259 36.5764 53.2627C36.3954 53.6994 36.1303 54.0963 35.796 54.4306C35.4617 54.7649 35.0648 55.0301 34.628 55.211C34.1913 55.3919 33.7231 55.485 33.2504 55.485H30.7504C29.7956 55.485 28.8799 55.1057 28.2048 54.4306C27.5297 53.7555 27.1504 52.8398 27.1504 51.885V51.885Z" stroke="#333333" stroke-width="1.5" stroke-miterlimit="10"/>
<path d="M35.6699 22.7849C36.6557 22.7876 37.6004 23.1803 38.2974 23.8774C38.9945 24.5745 39.3873 25.5191 39.3899 26.5049" stroke="#333333" stroke-width="1.5" stroke-miterlimit="10"/>
<path d="M33.8299 36.9851H30.1699V48.2851H33.8299V36.9851Z" stroke="#333333" stroke-width="1.5" stroke-miterlimit="10"/>
<path d="M30.1699 32.8147V37.0347" stroke="#333333" stroke-width="1.5" stroke-miterlimit="10"/>
<path d="M33.8301 32.8147V37.0347" stroke="#333333" stroke-width="1.5" stroke-miterlimit="10"/>
<path d="M32 12.3649V8.51489" stroke="#333333" stroke-width="1.5" stroke-miterlimit="10"/>
<path d="M44.0498 16.9651L46.7598 14.2551" stroke="#333333" stroke-width="1.5" stroke-miterlimit="10"/>
<path d="M19.9502 16.9651L17.2402 14.2551" stroke="#333333" stroke-width="1.5" stroke-miterlimit="10"/>
<path d="M15.34 29.0149H11.5" stroke="#333333" stroke-width="1.5" stroke-miterlimit="10"/>
<path d="M48.6602 29.0149H52.5002" stroke="#333333" stroke-width="1.5" stroke-miterlimit="10"/>
<path d="M19.9502 41.0647L17.2402 43.7747" stroke="#333333" stroke-width="1.5" stroke-miterlimit="10"/>
<path d="M44.0498 41.0647L46.7598 43.7747" stroke="#333333" stroke-width="1.5" stroke-miterlimit="10"/>
</svg>
