<svg width="59" height="69" viewBox="0 0 59 69" fill="none"
  xmlns="http://www.w3.org/2000/svg">
  <path d="M21.3466 61.2503V63.2669H21.4514C21.6913 64.7076 22.4339 66.0152 23.5458 66.9549C24.6577 67.8945 26.0662 68.4048 27.5184 68.3942H31.0826C32.5184 68.3804 33.9036 67.8593 34.9959 66.922C36.0883 65.9847 36.8182 64.6909 37.0579 63.2669H37.1497V56.4657C37.2382 50.9829 39.2847 45.715 42.9153 41.6244C45.1709 38.9901 46.6263 35.7591 47.1081 32.3164C47.5899 28.8736 47.0777 25.3642 45.6326 22.2059C44.1876 19.0476 41.8705 16.3737 38.9573 14.5026C36.0442 12.6315 32.6578 11.642 29.2014 11.6521C25.745 11.6621 22.3643 12.6712 19.4619 14.5592C16.5596 16.4472 14.2578 19.1345 12.8309 22.3011C11.404 25.4677 10.912 28.9801 11.4135 32.42C11.915 35.8599 13.3888 39.0823 15.6596 41.7035C19.2667 45.7659 21.2872 51.0061 21.3466 56.4525V61.2503ZM31.0302 66.4171H27.5184C26.584 66.4311 25.6722 66.1278 24.9303 65.5562C24.1885 64.9846 23.6599 64.178 23.4301 63.2669H35.0662C34.8385 64.1692 34.3177 64.9691 33.5865 65.5398C32.8554 66.1105 31.9557 66.4193 31.0302 66.4171ZM17.1403 40.3986C15.128 38.0584 13.8265 35.186 13.3907 32.1231C12.955 29.0602 13.4033 25.9359 14.6824 23.1219C15.9614 20.308 18.0174 17.923 20.6055 16.2508C23.1936 14.5786 26.2048 13.6896 29.2809 13.6896C32.3569 13.6896 35.3682 14.5786 37.9563 16.2508C40.5444 17.923 42.6003 20.308 43.8794 23.1219C45.1585 25.9359 45.6068 29.0602 45.1711 32.1231C44.7353 35.186 43.4338 38.0584 41.4215 40.3986C37.5812 44.7563 35.379 50.3289 35.1972 56.1494H32.8385V34.8759H30.873V39.8713H27.6233V34.8759H25.6577V56.0835H23.3121C23.1574 50.2868 20.9715 44.7316 17.1403 40.3986ZM27.6233 41.8484H30.873V56.0835H27.6233V41.8484ZM26.6405 58.0606H35.1841V61.2503H23.3121V58.0606H26.6405Z" fill="#333333"/>
  <path d="M38.827 25.8209H40.7926C40.7891 24.1383 40.1221 22.5258 38.938 21.3372C37.7539 20.1486 36.1494 19.4811 34.4766 19.4811V21.4582C35.6281 21.4582 36.7327 21.9174 37.5482 22.7352C38.3637 23.553 38.8235 24.6627 38.827 25.8209Z" fill="#333333"/>
  <path d="M30.2302 0H28.2646V5.50949H30.2302V0Z" fill="#333333"/>
  <path d="M49.6143 7.53182L45.7412 11.4276L47.1311 12.8256L51.0041 8.92983L49.6143 7.53182Z" fill="#333333"/>
  <path d="M8.87033 7.5285L7.48047 8.92651L11.3535 12.8223L12.7434 11.4243L8.87033 7.5285Z" fill="#333333"/>
  <path d="M5.47735 28.4307H0V30.4078H5.47735V28.4307Z" fill="#333333"/>
  <path d="M58.4959 28.4307H53.0186V30.4078H58.4959V28.4307Z" fill="#333333"/>
  <path d="M11.3643 46.0257L7.49121 49.9215L8.88107 51.3195L12.7541 47.4237L11.3643 46.0257Z" fill="#333333"/>
  <path d="M47.1396 46.0173L45.75 47.4155L49.6237 51.3106L51.0134 49.9124L47.1396 46.0173Z" fill="#333333"/>
</svg>
