<svg width="58" height="60" viewBox="0 0 58 60" fill="none"
  xmlns="http://www.w3.org/2000/svg">
  <path d="M50.1179 47.1313H48.6145C50.1384 45.1419 50.961 42.7125 50.9561 40.2157V31.7458C50.8876 29.9211 50.319 28.1493 49.3112 26.6201C48.3035 25.091 46.8945 23.8621 45.2352 23.0651V16.3734H45.009L45.0889 16.2417L27.221 5.59832C27.2789 5.29422 27.3101 4.9857 27.3141 4.67625C27.3141 3.43603 26.8165 2.24661 25.9307 1.36964C25.045 0.492675 23.8436 0 22.591 0C21.3384 0 20.137 0.492675 19.2513 1.36964C18.3655 2.24661 17.8679 3.43603 17.8679 4.67625C17.8653 4.98603 17.8965 5.29519 17.961 5.59832L0.146349 16.2417L0.226176 16.3734H0V44.3255H30.0282C30.4207 45.3269 30.9489 46.2708 31.5981 47.1313H30.0947C28.1117 47.1313 26.2098 47.9112 24.8076 49.2996C23.4054 50.6879 22.6176 52.5709 22.6176 54.5343V59.3949H57.5951V54.5343C57.5951 52.5709 56.8073 50.6879 55.4051 49.2996C54.0028 47.9112 52.101 47.1313 50.1179 47.1313ZM48.7875 30.8632H31.3853C31.65 29.0289 32.5647 27.3474 33.9661 26.1192C35.3674 24.891 37.1642 24.196 39.0353 24.1584H41.2439C43.1058 24.2083 44.8898 24.9088 46.2802 26.1359C47.6705 27.363 48.5776 29.0376 48.8407 30.8632H48.7875ZM22.6176 1.97588C23.157 1.97588 23.6844 2.13425 24.1329 2.43097C24.5814 2.72769 24.931 3.14943 25.1374 3.64286C25.3438 4.13629 25.3979 4.67924 25.2926 5.20306C25.1874 5.72688 24.9276 6.20804 24.5462 6.58569C24.1647 6.96335 23.6788 7.22053 23.1497 7.32473C22.6206 7.42892 22.0722 7.37544 21.5739 7.17106C21.0755 6.96668 20.6495 6.62056 20.3498 6.17649C20.0501 5.73242 19.8902 5.21033 19.8902 4.67625C19.8902 3.96006 20.1775 3.27322 20.689 2.7668C21.2005 2.26038 21.8942 1.97588 22.6176 1.97588ZM18.7859 7.41613C19.2195 8.01445 19.7908 8.50191 20.4525 8.83817C21.1142 9.17444 21.8472 9.34983 22.591 9.34983C23.3348 9.34983 24.0678 9.17444 24.7295 8.83817C25.3912 8.50191 25.9625 8.01445 26.3961 7.41613L41.4035 16.3734H3.77847L18.7859 7.41613ZM1.99567 42.3497V18.3493H43.2395V22.3933C42.5842 22.2502 41.9149 22.1795 41.2439 22.1825H39.0353C36.4793 22.232 34.0402 23.2523 32.2226 25.0323C30.405 26.8122 29.3479 29.2158 29.2698 31.7458V40.2157C29.2678 40.9317 29.3346 41.6462 29.4694 42.3497H1.99567ZM31.2655 34.2486V32.8391H48.9605V40.2157C49.0212 42.5998 48.1235 44.9102 46.4644 46.6393C44.8054 48.3683 42.5209 49.3744 40.113 49.4365C37.7051 49.3744 35.4206 48.3683 33.7615 46.6393C32.1025 44.9102 31.2047 42.5998 31.2655 40.2157V34.2486ZM55.5994 57.419H24.6133V54.5343C24.6168 53.096 25.1954 51.7176 26.2226 50.7006C27.2498 49.6835 28.642 49.1106 30.0947 49.1072H33.5672C35.4204 50.5892 37.7307 51.3976 40.113 51.3976C42.4953 51.3976 44.8056 50.5892 46.6588 49.1072H50.1179C51.5706 49.1106 52.9628 49.6835 53.99 50.7006C55.0172 51.7176 55.5959 53.096 55.5994 54.5343V57.419Z" fill="#333333"/>
  <path d="M13.4114 22.8412H6.77246V24.8171H13.4114V22.8412Z" fill="#333333"/>
  <path d="M24.9856 22.8412H18.3467V24.8171H24.9856V22.8412Z" fill="#333333"/>
  <path d="M13.4114 29.3615H6.77246V31.3373H13.4114V29.3615Z" fill="#333333"/>
  <path d="M24.9856 29.3615H18.3467V31.3373H24.9856V29.3615Z" fill="#333333"/>
  <path d="M13.4114 35.8951H6.77246V37.871H13.4114V35.8951Z" fill="#333333"/>
  <path d="M24.9856 35.8951H18.3467V37.871H24.9856V35.8951Z" fill="#333333"/>
</svg>
