<svg width="64" height="64" viewBox="0 0 64 64" fill="none" xmlns="http://www.w3.org/2000/svg">
<path d="M31.2305 10.23V18.78H39.7805" stroke="#333333" stroke-width="1.5" stroke-miterlimit="10"/>
<path d="M39.7797 34.22V18.78L31.2297 10.23H17.2197V43.79H31.7097" stroke="#333333" stroke-width="1.5" stroke-miterlimit="10"/>
<path d="M17.2199 15.29H12.6299V48.84H33.2099" stroke="#333333" stroke-width="1.5" stroke-miterlimit="10"/>
<path d="M24.2903 15.2998H20.1104" stroke="#333333" stroke-width="1.5" stroke-miterlimit="10"/>
<path d="M24.2903 38.3501H20.1104" stroke="#333333" stroke-width="1.5" stroke-miterlimit="10"/>
<path d="M35.5003 24.3301H20.1104" stroke="#333333" stroke-width="1.5" stroke-miterlimit="10"/>
<path d="M33.5604 27.96H20.1104" stroke="#333333" stroke-width="1.5" stroke-miterlimit="10"/>
<path d="M44.76 39.4C44.1411 38.9751 43.4107 38.7421 42.66 38.73C40.25 38.73 38.29 41.06 38.29 43.94C38.29 46.82 40.29 49.15 42.66 49.15C43.4107 49.1379 44.1411 48.9048 44.76 48.48" stroke="#333333" stroke-width="1.5" stroke-miterlimit="10"/>
<path d="M35.8496 42.4702H43.1596" stroke="#333333" stroke-width="1.5" stroke-miterlimit="10"/>
<path d="M35.8496 45.4102H42.5896" stroke="#333333" stroke-width="1.5" stroke-miterlimit="10"/>
<path d="M41.54 53.7699C46.9689 53.7699 51.37 49.3688 51.37 43.9399C51.37 38.5109 46.9689 34.1099 41.54 34.1099C36.111 34.1099 31.71 38.5109 31.71 43.9399C31.71 49.3688 36.111 53.7699 41.54 53.7699Z" stroke="#333333" stroke-width="1.5" stroke-miterlimit="10"/>
</svg>
