<svg width="54" height="60" viewBox="0 0 53 60" fill="none"
  xmlns="http://www.w3.org/2000/svg">
  <path d="M16.3664 6.67419H10.8496V8.65271H16.3664V6.67419Z" fill="#333333"/>
  <path d="M16.3664 37.0906H10.8496V39.0691H16.3664V37.0906Z" fill="#333333"/>
  <path d="M31.1613 18.598H10.8496V20.5765H31.1613V18.598Z" fill="#333333"/>
  <path d="M28.6141 23.3727H10.8496V25.3512H28.6141V23.3727Z" fill="#333333"/>
  <path d="M40.624 53.3011C41.8077 53.293 42.9617 52.9299 43.9367 52.259L42.8413 50.6103C42.1903 51.0645 41.4178 51.3126 40.624 51.3225C39.7274 51.2794 38.8623 50.979 38.1321 50.4574C37.4018 49.9358 36.8374 49.2149 36.5062 48.3812H40.5316V46.4026H35.9123C35.8067 45.7695 35.8067 45.1232 35.9123 44.4901H41.2839V42.5116H36.5062C36.8374 41.6778 37.4018 40.957 38.1321 40.4353C38.8623 39.9137 39.7274 39.6133 40.624 39.5702C41.4178 39.5801 42.1903 39.8282 42.8413 40.2825L43.9367 38.6337C42.9617 37.9628 41.8077 37.5998 40.624 37.5917C39.1897 37.6494 37.8096 38.1551 36.678 39.0376C35.5463 39.9202 34.72 41.1352 34.3154 42.5116H31.6758V44.4901H33.9194C33.8314 45.1246 33.8314 45.7682 33.9194 46.4026H31.6758V48.3812H34.3154C34.72 49.7576 35.5463 50.9725 36.678 51.8551C37.8096 52.7377 39.1897 53.2434 40.624 53.3011V53.3011Z" fill="#333333"/>
  <path d="M39.1452 59.3553C42.7725 59.2439 46.2139 57.7254 48.7402 55.1217C51.2666 52.518 52.6794 49.0337 52.6794 45.4068C52.6794 41.78 51.2666 38.2956 48.7402 35.6919C46.2139 33.0883 42.7725 31.5698 39.1452 31.4583C38.6833 31.4583 38.2477 31.4583 37.8254 31.5243V11.8711L25.9472 0H6.04467V6.66099H0V52.9054H27.3594C28.6226 54.8844 30.3648 56.5129 32.4249 57.6404C34.4851 58.7678 36.7964 59.3576 39.1452 59.3553V59.3553ZM51.1158 45.4002C51.1184 47.7701 50.4174 50.0875 49.1016 52.059C47.7858 54.0306 45.9144 55.5677 43.7241 56.4758C41.5338 57.3839 39.1232 57.6222 36.7973 57.1605C34.4715 56.6988 32.335 55.5579 30.6582 53.8822C28.9814 52.2064 27.8398 50.0712 27.3779 47.7467C26.9159 45.4222 27.1543 43.0131 28.063 40.8241C28.9716 38.6351 30.5097 36.7648 32.4824 35.4498C34.4551 34.1348 36.7739 33.4342 39.1452 33.4368C40.72 33.4386 42.2791 33.7505 43.7332 34.3548C45.1874 34.9591 46.5081 35.8439 47.6198 36.9587C48.7315 38.0734 49.6125 39.3963 50.2124 40.8515C50.8123 42.3068 51.1192 43.8659 51.1158 45.4398V45.4002ZM26.5147 3.37666L34.4335 11.2907H26.5147V3.37666ZM8.02437 1.97851H24.535V13.256H35.8193V31.9068C32.9895 32.6044 30.4493 34.1703 28.5556 36.3846C26.6619 38.5989 25.5098 41.3504 25.2609 44.2527H8.10356L8.02437 1.97851ZM1.9797 50.9269V8.6395H6.04467V46.2312H25.2213C25.3056 47.8475 25.6718 49.4366 26.3036 50.9269H1.9797Z" fill="#333333"/>
</svg>
