<svg width="59" height="60" viewBox="0 0 59 60" fill="none"
  xmlns="http://www.w3.org/2000/svg">
  <path d="M50.7608 0H31.4912C29.441 0.0035046 27.4758 0.822971 26.0261 2.27887C24.5765 3.73477 23.7605 5.70838 23.757 7.76733V15.9058C23.2015 16.0416 22.665 16.2464 22.16 16.5155C21.162 15.4387 19.9427 14.5928 18.5866 14.0367C17.2306 13.4805 15.7702 13.2273 14.307 13.2946C9.14644 13.4271 4.93617 17.271 4.93617 22.003C4.95503 22.8559 5.17113 23.6926 5.56741 24.4472C5.96369 25.2017 6.52928 25.8534 7.21949 26.3506C7.18083 26.5788 7.15439 26.8089 7.1403 27.0399V39.897C7.12832 42.2078 7.80392 44.4694 9.08045 46.3919C6.5607 46.7911 4.2642 48.0766 2.60091 50.0189C0.937617 51.9612 0.0157955 54.434 0 56.9958L0 59.4082H37.4569V56.9958C37.4411 54.434 36.5192 51.9612 34.8559 50.0189C33.1927 48.0766 30.8962 46.7911 28.3764 46.3919C29.6729 44.4767 30.3629 42.2129 30.3562 39.897V34.2107C30.7451 34.2685 31.1376 34.2995 31.5308 34.3035H38.13C38.063 35.1591 37.8392 35.9949 37.4701 36.7689C37.198 37.3914 36.8131 37.9577 36.335 38.439C35.9749 38.8056 35.5163 39.0589 35.0152 39.168C34.4859 39.2503 34.0033 39.52 33.6548 39.9284C33.3062 40.3368 33.1146 40.8569 33.1146 41.3948C33.1146 41.9327 33.3062 42.4529 33.6548 42.8613C34.0033 43.2697 34.4859 43.5394 35.0152 43.6217C35.3513 43.675 35.6911 43.7016 36.0314 43.7012C37.1979 43.6883 38.3472 43.4167 39.397 42.9059C40.6418 42.3004 41.7614 41.4639 42.6966 40.4405C44.3143 38.7394 45.4688 36.6487 46.049 34.3698H50.7872C51.8079 34.3646 52.8176 34.1569 53.7582 33.7586C54.6988 33.3602 55.5517 32.7792 56.268 32.0488C56.9842 31.3184 57.5497 30.453 57.9319 29.5024C58.3141 28.5518 58.5054 27.5348 58.495 26.5097V7.76733C58.4915 5.70838 57.6755 3.73477 56.2258 2.27887C54.7761 0.822971 52.8109 0.0035046 50.7608 0V0ZM14.3598 15.3226C15.6513 15.2668 16.9376 15.5202 18.1125 16.0618C19.2874 16.6033 20.3173 17.4176 21.1173 18.4375L21.6849 19.2195L22.49 18.6628C23.4033 18.024 24.4917 17.6859 25.6048 17.6952C26.9678 17.6944 28.2764 18.2325 29.2475 19.193C29.6452 19.5559 29.9668 19.9949 30.1934 20.4843C30.4201 20.9736 30.5472 21.5035 30.5673 22.0428C30.5673 24.1503 28.4952 25.8734 25.9479 25.8734H11.5485C9.00126 25.8734 6.91592 24.1503 6.91592 22.0428C6.91592 18.4375 10.2551 15.4286 14.3598 15.3226ZM11.5485 27.8351H25.9215C26.7447 27.8323 27.5615 27.6889 28.3368 27.411V39.8705C28.3368 42.4297 27.3245 44.8841 25.5226 46.6938C23.7207 48.5034 21.2767 49.5201 18.7284 49.5201C16.1801 49.5201 13.7362 48.5034 11.9343 46.6938C10.1324 44.8841 9.12004 42.4297 9.12004 39.8705V27.4375C9.90143 27.7066 10.7225 27.8411 11.5485 27.8351ZM35.4771 56.9958V57.4199H1.97975V56.9958C1.97917 54.6921 2.87665 52.4797 4.48006 50.8323C6.08346 49.1848 8.26537 48.2333 10.5587 48.1813C12.7231 50.3312 15.6446 51.537 18.6888 51.537C21.7331 51.537 24.6545 50.3312 26.819 48.1813C29.1261 48.2127 31.3282 49.1552 32.9486 50.8048C34.5689 52.4545 35.4773 54.6786 35.4771 56.9958ZM56.5152 26.5097C56.5152 28.0424 55.909 29.5123 54.8298 30.5961C53.7506 31.6799 52.2869 32.2888 50.7608 32.2888H44.386L44.2408 33.1106C43.8309 35.3251 42.7848 37.3708 41.2316 38.9957C40.477 39.822 39.5834 40.5084 38.5919 41.0237C37.5905 41.5196 36.4659 41.7086 35.3583 41.5672C35.2954 41.5576 35.238 41.5255 35.1968 41.4767C35.1555 41.428 35.1332 41.366 35.1339 41.3021C35.1332 41.2381 35.1555 41.1761 35.1968 41.1274C35.238 41.0787 35.2954 41.0465 35.3583 41.037C36.2451 40.854 37.0581 40.4112 37.6944 39.7645C38.3394 39.1376 38.8629 38.3961 39.2386 37.5775C39.9176 36.2027 40.201 34.6648 40.0569 33.1371L39.9513 32.2623H31.4912C31.0966 32.2626 30.7031 32.2226 30.3166 32.143V27.0796C30.3301 26.8457 30.3301 26.6111 30.3166 26.3771C30.9965 25.8728 31.5523 25.2188 31.9413 24.4651C32.3302 23.7114 32.542 22.8782 32.5603 22.0295C32.5457 21.2352 32.3749 20.4515 32.0578 19.7236C31.7407 18.9957 31.2835 18.3379 30.7125 17.788C29.3927 16.4858 27.6262 15.7411 25.7763 15.707V7.75408C25.7832 6.23159 26.3867 4.77303 27.4562 3.69397C28.5257 2.61492 29.9753 2.00215 31.4912 1.98822H50.7608C52.2869 1.98822 53.7506 2.59709 54.8298 3.68089C55.909 4.76468 56.5152 6.23462 56.5152 7.76733V26.5097Z" fill="#333333"/>
  <path d="M16.3792 31.7585H14.3994V37.869H16.3792V31.7585Z" fill="#333333"/>
  <path d="M23.0588 31.7585H21.0791V37.869H23.0588V31.7585Z" fill="#333333"/>
  <path d="M42.0784 21.3799H40.0986V26.2312H42.0784V21.3799Z" fill="#333333"/>
  <path d="M42.0784 7.78064H40.0986V18.1857H42.0784V7.78064Z" fill="#333333"/>
</svg>
