<svg width="64" height="64" viewBox="0 0 64 64" fill="none" xmlns="http://www.w3.org/2000/svg">
<path d="M29.9049 45.1848H30.0949C32.0575 45.1848 33.9398 45.9645 35.3275 47.3522C36.7153 48.74 37.4949 50.6222 37.4949 52.5848V53.6548H10.5649V52.5848C10.5649 50.6222 11.3446 48.74 12.7324 47.3522C14.1201 45.9645 16.0023 45.1848 17.9649 45.1848H18.1549" stroke="#333333" stroke-width="1.5" stroke-miterlimit="10"/>
<path d="M32.0347 34.455C32.5637 34.6312 33.1172 34.7223 33.6747 34.725H39.4247C39.5208 35.7307 39.341 36.7437 38.9047 37.655C38.6578 38.1866 38.3193 38.6706 37.9047 39.085C37.5145 39.4661 37.0206 39.7235 36.4847 39.825C36.2882 39.893 36.1178 40.0205 35.9972 40.1899C35.8766 40.3593 35.8118 40.562 35.8118 40.77C35.8118 40.9779 35.8766 41.1807 35.9972 41.35C36.1178 41.5194 36.2882 41.647 36.4847 41.715C36.7011 41.7302 36.9183 41.7302 37.1347 41.715C37.9083 41.7074 38.6704 41.5263 39.3647 41.185C40.2223 40.7668 40.9952 40.1938 41.6447 39.495C42.9186 38.1609 43.7798 36.4871 44.1247 34.675H48.3247C49.6783 34.6697 50.975 34.1296 51.9322 33.1725C52.8894 32.2153 53.4294 30.9186 53.4347 29.565V15.445C53.4294 14.0923 52.889 12.7966 51.9316 11.841C50.9741 10.8855 49.6774 10.3476 48.3247 10.345H33.6747C32.3229 10.3476 31.0272 10.8858 30.0714 11.8416C29.1155 12.7975 28.5773 14.0932 28.5747 15.445V22.235" stroke="#333333" stroke-width="1.5" stroke-miterlimit="10"/>
<path d="M31.9045 29.1648C31.9681 29.4437 32.0017 29.7287 32.0045 30.0148V39.6948C32.0045 41.8165 31.1617 43.8514 29.6614 45.3516C28.1611 46.8519 26.1262 47.6948 24.0045 47.6948C21.8828 47.6948 19.8479 46.8519 18.3477 45.3516C16.8474 43.8514 16.0045 41.8165 16.0045 39.6948V30.0148C16.0025 29.7631 16.026 29.5118 16.0745 29.2648" stroke="#333333" stroke-width="1.5" stroke-miterlimit="10"/>
<path d="M21.4849 38.1652V33.5452" stroke="#333333" stroke-width="1.5" stroke-miterlimit="10"/>
<path d="M26.5444 38.1652V33.5452" stroke="#333333" stroke-width="1.5" stroke-miterlimit="10"/>
<path d="M40.9546 29.3751V25.7151" stroke="#333333" stroke-width="1.5" stroke-miterlimit="10"/>
<path d="M40.9546 23.3048V15.4548" stroke="#333333" stroke-width="1.5" stroke-miterlimit="10"/>
<path d="M20.6749 20.4048C21.7773 20.3514 22.8763 20.5643 23.8789 21.0256C24.8816 21.4868 25.7583 22.1829 26.4349 23.0548C27.2582 22.487 28.2349 22.1835 29.2349 22.1848C30.351 22.1504 31.4376 22.5465 32.2696 23.2911C33.1017 24.0357 33.6156 25.0718 33.7049 26.1848V26.1848C33.7049 28.1848 31.8049 29.8148 29.4549 29.8148H18.5649C16.2149 29.8148 14.3149 28.1848 14.3149 26.1848C14.3149 23.1548 17.0949 20.4948 20.6749 20.4048Z" stroke="#333333" stroke-width="1.5" stroke-miterlimit="10"/>
</svg>
