<svg width="60" height="59" viewBox="0 0 60 59" fill="none"
  xmlns="http://www.w3.org/2000/svg">
  <path d="M16.6431 50.3405C17.5062 49.1263 17.9621 47.662 17.9433 46.1641V41.0891C17.8673 39.4512 17.179 37.9045 16.0192 36.7649C14.8593 35.6252 13.3152 34.9785 11.7021 34.9568H10.4019C8.77532 34.9583 7.21169 35.5961 6.03519 36.7378C4.8587 37.8795 4.15957 39.4376 4.08275 41.0891V46.1641C4.08918 47.6684 4.56743 49.1314 5.448 50.3405C3.89011 50.7571 2.51132 51.6853 1.52606 52.9807C0.540808 54.2762 0.00430836 55.8663 0 57.5037L0 58.4949H22.1041V57.5037C22.1012 55.8639 21.5637 54.2714 20.5755 52.9753C19.5874 51.6792 18.2045 50.7526 16.6431 50.3405ZM5.9941 42.5693V41.3799C6.01461 40.2078 6.48887 39.0913 7.31402 38.2723C8.13917 37.4534 9.24868 36.9982 10.4019 37.0053H11.7021C12.8598 37.0088 13.969 37.4778 14.7876 38.3098C15.6061 39.1418 16.0675 40.2693 16.071 41.446V46.2302C16.071 47.5867 15.5408 48.8877 14.5971 49.8468C13.6535 50.806 12.3736 51.3449 11.039 51.3449C9.70448 51.3449 8.42459 50.806 7.48092 49.8468C6.53725 48.8877 6.0071 47.5867 6.0071 46.2302L5.9941 42.5693ZM2.09338 56.5124C2.31698 55.297 2.94092 54.1951 3.86255 53.388C4.78418 52.5809 5.94862 52.1168 7.16432 52.0718C8.30765 52.8474 9.65143 53.2614 11.026 53.2614C12.4006 53.2614 13.7444 52.8474 14.8877 52.0718C16.1253 52.0894 17.319 52.5409 18.2667 53.3501C19.2144 54.1593 19.858 55.2764 20.0887 56.5124H2.09338Z" fill="#333333"/>
  <path d="M18.5537 22.5469V23.5381H40.6578V22.5469C40.6558 20.9147 40.1249 19.3286 39.1472 18.0339C38.1695 16.7391 36.7994 15.8077 35.2488 15.3837C36.1087 14.1678 36.5642 12.7047 36.549 11.2074V6.13233C36.4723 4.4831 35.775 2.92691 34.6013 1.78555C33.4276 0.644183 31.8672 0.00493854 30.2429 0L28.9426 0C27.316 0.00155009 25.7524 0.639287 24.5759 1.781C23.3994 2.92271 22.7003 4.48083 22.6235 6.13233V11.2074C22.6083 12.7047 23.0638 14.1678 23.9237 15.3837C22.3803 15.815 21.019 16.7496 20.0488 18.0437C19.0787 19.3378 18.5534 20.9199 18.5537 22.5469ZM24.5608 7.61254V6.42308C24.5642 5.24642 25.0256 4.11895 25.8442 3.28692C26.6628 2.45489 27.772 1.98592 28.9296 1.98243H30.2299C31.3885 1.98243 32.4998 2.45029 33.3191 3.28307C34.1384 4.11585 34.5987 5.24535 34.5987 6.42308V11.2074C34.6333 11.9 34.5291 12.5926 34.2922 13.243C34.0553 13.8934 33.6907 14.4881 33.2206 14.9908C32.7506 15.4935 32.1848 15.8938 31.5578 16.1674C30.9308 16.4409 30.2556 16.5819 29.5732 16.5819C28.8909 16.5819 28.2157 16.4409 27.5887 16.1674C26.9616 15.8938 26.3959 15.4935 25.9258 14.9908C25.4558 14.4881 25.0912 13.8934 24.8543 13.243C24.6174 12.5926 24.5131 11.9 24.5478 11.2074L24.5608 7.61254ZM25.731 17.115C26.8717 17.8912 28.2135 18.3055 29.5862 18.3055C30.9589 18.3055 32.3007 17.8912 33.4414 17.115C34.679 17.1326 35.8727 17.5841 36.8204 18.3933C37.7681 19.2025 38.4118 20.3196 38.6424 21.5557H20.5951C20.8365 20.3427 21.4762 19.2491 22.4094 18.4542C23.3426 17.6594 24.5139 17.2105 25.731 17.1811V17.115Z" fill="#333333"/>
  <path d="M53.9863 50.3405C54.8446 49.1238 55.2999 47.6612 55.2866 46.1641V41.0891C55.2098 39.4376 54.5106 37.8795 53.3341 36.7378C52.1576 35.5961 50.594 34.9583 48.9674 34.9568H47.6672C46.0406 34.9583 44.477 35.5961 43.3005 36.7378C42.124 37.8795 41.4248 39.4376 41.348 41.0891V46.1641C41.3347 47.6612 41.79 49.1238 42.6483 50.3405C41.0976 50.7645 39.7275 51.6959 38.7499 52.9906C37.7722 54.2854 37.2413 55.8715 37.2393 57.5037V58.4949H59.3433V57.5037C59.3444 55.8784 58.821 54.2976 57.8534 53.0037C56.8858 51.7098 55.5273 50.7743 53.9863 50.3405ZM43.3374 42.5693V41.3799C43.3545 40.2136 43.8223 39.101 44.6397 38.2825C45.4572 37.4639 46.5587 37.0052 47.7062 37.0053H49.0064C50.164 37.0088 51.2733 37.4778 52.0918 38.3098C52.9104 39.1418 53.3718 40.2693 53.3752 41.446V46.2302C53.4099 46.9229 53.3056 47.6155 53.0687 48.2659C52.8318 48.9163 52.4673 49.5109 51.9972 50.0137C51.5271 50.5164 50.9614 50.9167 50.3344 51.1902C49.7073 51.4638 49.0321 51.6048 48.3498 51.6048C47.6675 51.6048 46.9923 51.4638 46.3652 51.1902C45.7382 50.9167 45.1725 50.5164 44.7024 50.0137C44.2323 49.5109 43.8678 48.9163 43.6309 48.2659C43.394 47.6155 43.2897 46.9229 43.3244 46.2302L43.3374 42.5693ZM39.4367 56.5124C39.665 55.2873 40.2991 54.1785 41.2335 53.3706C42.1679 52.5627 43.3463 52.1044 44.5726 52.0718C45.7133 52.848 47.0551 53.2623 48.4278 53.2623C49.8005 53.2623 51.1423 52.848 52.283 52.0718C53.5206 52.0894 54.7143 52.5409 55.662 53.3501C56.6097 54.1593 57.2533 55.2764 57.484 56.5124H39.4367Z" fill="#333333"/>
  <path d="M37.043 43.1113H22.1162V45.0937H37.043V43.1113Z" fill="#333333"/>
  <path d="M18.0018 26.9115L15.1689 32.9619L16.93 33.8138L19.7629 27.7633L18.0018 26.9115Z" fill="#333333"/>
  <path d="M41.1752 26.9064L39.4141 27.7583L42.2469 33.8087L44.008 32.9568L41.1752 26.9064Z" fill="#333333"/>
</svg>
