<svg width="63" height="57" viewBox="0 0 63 57" fill="none"
  xmlns="http://www.w3.org/2000/svg">
  <path d="M62.9946 55.2933L55.9499 48.2048C57.247 46.4551 58.0834 44.4038 58.3814 42.2416C58.6793 40.0794 58.4291 37.8765 57.654 35.8377C56.879 33.7989 55.6042 31.9904 53.9482 30.5803C52.2923 29.1702 50.3089 28.2042 48.1824 27.7723V14.2432C48.1789 12.1889 47.3664 10.2198 45.9227 8.76715C44.4791 7.31454 42.5222 6.49692 40.4806 6.49342H39.5868C39.351 4.69713 38.4745 3.04826 37.1206 1.85374C35.7666 0.659215 34.0274 0.000426589 32.2267 0L15.9557 0C14.1543 0.00282453 12.4149 0.662133 11.0593 1.85592C9.70377 3.04971 8.82386 4.69716 8.58241 6.49342H7.68868C5.64938 6.50041 3.69578 7.31957 2.25499 8.7718C0.814212 10.224 0.0034623 12.1912 0 14.2432L0 34.3847C0.0034623 36.4367 0.814212 38.4039 2.25499 39.8561C3.69578 41.3084 5.64938 42.1275 7.68868 42.1345H32.8576C33.1653 44.5267 34.1303 46.7851 35.6441 48.6555C37.1579 50.5258 39.1605 51.934 41.4263 52.7214C43.6922 53.5089 46.1316 53.6445 48.4699 53.1129C50.8081 52.5813 52.9526 51.4036 54.6619 49.7124L61.6146 56.6951L62.9946 55.2933ZM34.6976 40.455C34.689 38.6962 35.1016 36.9613 35.9004 35.3969C36.6991 33.8326 37.8606 32.4848 39.2866 31.4677C40.7125 30.4507 42.361 29.7941 44.0924 29.5537C45.8239 29.3133 47.5874 29.4961 49.2338 30.0866V38.1671C49.2304 39.694 48.6251 41.1572 47.5508 42.2357C46.4765 43.3142 45.021 43.9199 43.5035 43.9199H35.2628C34.8922 42.8026 34.7014 41.6329 34.6976 40.455ZM15.9557 1.98373H32.2267C33.5054 1.9843 34.7434 2.4358 35.7256 3.25973C36.7077 4.08365 37.3717 5.22787 37.6022 6.49342H10.5144C10.7518 5.21897 11.4268 4.06901 12.4214 3.24465C13.4161 2.42028 14.6671 1.97396 15.9557 1.98373ZM7.68868 8.47716H40.5463C42.065 8.48065 43.5205 9.08927 44.5944 10.1699C45.6683 11.2504 46.2732 12.715 46.2766 14.2432V20.0357H39.0217V17.0337H32.7262V20.0357H15.1014V17.0337H8.80584V20.0357H1.97146V14.2432C1.97145 12.7163 2.57338 11.2516 3.64519 10.1707C4.717 9.0897 6.17117 8.48066 7.68868 8.47716ZM37.0502 19.0571V24.5322C37.0677 24.6981 37.0503 24.8659 36.9991 25.0247C36.948 25.1834 36.8642 25.3295 36.7533 25.4536C36.6423 25.5776 36.5067 25.6768 36.3553 25.7447C36.2038 25.8126 36.0398 25.8477 35.8739 25.8477C35.7081 25.8477 35.5441 25.8126 35.3926 25.7447C35.2411 25.6768 35.1055 25.5776 34.9946 25.4536C34.8837 25.3295 34.7999 25.1834 34.7488 25.0247C34.6976 24.8659 34.6802 24.6981 34.6976 24.5322V19.0174L37.0502 19.0571ZM13.1299 19.0571V24.5322C13.1474 24.6981 13.1299 24.8659 13.0788 25.0247C13.0276 25.1834 12.9439 25.3295 12.8329 25.4536C12.722 25.5776 12.5864 25.6768 12.4349 25.7447C12.2834 25.8126 12.1194 25.8477 11.9536 25.8477C11.7878 25.8477 11.6238 25.8126 11.4723 25.7447C11.3208 25.6768 11.1852 25.5776 11.0743 25.4536C10.9633 25.3295 10.8796 25.1834 10.8284 25.0247C10.7773 24.8659 10.7598 24.6981 10.7773 24.5322V19.0174L13.1299 19.0571ZM1.97146 34.3847V22.0195H8.80584V24.4925C8.77801 24.9257 8.83877 25.36 8.98436 25.7686C9.12996 26.1771 9.3573 26.5513 9.65232 26.868C9.94735 27.1847 10.3038 27.4371 10.6996 27.6097C11.0954 27.7822 11.5222 27.8713 11.9536 27.8713C12.385 27.8713 12.8118 27.7822 13.2076 27.6097C13.6034 27.4371 13.9598 27.1847 14.2549 26.868C14.5499 26.5513 14.7772 26.1771 14.9228 25.7686C15.0684 25.36 15.1292 24.9257 15.1014 24.4925V22.0195H32.7262V24.4925C32.6983 24.9257 32.7591 25.36 32.9047 25.7686C33.0503 26.1771 33.2776 26.5513 33.5727 26.868C33.8677 27.1847 34.2241 27.4371 34.6199 27.6097C35.0158 27.7822 35.4426 27.8713 35.8739 27.8713C36.3053 27.8713 36.7321 27.7822 37.1279 27.6097C37.5237 27.4371 37.8802 27.1847 38.1752 26.868C38.4702 26.5513 38.6976 26.1771 38.8432 25.7686C38.9888 25.36 39.0495 24.9257 39.0217 24.4925V22.0195H46.2109V27.4946H45.6326C42.2647 27.5005 39.0321 28.8295 36.6237 31.1985C34.2153 33.5676 32.8215 36.7893 32.7393 40.1772H7.68868C6.93505 40.1755 6.18916 40.0242 5.49371 39.732C4.79827 39.4398 4.16695 39.0124 3.63588 38.4744C3.10482 37.9363 2.68444 37.2981 2.39884 36.5964C2.11323 35.8946 1.968 35.1431 1.97146 34.3847ZM45.6326 51.4449C43.7063 51.4429 41.8145 50.9296 40.1484 49.9566C38.4823 48.9837 37.1008 47.5856 36.1434 45.9036H43.5035C44.5182 45.9106 45.5243 45.7157 46.4639 45.3302C47.4036 44.9447 48.2583 44.3761 48.9788 43.6572C49.6994 42.9383 50.2717 42.0832 50.6628 41.141C51.0539 40.1988 51.2562 39.1881 51.2579 38.1671V31.0124C53.3156 32.2453 54.9135 34.1246 55.8057 36.3609C56.6979 38.5972 56.8348 41.0666 56.1955 43.389C55.5561 45.7113 54.1759 47.7578 52.2673 49.2134C50.3587 50.6691 48.0275 51.4531 45.6326 51.4449Z" fill="#333333"/>
  <path d="M44.4765 33.0624C43.6423 33.0589 42.8157 33.2212 42.0441 33.54C41.2725 33.8588 40.571 34.3277 39.98 34.92C39.3889 35.5123 38.92 36.2162 38.6 36.9913C38.28 37.7664 38.1152 38.5974 38.1152 39.4368H40.0867C40.0867 38.8619 40.1992 38.2927 40.4178 37.7616C40.6365 37.2305 40.9569 36.7479 41.3609 36.3415C41.7648 35.935 42.2444 35.6125 42.7722 35.3925C43.3 35.1726 43.8657 35.0593 44.437 35.0593L44.4765 33.0624Z" fill="#333333"/>
  <path d="M27.1136 13.0133H21.0547V14.997H27.1136V13.0133Z" fill="#333333"/>
</svg>
