<svg width="64" height="64" viewBox="0 0 64 64" fill="none" xmlns="http://www.w3.org/2000/svg">
<path d="M46.1348 32.6702V39.3402C46.1217 40.6903 45.5768 41.9808 44.6183 42.9318C43.6598 43.8828 42.3651 44.4176 41.0148 44.4202H34.2148" stroke="#333333" stroke-width="1.5" stroke-miterlimit="10"/>
<path d="M33.5748 41.5599H13.7748C12.4238 41.5546 11.1297 41.0156 10.1744 40.0603C9.21908 39.105 8.68007 37.8109 8.6748 36.4599V21.2199C8.67745 19.8681 9.21562 18.5724 10.1715 17.6165C11.1273 16.6607 12.423 16.1225 13.7748 16.1199H38.7748C40.1275 16.1225 41.4242 16.6604 42.3817 17.6159C43.3391 18.5715 43.8795 19.8672 43.8848 21.2199V32.0599" stroke="#333333" stroke-width="1.5" stroke-miterlimit="10"/>
<path d="M15.3743 24.0901H18.6643V28.9801C18.6616 29.416 18.4866 29.8331 18.1775 30.1404C17.8683 30.4476 17.4501 30.6201 17.0143 30.6201V30.6201C16.5767 30.6201 16.157 30.4462 15.8475 30.1368C15.5381 29.8274 15.3643 29.4077 15.3643 28.9701V24.0901H15.3743Z" stroke="#333333" stroke-width="1.5" stroke-miterlimit="10"/>
<path d="M33.5745 24.0901H36.8645V28.9801C36.8645 29.4177 36.6906 29.8374 36.3812 30.1468C36.0717 30.4562 35.6521 30.6301 35.2145 30.6301C34.7768 30.6301 34.3572 30.4562 34.0477 30.1468C33.7383 29.8374 33.5645 29.4177 33.5645 28.9801V24.0901H33.5745Z" stroke="#333333" stroke-width="1.5" stroke-miterlimit="10"/>
<path d="M36.8643 26.3601H43.8343" stroke="#333333" stroke-width="1.5" stroke-miterlimit="10"/>
<path d="M18.665 26.3601H33.575" stroke="#333333" stroke-width="1.5" stroke-miterlimit="10"/>
<path d="M8.6748 26.3601H15.3748" stroke="#333333" stroke-width="1.5" stroke-miterlimit="10"/>
<path d="M20.0145 11.2H32.4445C33.0893 11.2 33.7278 11.327 34.3235 11.5737C34.9192 11.8205 35.4605 12.1821 35.9164 12.6381C36.3724 13.094 36.734 13.6353 36.9808 14.231C37.2275 14.8267 37.3545 15.4652 37.3545 16.11H15.1445C15.1445 14.8146 15.6563 13.5718 16.5685 12.6521C17.4806 11.7325 18.7193 11.2105 20.0145 11.2V11.2Z" stroke="#333333" stroke-width="1.5" stroke-miterlimit="10"/>
<path d="M42.6442 50.11C47.6534 50.11 51.7142 46.0492 51.7142 41.04C51.7142 36.0307 47.6534 31.97 42.6442 31.97C37.635 31.97 33.5742 36.0307 33.5742 41.04C33.5742 46.0492 37.635 50.11 42.6442 50.11Z" stroke="#333333" stroke-width="1.5" stroke-miterlimit="10"/>
<path d="M49.4951 46.97L55.3251 52.8" stroke="#333333" stroke-width="1.5" stroke-miterlimit="10"/>
<path d="M37.7051 40.2702C37.7051 39.737 37.8101 39.2091 38.0141 38.7165C38.2182 38.2239 38.5172 37.7764 38.8942 37.3994C39.2712 37.0223 39.7188 36.7233 40.2114 36.5193C40.704 36.3152 41.2319 36.2102 41.7651 36.2102" stroke="#333333" stroke-width="1.5" stroke-miterlimit="10"/>
<path d="M23.9443 21.05H28.5543" stroke="#333333" stroke-width="1.5" stroke-miterlimit="10"/>
</svg>
