<svg width="68" height="48" viewBox="0 0 68 48" fill="none"
  xmlns="http://www.w3.org/2000/svg">
  <path d="M13.6622 18.0663H11.7051V23.3775H13.6622V18.0663Z" fill="#333333"/>
  <path d="M24.2042 18.0663H22.2471V23.3775H24.2042V18.0663Z" fill="#333333"/>
  <path d="M34.7325 18.0663H32.7754V23.3775H34.7325V18.0663Z" fill="#333333"/>
  <path d="M45.2755 18.0663H43.3184V23.3775H45.2755V18.0663Z" fill="#333333"/>
  <path d="M55.8175 18.0663H53.8604V23.3775H55.8175V18.0663Z" fill="#333333"/>
  <path d="M13.6622 27.3049H11.7051V32.6162H13.6622V27.3049Z" fill="#333333"/>
  <path d="M55.8175 27.3049H53.8604V32.6162H55.8175V27.3049Z" fill="#333333"/>
  <path d="M13.6622 36.5305H11.7051V41.8418H13.6622V36.5305Z" fill="#333333"/>
  <path d="M55.8175 36.5305H53.8604V41.8418H55.8175V36.5305Z" fill="#333333"/>
  <path d="M46.3062 47.6796H63.6592C63.9187 47.6796 64.1676 47.5755 64.3512 47.3901C64.5347 47.2047 64.6378 46.9533 64.6378 46.6912V12.9521H66.5557C66.724 12.9514 66.8892 12.9068 67.0354 12.8228C67.1816 12.7387 67.3039 12.618 67.3905 12.4723C67.4771 12.3265 67.525 12.1607 67.5296 11.9908C67.5342 11.8209 67.4954 11.6527 67.4169 11.5024L63.9463 5.03138C63.8635 4.87293 63.7396 4.74018 63.588 4.64733C63.4363 4.55447 63.2625 4.505 63.0851 4.50421H38.9605L34.433 0.247292C34.2523 0.087859 34.0206 0 33.7807 0C33.5407 0 33.309 0.087859 33.1283 0.247292L28.5617 4.50421H4.38486C4.2075 4.505 4.03369 4.55447 3.88202 4.64733C3.73034 4.74018 3.6065 4.87293 3.52373 5.03138L0.131407 11.5024C0.0453674 11.6502 0 11.8186 0 11.9901C0 12.1615 0.0453674 12.3299 0.131407 12.4777C0.216687 12.6242 0.338887 12.7454 0.485566 12.8287C0.632245 12.912 0.798166 12.9546 0.96644 12.9521H2.88441V46.6912C2.88265 46.8215 2.90677 46.9508 2.95532 47.0715C3.00388 47.1922 3.07589 47.3019 3.16711 47.3941C3.25833 47.4862 3.3669 47.5589 3.48642 47.608C3.60594 47.657 3.73397 47.6814 3.86296 47.6796H46.3062ZM36.6641 31.5218V45.7027H30.5579V31.5218H36.6641ZM28.6008 45.7027H23.0948V31.5218H28.6008V45.7027ZM38.6212 45.7027V31.5218H44.3751V45.7027H38.6212ZM62.5371 6.4811L64.8987 10.9752H45.8495L41.0611 6.4811H62.5371ZM33.7546 2.31644L42.8877 10.9225H24.6214L33.7546 2.31644ZM5.05028 6.4811H26.4611L21.6727 10.9752H2.62346L5.05028 6.4811ZM4.84152 45.7027V12.9521H62.6415V45.7027H46.3062V29.5449H21.1377V45.7027H4.84152Z" fill="#333333"/>
</svg>
