<svg width="54" height="60" viewBox="0 0 54 60" fill="none"
  xmlns="http://www.w3.org/2000/svg">
  <path d="M5.52151 23.6466L0 30.2078L5.52151 36.7689H22.858V59.3949H29.7403V36.7689H50.6749V23.6466H29.7403V18.7026H47.5739L53.0955 12.1414L47.5739 5.58029H29.7403V3.48602C29.7403 2.56147 29.3777 1.67479 28.7324 1.02103C28.087 0.367276 27.2118 0 26.2991 0C25.3865 0 24.5112 0.367276 23.8659 1.02103C23.2205 1.67479 22.858 2.56147 22.858 3.48602V5.58029H2.43365V18.7026H22.858V23.6466H5.52151ZM27.7645 57.4067H24.8599V36.7689H27.8169L27.7645 57.4067ZM48.6992 34.7807H6.42431L2.61683 30.2078L6.46357 25.6348H48.6992V34.7807ZM24.8599 3.48602C24.8599 3.08878 25.0156 2.70781 25.2929 2.42692C25.5702 2.14603 25.9463 1.98822 26.3384 1.98822C26.7305 1.98822 27.1066 2.14603 27.3838 2.42692C27.6611 2.70781 27.8169 3.08878 27.8169 3.48602V5.58029H24.8599V3.48602ZM4.39627 7.56851H46.6711L50.5048 12.1414L46.6711 16.7143H4.39627V7.56851ZM24.8599 18.7026H27.8169V23.6466H24.8599V18.7026Z" fill="#333333"/>
  <path d="M13.2407 11.1473H7.77148V13.1355H13.2407V11.1473Z" fill="#333333"/>
  <path d="M36.1381 11.1473H30.6689V13.1355H36.1381V11.1473Z" fill="#333333"/>
  <path d="M43.7905 11.1473H38.3213V13.1355H43.7905V11.1473Z" fill="#333333"/>
  <path d="M15.5961 29.2136H10.127V31.2018H15.5961V29.2136Z" fill="#333333"/>
  <path d="M28.2355 11.1473H15.583V13.1355H28.2355V11.1473Z" fill="#333333"/>
  <path d="M44.9561 29.2136H32.3037V31.2018H44.9561V29.2136Z" fill="#333333"/>
  <path d="M30.1582 29.2136H17.5059V31.2018H30.1582V29.2136Z" fill="#333333"/>
</svg>
