<svg width="64" height="64" viewBox="0 0 64 64" fill="none" xmlns="http://www.w3.org/2000/svg">
<path d="M29.9292 28.1751V22.9551" stroke="#333333" stroke-width="1.5" stroke-miterlimit="10"/>
<path d="M33.6892 36.585V53.655H29.9292V36.585" stroke="#333333" stroke-width="1.5" stroke-miterlimit="10"/>
<path d="M33.689 22.9551V28.1751" stroke="#333333" stroke-width="1.5" stroke-miterlimit="10"/>
<path d="M29.9292 14.5552V12.2152C29.9318 11.7183 30.1311 11.2427 30.4834 10.8923C30.8356 10.5419 31.3123 10.3452 31.8092 10.3452V10.3452C32.3061 10.3452 32.7828 10.5419 33.135 10.8923C33.4873 11.2427 33.6866 11.7183 33.6892 12.2152V14.5552" stroke="#333333" stroke-width="1.5" stroke-miterlimit="10"/>
<path d="M47.7198 22.9552H14.3198V14.5552H47.7198L51.2998 18.7552L47.7198 22.9552Z" stroke="#333333" stroke-width="1.5" stroke-miterlimit="10"/>
<path d="M34.6897 36.5853H16.2797L12.6997 32.3753L16.2797 28.1753H34.6897H49.6797V36.5853H34.6897Z" stroke="#333333" stroke-width="1.5" stroke-miterlimit="10"/>
<path d="M21.8299 18.7554H17.6499" stroke="#333333" stroke-width="1.5" stroke-miterlimit="10"/>
<path d="M39.3299 18.7554H35.1499" stroke="#333333" stroke-width="1.5" stroke-miterlimit="10"/>
<path d="M45.1795 18.7554H40.9995" stroke="#333333" stroke-width="1.5" stroke-miterlimit="10"/>
<path d="M23.6197 32.375H19.4497" stroke="#333333" stroke-width="1.5" stroke-miterlimit="10"/>
<path d="M33.2996 18.7554H23.6196" stroke="#333333" stroke-width="1.5" stroke-miterlimit="10"/>
<path d="M46.0699 32.375H36.3999" stroke="#333333" stroke-width="1.5" stroke-miterlimit="10"/>
<path d="M34.7694 32.375H25.0894" stroke="#333333" stroke-width="1.5" stroke-miterlimit="10"/>
</svg>
