<svg width="25" height="24" viewBox="0 0 25 24" fill="none" xmlns="http://www.w3.org/2000/svg">
    <g clip-path="url(#clip0_403_1380)">
        <path d="M24.9164 7.05607C24.8602 5.78085 24.654 4.90416 24.3586 4.14449C24.0538 3.33812 23.585 2.61617 22.9707 2.01602C22.3706 1.40652 21.6439 0.932921 20.8468 0.632936C20.0828 0.337529 19.2107 0.131312 17.9354 0.0750879C16.6507 0.0141019 16.2428 0 12.9844 0C9.72595 0 9.3181 0.0141019 8.03812 0.0703262C6.76291 0.126551 5.88621 0.332951 5.12673 0.628174C4.32017 0.932922 3.59823 1.40176 2.99807 2.01602C2.38858 2.61617 1.91516 3.34288 1.61499 4.13991C1.31959 4.90416 1.11337 5.77609 1.05714 7.0513C0.996158 8.33604 0.982056 8.7439 0.982056 12.0023C0.982056 15.2608 0.996158 15.6686 1.05238 16.9486C1.10861 18.2238 1.31501 19.1005 1.61041 19.8602C1.91516 20.6666 2.38858 21.3885 2.99807 21.9887C3.59823 22.5982 4.32493 23.0718 5.12196 23.3718C5.88621 23.6672 6.75815 23.8734 8.03354 23.9296C9.31333 23.986 9.72137 23.9999 12.9798 23.9999C16.2383 23.9999 16.6461 23.986 17.9261 23.9296C19.2013 23.8734 20.078 23.6672 20.8375 23.3718C22.4504 22.7482 23.7256 21.4729 24.3492 19.8602C24.6445 19.096 24.8509 18.2238 24.9071 16.9486C24.9633 15.6686 24.9774 15.2608 24.9774 12.0023C24.9774 8.7439 24.9726 8.33604 24.9164 7.05607ZM22.7552 16.8549C22.7035 18.027 22.5066 18.6599 22.3426 19.0819C21.9393 20.1274 21.1095 20.9572 20.0639 21.3605C19.642 21.5246 19.0044 21.7215 17.8369 21.7729C16.571 21.8293 16.1914 21.8433 12.9892 21.8433C9.78694 21.8433 9.40252 21.8293 8.14123 21.7729C6.96913 21.7215 6.33619 21.5246 5.91423 21.3605C5.39393 21.1682 4.92033 20.8634 4.53591 20.4649C4.1374 20.0758 3.83265 19.6069 3.64035 19.0866C3.47626 18.6647 3.27938 18.027 3.22792 16.8596C3.17151 15.5937 3.15759 15.2139 3.15759 12.0117C3.15759 8.80946 3.17151 8.42505 3.22792 7.16394C3.27938 5.99183 3.47626 5.3589 3.64035 4.93694C3.83265 4.41645 4.1374 3.94303 4.54067 3.55843C4.92967 3.15992 5.39851 2.85517 5.91899 2.66306C6.34095 2.49896 6.97865 2.30209 8.14599 2.25044C9.41186 2.19422 9.7917 2.18011 12.9937 2.18011C16.2007 2.18011 16.5804 2.19422 17.8417 2.25044C19.0138 2.30209 19.6467 2.49896 20.0687 2.66306C20.589 2.85517 21.0626 3.15992 21.447 3.55843C21.8455 3.94761 22.1503 4.41645 22.3426 4.93694C22.5066 5.3589 22.7035 5.99641 22.7552 7.16394C22.8114 8.42981 22.8255 8.80946 22.8255 12.0117C22.8255 15.2139 22.8114 15.589 22.7552 16.8549Z" fill="currentColor"/>
        <path d="M12.9845 5.83716C9.5808 5.83716 6.81921 8.59856 6.81921 12.0024C6.81921 15.4063 9.5808 18.1677 12.9845 18.1677C16.3883 18.1677 19.1497 15.4063 19.1497 12.0024C19.1497 8.59856 16.3883 5.83716 12.9845 5.83716ZM12.9845 16.0017C10.7763 16.0017 8.98523 14.2107 8.98523 12.0024C8.98523 9.79411 10.7763 8.00317 12.9845 8.00317C15.1928 8.00317 16.9837 9.79411 16.9837 12.0024C16.9837 14.2107 15.1928 16.0017 12.9845 16.0017Z" fill="currentColor"/>
        <path d="M20.833 5.59336C20.833 6.38819 20.1885 7.03267 19.3935 7.03267C18.5987 7.03267 17.9542 6.38819 17.9542 5.59336C17.9542 4.79834 18.5987 4.15405 19.3935 4.15405C20.1885 4.15405 20.833 4.79834 20.833 5.59336Z" fill="currentColor"/>
    </g>
    <defs>
        <clipPath id="clip0_403_1380">
            <rect width="24" height="24" fill="white" transform="translate(0.939941)"/>
        </clipPath>
    </defs>
</svg>
