<svg width="24" height="24" viewBox="0 0 24 24" xmlns="http://www.w3.org/2000/svg">
  <path
    d="M18.75 0C21.6495 0 24 2.35051 24 5.25V18.75C24 21.6495 21.6495 24 18.75 24H5.25C2.35051 24 0 21.6495 0 18.75V5.25C0 2.35051 2.35051 0 5.25 0H18.75ZM12.4746 15.1904C12.4746 15.3637 12.4741 15.5349 12.4668 15.7041C12.4668 15.7251 12.4651 15.7449 12.4639 15.7676C12.4639 15.7768 12.4638 15.7863 12.4619 15.7959V15.8037C12.4267 16.267 12.278 16.715 12.0293 17.1074C11.7806 17.4996 11.4389 17.8243 11.0352 18.0537C10.6141 18.2933 10.1377 18.4196 9.65332 18.4189C8.0976 18.4188 6.83691 17.1497 6.83691 15.583C6.83707 14.0165 8.09769 12.7482 9.65332 12.748C9.9477 12.7478 10.2406 12.7936 10.5205 12.8848L10.5244 9.48535C9.67448 9.37563 8.81079 9.44299 7.98828 9.68359C7.16571 9.92428 6.40192 10.3332 5.74512 10.8838C5.16971 11.3838 4.6858 11.9802 4.31543 12.6465C4.17446 12.8895 3.64254 13.8662 3.57812 15.4512C3.53763 16.3507 3.8077 17.2827 3.93652 17.668V17.6758C4.01755 17.9026 4.33117 18.6775 4.84277 19.3301C5.25529 19.8535 5.74349 20.313 6.29004 20.6943V20.6865L6.29785 20.6943C7.91442 21.7928 9.70703 21.7207 9.70703 21.7207C10.0177 21.7082 11.0565 21.7202 12.2363 21.1611C13.5455 20.541 14.291 19.6172 14.291 19.6172C14.7672 19.0651 15.1463 18.4361 15.4111 17.7568C15.7133 16.9625 15.8135 16.0096 15.8135 15.6289V8.77832C15.8538 8.80252 16.389 9.15712 16.3936 9.16016C16.3936 9.16016 17.1711 9.65795 18.3838 9.98242C19.244 10.2107 20.3997 10.2606 20.4258 10.2617V6.94727C20.0149 6.99167 19.1807 6.86209 18.3271 6.43652C18.196 6.36873 18.0681 6.29442 17.9443 6.21387C17.5844 5.97588 17.2549 5.69472 16.9619 5.37793C16.2289 4.5392 15.9544 3.68858 15.8535 3.09277H15.8584C15.776 2.60887 15.8072 2.29179 15.8135 2.27832H12.4746V15.1904Z"
    fill="currentColor"
  />
</svg>
