<svg width="35" height="24" viewBox="0 0 35 24" xmlns="http://www.w3.org/2000/svg">
  <path
    d="M17.1387 0C17.1387 0 27.8684 0.000251457 30.5508 0.734375C32.0189 1.12964 33.1769 2.28681 33.5723 3.75488C34.3057 6.43484 34.2784 12.0183 34.2783 12.0283C34.2783 12.0283 34.2782 17.5911 33.5723 20.2734C33.1769 21.7416 32.0189 22.8987 30.5508 23.2939C27.8684 23.9998 17.1387 24 17.1387 24C17.0748 24 6.43052 23.9975 3.72754 23.2656C2.25938 22.8704 1.10142 21.7132 0.706055 20.2451C0.000166714 17.591 0 12 0 12C4.09041e-06 11.9733 0.00186799 6.43079 0.706055 3.75488C1.10147 2.28685 2.28768 1.10131 3.72754 0.706055C6.40251 0.00238106 17.0748 6.31487e-06 17.1387 0ZM13.7227 17.1396L22.6455 12L13.7227 6.86133V17.1396Z"
    fill="currentColor"
  />
</svg>
