<svg
  width="24"
  height="24"
  viewBox="0 0 24 24"
  fill="currentColor"
  xmlns="http://www.w3.org/2000/svg"
>
  <path
    d="M22.7747 6.37717C22.5154 5.41325 21.7554 4.65341 20.7916 4.39386C19.0309 3.91211 11.988 3.91211 11.988 3.91211C11.988 3.91211 4.94536 3.91211 3.18466 4.3756C2.23943 4.63487 1.46091 5.41339 1.20163 6.37717C0.738281 8.13773 0.738281 11.7889 0.738281 11.7889C0.738281 11.7889 0.738281 15.4585 1.20163 17.2006C1.46118 18.1644 2.22089 18.9242 3.1848 19.1838C4.9639 19.6657 11.9883 19.6657 11.9883 19.6657C11.9883 19.6657 19.0309 19.6657 20.7916 19.2022C21.7555 18.9428 22.5154 18.1829 22.7749 17.2192C23.2381 15.4585 23.2381 11.8074 23.2381 11.8074C23.2381 11.8074 23.2567 8.13773 22.7747 6.37717ZM9.7457 15.162V8.41582L15.6022 11.7889L9.7457 15.162Z"
  />
</svg>
