<svg width="1112" height="73" viewBox="0 0 1112 73" fill="none" xmlns="http://www.w3.org/2000/svg">
<path d="M1111 71.375H1" stroke="#BABABA" stroke-width="1.5" stroke-linecap="round" stroke-linejoin="round"/>
<path d="M804.41 71.375H765.88C763.891 71.375 761.983 70.5848 760.577 69.1783C759.17 67.7718 758.38 65.8641 758.38 63.875C758.38 61.8859 759.17 59.9782 760.577 58.5717C761.983 57.1652 763.891 56.375 765.88 56.375H769.55" stroke="#BABABA" stroke-width="1.5" stroke-linecap="round" stroke-linejoin="round"/>
<path d="M774.85 56.375H804.41" stroke="#BABABA" stroke-width="1.5" stroke-linecap="round" stroke-linejoin="round"/>
<path d="M804.41 71.375C802.67 71.375 801.26 68.015 801.26 63.875C801.26 59.735 802.67 56.375 804.41 56.375" stroke="#BABABA" stroke-width="1.5" stroke-linecap="round" stroke-linejoin="round"/>
<path d="M761.24 44.645H799.77C801.759 44.645 803.667 43.8548 805.074 42.4483C806.48 41.0418 807.27 39.1341 807.27 37.145C807.27 35.1559 806.48 33.2482 805.074 31.8417C803.667 30.4352 801.759 29.645 799.77 29.645H761.24" stroke="#BABABA" stroke-width="1.5" stroke-linecap="round" stroke-linejoin="round"/>
<path d="M761.24 29.645C762.98 29.645 764.38 33.005 764.38 37.145C764.38 41.285 762.98 44.645 761.24 44.645" stroke="#BABABA" stroke-width="1.5" stroke-linecap="round" stroke-linejoin="round"/>
<path d="M769.55 56.3751H766.55C765.759 56.4078 764.97 56.2803 764.23 56.0002C763.49 55.7202 762.814 55.2935 762.243 54.7456C761.672 54.1978 761.218 53.5402 760.908 52.8123C760.598 52.0845 760.438 51.3014 760.438 50.5101C760.438 49.7189 760.598 48.9358 760.908 48.2079C761.218 47.4801 761.672 46.8225 762.243 46.2746C762.814 45.7268 763.49 45.3001 764.23 45.02C764.97 44.74 765.759 44.6125 766.55 44.6451H807.55" stroke="#BABABA" stroke-width="1.5" stroke-linecap="round" stroke-linejoin="round"/>
<path d="M807 56.375C805.93 56.375 805.07 53.745 805.07 50.505C805.07 47.265 805.93 44.645 807 44.645" stroke="#BABABA" stroke-width="1.5" stroke-linecap="round" stroke-linejoin="round"/>
<path d="M774.85 50.5049V64.9549L772.2 62.1449L769.55 64.9549V50.5049H774.85Z" stroke="#BABABA" stroke-width="1.5" stroke-linecap="round" stroke-linejoin="round"/>
<path d="M809.351 1.72259L801.776 3.74644C800.282 4.14563 799.395 5.68035 799.794 7.17434L816.238 68.7153C816.637 70.2093 818.172 71.0968 819.666 70.6976L827.24 68.6738C828.734 68.2746 829.622 66.7398 829.222 65.2459L812.779 3.70489C812.379 2.2109 810.845 1.3234 809.351 1.72259Z" stroke="#BABABA" stroke-width="1.5" stroke-linecap="round" stroke-linejoin="round"/>
<path d="M825.267 2.05301L815.969 5.42099C814.515 5.94761 813.763 7.55319 814.289 9.00715L835.982 68.8997C836.509 70.3537 838.114 71.1055 839.568 70.5788L848.867 67.2109C850.321 66.6842 851.073 65.0787 850.546 63.6247L828.854 3.73213C828.327 2.27817 826.721 1.5264 825.267 2.05301Z" stroke="#BABABA" stroke-width="1.5" stroke-linecap="round" stroke-linejoin="round"/>
<path d="M859.07 10.8452H853.26C852.227 10.8452 851.39 11.6824 851.39 12.7152V69.4952C851.39 70.528 852.227 71.3652 853.26 71.3652H859.07C860.102 71.3652 860.94 70.528 860.94 69.4952V12.7152C860.94 11.6824 860.102 10.8452 859.07 10.8452Z" stroke="#BABABA" stroke-width="1.5" stroke-linecap="round" stroke-linejoin="round"/>
<path d="M888.02 10.8452H876.84C875.807 10.8452 874.97 11.6824 874.97 12.7152V69.4952C874.97 70.528 875.807 71.3652 876.84 71.3652H888.02C889.053 71.3652 889.89 70.528 889.89 69.4952V12.7152C889.89 11.6824 889.053 10.8452 888.02 10.8452Z" stroke="#BABABA" stroke-width="1.5" stroke-linecap="round" stroke-linejoin="round"/>
<path d="M873.1 7.5752H862.81C861.778 7.5752 860.94 8.41242 860.94 9.4452V69.5052C860.94 70.538 861.778 71.3752 862.81 71.3752H873.1C874.133 71.3752 874.97 70.538 874.97 69.5052V9.4452C874.97 8.41242 874.133 7.5752 873.1 7.5752Z" stroke="#BABABA" stroke-width="1.5" stroke-linecap="round" stroke-linejoin="round"/>
<path d="M954.38 60.8652H898.419C897.646 60.8652 897.02 61.492 897.02 62.2652V69.9752C897.02 70.7484 897.646 71.3752 898.419 71.3752H954.38C955.153 71.3752 955.78 70.7484 955.78 69.9752V62.2652C955.78 61.492 955.153 60.8652 954.38 60.8652Z" stroke="#BABABA" stroke-width="1.5" stroke-linecap="round" stroke-linejoin="round"/>
<path d="M960.49 52.7749H902.05C901.277 52.7749 900.65 53.4017 900.65 54.1749V59.4549C900.65 60.2281 901.277 60.8549 902.05 60.8549H960.49C961.264 60.8549 961.89 60.2281 961.89 59.4549V54.1749C961.89 53.4017 961.264 52.7749 960.49 52.7749Z" stroke="#BABABA" stroke-width="1.5" stroke-linecap="round" stroke-linejoin="round"/>
<path d="M860.94 60.8652H851.39V65.1552H860.94V60.8652Z" stroke="#BABABA" stroke-width="1.5" stroke-linecap="round" stroke-linejoin="round"/>
<path d="M860.94 17.415H851.39V21.345H860.94V17.415Z" stroke="#BABABA" stroke-width="1.5" stroke-linecap="round" stroke-linejoin="round"/>
<path d="M867.96 42.7348V36.2148" stroke="#BABABA" stroke-width="1.5" stroke-linecap="round" stroke-linejoin="round"/>
<path d="M882.43 51.5351V30.6851" stroke="#BABABA" stroke-width="1.5" stroke-linecap="round" stroke-linejoin="round"/>
<path d="M885.07 62.5049H879.78V67.7949H885.07V62.5049Z" stroke="#BABABA" stroke-width="1.5" stroke-linecap="round" stroke-linejoin="round"/>
<path d="M807.57 56.375H804.41" stroke="#BABABA" stroke-width="1.5" stroke-linecap="round" stroke-linejoin="round"/>
<path d="M765.26 50.5049H783.02" stroke="#BABABA" stroke-width="1.5" stroke-linecap="round" stroke-linejoin="round"/>
<path d="M945.09 66.1152H952.2" stroke="#BABABA" stroke-width="1.5" stroke-linecap="round" stroke-linejoin="round"/>
<path d="M910.69 52.7749H906.38V60.8549H910.69V52.7749Z" stroke="#BABABA" stroke-width="1.5" stroke-linecap="round" stroke-linejoin="round"/>
<path d="M952.2 52.7749H947.89V60.8549H952.2V52.7749Z" stroke="#BABABA" stroke-width="1.5" stroke-linecap="round" stroke-linejoin="round"/>
<path d="M828.56 25.6553L836.28 46.9553" stroke="#BABABA" stroke-width="1.5" stroke-linecap="round" stroke-linejoin="round"/>
<path d="M819.87 9.28496L825.18 7.33496" stroke="#BABABA" stroke-width="1.5" stroke-linecap="round" stroke-linejoin="round"/>
<path d="M801.92 15.1253L814.85 11.6753" stroke="#BABABA" stroke-width="1.5" stroke-linecap="round" stroke-linejoin="round"/>
<path d="M803.66 19.3751L816.58 15.9351" stroke="#BABABA" stroke-width="1.5" stroke-linecap="round" stroke-linejoin="round"/>
<path d="M813.33 57.8049L826.37 54.5449" stroke="#BABABA" stroke-width="1.5" stroke-linecap="round" stroke-linejoin="round"/>
<path d="M814.9 62.315L827.6 59.145" stroke="#BABABA" stroke-width="1.5" stroke-linecap="round" stroke-linejoin="round"/>
<path d="M764.21 34.7251H780.57" stroke="#BABABA" stroke-width="1.5" stroke-linecap="round" stroke-linejoin="round"/>
<path d="M775.96 39.4751H791.91" stroke="#BABABA" stroke-width="1.5" stroke-linecap="round" stroke-linejoin="round"/>
<path d="M910.69 52.7749H949.22C951.21 52.7749 953.117 51.9847 954.524 50.5782C955.93 49.1717 956.72 47.264 956.72 45.2749C956.72 43.2858 955.93 41.3781 954.524 39.9716C953.117 38.5651 951.21 37.7749 949.22 37.7749H910.69" stroke="#BABABA" stroke-width="1.5" stroke-linecap="round" stroke-linejoin="round"/>
<path d="M910.69 37.7749C912.43 37.7749 913.84 41.1349 913.84 45.2749C913.84 49.4149 912.43 52.7749 910.69 52.7749" stroke="#BABABA" stroke-width="1.5" stroke-linecap="round" stroke-linejoin="round"/>
<path d="M913.66 42.8452H930.02" stroke="#BABABA" stroke-width="1.5" stroke-linecap="round" stroke-linejoin="round"/>
<path d="M925.41 47.605H941.37" stroke="#BABABA" stroke-width="1.5" stroke-linecap="round" stroke-linejoin="round"/>
<path d="M748.19 71.375H698.66C696.671 71.375 694.763 70.5848 693.357 69.1783C691.95 67.7718 691.16 65.8641 691.16 63.875C691.16 61.8859 691.95 59.9782 693.357 58.5717C694.763 57.1652 696.671 56.375 698.66 56.375H748.19" stroke="#BABABA" stroke-width="1.5" stroke-linecap="round" stroke-linejoin="round"/>
<path d="M748.19 56.375C746.46 56.375 745.05 59.725 745.05 63.875C745.05 68.025 746.46 71.375 748.19 71.375" stroke="#BABABA" stroke-width="1.5" stroke-linecap="round" stroke-linejoin="round"/>
<path d="M745.22 61.4448H728.86" stroke="#BABABA" stroke-width="1.5" stroke-linecap="round" stroke-linejoin="round"/>
<path d="M718.71 66.1948H702.76" stroke="#BABABA" stroke-width="1.5" stroke-linecap="round" stroke-linejoin="round"/>
<path d="M783.02 65.1553H801.26" stroke="#BABABA" stroke-width="1.5" stroke-linecap="round" stroke-linejoin="round"/>
</svg>
