<svg width="302" height="26" viewBox="0 0 302 26" fill="none" xmlns="http://www.w3.org/2000/svg">
<path d="M301 25.25H1" stroke="#BABABA" stroke-width="1.5" stroke-linecap="round" stroke-linejoin="round"/>
<path d="M76.0699 15.4404C76.909 15.4418 77.7294 15.6886 78.4299 16.1504C79.2789 16.7144 79.8969 17.5648 80.1713 18.5464C80.4456 19.528 80.3581 20.5756 79.9246 21.498C79.4911 22.4205 78.7405 23.1564 77.8097 23.5717C76.8788 23.987 75.8298 24.0539 74.8537 23.7602C73.8777 23.4666 73.0397 22.832 72.4925 21.9721C71.9453 21.1121 71.7254 20.0842 71.8728 19.0757C72.0203 18.0672 72.5252 17.1452 73.2957 16.4779C74.0661 15.8106 75.0507 15.4424 76.0699 15.4404V15.4404Z" stroke="#BABABA" stroke-width="1.5" stroke-linecap="round" stroke-linejoin="round"/>
<path d="M91.3202 15.4404C92.1564 15.4402 92.974 15.6872 93.6702 16.1504C94.373 16.6111 94.9202 17.2734 95.2402 18.0504C95.5923 18.8922 95.6641 19.8249 95.4451 20.7107C95.226 21.5964 94.7277 22.3882 94.0239 22.9688C93.32 23.5495 92.448 23.8882 91.5368 23.9349C90.6255 23.9815 89.7234 23.7337 88.9639 23.228C88.2045 22.7223 87.6279 21.9857 87.3195 21.1269C87.0111 20.2682 86.9872 19.333 87.2515 18.4596C87.5157 17.5863 88.054 16.8212 88.7867 16.2775C89.5195 15.7337 90.4077 15.4403 91.3202 15.4404V15.4404Z" stroke="#BABABA" stroke-width="1.5" stroke-linecap="round" stroke-linejoin="round"/>
<path d="M89.41 15.89L86.82 12.75H78.6L77.25 15.61" stroke="#BABABA" stroke-width="1.5" stroke-linecap="round" stroke-linejoin="round"/>
<path d="M80.3203 19.66H83.6603L86.8203 12.75" stroke="#BABABA" stroke-width="1.5" stroke-linecap="round" stroke-linejoin="round"/>
<path d="M86.8203 12.7507V10.5107H89.1803" stroke="#BABABA" stroke-width="1.5" stroke-linecap="round" stroke-linejoin="round"/>
<path d="M82.2799 19.6599L82.1999 14.8899L77.1299 10.5099L82.8399 5.66992L83.3299 8.61992L86.8199 10.5099" stroke="#BABABA" stroke-width="1.5" stroke-linecap="round" stroke-linejoin="round"/>
<path d="M83.5704 1.00027C83.7909 0.996285 84.01 1.03628 84.2149 1.11792C84.4198 1.19955 84.6063 1.32119 84.7637 1.47574C84.921 1.63028 85.046 1.81463 85.1313 2.01801C85.2166 2.22139 85.2605 2.43973 85.2604 2.66027C85.2604 3.10053 85.0855 3.52276 84.7742 3.83407C84.4629 4.14538 84.0407 4.32027 83.6004 4.32027H81.9404V2.66027C81.9404 2.22516 82.1111 1.80742 82.416 1.49695C82.7208 1.18649 83.1354 1.00813 83.5704 1.00027V1.00027Z" stroke="#BABABA" stroke-width="1.5" stroke-linecap="round" stroke-linejoin="round"/>
<path d="M141.67 15.4404C142.509 15.4418 143.329 15.6886 144.03 16.1504C144.55 16.4969 144.986 16.9546 145.308 17.4905C145.63 18.0263 145.828 18.6269 145.889 19.2488C145.951 19.8708 145.873 20.4985 145.662 21.0868C145.451 21.6751 145.112 22.2091 144.67 22.6504C144.079 23.2456 143.323 23.6497 142.5 23.8104C141.678 23.9751 140.825 23.892 140.051 23.5715C139.277 23.251 138.615 22.7077 138.15 22.0104C137.727 21.3734 137.484 20.6337 137.448 19.8699C137.412 19.1061 137.584 18.3468 137.945 17.6728C138.306 16.9988 138.843 16.4352 139.499 16.0422C140.155 15.6491 140.905 15.4411 141.67 15.4404V15.4404Z" stroke="#BABABA" stroke-width="1.5" stroke-linecap="round" stroke-linejoin="round"/>
<path d="M156.91 15.4404C157.749 15.4418 158.569 15.6886 159.27 16.1504C159.964 16.6164 160.506 17.2763 160.828 18.0481C161.15 18.8198 161.237 19.6692 161.08 20.4904C160.876 21.5247 160.294 22.4459 159.448 23.0745C158.602 23.703 157.552 23.9938 156.503 23.8902C155.454 23.7865 154.481 23.2958 153.774 22.5138C153.067 21.7318 152.677 20.7145 152.68 19.6604C152.682 18.5403 153.129 17.4669 153.922 16.6758C154.715 15.8847 155.79 15.4404 156.91 15.4404V15.4404Z" stroke="#BABABA" stroke-width="1.5" stroke-linecap="round" stroke-linejoin="round"/>
<path d="M155.01 15.89L152.42 12.75H144.19L142.85 15.61" stroke="#BABABA" stroke-width="1.5" stroke-linecap="round" stroke-linejoin="round"/>
<path d="M145.91 19.66H149.26L152.42 12.75" stroke="#BABABA" stroke-width="1.5" stroke-linecap="round" stroke-linejoin="round"/>
<path d="M152.42 12.7507V10.5107H154.78" stroke="#BABABA" stroke-width="1.5" stroke-linecap="round" stroke-linejoin="round"/>
<path d="M147.881 19.6599L147.801 14.8899L142.721 10.5099L148.441 5.66992L148.931 8.61992L152.421 10.5099" stroke="#BABABA" stroke-width="1.5" stroke-linecap="round" stroke-linejoin="round"/>
<path d="M148.93 1.00003C149.37 1.00003 149.792 1.17492 150.104 1.48623C150.415 1.79754 150.59 2.21977 150.59 2.66003V2.66003C150.59 3.10029 150.415 3.52252 150.104 3.83383C149.792 4.14514 149.37 4.32003 148.93 4.32003H147.26V2.66003C147.26 2.44119 147.303 2.22451 147.387 2.02246C147.471 1.8204 147.594 1.63696 147.749 1.48268C147.905 1.32841 148.089 1.20634 148.291 1.12351C148.494 1.04068 148.711 0.998712 148.93 1.00003V1.00003Z" stroke="#BABABA" stroke-width="1.5" stroke-linecap="round" stroke-linejoin="round"/>
<path d="M225.889 15.4405C226.726 15.4402 227.543 15.6872 228.239 16.1505C228.942 16.6111 229.489 17.2734 229.809 18.0505C230.126 18.8253 230.206 19.6766 230.04 20.497C229.873 21.3174 229.468 22.0702 228.874 22.6605C228.281 23.2508 227.526 23.6522 226.705 23.8141C225.883 23.9761 225.033 23.8913 224.259 23.5705C223.483 23.2543 222.821 22.7104 222.359 22.0105C221.933 21.3742 221.687 20.6338 221.65 19.8688C221.612 19.1037 221.783 18.3427 222.145 17.6675C222.507 16.9923 223.045 16.4283 223.703 16.0359C224.361 15.6436 225.113 15.4378 225.879 15.4405H225.889Z" stroke="#BABABA" stroke-width="1.5" stroke-linecap="round" stroke-linejoin="round"/>
<path d="M241.129 15.4405C241.969 15.4418 242.789 15.6886 243.489 16.1505C244.187 16.6145 244.73 17.276 245.049 18.0505C245.37 18.822 245.453 19.6713 245.289 20.4905C245.126 21.3096 244.722 22.0615 244.129 22.6505C243.537 23.2436 242.782 23.6474 241.959 23.8105C241.137 23.9721 240.285 23.8887 239.509 23.5705C238.733 23.2543 238.071 22.7104 237.609 22.0105C237.183 21.3742 236.937 20.6338 236.9 19.8688C236.862 19.1037 237.033 18.3427 237.395 17.6675C237.757 16.9923 238.295 16.4283 238.953 16.0359C239.611 15.6436 240.363 15.4378 241.129 15.4405V15.4405Z" stroke="#BABABA" stroke-width="1.5" stroke-linecap="round" stroke-linejoin="round"/>
<path d="M239.22 15.89L236.64 12.75H228.41L227.07 15.61" stroke="#BABABA" stroke-width="1.5" stroke-linecap="round" stroke-linejoin="round"/>
<path d="M230.13 19.66H233.47L236.64 12.75" stroke="#BABABA" stroke-width="1.5" stroke-linecap="round" stroke-linejoin="round"/>
<path d="M236.641 12.7507V10.5107H238.991" stroke="#BABABA" stroke-width="1.5" stroke-linecap="round" stroke-linejoin="round"/>
<path d="M232.089 19.6599L232.009 14.8899L226.939 10.5099L232.649 5.66992L233.139 8.61992L236.639 10.5099" stroke="#BABABA" stroke-width="1.5" stroke-linecap="round" stroke-linejoin="round"/>
<path d="M233.14 1C233.581 1 234.003 1.17489 234.314 1.4862C234.626 1.79751 234.8 2.21974 234.8 2.66V2.66C234.8 3.10026 234.626 3.52249 234.314 3.8338C234.003 4.14511 233.581 4.32 233.14 4.32H231.48V2.66C231.48 2.44201 231.523 2.22615 231.607 2.02475C231.69 1.82334 231.813 1.64035 231.967 1.4862C232.121 1.33206 232.304 1.20978 232.505 1.12636C232.707 1.04294 232.922 1 233.14 1V1Z" stroke="#BABABA" stroke-width="1.5" stroke-linecap="round" stroke-linejoin="round"/>
<path d="M175.65 22.2253C175.65 21.3113 174.909 20.5703 173.995 20.5703C173.081 20.5703 172.34 21.3113 172.34 22.2253C172.34 23.1393 173.081 23.8803 173.995 23.8803C174.909 23.8803 175.65 23.1393 175.65 22.2253Z" stroke="#BABABA" stroke-width="1.5" stroke-linecap="round" stroke-linejoin="round"/>
<path d="M188.54 22.2253C188.54 21.3113 187.799 20.5703 186.885 20.5703C185.971 20.5703 185.23 21.3113 185.23 22.2253C185.23 23.1393 185.971 23.8803 186.885 23.8803C187.799 23.8803 188.54 23.1393 188.54 22.2253Z" stroke="#BABABA" stroke-width="1.5" stroke-linecap="round" stroke-linejoin="round"/>
<path d="M175.65 22.2305H185.23" stroke="#BABABA" stroke-width="1.5" stroke-linecap="round" stroke-linejoin="round"/>
<path d="M186.89 20.5704L184.91 9.65039" stroke="#BABABA" stroke-width="1.5" stroke-linecap="round" stroke-linejoin="round"/>
<path d="M178.609 21.3101L178.529 16.5501L176.529 12.7501L179.169 7.33008L184.909 9.65008" stroke="#BABABA" stroke-width="1.5" stroke-linecap="round" stroke-linejoin="round"/>
<path d="M168.65 16.56H173.59L176.53 12.75" stroke="#BABABA" stroke-width="1.5" stroke-linecap="round" stroke-linejoin="round"/>
<path d="M179.519 2.66039C179.96 2.66039 180.382 2.83528 180.693 3.14659C181.004 3.4579 181.179 3.88013 181.179 4.32039V4.32039C181.179 4.53838 181.136 4.75424 181.053 4.95564C180.97 5.15705 180.847 5.34004 180.693 5.49419C180.539 5.64833 180.356 5.77061 180.155 5.85403C179.953 5.93745 179.737 5.98039 179.519 5.98039H177.859V4.31039C177.859 3.87013 178.034 3.4479 178.346 3.13659C178.657 2.82528 179.079 2.65039 179.519 2.65039V2.66039Z" stroke="#BABABA" stroke-width="1.5" stroke-linecap="round" stroke-linejoin="round"/>
<path d="M177.859 10.0605L185.509 12.9805" stroke="#BABABA" stroke-width="1.5" stroke-linecap="round" stroke-linejoin="round"/>
</svg>
