<svg width="734" height="57" viewBox="0 0 734 57" fill="none" xmlns="http://www.w3.org/2000/svg">
<path d="M732 55.0602L427.77 54.8202V8.1902C427.771 7.37697 427.611 6.57158 427.3 5.8202C426.978 5.07534 426.521 4.39706 425.95 3.8202C424.766 2.6482 423.166 1.99366 421.5 2.0002H412.5C410.846 1.99784 409.257 2.64827 408.08 3.8102C407.503 4.38411 407.045 5.0666 406.732 5.81832C406.42 6.57005 406.259 7.37616 406.26 8.1902V54.8202H398.54V8.1902C398.541 7.37697 398.381 6.57158 398.07 5.8202C397.748 5.07291 397.287 4.39405 396.71 3.8202C396.136 3.24814 395.457 2.79303 394.71 2.4802C393.951 2.17004 393.14 2.01041 392.32 2.0102L383.8 2.2602C382.146 2.25893 380.558 2.90919 379.38 4.0702C378.803 4.64193 378.344 5.3226 378.032 6.07275C377.72 6.82289 377.559 7.62759 377.56 8.4402V55.0602L369.69 54.8602V8.1902C369.691 7.37697 369.531 6.57158 369.22 5.8202C368.901 5.07158 368.439 4.39228 367.86 3.8202C367.288 3.24613 366.608 2.79074 365.86 2.4802C365.111 2.1704 364.31 2.00745 363.5 2.0002H354.5C353.679 1.99369 352.866 2.14936 352.105 2.45826C351.345 2.76715 350.653 3.2232 350.07 3.8002C349.488 4.37364 349.025 5.057 348.71 5.81061C348.394 6.56422 348.231 7.37307 348.23 8.1902V54.8202H2" stroke="#DADADA" stroke-width="3" stroke-linecap="round" stroke-linejoin="round"/>
<path d="M453.93 46.1402C458.31 46.1402 461.86 42.5898 461.86 38.2102C461.86 33.8306 458.31 30.2802 453.93 30.2802C449.55 30.2802 446 33.8306 446 38.2102C446 42.5898 449.55 46.1402 453.93 46.1402Z" stroke="#DADADA" stroke-width="3" stroke-linecap="round" stroke-linejoin="round"/>
<path d="M453.93 54.6802V46.1402" stroke="#DADADA" stroke-width="3" stroke-linecap="round" stroke-linejoin="round"/>
<path d="M479.141 46.1402C483.521 46.1402 487.071 42.5898 487.071 38.2102C487.071 33.8306 483.521 30.2802 479.141 30.2802C474.761 30.2802 471.211 33.8306 471.211 38.2102C471.211 42.5898 474.761 46.1402 479.141 46.1402Z" stroke="#DADADA" stroke-width="3" stroke-linecap="round" stroke-linejoin="round"/>
<path d="M479.141 54.6802V46.1402" stroke="#DADADA" stroke-width="3" stroke-linecap="round" stroke-linejoin="round"/>
<path d="M288.469 46.1402C292.849 46.1402 296.399 42.5898 296.399 38.2102C296.399 33.8306 292.849 30.2802 288.469 30.2802C284.089 30.2802 280.539 33.8306 280.539 38.2102C280.539 42.5898 284.089 46.1402 288.469 46.1402Z" stroke="#DADADA" stroke-width="3" stroke-linecap="round" stroke-linejoin="round"/>
<path d="M288.471 55.0602V46.1402" stroke="#DADADA" stroke-width="3" stroke-linecap="round" stroke-linejoin="round"/>
<path d="M338.311 54.8202H436.031" stroke="#DADADA" stroke-width="3" stroke-linecap="round" stroke-linejoin="round"/>
</svg>
