<svg width="734" height="70" viewBox="0 0 734 70" fill="none" xmlns="http://www.w3.org/2000/svg">
<path d="M453.93 59.278C458.31 59.278 461.86 55.7276 461.86 51.348C461.86 46.9684 458.31 43.418 453.93 43.418C449.55 43.418 446 46.9684 446 51.348C446 55.7276 449.55 59.278 453.93 59.278Z" stroke="#DADADA" stroke-width="3" stroke-linecap="round" stroke-linejoin="round"/>
<path d="M453.93 68.198V59.278" stroke="#DADADA" stroke-width="3" stroke-linecap="round" stroke-linejoin="round"/>
<path d="M213.369 59.278C217.749 59.278 221.299 55.7276 221.299 51.348C221.299 46.9684 217.749 43.418 213.369 43.418C208.99 43.418 205.439 46.9684 205.439 51.348C205.439 55.7276 208.99 59.278 213.369 59.278Z" stroke="#DADADA" stroke-width="3" stroke-linecap="round" stroke-linejoin="round"/>
<path d="M213.369 68.198V59.278" stroke="#DADADA" stroke-width="3" stroke-linecap="round" stroke-linejoin="round"/>
<path d="M288.67 59.058C293.05 59.058 296.6 55.5076 296.6 51.128C296.6 46.7484 293.05 43.198 288.67 43.198C284.291 43.198 280.74 46.7484 280.74 51.128C280.74 55.5076 284.291 59.058 288.67 59.058Z" stroke="#DADADA" stroke-width="3" stroke-linecap="round" stroke-linejoin="round"/>
<path d="M288.67 67.978V59.058" stroke="#DADADA" stroke-width="3" stroke-linecap="round" stroke-linejoin="round"/>
<path d="M359.33 34.278C363.71 34.278 367.26 30.7276 367.26 26.348C367.26 21.9684 363.71 18.418 359.33 18.418C354.951 18.418 351.4 21.9684 351.4 26.348C351.4 30.7276 354.951 34.278 359.33 34.278Z" stroke="#DADADA" stroke-width="3" stroke-linecap="round" stroke-linejoin="round"/>
<path d="M359.33 43.198V34.278" stroke="#DADADA" stroke-width="3" stroke-linecap="round" stroke-linejoin="round"/>
<path d="M732 68.198H442C434.15 60.738 421.23 55.698 406.73 55.698C403.164 55.6932 399.604 55.9943 396.09 56.598C388.33 48.678 375.09 43.458 360.09 43.458C338.62 43.458 320.8 54.118 317.42 68.108V68.198L2 67.938" stroke="#DADADA" stroke-width="3" stroke-linecap="round" stroke-linejoin="round"/>
<path d="M470.189 58.038H489.879L480.029 41.208L470.189 58.038Z" stroke="#DADADA" stroke-width="3" stroke-linecap="round" stroke-linejoin="round"/>
<path d="M480.029 68.198V58.278" stroke="#DADADA" stroke-width="3" stroke-linecap="round" stroke-linejoin="round"/>
<path d="M373.551 37.618H393.241L383.401 20.788L373.551 37.618Z" stroke="#DADADA" stroke-width="3" stroke-linecap="round" stroke-linejoin="round"/>
<path d="M383.4 47.768V37.848" stroke="#DADADA" stroke-width="3" stroke-linecap="round" stroke-linejoin="round"/>
<path d="M499.551 58.038H519.241L509.401 41.208L499.551 58.038Z" stroke="#DADADA" stroke-width="3" stroke-linecap="round" stroke-linejoin="round"/>
<path d="M509.4 68.198V58.278" stroke="#DADADA" stroke-width="3" stroke-linecap="round" stroke-linejoin="round"/>
<path d="M410.04 7.42798C410.009 6.72659 410.121 6.02623 410.368 5.36911C410.615 4.712 410.993 4.11175 411.478 3.60455C411.964 3.09735 412.547 2.6937 413.193 2.41793C413.838 2.14217 414.533 2 415.235 2C415.937 2 416.632 2.14217 417.278 2.41793C417.923 2.6937 418.506 3.09735 418.992 3.60455C419.477 4.11175 419.855 4.712 420.102 5.36911C420.349 6.02623 420.461 6.72659 420.43 7.42798" stroke="#DADADA" stroke-width="3" stroke-linecap="round" stroke-linejoin="round"/>
<path d="M399.641 7.42803C399.641 6.0489 400.188 4.72626 401.164 3.75107C402.139 2.77588 403.461 2.22803 404.841 2.22803C406.22 2.22803 407.542 2.77588 408.518 3.75107C409.493 4.72626 410.041 6.0489 410.041 7.42803" stroke="#DADADA" stroke-width="3" stroke-linecap="round" stroke-linejoin="round"/>
<path d="M430.83 22.4679C430.83 21.0888 431.378 19.7662 432.353 18.791C433.328 17.8158 434.651 17.2679 436.03 17.2679C437.409 17.2679 438.732 17.8158 439.707 18.791C440.682 19.7662 441.23 21.0888 441.23 22.4679" stroke="#DADADA" stroke-width="3" stroke-linecap="round" stroke-linejoin="round"/>
<path d="M420.43 22.4679C420.43 21.0888 420.978 19.7662 421.953 18.791C422.928 17.8158 424.251 17.2679 425.63 17.2679C427.009 17.2679 428.331 17.8158 429.307 18.791C430.282 19.7662 430.83 21.0888 430.83 22.4679" stroke="#DADADA" stroke-width="3" stroke-linecap="round" stroke-linejoin="round"/>
</svg>
