<svg width="48" height="48" viewBox="0 0 48 48" fill="none" xmlns="http://www.w3.org/2000/svg">
<path d="M31.1663 15.0488V18.8063H16.8263V15.0488H8.69629V19.8938V37.6763H39.3038V19.8938V15.0488H31.1663Z" fill="white" stroke="#333333" stroke-width="1.5" stroke-miterlimit="10"/>
<path d="M12.5889 20.9063V17.8838" stroke="#333333" stroke-width="1.5" stroke-miterlimit="10"/>
<path d="M35.2314 20.9063V17.8838" stroke="#333333" stroke-width="1.5" stroke-miterlimit="10"/>
<path d="M12.5889 27.7466V24.7241" stroke="#333333" stroke-width="1.5" stroke-miterlimit="10"/>
<path d="M35.2314 27.7466V24.7241" stroke="#333333" stroke-width="1.5" stroke-miterlimit="10"/>
<path d="M12.5889 34.5791V31.5566" stroke="#333333" stroke-width="1.5" stroke-miterlimit="10"/>
<path d="M23.9961 27.7466V24.7241" stroke="#333333" stroke-width="1.5" stroke-miterlimit="10"/>
<path d="M23.9961 34.5791V31.5566" stroke="#333333" stroke-width="1.5" stroke-miterlimit="10"/>
<path d="M18.5586 27.7466V24.7241" stroke="#333333" stroke-width="1.5" stroke-miterlimit="10"/>
<path d="M18.5586 34.5791V31.5566" stroke="#333333" stroke-width="1.5" stroke-miterlimit="10"/>
<path d="M29.6133 27.7466V24.7241" stroke="#333333" stroke-width="1.5" stroke-miterlimit="10"/>
<path d="M29.6133 34.5791V31.5566" stroke="#333333" stroke-width="1.5" stroke-miterlimit="10"/>
<path d="M35.2314 34.5791V31.5566" stroke="#333333" stroke-width="1.5" stroke-miterlimit="10"/>
<path d="M31.1662 18.8066H16.8262V22.1741H31.1662V18.8066Z" fill="#E46054" stroke="#E46054" stroke-width="1.5" stroke-miterlimit="10"/>
<path d="M16.8263 15.0487H8.69629V14.3362L12.7613 10.3237L16.8263 14.3362V15.0487Z" fill="#E46054" stroke="#E46054" stroke-width="1.5" stroke-miterlimit="10"/>
<path d="M39.3035 15.0487V14.3362L35.186 10.3237L31.166 14.3362V15.0487H39.3035Z" fill="#E46054" stroke="#E46054" stroke-width="1.5" stroke-miterlimit="10"/>
</svg>
