<svg width="48" height="48" viewBox="0 0 48 48" fill="none" xmlns="http://www.w3.org/2000/svg">
<path d="M16.1504 31.0054C17.2467 31.008 18.2971 31.4454 19.0714 32.2215C19.8456 32.9976 20.2804 34.0491 20.2804 35.1454V39.9654H7.15039V35.1454C7.15039 34.0474 7.58657 32.9943 8.36297 32.2179C9.13937 31.4415 10.1924 31.0054 11.2904 31.0054" stroke="#333333" stroke-width="1.5" stroke-miterlimit="10"/>
<path d="M13.45 22.2256H14C14.9123 22.2256 15.7873 22.588 16.4324 23.2332C17.0776 23.8783 17.44 24.7533 17.44 25.6656V28.6156C17.44 29.0664 17.3509 29.5128 17.1778 29.929C17.0046 30.3453 16.7509 30.7232 16.4312 31.041C16.1115 31.3588 15.7322 31.6103 15.3149 31.781C14.8977 31.9517 14.4508 32.0382 14 32.0356H13.46C12.5424 32.0356 11.6623 31.6711 11.0134 31.0222C10.3645 30.3733 10 29.4932 10 28.5756V25.6656C10 25.213 10.0893 24.7649 10.2628 24.3469C10.4363 23.9288 10.6906 23.5492 11.0111 23.2296C11.3316 22.91 11.712 22.6569 12.1305 22.4846C12.549 22.3123 12.9974 22.2243 13.45 22.2256V22.2256Z" stroke="#333333" stroke-width="1.5" stroke-miterlimit="10"/>
<path d="M36.7097 16.8154C37.2529 16.8141 37.7911 16.92 38.2933 17.1269C38.7955 17.3339 39.252 17.6379 39.6365 18.0215C40.0211 18.4052 40.3262 18.8609 40.5344 19.3626C40.7426 19.8644 40.8497 20.4022 40.8497 20.9454V25.7654H27.7197V20.9454C27.7197 19.8501 28.1549 18.7996 28.9294 18.0251C29.7039 17.2506 30.7544 16.8154 31.8497 16.8154" stroke="#333333" stroke-width="1.5" stroke-miterlimit="10"/>
<path d="M34.0004 8.03521H34.5404C34.9939 8.03258 35.4433 8.11961 35.863 8.29131C36.2827 8.463 36.6643 8.71597 36.9858 9.03567C37.3074 9.35537 37.5626 9.73548 37.7367 10.1541C37.9108 10.5728 38.0005 11.0218 38.0004 11.4752V14.4252C38.0004 14.8743 37.912 15.3191 37.7401 15.734C37.5682 16.1489 37.3163 16.5259 36.9987 16.8435C36.6812 17.1611 36.3042 17.413 35.8892 17.5849C35.4743 17.7568 35.0296 17.8452 34.5804 17.8452H34.0004C33.5452 17.84 33.0955 17.745 32.677 17.5656C32.2586 17.3863 31.8796 17.1261 31.5619 16.8001C31.2442 16.474 30.994 16.0884 30.8256 15.6654C30.6571 15.2425 30.5738 14.7904 30.5804 14.3352V11.4752C30.5804 10.5663 30.9401 9.69436 31.5809 9.04981C32.2217 8.40526 33.0916 8.0405 34.0004 8.03521V8.03521Z" stroke="#333333" stroke-width="1.5" stroke-miterlimit="10"/>
<path d="M36.3205 28.7754C35.4472 31.4254 33.7603 33.7324 31.4999 35.368C29.2394 37.0037 26.5206 37.8846 23.7305 37.8854" stroke="#333333" stroke-width="1.5" stroke-miterlimit="10"/>
<path d="M11.5801 19.3354C12.9304 16.2576 15.3967 13.8057 18.4824 12.4734C21.5681 11.1412 25.044 11.0275 28.2101 12.1554" stroke="#333333" stroke-width="1.5" stroke-miterlimit="10"/>
</svg>
