<svg width="48" height="48" viewBox="0 0 48 48" fill="none" xmlns="http://www.w3.org/2000/svg">
<path d="M30.0146 23.5461V12.6861L29.7221 12.5736H10.6271C9.02212 12.5736 7.70212 11.6061 7.70212 10.4136V33.5286C7.69435 33.6059 7.69435 33.6838 7.70212 33.7611V33.7611C7.70212 34.3578 7.93917 34.9301 8.36113 35.3521C8.78308 35.774 9.35538 36.0111 9.95212 36.0111H28.1021L30.0146 23.5461Z" fill="#5158D8" stroke="#5158D8" stroke-width="1.5" stroke-miterlimit="10"/>
<path d="M14.6396 16.7061H23.7521" stroke="#333333" stroke-width="1.5" stroke-miterlimit="10"/>
<path d="M12.5537 19.5264H25.9337" stroke="#333333" stroke-width="1.5" stroke-miterlimit="10"/>
<path d="M29.3021 9.78383C29.2545 8.92022 29.483 8.06386 29.9547 7.33883C30.0822 7.18133 29.9547 6.98633 29.6997 6.98633H10.6271C9.02215 6.98633 7.70215 7.96133 7.70215 9.15383V10.4138C7.70215 11.6063 9.02215 12.5738 10.6271 12.5738H29.6997C29.9397 12.5738 30.0822 12.3863 29.9547 12.2288C29.484 11.5034 29.2555 10.6473 29.3021 9.78383V9.78383Z" fill="white" stroke="#333333" stroke-width="1.5" stroke-miterlimit="10"/>
<path d="M20.7071 22.4961H17.6846" stroke="#333333" stroke-width="1.5" stroke-miterlimit="10"/>
<path d="M33.4566 35.4712H33.5766C34.3051 35.4702 35.0266 35.6128 35.6999 35.8909C36.3732 36.169 36.9851 36.5771 37.5006 37.0919C38.0161 37.6067 38.425 38.218 38.704 38.8909C38.983 39.5639 39.1266 40.2852 39.1266 41.0137H21.5166C21.5166 39.5437 22.1005 38.134 23.14 37.0946C24.1794 36.0551 25.5891 35.4712 27.0591 35.4712H33.4566Z" fill="white" stroke="#333333" stroke-width="1.5" stroke-miterlimit="10"/>
<path d="M35.5791 26.8765V31.249C35.5791 32.6414 35.026 33.9767 34.0414 34.9613C33.0568 35.9458 31.7215 36.499 30.3291 36.499C28.9367 36.499 27.6014 35.9458 26.6168 34.9613C25.6322 33.9767 25.0791 32.6414 25.0791 31.249V26.8765H35.5791Z" fill="white" stroke="#333333" stroke-width="1.5" stroke-miterlimit="10"/>
<path d="M32.5342 26.8765H40.3042" stroke="#333333" stroke-width="1.5" stroke-miterlimit="10"/>
<path d="M28.6641 32.1187V29.0962" stroke="#333333" stroke-width="1.5" stroke-miterlimit="10"/>
<path d="M31.9795 32.1187V29.0962" stroke="#333333" stroke-width="1.5" stroke-miterlimit="10"/>
<path d="M25.0645 26.8763V24.2963C25.0645 23.4085 25.4166 22.5569 26.0437 21.9284C26.6708 21.2999 27.5216 20.9458 28.4095 20.9438H32.2195C33.1086 20.9438 33.9613 21.2971 34.59 21.9258C35.2187 22.5545 35.572 23.4072 35.572 24.2963V26.8763H25.0645Z" fill="white" stroke="#333333" stroke-width="1.5" stroke-miterlimit="10"/>
</svg>
