<svg width="41" height="46" viewBox="0 0 41 46" fill="none" xmlns="http://www.w3.org/2000/svg">
<path d="M31.9361 38.3335H32.0802C32.9553 38.3335 33.8218 38.506 34.6301 38.8411C35.4384 39.1763 36.1728 39.6675 36.7911 40.2867C37.4094 40.9058 37.8997 41.6408 38.2337 42.4496C38.5677 43.2584 38.7391 44.1251 38.7379 45.0002H17.5938C17.5926 44.1251 17.7639 43.2584 18.098 42.4496C18.432 41.6408 18.9222 40.9058 19.5406 40.2867C20.1589 39.6675 20.8932 39.1763 21.7016 38.8411C22.5099 38.506 23.3764 38.3335 24.2514 38.3335H24.3956" stroke="#333333" stroke-width="1.35135" stroke-miterlimit="10"/>
<path d="M27.8018 20.892V7.44135C27.5 7.00008 27.6908 7.65375 27.6265 7.69071C27.5622 7.72766 27.4883 7.74442 27.4144 7.73881H4.51351C2.58558 7.71178 1 6.54061 1 5.11719V32.8739C1 32.973 1 33.0631 1 33.1622C1 33.879 1.28475 34.5665 1.7916 35.0733C2.29846 35.5802 2.9859 35.8649 3.7027 35.8649H22.4144L27.8018 20.892Z" fill="#5158D8" stroke="#5158D8" stroke-width="1.35135" stroke-miterlimit="10"/>
<path d="M9.32422 12.6667H20.2792" stroke="#333333" stroke-width="1.35135" stroke-miterlimit="10"/>
<path d="M6.82422 16.063H22.9053" stroke="#333333" stroke-width="1.35135" stroke-miterlimit="10"/>
<path d="M26.9459 4.36036C26.8899 3.32028 27.1642 2.28913 27.7297 1.41441C27.8829 1.23423 27.7297 1 27.4144 1H4.51351C2.58559 1 1 2.17117 1 3.59459V5.11712C1 6.54054 2.58559 7.71171 4.51351 7.71171H27.4144C27.7117 7.71171 27.8829 7.47748 27.7297 7.2973C27.1655 6.42537 26.8912 5.39747 26.9459 4.36036Z" fill="white" stroke="#333333" stroke-width="1.35135" stroke-miterlimit="10"/>
<path d="M16.6228 19.6306H12.9922" stroke="#333333" stroke-width="1.35135" stroke-miterlimit="10"/>
<path d="M34.4876 28.0181V33.2613C34.4876 34.9338 33.8232 36.5379 32.6405 37.7205C31.4579 38.9032 29.8538 39.5676 28.1813 39.5676C26.5088 39.5676 24.9047 38.9032 23.7221 37.7205C22.5394 36.5379 21.875 34.9338 21.875 33.2613V28.0181H34.4876Z" fill="white" stroke="#333333" stroke-width="1.35135" stroke-miterlimit="10"/>
<path d="M21.8477 28.018V24.9099C21.85 23.8434 22.2754 22.8214 23.0303 22.0681C23.7853 21.3149 24.8082 20.8918 25.8747 20.8918H30.4603C31.5267 20.8918 32.5497 21.3149 33.3046 22.0681C34.0596 22.8214 34.4849 23.8434 34.4873 24.9099V28.018H21.8477Z" fill="#C7CAFF" stroke="#333333" stroke-width="1.35135" stroke-miterlimit="10"/>
<path d="M30.8203 28.0181H40.1627" stroke="#333333" stroke-width="1.35135" stroke-miterlimit="10"/>
<path d="M26.1719 34.3152V30.6846" stroke="#333333" stroke-width="1.35135" stroke-miterlimit="10"/>
<path d="M30.1523 34.3152V30.6846" stroke="#333333" stroke-width="1.35135" stroke-miterlimit="10"/>
</svg>
