<svg viewBox="0 0 40 24" fill="none" xmlns="http://www.w3.org/2000/svg">
  <path d="M7.69242 9.51793C9.24928 9.50923 10.761 10.0406 11.97 11.0214C13.1791 12.0023 14.0107 13.372 14.3231 14.8972C14.6355 16.4224 14.4095 18.0088 13.6835 19.3861C12.9575 20.7633 11.7765 21.8463 10.3416 22.4504C8.90675 23.0546 7.30679 23.1426 5.81431 22.6994C4.32184 22.2562 3.02917 21.3093 2.15654 20.02C1.2839 18.7307 0.885279 17.1787 1.02858 15.6284C1.17188 14.0781 1.84823 12.6255 2.94242 11.5179C4.19828 10.2483 5.90666 9.529 7.69242 9.51793V9.51793Z" stroke="currentColor" stroke-width="1.5" stroke-linejoin="round"/>
  <path d="M31.9026 9.51809C33.2342 9.51447 34.5368 9.90589 35.6458 10.6428C36.7548 11.3798 37.6202 12.4291 38.1326 13.6581C38.6906 14.9926 38.8045 16.4711 38.4574 17.8753C38.1104 19.2795 37.3208 20.5348 36.2054 21.4556C35.09 22.3765 33.7079 22.9141 32.2634 22.989C30.8189 23.0639 29.3886 22.6722 28.184 21.8716C26.9793 21.0711 26.0641 19.9042 25.5736 18.5435C25.0832 17.1828 25.0435 15.7003 25.4604 14.3153C25.8773 12.9303 26.7287 11.7161 27.8889 10.8522C29.049 9.98835 30.4562 9.5206 31.9026 9.51809V9.51809Z" stroke="currentColor" stroke-width="1.5" stroke-linejoin="round"/>
  <path d="M14.4323 16.218H20.5323L11.1323 1.68799" stroke="currentColor" stroke-width="1.5" stroke-linejoin="round"/>
  <path d="M31.9126 16.218L26.3326 5.24805H13.2726L7.70264 16.218H14.4326" stroke="currentColor" stroke-width="1.5" stroke-linejoin="round"/>
  <path d="M20.5322 16.218L26.3322 5.24805" stroke="currentColor" stroke-width="1.5" stroke-linejoin="round"/>
  <path d="M26.3325 5.24799V1.68799H30.0825" stroke="currentColor" stroke-width="1.5" stroke-linejoin="round"/>
  <path d="M8.85254 1.68799H15.7625" stroke="currentColor" stroke-width="1.5" stroke-linejoin="round"/>
</svg>
