<svg width="42" height="49" viewBox="0 0 42 49" fill="none" xmlns="http://www.w3.org/2000/svg">
<path d="M28.1141 10.2139C26.6016 10.2448 25.1615 10.8675 24.1029 11.9482C23.0443 13.029 22.4515 14.4816 22.4519 15.9945C22.4498 14.4808 21.855 13.0281 20.795 11.9477C19.7349 10.8672 18.2939 10.2448 16.7805 10.2139C16.0039 10.2163 15.2354 10.3717 14.5189 10.6714C13.8024 10.9711 13.152 11.4091 12.605 11.9604C12.058 12.5116 11.625 13.1654 11.3308 13.8841C11.0367 14.6029 10.8871 15.3726 10.8907 16.1492V15.9762C10.8907 19.7723 12.4838 21.0195 15.2785 23.5866L22.4519 30.1683L29.6162 23.5866C32.4109 21.0195 34.0039 19.7723 34.0039 15.9762V16.1492C34.0075 15.3726 33.858 14.6029 33.5638 13.8841C33.2697 13.1654 32.8367 12.5116 32.2896 11.9604C31.7426 11.4091 31.0922 10.9711 30.3757 10.6714C29.6593 10.3717 28.8907 10.2163 28.1141 10.2139Z" fill="white" stroke="#333333" stroke-width="1.36549" stroke-miterlimit="10"/>
<path d="M20.268 34.3466L8.04228 30.3867C7.3283 30.198 6.57658 30.2058 5.86668 30.4094C5.15677 30.6129 4.51509 31.0045 4.00952 31.5428L0.140625 35.5028V48.8027L7.59622 46.3721C8.60477 45.9263 9.71543 45.7627 10.8097 45.8987L19.3759 46.9365C20.8308 47.1126 22.3006 46.7605 23.5179 45.9442L37.4641 36.5678C38.0557 36.1708 38.4686 35.5582 38.6149 34.8609C38.7612 34.1637 38.6291 33.4368 38.247 32.8355C38.0537 32.5327 37.8025 32.2709 37.5079 32.0653C37.2132 31.8597 36.8809 31.7143 36.53 31.6373C36.179 31.5604 35.8163 31.5534 35.4627 31.6169C35.1091 31.6803 34.7714 31.8129 34.4691 32.0071L23.4906 39.1441" fill="#E3A612"/>
<path d="M10.6445 37.1233L20.4761 40.1273C21.1532 40.3173 21.8774 40.2388 22.4981 39.9082C23.1187 39.5775 23.5879 39.0201 23.8079 38.3522C23.9182 38.0097 23.9598 37.6488 23.9302 37.2903C23.9006 36.9317 23.8005 36.5825 23.6355 36.2627C23.4706 35.943 23.2441 35.6589 22.969 35.427C22.6939 35.1951 22.3758 35.0197 22.0327 34.9112L20.2121 34.3376" fill="#E3A612"/>
<path d="M10.6445 37.1233L20.4761 40.1274C21.1532 40.3174 21.8775 40.2389 22.4981 39.9082C23.1187 39.5775 23.5879 39.0202 23.8079 38.3522V38.3522" stroke="#333333" stroke-width="1.36549" stroke-miterlimit="10"/>
<path d="M22.4531 3.80517V0" stroke="#333333" stroke-width="1.36549" stroke-miterlimit="10"/>
<path d="M22.4531 3.80517V0" stroke="#333333" stroke-width="1.36549" stroke-miterlimit="10"/>
<path d="M33.4766 8.37499L36.1711 5.68042" stroke="#333333" stroke-width="1.36549" stroke-miterlimit="10"/>
<path d="M33.4766 8.37499L36.1711 5.68042" stroke="#333333" stroke-width="1.36549" stroke-miterlimit="10"/>
<path d="M11.4211 8.37499L8.72656 5.68042" stroke="#333333" stroke-width="1.36549" stroke-miterlimit="10"/>
<path d="M11.4211 8.37499L8.72656 5.68042" stroke="#333333" stroke-width="1.36549" stroke-miterlimit="10"/>
<path d="M6.84943 19.4082H3.03516" stroke="#333333" stroke-width="1.36549" stroke-miterlimit="10"/>
<path d="M6.84943 19.4082H3.03516" stroke="#333333" stroke-width="1.36549" stroke-miterlimit="10"/>
<path d="M38.0469 19.4082H41.8612" stroke="#333333" stroke-width="1.36549" stroke-miterlimit="10"/>
<path d="M29.418 13.8733C30.1084 14.5675 30.496 15.5068 30.496 16.4859C30.496 17.465 30.1084 18.4043 29.418 19.0986" stroke="#333333" stroke-width="1.36549" stroke-miterlimit="10"/>
</svg>
