<svg viewBox="0 0 32 37" fill="none" xmlns="http://www.w3.org/2000/svg">
  <path d="M12.0701 21.3601H20.3801" stroke="currentColor" stroke-width="1.5" stroke-miterlimit="10"/>
  <path d="M17.9499 6.82V2.91C17.9499 2.65918 17.9005 2.41081 17.8045 2.17907C17.7085 1.94734 17.5678 1.73679 17.3905 1.55943C17.2131 1.38207 17.0025 1.24138 16.7708 1.14539C16.5391 1.0494 16.2907 1 16.0399 1C15.5341 1.00263 15.0498 1.2047 14.6922 1.56233C14.3346 1.91996 14.1325 2.40425 14.1299 2.91V6.82" stroke="currentColor" stroke-width="1.5" stroke-miterlimit="10"/>
  <path d="M15.3501 14.9499L6.0201 31.8699C5.72254 32.4077 5.22453 32.8062 4.63453 32.9785C4.04453 33.1508 3.41034 33.083 2.8701 32.7899C2.60185 32.6445 2.36507 32.4474 2.17342 32.21C1.98178 31.9726 1.83906 31.6995 1.75353 31.4067C1.66799 31.1138 1.64132 30.8068 1.67505 30.5036C1.70879 30.2004 1.80227 29.9068 1.9501 29.6399L11.8101 11.6399" stroke="currentColor" stroke-width="1.5" stroke-miterlimit="10"/>
  <path d="M20.27 11.6599L30.14 29.6599C30.4358 30.201 30.5044 30.8373 30.331 31.429C30.1575 32.0207 29.7561 32.5192 29.215 32.8149C28.674 33.1106 28.0377 33.1793 27.446 33.0058C26.8543 32.8324 26.3558 32.431 26.06 31.8899L16.8 14.9899" stroke="currentColor" stroke-width="1.5" stroke-miterlimit="10"/>
  <path d="M16.04 15.0501C18.4369 15.0501 20.38 13.107 20.38 10.7101C20.38 8.3132 18.4369 6.37012 16.04 6.37012C13.643 6.37012 11.7 8.3132 11.7 10.7101C11.7 13.107 13.643 15.0501 16.04 15.0501Z" stroke="currentColor" stroke-width="1.5" stroke-miterlimit="10"/>
  <path d="M29.22 32.79L31.09 35.98" stroke="currentColor" stroke-width="1.5" stroke-miterlimit="10"/>
  <path d="M2.87 32.79L1 35.98" stroke="currentColor" stroke-width="1.5" stroke-miterlimit="10"/>
</svg>
