<svg viewBox="0 0 47 55" fill="none" xmlns="http://www.w3.org/2000/svg">
  <path d="M31.7313 11.22C30.0698 11.2541 28.4879 11.9381 27.325 13.1253C26.1621 14.3124 25.511 15.9082 25.5113 17.57C25.5089 15.9022 24.8514 14.302 23.6805 13.1143C22.5096 11.9265 20.919 11.2463 19.2513 11.22C18.3982 11.2227 17.554 11.3935 16.7669 11.7227C15.9798 12.0519 15.2654 12.533 14.6645 13.1386C14.0636 13.7442 13.5879 14.4623 13.2648 15.2518C12.9417 16.0414 12.7774 16.8869 12.7813 17.74V17.55C12.7813 21.72 14.5313 23.09 17.6013 25.91L25.4813 33.14L33.3513 25.91C36.4513 23.09 38.2513 21.72 38.2513 17.55V17.74C38.2553 16.8827 38.0894 16.0331 37.7631 15.2403C37.4368 14.4474 36.9567 13.7271 36.3505 13.1208C35.7443 12.5146 35.0239 12.0345 34.2311 11.7083C33.4383 11.382 32.5886 11.2161 31.7313 11.22V11.22Z" stroke="currentColor" stroke-width="1.5" stroke-miterlimit="10"/>
  <path d="M23.11 37.7299L9.68 33.3799C8.89657 33.1714 8.07136 33.1784 7.29159 33.4002C6.51181 33.622 5.80644 34.0503 5.25 34.6399L1 38.9999V53.6099L9.19 50.9399C10.2979 50.4502 11.518 50.2704 12.72 50.4199L22.13 51.5599C23.7283 51.7533 25.3429 51.3665 26.68 50.4699L42.03 40.1699C42.6798 39.7337 43.1335 39.0608 43.2942 38.2949C43.4548 37.5289 43.3098 36.7304 42.89 36.0699C42.6776 35.7372 42.4017 35.4497 42.0781 35.2239C41.7544 34.998 41.3894 34.8382 41.0038 34.7537C40.6183 34.6692 40.2199 34.6615 39.8314 34.7312C39.443 34.8009 39.0721 34.9466 38.74 35.1599L26.65 42.9999" stroke="currentColor" stroke-width="1.5" stroke-miterlimit="10"/>
  <path d="M12.5391 40.78L23.3391 44.08C24.0883 44.3005 24.894 44.2202 25.5849 43.856C26.2758 43.4919 26.7975 42.8727 27.0391 42.13V42.13C27.1603 41.7538 27.2059 41.3573 27.1734 40.9634C27.1409 40.5695 27.0309 40.1859 26.8497 39.8347C26.6685 39.4834 26.4197 39.1714 26.1175 38.9166C25.8154 38.6618 25.4659 38.4693 25.0891 38.35L23.0891 37.72" stroke="currentColor" stroke-width="1.5" stroke-miterlimit="10"/>
  <path d="M25.5117 4.18V0" stroke="currentColor" stroke-width="1.5" stroke-miterlimit="10"/>
  <path d="M25.5117 4.18V0" stroke="currentColor" stroke-width="1.5" stroke-miterlimit="10"/>
  <path d="M37.6211 9.19999L40.5811 6.23999" stroke="currentColor" stroke-width="1.5" stroke-miterlimit="10"/>
  <path d="M37.6211 9.19999L40.5811 6.23999" stroke="currentColor" stroke-width="1.5" stroke-miterlimit="10"/>
  <path d="M13.3897 9.19999L10.4297 6.23999" stroke="currentColor" stroke-width="1.5" stroke-miterlimit="10"/>
  <path d="M13.3897 9.19999L10.4297 6.23999" stroke="currentColor" stroke-width="1.5" stroke-miterlimit="10"/>
  <path d="M8.36969 21.3201H4.17969" stroke="currentColor" stroke-width="1.5" stroke-miterlimit="10"/>
  <path d="M8.36969 21.3201H4.17969" stroke="currentColor" stroke-width="1.5" stroke-miterlimit="10"/>
  <path d="M42.6406 21.3201H46.8306" stroke="currentColor" stroke-width="1.5" stroke-miterlimit="10"/>
  <path d="M33.1602 15.24C33.9186 16.0026 34.3443 17.0344 34.3443 18.11C34.3443 19.1855 33.9186 20.2174 33.1602 20.98" stroke="currentColor" stroke-width="1.5" stroke-miterlimit="10"/>
</svg>
