<svg viewBox="0 0 47 33" fill="none" xmlns="http://www.w3.org/2000/svg">
  <path d="M31.6598 27.9299H15.0698" stroke="currentColor" stroke-width="1.5" stroke-miterlimit="10"/>
  <path d="M7.3 27.9301H3.61C2.91778 27.9301 2.25392 27.6551 1.76445 27.1657C1.27498 26.6762 1 26.0123 1 25.3201V11.2301C0.999995 10.537 1.27466 9.87207 1.76384 9.38101C2.25303 8.88996 2.91687 8.61275 3.61 8.61011H43.12C43.8123 8.61537 44.4746 8.89341 44.9633 9.3839C45.4519 9.87439 45.7274 10.5378 45.73 11.2301V25.3201C45.7274 26.0115 45.4515 26.6738 44.9626 27.1627C44.4737 27.6516 43.8114 27.9275 43.12 27.9301H39.43" stroke="currentColor" stroke-width="1.5" stroke-miterlimit="10"/>
  <path d="M11.1798 24.0601C11.9485 24.0569 12.7006 24.2832 13.3398 24.7101C13.9848 25.1344 14.4877 25.7423 14.7836 26.4554C15.0795 27.1684 15.1548 27.9538 14.9998 28.7101C14.8531 29.4673 14.4841 30.1636 13.9398 30.7101C13.3851 31.2381 12.6877 31.5915 11.9339 31.7266C11.1801 31.8617 10.4033 31.7725 9.6998 31.4701C8.99277 31.1884 8.38419 30.705 7.9498 30.0801C7.52859 29.4419 7.3027 28.6947 7.2998 27.9301C7.30245 26.9028 7.7124 25.9185 8.43976 25.193C9.16711 24.4675 10.1525 24.0601 11.1798 24.0601V24.0601Z" stroke="currentColor" stroke-width="1.5" stroke-miterlimit="10"/>
  <path d="M35.5399 24.06C36.3038 24.0645 37.0493 24.295 37.6824 24.7225C38.3155 25.1499 38.808 25.7551 39.0977 26.4619C39.3875 27.1687 39.4616 27.9454 39.3108 28.6943C39.1599 29.4431 38.7908 30.1306 38.2499 30.67C37.7038 31.1979 37.0154 31.5547 36.2693 31.6968C35.5232 31.839 34.7519 31.7601 34.0499 31.47C33.4619 31.2255 32.943 30.84 32.5392 30.3475C32.1354 29.8549 31.8591 29.2706 31.7346 28.646C31.61 28.0214 31.6412 27.3758 31.8252 26.7661C32.0093 26.1564 32.3406 25.6014 32.7899 25.15C33.5226 24.4269 34.5104 24.021 35.5399 24.02V24.06Z" stroke="currentColor" stroke-width="1.5" stroke-miterlimit="10"/>
  <path d="M24.0502 8.61L16.4302 1" stroke="currentColor" stroke-width="1.5" stroke-miterlimit="10"/>
  <path d="M30.5809 8.61L22.9609 1" stroke="currentColor" stroke-width="1.5" stroke-miterlimit="10"/>
  <path d="M1 18.27H45.73" stroke="currentColor" stroke-width="1.5" stroke-miterlimit="10"/>
  <path d="M35.5498 8.61011V18.2701" stroke="currentColor" stroke-width="1.5" stroke-miterlimit="10"/>
  <path d="M23.3599 8.61011V18.2701" stroke="currentColor" stroke-width="1.5" stroke-miterlimit="10"/>
  <path d="M11.1802 8.61011V18.2701" stroke="currentColor" stroke-width="1.5" stroke-miterlimit="10"/>
</svg>
