<svg viewBox="0 0 56 44" fill="none" xmlns="http://www.w3.org/2000/svg">
  <path d="M34.9922 32.2898V42.6798H39.3522V30.5698" stroke="currentColor" stroke-width="1.5" stroke-miterlimit="10"/>
  <path d="M28.8523 32.0698C30.0104 32.3783 31.204 32.533 32.4023 32.5298C35.0246 32.5689 37.5938 31.7894 39.7523 30.2998L39.8623 30.3598C44.6123 32.8598 49.8623 32.1898 51.6523 28.8498C52.8723 26.5498 52.0923 23.5798 49.9323 21.1398C53.9323 19.4498 56.0923 15.2598 54.6923 11.6598C53.2923 8.05981 49.0323 6.44981 44.9823 7.80981C43.8151 5.7494 42.1338 4.02672 40.1023 2.80981C34.5323 -0.590185 27.8023 0.309814 25.1023 4.80981C24.0976 6.49595 23.7221 8.48331 24.0423 10.4198C20.9523 10.4198 18.2623 11.8698 17.2523 14.3698C17.0763 14.7988 16.9586 15.2495 16.9023 15.7098" stroke="currentColor" stroke-width="1.5" stroke-miterlimit="10"/>
  <path d="M28.8517 42.6799H4.76172V22.6499L16.8117 15.6799L28.8517 22.6499V42.6799Z" stroke="currentColor" stroke-width="1.5" stroke-miterlimit="10"/>
  <path d="M0.632812 25.0499L16.8128 15.6799" stroke="currentColor" stroke-width="1.5" stroke-miterlimit="10"/>
  <path d="M32.9925 25.0499L16.8125 15.6799" stroke="currentColor" stroke-width="1.5" stroke-miterlimit="10"/>
  <path d="M20.2533 32.7297H13.3633V42.6897H20.2533V32.7297Z" stroke="currentColor" stroke-width="1.5" stroke-miterlimit="10"/>
  <path d="M16.813 27.2597C18.2047 27.2597 19.333 26.1315 19.333 24.7397C19.333 23.348 18.2047 22.2197 16.813 22.2197C15.4212 22.2197 14.293 23.348 14.293 24.7397C14.293 26.1315 15.4212 27.2597 16.813 27.2597Z" stroke="currentColor" stroke-width="1.5" stroke-miterlimit="10"/>
  <path d="M7.79297 20.8999V13.1799H11.243V18.8999L7.79297 20.8999Z" stroke="currentColor" stroke-width="1.5" stroke-miterlimit="10"/>
  <path d="M16.8125 39.7197V35.6897" stroke="currentColor" stroke-width="1.5" stroke-miterlimit="10"/>
</svg>
