<svg viewBox="0 0 33 35" fill="none" xmlns="http://www.w3.org/2000/svg">
  <path d="M13.62 26.24C20.5898 26.24 26.24 20.5898 26.24 13.62C26.24 6.65017 20.5898 1 13.62 1C6.65017 1 1 6.65017 1 13.62C1 20.5898 6.65017 26.24 13.62 26.24Z" stroke="currentColor" stroke-width="1.5" stroke-miterlimit="10"/>
  <path d="M23.2499 21.5801L31.3599 29.6901C31.5786 29.9087 31.752 30.1683 31.8703 30.454C31.9887 30.7397 32.0496 31.0459 32.0496 31.3551C32.0496 31.6643 31.9887 31.9705 31.8703 32.2562C31.752 32.5419 31.5786 32.8014 31.3599 33.0201C31.1413 33.2387 30.8817 33.4122 30.596 33.5305C30.3103 33.6488 30.0041 33.7097 29.6949 33.7097C29.3857 33.7097 29.0795 33.6488 28.7938 33.5305C28.5081 33.4122 28.2486 33.2387 28.0299 33.0201L19.9199 24.9101" stroke="currentColor" stroke-width="1.5" stroke-miterlimit="10"/>
  <path d="M20.5202 13.6199C18.6102 15.5299 16.1202 17.6199 13.6202 17.6199C11.1202 17.6199 8.62021 15.6199 6.72021 13.6199C8.63021 11.7199 11.1302 9.66992 13.6202 9.66992C16.1102 9.66992 18.6102 11.7199 20.5202 13.6199Z" stroke="currentColor" stroke-width="1.5" stroke-miterlimit="10"/>
  <path d="M13.6198 14.44C14.0727 14.44 14.4398 14.0729 14.4398 13.62C14.4398 13.1672 14.0727 12.8 13.6198 12.8C13.1669 12.8 12.7998 13.1672 12.7998 13.62C12.7998 14.0729 13.1669 14.44 13.6198 14.44Z" stroke="currentColor" stroke-width="1.5" stroke-miterlimit="10"/>
</svg>
