<svg width="49" height="45" viewBox="0 0 49 45" fill="none" xmlns="http://www.w3.org/2000/svg">
<path d="M35.5158 9.26758V15.0375H13.4957V9.26758H1V16.7074V44.0137H48V16.7074V9.26758H35.5158Z" fill="white" stroke="black" stroke-width="1.5" stroke-miterlimit="10"/>
<path d="M13.4957 9.26709H1V8.173L7.2421 2L13.4957 8.173V9.26709Z" fill="#E46054" stroke="#E46054" stroke-width="1.5" stroke-miterlimit="10"/>
<path d="M6.98828 18.2499V13.6201" stroke="black" stroke-width="1.5" stroke-miterlimit="10"/>
<path d="M41.7578 18.2499V13.6201" stroke="black" stroke-width="1.5" stroke-miterlimit="10"/>
<path d="M6.98828 28.7545V24.1248" stroke="black" stroke-width="1.5" stroke-miterlimit="10"/>
<path d="M41.7578 28.7545V24.1248" stroke="black" stroke-width="1.5" stroke-miterlimit="10"/>
<path d="M6.98828 39.2572V34.616" stroke="black" stroke-width="1.5" stroke-miterlimit="10"/>
<path d="M24.5078 28.7547V24.125" stroke="black" stroke-width="1.5" stroke-miterlimit="10"/>
<path d="M24.5078 39.257V34.6157" stroke="black" stroke-width="1.5" stroke-miterlimit="10"/>
<path d="M16.1562 28.7545V24.1248" stroke="black" stroke-width="1.5" stroke-miterlimit="10"/>
<path d="M16.1562 39.2572V34.616" stroke="black" stroke-width="1.5" stroke-miterlimit="10"/>
<path d="M33.1328 28.7547V24.125" stroke="black" stroke-width="1.5" stroke-miterlimit="10"/>
<path d="M33.1328 39.257V34.6157" stroke="black" stroke-width="1.5" stroke-miterlimit="10"/>
<path d="M41.7578 39.2572V34.616" stroke="black" stroke-width="1.5" stroke-miterlimit="10"/>
<path d="M35.5162 15.0374H13.4961V20.2084H35.5162V15.0374Z" fill="#E46054" stroke="#E46054" stroke-width="1.5" stroke-miterlimit="10"/>
<path d="M47.9998 9.26709V8.173L41.6886 2L35.5156 8.173V9.26709H47.9998Z" fill="#E46054" stroke="#E46054" stroke-width="1.5" stroke-miterlimit="10"/>
</svg>
