<svg viewBox="0 0 31 27" fill="none" xmlns="http://www.w3.org/2000/svg">
  <path d="M22.4601 1C20.5662 1.03678 18.7631 1.81842 17.4416 3.17551C16.12 4.53261 15.3865 6.35581 15.4001 8.25C15.4136 6.35581 14.6801 4.53261 13.3586 3.17551C12.037 1.81842 10.2339 1.03678 8.34006 1C7.37269 1.00262 6.41532 1.19592 5.52271 1.56885C4.63011 1.94177 3.81977 2.48701 3.13806 3.17336C2.45634 3.85972 1.91663 4.67374 1.54977 5.56885C1.18291 6.46397 0.996115 7.42263 1.00006 8.39V8.17C1.00006 12.9 3.00006 14.46 6.46006 17.66L15.4001 25.86L24.3401 17.66C27.8201 14.46 29.8001 12.9 29.8001 8.17V8.39C29.804 7.42263 29.6172 6.46397 29.2504 5.56885C28.8835 4.67374 28.3438 3.85972 27.6621 3.17336C26.9804 2.48701 26.17 1.94177 25.2774 1.56885C24.3848 1.19592 23.4274 1.00262 22.4601 1V1Z" stroke="currentColor" stroke-width="1.5" stroke-miterlimit="10"/>
  <path d="M24.0801 5.56006C24.5079 5.98729 24.8473 6.49468 25.0789 7.05321C25.3105 7.61173 25.4297 8.21043 25.4297 8.81506C25.4297 9.41969 25.3105 10.0184 25.0789 10.5769C24.8473 11.1354 24.5079 11.6428 24.0801 12.0701" stroke="currentColor" stroke-width="1.5" stroke-miterlimit="10"/>
</svg>
