<svg viewBox="0 0 43 40" fill="none" xmlns="http://www.w3.org/2000/svg">
  <path d="M30.97 7.4098V13.3698H11.85V7.4098L6.42 2.0498L1 7.4098V14.8198V38.5298H41.81V14.8198V7.4098L36.33 2.0498L30.97 7.4098Z" stroke="currentColor" stroke-width="1.5" stroke-miterlimit="10"/>
  <path d="M1 8.35986H11.85" stroke="currentColor" stroke-width="1.5" stroke-miterlimit="10"/>
  <path d="M6.19922 16.1599V12.1399" stroke="currentColor" stroke-width="1.5" stroke-miterlimit="10"/>
  <path d="M36.3906 16.1599V12.1399" stroke="currentColor" stroke-width="1.5" stroke-miterlimit="10"/>
  <path d="M6.19922 25.2798V21.2598" stroke="currentColor" stroke-width="1.5" stroke-miterlimit="10"/>
  <path d="M36.3906 25.2798V21.2598" stroke="currentColor" stroke-width="1.5" stroke-miterlimit="10"/>
  <path d="M6.19922 34.3999V30.3699" stroke="currentColor" stroke-width="1.5" stroke-miterlimit="10"/>
  <path d="M21.4102 25.2798V21.2598" stroke="currentColor" stroke-width="1.5" stroke-miterlimit="10"/>
  <path d="M21.4102 34.3999V30.3699" stroke="currentColor" stroke-width="1.5" stroke-miterlimit="10"/>
  <path d="M14.1602 25.2798V21.2598" stroke="currentColor" stroke-width="1.5" stroke-miterlimit="10"/>
  <path d="M14.1602 34.3999V30.3699" stroke="currentColor" stroke-width="1.5" stroke-miterlimit="10"/>
  <path d="M28.8984 25.2798V21.2598" stroke="currentColor" stroke-width="1.5" stroke-miterlimit="10"/>
  <path d="M28.8984 34.3999V30.3699" stroke="currentColor" stroke-width="1.5" stroke-miterlimit="10"/>
  <path d="M36.3906 34.3999V30.3699" stroke="currentColor" stroke-width="1.5" stroke-miterlimit="10"/>
  <path d="M30.9688 8.35986H41.8088" stroke="currentColor" stroke-width="1.5" stroke-miterlimit="10"/>
  <path d="M30.9716 13.3699H11.8516V17.8599H30.9716V13.3699Z" stroke="currentColor" stroke-width="1.5" stroke-miterlimit="10"/>
</svg>
