<svg viewBox="0 0 32 34" fill="none" xmlns="http://www.w3.org/2000/svg">
  <path d="M8.38022 12.21V21.37H3.48022V12.68" stroke="currentColor" stroke-width="1.5" stroke-miterlimit="10"/>
  <path d="M23.6102 12.3401V21.3701H28.5102V12.6801" stroke="currentColor" stroke-width="1.5" stroke-miterlimit="10"/>
  <path d="M3.62028 1.01006L1.00028 9.60006C0.989434 10.4111 1.29794 11.1939 1.85921 11.7795C2.42047 12.3651 3.18949 12.7065 4.00028 12.7301C4.77276 12.7472 5.52207 12.4657 6.09211 11.9441C6.66215 11.4225 7.00896 10.701 7.06028 9.93006V9.93006C7.06028 10.7257 7.37635 11.4888 7.93896 12.0514C8.50157 12.614 9.26463 12.9301 10.0603 12.9301C10.8559 12.9301 11.619 12.614 12.1816 12.0514C12.7442 11.4888 13.0603 10.7257 13.0603 9.93006V9.93006C13.0603 10.7257 13.3763 11.4888 13.939 12.0514C14.5016 12.614 15.2646 12.9301 16.0603 12.9301C16.8559 12.9301 17.619 12.614 18.1816 12.0514C18.7442 11.4888 19.0603 10.7257 19.0603 9.93006V9.93006C19.0603 10.7257 19.3763 11.4888 19.939 12.0514C20.5016 12.614 21.2646 12.9301 22.0603 12.9301C22.8559 12.9301 23.619 12.614 24.1816 12.0514C24.7442 11.4888 25.0603 10.7257 25.0603 9.93006V9.93006C25.0857 10.3234 25.1884 10.7079 25.3625 11.0616C25.5366 11.4152 25.7788 11.7311 26.075 11.9911C26.3713 12.2512 26.7159 12.4503 27.0891 12.5771C27.4624 12.7039 27.8569 12.7558 28.2503 12.7301C29.0602 12.704 29.8277 12.3618 30.3885 11.7767C30.9492 11.1917 31.2585 10.4104 31.2503 9.60006L28.5803 1.01006H3.63028C3.63028 1.01006 3.62028 1.00006 3.62028 1.01006Z" stroke="currentColor" stroke-width="1.5" stroke-miterlimit="10"/>
  <path d="M28.5102 21.3701H3.48022V32.6001H28.5102V21.3701Z" stroke="currentColor" stroke-width="1.5" stroke-miterlimit="10"/>
  <path d="M13.0903 9.93L13.6703 1" stroke="currentColor" stroke-width="1.5" stroke-miterlimit="10"/>
  <path d="M19.1303 9.93L18.5403 1" stroke="currentColor" stroke-width="1.5" stroke-miterlimit="10"/>
  <path d="M7.03027 9.93L8.32027 1" stroke="currentColor" stroke-width="1.5" stroke-miterlimit="10"/>
  <path d="M25.1502 9.93L23.8702 1" stroke="currentColor" stroke-width="1.5" stroke-miterlimit="10"/>
</svg>
