<svg viewBox="0 0 36 38" fill="none" xmlns="http://www.w3.org/2000/svg">
  <path d="M17.0601 28.2383V37.2083H20.8201V26.7483" stroke="currentColor" stroke-width="1.5" stroke-miterlimit="10"/>
  <path d="M11.76 28.0484C13.3381 28.5531 15.0131 28.6776 16.6485 28.4117C18.2838 28.1458 19.8331 27.497 21.17 26.5184H21.27C25.37 28.6784 29.93 28.0984 31.45 25.2184C32.5 23.2184 31.82 20.6684 29.96 18.5584C33.44 17.1084 35.27 13.4784 34.07 10.3784C32.87 7.27836 29.18 5.87836 25.69 7.04836C24.6768 5.27311 23.2235 3.78875 21.47 2.73836C16.67 -0.141642 10.85 0.628358 8.49 4.51836C7.61809 5.97113 7.29527 7.68812 7.58 9.35836C7.58 9.35836 1 10.2584 1 16.0684C1 22.5884 7.16 22.4384 7.16 22.4384C7.34107 23.7045 7.86557 24.8968 8.67652 25.8858C9.48748 26.8748 10.5539 27.6227 11.76 28.0484V28.0484Z" stroke="currentColor" stroke-width="1.5" stroke-miterlimit="10"/>
</svg>
