<svg viewBox="0 0 27 31" fill="none" xmlns="http://www.w3.org/2000/svg">
  <path d="M8.5 13.23L17.86 7.26001" stroke="currentColor" stroke-width="1.5" stroke-miterlimit="10"/>
  <path d="M17.86 23.5801L8.5 17.6101" stroke="currentColor" stroke-width="1.5" stroke-miterlimit="10"/>
  <path d="M5.07 19.4901C7.3178 19.4901 9.14 17.6679 9.14 15.4201C9.14 13.1723 7.3178 11.3501 5.07 11.3501C2.8222 11.3501 1 13.1723 1 15.4201C1 17.6679 2.8222 19.4901 5.07 19.4901Z" stroke="currentColor" stroke-width="1.5" stroke-miterlimit="10"/>
  <path d="M21.3 9.14C23.5478 9.14 25.37 7.3178 25.37 5.07C25.37 2.8222 23.5478 1 21.3 1C19.0522 1 17.23 2.8222 17.23 5.07C17.23 7.3178 19.0522 9.14 21.3 9.14Z" stroke="currentColor" stroke-width="1.5" stroke-miterlimit="10"/>
  <path d="M21.3 29.84C23.5478 29.84 25.37 28.0177 25.37 25.77C25.37 23.5222 23.5478 21.7 21.3 21.7C19.0522 21.7 17.23 23.5222 17.23 25.77C17.23 28.0177 19.0522 29.84 21.3 29.84Z" stroke="currentColor" stroke-width="1.5" stroke-miterlimit="10"/>
</svg>
