<svg version="1.2" xmlns="http://www.w3.org/2000/svg" viewBox="0 0 48 48" width="48" height="48">
	<title>icon-house-with-tree-colored-svg</title>
	<style>
		.s0 { fill: none;stroke: #333333;stroke-width: 1.3 } 
		.s1 { fill: #237c36;stroke: #237c36;stroke-width: 1.3 } 
		.s2 { fill: #ffffff;stroke: #333333;stroke-width: 1.3 } 
		.s3 { fill: #237c36 } 
		.s4 { fill: #c4efce } 
		.s5 { fill: #333333 } 
	</style>
	<path id="Layer" class="s0" d="m33.7 31v10.2h-3.7v-8.8"/>
	<path id="Layer" class="s1" d="m14.6 18.4q0-0.6 0.3-1.1c0.8-2.1 3.1-3.3 5.8-3.4-0.3-1.6 0-3.3 0.9-4.7 2.3-3.8 8-4.6 12.7-1.7 1.7 1 3.1 2.5 4.1 4.2 3.5-1.1 7.1 0.3 8.3 3.3 1.2 3-0.6 6.6-4.1 8 1.9 2.1 2.5 4.6 1.5 6.5-1.5 2.9-5.9 3.4-10 1.3h-0.1c-1.8 1.2-4 1.9-6.2 1.8q-1.6 0-3.1-0.3v-8z"/>
	<path id="Layer" class="s2" d="m24.7 41.2h-20.4v-16.9l10.2-5.9 10.2 5.9z"/>
	<path id="Layer" class="s0" d="m0.8 26.3l13.7-7.9"/>
	<path id="Layer" class="s0" d="m28.3 26.3l-13.8-7.9"/>
	<path id="Layer" class="s3" d="m11.6 32.8h5.8v7.8h-5.8z"/>
	<path id="Layer" class="s4" d="m14.5 28.8c-0.5 0-1.1-0.1-1.5-0.4-0.5-0.4-0.9-0.8-1.1-1.3-0.2-0.5-0.2-1.1-0.1-1.6 0.1-0.5 0.3-1 0.7-1.4 0.4-0.4 0.9-0.7 1.5-0.8 0.5-0.1 1.1 0 1.6 0.2 0.5 0.2 0.9 0.5 1.2 1 0.3 0.5 0.5 1 0.5 1.6 0 0.7-0.3 1.4-0.8 1.9-0.5 0.5-1.2 0.8-2 0.8z"/>
	<path id="Layer" fill-rule="evenodd" class="s5" d="m16.9 23.6c0.6 0.7 1 1.5 1 2.4 0 0.7-0.2 1.4-0.6 1.9-0.4 0.6-0.9 1-1.5 1.3-0.6 0.2-1.3 0.3-2 0.2-0.6-0.2-1.2-0.5-1.7-1-0.5-0.4-0.8-1.1-0.9-1.7-0.2-0.7-0.1-1.3 0.2-2 0.2-0.6 0.6-1.1 1.2-1.5 0.6-0.4 1.2-0.5 1.9-0.5 0.9 0 1.8 0.3 2.4 0.9zm-2.4 0.3q-0.4 0-0.8 0.2-0.4 0.1-0.7 0.4-0.3 0.3-0.5 0.7-0.2 0.4-0.2 0.9 0 0.6 0.4 1.1 0.4 0.6 1 0.8 0.6 0.3 1.2 0.2 0.6-0.2 1.1-0.6 0.5-0.5 0.6-1.1 0.1-0.6-0.1-1.2-0.3-0.6-0.8-1-0.5-0.4-1.2-0.4z"/>
	<path id="Layer" class="s0" d="m6.9 22.8v-6.5h2.9v4.8z"/>
	<path id="Layer" class="s0" d="m14.5 38.7v-3.4"/>
</svg>