<svg width="64" height="64" viewBox="0 0 64 64" fill="none" xmlns="http://www.w3.org/2000/svg">
<path d="M21.5342 38.2266C22.9959 38.2301 24.3965 38.8132 25.4288 39.848C26.4611 40.8829 27.0409 42.2849 27.0408 43.7466V50.1732H9.53418V43.7466C9.53418 42.2826 10.1157 40.8785 11.151 39.8433C12.1862 38.8081 13.5902 38.2266 15.0542 38.2266" stroke="#333333" stroke-width="1.5" stroke-miterlimit="10"/>
<path d="M17.933 26.52H18.6663C19.8828 26.52 21.0494 27.0033 21.9096 27.8634C22.7698 28.7236 23.253 29.8902 23.253 31.1067V35.04C23.253 35.6411 23.1342 36.2363 22.9034 36.7913C22.6725 37.3462 22.3343 37.8501 21.908 38.2739C21.4817 38.6977 20.9759 39.033 20.4196 39.2606C19.8632 39.4882 19.2674 39.6036 18.6663 39.6H17.9463C16.7228 39.6 15.5494 39.114 14.6842 38.2488C13.8191 37.3837 13.333 36.2102 13.333 34.9867V31.1067C13.333 30.5033 13.4521 29.9057 13.6834 29.3484C13.9148 28.791 14.2538 28.2848 14.6811 27.8587C15.1084 27.4326 15.6157 27.0951 16.1737 26.8653C16.7317 26.6356 17.3296 26.5183 17.933 26.52V26.52Z" stroke="#333333" stroke-width="1.5" stroke-miterlimit="10"/>
<path d="M48.9466 19.3067C49.6709 19.3049 50.3884 19.446 51.058 19.722C51.7277 19.9979 52.3363 20.4033 52.8491 20.9148C53.3618 21.4263 53.7686 22.034 54.0462 22.7029C54.3238 23.3719 54.4666 24.0891 54.4666 24.8133V31.24H36.96V24.8133C36.96 23.3529 37.5401 21.9522 38.5728 20.9195C39.6055 19.8868 41.0062 19.3067 42.4666 19.3067" stroke="#333333" stroke-width="1.5" stroke-miterlimit="10"/>
<path d="M45.3339 7.59969H46.0539C46.6585 7.59617 47.2578 7.71222 47.8174 7.94114C48.3769 8.17007 48.8857 8.50736 49.3144 8.93363C49.7432 9.35989 50.0834 9.86671 50.3156 10.4249C50.5478 10.9832 50.6673 11.5818 50.6673 12.1864V16.1197C50.6673 16.7185 50.5493 17.3115 50.3202 17.8647C50.091 18.418 49.7551 18.9207 49.3317 19.3441C48.9082 19.7675 48.4055 20.1034 47.8523 20.3326C47.2991 20.5617 46.7061 20.6797 46.1073 20.6797H45.3339C44.7269 20.6727 44.1273 20.5461 43.5694 20.3069C43.0114 20.0678 42.5062 19.7209 42.0826 19.2861C41.6589 18.8514 41.3253 18.3373 41.1007 17.7733C40.8762 17.2094 40.7651 16.6066 40.7739 15.9997V12.1864C40.7739 10.9745 41.2535 9.81189 42.1079 8.95248C42.9623 8.09308 44.1221 7.60673 45.3339 7.59969V7.59969Z" stroke="#333333" stroke-width="1.5" stroke-miterlimit="10"/>
<path d="M48.4273 35.2534C47.263 38.7867 45.0138 41.8627 41.9998 44.0436C38.9859 46.2244 35.3608 47.399 31.6406 47.4001" stroke="#333333" stroke-width="1.5" stroke-miterlimit="10"/>
<path d="M15.4404 22.6668C17.2408 18.563 20.5293 15.2938 24.6435 13.5175C28.7578 11.7411 33.3923 11.5896 37.6138 13.0934" stroke="#333333" stroke-width="1.5" stroke-miterlimit="10"/>
</svg>
