<svg viewBox="0 0 32 32" fill="none" xmlns="http://www.w3.org/2000/svg">
  <path d="M16.06 31.12C24.3774 31.12 31.12 24.3774 31.12 16.06C31.12 7.74259 24.3774 1 16.06 1C7.74259 1 1 7.74259 1 16.06C1 24.3774 7.74259 31.12 16.06 31.12Z" stroke="currentColor" stroke-width="1.5" stroke-miterlimit="10"/>
  <path d="M30.97 14.3101C30.97 14.3101 29.25 10.3101 25.79 12.8701C22.33 15.4301 22.73 19.1901 20.57 24.0801C19.3289 26.5849 17.7025 28.8795 15.75 30.8801" stroke="currentColor" stroke-width="1.5" stroke-miterlimit="10"/>
  <path d="M17.8 1.13989C17.8 1.13989 21.8 2.85989 19.24 6.31989C16.68 9.77989 12.92 9.37989 8.03 11.5399C5.53222 12.7827 3.24451 14.4091 1.25 16.3599" stroke="currentColor" stroke-width="1.5" stroke-miterlimit="10"/>
  <path d="M26.53 5.59009L5.82 26.2901" stroke="currentColor" stroke-width="1.5" stroke-miterlimit="10"/>
  <path d="M27.62 25.41C27.6997 22.6392 27.2161 19.8811 26.1985 17.3028C25.1809 14.7244 23.6505 12.3795 21.7 10.41C19.7317 8.4572 17.3872 6.92464 14.8087 5.90528C12.2302 4.88593 9.47153 4.40102 6.7 4.47998" stroke="currentColor" stroke-width="1.5" stroke-miterlimit="10"/>
</svg>
