<svg viewBox="0 0 29 36" fill="none" xmlns="http://www.w3.org/2000/svg">
  <path d="M13.9399 1V8.9H21.8399" stroke="currentColor" stroke-width="1.5" stroke-miterlimit="10"/>
  <path d="M21.84 17.01V8.9L13.94 1H1V32H13.08" stroke="currentColor" stroke-width="1.5" stroke-miterlimit="10"/>
  <path d="M20.71 16.2499C23.2007 16.8555 25.5824 17.8439 27.77 19.1799V19.1799L25.64 27.9499C25.2932 29.3667 24.5945 30.673 23.6086 31.748C22.6227 32.8231 21.3816 33.632 20 34.0999L17.87 34.8199C17.3107 35.018 16.7052 35.0459 16.13 34.8999C15.5581 34.7569 15.0381 34.4554 14.63 34.0299L13.08 32.3999C12.0712 31.3466 11.3451 30.0553 10.9692 28.6462C10.5933 27.237 10.5799 25.7557 10.93 24.3399L13.09 15.5799C15.6494 15.41 18.2196 15.636 20.71 16.2499V16.2499Z" stroke="currentColor" stroke-width="1.5" stroke-miterlimit="10"/>
  <path d="M17.2 19.4099L15.9 24.6999" stroke="currentColor" stroke-width="1.5" stroke-miterlimit="10"/>
  <path d="M22.21 20.6399L20.91 25.9299" stroke="currentColor" stroke-width="1.5" stroke-miterlimit="10"/>
  <path d="M15.13 27.54C15.7224 28.3388 16.575 28.9058 17.5408 29.1432C18.5065 29.3805 19.5248 29.2733 20.42 28.84" stroke="currentColor" stroke-width="1.5" stroke-miterlimit="10"/>
</svg>
