<svg version="1.2" xmlns="http://www.w3.org/2000/svg" viewBox="0 0 48 48">
	<title>icon-mask-with-ball-colored-svg</title>
	<style>
		.s0 { fill: #ffffff;stroke: #333333;stroke-width: 1.5 } 
		.s1 { fill: #ffffff } 
		.s2 { fill: none;stroke: #333333;stroke-width: 1.5 } 
		.s3 { fill: #e07d21;stroke: #e07d21;stroke-width: 1.5 } 
	</style>
	<path id="Layer" class="s0" d="m43.2 45.7h-33.6v-3.9h33.6z"/>
	<path id="Layer" class="s1" d="m30 14.7l13.6 4.6v2.9h-14.1"/>
	<path id="Layer" class="s2" d="m30 14.7l13.6 4.6v2.9h-14.1"/>
	<path id="Layer" class="s0" d="m39.3 38l1.5 3.8h-7.5l1.6-3.8v-7.2-8.6h4.4v10z"/>
	<path id="Layer" class="s1" d="m28.6 24.7v7.5 5.8l1.6 3.8h-7.5l1.5-3.8v-7.2-0.6"/>
	<path id="Layer" class="s2" d="m28.6 24.7v7.5 5.8l1.6 3.8h-7.5l1.5-3.8v-7.2-0.6"/>
	<path id="Layer" class="s1" d="m18 33.7v4.3l1.5 3.8h-7.4l1.5-3.8v-5.5"/>
	<path id="Layer" class="s2" d="m18 33.7v4.3l1.5 3.8h-7.4l1.5-3.8v-5.5"/>
	<path id="Layer" class="s3" d="m17 1c4.4 0 8.8 0.6 13 1.9v15.5c0 2.5-0.6 4.9-1.8 7.1-1.1 2.2-2.9 4-5 5.4l-3.2 2.1c-0.8 0.5-1.8 0.8-2.8 0.8-1.1 0-2-0.3-2.9-0.8l-3.2-2c-2.2-1.4-3.9-3.2-5.1-5.4-1.2-2.2-1.8-4.6-1.8-7.1v-15.5c4.1-1.3 8.5-2 12.8-2z"/>
	<path id="Layer" class="s2" d="m21.8 22.9c-1.3 1.1-3 1.7-4.7 1.7-1.7 0-3.3-0.6-4.6-1.7"/>
	<path id="Layer" class="s2" d="m15 14c-1.7-2.2-4.2-2.2-5.9 0"/>
	<path id="Layer" class="s2" d="m25.1 14c-1.7-2.2-4.2-2.2-5.9 0"/>
</svg>