<svg viewBox="0 0 33 33" fill="none" xmlns="http://www.w3.org/2000/svg">
  <path d="M16.39 31.78C24.8897 31.78 31.78 24.8897 31.78 16.39C31.78 7.89034 24.8897 1 16.39 1C7.89034 1 1 7.89034 1 16.39C1 24.8897 7.89034 31.78 16.39 31.78Z" stroke="currentColor" stroke-width="1.5" stroke-miterlimit="10"/>
  <path d="M25.14 3.73999L19.87 6.24999C18.9682 6.6857 18.208 7.36759 17.6771 8.21692C17.1463 9.06626 16.8665 10.0484 16.87 11.05V16.75C16.8752 17.4097 17.1389 18.0411 17.6045 18.5085C18.07 18.9759 18.7003 19.2422 19.36 19.25V19.25C19.6918 19.2487 20.0206 19.3129 20.3275 19.4389C20.6344 19.565 20.9133 19.7504 21.1484 19.9845C21.3835 20.2187 21.57 20.4969 21.6973 20.8033C21.8245 21.1097 21.89 21.4382 21.89 21.77V21.77C21.8907 22.1101 21.961 22.4464 22.0966 22.7582C22.2323 23.0701 22.4303 23.3508 22.6786 23.5832C22.9269 23.8155 23.2202 23.9946 23.5403 24.1093C23.8604 24.224 24.2007 24.2718 24.54 24.25L29.78 23.93" stroke="currentColor" stroke-width="1.5" stroke-miterlimit="10"/>
  <path d="M5.68002 5.34009L7.43002 9.25009C7.75213 9.97521 7.83855 10.7831 7.67708 11.56C7.51561 12.3368 7.11441 13.0434 6.53002 13.5801L1.15002 18.5001" stroke="currentColor" stroke-width="1.5" stroke-miterlimit="10"/>
  <path d="M3.47998 24.77L3.74998 23.96C3.88615 23.5413 4.10941 23.1562 4.40507 22.8299C4.70072 22.5036 5.06209 22.2436 5.46542 22.067C5.86874 21.8904 6.30488 21.8011 6.74516 21.8051C7.18545 21.809 7.61991 21.9061 8.01998 22.09L9.76998 22.88C10.35 23.1453 10.8351 23.5815 11.1604 24.1302C11.4857 24.6789 11.6356 25.3138 11.59 25.95L11.25 30.89" stroke="currentColor" stroke-width="1.5" stroke-miterlimit="10"/>
</svg>
