<svg viewBox="0 0 57 41" fill="none" xmlns="http://www.w3.org/2000/svg">
  <path d="M12.4805 4.2002V25.9002" stroke="currentColor" stroke-width="1.5" stroke-miterlimit="10"/>
  <path d="M23.9492 18.3002V0.990234" stroke="currentColor" stroke-width="1.5" stroke-miterlimit="10"/>
  <path d="M35.43 18.3002V4.20023L23.95 0.990234L12.46 4.20023L1 0.990234V29.8802L8.56 31.9902" stroke="currentColor" stroke-width="1.5" stroke-miterlimit="10"/>
  <path d="M13.9102 25.9003L18.2502 20.8403C18.9361 20.0428 19.7862 19.4029 20.7424 18.9645C21.6986 18.5261 22.7383 18.2995 23.7902 18.3003H34.4902C36.1371 18.2973 37.7369 18.8505 39.0302 19.8703L46.6502 25.8703L13.9102 25.9003Z" stroke="currentColor" stroke-width="1.5" stroke-miterlimit="10"/>
  <path d="M51.4987 35.6802H53.0687C53.8175 35.6802 54.5358 35.3834 55.0662 34.8548C55.5967 34.3262 55.896 33.609 55.8987 32.8602V28.7202C55.896 27.9713 55.5967 27.2541 55.0662 26.7255C54.5358 26.1969 53.8175 25.9002 53.0687 25.9002H11.6487C11.2417 25.8988 10.8384 25.9782 10.4623 26.1336C10.0861 26.2891 9.74452 26.5175 9.45719 26.8058C9.16986 27.094 8.94251 27.4364 8.78829 27.813C8.63406 28.1897 8.55601 28.5932 8.55866 29.0002V33.4802C8.55733 33.7721 8.61385 34.0613 8.72495 34.3313C8.83605 34.6012 8.99952 34.8465 9.20593 35.0529C9.41234 35.2593 9.6576 35.4228 9.92754 35.5339C10.1975 35.645 10.4868 35.7015 10.7787 35.7002H13.9087" stroke="currentColor" stroke-width="1.5" stroke-miterlimit="10"/>
  <path d="M22.5195 35.6802H42.8795" stroke="currentColor" stroke-width="1.5" stroke-miterlimit="10"/>
  <path d="M47.1781 31.3902C48.0315 31.389 48.8663 31.6395 49.5781 32.1102C50.2866 32.5809 50.8395 33.2511 51.1671 34.0361C51.4946 34.8211 51.5819 35.6856 51.4181 36.5202C51.251 37.3519 50.8443 38.1167 50.2481 38.7202C49.6407 39.3185 48.8731 39.7283 48.0381 39.9002C47.4479 40.0229 46.8385 40.02 46.2494 39.8919C45.6604 39.7638 45.1049 39.5133 44.6189 39.1566C44.1329 38.7999 43.7274 38.345 43.4286 37.8214C43.1298 37.2979 42.9445 36.7173 42.8846 36.1175C42.8247 35.5177 42.8915 34.9119 43.0809 34.3396C43.2702 33.7673 43.5777 33.2412 43.9835 32.7954C44.3893 32.3497 44.8843 31.9942 45.4364 31.7521C45.9885 31.51 46.5853 31.3867 47.1881 31.3902H47.1781Z" stroke="currentColor" stroke-width="1.5" stroke-miterlimit="10"/>
  <path d="M18.2487 31.2801C19.102 31.2801 19.9364 31.5305 20.6487 32.0001C21.3584 32.4693 21.9117 33.1397 22.2377 33.9254C22.5638 34.7112 22.6477 35.5764 22.4787 36.4101C22.303 37.2519 21.8738 38.0196 21.2487 38.6101C20.6503 39.2123 19.887 39.6239 19.0551 39.793C18.2231 39.9621 17.3597 39.8811 16.5737 39.5603C15.7876 39.2395 15.1142 38.6931 14.6382 37.9902C14.1621 37.2872 13.9049 36.4591 13.8987 35.6101C13.892 35.0379 14 34.4702 14.2165 33.9405C14.433 33.4108 14.7534 32.9299 15.159 32.5262C15.5646 32.1225 16.047 31.8042 16.5777 31.5902C17.1084 31.3761 17.6766 31.2707 18.2487 31.2801V31.2801Z" stroke="currentColor" stroke-width="1.5" stroke-miterlimit="10"/>
  <path d="M52.1914 29.6501H56.4914" stroke="currentColor" stroke-width="1.5" stroke-miterlimit="10"/>
  <path d="M8.55859 29.6501H12.8586" stroke="currentColor" stroke-width="1.5" stroke-miterlimit="10"/>
  <path d="M18.21 36.0303C18.4641 36.0303 18.67 35.8244 18.67 35.5704C18.67 35.3163 18.4641 35.1104 18.21 35.1104C17.9559 35.1104 17.75 35.3163 17.75 35.5704C17.75 35.8244 17.9559 36.0303 18.21 36.0303Z" stroke="currentColor" stroke-width="1.5" stroke-miterlimit="10"/>
  <path d="M47.1905 36.0303C47.4445 36.0303 47.6505 35.8244 47.6505 35.5704C47.6505 35.3163 47.4445 35.1104 47.1905 35.1104C46.9364 35.1104 46.7305 35.3163 46.7305 35.5704C46.7305 35.8244 46.9364 36.0303 47.1905 36.0303Z" stroke="currentColor" stroke-width="1.5" stroke-miterlimit="10"/>
  <path d="M30.5117 18.3003V32.7803" stroke="currentColor" stroke-width="1.5" stroke-miterlimit="10"/>
</svg>
