<svg viewBox="0 0 32 34" fill="none" xmlns="http://www.w3.org/2000/svg">
  <path d="M14.23 33.1501C19.554 33.1501 23.87 28.8341 23.87 23.5101C23.87 18.1861 19.554 13.8701 14.23 13.8701C8.90597 13.8701 4.59 18.1861 4.59 23.5101C4.59 28.8341 8.90597 33.1501 14.23 33.1501Z" stroke="currentColor" stroke-width="1.5" stroke-miterlimit="10"/>
  <path d="M14.23 13.8701H19.23C20.496 13.8701 21.7495 14.1195 22.9191 14.6039C24.0887 15.0884 25.1514 15.7985 26.0465 16.6936C26.9417 17.5888 27.6518 18.6515 28.1362 19.821C28.6207 20.9906 28.87 22.2442 28.87 23.5101C28.87 24.7761 28.6207 26.0296 28.1362 27.1992C27.6518 28.3688 26.9417 29.4315 26.0465 30.3266C25.1514 31.2218 24.0887 31.9319 22.9191 32.4163C21.7495 32.9008 20.496 33.1501 19.23 33.1501H14.23" stroke="currentColor" stroke-width="1.5" stroke-miterlimit="10"/>
  <path d="M10.71 14.53L2 1H10.31L18.59 13.87" stroke="currentColor" stroke-width="1.5" stroke-miterlimit="10"/>
  <path d="M21.51 14.47L30.1 1H21.79L16.05 9.93" stroke="currentColor" stroke-width="1.5" stroke-miterlimit="10"/>
  <path d="M11.52 23.13L13.76 20.9C13.8159 20.8452 13.8867 20.808 13.9635 20.793C14.0404 20.7781 14.1199 20.786 14.1923 20.8158C14.2647 20.8456 14.3268 20.896 14.3708 20.9607C14.4148 21.0255 14.4389 21.1017 14.44 21.18V26.74" stroke="currentColor" stroke-width="1.5" stroke-miterlimit="10"/>
</svg>
