<svg viewBox="0 0 39 27" fill="none" xmlns="http://www.w3.org/2000/svg">
  <path d="M30.42 1.01001H8.25C6.33053 1.01527 4.49103 1.77943 3.13282 3.13577C1.77461 4.49211 1.00791 6.33055 1 8.25001V25.35H37.69V8.25001C37.6821 6.32709 36.9126 4.48563 35.5501 3.12873C34.1876 1.77182 32.3429 1.00999 30.42 1.01001V1.01001Z" stroke="currentColor" stroke-width="1.5" stroke-miterlimit="10"/>
  <path d="M24.25 10.6001H30.06V16.6001C30.0495 17.3083 29.7601 17.9838 29.2546 18.4799C28.7491 18.976 28.0683 19.2528 27.36 19.2501H26.94C26.2266 19.2501 25.5424 18.9666 25.0379 18.4622C24.5334 17.9577 24.25 17.2735 24.25 16.5601V10.5601V10.6001Z" stroke="currentColor" stroke-width="1.5" stroke-miterlimit="10"/>
  <path d="M27.15 16.0101V13.8501" stroke="currentColor" stroke-width="1.5" stroke-miterlimit="10"/>
  <path d="M1.46997 10.6001H37.21" stroke="currentColor" stroke-width="1.5" stroke-miterlimit="10"/>
  <path d="M9 1C10.922 1.00265 12.7645 1.76733 14.1236 3.1264C15.4827 4.48546 16.2474 6.32799 16.25 8.25V25.34" stroke="currentColor" stroke-width="1.5" stroke-miterlimit="10"/>
</svg>
