<svg viewBox="0 0 36 37" fill="none" xmlns="http://www.w3.org/2000/svg">
  <path d="M18.5 22.445L7.87 19.005C7.24915 18.8394 6.59506 18.8449 5.9771 19.021C5.35914 19.1971 4.80035 19.5371 4.36 20.005L1 23.425V35.015L7.49 32.905C8.35589 32.5209 9.30985 32.3792 10.25 32.495L17.7 33.395C18.9642 33.5467 20.2409 33.2417 21.3 32.535L33.45 24.375C33.9637 24.0305 34.3224 23.4988 34.4495 22.8934C34.5765 22.2881 34.4619 21.657 34.13 21.135C33.9614 20.8716 33.7425 20.6439 33.4858 20.4652C33.2292 20.2864 32.9398 20.1599 32.6342 20.0931C32.3287 20.0262 32.0129 20.0202 31.7051 20.0754C31.3972 20.1307 31.1032 20.2461 30.84 20.415L21.27 26.595" stroke="currentColor" stroke-width="1.5" stroke-miterlimit="10"/>
  <path d="M10.14 24.865L18.68 27.475C19.2728 27.6514 19.911 27.589 20.4584 27.3013C21.0058 27.0136 21.4191 26.5233 21.61 25.935V25.935C21.7065 25.637 21.7432 25.3228 21.7179 25.0105C21.6927 24.6982 21.6061 24.394 21.463 24.1153C21.3199 23.8365 21.1232 23.5888 20.8842 23.3863C20.6451 23.1837 20.3684 23.0304 20.07 22.935L18.51 22.425" stroke="currentColor" stroke-width="1.5" stroke-miterlimit="10"/>
  <path d="M15.57 15.7049C19.6293 15.7049 22.92 12.4142 22.92 8.35488C22.92 4.29559 19.6293 1.00488 15.57 1.00488C11.5107 1.00488 8.22 4.29559 8.22 8.35488C8.22 12.4142 11.5107 15.7049 15.57 15.7049Z" stroke="currentColor" stroke-width="1.5" stroke-miterlimit="10"/>
  <path d="M15.57 1.005H19.37C20.3574 0.968562 21.3419 1.13157 22.2649 1.48428C23.1878 1.83699 24.0302 2.37216 24.7416 3.0578C25.453 3.74344 26.0188 4.56548 26.4053 5.47478C26.7919 6.38407 26.9911 7.36197 26.9911 8.35C26.9911 9.33803 26.7919 10.3159 26.4053 11.2252C26.0188 12.1345 25.453 12.9566 24.7416 13.6422C24.0302 14.3278 23.1878 14.863 22.2649 15.2157C21.3419 15.5684 20.3574 15.7314 19.37 15.695H15.57" stroke="currentColor" stroke-width="1.5" stroke-miterlimit="10"/>
</svg>
