<svg version="1.2" xmlns="http://www.w3.org/2000/svg" viewBox="0 0 48 48">
	<title>icon-hand-heart-svg</title>
	<style>
		.s0 { fill: none;stroke: #000000;stroke-width: 1.3 } 
	</style>
	<path id="Layer" class="s0" d="m32.9 10.2q1 0.5 1.8 1.3 0.8 0.8 1.2 1.8 0.5 1 0.5 2.2v-0.2c0 3.7-1.6 4.9-4.3 7.3l-6.9 6.3-6.8-6.3c-2.7-2.4-4.3-3.6-4.3-7.3v0.2q0-1.1 0.5-2.2 0.4-1 1.2-1.8 0.8-0.8 1.8-1.3 1.1-0.4 2.2-0.4c1.4 0 2.8 0.6 3.9 1.6 1 1.1 1.6 2.5 1.6 3.9 0-1.4 0.5-2.8 1.5-3.8 1.1-1.1 2.4-1.7 3.9-1.7q1.1 0 2.2 0.4z"/>
	<path id="Layer" class="s0" d="m26.2 37.5l10.6-6.8q0.4-0.3 0.9-0.4 0.6-0.1 1.1 0 0.5 0.1 0.9 0.4 0.4 0.3 0.7 0.8c0.4 0.6 0.5 1.3 0.4 1.9-0.2 0.7-0.6 1.3-1.1 1.7l-13.4 8.9c-1.2 0.8-2.6 1.2-4 1l-8.2-1c-1.1-0.1-2.1 0-3.1 0.5l-7.1 2.3v-12.8l3.7-3.8c0.5-0.5 1.1-0.9 1.8-1.1 0.6-0.1 1.4-0.2 2 0l11.8 3.8"/>
	<path id="Layer" class="s0" d="m23.1 32.9l1.8 0.6q0.5 0.1 0.9 0.5 0.4 0.3 0.6 0.8 0.3 0.4 0.3 0.9 0 0.6-0.1 1.1c-0.2 0.6-0.7 1.2-1.3 1.5-0.6 0.3-1.3 0.4-1.9 0.2l-9.5-2.9"/>
	<path id="Layer" class="s0" d="m25.3 3.6v-3.6"/>
	<path id="Layer" class="s0" d="m25.3 3.6v-3.6"/>
	<path id="Layer" class="s0" d="m35.8 8l2.6-2.6"/>
	<path id="Layer" class="s0" d="m35.8 8l2.6-2.6"/>
	<path id="Layer" class="s0" d="m14.7 8l-2.6-2.6"/>
	<path id="Layer" class="s0" d="m14.7 8l-2.6-2.6"/>
	<path id="Layer" class="s0" d="m10.3 18.6h-3.7"/>
	<path id="Layer" class="s0" d="m10.3 18.6h-3.7"/>
	<path id="Layer" class="s0" d="m40.2 18.6h3.7"/>
	<path id="Layer" class="s0" d="m31.9 13.3c0.7 0.7 1.1 1.6 1.1 2.5 0 0.9-0.4 1.8-1.1 2.5"/>
</svg>