<svg viewBox="0 0 62 46" fill="none" xmlns="http://www.w3.org/2000/svg">
<path d="M38.656 20.9319V5.51076L26.1003 2L13.5338 5.51076L1 2V33.5969L9.26834 35.9046" fill="white"/>
<path d="M38.656 20.9319V5.51076L26.1003 2L13.5338 5.51076L1 2V33.5969L9.26834 35.9046" stroke="#333333" stroke-width="1.64054" stroke-miterlimit="10"/>
<path d="M15.1211 29.2437L19.8677 23.7096C20.6179 22.8374 21.5477 22.1376 22.5935 21.6581C23.6393 21.1786 24.7763 20.9308 25.9268 20.9317H37.6294C39.4307 20.9283 41.1803 21.5334 42.5947 22.6488L50.9287 29.2109L15.1211 29.2437Z" fill="#D0ECF8" stroke="#333333" stroke-width="1.64054" stroke-miterlimit="10"/>
<path d="M15.1209 39.9403H11.6976C11.3784 39.9417 11.062 39.8799 10.7667 39.7584C10.4715 39.6369 10.2033 39.4581 9.97752 39.2323C9.75177 39.0066 9.57298 38.7384 9.45147 38.4431C9.32997 38.1479 9.26815 37.8315 9.2696 37.5123V32.6344C9.26671 32.1892 9.35207 31.748 9.52074 31.336C9.68942 30.9241 9.93807 30.5497 10.2523 30.2344C10.5666 29.9191 10.9402 29.6693 11.3516 29.4993C11.763 29.3292 12.204 29.2425 12.6491 29.2439H57.95C58.769 29.2439 59.5546 29.5685 60.1348 30.1466C60.7149 30.7247 61.0423 31.5091 61.0452 32.3281V36.856C61.0423 37.675 60.7149 38.4595 60.1348 39.0376C59.5546 39.6157 58.769 39.9403 57.95 39.9403H15.1209Z" fill="#0F6D95" stroke="#0F6D95" stroke-width="1.64054" stroke-miterlimit="10"/>
<path d="M51.5082 35.2481C52.4415 35.2468 53.3545 35.5207 54.133 36.0356C54.9079 36.5504 55.5127 37.2834 55.8709 38.1419C56.2291 39.0005 56.3246 39.9459 56.1454 40.8588C55.9626 41.7685 55.5178 42.6048 54.8658 43.2649C54.2014 43.9192 53.362 44.3674 52.4487 44.5555C51.8032 44.6896 51.1367 44.6865 50.4925 44.5464C49.8483 44.4063 49.2407 44.1323 48.7092 43.7422C48.1777 43.352 47.7342 42.8545 47.4074 42.2819C47.0806 41.7093 46.8779 41.0744 46.8123 40.4184C46.7468 39.7623 46.82 39.0998 47.027 38.4739C47.2341 37.848 47.5705 37.2726 48.0143 36.785C48.4581 36.2975 48.9995 35.9087 49.6033 35.644C50.2071 35.3792 50.8598 35.2443 51.5191 35.2481H51.5082Z" fill="#D0ECF8" stroke="#333333" stroke-width="1.64054" stroke-miterlimit="10"/>
<path d="M19.8673 35.1281C20.8004 35.1281 21.7131 35.4019 22.4922 35.9155C23.2683 36.4287 23.8734 37.1619 24.23 38.0212C24.5866 38.8806 24.6784 39.8269 24.4936 40.7387C24.3014 41.6593 23.832 42.499 23.1484 43.1449C22.4939 43.8035 21.6591 44.2536 20.7491 44.4386C19.8392 44.6235 18.8949 44.5349 18.0353 44.1841C17.1756 43.8332 16.439 43.2357 15.9184 42.4668C15.3978 41.698 15.1164 40.7923 15.1097 39.8638C15.1023 39.238 15.2205 38.617 15.4572 38.0377C15.694 37.4584 16.0445 36.9324 16.4881 36.4909C16.9316 36.0493 17.4592 35.7013 18.0396 35.4672C18.62 35.2331 19.2415 35.1178 19.8673 35.1281Z" fill="#D0ECF8" stroke="#333333" stroke-width="1.64054" stroke-miterlimit="10"/>
<path d="M57.1406 33.3452H61.8545" stroke="#333333" stroke-width="1.64054" stroke-miterlimit="10"/>
<path d="M8.48047 33.3452H13.1834" stroke="#333333" stroke-width="1.64054" stroke-miterlimit="10"/>
<path d="M19.8234 40.3231C20.1013 40.3231 20.3265 40.0978 20.3265 39.82C20.3265 39.5421 20.1013 39.3169 19.8234 39.3169C19.5456 39.3169 19.3203 39.5421 19.3203 39.82C19.3203 40.0978 19.5456 40.3231 19.8234 40.3231Z" stroke="#333333" stroke-width="1.64054" stroke-miterlimit="10"/>
<path d="M51.5187 40.3231C51.7966 40.3231 52.0218 40.0978 52.0218 39.82C52.0218 39.5421 51.7966 39.3169 51.5187 39.3169C51.2409 39.3169 51.0156 39.5421 51.0156 39.82C51.0156 40.0978 51.2409 40.3231 51.5187 40.3231Z" stroke="#333333" stroke-width="1.64054" stroke-miterlimit="10"/>
<path d="M33.2734 20.9316V36.7684" stroke="#333333" stroke-width="1.64054" stroke-miterlimit="10"/>
<path d="M13.5586 5.51074V28.4018" stroke="#333333" stroke-width="1.64054" stroke-miterlimit="10"/>
<path d="M26.1016 20.9319V2" stroke="#333333" stroke-width="1.64054" stroke-miterlimit="10"/>
</svg>
