<svg width="64" height="64" viewBox="0 0 64 64" fill="none" xmlns="http://www.w3.org/2000/svg">
<path d="M43.8135 50.8934H18.6669C17.5359 50.9441 16.4308 50.5447 15.5937 49.7825C14.7566 49.0203 14.2555 47.9575 14.2002 46.8267L16.7602 21.1467C16.9137 20.1047 17.4461 19.1559 18.2555 18.4819C19.0648 17.8078 20.0943 17.4559 21.1469 17.4934H41.3335C42.3869 17.4529 43.4179 17.8038 44.2279 18.4783C45.0378 19.1529 45.5694 20.1035 45.7202 21.1467L48.2935 46.8267C48.2383 47.9599 47.7354 49.0248 46.8953 49.7874C46.0552 50.5499 44.9468 50.9477 43.8135 50.8934Z" stroke="#333333" stroke-width="1.5" stroke-miterlimit="10"/>
<path d="M17.7734 56.1997L22.8001 50.8931" stroke="#333333" stroke-width="1.5" stroke-miterlimit="10"/>
<path d="M44.6526 56.1997L39.626 50.8931" stroke="#333333" stroke-width="1.5" stroke-miterlimit="10"/>
<path d="M15.2539 35.6934H47.1606" stroke="#333333" stroke-width="1.5" stroke-miterlimit="10"/>
<path d="M16.4658 23.6133H45.9592" stroke="#333333" stroke-width="1.5" stroke-miterlimit="10"/>
<path d="M18.9463 41.2935L25.7463 42.7335" stroke="#333333" stroke-width="1.5" stroke-miterlimit="10"/>
<path d="M43.4797 41.2935L36.6797 42.7335" stroke="#333333" stroke-width="1.5" stroke-miterlimit="10"/>
<path d="M29.2266 17.4932L35.8132 11.7466" stroke="#333333" stroke-width="1.5" stroke-miterlimit="10"/>
<path d="M48.2806 11.4531H15.2539" stroke="#333333" stroke-width="1.5" stroke-miterlimit="10"/>
</svg>
