<svg width="64" height="64" viewBox="0 0 64 64" fill="none" xmlns="http://www.w3.org/2000/svg">
<path d="M52.76 43.6267H12.6133V50.84H52.76V43.6267Z" stroke="#333333" stroke-width="1.5" stroke-miterlimit="10"/>
<path d="M52.76 13.9062H12.6133V19.1462H52.76V13.9062Z" stroke="#333333" stroke-width="1.5" stroke-miterlimit="10"/>
<path d="M52.76 19.1475H12.6133V43.6275H52.76V19.1475Z" stroke="#333333" stroke-width="1.5" stroke-miterlimit="10"/>
<path d="M23.8133 19.1475C23.8133 19.1475 23.0933 36.4808 12.6133 36.4808" stroke="#333333" stroke-width="1.5" stroke-miterlimit="10"/>
<path d="M19.7866 43.6271C19.7866 43.6271 19.3333 36.4404 12.6133 36.4404" stroke="#333333" stroke-width="1.5" stroke-miterlimit="10"/>
<path d="M41.5605 19.1475C41.5605 19.1475 42.2805 36.4808 52.7605 36.4808" stroke="#333333" stroke-width="1.5" stroke-miterlimit="10"/>
<path d="M45.5732 43.6271C45.5732 43.6271 46.0399 36.4404 52.7599 36.4404" stroke="#333333" stroke-width="1.5" stroke-miterlimit="10"/>
<path d="M23.8131 19.1475H41.5598C41.5598 21.2409 40.7282 23.2486 39.2479 24.7289C37.7676 26.2092 35.7599 27.0408 33.6665 27.0408H31.6931C29.5997 27.0408 27.592 26.2092 26.1117 24.7289C24.6314 23.2486 23.7998 21.2409 23.7998 19.1475V19.1475H23.8131Z" stroke="#333333" stroke-width="1.5" stroke-miterlimit="10"/>
</svg>
