<svg width="64" height="64" viewBox="0 0 64 64" fill="none" xmlns="http://www.w3.org/2000/svg">
<path d="M26.1328 36.0269H37.7861" stroke="#333333" stroke-width="1.5" stroke-miterlimit="10"/>
<path d="M34.387 15.6403V10.1603C34.387 9.45308 34.1061 8.7748 33.606 8.2747C33.1059 7.7746 32.4276 7.49365 31.7204 7.49365C31.0131 7.49365 30.3349 7.7746 29.8348 8.2747C29.3347 8.7748 29.0537 9.45308 29.0537 10.1603V15.6403" stroke="#333333" stroke-width="1.5" stroke-miterlimit="10"/>
<path d="M30.6664 27.0396L17.6664 50.7463C17.4433 51.1545 17.1349 51.5099 16.7621 51.7883C16.3894 52.0667 15.9611 52.2615 15.5064 52.3596C14.7321 52.5141 13.928 52.3864 13.2397 51.9996C12.86 51.798 12.524 51.5232 12.2511 51.1911C11.9783 50.8589 11.7739 50.4759 11.65 50.0643C11.526 49.6527 11.4848 49.2206 11.5288 48.793C11.5728 48.3653 11.7011 47.9507 11.9064 47.5729L25.773 22.4263" stroke="#333333" stroke-width="1.5" stroke-miterlimit="10"/>
<path d="M37.6274 22.4263L51.4541 47.6129C51.8696 48.3697 51.9675 49.2605 51.7262 50.0894C51.4849 50.9183 50.9242 51.6174 50.1674 52.0329C49.4107 52.4484 48.5198 52.5463 47.6909 52.305C46.862 52.0637 46.1629 51.503 45.7474 50.7463L32.7607 27.0796" stroke="#333333" stroke-width="1.5" stroke-miterlimit="10"/>
<path d="M31.706 27.1727C35.0639 27.1727 37.786 24.4506 37.786 21.0927C37.786 17.7348 35.0639 15.0127 31.706 15.0127C28.3481 15.0127 25.626 17.7348 25.626 21.0927C25.626 24.4506 28.3481 27.1727 31.706 27.1727Z" stroke="#333333" stroke-width="1.5" stroke-miterlimit="10"/>
<path d="M50.1602 52.0396L52.7868 56.5062" stroke="#333333" stroke-width="1.5" stroke-miterlimit="10"/>
<path d="M13.2393 52.0396L10.626 56.5062" stroke="#333333" stroke-width="1.5" stroke-miterlimit="10"/>
</svg>
