<svg viewBox="0 0 45 22" fill="none" xmlns="http://www.w3.org/2000/svg">
  <path d="M5.81982 7.89L9.72982 3.29C10.35 2.57176 11.1176 1.99547 11.9804 1.60033C12.8431 1.20518 13.7809 1.00043 14.7298 1H24.3798C25.8643 0.998423 27.3057 1.49886 28.4698 2.42L35.3398 7.89H5.81982Z" stroke="currentColor" stroke-width="1.5" stroke-miterlimit="10"/>
  <path d="M39.72 16.7199H41.14C41.8146 16.7172 42.4606 16.4474 42.9367 15.9695C43.4127 15.4916 43.68 14.8445 43.68 14.1699V10.4399C43.68 9.76532 43.4127 9.11823 42.9367 8.6403C42.4606 8.16237 41.8146 7.89254 41.14 7.88989H3.78C3.04178 7.89254 2.3347 8.18765 1.81363 8.71059C1.29257 9.23353 0.999995 9.94167 1 10.6799V14.6799C1 15.2103 1.21071 15.719 1.58579 16.0941C1.96086 16.4692 2.46957 16.6799 3 16.6799H5.82" stroke="currentColor" stroke-width="1.5" stroke-miterlimit="10"/>
  <path d="M13.5898 16.72H31.9398" stroke="currentColor" stroke-width="1.5" stroke-miterlimit="10"/>
  <path d="M20.3501 13.9V1.04004" stroke="currentColor" stroke-width="1.5" stroke-miterlimit="10"/>
  <path d="M35.8301 12.8401C36.5973 12.8395 37.3475 13.0664 37.9858 13.4921C38.624 13.9178 39.1218 14.5231 39.4161 15.2316C39.7104 15.9401 39.7881 16.72 39.6393 17.4726C39.4905 18.2253 39.1219 18.9169 38.5801 19.4601C38.1733 19.8695 37.6805 20.1833 37.1373 20.3786C36.5942 20.574 36.0145 20.646 35.4401 20.5895C34.8656 20.5331 34.311 20.3495 33.8163 20.0521C33.3217 19.7547 32.8994 19.3509 32.5801 18.8701C32.1991 18.286 31.9825 17.6101 31.9531 16.9134C31.9238 16.2167 32.0827 15.5249 32.4133 14.9109C32.7438 14.2968 33.2338 13.7833 33.8315 13.4241C34.4293 13.065 35.1128 12.8736 35.8101 12.8701L35.8301 12.8401Z" stroke="currentColor" stroke-width="1.5" stroke-miterlimit="10"/>
  <path d="M5.81982 16.72V16.61C5.8251 15.5835 6.23589 14.6007 6.96268 13.8758C7.68946 13.1509 8.67332 12.7426 9.69982 12.74V12.74C10.4598 12.7502 11.2003 12.9817 11.8308 13.4062C12.4613 13.8307 12.9544 14.4297 13.2498 15.13C13.5492 15.8367 13.6293 16.6171 13.4798 17.37C13.3647 17.9245 13.1298 18.4471 12.7917 18.9014C12.4536 19.3557 12.0204 19.7307 11.5224 20.0002C11.0243 20.2697 10.4734 20.4272 9.90818 20.4617C9.34293 20.4962 8.77697 20.4069 8.24982 20.2C7.54116 19.9014 6.93358 19.405 6.49982 18.77C6.09725 18.1602 5.8722 17.4504 5.84982 16.72" stroke="currentColor" stroke-width="1.5" stroke-miterlimit="10"/>
</svg>
