<svg width="64" height="64" viewBox="0 0 64 64" fill="none" xmlns="http://www.w3.org/2000/svg">
<path d="M32.0001 46.1875C39.8352 46.1875 46.1868 39.836 46.1868 32.0009C46.1868 24.1658 39.8352 17.8142 32.0001 17.8142C24.1651 17.8142 17.8135 24.1658 17.8135 32.0009C17.8135 39.836 24.1651 46.1875 32.0001 46.1875Z" stroke="#333333" stroke-width="1.5" stroke-miterlimit="10"/>
<path d="M32 17.8125V13.1858" stroke="#333333" stroke-width="1.5" stroke-miterlimit="10"/>
<path d="M32 51.0534V46.4268" stroke="#333333" stroke-width="1.5" stroke-miterlimit="10"/>
<path d="M21.88 21.9994L19 19.1194" stroke="#333333" stroke-width="1.5" stroke-miterlimit="10"/>
<path d="M45.0001 45.119L42.1201 42.239" stroke="#333333" stroke-width="1.5" stroke-miterlimit="10"/>
<path d="M17.6931 32.1201H13.0664" stroke="#333333" stroke-width="1.5" stroke-miterlimit="10"/>
<path d="M50.9333 32.1201H46.3066" stroke="#333333" stroke-width="1.5" stroke-miterlimit="10"/>
<path d="M21.88 42.239L19 45.119" stroke="#333333" stroke-width="1.5" stroke-miterlimit="10"/>
<path d="M45.0001 19.1194L42.1201 21.9994" stroke="#333333" stroke-width="1.5" stroke-miterlimit="10"/>
<path d="M31.9994 13.1869C33.6047 13.1869 34.9061 11.8855 34.9061 10.2802C34.9061 8.67489 33.6047 7.37354 31.9994 7.37354C30.3941 7.37354 29.0928 8.67489 29.0928 10.2802C29.0928 11.8855 30.3941 13.1869 31.9994 13.1869Z" stroke="#333333" stroke-width="1.5" stroke-miterlimit="10"/>
<path d="M31.9994 56.8666C33.6047 56.8666 34.9061 55.5652 34.9061 53.9599C34.9061 52.3546 33.6047 51.0532 31.9994 51.0532C30.3941 51.0532 29.0928 52.3546 29.0928 53.9599C29.0928 55.5652 30.3941 56.8666 31.9994 56.8666Z" stroke="#333333" stroke-width="1.5" stroke-miterlimit="10"/>
<path d="M16.9467 19.9732C18.552 19.9732 19.8534 18.6719 19.8534 17.0666C19.8534 15.4613 18.552 14.1599 16.9467 14.1599C15.3414 14.1599 14.04 15.4613 14.04 17.0666C14.04 18.6719 15.3414 19.9732 16.9467 19.9732Z" stroke="#333333" stroke-width="1.5" stroke-miterlimit="10"/>
<path d="M47.0532 50.0799C48.6585 50.0799 49.9598 48.7786 49.9598 47.1733C49.9598 45.568 48.6585 44.2666 47.0532 44.2666C45.4478 44.2666 44.1465 45.568 44.1465 47.1733C44.1465 48.7786 45.4478 50.0799 47.0532 50.0799Z" stroke="#333333" stroke-width="1.5" stroke-miterlimit="10"/>
<path d="M10.1596 35.0267C11.7649 35.0267 13.0663 33.7254 13.0663 32.12C13.0663 30.5147 11.7649 29.2134 10.1596 29.2134C8.55429 29.2134 7.25293 30.5147 7.25293 32.12C7.25293 33.7254 8.55429 35.0267 10.1596 35.0267Z" stroke="#333333" stroke-width="1.5" stroke-miterlimit="10"/>
<path d="M53.8403 35.0267C55.4456 35.0267 56.7469 33.7254 56.7469 32.12C56.7469 30.5147 55.4456 29.2134 53.8403 29.2134C52.235 29.2134 50.9336 30.5147 50.9336 32.12C50.9336 33.7254 52.235 35.0267 53.8403 35.0267Z" stroke="#333333" stroke-width="1.5" stroke-miterlimit="10"/>
<path d="M16.9467 50.0799C18.552 50.0799 19.8534 48.7786 19.8534 47.1733C19.8534 45.568 18.552 44.2666 16.9467 44.2666C15.3414 44.2666 14.04 45.568 14.04 47.1733C14.04 48.7786 15.3414 50.0799 16.9467 50.0799Z" stroke="#333333" stroke-width="1.5" stroke-miterlimit="10"/>
<path d="M47.0532 19.9732C48.6585 19.9732 49.9598 18.6719 49.9598 17.0666C49.9598 15.4613 48.6585 14.1599 47.0532 14.1599C45.4478 14.1599 44.1465 15.4613 44.1465 17.0666C44.1465 18.6719 45.4478 19.9732 47.0532 19.9732Z" stroke="#333333" stroke-width="1.5" stroke-miterlimit="10"/>
<path d="M26.1869 31.5741C27.7922 31.5741 29.0936 30.2727 29.0936 28.6674C29.0936 27.0621 27.7922 25.7607 26.1869 25.7607C24.5816 25.7607 23.2803 27.0621 23.2803 28.6674C23.2803 30.2727 24.5816 31.5741 26.1869 31.5741Z" stroke="#333333" stroke-width="1.5" stroke-miterlimit="10"/>
<path d="M37.6928 31.5741C39.2981 31.5741 40.5995 30.2727 40.5995 28.6674C40.5995 27.0621 39.2981 25.7607 37.6928 25.7607C36.0875 25.7607 34.7861 27.0621 34.7861 28.6674C34.7861 30.2727 36.0875 31.5741 37.6928 31.5741Z" stroke="#333333" stroke-width="1.5" stroke-miterlimit="10"/>
<path d="M31.9994 40.294C33.6047 40.294 34.9061 38.9927 34.9061 37.3874C34.9061 35.7821 33.6047 34.4807 31.9994 34.4807C30.3941 34.4807 29.0928 35.7821 29.0928 37.3874C29.0928 38.9927 30.3941 40.294 31.9994 40.294Z" stroke="#333333" stroke-width="1.5" stroke-miterlimit="10"/>
</svg>
