<svg viewBox="0 0 32 32" fill="none" xmlns="http://www.w3.org/2000/svg">
  <path d="M24.51 1H3.56C2.14615 1 1 2.14615 1 3.56V24.51C1 25.9238 2.14615 27.07 3.56 27.07H24.51C25.9238 27.07 27.07 25.9238 27.07 24.51V3.56C27.07 2.14615 25.9238 1 24.51 1Z" stroke="currentColor" stroke-width="1.5" stroke-miterlimit="10"/>
  <path d="M30.9299 4.41992V25.0199C30.9246 26.5857 30.3003 28.0859 29.1931 29.1931C28.0859 30.3003 26.5857 30.9246 25.0199 30.9299H4.41992" stroke="currentColor" stroke-width="1.5" stroke-miterlimit="10"/>
  <path d="M11.8601 8.25H14.8601C15.7585 8.25787 16.6177 8.61892 17.252 9.25513C17.8863 9.89134 18.2449 10.7516 18.2501 11.65V11.65C18.2501 12.557 17.8898 13.4269 17.2484 14.0683C16.607 14.7097 15.7371 15.07 14.8301 15.07H11.8301V8.25H11.8601Z" stroke="currentColor" stroke-width="1.5" stroke-miterlimit="10"/>
  <path d="M11.8599 21.3501V15.0701" stroke="currentColor" stroke-width="1.5" stroke-miterlimit="10"/>
</svg>
