<svg width="64" height="64" viewBox="0 0 64 64" fill="none" xmlns="http://www.w3.org/2000/svg">
<path d="M35.9995 39.8535H27.9995C27.1648 39.8892 26.3454 39.6212 25.6933 39.099C25.0411 38.5767 24.6004 37.8358 24.4528 37.0135L21.7861 15.8535H42.1728L39.5061 37.0135C39.362 37.83 38.9278 38.567 38.2835 39.0888C37.6392 39.6107 36.8281 39.8822 35.9995 39.8535V39.8535Z" stroke="#333333" stroke-width="1.5" stroke-miterlimit="10"/>
<path d="M15.9746 15.8535H47.9613H15.9746Z" stroke="#333333" stroke-width="1.5" stroke-miterlimit="10"/>
<path d="M28.5474 9.08008H35.3874C36.2786 9.08008 37.1612 9.25562 37.9846 9.59668C38.8079 9.93774 39.5561 10.4376 40.1863 11.0678C40.8165 11.698 41.3164 12.4462 41.6575 13.2696C41.9985 14.093 42.1741 14.9755 42.1741 15.8667V15.8667H21.7607C21.7607 14.0668 22.4758 12.3406 23.7485 11.0678C25.0213 9.7951 26.7475 9.08008 28.5474 9.08008V9.08008Z" stroke="#333333" stroke-width="1.5" stroke-miterlimit="10"/>
<path d="M29.1855 55.6535V39.8535H34.7455V55.6535" stroke="#333333" stroke-width="1.5" stroke-miterlimit="10"/>
<path d="M10.0664 33.5868L16.7864 32.3335" stroke="#333333" stroke-width="1.5" stroke-miterlimit="10"/>
<path d="M19.6129 39.3203L13.9062 43.0803" stroke="#333333" stroke-width="1.5" stroke-miterlimit="10"/>
<path d="M10.2139 23.3462L16.9072 24.7995" stroke="#333333" stroke-width="1.5" stroke-miterlimit="10"/>
<path d="M53.8808 33.5868L47.1475 32.3335" stroke="#333333" stroke-width="1.5" stroke-miterlimit="10"/>
<path d="M44.3203 39.3203L50.0403 43.0803" stroke="#333333" stroke-width="1.5" stroke-miterlimit="10"/>
<path d="M53.7187 23.3462L47.0254 24.7995" stroke="#333333" stroke-width="1.5" stroke-miterlimit="10"/>
</svg>
