<svg width="64" height="64" viewBox="0 0 64 64" fill="none" xmlns="http://www.w3.org/2000/svg">
<path d="M15.6132 33.4658C13.4596 33.4658 11.3943 34.3213 9.87146 35.8441C8.34866 37.3669 7.49316 39.4323 7.49316 41.5858H27.1865" stroke="#333333" stroke-width="1.5" stroke-miterlimit="10"/>
<path d="M27.1875 41.5876H27.3999" stroke="#333333" stroke-width="1.5" stroke-miterlimit="10"/>
<path d="M28.0938 23.2397V22.7331V21.2397" stroke="#333333" stroke-width="1.5" stroke-miterlimit="10"/>
<path d="M24.253 33.9064C23.0832 34.6041 21.7484 34.9769 20.3864 34.9864V34.9864C18.3424 34.9864 16.3822 34.1745 14.9369 32.7292C13.4916 31.2839 12.6797 29.3237 12.6797 27.2797V21.2397" stroke="#333333" stroke-width="1.5" stroke-miterlimit="10"/>
<path d="M12.6797 21.2407C12.6832 19.4206 13.4078 17.6761 14.6948 16.3891C15.9818 15.1021 17.7263 14.3775 19.5464 14.374H21.2397C23.0585 14.3776 24.8017 15.1026 26.0865 16.3899C27.3714 17.6773 28.093 19.4218 28.093 21.2407" stroke="#333333" stroke-width="1.5" stroke-miterlimit="10"/>
<path d="M28.0938 21.2401V20.8672" stroke="#333333" stroke-width="1.5" stroke-miterlimit="10"/>
<path d="M12.6797 21.2401V20.8672" stroke="#333333" stroke-width="1.5" stroke-miterlimit="10"/>
<path d="M36.5068 41.5876H36.7325" stroke="#333333" stroke-width="1.5" stroke-miterlimit="10"/>
<path d="M36.7334 41.5858H56.5067C56.5067 39.4323 55.6512 37.3669 54.1284 35.8441C52.6056 34.3213 50.5403 33.4658 48.3867 33.4658" stroke="#333333" stroke-width="1.5" stroke-miterlimit="10"/>
<path d="M51.32 21.2397V27.2797C51.32 28.2918 51.1206 29.2939 50.7333 30.229C50.346 31.164 49.7783 32.0136 49.0627 32.7292C48.3471 33.4448 47.4975 34.0125 46.5625 34.3998C45.6275 34.7871 44.6253 34.9864 43.6133 34.9864C42.2019 34.9911 40.817 34.6033 39.6133 33.8664" stroke="#333333" stroke-width="1.5" stroke-miterlimit="10"/>
<path d="M51.3203 21.2401V20.8672" stroke="#333333" stroke-width="1.5" stroke-miterlimit="10"/>
<path d="M35.9072 21.2407C35.9072 19.4218 36.6288 17.6773 37.9137 16.3899C39.1986 15.1026 40.9417 14.3776 42.7606 14.374H44.4539C46.274 14.3775 48.0185 15.1021 49.3055 16.3891C50.5925 17.6761 51.317 19.4206 51.3206 21.2407" stroke="#333333" stroke-width="1.5" stroke-miterlimit="10"/>
<path d="M35.9072 21.2401V20.8672" stroke="#333333" stroke-width="1.5" stroke-miterlimit="10"/>
<path d="M35.9072 23.2797V22.7331V21.2397" stroke="#333333" stroke-width="1.5" stroke-miterlimit="10"/>
<path d="M27.1861 41.5876C25.029 41.5876 22.9602 42.4446 21.4349 43.9698C19.9096 45.4951 19.0527 47.5639 19.0527 49.721H44.8527C44.8527 47.5662 43.9977 45.4995 42.4753 43.9746C40.9528 42.4496 38.8875 41.5912 36.7327 41.5876" stroke="#333333" stroke-width="1.5" stroke-miterlimit="10"/>
<path d="M28.0929 23.2266C26.9484 23.7868 25.9828 24.6551 25.3045 25.7338C24.6261 26.8125 24.262 28.059 24.2529 29.3332" stroke="#333333" stroke-width="1.5" stroke-miterlimit="10"/>
<path d="M24.2529 29.0002V29.3732" stroke="#333333" stroke-width="1.5" stroke-miterlimit="10"/>
<path d="M35.9072 23.28C37.0288 23.8473 37.9727 24.712 38.6359 25.7796C39.299 26.8472 39.6558 28.0766 39.6672 29.3334" stroke="#333333" stroke-width="1.5" stroke-miterlimit="10"/>
<path d="M39.667 29.374V30.8674V33.8674" stroke="#333333" stroke-width="1.5" stroke-miterlimit="10"/>
<path d="M39.6668 33.8667V35.4C39.6644 36.6072 39.3769 37.7968 38.8278 38.8718C38.2787 39.9469 37.4834 40.8771 36.5068 41.5867" stroke="#333333" stroke-width="1.5" stroke-miterlimit="10"/>
<path d="M27.3994 41.5876C28.7129 42.5732 30.3106 43.106 31.9527 43.106C33.5948 43.106 35.1926 42.5732 36.5061 41.5876" stroke="#333333" stroke-width="1.5" stroke-miterlimit="10"/>
<path d="M24.2529 33.9065V35.3998C24.2528 36.6061 24.5378 37.7952 25.0846 38.8704C25.6314 39.9455 26.4247 40.8762 27.3996 41.5865" stroke="#333333" stroke-width="1.5" stroke-miterlimit="10"/>
<path d="M24.2529 29.374V30.8674V33.9074" stroke="#333333" stroke-width="1.5" stroke-miterlimit="10"/>
<path d="M39.667 29.3732V29.0002" stroke="#333333" stroke-width="1.5" stroke-miterlimit="10"/>
<path d="M28.0938 23.2263C29.0313 22.763 30.0613 22.5169 31.1071 22.5063H32.8004C33.8828 22.5127 34.948 22.7778 35.9071 23.2797" stroke="#333333" stroke-width="1.5" stroke-miterlimit="10"/>
</svg>
