<svg viewBox="0 0 23 35" fill="none" xmlns="http://www.w3.org/2000/svg">
  <path d="M21.8 11.3833C21.7973 9.70386 21.3879 8.05004 20.6068 6.56326C19.8258 5.07648 18.6963 3.80098 17.3149 2.84581C15.9335 1.89063 14.3413 1.28421 12.6745 1.07839C11.0077 0.872576 9.31588 1.07348 7.74364 1.66393C6.1714 2.25439 4.76554 3.21682 3.64626 4.46894C2.52699 5.72107 1.72761 7.22563 1.31646 8.85398C0.905313 10.4823 0.894634 12.186 1.28534 13.8194C1.67604 15.4528 2.4565 16.9673 3.55999 18.2333C5.85867 20.809 7.1449 24.1312 7.17999 27.5833V27.9533H15.63V27.5833C15.6609 24.1095 16.9465 20.7639 19.25 18.1633C20.8897 16.2847 21.7953 13.8769 21.8 11.3833V11.3833Z" stroke="currentColor" stroke-width="1.5" stroke-miterlimit="10"/>
  <path d="M15.6302 31.0732C15.6315 31.4869 15.5513 31.8968 15.3942 32.2795C15.2371 32.6621 15.0062 33.0101 14.7146 33.3036C14.4231 33.597 14.0765 33.8301 13.6949 33.9896C13.3132 34.1492 12.9038 34.2319 12.4902 34.2332H10.3102C9.47913 34.2306 8.68303 33.8986 8.09632 33.31C7.50962 32.7215 7.18017 31.9243 7.18018 31.0932" stroke="currentColor" stroke-width="1.5" stroke-miterlimit="10"/>
  <path d="M13.0898 6.14331C13.6585 6.14331 14.2215 6.25531 14.7469 6.47291C15.2722 6.69052 15.7495 7.00946 16.1516 7.41154C16.5537 7.81362 16.8726 8.29095 17.0902 8.81629C17.3078 9.34163 17.4198 9.90469 17.4198 10.4733" stroke="currentColor" stroke-width="1.5" stroke-miterlimit="10"/>
  <path d="M11.5 27.9333V18.0933" stroke="currentColor" stroke-width="1.5" stroke-miterlimit="10"/>
  <path d="M15.6299 31.0733V27.9333" stroke="currentColor" stroke-width="1.5" stroke-miterlimit="10"/>
  <path d="M7.18018 31.0733V27.9333" stroke="currentColor" stroke-width="1.5" stroke-miterlimit="10"/>
</svg>
