<svg width="62" height="48" viewBox="0 0 62 48" fill="none" xmlns="http://www.w3.org/2000/svg">
<path d="M38.6914 35.602V47H43.4744V33.7151" stroke="#333333" stroke-width="1.64553" stroke-miterlimit="10"/>
<path d="M18.8047 17.4134C18.8805 16.9063 19.0244 16.4119 19.2325 15.9434C20.3295 13.2008 23.2915 11.6211 26.6813 11.6101C26.3299 9.48574 26.7419 7.30556 27.8441 5.45584C30.85 0.51925 38.2329 -0.468068 44.2994 3.2618C46.528 4.59677 48.3724 6.48659 49.6529 8.7469C54.0958 7.25495 58.7911 9.08698 60.305 12.9704C61.8189 16.8539 59.5041 21.5162 55.0831 23.3702C57.4527 26.0469 58.3084 29.3051 56.97 31.8282C55.0393 35.4923 49.2909 36.2163 44.0362 33.4847L43.9155 33.4189C41.5476 35.053 38.7291 35.9081 35.8524 35.8652C34.5377 35.8687 33.2283 35.6991 31.958 35.3606V25.0267L18.8047 17.4134Z" fill="#237C36" stroke="#237C36" stroke-width="1.64553" stroke-miterlimit="10"/>
<path d="M31.9585 46.9999H5.53125V25.0266L18.7503 17.3804L31.9585 25.0266V46.9999Z" fill="white" stroke="#333333" stroke-width="1.64553" stroke-miterlimit="10"/>
<path d="M1 27.6595L18.7498 17.3804" stroke="#333333" stroke-width="1.64553" stroke-miterlimit="10"/>
<path d="M36.4998 27.6595L18.75 17.3804" stroke="#333333" stroke-width="1.64553" stroke-miterlimit="10"/>
<path d="M22.5233 36.0847H14.9648V46.1663H22.5233V36.0847Z" fill="#237C36"/>
<path d="M18.7498 30.8957C18.0372 30.8978 17.34 30.6884 16.7466 30.2938C16.1532 29.8993 15.6903 29.3374 15.4166 28.6795C15.1429 28.0216 15.0707 27.2972 15.2092 26.5982C15.3477 25.8991 15.6906 25.257 16.1945 24.7531C16.6984 24.2492 17.3406 23.9063 18.0396 23.7678C18.7386 23.6293 19.463 23.7015 20.1209 23.9752C20.7788 24.2489 21.3407 24.7118 21.7352 25.3052C22.1298 25.8986 22.3392 26.5958 22.3371 27.3084C22.3342 28.2589 21.9553 29.1697 21.2832 29.8418C20.6111 30.5139 19.7003 30.8928 18.7498 30.8957Z" fill="#C4EFCE"/>
<path d="M18.7491 24.544C19.2966 24.5505 19.8299 24.7187 20.282 25.0276C20.7341 25.3365 21.0847 25.7722 21.2897 26.2799C21.4948 26.7876 21.545 27.3446 21.4343 27.8808C21.3235 28.417 21.0566 28.9084 20.6672 29.2933C20.2777 29.6782 19.7832 29.9393 19.2457 30.0437C18.7082 30.1482 18.1519 30.0913 17.6466 29.8803C17.1414 29.6693 16.7098 29.3136 16.4063 28.8579C16.1028 28.4022 15.9408 27.867 15.9407 27.3194C15.9393 26.9545 16.0101 26.593 16.1491 26.2556C16.288 25.9182 16.4924 25.6117 16.7504 25.3536C17.0084 25.0956 17.315 24.8912 17.6524 24.7523C17.9898 24.6133 18.3513 24.5425 18.7162 24.544H18.7491ZM18.7162 22.8984C17.8483 22.8984 16.9999 23.1558 16.2783 23.638C15.5567 24.1201 14.9943 24.8055 14.6621 25.6073C14.33 26.4091 14.2431 27.2914 14.4124 28.1426C14.5818 28.9938 14.9997 29.7757 15.6134 30.3894C16.227 31.003 17.0089 31.421 17.8601 31.5903C18.7113 31.7596 19.5936 31.6727 20.3955 31.3406C21.1973 31.0085 21.8826 30.446 22.3648 29.7244C22.8469 29.0028 23.1043 28.1544 23.1043 27.2865C23.1043 26.1227 22.642 25.0066 21.8191 24.1837C20.9961 23.3608 19.88 22.8984 18.7162 22.8984Z" fill="#333333"/>
<path d="M8.85547 23.1069V14.6379H12.6402V20.9129L8.85547 23.1069Z" stroke="#333333" stroke-width="1.64553" stroke-miterlimit="10"/>
<path d="M18.75 43.7528V39.3318" stroke="#333333" stroke-width="1.64553" stroke-miterlimit="10"/>
</svg>
