<svg viewBox="0 0 38 38" fill="none" xmlns="http://www.w3.org/2000/svg">
  <path d="M19.73 23.3717L8.36 19.6917C7.69424 19.5139 6.99266 19.5204 6.33035 19.7107C5.66803 19.9009 5.06991 20.2677 4.6 20.7717L1 24.4217V36.8217L7.94 34.5717C8.88085 34.153 9.9177 33.9974 10.94 34.1217L18.94 35.1217C20.292 35.2848 21.6578 34.9584 22.79 34.2017L35.79 25.4717C36.3401 25.1027 36.7244 24.5334 36.8607 23.8852C36.9971 23.2369 36.8748 22.5611 36.52 22.0017V22.0017C36.3385 21.7167 36.102 21.4707 35.8242 21.2783C35.5465 21.0858 35.2332 20.9507 34.9026 20.8809C34.572 20.811 34.2308 20.8079 33.8989 20.8715C33.5671 20.9352 33.2513 21.0644 32.97 21.2517L22.73 27.8117" stroke="currentColor" stroke-width="1.5" stroke-miterlimit="10"/>
  <path d="M10.78 25.9616L19.92 28.7516C20.5539 28.941 21.2367 28.8756 21.8231 28.5693C22.4095 28.263 22.8533 27.74 23.06 27.1116V27.1116C23.1627 26.7925 23.2015 26.4562 23.1742 26.1221C23.1468 25.788 23.0539 25.4626 22.9006 25.1644C22.7474 24.8663 22.5368 24.6013 22.2811 24.3846C22.0253 24.1679 21.7293 24.0038 21.41 23.9016L19.74 23.3616" stroke="currentColor" stroke-width="1.5" stroke-miterlimit="10"/>
  <path d="M15.6101 9.95166C17.5401 13.1417 18.8801 17.4617 19.1501 23.3817" stroke="currentColor" stroke-width="1.5" stroke-miterlimit="10"/>
  <path d="M22.3101 15.3916C20.495 17.6772 19.4454 20.4761 19.3101 23.3916" stroke="currentColor" stroke-width="1.5" stroke-miterlimit="10"/>
  <path d="M16.52 9.02165C14.67 11.6117 10.58 10.4816 8.24997 7.93165C6.36997 5.81165 5.46997 1.11165 5.46997 1.11165C5.46997 1.11165 10.78 0.60165 13.56 1.76165C16.89 3.14165 18.38 6.43165 16.52 9.02165Z" stroke="currentColor" stroke-width="1.5" stroke-miterlimit="10"/>
  <path d="M22.11 14.5918C20.55 12.3318 22.66 9.36175 25.39 8.24175C27.66 7.31175 31.72 7.95175 31.72 7.95175C31.72 7.95175 30.59 12.3918 28.85 14.3018C26.77 16.5918 23.67 16.8418 22.11 14.5918Z" stroke="currentColor" stroke-width="1.5" stroke-miterlimit="10"/>
</svg>
