<svg viewBox="0 0 45 51" fill="none" xmlns="http://www.w3.org/2000/svg">
  <path d="M35.3419 42.1899H35.5019C36.4732 42.1899 37.435 42.3814 38.3322 42.7534C39.2295 43.1254 40.0446 43.6707 40.7309 44.358C41.4173 45.0452 41.9614 45.8611 42.3322 46.7588C42.703 47.6566 42.8932 48.6186 42.8919 49.5899H19.4219C19.4206 48.6186 19.6107 47.6566 19.9815 46.7588C20.3523 45.8611 20.8965 45.0452 21.5828 44.358C22.2692 43.6707 23.0843 43.1254 23.9815 42.7534C24.8788 42.3814 25.8406 42.1899 26.8119 42.1899H26.9719" stroke="currentColor" stroke-width="1.5" stroke-miterlimit="10"/>
  <path d="M30.75 22.8301V7.87012" stroke="currentColor" stroke-width="1.5" stroke-miterlimit="10"/>
  <path d="M1.03125 4.47998V36.13C1.03125 36.24 1.03125 36.34 1.03125 36.45C1.03125 37.2456 1.34732 38.0087 1.90993 38.5713C2.47254 39.1339 3.2356 39.45 4.03125 39.45H24.7712" stroke="currentColor" stroke-width="1.5" stroke-miterlimit="10"/>
  <path d="M10.2383 13.7H22.3983" stroke="currentColor" stroke-width="1.5" stroke-miterlimit="10"/>
  <path d="M7.46094 17.47H25.3109" stroke="currentColor" stroke-width="1.5" stroke-miterlimit="10"/>
  <path d="M29.8 4.48C29.7378 3.32552 30.0423 2.18093 30.67 1.21C30.84 1.01 30.67 0.75 30.32 0.75H4.9C2.76 0.75 1 2.05 1 3.63V5.32C1 6.9 2.76 8.2 4.9 8.2H30.32C30.65 8.2 30.84 7.94 30.67 7.74C30.0437 6.77216 29.7392 5.63119 29.8 4.48V4.48Z" stroke="currentColor" stroke-width="1.5" stroke-miterlimit="10"/>
  <path d="M18.3386 21.4299H14.3086" stroke="currentColor" stroke-width="1.5" stroke-miterlimit="10"/>
  <path d="M38.1719 30.74V36.56C38.1719 38.4165 37.4344 40.197 36.1216 41.5097C34.8089 42.8225 33.0284 43.56 31.1719 43.56V43.56C29.3154 43.56 27.5349 42.8225 26.2221 41.5097C24.9094 40.197 24.1719 38.4165 24.1719 36.56V30.74" stroke="currentColor" stroke-width="1.5" stroke-miterlimit="10"/>
  <path d="M24.1406 30.7401V27.2901C24.1433 26.1063 24.6154 24.9719 25.4534 24.1358C26.2914 23.2996 27.4268 22.8301 28.6106 22.8301H33.7006C34.8844 22.8301 36.0199 23.2996 36.8579 24.1358C37.6959 24.9719 38.168 26.1063 38.1706 27.2901V30.7401H24.1406Z" stroke="currentColor" stroke-width="1.5" stroke-miterlimit="10"/>
  <path d="M34.1016 30.74H44.4716" stroke="currentColor" stroke-width="1.5" stroke-miterlimit="10"/>
  <path d="M28.9414 37.7299V33.7" stroke="currentColor" stroke-width="1.5" stroke-miterlimit="10"/>
  <path d="M33.3594 37.7299V33.7" stroke="currentColor" stroke-width="1.5" stroke-miterlimit="10"/>
</svg>
