<svg viewBox="0 0 38 32" fill="none" xmlns="http://www.w3.org/2000/svg">
  <path d="M19.73 16.89L8.36 13.25C7.69703 13.0566 6.99388 13.0475 6.32611 13.2236C5.65835 13.3998 5.05123 13.7547 4.57 14.25L1 17.94V30.34L7.94 28.09C8.88085 27.6713 9.9177 27.5158 10.94 27.64L18.94 28.64C20.2932 28.7993 21.6587 28.4694 22.79 27.71L35.79 18.98C36.3394 18.6129 36.7234 18.0453 36.8598 17.3987C36.9963 16.7521 36.8743 16.0778 36.52 15.52V15.52C36.3411 15.2365 36.1076 14.9914 35.8331 14.7989C35.5586 14.6064 35.2486 14.4703 34.9211 14.3987C34.5936 14.327 34.2551 14.3212 33.9253 14.3815C33.5955 14.4418 33.281 14.5671 33 14.75L22.76 21.35" stroke="currentColor" stroke-width="1.5" stroke-miterlimit="10"/>
  <path d="M10.78 19.4701L19.92 22.2501C20.5552 22.4364 21.238 22.3684 21.8239 22.0605C22.4099 21.7526 22.8532 21.2289 23.06 20.6001C23.1626 20.2817 23.2013 19.9461 23.1738 19.6127C23.1463 19.2793 23.0532 18.9546 22.8999 18.6573C22.7466 18.3599 22.5361 18.0958 22.2804 17.8801C22.0247 17.6643 21.7289 17.5012 21.41 17.4001L19.74 16.8601" stroke="currentColor" stroke-width="1.5" stroke-miterlimit="10"/>
  <path d="M17.75 9.78003C16.6537 9.78003 15.6022 10.2148 14.8261 10.9891C14.05 11.7633 13.6126 12.8138 13.61 13.91V14.91" stroke="currentColor" stroke-width="1.5" stroke-miterlimit="10"/>
  <path d="M22.61 9.78003C23.7053 9.78003 24.7558 10.2152 25.5303 10.9897C26.3049 11.7642 26.74 12.8147 26.74 13.91V18.74" stroke="currentColor" stroke-width="1.5" stroke-miterlimit="10"/>
  <path d="M19.91 1H20.45C20.9017 1 21.349 1.08898 21.7664 1.26185C22.1838 1.43473 22.563 1.68812 22.8824 2.00755C23.2019 2.32699 23.4552 2.70621 23.6281 3.12357C23.801 3.54093 23.89 3.98825 23.89 4.44V7.39C23.89 8.29704 23.5297 9.16693 22.8883 9.8083C22.2469 10.4497 21.377 10.81 20.47 10.81H19.93C19.0123 10.81 18.1323 10.4455 17.4834 9.79659C16.8345 9.14771 16.47 8.26765 16.47 7.35V4.44C16.47 3.52766 16.8324 2.65268 17.4775 2.00755C18.1226 1.36243 18.9976 1 19.91 1V1Z" stroke="currentColor" stroke-width="1.5" stroke-miterlimit="10"/>
</svg>
