<svg viewBox="0 0 37 32" fill="none" xmlns="http://www.w3.org/2000/svg">
  <path d="M15.67 30.34C23.772 30.34 30.34 23.772 30.34 15.67C30.34 7.56798 23.772 1 15.67 1C7.56798 1 1 7.56798 1 15.67C1 23.772 7.56798 30.34 15.67 30.34Z" stroke="currentColor" stroke-width="1.5" stroke-miterlimit="10"/>
  <path d="M15.6699 1H21.4899C25.3157 1.09988 28.9511 2.68981 31.6217 5.43102C34.2923 8.17222 35.7868 11.848 35.7868 15.675C35.7868 19.502 34.2923 23.1778 31.6217 25.919C28.9511 28.6602 25.3157 30.2501 21.4899 30.35H15.6699" stroke="currentColor" stroke-width="1.5" stroke-miterlimit="10"/>
  <path d="M20.2502 9.85C19.4537 9.31434 18.5199 9.01926 17.5602 9C14.4602 9 11.9502 12 11.9502 15.67C11.9502 19.34 14.4602 22.34 17.5602 22.34C18.5211 22.3283 19.457 22.0325 20.2502 21.49" stroke="currentColor" stroke-width="1.5" stroke-miterlimit="10"/>
  <path d="M8.77979 13.79H18.1598" stroke="currentColor" stroke-width="1.5" stroke-miterlimit="10"/>
  <path d="M8.77979 17.5601H17.4298" stroke="currentColor" stroke-width="1.5" stroke-miterlimit="10"/>
</svg>
