<svg version="1.2" xmlns="http://www.w3.org/2000/svg" viewBox="0 0 48 48">
	<title>icon-hand-heart-colored-svg</title>
	<style>
		.s0 { fill: #e3a612 } 
		.s1 { fill: none;stroke: #333333;stroke-width: 1.3 } 
		.s2 { fill: none;stroke: #000000;stroke-width: 1.3 } 
	</style>
	<path id="Layer" class="s0" d="m25.9 38.3l10.7-6.9q0.5-0.3 1-0.4 0.5-0.1 1.1 0 0.5 0.1 0.9 0.4 0.4 0.3 0.7 0.8c0.4 0.6 0.5 1.3 0.4 1.9-0.1 0.7-0.6 1.3-1.1 1.7l-13.6 9.2c-1.2 0.8-2.7 1.2-4.1 1l-8.3-1c-1.1-0.2-2.2 0-3.2 0.4l-7.3 2.4v-13l3.8-3.9c0.5-0.5 1.1-0.9 1.8-1.1 0.7-0.2 1.5-0.2 2.2 0l11.9 3.8"/>
	<path id="Layer" class="s0" d="m22.7 33.6l1.8 0.6q0.5 0.2 0.9 0.5 0.4 0.3 0.7 0.8 0.2 0.5 0.3 1 0 0.6-0.2 1.1c-0.2 0.6-0.6 1.2-1.2 1.5-0.6 0.3-1.4 0.4-2 0.2l-9.6-2.9"/>
	<path id="Layer" class="s1" d="m26.2 37.6c-0.2 0.6-0.6 1.2-1.2 1.5-0.6 0.3-1.4 0.4-2 0.2l-9.6-2.9"/>
	<path id="Layer" class="s2" d="m32.9 10.2q1 0.5 1.8 1.3 0.8 0.8 1.2 1.8 0.5 1 0.5 2.2v-0.2c0 3.7-1.6 4.9-4.3 7.3l-6.9 6.3-6.8-6.3c-2.7-2.4-4.3-3.6-4.3-7.3v0.2q0-1.1 0.5-2.2 0.4-1 1.2-1.8 0.8-0.8 1.8-1.3 1.1-0.4 2.2-0.4c1.4 0 2.8 0.6 3.9 1.6 1 1.1 1.6 2.5 1.6 3.9 0-1.4 0.5-2.8 1.5-3.8 1.1-1.1 2.4-1.7 3.9-1.7q1.1 0 2.2 0.4z"/>
	<path id="Layer" class="s2" d="m25.3 3.6v-3.6"/>
	<path id="Layer" class="s2" d="m25.3 3.6v-3.6"/>
	<path id="Layer" class="s2" d="m35.8 8l2.6-2.6"/>
	<path id="Layer" class="s2" d="m35.8 8l2.6-2.6"/>
	<path id="Layer" class="s2" d="m14.7 8l-2.6-2.6"/>
	<path id="Layer" class="s2" d="m14.7 8l-2.6-2.6"/>
	<path id="Layer" class="s2" d="m10.3 18.6h-3.7"/>
	<path id="Layer" class="s2" d="m10.3 18.6h-3.7"/>
	<path id="Layer" class="s2" d="m40.2 18.6h3.7"/>
	<path id="Layer" class="s2" d="m31.9 13.3c0.7 0.7 1.1 1.6 1.1 2.5 0 0.9-0.4 1.8-1.1 2.5"/>
</svg>