<svg width="42" height="47" viewBox="0 0 42 47" fill="none" xmlns="http://www.w3.org/2000/svg">
<path d="M40.0505 41.7805H6.48047V45.7305H40.0505V41.7805Z" stroke="#605D59" stroke-width="1.5" stroke-miterlimit="10"/>
<path d="M26.3711 22.2204H40.4611V19.2704L26.8711 14.7004" stroke="#605D59" stroke-width="1.5" stroke-miterlimit="10"/>
<path d="M36.0902 32.1605V22.2205H31.6902V30.8405V37.9805L30.1602 41.7805H37.6202L36.0902 37.9805V32.1605Z" stroke="#605D59" stroke-width="1.5" stroke-miterlimit="10"/>
<path d="M21.0613 30.1905V30.8405V37.9805L19.5312 41.7805H26.9913L25.4613 37.9805V32.1605V24.7405" stroke="#605D59" stroke-width="1.5" stroke-miterlimit="10"/>
<path d="M10.4284 32.5405V37.9805L8.89844 41.7805H16.3584L14.8284 37.9805V33.7305" stroke="#605D59" stroke-width="1.5" stroke-miterlimit="10"/>
<path d="M13.87 1.00041C18.2506 0.981135 22.6082 1.63544 26.79 2.94041L26.87 18.3604C26.8804 20.8521 26.2629 23.3062 25.0744 25.4961C23.8859 27.6861 22.1648 29.5413 20.07 30.8904L16.84 32.9604C15.9905 33.5085 15.001 33.8001 13.99 33.8004C12.9784 33.8024 11.9869 33.5182 11.13 32.9804L7.89001 30.9804C5.77722 29.6433 4.03735 27.793 2.83259 25.6021C1.62782 23.4111 0.997372 20.9508 1.00001 18.4504V3.03041C5.16112 1.70029 9.5015 1.01568 13.87 1.00041V1.00041Z" stroke="#605D59" stroke-width="1.5" stroke-miterlimit="10"/>
<path d="M9.30078 22.9104C10.6075 23.9952 12.2524 24.589 13.9508 24.589C15.6491 24.589 17.294 23.9952 18.6008 22.9104V22.9104" stroke="#605D59" stroke-width="1.5" stroke-miterlimit="10"/>
<path d="M11.8588 13.9903C10.1488 11.7503 7.67875 11.7503 5.96875 13.9903" stroke="#605D59" stroke-width="1.5" stroke-miterlimit="10"/>
<path d="M21.9312 13.9903C20.2212 11.7503 17.7413 11.7503 16.0312 13.9903" stroke="#605D59" stroke-width="1.5" stroke-miterlimit="10"/>
</svg>
