<svg width="64" height="64" viewBox="0 0 64 64" fill="none" xmlns="http://www.w3.org/2000/svg">
<path d="M31.4802 42.7461H18.5469" stroke="#333333" stroke-width="1.5" stroke-miterlimit="10"/>
<path d="M32.7198 49.0937C45.5998 49.0937 53.4664 43.4804 53.4664 43.4804V25.3337C53.4664 25.3337 48.3865 21.707 42.5865 18.0137C41.7065 17.4537 39.2931 15.8137 37.1331 14.6404C35.3065 13.6404 32.9465 13.787 31.9731 15.6137C31.5633 16.3698 31.4565 17.2536 31.6744 18.0856C31.8923 18.9176 32.4186 19.6355 33.1465 20.0937L38.2531 23.3337C38.285 23.3538 38.3095 23.3837 38.3228 23.4189C38.3362 23.4541 38.3377 23.4927 38.3271 23.5289C38.3166 23.5651 38.2946 23.5968 38.2644 23.6193C38.2342 23.6418 38.1975 23.6539 38.1598 23.6537H15.9998C15.1652 23.6537 14.3649 23.9852 13.7748 24.5753C13.1846 25.1655 12.8531 25.9658 12.8531 26.8004V26.8004C12.8388 27.2225 12.9096 27.6432 13.0613 28.0373C13.213 28.4315 13.4425 28.7911 13.7362 29.0947C14.0298 29.3983 14.3816 29.6396 14.7705 29.8044C15.1593 29.9692 15.5774 30.054 15.9998 30.0537H11.4665C10.6319 30.0537 9.83154 30.3852 9.24143 30.9753C8.65131 31.5655 8.31979 32.3658 8.31979 33.2004V33.2004C8.31271 33.6181 8.38887 34.033 8.54383 34.4209C8.69879 34.8089 8.92945 35.1621 9.22235 35.46C9.51526 35.7578 9.86454 35.9944 10.2498 36.1559C10.6351 36.3173 11.0487 36.4004 11.4665 36.4004H13.0398C12.2052 36.4004 11.4049 36.7319 10.8148 37.322C10.2246 37.9121 9.89312 38.7125 9.89312 39.547V39.547C9.89312 39.9603 9.97451 40.3694 10.1326 40.7512C10.2908 41.133 10.5226 41.4799 10.8148 41.7721C11.107 42.0643 11.4538 42.296 11.8356 42.4542C12.2174 42.6123 12.6266 42.6937 13.0398 42.6937H18.5465C17.7119 42.6937 16.9115 43.0252 16.3214 43.6153C15.7313 44.2055 15.3998 45.0058 15.3998 45.8404V45.8404C15.3998 46.6749 15.7313 47.4753 16.3214 48.0654C16.9115 48.6555 17.7119 48.987 18.5465 48.987L32.7198 49.0937Z" stroke="#333333" stroke-width="1.5" stroke-miterlimit="10"/>
<path d="M15.9873 30.0532H31.974" stroke="#333333" stroke-width="1.5" stroke-miterlimit="10"/>
<path d="M13.04 36.3999H31.9734" stroke="#333333" stroke-width="1.5" stroke-miterlimit="10"/>
<path d="M18.5469 42.7461H31.9735" stroke="#333333" stroke-width="1.5" stroke-miterlimit="10"/>
</svg>
