<svg viewBox="0 0 28 34" fill="none" xmlns="http://www.w3.org/2000/svg">
  <path d="M15.25 1.00006C16.234 1.00006 17.1776 1.39093 17.8734 2.08669C18.5691 2.78245 18.96 3.7261 18.96 4.71006V8.71006C18.96 9.19586 18.8639 9.67685 18.6771 10.1253C18.4902 10.5737 18.2165 10.9808 17.8716 11.3229C17.5267 11.665 17.1175 11.9354 16.6675 12.1186C16.2176 12.3018 15.7358 12.394 15.25 12.3901V12.3901C14.2608 12.3901 13.312 11.9971 12.6125 11.2976C11.913 10.5981 11.52 9.64931 11.52 8.66006V4.66006C11.5332 3.68132 11.9326 2.74745 12.6313 2.0619C13.3299 1.37636 14.2712 0.99469 15.25 1.00006V1.00006Z" stroke="currentColor" stroke-width="1.5" stroke-miterlimit="10"/>
  <path d="M11.56 8.14014H7.86C6.04061 8.14014 4.29575 8.86288 3.00925 10.1494C1.72275 11.4359 1 13.1808 1 15.0001V32.7401H14.67V19.8601H21.52C22.0454 19.8236 22.5375 19.5892 22.8968 19.204C23.2561 18.8189 23.4559 18.3118 23.4559 17.7851C23.4559 17.2584 23.2561 16.7514 22.8968 16.3662C22.5375 15.9811 22.0454 15.7466 21.52 15.7101H14.67V12.3901" stroke="currentColor" stroke-width="1.5" stroke-miterlimit="10"/>
  <path d="M26.84 33.25V21.03C26.84 20.1707 26.4986 19.3466 25.891 18.739C25.2834 18.1314 24.4593 17.79 23.6 17.79V17.79" stroke="currentColor" stroke-width="1.5" stroke-miterlimit="10"/>
  <path d="M14.67 24.28H1" stroke="currentColor" stroke-width="1.5" stroke-miterlimit="10"/>
</svg>
