<svg width="64" height="64" viewBox="0 0 64 64" fill="none" xmlns="http://www.w3.org/2000/svg">
<path d="M15.844 28.2764C17.6194 28.2716 19.3562 28.7935 20.8349 29.7761C22.3135 30.7587 23.4675 32.1578 24.1507 33.7964C24.657 35.0214 24.8853 36.3435 24.819 37.6673C24.7526 38.9912 24.3934 40.2838 23.7672 41.4521C23.141 42.6204 22.2634 43.6351 21.1976 44.4233C20.1318 45.2114 18.9045 45.7532 17.604 46.0097C15.8635 46.3494 14.0615 46.1689 12.423 45.4907C10.7845 44.8125 9.38203 43.6667 8.39068 42.1964C7.49389 40.8473 6.97966 39.2802 6.9027 37.6621C6.82573 36.0439 7.18892 34.4351 7.95362 33.007C8.71831 31.5788 9.8559 30.3847 11.2453 29.5517C12.6347 28.7187 14.224 28.2779 15.844 28.2764V28.2764Z" stroke="#333333" stroke-width="1.5" stroke-linejoin="round"/>
<path d="M48.1242 28.2764C49.8973 28.2742 51.6313 28.7973 53.1073 29.7797C54.5833 30.7622 55.7352 32.1599 56.4176 33.7964C57.101 35.4215 57.2821 37.2141 56.9376 38.943C56.5898 40.6803 55.7363 42.2761 54.4842 43.5297C53.2288 44.7864 51.6287 45.6423 49.8864 45.9888C48.1442 46.3354 46.3383 46.157 44.6976 45.4764C42.7927 44.6794 41.2222 43.2481 40.2524 41.4252C39.2825 39.6023 38.9731 37.5 39.3765 35.475C39.78 33.4499 40.8715 31.6268 42.4659 30.3147C44.0603 29.0027 46.0594 28.2825 48.1242 28.2764V28.2764Z" stroke="#333333" stroke-width="1.5" stroke-linejoin="round"/>
<path d="M24.8307 37.1966H32.964L20.4307 17.8232" stroke="#333333" stroke-width="1.5" stroke-linejoin="round"/>
<path d="M48.1364 37.1965L40.6964 22.5698H23.2831L15.8564 37.1965H24.8298" stroke="#333333" stroke-width="1.5" stroke-linejoin="round"/>
<path d="M32.9629 37.1965L40.6962 22.5698" stroke="#333333" stroke-width="1.5" stroke-linejoin="round"/>
<path d="M40.6973 22.5699V17.8232H45.6973" stroke="#333333" stroke-width="1.5" stroke-linejoin="round"/>
<path d="M17.377 17.8232H26.6036" stroke="#333333" stroke-width="1.5" stroke-linejoin="round"/>
</svg>
