<svg width="64" height="64" viewBox="0 0 64 64" fill="none" xmlns="http://www.w3.org/2000/svg">
<path d="M36.7468 40.3801H36.9735C38.3333 40.3784 39.6802 40.6447 40.9371 41.1639C42.1939 41.6831 43.3361 42.4449 44.2983 43.4059C45.2605 44.3668 46.0238 45.508 46.5446 46.7642C47.0654 48.0204 47.3335 49.3669 47.3335 50.7268H14.4668C14.4668 47.9827 15.5569 45.351 17.4973 43.4106C19.4376 41.4702 22.0694 40.3801 24.8135 40.3801H25.0535" stroke="#333333" stroke-width="1.5" stroke-miterlimit="10"/>
<path d="M40.7067 24.3396V32.4996C40.7085 33.7888 40.4559 35.0657 39.9633 36.2571C39.4708 37.4485 38.748 38.531 37.8364 39.4426C36.9248 40.3542 35.8423 41.077 34.6509 41.5695C33.4595 42.0621 32.1826 42.3147 30.8934 42.3129V42.3129C28.2908 42.3129 25.7947 41.279 23.9543 39.4387C22.114 37.5983 21.0801 35.1023 21.0801 32.4996V24.3396" stroke="#333333" stroke-width="1.5" stroke-miterlimit="10"/>
<path d="M21.0801 24.3399V19.5265C21.0801 17.868 21.7389 16.2775 22.9116 15.1048C24.0844 13.932 25.6749 13.2732 27.3334 13.2732H34.4534C36.1119 13.2732 37.7025 13.932 38.8752 15.1048C40.0479 16.2775 40.7067 17.868 40.7067 19.5265V24.3399H21.0801Z" stroke="#333333" stroke-width="1.5" stroke-miterlimit="10"/>
<path d="M35.0273 24.3396H49.534" stroke="#333333" stroke-width="1.5" stroke-miterlimit="10"/>
<path d="M27.8008 34.1268V28.4868" stroke="#333333" stroke-width="1.5" stroke-miterlimit="10"/>
<path d="M33.9873 34.1268V28.4868" stroke="#333333" stroke-width="1.5" stroke-miterlimit="10"/>
</svg>
