<svg width="64" height="64" viewBox="0 0 64 64" fill="none" xmlns="http://www.w3.org/2000/svg">
<path d="M15.6132 33.4185C13.4596 33.4185 11.3943 34.274 9.87146 35.7968C8.34866 37.3195 7.49316 39.3849 7.49316 41.5385H27.1865" stroke="#333333" stroke-width="1.5" stroke-miterlimit="10"/>
<path d="M27.1875 41.5403H27.3999" stroke="#333333" stroke-width="1.5" stroke-miterlimit="10"/>
<path d="M28.0938 23.1924V22.6857V21.1924" stroke="#333333" stroke-width="1.5" stroke-miterlimit="10"/>
<path d="M24.253 33.859C23.0832 34.5567 21.7484 34.9295 20.3864 34.939V34.939C18.3424 34.939 16.3822 34.1271 14.9369 32.6818C13.4916 31.2365 12.6797 29.2763 12.6797 27.2324V21.1924" stroke="#333333" stroke-width="1.5" stroke-miterlimit="10"/>
<path d="M12.6797 21.1933C12.6832 19.3733 13.4078 17.6287 14.6948 16.3418C15.9818 15.0548 17.7263 14.3302 19.5464 14.3267H21.2397C23.0585 14.3302 24.8017 15.0552 26.0865 16.3426C27.3714 17.6299 28.093 19.3745 28.093 21.1933" stroke="#333333" stroke-width="1.5" stroke-miterlimit="10"/>
<path d="M28.0938 21.1928V20.8198" stroke="#333333" stroke-width="1.5" stroke-miterlimit="10"/>
<path d="M12.6797 21.1928V20.8198" stroke="#333333" stroke-width="1.5" stroke-miterlimit="10"/>
<path d="M36.5068 41.5403H36.7325" stroke="#333333" stroke-width="1.5" stroke-miterlimit="10"/>
<path d="M36.7334 41.5385H56.5067C56.5067 39.3849 55.6512 37.3195 54.1284 35.7968C52.6056 34.274 50.5403 33.4185 48.3867 33.4185" stroke="#333333" stroke-width="1.5" stroke-miterlimit="10"/>
<path d="M51.32 21.1924V27.2324C51.32 28.2444 51.1206 29.2466 50.7333 30.1816C50.346 31.1166 49.7783 31.9662 49.0627 32.6818C48.3471 33.3974 47.4975 33.9651 46.5625 34.3524C45.6275 34.7397 44.6253 34.939 43.6133 34.939C42.2019 34.9437 40.817 34.5559 39.6133 33.819" stroke="#333333" stroke-width="1.5" stroke-miterlimit="10"/>
<path d="M51.3203 21.1928V20.8198" stroke="#333333" stroke-width="1.5" stroke-miterlimit="10"/>
<path d="M35.9072 21.1933C35.9072 19.3745 36.6288 17.6299 37.9137 16.3426C39.1986 15.0552 40.9417 14.3302 42.7606 14.3267H44.4539C46.274 14.3302 48.0185 15.0548 49.3055 16.3418C50.5925 17.6287 51.317 19.3733 51.3206 21.1933" stroke="#333333" stroke-width="1.5" stroke-miterlimit="10"/>
<path d="M35.9072 21.1928V20.8198" stroke="#333333" stroke-width="1.5" stroke-miterlimit="10"/>
<path d="M35.9072 23.2324V22.6857V21.1924" stroke="#333333" stroke-width="1.5" stroke-miterlimit="10"/>
<path d="M27.1861 41.5403C25.029 41.5403 22.9602 42.3972 21.4349 43.9225C19.9096 45.4478 19.0527 47.5165 19.0527 49.6736H44.8527C44.8527 47.5188 43.9977 45.4521 42.4753 43.9272C40.9528 42.4023 38.8875 41.5438 36.7327 41.5403" stroke="#333333" stroke-width="1.5" stroke-miterlimit="10"/>
<path d="M28.0929 23.1792C26.9484 23.7395 25.9828 24.6077 25.3045 25.6864C24.6261 26.7651 24.262 28.0116 24.2529 29.2859" stroke="#333333" stroke-width="1.5" stroke-miterlimit="10"/>
<path d="M24.2529 28.9529V29.3258" stroke="#333333" stroke-width="1.5" stroke-miterlimit="10"/>
<path d="M35.9072 23.2327C37.0288 23.7999 37.9727 24.6646 38.6359 25.7322C39.299 26.7998 39.6558 28.0292 39.6672 29.286" stroke="#333333" stroke-width="1.5" stroke-miterlimit="10"/>
<path d="M39.667 29.3267V30.82V33.82" stroke="#333333" stroke-width="1.5" stroke-miterlimit="10"/>
<path d="M39.6668 33.8193V35.3527C39.6644 36.5599 39.3769 37.7494 38.8278 38.8245C38.2787 39.8995 37.4834 40.8297 36.5068 41.5393" stroke="#333333" stroke-width="1.5" stroke-miterlimit="10"/>
<path d="M27.3994 41.5403C28.7129 42.5258 30.3106 43.0586 31.9527 43.0586C33.5948 43.0586 35.1926 42.5258 36.5061 41.5403" stroke="#333333" stroke-width="1.5" stroke-miterlimit="10"/>
<path d="M24.2529 33.8591V35.3525C24.2528 36.5587 24.5378 37.7479 25.0846 38.823C25.6314 39.8982 26.4247 40.8288 27.3996 41.5391" stroke="#333333" stroke-width="1.5" stroke-miterlimit="10"/>
<path d="M24.2529 29.3267V30.82V33.86" stroke="#333333" stroke-width="1.5" stroke-miterlimit="10"/>
<path d="M39.667 29.3258V28.9529" stroke="#333333" stroke-width="1.5" stroke-miterlimit="10"/>
<path d="M28.0938 23.179C29.0313 22.7156 30.0613 22.4695 31.1071 22.459H32.8004C33.8828 22.4653 34.948 22.7305 35.9071 23.2323" stroke="#333333" stroke-width="1.5" stroke-miterlimit="10"/>
</svg>
