<svg width="64" height="64" viewBox="0 0 64 64" fill="none" xmlns="http://www.w3.org/2000/svg">
<path d="M31.4199 9.35791V19.8912H41.9533" stroke="#333333" stroke-width="1.5" stroke-miterlimit="10"/>
<path d="M41.9537 30.7046V19.8912L31.4203 9.35791H14.167V50.6912H30.2603" stroke="#333333" stroke-width="1.5" stroke-miterlimit="10"/>
<path d="M40.4994 29.6525C43.7918 30.4702 46.9395 31.7877 49.8327 33.5592V33.5592L46.9794 45.2525C46.5193 47.1406 45.5901 48.882 44.2779 50.3154C42.9656 51.7488 41.3129 52.8278 39.4727 53.4525L36.6327 54.4125C35.8869 54.6767 35.0796 54.7138 34.3127 54.5192C33.5475 54.3255 32.8507 53.9241 32.2994 53.3592L30.2327 51.1858C28.8921 49.7788 27.9278 48.0565 27.4291 46.1781C26.9304 44.2997 26.9133 42.3259 27.3794 40.4392L30.2594 28.7592C33.6984 28.5257 37.1528 28.8271 40.4994 29.6525Z" stroke="#333333" stroke-width="1.5" stroke-miterlimit="10"/>
<path d="M35.7665 33.905L34.0332 40.9584" stroke="#333333" stroke-width="1.5" stroke-miterlimit="10"/>
<path d="M42.4472 35.5452L40.7139 42.5985" stroke="#333333" stroke-width="1.5" stroke-miterlimit="10"/>
<path d="M33.0068 44.7446C33.7967 45.8097 34.9335 46.5657 36.2212 46.8821C37.5089 47.1986 38.8666 47.0556 40.0602 46.478" stroke="#333333" stroke-width="1.5" stroke-miterlimit="10"/>
</svg>
