<svg width="64" height="64" viewBox="0 0 64 64" fill="none" xmlns="http://www.w3.org/2000/svg">
<path d="M28.1196 51.5599C38.9223 51.5599 47.6796 42.8026 47.6796 31.9999C47.6796 21.1973 38.9223 12.4399 28.1196 12.4399C17.3169 12.4399 8.55957 21.1973 8.55957 31.9999C8.55957 42.8026 17.3169 51.5599 28.1196 51.5599Z" stroke="#333333" stroke-width="1.5" stroke-miterlimit="10"/>
<path d="M28.1201 12.4399H35.8801C41.0678 12.4399 46.0429 14.5007 49.7111 18.1689C53.3793 21.8371 55.4401 26.8123 55.4401 31.9999C55.4401 37.1876 53.3793 42.1627 49.7111 45.831C46.0429 49.4992 41.0678 51.5599 35.8801 51.5599H28.1201" stroke="#333333" stroke-width="1.5" stroke-miterlimit="10"/>
<path d="M34.1598 24.2403C33.1029 23.5154 31.8546 23.121 30.5731 23.1069C26.4531 23.1069 23.1064 27.1069 23.1064 32.0003C23.1064 36.8936 26.4531 40.8936 30.5731 40.8936C31.8546 40.8796 33.1029 40.4851 34.1598 39.7603" stroke="#333333" stroke-width="1.5" stroke-miterlimit="10"/>
<path d="M18.9336 29.48H31.4403" stroke="#333333" stroke-width="1.5" stroke-miterlimit="10"/>
<path d="M18.9336 34.52H30.4669" stroke="#333333" stroke-width="1.5" stroke-miterlimit="10"/>
</svg>
