<svg width="64" height="64" viewBox="0 0 64 64" fill="none" xmlns="http://www.w3.org/2000/svg">
<path d="M38.915 42.276V52.386H43.155V40.606" stroke="#333333" stroke-width="1.5" stroke-miterlimit="10"/>
<path d="M21.3252 26.156C21.3889 25.7069 21.5064 25.2671 21.6752 24.846C22.6752 22.426 25.2652 21.026 28.2752 21.016C27.9568 19.1351 28.3108 17.202 29.2752 15.556C31.9352 11.186 38.4852 10.316 43.8952 13.616C45.8756 14.7937 47.5132 16.4692 48.6452 18.476C52.5852 17.156 56.7452 18.776 58.0852 22.216C59.4252 25.656 57.3752 29.796 53.4552 31.436C55.5552 33.806 56.3152 36.696 55.1352 38.936C53.4252 42.176 48.2852 42.836 43.6652 40.396L43.5552 40.336C41.462 41.7921 38.9647 42.5546 36.4152 42.516C35.2505 42.5176 34.0906 42.3663 32.9652 42.066V32.906L21.3252 26.156Z" fill="#237C36" stroke="#237C36" stroke-width="1.5" stroke-miterlimit="10"/>
<path d="M32.9554 52.386H9.52539V32.906L21.2454 26.126L32.9554 32.906V52.386Z" fill="white" stroke="#333333" stroke-width="1.5" stroke-miterlimit="10"/>
<path d="M5.50488 35.236L21.2449 26.126" stroke="#333333" stroke-width="1.5" stroke-miterlimit="10"/>
<path d="M36.9751 35.236L21.2451 26.126" stroke="#333333" stroke-width="1.5" stroke-miterlimit="10"/>
<path d="M24.5955 42.7061H17.8955V52.3861H24.5955V42.7061Z" fill="white" stroke="#333333" stroke-width="1.5" stroke-miterlimit="10"/>
<path d="M21.2455 38.2859C23.0957 38.2859 24.5955 36.7861 24.5955 34.9359C24.5955 33.0858 23.0957 31.5859 21.2455 31.5859C19.3954 31.5859 17.8955 33.0858 17.8955 34.9359C17.8955 36.7861 19.3954 38.2859 21.2455 38.2859Z" stroke="#333333" stroke-width="1.5" stroke-miterlimit="10"/>
<path d="M12.4756 31.2063V23.6963H15.8356V29.2563L12.4756 31.2063Z" stroke="#333333" stroke-width="1.5" stroke-miterlimit="10"/>
<path d="M21.2451 49.5059V45.5859" stroke="#333333" stroke-width="1.5" stroke-miterlimit="10"/>
</svg>
