<svg width="64" height="64" viewBox="0 0 64 64" fill="none" xmlns="http://www.w3.org/2000/svg">
<path d="M46.7667 15.7864H17.22C14.6527 15.7864 12.1906 16.8062 10.3752 18.6216C8.55989 20.4369 7.54004 22.8991 7.54004 25.4664V48.2397H56.46V25.4664C56.46 24.1941 56.2092 22.9342 55.7219 21.7589C55.2346 20.5836 54.5204 19.5159 53.6201 18.6169C52.7198 17.7178 51.6511 17.0051 50.4752 16.5194C49.2992 16.0337 48.039 15.7846 46.7667 15.7864V15.7864Z" stroke="#333333" stroke-width="1.5" stroke-miterlimit="10"/>
<path d="M38.54 28.573H46.2867V36.573C46.2867 37.5242 45.9088 38.4365 45.2362 39.1092C44.5636 39.7818 43.6513 40.1597 42.7 40.1597H42.14C41.1888 40.1597 40.2765 39.7818 39.6039 39.1092C38.9313 38.4365 38.5534 37.5242 38.5534 36.573V28.573H38.54Z" stroke="#333333" stroke-width="1.5" stroke-miterlimit="10"/>
<path d="M42.4072 35.7869V32.8936" stroke="#333333" stroke-width="1.5" stroke-miterlimit="10"/>
<path d="M8.16699 28.573H55.8203" stroke="#333333" stroke-width="1.5" stroke-miterlimit="10"/>
<path d="M18.207 15.7603C20.7756 15.7638 23.2377 16.7866 25.0526 18.6041C26.8676 20.4215 27.887 22.8851 27.887 25.4536V48.2136" stroke="#333333" stroke-width="1.5" stroke-miterlimit="10"/>
</svg>
