<svg width="64" height="64" viewBox="0 0 64 64" fill="none" xmlns="http://www.w3.org/2000/svg">
<path d="M31.4505 37.4093H51.0705C51.3702 37.4093 51.6576 37.5284 51.8695 37.7403C52.0815 37.9522 52.2005 38.2396 52.2005 38.5393V45.7593H30.2705V38.5393C30.2704 38.3866 30.3012 38.2355 30.361 38.095C30.4209 37.9545 30.5087 37.8277 30.619 37.7221C30.7292 37.6165 30.8598 37.5343 31.0027 37.4805C31.1456 37.4268 31.298 37.4026 31.4505 37.4093Z" stroke="#333333" stroke-width="1.5" stroke-miterlimit="10"/>
<path d="M28.1107 45.7593H54.4107C54.6388 45.7593 54.8576 45.8499 55.0189 46.0112C55.1801 46.1724 55.2707 46.3912 55.2707 46.6193V47.8393C55.2707 48.0382 55.1917 48.229 55.0511 48.3696C54.9104 48.5103 54.7197 48.5893 54.5207 48.5893H28.0007C27.8053 48.5841 27.6197 48.5028 27.4833 48.3627C27.3469 48.2226 27.2707 48.0348 27.2707 47.8393V46.6393C27.2681 46.5263 27.2877 46.414 27.3285 46.3086C27.3693 46.2033 27.4304 46.107 27.5084 46.0252C27.5864 45.9435 27.6798 45.878 27.7831 45.8323C27.8865 45.7867 27.9978 45.7619 28.1107 45.7593V45.7593Z" stroke="#333333" stroke-width="1.5" stroke-miterlimit="10"/>
<path d="M28.7607 48.5693V56.5193" stroke="#333333" stroke-width="1.5" stroke-miterlimit="10"/>
<path d="M53.7607 48.5693V56.5193" stroke="#333333" stroke-width="1.5" stroke-miterlimit="10"/>
<path d="M50.6904 48.5693V56.5193" stroke="#333333" stroke-width="1.5" stroke-miterlimit="10"/>
<path d="M31.8301 48.5693V56.5193" stroke="#333333" stroke-width="1.5" stroke-miterlimit="10"/>
<path d="M23.8008 33.5393L23.8108 56.5193" stroke="#333333" stroke-width="1.5" stroke-miterlimit="10"/>
<path d="M18.7405 33.8393C20.2106 34.33 21.779 34.4507 23.307 34.1908C24.8349 33.9309 26.2752 33.2985 27.5005 32.3493L27.5905 32.3993C31.4005 34.5093 35.5905 33.9393 37.0605 31.1393C38.0605 29.1993 37.4105 26.6993 35.6705 24.6493C38.9105 23.2393 40.6705 19.7093 39.4905 16.6493C38.8799 15.1927 37.7195 14.0355 36.2611 13.4289C34.8027 12.8224 33.164 12.8153 31.7005 13.4093C30.7782 11.6945 29.4277 10.2475 27.7805 9.20934C23.2705 6.35934 17.9005 7.10934 15.6905 10.8993C14.8841 12.3285 14.5878 13.9895 14.8505 15.6093C14.8505 15.6093 8.73047 16.5293 8.73047 22.1493C8.73047 28.4893 14.4605 28.3493 14.4605 28.3493C14.4605 28.3493 14.9305 32.5493 18.7405 33.8393Z" stroke="#333333" stroke-width="1.5" stroke-miterlimit="10"/>
</svg>
