<svg width="64" height="64" viewBox="0 0 64 64" fill="none" xmlns="http://www.w3.org/2000/svg">
<path d="M33.0226 38.3866L18.5026 33.68C17.6569 33.4447 16.763 33.4446 15.9173 33.6795C15.0715 33.9144 14.3058 34.3756 13.7026 35.0133L9.14258 39.68V55.5466L18.0092 52.6666C19.2029 52.1431 20.5153 51.9497 21.8092 52.1066L31.9959 53.3333C33.6931 53.5283 35.4043 53.1123 36.8226 52.16L53.4226 41.0133C54.1239 40.5454 54.6142 39.8216 54.7886 38.9968C54.963 38.172 54.8077 37.3117 54.3559 36.6V36.6C54.1269 36.2388 53.8285 35.9266 53.4782 35.6813C53.1279 35.436 52.7325 35.2625 52.3147 35.1708C51.897 35.079 51.4653 35.0709 51.0444 35.1469C50.6236 35.2228 50.2219 35.3813 49.8626 35.6133L36.8226 44.04" stroke="#333333" stroke-width="1.5" stroke-miterlimit="10"/>
<path d="M21.5947 41.6811L33.2614 45.2544C34.0712 45.4937 34.9424 45.4075 35.6895 45.014C36.4367 44.6205 37.0007 43.9509 37.2614 43.1477C37.5128 42.3326 37.4325 41.4512 37.0381 40.6949C36.6437 39.9385 35.967 39.3682 35.1547 39.1077L33.0347 38.4277" stroke="#333333" stroke-width="1.5" stroke-miterlimit="10"/>
<path d="M27.7686 21.2534C30.2352 25.3201 31.9419 30.8401 32.2752 38.3867" stroke="#333333" stroke-width="1.5" stroke-miterlimit="10"/>
<path d="M36.3156 28.2002C34.0135 31.0968 32.6713 34.6387 32.4756 38.3335" stroke="#333333" stroke-width="1.5" stroke-miterlimit="10"/>
<path d="M27.5955 21.4803C24.5555 24.1469 19.7822 21.6003 17.6488 17.7869C15.8755 14.6003 16.1022 8.45361 16.1022 8.45361C16.1022 8.45361 22.8488 9.33361 25.9822 11.5603C29.7155 14.2669 30.6488 18.7869 27.5955 21.4803Z" stroke="#333333" stroke-width="1.5" stroke-miterlimit="10"/>
<path d="M36.0615 27.1738C34.0748 24.2938 36.7682 20.5071 40.2482 19.0671C43.1415 17.8805 48.3282 18.6938 48.3282 18.6938C48.3282 18.6938 46.8748 24.3605 44.6615 26.8138C41.9948 29.7738 38.0482 30.0538 36.0615 27.1738Z" stroke="#333333" stroke-width="1.5" stroke-miterlimit="10"/>
</svg>
