<svg width="64" height="64" viewBox="0 0 64 64" fill="none" xmlns="http://www.w3.org/2000/svg">
<path d="M38.6909 19.749C37.3405 19.7828 36.0568 20.3431 35.1138 21.3102C34.1708 22.2774 33.6432 23.5749 33.6436 24.9257C33.6441 23.5749 33.1165 22.2774 32.1735 21.3102C31.2305 20.3431 29.9467 19.7828 28.5964 19.749C27.9049 19.7502 27.2204 19.8877 26.5823 20.1539C25.9441 20.4201 25.3647 20.8096 24.8774 21.3002C24.39 21.7907 24.0043 22.3726 23.7423 23.0125C23.4803 23.6525 23.3472 24.3378 23.3506 25.0292V24.8739C23.3506 28.256 24.7656 29.369 27.2504 31.6554L33.6436 37.5137L40.0282 31.6382C42.513 29.3518 43.928 28.2388 43.928 24.8567V25.012C43.9303 23.6199 43.3801 22.2839 42.3982 21.2971C41.4163 20.3104 40.0829 19.7536 38.6909 19.749V19.749Z" stroke="#333333" stroke-width="1.5" stroke-miterlimit="10"/>
<path d="M31.3487 40.1276L20.4345 36.6075C19.7993 36.4378 19.13 36.4436 18.4979 36.6244C17.8658 36.8053 17.2947 37.1542 16.8453 37.6342L13.4287 41.1284V53.0003L20.0721 50.8434C20.9686 50.4475 21.9546 50.2986 22.9279 50.412L30.5549 51.3438C31.8466 51.5051 33.1533 51.1991 34.239 50.481L46.6889 42.1293C47.2146 41.7774 47.582 41.2339 47.7125 40.6149C47.8431 39.996 47.7266 39.3504 47.3878 38.8162V38.8162C47.2167 38.5453 46.9936 38.311 46.7313 38.1269C46.4691 37.9427 46.173 37.8124 45.8601 37.7434C45.5472 37.6744 45.2237 37.6681 44.9084 37.7249C44.5931 37.7817 44.2921 37.9004 44.0229 38.0742L34.239 44.3725" stroke="#333333" stroke-width="1.5" stroke-miterlimit="10"/>
<path d="M22.7812 42.6043L31.5299 45.2789C32.1351 45.4592 32.7868 45.397 33.3471 45.1056C33.9074 44.8142 34.3324 44.3163 34.5323 43.7173V43.7173C34.6314 43.4125 34.6692 43.0912 34.6433 42.7718C34.6175 42.4524 34.5286 42.1413 34.3818 41.8565C34.2349 41.5717 34.0331 41.3188 33.7879 41.1124C33.5428 40.9061 33.2591 40.7504 32.9534 40.6544L31.3573 40.1367" stroke="#333333" stroke-width="1.5" stroke-miterlimit="10"/>
<path d="M33.291 14.3907V11" stroke="#333333" stroke-width="1.5" stroke-miterlimit="10"/>
<path d="M33.291 14.3907V11" stroke="#333333" stroke-width="1.5" stroke-miterlimit="10"/>
<path d="M43.1162 18.463L45.5147 16.0645" stroke="#333333" stroke-width="1.5" stroke-miterlimit="10"/>
<path d="M43.1162 18.463L45.5147 16.0645" stroke="#333333" stroke-width="1.5" stroke-miterlimit="10"/>
<path d="M23.4718 18.463L21.0732 16.0645" stroke="#333333" stroke-width="1.5" stroke-miterlimit="10"/>
<path d="M23.4718 18.463L21.0732 16.0645" stroke="#333333" stroke-width="1.5" stroke-miterlimit="10"/>
<path d="M19.3985 28.2817H16.0078" stroke="#333333" stroke-width="1.5" stroke-miterlimit="10"/>
<path d="M19.3985 28.2817H16.0078" stroke="#333333" stroke-width="1.5" stroke-miterlimit="10"/>
<path d="M47.1807 28.2817H50.5714" stroke="#333333" stroke-width="1.5" stroke-miterlimit="10"/>
<path d="M39.8379 23.0103C40.4554 23.6283 40.8022 24.4661 40.8022 25.3398C40.8022 26.2134 40.4554 27.0513 39.8379 27.6693" stroke="#333333" stroke-width="1.5" stroke-miterlimit="10"/>
</svg>
