<svg width="64" height="64" viewBox="0 0 64 64" fill="none" xmlns="http://www.w3.org/2000/svg">
<path d="M52.0725 43.2537H11.9258V50.467H52.0725V43.2537Z" stroke="#333333" stroke-width="1.5" stroke-miterlimit="10"/>
<path d="M52.0725 13.5332H11.9258V18.7732H52.0725V13.5332Z" stroke="#333333" stroke-width="1.5" stroke-miterlimit="10"/>
<path d="M52.0725 18.7744H11.9258V43.2544H52.0725V18.7744Z" stroke="#333333" stroke-width="1.5" stroke-miterlimit="10"/>
<path d="M23.1258 18.7744C23.1258 18.7744 22.4058 36.1077 11.9258 36.1077" stroke="#333333" stroke-width="1.5" stroke-miterlimit="10"/>
<path d="M19.0991 43.2541C19.0991 43.2541 18.6458 36.0674 11.9258 36.0674" stroke="#333333" stroke-width="1.5" stroke-miterlimit="10"/>
<path d="M40.873 18.7744C40.873 18.7744 41.593 36.1077 52.073 36.1077" stroke="#333333" stroke-width="1.5" stroke-miterlimit="10"/>
<path d="M44.8857 43.2541C44.8857 43.2541 45.3524 36.0674 52.0724 36.0674" stroke="#333333" stroke-width="1.5" stroke-miterlimit="10"/>
<path d="M23.1256 18.7744H40.8723C40.8723 20.8679 40.0407 22.8756 38.5604 24.3558C37.0801 25.8361 35.0724 26.6677 32.979 26.6677H31.0056C28.9122 26.6677 26.9045 25.8361 25.4242 24.3558C23.9439 22.8756 23.1123 20.8679 23.1123 18.7744V18.7744H23.1256Z" stroke="#333333" stroke-width="1.5" stroke-miterlimit="10"/>
</svg>
