<svg width="64" height="64" viewBox="0 0 64 64" fill="none" xmlns="http://www.w3.org/2000/svg">
<path d="M36.0258 39.4868H28.0258C27.1911 39.5225 26.3718 39.2545 25.7197 38.7323C25.0675 38.21 24.6268 37.4691 24.4792 36.6468L21.8125 15.4868H42.1992L39.5325 36.6468C39.3884 37.4633 38.9542 38.2003 38.3099 38.7221C37.6656 39.244 36.8545 39.5155 36.0258 39.4868V39.4868Z" stroke="#333333" stroke-width="1.5" stroke-miterlimit="10"/>
<path d="M16.001 15.4868H47.9876H16.001Z" stroke="#333333" stroke-width="1.5" stroke-miterlimit="10"/>
<path d="M28.5738 8.71338H35.4138C36.305 8.71338 37.1875 8.88892 38.0109 9.22998C38.8343 9.57104 39.5825 10.0709 40.2127 10.7011C40.8429 11.3313 41.3428 12.0795 41.6838 12.9029C42.0249 13.7263 42.2004 14.6088 42.2004 15.5V15.5H21.7871C21.7871 13.7001 22.5021 11.9739 23.7749 10.7011C25.0476 9.4284 26.7738 8.71338 28.5738 8.71338V8.71338Z" stroke="#333333" stroke-width="1.5" stroke-miterlimit="10"/>
<path d="M29.2119 55.2868V39.4868H34.7719V55.2868" stroke="#333333" stroke-width="1.5" stroke-miterlimit="10"/>
<path d="M10.0928 33.2201L16.8128 31.9668" stroke="#333333" stroke-width="1.5" stroke-miterlimit="10"/>
<path d="M19.6393 38.9536L13.9326 42.7136" stroke="#333333" stroke-width="1.5" stroke-miterlimit="10"/>
<path d="M10.2402 22.9795L16.9336 24.4328" stroke="#333333" stroke-width="1.5" stroke-miterlimit="10"/>
<path d="M53.9072 33.2201L47.1738 31.9668" stroke="#333333" stroke-width="1.5" stroke-miterlimit="10"/>
<path d="M44.3467 38.9536L50.0667 42.7136" stroke="#333333" stroke-width="1.5" stroke-miterlimit="10"/>
<path d="M53.7451 22.9795L47.0518 24.4328" stroke="#333333" stroke-width="1.5" stroke-miterlimit="10"/>
</svg>
