<svg width="64" height="64" viewBox="0 0 64 64" fill="none" xmlns="http://www.w3.org/2000/svg">
<path d="M41.6748 45.4243H22.3281" stroke="#333333" stroke-width="1.5" stroke-miterlimit="10"/>
<path d="M13.2604 45.4242H8.95372C8.14623 45.4242 7.37162 45.1043 6.79939 44.5346C6.22716 43.9649 5.90392 43.1917 5.90039 42.3842V25.9309C5.92125 25.135 6.25212 24.3788 6.82249 23.8234C7.39286 23.2679 8.1576 22.9572 8.95372 22.9575H55.0471C55.8545 22.9575 56.6292 23.2774 57.2014 23.8471C57.7736 24.4168 58.0969 25.19 58.1004 25.9975V42.3842C58.0969 43.1917 57.7736 43.9649 57.2014 44.5346C56.6292 45.1043 55.8545 45.4242 55.0471 45.4242H50.7404" stroke="#333333" stroke-width="1.5" stroke-miterlimit="10"/>
<path d="M17.7805 40.9038C18.6811 40.9037 19.562 41.1679 20.3138 41.6638C21.0581 42.1591 21.6382 42.8646 21.9805 43.6905C22.3409 44.5312 22.4295 45.4636 22.2338 46.3571C22.0612 47.2369 21.6293 48.0448 20.9938 48.6771C20.3592 49.3124 19.5498 49.7442 18.6688 49.9175C17.7878 50.0909 16.8751 49.9979 16.0471 49.6505C15.2187 49.3125 14.5121 48.7314 14.0205 47.9838C13.5669 47.3032 13.3064 46.5122 13.267 45.6952C13.2275 44.8782 13.4105 44.0658 13.7964 43.3446C14.1823 42.6234 14.7567 42.0204 15.4583 41.6C16.16 41.1795 16.9625 40.9574 17.7805 40.9571V40.9038Z" stroke="#333333" stroke-width="1.5" stroke-miterlimit="10"/>
<path d="M46.2064 40.9041C47.0986 40.8939 47.9743 41.1441 48.7264 41.6241C49.5051 42.1159 50.111 42.8383 50.4597 43.6908C50.8178 44.5318 50.9108 45.4621 50.7264 46.3574C50.552 47.2388 50.119 48.0482 49.4825 48.6822C48.846 49.3163 48.0351 49.7464 47.1531 49.9174C46.5362 50.035 45.9016 50.0227 45.2898 49.8813C44.6779 49.74 44.1022 49.4727 43.5994 49.0965C43.0966 48.7204 42.6777 48.2435 42.3694 47.6965C42.0611 47.1494 41.8701 46.5441 41.8088 45.9191C41.7474 45.2942 41.8169 44.6633 42.0129 44.0667C42.2089 43.4701 42.527 42.9209 42.947 42.454C43.367 41.9872 43.8797 41.613 44.4524 41.3554C45.0251 41.0977 45.6451 40.9622 46.2731 40.9574L46.2064 40.9041Z" stroke="#333333" stroke-width="1.5" stroke-miterlimit="10"/>
<path d="M32.7941 22.8904L23.9141 13.9971" stroke="#333333" stroke-width="1.5" stroke-miterlimit="10"/>
<path d="M38.0867 22.8904L29.1934 13.9971" stroke="#333333" stroke-width="1.5" stroke-miterlimit="10"/>
<path d="M5.90039 34.1572H58.1004" stroke="#333333" stroke-width="1.5" stroke-miterlimit="10"/>
<path d="M46.2207 22.8911V34.1578" stroke="#333333" stroke-width="1.5" stroke-miterlimit="10"/>
<path d="M32.0078 22.8911V34.1578" stroke="#333333" stroke-width="1.5" stroke-miterlimit="10"/>
<path d="M17.7812 22.8911V34.1578" stroke="#333333" stroke-width="1.5" stroke-miterlimit="10"/>
</svg>
