<svg width="24" height="24" viewBox="0 0 24 24" fill="none" xmlns="http://www.w3.org/2000/svg">
<path d="M9.64453 7.44727C10.1282 6.24098 11.7543 6.27942 12.6348 7.23535L13.9297 8.66504C14.7494 9.57262 15.9719 10.2595 17.248 10.4482C17.6584 10.5089 17.9999 10.8391 18 11.2539C18 11.6658 17.6639 12.0027 17.2559 11.9463C15.8089 11.7463 14.3101 11.0164 13.2139 10.1709L13 10V13.501H16L16.2041 13.5107C17.2131 13.6129 18 14.4649 18 15.501V20.251C18 20.6652 17.6642 21.001 17.25 21.001C16.8358 21.001 16.5 20.6652 16.5 20.251V15.501H11.5C10.3951 15.501 9.5002 14.6058 9.5 13.501V8.09082C9.5 7.89005 9.55507 7.67049 9.64453 7.44727ZM7.12891 14.2148C7.47361 13.8596 8.02705 14.1645 8.1875 14.6328C8.28471 14.9168 8.21423 15.2275 8.0293 15.4639C7.69794 15.8875 7.5 16.4204 7.5 17C7.5 18.3807 8.61929 19.5 10 19.5C11.1232 19.5 12.0733 18.7589 12.3887 17.7393C12.5111 17.3438 12.836 17.001 13.25 17.001C13.6642 17.0011 14.0075 17.3401 13.9307 17.7471C13.5807 19.5991 11.9538 21 10 21C7.79086 21 6 19.2091 6 17C6 15.9173 6.43014 14.935 7.12891 14.2148ZM11 2.5C11.8284 2.5 12.5 3.17157 12.5 4C12.5 4.82843 11.8284 5.5 11 5.5C10.1716 5.5 9.5 4.82843 9.5 4C9.5 3.17157 10.1716 2.5 11 2.5Z" fill="currentColor"/>
</svg>
