<svg width="24" height="24" viewBox="0 0 24 24" fill="none" xmlns="http://www.w3.org/2000/svg">
<path d="M12.7495 2.74789C12.7495 2.47174 12.5257 2.24789 12.2495 2.24789L11.7504 2.24789C11.4743 2.24789 11.2504 2.47174 11.2504 2.74789L11.2504 11.2505L2.74786 11.2505C2.47172 11.2505 2.24786 11.4743 2.24786 11.7505V12.2495C2.24786 12.5257 2.47172 12.7495 2.74786 12.7495L11.2504 12.7495L11.2504 21.2521C11.2504 21.5283 11.4743 21.7521 11.7504 21.7521H12.2495C12.5257 21.7521 12.7495 21.5283 12.7495 21.2521V12.7495L21.2521 12.7495C21.5282 12.7495 21.7521 12.5257 21.7521 12.2495V11.7505C21.7521 11.4743 21.5282 11.2505 21.2521 11.2505L12.7495 11.2505V2.74789Z" fill="currentColor"/>
</svg>
