<svg width="24" height="24" viewBox="0 0 24 24" fill="none" xmlns="http://www.w3.org/2000/svg">
<path d="M20.2775 11.6625C20.4723 11.4677 20.4728 11.1519 20.2785 10.9564L12.3546 2.98663C12.1591 2.79 11.8409 2.79 11.6454 2.98663L3.72151 10.9564C3.52721 11.1519 3.52766 11.4677 3.72253 11.6625L4.0754 12.0154C4.27107 12.2111 4.58845 12.2106 4.78354 12.0144L11.25 5.51V19.81C11.25 20.0861 11.4739 20.31 11.75 20.31H12.25C12.5261 20.31 12.75 20.0861 12.75 19.81V5.51L19.2164 12.0144C19.4115 12.2106 19.7289 12.2111 19.9246 12.0154L20.2775 11.6625Z" fill="currentColor"/>
</svg>
