<svg width="24" height="24" viewBox="0 0 24 24" fill="none" xmlns="http://www.w3.org/2000/svg">
<path d="M19.9246 11.9846C19.7289 11.7889 19.4115 11.7894 19.2164 11.9856L12.75 18.49V4.19C12.75 3.91386 12.5261 3.69 12.25 3.69H11.75C11.4739 3.69 11.25 3.91386 11.25 4.19V18.49L4.78354 11.9856C4.58845 11.7894 4.27107 11.7889 4.0754 11.9846L3.72253 12.3375C3.52766 12.5323 3.52721 12.8481 3.72151 13.0436L11.6454 21.0134C11.8409 21.21 12.1591 21.21 12.3546 21.0134L20.2785 13.0436C20.4728 12.8481 20.4723 12.5323 20.2775 12.3375L19.9246 11.9846Z" fill="currentColor"/>
</svg>
