<svg width="24" height="24" viewBox="0 0 24 24" fill="none" xmlns="http://www.w3.org/2000/svg">
<path d="M12.3435 3.72151C12.1481 3.52721 11.8323 3.52767 11.6375 3.72253L11.2846 4.07541C11.0889 4.27108 11.0894 4.58846 11.2856 4.78355L17.79 11.25H3.48999C3.21385 11.25 2.98999 11.4739 2.98999 11.75V12.25C2.98999 12.5261 3.21385 12.75 3.48999 12.75H17.79L11.2856 19.2165C11.0894 19.4115 11.0889 19.7289 11.2846 19.9246L11.6375 20.2775C11.8323 20.4723 12.1481 20.4728 12.3435 20.2785L20.3134 12.3546C20.51 12.1591 20.51 11.8409 20.3134 11.6454L12.3435 3.72151Z" fill="currentColor"/>
</svg>
