<svg width="24" height="24" viewBox="0 0 24 24" fill="none" xmlns="http://www.w3.org/2000/svg">
<path d="M12.75 16.25V6.42999C12.75 6.15385 12.5261 5.92999 12.25 5.92999H11.75C11.4739 5.92999 11.25 6.15385 11.25 6.42999V16.25L6.97189 11.9442C6.77746 11.7485 6.46128 11.7472 6.26531 11.9414L5.90605 12.2973C5.70955 12.4919 5.70844 12.8092 5.90357 13.0052L11.6456 18.774C11.8411 18.9703 12.1589 18.9703 12.3544 18.774L18.0964 13.0052C18.2916 12.8092 18.2905 12.4919 18.0939 12.2973L17.7347 11.9414C17.5387 11.7472 17.2225 11.7485 17.0281 11.9442L12.75 16.25Z" fill="currentColor"/>
</svg>
