<svg width="24" height="24" viewBox="0 0 24 24" fill="none" xmlns="http://www.w3.org/2000/svg">
<path d="M10.96 19.01C9.57 20.4 7.15 20.4 5.76 19.01L5.35 18.6C3.72 16.97 3.72 14.32 5.35 12.69L13.78 4.25C14.77 3.26 16.51 3.26 17.5 4.25C18 4.75 18.27 5.41 18.27 6.11C18.27 6.81 18 7.47 17.5 7.97L9.07 16.4C8.68 16.79 8.05 16.79 7.67 16.4C7.29 16.01 7.28 15.38 7.67 15L14.7964 7.87355C14.9917 7.67829 14.9917 7.3617 14.7964 7.16644L14.4436 6.81355C14.2483 6.61829 13.9317 6.61829 13.7364 6.81355L6.61 13.94C5.64 14.91 5.64 16.49 6.61 17.46C7.58 18.43 9.16 18.43 10.13 17.46L18.56 9.03C19.34 8.25 19.77 7.21 19.77 6.11C19.77 5.01 19.34 3.97 18.56 3.19C17.78 2.41 16.74 1.98 15.64 1.98C14.54 1.98 13.5 2.41 12.72 3.19L4.29 11.62C2.08 13.84 2.08 17.44 4.29 19.66L4.7 20.07C5.68 21.05 6.98 21.59 8.36 21.59C9.74 21.59 11.04 21.05 12.02 20.07L19.4464 12.6435C19.6417 12.4483 19.6417 12.1317 19.4464 11.9364L19.0936 11.5835C18.8983 11.3883 18.5817 11.3883 18.3864 11.5835L10.96 19.01Z" fill="currentColor"/>
</svg>
