<svg width="24" height="24" viewBox="0 0 24 24" fill="none" xmlns="http://www.w3.org/2000/svg">
<path d="M12 1.25999C10.19 1.25999 8.67 2.54999 8.32 4.25999H3.73C3.45385 4.25999 3.23 4.48385 3.23 4.75999V5.25999C3.23 5.53614 3.45385 5.75999 3.73 5.75999H4.35L6.29682 21.87C6.32717 22.1211 6.54027 22.31 6.79321 22.31H17.1968C17.4497 22.31 17.6628 22.1211 17.6932 21.87L19.64 5.75999H20.26C20.5361 5.75999 20.76 5.53614 20.76 5.25999V4.75999C20.76 4.48385 20.5361 4.25999 20.26 4.25999H15.67C15.32 2.54999 13.81 1.25999 11.99 1.25999H12ZM12 2.75999C12.98 2.75999 13.8 3.38999 14.11 4.25999H9.88C10.19 3.38999 11.02 2.75999 11.99 2.75999H12ZM16.31 20.81H7.68L5.86 5.75999H18.13L16.31 20.81Z" fill="currentColor"/>
</svg>
