<svg width="24" height="24" viewBox="0 0 24 24" fill="none" xmlns="http://www.w3.org/2000/svg">
<path d="M19.5 3.25C20.1904 3.25 20.75 3.80964 20.75 4.5V5.25H21.75C22.3023 5.25 22.75 5.69772 22.75 6.25V7.5C22.75 7.77614 22.5261 8 22.25 8H21.75C21.4739 8 21.25 7.77614 21.25 7.5V6.75H20.75V17.5C20.75 18.1904 20.1904 18.75 19.5 18.75H18.7246C18.741 18.8308 18.75 18.9144 18.75 19V19.5C18.75 20.1904 18.1904 20.75 17.5 20.75H15.5C14.8096 20.75 14.25 20.1904 14.25 19.5V19C14.25 18.9144 14.259 18.8308 14.2754 18.75H9.75V19.5C9.75 20.1904 9.19036 20.75 8.5 20.75H6.5C5.80964 20.75 5.25 20.1904 5.25 19.5V18.75H4.5C3.80964 18.75 3.25 18.1904 3.25 17.5V6.75H2.75V7.5C2.75 7.77614 2.52614 8 2.25 8H1.75C1.47386 8 1.25 7.77614 1.25 7.5V6.25C1.25 5.69772 1.69772 5.25 2.25 5.25H3.25V4.5C3.25 3.80964 3.80964 3.25 4.5 3.25H19.5ZM18.8164 12.5557C18.3131 13.003 17.6627 13.25 16.9893 13.25H7.01074C6.33734 13.25 5.68695 13.003 5.18359 12.5557L4.75 12.1699V17.25H9.23047L9.67578 16.0615L9.75781 15.8857C9.97684 15.4973 10.3909 15.25 10.8467 15.25H13.1533C13.6091 15.25 14.0232 15.4973 14.2422 15.8857L14.3242 16.0615L14.7695 17.25H19.25V12.1699L18.8164 12.5557ZM10.833 17.25H13.167L12.9795 16.75H11.0205L10.833 17.25ZM6.75 14.5C7.16421 14.5 7.5 14.8358 7.5 15.25C7.5 15.6642 7.16421 16 6.75 16C6.33579 16 6 15.6642 6 15.25C6 14.8358 6.33579 14.5 6.75 14.5ZM17.25 14.5C17.6642 14.5 18 14.8358 18 15.25C18 15.6642 17.6642 16 17.25 16C16.8358 16 16.5 15.6642 16.5 15.25C16.5 14.8358 16.8358 14.5 17.25 14.5ZM4.75 10.1631L6.17969 11.4346C6.4085 11.638 6.7046 11.75 7.01074 11.75H16.9893C17.2954 11.75 17.5915 11.638 17.8203 11.4346L19.25 10.1631V4.75H4.75V10.1631Z" fill="currentColor"/>
</svg>
