<svg width="24" height="24" viewBox="0 0 24 24" fill="none" xmlns="http://www.w3.org/2000/svg">
<path d="M17.89 3.85V2.39C17.89 2.11386 17.6661 1.89 17.39 1.89H16.89C16.6139 1.89 16.39 2.11386 16.39 2.39V3.85H7.61V2.39C7.61 2.11386 7.38614 1.89 7.11 1.89H6.61C6.33385 1.89 6.11 2.11386 6.11 2.39V3.85H2.63C2.35385 3.85 2.13 4.07386 2.13 4.35V21.74C2.13 22.0161 2.35385 22.24 2.63 22.24H15.7458C16.011 22.24 16.2654 22.1346 16.4529 21.9471L21.5671 16.8329C21.7546 16.6454 21.86 16.391 21.86 16.1258V4.35C21.86 4.07386 21.6361 3.85 21.36 3.85H17.88H17.89ZM6.11 5.35V6.14C6.11 6.41614 6.33385 6.64 6.61 6.64H7.11C7.38614 6.64 7.61 6.41614 7.61 6.14V5.35H16.39V6.14C16.39 6.41614 16.6139 6.64 16.89 6.64H17.39C17.6661 6.64 17.89 6.41614 17.89 6.14V5.35H20.37V8.22H3.63V5.35H6.11ZM3.63 9.72H20.36V14.34H14.46C14.1839 14.34 13.96 14.5639 13.96 14.84V20.74H3.63V9.72ZM15.54 20.74H15.47V15.97C15.47 15.8982 15.5282 15.84 15.6 15.84H20.37V15.91L15.54 20.74Z" fill="currentColor"/>
</svg>
