<svg width="24" height="24" viewBox="0 0 24 24" fill="none" xmlns="http://www.w3.org/2000/svg">
<g clip-path="url(#clip0_689_18)">
<path d="M12 16.12C9.98 16.12 8.33 14.47 8.33 12.45C8.33 10.43 9.97 8.78 12 8.78C14.03 8.78 15.67 10.43 15.67 12.45C15.67 14.47 14.03 16.12 12 16.12ZM12 10.29C10.8 10.29 9.83 11.26 9.83 12.46C9.83 13.66 10.8 14.63 12 14.63C13.2 14.63 14.17 13.66 14.17 12.46C14.17 11.26 13.2 10.29 12 10.29Z" fill="currentColor"/>
<path d="M18.79 19.46H5.21C3.76 19.46 2.58 18.28 2.58 16.83V8.67999C2.58 7.22999 3.76 6.04999 5.21 6.04999H6.57L7.01 5.16999C7.36 4.46999 8.05 4.03999 8.83 4.03999H15.16C15.94 4.03999 16.63 4.46999 16.98 5.16999L17.42 6.04999H18.78C20.23 6.04999 21.41 7.22999 21.41 8.67999V16.83C21.41 18.28 20.23 19.46 18.78 19.46H18.79ZM5.21 7.54999C4.59 7.54999 4.08 8.05999 4.08 8.67999V16.83C4.08 17.45 4.59 17.96 5.21 17.96H18.78C19.4 17.96 19.91 17.45 19.91 16.83V8.67999C19.91 8.05999 19.4 7.54999 18.78 7.54999H16.7998C16.61 7.54999 16.4366 7.44252 16.3521 7.27255L15.64 5.83999C15.55 5.65999 15.36 5.53999 15.16 5.53999H8.83C8.63 5.53999 8.44 5.64999 8.35 5.83999L7.63791 7.27255C7.55342 7.44252 7.37998 7.54999 7.19018 7.54999H5.21Z" fill="currentColor"/>
</g>
<defs>
<clipPath id="clip0_689_18">
<rect width="24" height="24" fill="white"/>
</clipPath>
</defs>
</svg>
