<svg width="24" height="24" viewBox="0 0 24 24" fill="none" xmlns="http://www.w3.org/2000/svg">
<g clip-path="url(#clip0_288_136)">
<path fill-rule="evenodd" clip-rule="evenodd" d="M0.869995 12C0.869995 18.14 5.86 23.13 12 23.13C18.14 23.13 23.13 18.14 23.13 12C23.13 5.86 18.14 0.869995 12 0.869995C5.86 0.869995 0.869995 5.86 0.869995 12ZM2.37 12C2.37 6.69 6.69 2.37 12 2.38V2.37C17.31 2.37 21.63 6.69 21.63 12C21.63 17.31 17.31 21.63 12 21.63C6.69 21.63 2.37 17.31 2.37 12ZM7.47499 11.6983C7.2789 11.8926 7.27731 12.209 7.47145 12.4052L10.5154 15.4816C10.7107 15.679 11.0296 15.6794 11.2254 15.4824L17.007 9.66521C17.2018 9.46913 17.2006 9.15211 17.0042 8.95754L16.6448 8.60153C16.4488 8.40733 16.1325 8.40865 15.9381 8.60449L10.87 13.71L8.54187 11.3471C8.34769 11.15 8.03037 11.1481 7.83382 11.3428L7.47499 11.6983Z" fill="currentColor"/>
</g>
<defs>
<clipPath id="clip0_288_136">
<rect width="24" height="24" fill="white"/>
</clipPath>
</defs>
</svg>
