<svg width="24" height="24" viewBox="0 0 24 24" fill="none" xmlns="http://www.w3.org/2000/svg">
<path fill-rule="evenodd" clip-rule="evenodd" d="M15.25 10.26V2.14999C15.25 1.87385 15.0261 1.64999 14.75 1.64999H2.85999C2.58384 1.64999 2.35999 1.87385 2.35999 2.14999V21.85C2.35999 22.1261 2.58384 22.35 2.85999 22.35H22.02C22.2961 22.35 22.52 22.1261 22.52 21.85V10.76C22.52 10.4839 22.2961 10.26 22.02 10.26H15.25ZM13.75 20.85H3.85999V3.14999H13.75V20.85ZM21.02 20.85H15.25V11.76H21.02V20.85ZM11.65 5.64999C11.65 5.37385 11.4261 5.14999 11.15 5.14999H10.65C10.3739 5.14999 10.15 5.37385 10.15 5.64999V7.91999C10.15 8.19614 10.3739 8.41999 10.65 8.41999H11.15C11.4261 8.41999 11.65 8.19614 11.65 7.91999V5.64999ZM5.79001 5.64999C5.79001 5.37385 6.01387 5.14999 6.29001 5.14999H6.79001C7.06615 5.14999 7.29001 5.37385 7.29001 5.64999V7.91999C7.29001 8.19614 7.06615 8.41999 6.79001 8.41999H6.29001C6.01387 8.41999 5.79001 8.19614 5.79001 7.91999V5.64999ZM11.65 10.92C11.65 10.6439 11.4261 10.42 11.15 10.42H10.65C10.3739 10.42 10.15 10.6439 10.15 10.92V13.19C10.15 13.4662 10.3739 13.69 10.65 13.69H11.15C11.4261 13.69 11.65 13.4662 11.65 13.19V10.92ZM5.79001 10.92C5.79001 10.6439 6.01387 10.42 6.29001 10.42H6.79001C7.06615 10.42 7.29001 10.6439 7.29001 10.92V13.19C7.29001 13.4662 7.06615 13.69 6.79001 13.69H6.29001C6.01387 13.69 5.79001 13.4662 5.79001 13.19V10.92ZM11.65 16.19C11.65 15.9139 11.4261 15.69 11.15 15.69H10.65C10.3739 15.69 10.15 15.9139 10.15 16.19V18.46C10.15 18.7361 10.3739 18.96 10.65 18.96H11.15C11.4261 18.96 11.65 18.7361 11.65 18.46V16.19ZM5.79001 16.19C5.79001 15.9139 6.01387 15.69 6.29001 15.69H6.79001C7.06615 15.69 7.29001 15.9139 7.29001 16.19V18.46C7.29001 18.7361 7.06615 18.96 6.79001 18.96H6.29001C6.01387 18.96 5.79001 18.7361 5.79001 18.46V16.19Z" fill="currentColor"/>
</svg>
