<svg width="24" height="24" viewBox="0 0 24 24" fill="none" xmlns="http://www.w3.org/2000/svg">
<path d="M20.4092 1.91525C20.2075 1.67408 19.8358 1.67678 19.6376 1.92086L17.3038 4.79449C17.159 4.97272 17.08 5.19532 17.08 5.42492V8.32H6.92001V5.42866C6.92001 5.19678 6.83943 4.97212 6.69206 4.7931L4.3255 1.91828C4.12567 1.67554 3.75404 1.67528 3.55388 1.91776L1.18882 4.78282C1.04091 4.96199 0.960007 5.18708 0.960007 5.41942V20.9C0.960007 21.1761 1.18386 21.4 1.46001 21.4H22.54C22.8162 21.4 23.04 21.1761 23.04 20.9V5.42313C23.04 5.18854 22.9575 4.96141 22.807 4.78148L20.4092 1.91525ZM19.9442 3.92749C19.9939 3.86658 20.0868 3.86609 20.1371 3.92647L21.5099 5.57384C21.5293 5.59721 21.54 5.62665 21.54 5.65707V7.02H18.58V5.64629C18.58 5.61635 18.5903 5.58733 18.6093 5.56413L19.9442 3.92749ZM17.08 9.82V11.26H6.92001V9.82H17.08ZM3.84367 3.92651C3.89366 3.86605 3.98635 3.86605 4.03634 3.92651L5.3902 5.56394C5.40946 5.58725 5.42001 5.61654 5.42001 5.64678V7.02H2.46001V5.64678C2.46001 5.61654 2.47055 5.58725 2.48982 5.56394L3.84367 3.92651ZM2.46001 19.91V8.51H5.42001V12.25C5.42001 12.5261 5.64386 12.75 5.92001 12.75H18.08C18.3561 12.75 18.58 12.5261 18.58 12.25V8.51H21.54V19.9H2.46001V19.91Z" fill="currentColor"/>
</svg>
