<svg width="24" height="24" viewBox="0 0 24 24" fill="none" xmlns="http://www.w3.org/2000/svg">
<g clip-path="url(#clip0_288_135)">
<path fill-rule="evenodd" clip-rule="evenodd" d="M0.869995 12C0.869995 18.14 5.86 23.13 12 23.13C18.14 23.13 23.13 18.14 23.13 12C23.13 5.86 18.14 0.869995 12 0.869995C5.86 0.869995 0.869995 5.86 0.869995 12ZM2.37 12C2.37 6.69 6.69 2.37 12 2.38V2.37C17.31 2.37 21.63 6.69 21.63 12C21.63 17.31 17.31 21.63 12 21.63C6.69 21.63 2.37 17.31 2.37 12ZM11.25 12.32C11.25 12.5961 11.4739 12.82 11.75 12.82H16.34C16.6161 12.82 16.84 12.5961 16.84 12.32V11.82C16.84 11.5438 16.6161 11.32 16.34 11.32H12.75V5.92999C12.75 5.65385 12.5261 5.42999 12.25 5.42999H11.75C11.4739 5.42999 11.25 5.65385 11.25 5.92999V12.32Z" fill="currentColor"/>
</g>
<defs>
<clipPath id="clip0_288_135">
<rect width="24" height="24" fill="white"/>
</clipPath>
</defs>
</svg>
