<svg width="24" height="24" viewBox="0 0 24 24" fill="none" xmlns="http://www.w3.org/2000/svg">
<path d="M20.4864 4.57355C20.6817 4.37829 20.6817 4.06171 20.4864 3.86644L20.1336 3.51355C19.9383 3.31829 19.6217 3.31829 19.4264 3.51355L12 10.94L4.57355 3.51355C4.37829 3.31829 4.06171 3.31829 3.86645 3.51355L3.51355 3.86644C3.31829 4.06171 3.31829 4.37829 3.51355 4.57355L10.94 12L3.51355 19.4264C3.31829 19.6217 3.31829 19.9383 3.51355 20.1336L3.86645 20.4864C4.06171 20.6817 4.37829 20.6817 4.57355 20.4864L12 13.06L19.4264 20.4864C19.6217 20.6817 19.9383 20.6817 20.1336 20.4864L20.4864 20.1336C20.6817 19.9383 20.6817 19.6217 20.4864 19.4264L13.06 12L20.4864 4.57355Z" fill="currentColor"/>
</svg>
