<svg width="24" height="24" viewBox="0 0 24 24" fill="none" xmlns="http://www.w3.org/2000/svg">
<g clip-path="url(#clip0_48_175)">
<path fill-rule="evenodd" clip-rule="evenodd" d="M0.869995 12C0.869995 5.86 5.86 0.869995 12 0.869995C18.14 0.869995 23.13 5.86 23.13 12C23.13 18.14 18.14 23.13 12 23.13C5.86 23.13 0.869995 18.14 0.869995 12ZM2.37 11.99C2.37 17.3 6.69 21.62 12 21.62V21.63C17.31 21.63 21.63 17.31 21.63 12C21.63 6.69 17.31 2.37 12 2.37C6.69 2.37 2.37 6.68 2.37 11.99ZM12 10.94L15.2264 7.70455C15.4216 7.50882 15.7386 7.5086 15.934 7.70405L16.2959 8.06596C16.4914 8.26141 16.4912 8.57838 16.2954 8.77356L13.06 12L16.2954 15.2265C16.4912 15.4216 16.4914 15.7386 16.2959 15.9341L15.934 16.296C15.7386 16.4914 15.4216 16.4912 15.2264 16.2955L12 13.06L8.77353 16.2955C8.57835 16.4912 8.26138 16.4914 8.06593 16.296L7.70402 15.9341C7.50857 15.7386 7.50879 15.4216 7.70452 15.2265L10.94 12L7.70452 8.77356C7.50879 8.57838 7.50857 8.26141 7.70402 8.06596L8.06593 7.70405C8.26138 7.5086 8.57835 7.50882 8.77353 7.70455L12 10.94Z" fill="currentColor"/>
</g>
<defs>
<clipPath id="clip0_48_175">
<rect width="24" height="24" fill="white"/>
</clipPath>
</defs>
</svg>
