<svg width="24" height="24" viewBox="0 0 24 24" fill="none" xmlns="http://www.w3.org/2000/svg">
<path d="M22.5058 11.6464C22.7011 11.8417 22.7011 12.1583 22.5058 12.3535L12.4719 22.3874C12.39 22.4693 12.25 22.4113 12.25 22.2955V20.6954C12.25 20.5628 12.3027 20.4356 12.3964 20.3418L20.7383 12L11.8994 3.16112L3.06053 12L7.60354 16.543C7.69731 16.6368 7.74999 16.7639 7.74999 16.8965V18.4967C7.74999 18.6125 7.60996 18.6705 7.52806 18.5886L1.29299 12.3535C1.09773 12.1583 1.09773 11.8417 1.29299 11.6464L11.5458 1.39358C11.7411 1.19832 12.0577 1.19832 12.253 1.39358L22.5058 11.6464ZM16.207 11.6464C16.4022 11.8417 16.4022 12.1583 16.207 12.3535L13.6597 14.9008C13.5085 15.052 13.25 14.9449 13.25 14.7311V12.75H10.75V21.4967C10.75 21.6125 10.61 21.6705 10.5281 21.5886L9.39643 20.457C9.30266 20.3632 9.24999 20.236 9.24999 20.1034V11.75C9.24999 11.4738 9.47384 11.25 9.74999 11.25H13.25V9.26885C13.25 9.05503 13.5085 8.94795 13.6597 9.09914L16.207 11.6464Z" fill="currentColor"/>
</svg>
