<svg width="24" height="24" viewBox="0 0 24 24" fill="none" xmlns="http://www.w3.org/2000/svg">
<path fill-rule="evenodd" clip-rule="evenodd" d="M4.67001 2.15002C4.67001 1.87388 4.89387 1.65002 5.17001 1.65002H13.6914C13.9473 1.65002 14.1936 1.74818 14.3793 1.92428L19.348 6.63423C19.5472 6.82307 19.66 7.08549 19.66 7.35998V21.69C19.66 21.9662 19.4362 22.19 19.16 22.19H5.17001C4.89387 22.19 4.67001 21.9662 4.67001 21.69V2.15002ZM17.77 7.21002L13.55 3.21002V7.21002H17.77ZM6.16001 3.15002V20.69H6.17001H18.15V8.71002H12.55C12.2739 8.71002 12.05 8.48617 12.05 8.21002V3.15002H6.16001ZM16.34 11.5C16.34 11.2239 16.1161 11 15.84 11H8.5C8.22386 11 8 11.2239 8 11.5V12C8 12.2761 8.22386 12.5 8.5 12.5H15.84C16.1161 12.5 16.34 12.2761 16.34 12V11.5ZM8 14.5C8 14.2239 8.22386 14 8.5 14H15.84C16.1161 14 16.34 14.2239 16.34 14.5V15C16.34 15.2761 16.1161 15.5 15.84 15.5H8.5C8.22386 15.5 8 15.2761 8 15V14.5ZM16.34 17.5C16.34 17.2239 16.1161 17 15.84 17H8.5C8.22386 17 8 17.2239 8 17.5V18C8 18.2761 8.22386 18.5 8.5 18.5H15.84C16.1161 18.5 16.34 18.2761 16.34 18V17.5Z" fill="currentColor"/>
</svg>
