<svg width="24" height="24" viewBox="0 0 24 24" fill="none" xmlns="http://www.w3.org/2000/svg">
<path d="M14.3793 1.92425C14.1935 1.74815 13.9473 1.64999 13.6914 1.64999H5.17C4.89386 1.64999 4.67 1.87385 4.67 2.14999V21.69C4.67 21.9661 4.89386 22.19 5.17 22.19H19.16C19.4361 22.19 19.66 21.9661 19.66 21.69V7.35995C19.66 7.08546 19.5472 6.82304 19.348 6.6342L16.875 4.28999L14.3793 1.92425ZM13.55 3.20999L17.77 7.20999H13.68C13.6082 7.20999 13.55 7.15179 13.55 7.07999V3.20999ZM6.16 20.69V3.14999H12.05V8.20999C12.05 8.48614 12.2739 8.70999 12.55 8.70999H18.15V20.69H6.17H6.16Z" fill="currentColor"/>
</svg>
