<svg width="24" height="24" viewBox="0 0 24 24" fill="none" xmlns="http://www.w3.org/2000/svg">
<path fill-rule="evenodd" clip-rule="evenodd" d="M18.1281 8.63372C18.3226 8.43825 18.6386 8.43709 18.8345 8.63113L19.1843 8.97762C19.3806 9.17216 19.3819 9.48913 19.1871 9.68523L12.3547 16.5629C12.1592 16.7598 11.8408 16.7598 11.6453 16.5629L4.81289 9.68523C4.61807 9.48913 4.61935 9.17216 4.81573 8.97762L5.16553 8.63113C5.36142 8.43709 5.67742 8.43825 5.87188 8.63372L11.25 14.04V1.98C11.25 1.70386 11.4739 1.48 11.75 1.48H12.25C12.5261 1.48 12.75 1.70386 12.75 1.98V14.04L18.1281 8.63372ZM2.89 20.36C2.89 20.0839 3.11386 19.86 3.39 19.86H20.6C20.8761 19.86 21.1 20.0839 21.1 20.36V20.86C21.1 21.1361 20.8761 21.36 20.6 21.36H3.39C3.11386 21.36 2.89 21.1361 2.89 20.86V20.36Z" fill="currentColor"/>
</svg>
