<svg width="24" height="24" viewBox="0 0 24 24" fill="none" xmlns="http://www.w3.org/2000/svg">
<path d="M20.13 3.87C18.74 2.48 16.47 2.48 15.08 3.87L3.56849 15.3815C3.48549 15.4645 3.43433 15.5741 3.42399 15.691L3.0026 20.4553C2.97518 20.7653 3.23466 21.0248 3.54471 20.9974L8.30899 20.576C8.42592 20.5657 8.53549 20.5145 8.61849 20.4315L20.13 8.92C21.52 7.53 21.52 5.26 20.13 3.87ZM7.81 19.12L4.6 19.41L4.89 16.2L13.88 7.19L16.81 10.12L7.81 19.12ZM19.07 7.86L17.86 9.07L14.93 6.14L16.14 4.93C16.95 4.12 18.26 4.12 19.07 4.93C19.88 5.74 19.88 7.05 19.07 7.86Z" fill="currentColor"/>
</svg>
