<svg width="24" height="24" viewBox="0 0 24 24" fill="none" xmlns="http://www.w3.org/2000/svg">
<path fill-rule="evenodd" clip-rule="evenodd" d="M18.65 4.41998L14.6911 4.42885C14.4145 4.42948 14.19 4.20544 14.19 3.92886V3.42856C14.19 3.15297 14.413 2.92934 14.6886 2.92856L20.7171 2.91141C20.9944 2.91062 21.2194 3.13558 21.2186 3.41283L21.2014 9.4414C21.2006 9.71699 20.977 9.93998 20.7014 9.93998H20.2011C19.9245 9.93998 19.7005 9.71544 19.7011 9.43886L19.71 5.47998L14.9336 10.2564C14.7383 10.4517 14.4217 10.4517 14.2264 10.2564L13.8736 9.90353C13.6783 9.70827 13.6783 9.39169 13.8736 9.19643L18.65 4.41998ZM16.77 19.21C17.38 19.21 17.88 18.71 17.88 18.1V18.09V13.18C17.88 12.9038 18.1039 12.68 18.38 12.68H18.88C19.1561 12.68 19.38 12.9038 19.38 13.18V18.09C19.38 19.53 18.21 20.7 16.77 20.7H5.83C4.39 20.7 3.22 19.53 3.22 18.09V7.14998C3.22 5.70998 4.39 4.53998 5.83 4.53998H10.8C11.0761 4.53998 11.3 4.76384 11.3 5.03998V5.53998C11.3 5.81613 11.0761 6.03998 10.8 6.03998H5.83C5.22 6.03998 4.72 6.53998 4.72 7.14998V18.1C4.72 18.71 5.22 19.21 5.83 19.21H16.77Z" fill="currentColor"/>
</svg>
