<svg width="24" height="24" viewBox="0 0 24 24" fill="none" xmlns="http://www.w3.org/2000/svg">
  <path
    d="M3.75 4.25977L8.24512 10.5527C8.54605 10.974 8.7566 11.4533 8.86328 11.96L10.5332 19.8945L13.2617 18.5303C13.3257 18.4982 13.3732 18.4402 13.3916 18.3711L15.1348 11.834C15.2509 11.3984 15.445 10.9869 15.707 10.6201L20.25 4.25977V3.75H3.75V4.25977ZM21.75 4.33984C21.75 4.60029 21.6689 4.85445 21.5176 5.06641L16.9277 11.4922C16.7706 11.7122 16.6537 11.9585 16.584 12.2197L14.8408 18.7578C14.7117 19.2421 14.3809 19.6478 13.9326 19.8721L10.4805 21.5986C9.96771 21.855 9.35053 21.5571 9.23242 20.9961L7.39551 12.2695C7.33151 11.9655 7.20499 11.6776 7.02441 11.4248L2.48242 5.06641C2.33107 4.85445 2.25002 4.60029 2.25 4.33984V3.25C2.25 2.69772 2.69772 2.25 3.25 2.25H20.75C21.3023 2.25 21.75 2.69771 21.75 3.25V4.33984Z"
    fill="currentColor"
  />
</svg>
