<svg width="24" height="24" viewBox="0 0 24 24" fill="none" xmlns="http://www.w3.org/2000/svg">
<g clip-path="url(#clip0_1_43)">
<path fill-rule="evenodd" clip-rule="evenodd" d="M12 0.87C5.86 0.87 0.869995 5.86 0.869995 12C0.869995 18.14 5.86 23.13 12 23.13C18.14 23.13 23.13 18.14 23.13 12C23.13 5.86 18.14 0.87 12 0.87ZM12 21.62C6.69 21.62 2.37 17.3 2.37 11.99C2.37 6.68 6.69 2.37 12 2.37C17.31 2.37 21.63 6.69 21.63 12C21.63 17.31 17.31 21.63 12 21.63V21.62ZM12.16 6.46C10.619 6.46 9.32982 7.58877 9.08999 9.08526C9.04588 9.36049 9.27794 9.58696 9.55667 9.58324L10.0567 9.57658C10.3302 9.57293 10.5421 9.34501 10.6244 9.08414C10.8302 8.43204 11.4394 7.96 12.16 7.96C12.87 7.96 13.45 8.54 13.45 9.25C13.45 9.77 13.14 10.23 12.67 10.44L12.2 10.64C11.39 10.99 10.87 11.78 10.87 12.66V13.43C10.87 13.7061 11.0939 13.93 11.37 13.93H11.87C12.1461 13.93 12.37 13.7061 12.37 13.43V12.66C12.37 12.38 12.54 12.12 12.79 12.01L13.26 11.81C14.28 11.37 14.95 10.36 14.95 9.25C14.95 7.71 13.7 6.46 12.16 6.46ZM10.49 16.41C10.49 15.79 11 15.28 11.62 15.28C12.24 15.28 12.75 15.79 12.75 16.41C12.75 17.03 12.24 17.54 11.62 17.54C11 17.54 10.49 17.03 10.49 16.41Z" fill="currentColor"/>
</g>
<defs>
<clipPath id="clip0_1_43">
<rect width="24" height="24" fill="white"/>
</clipPath>
</defs>
</svg>
