<svg width="24" height="24" viewBox="0 0 24 24" fill="none" xmlns="http://www.w3.org/2000/svg">
<path fill-rule="evenodd" clip-rule="evenodd" d="M20.57 7.8L23.0922 9.87147C23.3061 10.0472 23.3365 10.3633 23.16 10.5766L22.8376 10.9662C22.662 11.1784 22.3479 11.2086 22.1351 11.0338L20.56 9.74V21.68C20.56 21.9561 20.3361 22.18 20.06 22.18H3.93C3.65386 22.18 3.43 21.9561 3.43 21.68V9.74L1.85693 11.0322C1.64333 11.2076 1.32788 11.1765 1.15273 10.9626L0.837092 10.5772C0.662015 10.3634 0.693537 10.0481 0.907476 9.87326L11.53 1.19L11.6832 1.06286C11.8672 0.910163 12.1336 0.909133 12.3188 1.0604L20.57 7.8ZM10.11 20.68V14.02H13.89V20.68H10.11ZM15.4 20.68V13.02C15.4 12.7439 15.1761 12.52 14.9 12.52H9.12C8.84386 12.52 8.62 12.7439 8.62 13.02V20.68H4.95V8.51L12.02 2.73L19.08 8.51V20.68H15.4Z" fill="currentColor"/>
</svg>
