<svg width="24" height="24" viewBox="0 0 24 24" fill="none" xmlns="http://www.w3.org/2000/svg">
<path d="M12.25 1.78027C12.5261 1.78027 12.75 2.00413 12.75 2.28027V4.7998H20.46C21.97 4.7998 23.1904 6.02027 23.1904 7.53027V17.1396C23.1904 18.6396 21.97 19.8701 20.46 19.8701H3.5498C2.0399 19.87 0.820312 18.6496 0.820312 17.1396V7.53027C0.820312 6.03034 2.0399 4.79991 3.5498 4.7998H11.25V2.28027C11.25 2.00413 11.4739 1.78028 11.75 1.78027H12.25ZM3.5498 6.2998C2.8699 6.29991 2.32031 6.85034 2.32031 7.53027V17.1396C2.32031 17.8196 2.8699 18.37 3.5498 18.3701H20.4502C21.1301 18.37 21.6797 17.8196 21.6797 17.1396V7.53027C21.6797 6.85034 21.1301 6.29991 20.4502 6.2998H12.75V7.5C12.75 7.77614 12.5261 8 12.25 8H11.75C11.4739 8 11.25 7.77614 11.25 7.5V6.2998H3.5498ZM8.25977 7.61035C9.51977 7.61035 10.5596 8.62012 10.5996 9.87012V11.3604C10.5996 11.7102 10.5196 12.0505 10.3896 12.3604H10.4004C11.2301 12.8004 11.8095 13.67 11.8096 14.6797V16.2998C11.8096 16.5759 11.5857 16.7998 11.3096 16.7998H4.82031C4.54417 16.7998 4.32031 16.5759 4.32031 16.2998V14.6797C4.32042 13.6698 4.89055 12.8003 5.73047 12.3604C5.60051 12.0505 5.53032 11.7202 5.53027 11.3604V9.87012C5.58027 8.61012 6.61012 7.61035 7.87012 7.61035H8.25977ZM9.26953 13.5703C8.90964 13.7702 8.4896 13.9004 8.0498 13.9004C7.60996 13.9004 7.18998 13.7702 6.83008 13.5703C6.26018 13.6303 5.80972 14.0998 5.80957 14.6797V15.2998H10.29V14.6797C10.2899 14.0998 9.83943 13.6303 9.26953 13.5703ZM19.1904 13.5596C19.4662 13.5598 19.6902 13.7838 19.6904 14.0596V14.5596C19.6904 14.8356 19.4664 15.0593 19.1904 15.0596H14.9102C14.634 15.0596 14.4102 14.8357 14.4102 14.5596V14.0596C14.4104 13.7836 14.6342 13.5596 14.9102 13.5596H19.1904ZM7.86035 9.12012C7.40036 9.12012 7.01954 9.49997 7.01953 9.95996V10.3096H7.00977V11.3604C7.00997 11.9301 7.48002 12.4003 8.0498 12.4004C8.61968 12.4004 9.08964 11.9302 9.08984 11.3604V9.95996C9.08983 9.49997 8.70999 9.12012 8.25 9.12012H7.86035ZM19.1904 9.61035C19.4664 9.6106 19.6904 9.83436 19.6904 10.1104V10.6104C19.6902 10.8862 19.4662 11.1101 19.1904 11.1104H14.9102C14.6341 11.1104 14.4104 10.8863 14.4102 10.6104V10.1104C14.4102 9.83421 14.634 9.61035 14.9102 9.61035H19.1904Z" fill="currentColor"/>
</svg>
