<svg width="24" height="24" viewBox="0 0 24 24" fill="none" xmlns="http://www.w3.org/2000/svg">
<path fill-rule="evenodd" clip-rule="evenodd" d="M15.35 7.72002L20.1281 2.94192C20.3227 2.7473 20.638 2.74656 20.8335 2.94026L21.1928 3.29613C21.3897 3.49125 21.3903 3.80938 21.1941 4.00524L16.41 8.78002L20.3722 8.77114C20.6475 8.77052 20.8715 8.99253 20.8733 9.2678L20.8767 9.76812C20.8785 10.045 20.655 10.2707 20.3781 10.2714L14.3428 10.2886C14.0656 10.2894 13.8406 10.0644 13.8414 9.78717L13.8586 3.7586C13.8594 3.48301 14.083 3.26002 14.3586 3.26002H14.8589C15.1355 3.26002 15.3595 3.48456 15.3589 3.76114L15.35 7.72002ZM16.77 19.21C17.38 19.21 17.88 18.71 17.88 18.1V18.09V13.18C17.88 12.9038 18.1039 12.68 18.38 12.68H18.88C19.1561 12.68 19.38 12.9038 19.38 13.18V18.09C19.38 19.53 18.21 20.7 16.77 20.7H5.83C4.39 20.7 3.22 19.53 3.22 18.09V7.14997C3.22 5.70997 4.39 4.53997 5.83 4.53997H10.8C11.0761 4.53997 11.3 4.76383 11.3 5.03997V5.53997C11.3 5.81611 11.0761 6.03997 10.8 6.03997H5.83C5.22 6.03997 4.72 6.53997 4.72 7.14997V18.1C4.72 18.71 5.22 19.21 5.83 19.21H16.77Z" fill="currentColor"/>
</svg>
