<svg width="24" height="24" viewBox="0 0 24 24" fill="none" xmlns="http://www.w3.org/2000/svg">
<path fill-rule="evenodd" clip-rule="evenodd" d="M8.97 6.42003L11.7664 9.22535C11.9616 9.42114 12.2786 9.42139 12.4741 9.22591L12.8275 8.87251C13.0224 8.67767 13.0228 8.36191 12.8286 8.16648L8.57462 3.88679C8.37912 3.6901 8.06089 3.6901 7.86538 3.88679L3.61308 8.16481C3.41818 8.36089 3.4194 8.67793 3.61581 8.87251L3.97533 9.22867C4.1713 9.4228 4.48746 9.42156 4.68189 9.22589L7.47 6.42003V13.18C7.47 13.4562 7.69386 13.68 7.97 13.68H8.47C8.74614 13.68 8.97 13.4562 8.97 13.18V6.42003ZM15.03 18L12.2336 15.1858C12.0385 14.9895 11.721 14.989 11.5253 15.1847L11.1725 15.5375C10.9776 15.7323 10.9772 16.0481 11.1714 16.2435L15.4254 20.5232C15.6209 20.7199 15.9391 20.7199 16.1346 20.5232L20.3869 16.2452C20.5818 16.0491 20.5806 15.7321 20.3842 15.5375L20.0252 15.1819C19.8291 14.9875 19.5125 14.989 19.3181 15.1852L16.53 18V11.23C16.53 10.9538 16.3061 10.73 16.03 10.73H15.53C15.2539 10.73 15.03 10.9538 15.03 11.23V18Z" fill="currentColor"/>
</svg>
