<svg xmlns="http://www.w3.org/2000/svg" width="24" height="24" fill="none" viewBox="0 0 24 24">
  <g clip-path="url(#a)">
    <path fill="currentColor" fill-rule="evenodd" d="M12 23.13C5.86 23.13.87 18.14.87 12 .87 5.86 5.86.87 12 .87 18.14.87 23.13 5.86 23.13 12c0 6.14-4.99 11.13-11.13 11.13Zm0-20.75C6.69 2.37 2.37 6.69 2.37 12s4.32 9.63 9.63 9.63c5.31 0 9.63-4.32 9.63-9.63 0-5.31-4.32-9.63-9.63-9.63v.01Zm0 6.23c-.62 0-1.13-.51-1.13-1.13 0-.62.51-1.13 1.13-1.13.62 0 1.13.51 1.13 1.13 0 .62-.51 1.13-1.13 1.13Zm-.75 1.65h1.5v6.64h-1.5v-6.64Z" clip-rule="evenodd"/>
  </g>
  <defs>
    <clipPath id="a">
      <path fill="#fff" d="M0 0h24v24H0z"/>
    </clipPath>
  </defs>
</svg>
