<svg
  width="24"
  height="24"
  viewBox="0 0 24 24"
  fill="currentColor"
  xmlns="http://www.w3.org/2000/svg"
>
  <path
    d="M20.45 4.8H12.75V1.78H11.25V4.8H3.55001C2.04001 4.8 0.820007 6.03 0.820007 7.53V17.14C0.820007 18.65 2.04001 19.87 3.55001 19.87H20.46C21.97 19.87 23.19 18.64 23.19 17.14V7.53C23.19 6.02 21.97 4.8 20.46 4.8H20.45ZM21.68 17.14C21.68 17.82 21.13 18.37 20.45 18.37H3.55001C2.87001 18.37 2.32001 17.82 2.32001 17.14V7.53C2.32001 6.85 2.87001 6.3 3.55001 6.3H11.25V8H12.75V6.3H20.45C21.13 6.3 21.68 6.85 21.68 7.53V17.14Z"
  />
  <path
    d="M10.39 12.36C10.52 12.05 10.6 11.71 10.6 11.36V9.86999C10.56 8.61999 9.52001 7.60999 8.26001 7.60999H7.87001C6.61001 7.60999 5.58001 8.60999 5.53001 9.86999V11.36C5.53001 11.72 5.60001 12.05 5.73001 12.36C4.89001 12.8 4.32001 13.67 4.32001 14.68V16.8H11.81V14.68C11.81 13.67 11.23 12.8 10.4 12.36H10.39ZM7.02001 10.31V9.95999C7.02001 9.49999 7.40001 9.11999 7.86001 9.11999H8.25001C8.71001 9.11999 9.09001 9.49999 9.09001 9.95999V11.36C9.09001 11.93 8.62001 12.4 8.05001 12.4C7.48001 12.4 7.01001 11.93 7.01001 11.36V10.31H7.02001ZM10.3 15.3H5.81001V14.68C5.81001 14.1 6.26001 13.63 6.83001 13.57C7.19001 13.77 7.61001 13.9 8.05001 13.9C8.49001 13.9 8.91001 13.77 9.27001 13.57C9.84001 13.63 10.29 14.1 10.29 14.68V15.3H10.3Z"
  />
  <path d="M19.69 9.60999H14.41V11.11H19.69V9.60999Z" />
  <path d="M19.69 13.56H14.41V15.06H19.69V13.56Z" />
</svg>
