<svg xmlns="http://www.w3.org/2000/svg" width="24" height="24" fill="none" viewBox="0 0 24 24">
  <path fill="currentColor" fill-rule="evenodd" d="M17.11 2.25c2.2 0 4.27.49 5.52 1.31h-.01l.34.22v13.76c0 .33-.17.64-.46.81a.96.96 0 0 1-.93 0c-1.04-.57-2.72-.92-4.47-.92-1.56 0-3.06.28-4.11.75-.63.29-1.36.29-2 0-1.06-.48-2.55-.75-4.11-.75-1.75 0-3.43.35-4.47.93-.14.08-.29.12-.45.12-.16 0-.32-.05-.47-.13a.957.957 0 0 1-.46-.81V3.78l.34-.22c1.25-.82 3.32-1.31 5.52-1.31 1.98 0 3.84.4 5.11 1.07 1.27-.68 3.13-1.07 5.11-1.07ZM2.53 16.66c1.21-.47 2.74-.73 4.36-.73v-.01c1.63 0 3.15.27 4.36.74V4.61c-1.04-.54-2.66-.87-4.36-.87-1.7 0-3.32.33-4.36.87v12.05Zm14.58-.73c1.62 0 3.16.26 4.36.73V4.62c-1.04-.54-2.66-.87-4.36-.87-1.7 0-3.32.33-4.36.87v12.05c1.21-.47 2.74-.74 4.36-.74Zm-3.7 3.69.14-.06c4.06-1.79 8.92.67 9.13.78l-.69 1.33-.02-.01c-.331-.159-4.43-2.13-7.69-.78-.54.51-1.22.72-2.28.72-1.06 0-1.74-.21-2.28-.72-3.39-1.4-7.71.79-7.71.79l-.69-1.33c.21-.11 5.07-2.57 9.13-.78l.14.06.1.11c.18.19.42.37 1.31.37.89 0 1.13-.17 1.31-.37l.1-.11Z" clip-rule="evenodd"/>
</svg>
