<svg
  width="24"
  height="25"
  viewBox="0 0 24 25"
  fill="currentColor"
  xmlns="http://www.w3.org/2000/svg"
>
  <path
    id="Vector"
    d="M21.9 3.94922C21.63 3.70922 21.25 3.64922 20.92 3.78922L2.35998 11.6692C2.01998 11.8092 1.79998 12.1392 1.78998 12.5092C1.78998 12.8792 1.98998 13.2092 2.31998 13.3692L7.19998 15.7092V20.8492C7.19998 21.2292 7.42998 21.5692 7.78998 21.7092C7.89998 21.7492 8.00998 21.7692 8.11998 21.7692C8.36998 21.7692 8.61998 21.6592 8.79998 21.4692L11.94 17.9992L16.55 20.2192C16.68 20.2792 16.81 20.3092 16.95 20.3092C17.09 20.3092 17.21 20.2792 17.33 20.2292C17.58 20.1192 17.77 19.8992 17.84 19.6392L22.17 4.90922C22.27 4.55922 22.17 4.18922 21.89 3.94922H21.9ZM18.21 6.56922L9.37998 15.0992L4.09998 12.5592L18.21 6.56922ZM8.68998 19.3492V16.4292L10.53 17.3092L8.68998 19.3392V19.3492ZM16.6 18.5692L10.82 15.7892L20.03 6.88922L16.6 18.5692Z"
  />
</svg>
