<svg width="24" height="24" viewBox="0 0 24 24" fill="none" xmlns="http://www.w3.org/2000/svg">
<path d="M19.25 2.25C19.5261 2.25 19.75 2.47386 19.75 2.75V19.25C19.75 19.5261 19.5261 19.75 19.25 19.75H15.6992L12.248 21.7227C12.0944 21.8104 11.9056 21.8104 11.752 21.7227L8.30078 19.75H4.75C4.47386 19.75 4.25 19.5261 4.25 19.25V2.75C4.25 2.47386 4.47386 2.25 4.75 2.25H19.25ZM5.75 18.25H8.56641C8.65332 18.25 8.73897 18.2724 8.81445 18.3154L12 20.1357L15.1855 18.3154C15.261 18.2724 15.3467 18.25 15.4336 18.25H18.25V3.75H5.75V18.25ZM12 15C12.4142 15 12.75 15.3358 12.75 15.75C12.75 16.1642 12.4142 16.5 12 16.5C11.5858 16.5 11.25 16.1642 11.25 15.75C11.25 15.3358 11.5858 15 12 15ZM10.0557 6.88379C11.1296 5.81005 12.8704 5.81005 13.9443 6.88379C14.46 7.39944 14.7499 8.09889 14.75 8.82812V9C14.75 9.83916 14.4166 10.6439 13.8232 11.2373L13.5303 11.5303C13.0307 12.0299 12.75 12.7075 12.75 13.4141V13.75C12.75 13.8881 12.6381 14 12.5 14H11.5C11.3619 14 11.25 13.8881 11.25 13.75V13.4141C11.25 12.3097 11.6888 11.2506 12.4697 10.4697L12.7627 10.1768C13.0747 9.86467 13.25 9.44134 13.25 9V8.82812C13.2499 8.49672 13.1181 8.17868 12.8838 7.94434C12.3957 7.45639 11.6043 7.45639 11.1162 7.94434C10.9413 8.11929 10.8239 8.3411 10.7754 8.58008C10.7479 8.71531 10.638 8.82812 10.5 8.82812H9.5C9.36193 8.82811 9.24916 8.71563 9.26172 8.57812C9.32001 7.94057 9.59928 7.34018 10.0557 6.88379Z" fill="currentColor"/>
</svg>
