<svg width="24" height="24" viewBox="0 0 24 24" fill="none" xmlns="http://www.w3.org/2000/svg">
<path fill-rule="evenodd" clip-rule="evenodd" d="M4.95 3.78V20.21C4.95 21 5.59 21.64 6.38 21.64H14.46C14.7361 21.64 14.96 21.8639 14.96 22.14V22.64C14.96 22.9161 14.7361 23.14 14.46 23.14H6.38C4.76 23.14 3.45 21.82 3.45 20.21V3.79C3.45 2.17 4.77 0.86 6.38 0.86H14.46C14.7361 0.86 14.96 1.08386 14.96 1.36V1.85C14.96 2.12614 14.7361 2.35 14.46 2.35H6.38C5.59 2.35 4.95 2.99 4.95 3.78ZM20.502 11.955C20.6992 12.1506 20.6992 12.4694 20.502 12.665L15.1852 17.9377C14.9891 18.1323 14.6723 18.1309 14.4779 17.9346L14.1219 17.5752C13.9276 17.3791 13.9291 17.0624 14.1253 16.8681L17.97 13.06H7.36C7.08386 13.06 6.86 12.8361 6.86 12.56V12.06C6.86 11.7839 7.08386 11.56 7.36 11.56H17.97L14.1261 7.74355C13.9296 7.54849 13.9291 7.23093 14.1248 7.03518L14.4779 6.68208C14.6726 6.4874 14.9881 6.48674 15.1835 6.68062L20.502 11.955Z" fill="currentColor"/>
</svg>
