<svg
  width="24"
  height="24"
  viewBox="0 0 24 24"
  fill="currentColor"
  xmlns="http://www.w3.org/2000/svg"
>
  <path
    d="M20.45 4.79999H3.55001C2.04001 4.79999 0.820007 6.02999 0.820007 7.52999V17.14C0.820007 18.65 2.04001 19.87 3.55001 19.87H20.46C21.97 19.87 23.19 18.64 23.19 17.14V7.52999C23.19 6.01999 21.97 4.79999 20.46 4.79999H20.45ZM3.55001 6.29999H20.46C21 6.29999 21.44 6.64999 21.61 7.12999L12.13 12.93C12.05 12.98 11.96 12.98 11.88 12.93L2.40001 7.12999C2.57001 6.64999 3.01001 6.29999 3.55001 6.29999ZM20.46 18.37H3.55001C2.87001 18.37 2.32001 17.82 2.32001 17.14V8.83999L11.1 14.21C11.38 14.38 11.69 14.47 12.01 14.47C12.33 14.47 12.64 14.38 12.92 14.21L21.7 8.83999V17.14C21.7 17.82 21.15 18.37 20.47 18.37H20.46Z"
  />
</svg>
