<svg width="24" height="24" viewBox="0 0 24 24" fill="none" xmlns="http://www.w3.org/2000/svg">
<path d="M21.375 17.0661C21.375 17.2455 21.2788 17.4112 21.123 17.5002L15.2266 20.869L15.1654 20.9041C15.0115 20.9925 14.8224 20.9926 14.6683 20.9046L9.08301 17.7127L2.99906 21.1903C2.8324 21.2856 2.625 21.1653 2.625 20.9733V6.92087C2.625 6.74144 2.72114 6.57577 2.87692 6.48675L8.83542 3.08176C8.98888 2.99407 9.17723 2.99391 9.33083 3.08134L9.39355 3.11704L14.916 6.27329L21.001 2.79656C21.1676 2.70134 21.375 2.82168 21.375 3.01363V17.0661ZM9.70801 16.6297L14.292 19.2499V7.3563L9.70801 4.73618V16.6297ZM3.875 7.3563V19.2489L8.45801 16.6307V4.73716L3.875 7.3563ZM15.542 7.35532V19.2489L20.125 16.6297V4.73716L15.542 7.35532Z" fill="black"/>
</svg>
