<svg width="24" height="24" viewBox="0 0 24 24" fill="none" xmlns="http://www.w3.org/2000/svg">
<path fill-rule="evenodd" clip-rule="evenodd" d="M2.76 5.69C2.76 5.41386 2.98386 5.19 3.26 5.19H20.73C21.0061 5.19 21.23 5.41386 21.23 5.69V6.19C21.23 6.46614 21.0061 6.69 20.73 6.69H3.26C2.98386 6.69 2.76 6.46614 2.76 6.19V5.69ZM21.23 11.75C21.23 11.4739 21.0061 11.25 20.73 11.25H3.26C2.98386 11.25 2.76 11.4739 2.76 11.75V12.25C2.76 12.5261 2.98386 12.75 3.26 12.75H20.73C21.0061 12.75 21.23 12.5261 21.23 12.25V11.75ZM21.23 17.82C21.23 17.5439 21.0061 17.32 20.73 17.32H3.26C2.98386 17.32 2.76 17.5439 2.76 17.82V18.32C2.76 18.5961 2.98386 18.82 3.26 18.82H20.73C21.0061 18.82 21.23 18.5961 21.23 18.32V17.82Z" fill="currentColor"/>
</svg>
