<svg width="24" height="24" viewBox="0 0 24 24" fill="none" xmlns="http://www.w3.org/2000/svg">
<path d="M5.67 13.5C4.84699 13.5 4.17 12.823 4.17 12C4.17 11.177 4.84699 10.5 5.67 10.5C6.49301 10.5 7.17 11.177 7.17 12C7.17 12.823 6.49301 13.5 5.67 13.5Z" fill="currentColor"/>
<path d="M11.9974 13.5C11.1744 13.5 10.4974 12.823 10.4974 12C10.4974 11.177 11.1744 10.5 11.9974 10.5C12.8204 10.5 13.4974 11.177 13.4974 12C13.4974 12.823 12.8204 13.5 11.9974 13.5Z" fill="currentColor"/>
<path d="M18.3249 13.5C17.5019 13.5 16.8249 12.823 16.8249 12C16.8249 11.177 17.5019 10.5 18.3249 10.5C19.1479 10.5 19.8249 11.177 19.8249 12C19.8249 12.823 19.1479 13.5 18.3249 13.5Z" fill="currentColor"/>
</svg>
