<svg width="24" height="24" viewBox="0 0 24 24" fill="none" xmlns="http://www.w3.org/2000/svg">
<path fill-rule="evenodd" clip-rule="evenodd" d="M12 7.17C11.177 7.17 10.5 6.49301 10.5 5.67C10.5 4.84699 11.177 4.17 12 4.17C12.823 4.17 13.5 4.84699 13.5 5.67C13.5 6.49301 12.823 7.17 12 7.17ZM12 13.4974C11.177 13.4974 10.5 12.8204 10.5 11.9974C10.5 11.1744 11.177 10.4974 12 10.4974C12.823 10.4974 13.5 11.1744 13.5 11.9974C13.5 12.8204 12.823 13.4974 12 13.4974ZM10.5 18.3249C10.5 19.1479 11.177 19.8249 12 19.8249C12.823 19.8249 13.5 19.1479 13.5 18.3249C13.5 17.5019 12.823 16.8249 12 16.8249C11.177 16.8249 10.5 17.5019 10.5 18.3249Z" fill="currentColor"/>
</svg>
