<svg xmlns="http://www.w3.org/2000/svg" width="24" height="24" fill="none" viewBox="0 0 24 24">
  <g clip-path="url(#a)">
    <path fill="currentColor" fill-rule="evenodd" d="M23.17 9.7v4.59h-1.84c-.24.94-.61 1.84-1.11 2.67l1.3 1.3-3.25 3.25-1.3-1.3c-.83.51-1.72.88-2.67 1.11v1.83H9.7v-1.83c-.94-.23-1.84-.61-2.67-1.11l-1.3 1.3-3.25-3.25 1.3-1.3c-.51-.83-.88-1.72-1.11-2.67H.83v-4.6h1.84c.24-.94.61-1.84 1.11-2.67l-1.3-1.3 3.25-3.25 1.3 1.3c.83-.51 1.72-.88 2.67-1.11V.83h4.6v1.84c.94.23 1.84.61 2.67 1.11l1.3-1.3 3.25 3.25-1.3 1.3c.51.83.88 1.72 1.11 2.67h1.84Zm-3.18 3.72.11-.62h1.57v-1.6H20.1l-.11-.62c-.2-1.18-.65-2.26-1.33-3.23l-.36-.52 1.11-1.11-1.13-1.13-1.11 1.11-.51-.36a8.204 8.204 0 0 0-3.23-1.33l-.62-.11V2.33h-1.6V3.9l-.62.11c-1.18.2-2.26.65-3.23 1.33l-.51.36-1.11-1.11-1.13 1.13 1.11 1.11-.36.52c-.67.97-1.12 2.06-1.33 3.23l-.11.62H2.35v1.6h1.57l.11.62c.2 1.18.65 2.26 1.33 3.23l.36.52-1.11 1.11 1.13 1.13 1.11-1.11.51.36c.97.67 2.06 1.12 3.23 1.33l.62.11v1.57h1.6V20.1l.62-.11c1.18-.2 2.26-.65 3.23-1.33l.51-.36 1.11 1.11 1.13-1.13-1.11-1.11.36-.52c.67-.97 1.12-2.06 1.33-3.23ZM8.68 12c0-1.83 1.49-3.32 3.32-3.32 1.83 0 3.32 1.49 3.32 3.32 0 1.83-1.49 3.32-3.32 3.32-1.83 0-3.32-1.49-3.32-3.32Zm1.5 0c0 1 .82 1.82 1.82 1.82S13.82 13 13.82 12 13 10.18 12 10.18 10.18 11 10.18 12Z" clip-rule="evenodd"/>
  </g>
  <defs>
    <clipPath id="a">
      <path fill="#fff" d="M0 0h24v24H0z"/>
    </clipPath>
  </defs>
</svg>
