<svg width="24" height="24" viewBox="0 0 24 24" fill="none" xmlns="http://www.w3.org/2000/svg">
<path fill-rule="evenodd" clip-rule="evenodd" d="M16.92 7.22003H19.48C20.84 7.22003 21.95 8.33003 21.95 9.69003V19.67C21.95 21.03 20.84 22.14 19.48 22.14H10.03C8.67 22.14 7.56 21.03 7.56 19.67V17.2H5C3.64 17.2 2.53 16.09 2.53 14.73V4.75003C2.53 3.39003 3.64 2.28003 5 2.28003H14.45C15.81 2.28003 16.92 3.39003 16.92 4.75003V7.22003ZM4.03 14.73C4.03 15.26 4.46 15.7 5 15.7V15.69H7.56V9.69003C7.56 8.33003 8.67 7.22003 10.03 7.22003H15.42V4.75003C15.42 4.22003 14.99 3.78003 14.45 3.78003H5C4.47 3.78003 4.03 4.21003 4.03 4.75003V14.73ZM19.48 20.64C20.01 20.64 20.45 20.21 20.45 19.67V9.69003C20.45 9.16003 20.02 8.72003 19.48 8.72003H10.03C9.5 8.72003 9.06 9.15003 9.06 9.69003V19.67C9.06 20.2 9.49 20.64 10.03 20.64H19.48ZM14 12.03C14 11.7539 14.2239 11.53 14.5 11.53H15C15.2761 11.53 15.5 11.7539 15.5 12.03V13.93H17.41C17.6861 13.93 17.91 14.1539 17.91 14.43V14.93C17.91 15.2062 17.6861 15.43 17.41 15.43H15.5V17.33C15.5 17.6062 15.2761 17.83 15 17.83H14.5C14.2239 17.83 14 17.6062 14 17.33V15.43H12.1C11.8239 15.43 11.6 15.2062 11.6 14.93V14.43C11.6 14.1539 11.8239 13.93 12.1 13.93H14V12.03Z" fill="currentColor"/>
</svg>
