<svg width="24" height="24" viewBox="0 0 24 24" fill="none" xmlns="http://www.w3.org/2000/svg">
<path d="M11.25 3.25C11.6642 3.25 12 3.58579 12 4C12 4.41421 11.6642 4.75 11.25 4.75H6C5.30964 4.75 4.75 5.30964 4.75 6V18C4.75 18.6904 5.30964 19.25 6 19.25H18C18.6904 19.25 19.25 18.6904 19.25 18V12.75C19.25 12.3358 19.5858 12 20 12C20.4142 12 20.75 12.3358 20.75 12.75V18C20.75 19.5188 19.5188 20.75 18 20.75H6C4.48122 20.75 3.25 19.5188 3.25 18V6C3.25 4.48122 4.48122 3.25 6 3.25H11.25ZM19.75 3.25C20.3023 3.25 20.75 3.69772 20.75 4.25V9.25C20.75 9.66421 20.4142 10 20 10C19.5858 10 19.25 9.66421 19.25 9.25V5.81055L10.0605 15C9.76769 15.2929 9.29286 15.2929 9 15C8.70714 14.7071 8.70714 14.2323 9 13.9395L18.1895 4.75H14.75C14.3358 4.75 14 4.41421 14 4C14 3.58579 14.3358 3.25 14.75 3.25H19.75Z" fill="#2D2926"/>
</svg>
