<svg width="24" height="24" viewBox="0 0 24 24" fill="none" xmlns="http://www.w3.org/2000/svg">
<path d="M16.75 9.66699C16.75 7.56111 14.8744 5.75 12.4229 5.75H7.25V18.25H9.13477V14.083C9.13477 13.8069 9.35862 13.583 9.63477 13.583H12.4229C14.8743 13.583 16.7498 11.7727 16.75 9.66699ZM13.5342 9.66699C13.5342 9.28011 13.174 8.86155 12.5928 8.86133H10.6348V10.4727H12.5928C13.1739 10.4724 13.534 10.0538 13.5342 9.66699ZM15.0342 9.66699C15.034 10.9986 13.8809 11.9724 12.5928 11.9727H9.63477C9.35862 11.9727 9.13477 11.7488 9.13477 11.4727V7.86133C9.13477 7.58519 9.35862 7.36133 9.63477 7.36133H12.5928C13.8811 7.36156 15.0342 8.33525 15.0342 9.66699ZM18.25 9.66699C18.2498 12.7176 15.5812 15.083 12.4229 15.083H10.6348V19.25C10.6348 19.5261 10.4109 19.75 10.1348 19.75H6.25C5.97386 19.75 5.75 19.5261 5.75 19.25V4.75C5.75 4.47386 5.97386 4.25 6.25 4.25H12.4229C15.5813 4.25 18.25 6.6162 18.25 9.66699Z" fill="currentColor"/>
</svg>
