<svg width="24" height="24" viewBox="0 0 24 24" fill="none" xmlns="http://www.w3.org/2000/svg">
<path fill-rule="evenodd" clip-rule="evenodd" d="M3.55 4.38C2.04 4.38 0.82 5.60001 0.82 7.11V16.72C0.82 18.23 2.04 19.45 3.55 19.45H20.46C21.97 19.45 23.19 18.23 23.19 16.72V7.11C23.19 5.60001 21.97 4.38 20.46 4.38H3.55ZM3.55 5.88H20.46C21.14 5.88 21.69 6.43001 21.69 7.11V8.38H2.32V7.11C2.32 6.43001 2.87 5.88 3.55 5.88ZM20.46 17.95H3.55C2.87 17.95 2.32 17.4 2.32 16.72V9.87H21.69V16.72C21.69 17.4 21.14 17.95 20.46 17.95ZM15.06 14.98C15.06 14.7039 14.8361 14.48 14.56 14.48H5.05C4.77386 14.48 4.55 14.7039 4.55 14.98V15.48C4.55 15.7561 4.77386 15.98 5.05 15.98H14.56C14.8361 15.98 15.06 15.7561 15.06 15.48V14.98ZM17.16 14.98C17.16 14.7039 17.3839 14.48 17.66 14.48H18.94C19.2161 14.48 19.44 14.7039 19.44 14.98V15.48C19.44 15.7561 19.2161 15.98 18.94 15.98H17.66C17.3839 15.98 17.16 15.7561 17.16 15.48V14.98Z" fill="currentColor"/>
</svg>
