<svg width="24" height="24" viewBox="0 0 24 24" fill="none" xmlns="http://www.w3.org/2000/svg">
<path fill-rule="evenodd" clip-rule="evenodd" d="M19.28 2.77002C19.5561 2.77002 19.78 2.99388 19.78 3.27002V6.55002H22.31C22.5861 6.55002 22.81 6.77388 22.81 7.05002V17.21C22.81 17.4862 22.5861 17.71 22.31 17.71H19.77V21.11C19.77 21.3862 19.5461 21.61 19.27 21.61H5.04C4.76386 21.61 4.54 21.3862 4.54 21.11V17.71H1.69C1.41386 17.71 1.19 17.4862 1.19 17.21V7.05002C1.19 6.77388 1.41386 6.55002 1.69 6.55002H4.54V3.27002C4.54 2.99388 4.76386 2.77002 5.04 2.77002H19.28ZM18.28 4.27002H6.05H6.04V6.55002H18.28V4.27002ZM6.04 20.11H18.27V17.71H6.04V20.11ZM2.69 16.21H21.31V8.05002H2.69V16.21ZM6.64 13.16H5.78V14.63C5.78 14.9061 5.55614 15.13 5.28 15.13H4.78C4.50386 15.13 4.28 14.9061 4.28 14.63V9.73999C4.28 9.46385 4.50386 9.23999 4.78 9.23999H6.64C7.78 9.23999 8.7 10.12 8.7 11.2C8.7 12.28 7.78 13.16 6.64 13.16ZM6.64 10.75H5.78V10.76V11.67H6.64C6.94 11.67 7.2 11.47 7.2 11.21C7.2 10.95 6.95 10.75 6.64 10.75ZM14.79 12.21C14.79 10.58 13.37 9.25 11.64 9.25H10.48C10.2039 9.25 9.98 9.47386 9.98 9.75V14.68C9.98 14.9561 10.2039 15.18 10.48 15.18H11.64C13.38 15.18 14.79 13.85 14.79 12.22V12.21ZM11.48 10.75H11.64C12.55 10.75 13.29 11.41 13.29 12.21C13.29 13.01 12.55 13.67 11.64 13.67H11.48V10.75ZM19.74 12.58C19.74 12.8561 19.5161 13.08 19.24 13.08H17.73V14.64C17.73 14.9161 17.5061 15.14 17.23 15.14H16.73C16.4539 15.14 16.23 14.9161 16.23 14.64V9.75C16.23 9.47386 16.4539 9.25 16.73 9.25H19.24C19.5161 9.25 19.74 9.47386 19.74 9.75V10.25C19.74 10.5261 19.5161 10.75 19.24 10.75H17.73V11.58H19.24C19.5161 11.58 19.74 11.8039 19.74 12.08V12.58Z" fill="currentColor"/>
</svg>
