<svg width="24" height="24" viewBox="0 0 24 24" fill="none" xmlns="http://www.w3.org/2000/svg">
<path fill-rule="evenodd" clip-rule="evenodd" d="M10.9701 3.19186C10.6942 3.17874 10.47 2.95614 10.47 2.67999V2.17999C10.47 1.90385 10.6945 1.67891 10.9704 1.69039C17.1241 1.94662 22.1116 6.90566 22.4065 13.0666C22.4197 13.3436 22.1943 13.57 21.917 13.57H21.4174C21.1423 13.57 20.9201 13.3474 20.9057 13.0726C20.6249 7.73844 16.3055 3.44567 10.9701 3.19186ZM15.65 14.66C15.1 14.11 14.31 13.89 13.55 14.08C12.81 14.26 12.24 14.8 12.03 15.49C11.95 15.73 11.78 16 11.43 15.92C10.2 15.61 8.40001 13.79 7.98001 12.44C7.79395 11.8426 8.01067 11.7631 8.19816 11.6944L8.21001 11.69C8.92001 11.47 9.46001 10.9 9.64001 10.16C9.83001 9.40001 9.61001 8.62001 9.06001 8.06001L6.88001 5.88001C5.97001 5.08001 4.61001 5.09001 3.79001 5.91001L2.32001 7.38001C0.520013 9.27001 2.14001 13.68 6.09001 17.63C9.00001 20.54 12.04 22.18 14.22 22.18C15.08 22.18 15.81 21.92 16.35 21.39L17.84 19.9C18.64 18.98 18.63 17.63 17.81 16.81L15.66 14.66H15.65ZM16.74 18.88L15.28 20.34C14.24 21.38 10.65 20.09 7.14001 16.58C3.67001 13.11 2.38001 9.50001 3.38001 8.44001L4.84001 6.98001C4.97001 6.85001 5.15001 6.79001 5.33001 6.79001C5.51001 6.79001 5.71001 6.85001 5.85001 6.98001L8.00001 9.13001C8.18001 9.31001 8.25001 9.56001 8.19001 9.81001C8.16001 9.92001 8.07001 10.17 7.76001 10.27C6.63001 10.65 6.17001 11.65 6.55001 12.89C7.07001 14.58 9.16001 16.9 11.09 17.39C12.15 17.63 13.1 17.06 13.46 15.96C13.55 15.66 13.81 15.57 13.91 15.54C14.16 15.48 14.41 15.55 14.59 15.73L16.74 17.88C16.99 18.13 16.98 18.61 16.74 18.89V18.88ZM16.4003 12.2996C16.4302 12.5746 16.6547 12.797 16.9313 12.7933L17.4312 12.7866C17.7069 12.783 17.9295 12.5561 17.9059 12.2814C17.6264 9.0385 14.996 6.44246 11.75 6.19871C11.4746 6.17803 11.25 6.40385 11.25 6.67999V7.17999C11.25 7.45613 11.4745 7.67744 11.7494 7.7042C14.1751 7.94037 16.1372 9.87713 16.4003 12.2996Z" fill="currentColor"/>
</svg>
