<svg width="24" height="24" viewBox="0 0 24 24" fill="none" xmlns="http://www.w3.org/2000/svg">
<path fill-rule="evenodd" clip-rule="evenodd" d="M18.0618 12.3726C17.5118 11.8226 16.7218 11.6026 15.9618 11.7926C15.2218 11.9726 14.6518 12.5126 14.4418 13.2026C14.3618 13.4426 14.1918 13.7126 13.8418 13.6326C12.6118 13.3226 10.8118 11.5026 10.3918 10.1526C10.2057 9.55522 10.4224 9.47572 10.6099 9.40695L10.6218 9.40259C11.3318 9.18259 11.8718 8.61259 12.0518 7.87259C12.2418 7.11259 12.0218 6.33259 11.4718 5.77259L9.29176 3.59259C8.38176 2.79259 7.02176 2.80259 6.20176 3.62259L4.73176 5.09259C2.93176 6.98259 4.55176 11.3926 8.50176 15.3426C11.4118 18.2526 14.4518 19.8926 16.6318 19.8926C17.4918 19.8926 18.2218 19.6326 18.7618 19.1026L20.2518 17.6126C21.0518 16.6926 21.0418 15.3426 20.2218 14.5226L18.0718 12.3726H18.0618ZM19.1518 16.5926L17.6918 18.0526C16.6518 19.0926 13.0618 17.8026 9.55176 14.2926C6.08176 10.8226 4.79176 7.21259 5.79176 6.15259L7.25176 4.69259C7.38176 4.56259 7.56176 4.50259 7.74176 4.50259C7.92176 4.50259 8.12176 4.56259 8.26176 4.69259L10.4118 6.84259C10.5918 7.02259 10.6618 7.27259 10.6018 7.52259C10.5718 7.63259 10.4818 7.88259 10.1718 7.98259C9.04176 8.36259 8.58176 9.36259 8.96176 10.6026C9.48176 12.2926 11.5718 14.6126 13.5018 15.1026C14.5618 15.3426 15.5118 14.7726 15.8718 13.6726C15.9618 13.3726 16.2218 13.2826 16.3218 13.2526C16.5718 13.1926 16.8218 13.2626 17.0018 13.4426L19.1518 15.5926C19.4018 15.8426 19.3918 16.3226 19.1518 16.6026V16.5926Z" fill="currentColor"/>
</svg>
