<svg width="24" height="24" viewBox="0 0 24 24" fill="none" xmlns="http://www.w3.org/2000/svg">
<path d="M12 3C15.866 3 19 6.13401 19 10C19 13.3438 13.7634 19.1323 12.3487 20.6351C12.1569 20.8389 11.8431 20.8389 11.6513 20.6351C10.2366 19.1323 5 13.3438 5 10C5 6.13401 8.13401 3 12 3ZM12 4.5C8.96243 4.5 6.5 6.96243 6.5 10C6.5 10.5804 6.78649 11.4781 7.41309 12.6357C8.01591 13.7495 8.83788 14.9327 9.6875 16.0332C10.5233 17.1157 11.3631 18.0882 12 18.7969C12.6369 18.0882 13.4767 17.1157 14.3125 16.0332C15.1621 14.9327 15.9841 13.7495 16.5869 12.6357C17.2135 11.4781 17.5 10.5804 17.5 10C17.5 6.96243 15.0376 4.5 12 4.5ZM12 7C13.6569 7 15 8.34315 15 10C15 11.6569 13.6569 13 12 13C10.3431 13 9 11.6569 9 10C9 8.34315 10.3431 7 12 7ZM12 8.5C11.1716 8.5 10.5 9.17157 10.5 10C10.5 10.8284 11.1716 11.5 12 11.5C12.8284 11.5 13.5 10.8284 13.5 10C13.5 9.17157 12.8284 8.5 12 8.5Z" fill="currentColor"/>
</svg>
