<svg xmlns="http://www.w3.org/2000/svg" width="24" height="24" fill="none" viewBox="0 0 24 24">
  <g clip-path="url(#a)">
    <path fill="currentColor" fill-rule="evenodd" d="M12 .87C5.86.87.87 5.86.87 12c0 6.14 4.99 11.13 11.13 11.13 6.14 0 11.13-4.99 11.13-11.13C23.13 5.86 18.14.87 12 .87Zm0 20.75c-5.31 0-9.63-4.32-9.63-9.63 0-5.31 4.32-9.62 9.63-9.62 5.31 0 9.63 4.32 9.63 9.63 0 5.31-4.32 9.63-9.63 9.63v-.01Zm.16-15.16c-1.71 0-3.11 1.39-3.11 3.13l1.5-.02c0-.89.72-1.61 1.61-1.61.71 0 1.29.58 1.29 1.29 0 .52-.31.98-.78 1.19l-.47.2c-.81.35-1.33 1.14-1.33 2.02v1.27h1.5v-1.27c0-.28.17-.54.42-.65l.47-.2a2.799 2.799 0 0 0 1.69-2.56c0-1.54-1.25-2.79-2.79-2.79Zm-1.67 9.95c0-.62.51-1.13 1.13-1.13.62 0 1.13.51 1.13 1.13 0 .62-.51 1.13-1.13 1.13-.62 0-1.13-.51-1.13-1.13Z" clip-rule="evenodd"/>
  </g>
  <defs>
    <clipPath id="a">
      <path fill="#fff" d="M0 0h24v24H0z"/>
    </clipPath>
  </defs>
</svg>
