<svg xmlns="http://www.w3.org/2000/svg" width="24" height="24" fill="none" viewBox="0 0 24 24">
  <path fill="currentColor" fill-rule="evenodd" d="M18.54 3.47v3.41h.01c0 1.7-.68 3.26-1.83 4.17l-1.48 1.17 1.48 1.17c1.15.91 1.83 2.47 1.83 4.17v3.41h2.07v1.5H3.38v-1.5h2.07v-3.41c0-1.7.68-3.26 1.83-4.17l1.48-1.17-1.48-1.17c-1.15-.91-1.83-2.47-1.83-4.17V3.47H3.38v-1.5h17.23v1.5h-2.07Zm-1.5 2.26V3.47H6.96v2.26h10.08Zm-1.27 8.84-2.95-2.35 2.95-2.35c.7-.56 1.15-1.55 1.23-2.64H6.98c.08 1.09.53 2.08 1.23 2.64l2.95 2.35-2.95 2.35c-.78.62-1.26 1.76-1.26 2.99v3.41h4.29v-2.96h1.5v2.96h4.29v-3.41c0-1.22-.48-2.37-1.26-2.99Zm-4.52-2.35h1.5v3.14h-1.5v-3.14Z" clip-rule="evenodd"/>
</svg>
