<svg width="24" height="24" viewBox="0 0 24 24" fill="none" xmlns="http://www.w3.org/2000/svg">
<path fill-rule="evenodd" clip-rule="evenodd" d="M18.54 3.47V6.88H18.55C18.55 8.58 17.87 10.14 16.72 11.05L15.24 12.22L16.72 13.39C17.87 14.3 18.55 15.86 18.55 17.56V20.97H20.12C20.3961 20.97 20.62 21.1939 20.62 21.47V21.97C20.62 22.2461 20.3961 22.47 20.12 22.47H3.88C3.60386 22.47 3.38 22.2461 3.38 21.97V21.47C3.38 21.1939 3.60386 20.97 3.88 20.97H5.45V17.56C5.45 15.86 6.13 14.3 7.28 13.39L8.76 12.22L7.28 11.05C6.13 10.14 5.45 8.58 5.45 6.88V3.47H3.88C3.60386 3.47 3.38 3.24614 3.38 2.97V2.47C3.38 2.19386 3.60386 1.97 3.88001 1.97H20.11C20.3861 1.97 20.61 2.19386 20.61 2.47V2.97C20.61 3.24614 20.3861 3.47 20.11 3.47H18.54ZM17.04 5.73V3.47H6.96V5.73H17.04ZM15.77 14.57L13.3109 12.6111C13.0597 12.4109 13.0597 12.0291 13.3109 11.8289L15.77 9.87C16.47 9.31 16.92 8.32 17 7.23H6.98C7.06 8.32 7.51 9.31 8.21 9.87L10.6691 11.8289C10.9204 12.0291 10.9204 12.4109 10.6691 12.6111L8.21 14.57C7.43001 15.19 6.95 16.33 6.95 17.56V20.97H11.24V18.51C11.24 18.2339 11.4639 18.01 11.74 18.01H12.24C12.5161 18.01 12.74 18.2339 12.74 18.51V20.97H17.03V17.56C17.03 16.34 16.55 15.19 15.77 14.57ZM11.25 12.72C11.25 12.4439 11.4739 12.22 11.75 12.22H12.25C12.5261 12.22 12.75 12.4439 12.75 12.72V14.86C12.75 15.1361 12.5261 15.36 12.25 15.36H11.75C11.4739 15.36 11.25 15.1361 11.25 14.86V12.72Z" fill="currentColor"/>
</svg>
