<svg width="24" height="24" viewBox="0 0 24 24" fill="none" xmlns="http://www.w3.org/2000/svg">
<path d="M19.7 11.23C19.98 10.73 20.16 10.15 20.16 9.53V7.27C20.09 5.58 18.69 4.22 16.99 4.22H16.39C14.68 4.22 13.29 5.57 13.22 7.27V9.53C13.22 10.15 13.39 10.72 13.68 11.23C13.06 11.48 12.53 11.89 12.13 12.41C11.73 11.89 11.2 11.47 10.58 11.23C10.86 10.73 11.04 10.15 11.04 9.53V7.27C10.97 5.58 9.57999 4.22 7.86999 4.22H7.26999C5.55999 4.22 4.16999 5.57 4.09999 7.27V9.53C4.09999 10.15 4.26999 10.72 4.55999 11.23C3.21999 11.76 2.25999 13.07 2.25999 14.59V19.13C2.25999 19.4061 2.48385 19.63 2.75999 19.63H21.5C21.7761 19.63 22 19.4061 22 19.13V14.59C22 13.06 21.04 11.76 19.7 11.23ZM14.71 7.93V7.4C14.71 6.48 15.46 5.72 16.39 5.72H16.99C17.91 5.72 18.67 6.47 18.67 7.4V9.53C18.67 10.62 17.78 11.5 16.7 11.5C15.62 11.5 14.73 10.61 14.73 9.53V7.93H14.71ZM5.58999 7.93V7.4C5.58999 6.48 6.33999 5.72 7.26999 5.72H7.86999C8.78999 5.72 9.53999 6.47 9.53999 7.4V9.53C9.53999 10.62 8.64999 11.5 7.56999 11.5C6.49 11.5 5.59999 10.61 5.59999 9.53V7.93H5.58999ZM11.37 18.13H3.75999V14.59C3.75999 13.46 4.64999 12.55 5.75999 12.48C6.28999 12.81 6.91 13 7.56999 13C8.22999 13 8.84999 12.8 9.37999 12.48C10.49 12.55 11.38 13.46 11.38 14.59V18.13H11.37ZM20.49 18.13H12.87V14.59C12.87 13.46 13.76 12.55 14.87 12.48C15.4 12.81 16.02 13 16.68 13C17.34 13 17.96 12.8 18.49 12.48C19.6 12.55 20.49 13.46 20.49 14.59V18.13Z" fill="currentColor"/>
</svg>
