<svg width="24" height="24" viewBox="0 0 24 24" fill="none" xmlns="http://www.w3.org/2000/svg">
  <path
    d="M19.7 11.23C19.98 10.73 20.16 10.15 20.16 9.52997V7.26997C20.09 5.57997 18.69 4.21997 16.99 4.21997H16.39C14.68 4.21997 13.29 5.56997 13.22 7.26997V9.52997C13.22 10.15 13.39 10.72 13.68 11.23C13.06 11.48 12.53 11.89 12.13 12.41C11.73 11.89 11.2 11.47 10.58 11.23C10.86 10.73 11.04 10.15 11.04 9.52997V7.26997C10.97 5.57997 9.58001 4.21997 7.87001 4.21997H7.27001C5.56001 4.21997 4.17001 5.56997 4.10001 7.26997V9.52997C4.10001 10.15 4.27001 10.72 4.56001 11.23C3.22001 11.76 2.26001 13.07 2.26001 14.59V19.63H22V14.59C22 13.06 21.04 11.76 19.7 11.23ZM14.71 7.92997V7.39997C14.71 6.47997 15.46 5.71997 16.39 5.71997H16.99C17.91 5.71997 18.67 6.46997 18.67 7.39997V9.52997C18.67 10.62 17.78 11.5 16.7 11.5C15.62 11.5 14.73 10.61 14.73 9.52997V7.92997H14.71ZM5.59001 7.92997V7.39997C5.59001 6.47997 6.34001 5.71997 7.27001 5.71997H7.87001C8.79001 5.71997 9.54001 6.46997 9.54001 7.39997V9.52997C9.54001 10.62 8.65001 11.5 7.57001 11.5C6.49001 11.5 5.60001 10.61 5.60001 9.52997V7.92997H5.59001ZM11.37 18.13H3.76001V14.59C3.76001 13.46 4.65001 12.55 5.76001 12.48C6.29001 12.81 6.91001 13 7.57001 13C8.23001 13 8.85001 12.8 9.38001 12.48C10.49 12.55 11.38 13.46 11.38 14.59V18.13H11.37ZM20.49 18.13H12.87V14.59C12.87 13.46 13.76 12.55 14.87 12.48C15.4 12.81 16.02 13 16.68 13C17.34 13 17.96 12.8 18.49 12.48C19.6 12.55 20.49 13.46 20.49 14.59V18.13Z"
    fill="currentColor"/>
</svg>
