<svg xmlns="http://www.w3.org/2000/svg" width="24" height="24" fill="none" viewBox="0 0 24 24">
  <path fill="currentColor" fill-rule="evenodd" d="M12.88 2.83c-.61-.28-1.31-.19-1.82.25L6.44 7.02H3.45c-.95 0-1.73.78-1.73 1.73v6.49c0 .95.78 1.73 1.73 1.73h2.99l4.62 3.94c.32.27.71.41 1.1.41.24 0 .49-.05.72-.16.61-.28.99-.88.99-1.55V4.38c0-.67-.38-1.27-.99-1.55Zm-.51 16.79c0 .11-.06.16-.12.19-.05.02-.14.04-.22-.03l-5.04-4.3H3.45c-.13 0-.23-.1-.23-.23V8.76c0-.13.1-.23.23-.23h3.54l5.04-4.3c.08-.07.16-.05.22-.03.05.03.12.08.12.19v15.23ZM16.1 6.71l-1.08 1.04c1.03 1.06 1.62 2.61 1.62 4.25 0 1.64-.59 3.19-1.62 4.25l1.08 1.04c1.3-1.34 2.04-3.27 2.04-5.29s-.74-3.95-2.04-5.29Zm4.67 5.3c0-2.77-1-5.39-2.75-7.2l1.08-1.04c2.01 2.09 3.17 5.09 3.17 8.24 0 3.15-1.15 6.15-3.17 8.24l-1.08-1.04c1.75-1.81 2.75-4.43 2.75-7.2Z" clip-rule="evenodd"/>
</svg>
