<svg width="24" height="24" viewBox="0 0 24 24" fill="none" xmlns="http://www.w3.org/2000/svg">
<path d="M12 2.69C10.07 2.69 8.21 3.3 6.66 4.4L6.93552 2.27694C6.97111 2.00267 6.77727 1.7516 6.50292 1.71661L6.00607 1.65326C5.73212 1.61832 5.48172 1.81212 5.44683 2.08608L4.89316 6.434C4.85828 6.70793 5.05207 6.95828 5.326 6.99316L9.67409 7.54685C9.94799 7.58173 10.1983 7.38799 10.2332 7.1141L10.2967 6.61619C10.3317 6.34219 10.1378 6.09176 9.86379 6.05693L7.37 5.74C8.7 4.75 10.32 4.19 12.01 4.19C16.28 4.19 19.75 7.66 19.75 11.93C19.75 16.2 16.28 19.67 12.01 19.67C7.74 19.67 4.27 16.2 4.27 11.93C4.27 11.497 4.30646 11.0588 4.37936 10.6305C4.42575 10.3579 4.26185 10.0877 3.99302 10.0233L3.50479 9.90621C3.23682 9.84197 2.96589 10.0065 2.91634 10.2776C2.81727 10.8196 2.77 11.3689 2.77 11.93C2.77 17.03 6.92 21.17 12.01 21.17C17.1 21.17 21.25 17.02 21.25 11.93C21.25 6.84 17.1 2.69 12 2.69Z" fill="currentColor"/>
</svg>
