<svg width="24" height="24" viewBox="0 0 24 24" fill="none" xmlns="http://www.w3.org/2000/svg">
<path fill-rule="evenodd" clip-rule="evenodd" d="M10.83 11.72C10.83 11.9962 11.0539 12.22 11.33 12.22H13.46C13.7362 12.22 13.96 11.9962 13.96 11.72V11.22C13.96 10.9439 13.7362 10.72 13.46 10.72H12.33V8.95001C12.33 8.67387 12.1062 8.45001 11.83 8.45001H11.33C11.0539 8.45001 10.83 8.67387 10.83 8.95001V11.72ZM12 7.13C9.87 7.13 8.13 8.87 8.13 11C8.13 13.13 9.87 14.87 12 14.87C14.13 14.87 15.87 13.13 15.87 11C15.87 8.87 14.13 7.13 12 7.13Z" fill="currentColor"/>
<path fill-rule="evenodd" clip-rule="evenodd" d="M20.36 10.58C20.36 14.83 18.06 18.78 14.36 20.87L12.431 21.7937C12.1584 21.9242 11.8415 21.9244 11.5687 21.7944L9.63 20.87C5.93001 18.77 3.63 14.83 3.63 10.58V2.42001H20.36V10.58ZM5.13 10.58V3.92001H18.87V10.58C18.87 14.3 16.86 17.74 13.63 19.57L12 20.49L10.37 19.57C7.14 17.74 5.13 14.29 5.13 10.58Z" fill="currentColor"/>
</svg>
