<svg width="24" height="24" viewBox="0 0 24 24" fill="none" xmlns="http://www.w3.org/2000/svg">
<path d="M21.9 3.28C21.63 3.04 21.25 2.98 20.92 3.12L2.36 11C2.02 11.14 1.8 11.47 1.79 11.84C1.79 12.21 1.99 12.54 2.32 12.7L7.2 15.04V20.18C7.2 20.56 7.43 20.9 7.79 21.04C7.9 21.08 8.01 21.1 8.12 21.1C8.37 21.1 8.62 20.99 8.8 20.8L11.94 17.33L16.55 19.55C16.68 19.61 16.81 19.64 16.95 19.64C17.09 19.64 17.21 19.61 17.33 19.56C17.58 19.45 17.77 19.23 17.84 18.97L22.17 4.24C22.27 3.89 22.17 3.52 21.89 3.28H21.9ZM18.21 5.9L9.38 14.43L4.1 11.89L18.21 5.9ZM8.69 18.68V15.76L10.53 16.64L8.69 18.67V18.68ZM16.6 17.9L10.82 15.12L20.03 6.22L16.6 17.9Z" fill="currentColor"/>
</svg>
