<svg width="24" height="24" viewBox="0 0 24 24" fill="none" xmlns="http://www.w3.org/2000/svg">
<g clip-path="url(#clip0_1_45)">
<path fill-rule="evenodd" clip-rule="evenodd" d="M22.67 9.7C22.9461 9.7 23.17 9.92386 23.17 10.2V13.79C23.17 14.0661 22.9461 14.29 22.67 14.29H21.33C21.09 15.23 20.72 16.13 20.22 16.96L21.1664 17.9064C21.3617 18.1017 21.3617 18.4183 21.1664 18.6136L18.6235 21.1564C18.4283 21.3517 18.1117 21.3517 17.9164 21.1564L16.97 20.21C16.14 20.72 15.25 21.09 14.3 21.32V22.65C14.3 22.9261 14.0761 23.15 13.8 23.15H10.2C9.92384 23.15 9.69999 22.9261 9.69999 22.65V21.32C8.75999 21.09 7.85999 20.71 7.02999 20.21L6.08354 21.1564C5.88828 21.3517 5.5717 21.3517 5.37643 21.1564L2.83354 18.6136C2.63828 18.4183 2.63828 18.1017 2.83354 17.9064L3.77999 16.96C3.26999 16.13 2.89999 15.24 2.66999 14.29H1.32999C1.05384 14.29 0.829987 14.0661 0.829987 13.79V10.19C0.829987 9.91386 1.05384 9.69 1.32999 9.69H2.66999C2.90999 8.75 3.27999 7.85 3.77999 7.02L2.83354 6.07355C2.63828 5.87829 2.63828 5.56171 2.83354 5.36645L5.37643 2.82355C5.57169 2.62829 5.88828 2.62829 6.08354 2.82355L7.02999 3.77C7.85999 3.26 8.74999 2.89 9.69999 2.66V1.33C9.69999 1.05386 9.92384 0.83 10.2 0.83H13.8C14.0761 0.83 14.3 1.05386 14.3 1.33V2.67C15.24 2.9 16.14 3.28 16.97 3.78L17.9164 2.83355C18.1117 2.63829 18.4283 2.63829 18.6235 2.83355L21.1664 5.37645C21.3617 5.57171 21.3617 5.88829 21.1664 6.08355L20.22 7.03C20.73 7.86 21.1 8.75 21.33 9.7H22.67ZM19.99 13.42L20.0268 13.2127C20.0691 12.9739 20.2766 12.8 20.5191 12.8H21.54C21.6118 12.8 21.67 12.7418 21.67 12.67V11.33C21.67 11.2582 21.6118 11.2 21.54 11.2H20.5191C20.2766 11.2 20.0691 11.0261 20.0268 10.7873L19.99 10.58C19.79 9.4 19.34 8.32 18.66 7.35L18.5375 7.17309C18.4 6.97441 18.4242 6.7058 18.5951 6.53493L19.3181 5.81192C19.3688 5.76116 19.3688 5.67884 19.3181 5.62808L18.3719 4.68192C18.3211 4.63116 18.2388 4.63116 18.1881 4.68192L17.4678 5.40219C17.2957 5.57427 17.0247 5.59746 16.8259 5.45712L16.66 5.34C15.69 4.67 14.6 4.22 13.43 4.01L13.2226 3.97321C12.9839 3.93086 12.81 3.72335 12.81 3.4809V2.46C12.81 2.3882 12.7518 2.33 12.68 2.33H11.34C11.2682 2.33 11.21 2.3882 11.21 2.46V3.4809C11.21 3.72335 11.0361 3.93086 10.7973 3.97321L10.59 4.01C9.40999 4.21 8.32999 4.66 7.35999 5.34L7.19407 5.45712C6.99525 5.59746 6.72426 5.57427 6.55217 5.40219L5.83191 4.68192C5.78114 4.63116 5.69883 4.63116 5.64806 4.68192L4.70191 5.62808C4.65114 5.67884 4.65114 5.76116 4.70191 5.81192L5.42492 6.53493C5.59579 6.7058 5.62001 6.97441 5.48246 7.17309L5.35999 7.35C4.68999 8.32 4.23999 9.41 4.02999 10.58L3.9932 10.7873C3.95085 11.0261 3.74334 11.2 3.50089 11.2H2.47999C2.40819 11.2 2.34999 11.2582 2.34999 11.33V12.67C2.34999 12.7418 2.40819 12.8 2.47999 12.8H3.50089C3.74333 12.8 3.95085 12.9739 3.9932 13.2127L4.02999 13.42C4.22999 14.6 4.67999 15.68 5.35999 16.65L5.48246 16.8269C5.62001 17.0256 5.59579 17.2942 5.42492 17.4651L4.70191 18.1881C4.65114 18.2388 4.65114 18.3212 4.70191 18.3719L5.64806 19.3181C5.69883 19.3688 5.78114 19.3688 5.83191 19.3181L6.55217 18.5978C6.72426 18.4257 6.99525 18.4025 7.19407 18.5429L7.35999 18.66C8.32999 19.33 9.41999 19.78 10.59 19.99L10.7973 20.0268C11.0361 20.0691 11.21 20.2767 11.21 20.5191V21.54C11.21 21.6118 11.2682 21.67 11.34 21.67H12.68C12.7518 21.67 12.81 21.6118 12.81 21.54V20.5191C12.81 20.2767 12.9839 20.0691 13.2226 20.0268L13.43 19.99C14.61 19.79 15.69 19.34 16.66 18.66L16.8259 18.5429C17.0247 18.4025 17.2957 18.4257 17.4678 18.5978L18.1881 19.3181C18.2388 19.3688 18.3211 19.3688 18.3719 19.3181L19.3181 18.3719C19.3688 18.3212 19.3688 18.2388 19.3181 18.1881L18.5951 17.4651C18.4242 17.2942 18.4 17.0256 18.5375 16.8269L18.66 16.65C19.33 15.68 19.78 14.59 19.99 13.42ZM8.67999 12C8.67999 10.17 10.17 8.68 12 8.68C13.83 8.68 15.32 10.17 15.32 12C15.32 13.83 13.83 15.32 12 15.32C10.17 15.32 8.67999 13.83 8.67999 12ZM10.18 12C10.18 13 11 13.82 12 13.82C13 13.82 13.82 13 13.82 12C13.82 11 13 10.18 12 10.18C11 10.18 10.18 11 10.18 12Z" fill="currentColor"/>
</g>
<defs>
<clipPath id="clip0_1_45">
<rect width="24" height="24" fill="white"/>
</clipPath>
</defs>
</svg>
