<svg width="24" height="24" viewBox="0 0 24 24" fill="none" xmlns="http://www.w3.org/2000/svg">
<path d="M19.6 11.75C19.6 11.4739 19.3761 11.25 19.1 11.25H4.81L11.3144 4.78355C11.5106 4.58846 11.5111 4.27108 11.3154 4.07541L10.9625 3.72253C10.7677 3.52767 10.4519 3.52721 10.2565 3.72151L2.28663 11.6454C2.09 11.8409 2.09 12.1591 2.28663 12.3546L10.2565 20.2785C10.4519 20.4728 10.7677 20.4723 10.9625 20.2775L11.3154 19.9246C11.5111 19.7289 11.5106 19.4115 11.3144 19.2165L4.81 12.75H19.1C19.3761 12.75 19.6 12.5261 19.6 12.25V11.75Z" fill="currentColor"/>
</svg>
