<svg
  width="24"
  height="24"
  viewBox="0 0 24 24"
  fill="currentColor"
  xmlns="http://www.w3.org/2000/svg"
>
  <path
    d="M10.4699 3.18018V1.68018C17.0199 1.68018 22.3799 7.01018 22.4199 13.5702H20.9199C20.8899 7.84018 16.1999 3.18018 10.4699 3.18018ZM15.6499 14.6602C15.0999 14.1102 14.3099 13.8902 13.5499 14.0802C12.8099 14.2602 12.2399 14.8002 12.0299 15.4902C11.9499 15.7302 11.7799 16.0002 11.4299 15.9202C10.1999 15.6102 8.39989 13.7902 7.97989 12.4402C7.79383 11.8428 8.01055 11.7633 8.19804 11.6945L8.20989 11.6902C8.91989 11.4702 9.45989 10.9002 9.63989 10.1602C9.82989 9.40019 9.60989 8.62019 9.05989 8.06019L6.87989 5.88019C5.96989 5.08019 4.60989 5.09019 3.78989 5.91019L2.31989 7.38019C0.519891 9.27019 2.13989 13.6802 6.08989 17.6302C8.99989 20.5402 12.0399 22.1802 14.2199 22.1802C15.0799 22.1802 15.8099 21.9202 16.3499 21.3902L17.8399 19.9002C18.6399 18.9802 18.6299 17.6302 17.8099 16.8102L15.6599 14.6602H15.6499ZM16.7399 18.8802L15.2799 20.3402C14.2399 21.3802 10.6499 20.0902 7.13989 16.5802C3.66989 13.1102 2.37989 9.50019 3.37989 8.44019L4.83989 6.98019C4.96989 6.85019 5.14989 6.79019 5.32989 6.79019C5.50989 6.79019 5.70989 6.85019 5.84989 6.98019L7.99989 9.13019C8.17989 9.31019 8.24989 9.56019 8.18989 9.81019C8.15989 9.92019 8.06989 10.1702 7.75989 10.2702C6.62989 10.6502 6.16989 11.6502 6.54989 12.8902C7.06989 14.5802 9.15989 16.9002 11.0899 17.3902C12.1499 17.6302 13.0999 17.0602 13.4599 15.9602C13.5499 15.6602 13.8099 15.5702 13.9099 15.5402C14.1599 15.4802 14.4099 15.5502 14.5899 15.7302L16.7399 17.8802C16.9899 18.1302 16.9799 18.6102 16.7399 18.8902V18.8802ZM16.4299 12.8002L17.9299 12.7802C17.8899 9.14018 14.8899 6.18018 11.2499 6.18018V7.68018C14.0699 7.68018 16.3999 9.98018 16.4299 12.8002Z"
  />
</svg>
