<svg width="24" height="24" viewBox="0 0 24 24" fill="none" xmlns="http://www.w3.org/2000/svg">
<path fill-rule="evenodd" clip-rule="evenodd" d="M5.8619 14.2063C5.66744 14.4017 5.35144 14.4029 5.15555 14.2089L4.80576 13.8624C4.60937 13.6678 4.6081 13.3509 4.80291 13.1548L11.6353 6.27706C11.8308 6.08023 12.1492 6.08024 12.3447 6.27706L19.1771 13.1548C19.3719 13.3509 19.3707 13.6678 19.1743 13.8624L18.8245 14.2089C18.6286 14.4029 18.3126 14.4017 18.1181 14.2063L12.74 8.79999V20.86C12.74 21.1361 12.5162 21.36 12.24 21.36H11.74C11.4639 21.36 11.24 21.1361 11.24 20.86V8.79999L5.8619 14.2063ZM21.1 2.47999C21.1 2.75613 20.8762 2.97999 20.6 2.97999H3.39002C3.11388 2.97999 2.89002 2.75613 2.89002 2.47999V1.97999C2.89002 1.70385 3.11388 1.47999 3.39002 1.47999H20.6C20.8762 1.47999 21.1 1.70385 21.1 1.97999V2.47999Z" fill="currentColor"/>
</svg>
