<svg width="24" height="24" viewBox="0 0 24 24" fill="none" xmlns="http://www.w3.org/2000/svg">
<path d="M12 1C13.4112 1 14.7603 1.26585 16 1.75C18.8576 2.86599 21.134 5.14241 22.25 8C22.7341 9.23973 23 10.5888 23 12C23 13.4112 22.7341 14.7603 22.25 16C21.134 18.8576 18.8576 21.134 16 22.25C14.7603 22.7341 13.4112 23 12 23C10.5888 23 9.23973 22.7341 8 22.25C5.14241 21.134 2.86599 18.8576 1.75 16C1.26585 14.7603 1 13.4112 1 12C1 10.7651 1.20383 9.57786 1.5791 8.46973L1.75 8C2.83109 5.23176 5.00091 3.00827 7.7334 1.85742L8 1.75C9.23973 1.26585 10.5888 1 12 1ZM7.39746 17.5947C7.6172 18.6501 7.89968 19.6955 8.24512 20.7256C8.3449 20.7686 8.44438 20.8129 8.5459 20.8525C9.39347 21.1835 10.3013 21.3938 11.25 21.4678V17.7969C9.96427 17.7779 8.67931 17.7115 7.39746 17.5947ZM16.6016 17.5947C15.32 17.7114 14.0354 17.7779 12.75 17.7969V21.4678C13.6987 21.3938 14.6065 21.1835 15.4541 20.8525C15.5553 20.813 15.6544 20.7685 15.7539 20.7256C16.0994 19.6955 16.3818 18.6501 16.6016 17.5947ZM4.03125 17.1729C4.65082 18.125 5.43713 18.9583 6.34766 19.6338C6.14827 18.9046 5.97714 18.1699 5.83594 17.4307C5.23307 17.3569 4.63184 17.2684 4.03125 17.1729ZM19.9678 17.1729C19.3672 17.2683 18.766 17.3569 18.1631 17.4307C18.0219 18.1699 17.8508 18.9046 17.6514 19.6338C18.562 18.9583 19.3481 18.1251 19.9678 17.1729ZM6.83203 12.75C6.86231 13.858 6.96048 14.9644 7.125 16.0635C8.49694 16.2 9.87308 16.2769 11.25 16.2979V12.75H6.83203ZM12.75 16.2979C14.1266 16.2769 15.5024 16.1999 16.874 16.0635C17.0386 14.9644 17.1377 13.8581 17.168 12.75H12.75V16.2979ZM2.53125 12.75C2.6052 13.6987 2.81646 14.6065 3.14746 15.4541C3.15414 15.4712 3.16217 15.4878 3.16895 15.5049C3.97156 15.6512 4.77666 15.7777 5.58398 15.8838C5.44313 14.8434 5.35819 13.7974 5.33105 12.75H2.53125ZM18.6689 12.75C18.6418 13.7974 18.5559 14.8434 18.415 15.8838C19.2224 15.7777 20.0275 15.6512 20.8301 15.5049C20.8369 15.4877 20.8458 15.4713 20.8525 15.4541C21.1835 14.6065 21.3948 13.6987 21.4688 12.75H18.6689ZM18.415 8.11523C18.556 9.15598 18.6418 10.2023 18.6689 11.25H21.4688C21.3948 10.3013 21.1835 9.3935 20.8525 8.5459C20.8457 8.52841 20.837 8.51158 20.8301 8.49414C20.0275 8.34786 19.2223 8.2213 18.415 8.11523ZM12.75 11.25H17.168C17.1377 10.1416 17.0386 9.03494 16.874 7.93555C15.5024 7.79914 14.1266 7.72214 12.75 7.70117V11.25ZM11.25 7.70117C9.87311 7.72214 8.49692 7.79908 7.125 7.93555C6.96039 9.03489 6.86232 10.1416 6.83203 11.25H11.25V7.70117ZM5.58398 8.11523C4.77668 8.22132 3.97154 8.34785 3.16895 8.49414C3.16206 8.51147 3.15425 8.52852 3.14746 8.5459C2.81646 9.3935 2.6052 10.3013 2.53125 11.25H5.33105C5.3582 10.2023 5.44305 9.15594 5.58398 8.11523ZM6.34766 4.36523C5.43715 5.0406 4.65086 5.8741 4.03125 6.82617C4.63183 6.73068 5.23308 6.64213 5.83594 6.56836C5.97716 5.82913 6.14825 5.09437 6.34766 4.36523ZM17.6514 4.36523C17.8508 5.09439 18.0219 5.82911 18.1631 6.56836C18.7659 6.64212 19.3672 6.73069 19.9678 6.82617C19.3481 5.87407 18.562 5.04057 17.6514 4.36523ZM11.25 2.53125C10.3013 2.6052 9.3935 2.81646 8.5459 3.14746C8.44451 3.18706 8.34479 3.23048 8.24512 3.27344C7.89965 4.30346 7.61724 5.34899 7.39746 6.4043C8.67928 6.28756 9.96429 6.22115 11.25 6.20215V2.53125ZM12.75 6.20215C14.0354 6.22115 15.3201 6.28762 16.6016 6.4043C16.3818 5.34895 16.0994 4.3035 15.7539 3.27344C15.6545 3.23061 15.5552 3.18695 15.4541 3.14746C14.6065 2.81646 13.6987 2.6052 12.75 2.53125V6.20215Z" fill="currentColor"/>
</svg>
