<svg xmlns="http://www.w3.org/2000/svg" width="24" height="24" fill="none" viewBox="0 0 24 24">
  <path fill="currentColor" fill-rule="evenodd" d="M18.07 6.22v2.2a2.94 2.94 0 0 1 2.79 2.93v8.71c0 1.63-1.33 2.95-2.95 2.95H6.09c-1.63 0-2.95-1.33-2.95-2.95v-8.71a2.94 2.94 0 0 1 2.79-2.93v-2.2C5.93 2.87 8.66.15 12 .15c3.34 0 6.07 2.72 6.07 6.07Zm-1.5 0c0-2.52-2.05-4.57-4.57-4.57-2.52 0-4.57 2.05-4.57 4.57V8.4h9.14V6.22ZM17.9 21.5c.8 0 1.45-.65 1.45-1.45h.01v-8.71c0-.8-.65-1.45-1.45-1.45H6.09c-.8 0-1.45.65-1.45 1.45v8.71c0 .8.65 1.45 1.45 1.45H17.9ZM11.25 18v-4.61h1.5V18h-1.5Z" clip-rule="evenodd"/>
</svg>
