<svg width="48" height="48" viewBox="0 0 48 48" fill="none" xmlns="http://www.w3.org/2000/svg">
    <g clip-path="url(#clip0_234_10760)">
        <path d="M12.2736 18.4574H7.68359V29.5124H12.2736V18.4574Z" stroke="#333333" stroke-width="1.5" stroke-miterlimit="10"/>
        <path d="M22.7773 38.2273L12.2773 29.5123V18.4573L22.7773 9.77226C22.8442 9.72424 22.923 9.69547 23.005 9.6891C23.0871 9.68272 23.1693 9.69898 23.2428 9.7361C23.3163 9.77322 23.3782 9.82979 23.4217 9.89964C23.4653 9.96949 23.4888 10.05 23.4898 10.1323V37.8823C23.4862 37.9633 23.4607 38.0418 23.4161 38.1096C23.3715 38.1773 23.3094 38.2318 23.2364 38.2671C23.1634 38.3025 23.0822 38.3174 23.0014 38.3104C22.9206 38.3034 22.8432 38.2747 22.7773 38.2273V38.2273Z" stroke="#333333" stroke-width="1.5" stroke-miterlimit="10"/>
        <path d="M23.4863 19.4172C25.0463 19.4172 26.3138 21.4647 26.3138 23.9847C26.3138 26.5047 25.0463 28.5597 23.4863 28.5597" stroke="#333333" stroke-width="1.5" stroke-miterlimit="10"/>
        <path d="M34.2441 31.14C35.5331 28.9931 36.1908 26.5262 36.1416 24.0225C36.1969 21.5153 35.5445 19.0434 34.2591 16.89" stroke="#333333" stroke-width="1.5" stroke-miterlimit="10"/>
        <path d="M30.7109 27.3149C31.3028 26.3202 31.6042 25.1796 31.5809 24.0224C31.6133 22.8475 31.3116 21.6876 30.7109 20.6774" stroke="#333333" stroke-width="1.5" stroke-miterlimit="10"/>
        <path d="M37.1302 11.9773C39.3054 15.6119 40.4079 19.7877 40.3102 24.0223C40.3961 28.2433 39.2886 32.4028 37.1152 36.0223" stroke="#333333" stroke-width="1.5" stroke-miterlimit="10"/>
    </g>
    <defs>
        <clipPath id="clip0_234_10760">
            <rect width="48" height="48" fill="white"/>
        </clipPath>
    </defs>
</svg>
