<svg width="48" height="48" viewBox="0 0 48 48" fill="none" xmlns="http://www.w3.org/2000/svg">
    <g clip-path="url(#clip0_234_10733)">
        <path d="M34.5936 9.74634H13.4061C11.3847 9.74634 9.74609 11.385 9.74609 13.4063V34.5938C9.74609 36.6152 11.3847 38.2538 13.4061 38.2538H34.5936C36.615 38.2538 38.2536 36.6152 38.2536 34.5938V13.4063C38.2536 11.385 36.615 9.74634 34.5936 9.74634Z" stroke="#333333" stroke-width="1.5" stroke-miterlimit="10"/>
        <path d="M21.2715 16.5037H33.2415" stroke="#333333" stroke-width="1.5" stroke-miterlimit="10"/>
        <path d="M14.7617 16.5037H17.4692" stroke="#333333" stroke-width="1.5" stroke-miterlimit="10"/>
        <path d="M14.7617 24.0037H29.4317" stroke="#333333" stroke-width="1.5" stroke-miterlimit="10"/>
        <path d="M25.9062 31.5037H33.2412" stroke="#333333" stroke-width="1.5" stroke-miterlimit="10"/>
        <path d="M14.7617 31.5037H22.0967" stroke="#333333" stroke-width="1.5" stroke-miterlimit="10"/>
        <path d="M19.3679 18.4086C20.42 18.4086 21.2729 17.5557 21.2729 16.5036C21.2729 15.4515 20.42 14.5986 19.3679 14.5986C18.3158 14.5986 17.4629 15.4515 17.4629 16.5036C17.4629 17.5557 18.3158 18.4086 19.3679 18.4086Z" stroke="#333333" stroke-width="1.5" stroke-miterlimit="10"/>
        <path d="M31.3386 25.9086C32.3907 25.9086 33.2436 25.0557 33.2436 24.0036C33.2436 22.9515 32.3907 22.0986 31.3386 22.0986C30.2865 22.0986 29.4336 22.9515 29.4336 24.0036C29.4336 25.0557 30.2865 25.9086 31.3386 25.9086Z" stroke="#333333" stroke-width="1.5" stroke-miterlimit="10"/>
        <path d="M24.0027 33.4086C25.0548 33.4086 25.9077 32.5557 25.9077 31.5036C25.9077 30.4515 25.0548 29.5986 24.0027 29.5986C22.9506 29.5986 22.0977 30.4515 22.0977 31.5036C22.0977 32.5557 22.9506 33.4086 24.0027 33.4086Z" stroke="#333333" stroke-width="1.5" stroke-miterlimit="10"/>
    </g>
    <defs>
        <clipPath id="clip0_234_10733">
            <rect width="48" height="48" fill="white"/>
        </clipPath>
    </defs>
</svg>
