<svg width="48" height="48" viewBox="0 0 48 48" fill="none" xmlns="http://www.w3.org/2000/svg">
    <path d="M29.5743 19.8538V23.3232H18.4255V19.8538L15.2599 16.7255L12.0996 19.8538V24.1705V38H35.9001V24.1705V19.8538L32.7026 16.7255L29.5743 19.8538Z" stroke="#333333" stroke-width="1.5" stroke-miterlimit="10"/>
    <path d="M12.0996 20.3974H18.4255" stroke="#333333" stroke-width="1.5" stroke-miterlimit="10"/>
    <path d="M15.1316 24.9539V22.6037" stroke="#333333" stroke-width="1.5" stroke-miterlimit="10"/>
    <path d="M32.74 24.9539V22.6037" stroke="#333333" stroke-width="1.5" stroke-miterlimit="10"/>
    <path d="M15.1316 30.2725V27.9277" stroke="#333333" stroke-width="1.5" stroke-miterlimit="10"/>
    <path d="M32.74 30.2725V27.9277" stroke="#333333" stroke-width="1.5" stroke-miterlimit="10"/>
    <path d="M15.1316 35.5912V33.241" stroke="#333333" stroke-width="1.5" stroke-miterlimit="10"/>
    <path d="M23.9995 30.2725V27.9277" stroke="#333333" stroke-width="1.5" stroke-miterlimit="10"/>
    <path d="M23.9995 35.5912V33.241" stroke="#333333" stroke-width="1.5" stroke-miterlimit="10"/>
    <path d="M19.7737 30.2725V27.9277" stroke="#333333" stroke-width="1.5" stroke-miterlimit="10"/>
    <path d="M19.7737 35.5912V33.241" stroke="#333333" stroke-width="1.5" stroke-miterlimit="10"/>
    <path d="M28.3696 30.2725V27.9277" stroke="#333333" stroke-width="1.5" stroke-miterlimit="10"/>
    <path d="M28.3696 35.5912V33.241" stroke="#333333" stroke-width="1.5" stroke-miterlimit="10"/>
    <path d="M32.74 35.5912V33.241" stroke="#333333" stroke-width="1.5" stroke-miterlimit="10"/>
    <path d="M29.5745 20.3974H35.9003" stroke="#333333" stroke-width="1.5" stroke-miterlimit="10"/>
    <path d="M29.5797 23.3232H18.4255V25.9399H29.5797V23.3232Z" stroke="#333333" stroke-width="1.5" stroke-miterlimit="10"/>
    <path d="M21.6978 23.3232V10" stroke="#333333" stroke-width="1.5" stroke-miterlimit="10"/>
    <path d="M28.7111 10.2452H21.6978V14.3434H28.7111V10.2452Z" stroke="#333333" stroke-width="1.5" stroke-miterlimit="10"/>
    <path d="M28.7111 10.2452H21.6978V11.6255H28.7111V10.2452Z" stroke="#333333" stroke-width="1.5" stroke-miterlimit="10"/>
</svg>
