<svg width="24" height="24" viewBox="0 0 24 24" fill="none" xmlns="http://www.w3.org/2000/svg">
    <path d="M20.2601 6.19C19.8801 4.27 18.0101 3.01 16.0901 3.38C15.1601 3.56 14.3501 4.1 13.8201 4.88C13.4901 5.37 13.3101 5.92 13.2501 6.48H9.13012L8.18012 2.92C8.03012 2.35 7.59012 1.92 7.02012 1.77C6.45012 1.62 5.86012 1.79 5.44012 2.21L3.87012 3.83L4.95012 4.87L6.52012 3.25C6.52012 3.25 6.57012 3.2 6.64012 3.22C6.71012 3.24 6.72012 3.29 6.73012 3.31L7.57012 6.49H5.19012L7.52012 21.08H14.9201L16.6301 10.41C16.6301 10.41 16.7101 10.42 16.7501 10.42C16.9801 10.42 17.2101 10.4 17.4301 10.35C19.3501 9.98 20.6101 8.11 20.2401 6.18L20.2601 6.19ZM15.5201 7.99L15.2201 9.85H7.26012L6.96012 7.99H15.5201ZM13.6701 19.58H8.82012L7.50012 11.34H14.9801L13.6601 19.58H13.6701ZM17.1701 8.89C17.0801 8.91 16.9901 8.91 16.8901 8.92L17.2801 6.49H14.7601C14.8101 6.22 14.9101 5.96 15.0701 5.73C15.3801 5.27 15.8401 4.97 16.3801 4.86C16.9201 4.76 17.4701 4.86 17.9201 5.17C18.3701 5.48 18.6801 5.94 18.7901 6.48C19.0101 7.59 18.2801 8.67 17.1701 8.89Z" fill="#333333"/>
</svg>
