<svg width="48" height="48" viewBox="0 0 48 48" fill="none" xmlns="http://www.w3.org/2000/svg">
    <g clip-path="url(#clip0_234_9475)">
        <path d="M11.1824 19.5H36.8174" stroke="#333333" stroke-width="1.5" stroke-miterlimit="10"/>
        <path d="M16.7773 16.665V10.8825" stroke="#333333" stroke-width="1.5" stroke-miterlimit="10"/>
        <path d="M31.23 16.665V10.8825" stroke="#333333" stroke-width="1.5" stroke-miterlimit="10"/>
        <path d="M36.8174 14.25H11.1824V37.1175H36.8174V14.25Z" stroke="#333333" stroke-width="1.5" stroke-miterlimit="10"/>
        <path d="M24.255 22.605L25.3425 25.9575C25.3598 26.0116 25.3938 26.0589 25.4396 26.0925C25.4854 26.1262 25.5406 26.1446 25.5975 26.145H29.1225C29.1796 26.1426 29.2359 26.159 29.2829 26.1916C29.3299 26.2241 29.3649 26.2711 29.3827 26.3254C29.4006 26.3798 29.4002 26.4384 29.3816 26.4925C29.3631 26.5465 29.3274 26.5931 29.28 26.625L26.43 28.695C26.3834 28.7277 26.3487 28.7746 26.3311 28.8287C26.3135 28.8828 26.314 28.9412 26.3325 28.995L27.42 32.34C27.4362 32.3937 27.4354 32.4511 27.4175 32.5042C27.3997 32.5574 27.3657 32.6037 27.3204 32.6367C27.275 32.6696 27.2205 32.6877 27.1645 32.6883C27.1084 32.6889 27.0535 32.672 27.0075 32.64L24.1575 30.57C24.1116 30.537 24.0565 30.5193 24 30.5193C23.9435 30.5193 23.8884 30.537 23.8425 30.57L21.0225 32.64C20.9772 32.6744 20.9221 32.6931 20.8653 32.6935C20.8085 32.6938 20.7531 32.6757 20.7075 32.6419C20.6618 32.6081 20.6284 32.5604 20.6121 32.506C20.5959 32.4515 20.5978 32.3933 20.6175 32.34L21.705 28.995C21.7222 28.9411 21.7221 28.8831 21.7046 28.8293C21.6871 28.7755 21.6531 28.7285 21.6075 28.695L18.7575 26.625C18.7101 26.5931 18.6744 26.5465 18.6558 26.4925C18.6373 26.4384 18.6369 26.3798 18.6547 26.3254C18.6725 26.2711 18.7076 26.2241 18.7545 26.1916C18.8015 26.159 18.8579 26.1426 18.915 26.145H22.44C22.4961 26.1454 22.5508 26.1272 22.5955 26.0933C22.6403 26.0594 22.6726 26.0116 22.6875 25.9575L23.775 22.605C23.7977 22.5609 23.8321 22.524 23.8744 22.4982C23.9168 22.4724 23.9654 22.4587 24.015 22.4587C24.0645 22.4587 24.1132 22.4724 24.1555 22.4982C24.1978 22.524 24.2323 22.5609 24.255 22.605Z" stroke="#333333" stroke-width="1.5" stroke-miterlimit="10"/>
    </g>
    <defs>
        <clipPath id="clip0_234_9475">
            <rect width="48" height="48" fill="white"/>
        </clipPath>
    </defs>
</svg>
