<svg width="48" height="48" viewBox="0 0 48 48" fill="none" xmlns="http://www.w3.org/2000/svg">
    <path d="M29.0102 18.7558V9.99998H18.9902V18.7558H14.7839C14.6363 18.7535 14.4911 18.7932 14.3651 18.8701C14.2391 18.9471 14.1375 19.0582 14.0721 19.1906C14.0068 19.323 13.9803 19.4712 13.9958 19.618C14.0112 19.7648 14.0681 19.9042 14.1596 20.0201L22.6736 31.2497C22.8294 31.4536 23.0302 31.6188 23.2603 31.7325C23.4904 31.8462 23.7436 31.9053 24.0002 31.9053C24.2568 31.9053 24.51 31.8462 24.7401 31.7325C24.9702 31.6188 25.171 31.4536 25.3268 31.2497L33.8408 20.0201C33.9323 19.9042 33.9892 19.7648 34.0046 19.618C34.0201 19.4712 33.9936 19.323 33.9283 19.1906C33.8629 19.0582 33.7613 18.9471 33.6353 18.8701C33.5093 18.7932 33.3641 18.7535 33.2165 18.7558H29.0102Z" stroke="#333333" stroke-width="1.5" stroke-miterlimit="10"/>
    <path d="M38.3669 27.223V38H9.6333V27.223" stroke="#333333" stroke-width="1.5" stroke-miterlimit="10"/>
</svg>
