<svg width="24" height="24" viewBox="0 0 24 24" fill="none" xmlns="http://www.w3.org/2000/svg">
    <path d="M21.2502 18.15L12.7502 10.62V9.05C12.7502 8.55 13.1602 8.15 13.6502 8.15C14.9802 8.15 16.0502 7.07 16.0502 5.75V5.5C16.0502 4.17 14.9702 3.1 13.6502 3.1H10.8402V4.6H13.6502C14.1502 4.6 14.5502 5.01 14.5502 5.5V5.75C14.5502 6.25 14.1402 6.65 13.6502 6.65C12.3202 6.65 11.2502 7.73 11.2502 9.05V10.62L2.75018 18.15C2.34018 18.51 2.20018 19.08 2.39018 19.6C2.59018 20.12 3.07018 20.45 3.62018 20.45H20.3702C20.9202 20.45 21.4002 20.12 21.6002 19.6C21.8002 19.08 21.6602 18.52 21.2402 18.15H21.2502ZM4.12018 18.95L12.0102 11.96L19.9002 18.95H4.11018H4.12018Z" fill="#333333"/>
</svg>
