<svg width="48" height="48" viewBox="0 0 48 48" fill="none" xmlns="http://www.w3.org/2000/svg">
    <g clip-path="url(#clip0_234_9467)">
        <path d="M25.9423 27.7775H8.69232C8.03124 27.7775 7.39713 27.5154 6.92897 27.0486C6.46081 26.5819 6.19681 25.9486 6.19482 25.2875V11.7875C6.21042 11.1381 6.47837 10.5204 6.94183 10.0654C7.40529 9.6103 8.02781 9.35369 8.67732 9.34998H34.1773C34.832 9.35187 35.4597 9.61071 35.9254 10.0708C36.3911 10.5309 36.6575 11.1554 36.6673 11.81V22.9325" stroke="#333333" stroke-width="1.5" stroke-miterlimit="10"/>
        <path d="M6.98242 9.97997L21.4124 21.3725L35.8799 10.04" stroke="#333333" stroke-width="1.5" stroke-miterlimit="10"/>
        <path d="M36.6672 26.48V31.73C36.6672 32.0697 36.7345 32.4061 36.8652 32.7196C36.9958 33.0332 37.1873 33.3178 37.4286 33.557C37.6699 33.7962 37.9561 33.9852 38.2708 34.1131C38.5856 34.2411 38.9225 34.3054 39.2622 34.3025V34.3025C39.9393 34.2946 40.5859 34.0201 41.0619 33.5385C41.5378 33.0569 41.8048 32.4071 41.8047 31.73V30.725C41.8271 28.6232 41.0529 26.5909 39.6379 25.0367C38.2228 23.4825 36.2719 22.5217 34.1772 22.3475C32.9484 22.2669 31.7173 22.4655 30.5762 22.9284C29.435 23.3913 28.4135 24.1064 27.588 25.0203C26.7626 25.9341 26.1546 27.0229 25.8098 28.2051C25.465 29.3873 25.3922 30.6322 25.5969 31.8465C25.8016 33.0608 26.2785 34.213 26.9919 35.2168C27.7052 36.2206 28.6365 37.0499 29.7159 37.6426C30.7953 38.2354 31.9949 38.5761 33.2247 38.6392C34.4546 38.7024 35.6827 38.4864 36.8172 38.0075" stroke="#333333" stroke-width="1.5" stroke-miterlimit="10"/>
        <path d="M33.3448 33.8675C35.1756 33.8675 36.6598 32.3833 36.6598 30.5525C36.6598 28.7216 35.1756 27.2375 33.3448 27.2375C31.514 27.2375 30.0298 28.7216 30.0298 30.5525C30.0298 32.3833 31.514 33.8675 33.3448 33.8675Z" stroke="#333333" stroke-width="1.5" stroke-miterlimit="10"/>
    </g>
    <defs>
        <clipPath id="clip0_234_9467">
            <rect width="48" height="48" fill="white"/>
        </clipPath>
    </defs>
</svg>
