<svg width="48" height="48" viewBox="0 0 48 48" fill="none" xmlns="http://www.w3.org/2000/svg">
    <path fill-rule="evenodd" clip-rule="evenodd" d="M34.2698 6.4H30.4298C25.4998 6.4 21.4898 10.41 21.4898 15.34V29.31H14.2798L14.8998 24.97C15.6198 24.86 16.3198 24.53 16.8798 23.97C17.5598 23.29 17.9298 22.39 17.9298 21.43C17.9298 20.7 17.7198 20.01 17.3198 19.42C17.7198 18.83 17.9298 18.14 17.9298 17.41C17.9298 16.45 17.5598 15.55 16.8798 14.87C16.1998 14.19 15.2998 13.82 14.3398 13.82C13.6098 13.82 12.9198 14.03 12.3298 14.43C10.9598 13.5 8.96982 13.68 7.77982 14.87C6.53982 16.11 6.39982 18.02 7.33982 19.42C6.39982 20.82 6.53982 22.74 7.77982 23.97C8.25982 24.45 8.84982 24.76 9.46982 24.91L10.0998 29.31H3.06982V40.33H43.2098V15.34C43.2098 10.41 39.1998 6.4 34.2698 6.4ZM11.5898 29.21L10.9798 24.95C11.4498 24.86 11.9098 24.69 12.3198 24.41C12.6498 24.63 13.0198 24.79 13.3898 24.89L12.7698 29.21H11.5898ZM8.82982 19.95L9.35982 19.42L8.82982 18.89C8.00982 18.07 8.00982 16.75 8.82982 15.93C9.22982 15.53 9.74982 15.32 10.3098 15.32C10.8698 15.32 11.3898 15.54 11.7898 15.93L12.3198 16.46L12.8498 15.93C13.2498 15.53 13.7698 15.32 14.3298 15.32C14.8898 15.32 15.4098 15.54 15.8098 15.93C16.2098 16.33 16.4198 16.85 16.4198 17.41C16.4198 17.97 16.1998 18.49 15.8098 18.89L15.2798 19.42L15.8098 19.95C16.2098 20.35 16.4198 20.87 16.4198 21.43C16.4198 21.99 16.1998 22.51 15.8098 22.91C14.9898 23.73 13.6698 23.73 12.8498 22.91L12.3198 22.38L11.7898 22.91C10.9698 23.73 9.64982 23.73 8.82982 22.91C8.00982 22.09 8.00982 20.76 8.82982 19.95ZM22.9798 15.34C22.9798 11.24 26.3198 7.9 30.4198 7.9C34.5198 7.9 37.8598 11.24 37.8598 15.34V29.31H22.9798V15.34ZM17.0198 30.81V33.39H4.56982V30.81H17.0198ZM4.56982 34.89H17.0198V38.83H4.56982V34.89ZM18.5198 38.83V34.89H41.7098V38.83H18.5198ZM41.7098 33.39H18.5198V30.81H41.7098V33.39ZM39.3598 29.31V15.34C39.3598 12.31 37.8398 9.63 35.5298 8.02C39.0298 8.62 41.7098 11.67 41.7098 15.34V29.31H39.3598ZM34.2701 15.05H26.6401V16.55H34.2701V15.05ZM28.1802 19.27H32.7302V20.77H28.1802V19.27Z" fill="black"/>
</svg>
