<svg width="48" height="48" viewBox="0 0 48 48" fill="none" xmlns="http://www.w3.org/2000/svg">
    <path d="M30.8047 12C28.9878 12.0376 27.258 12.7855 25.986 14.0833C24.714 15.3811 24.001 17.1256 23.9998 18.9428C23.9984 17.1205 23.2813 15.3716 22.0029 14.073C20.7244 12.7743 18.987 12.0299 17.1649 12C16.2309 12.0008 15.3063 12.186 14.4442 12.545C13.582 12.9041 12.7992 13.4299 12.1407 14.0922C11.4823 14.7546 10.9611 15.5405 10.6072 16.4047C10.2532 17.269 10.0735 18.1947 10.0782 19.1287V18.9428C10.0782 23.5054 11.9908 25.0102 15.3543 28.0979L23.9998 36L32.6093 28.0799C35.9728 24.9923 37.8854 23.4874 37.8854 18.9248V19.1287C37.8901 18.1952 37.7105 17.27 37.357 16.4061C37.0034 15.5422 36.4828 14.7566 35.825 14.0943C35.1671 13.4321 34.3851 12.9062 33.5236 12.5468C32.6621 12.1874 31.7381 12.0016 30.8047 12V12Z" stroke="#333333" stroke-width="1.5" stroke-miterlimit="10"/>
    <path d="M7.72827 24.7284H16.2719L19.7792 19.5543L23.9821 26.623L28.3408 21.269L30.3253 24.5905H40.2719" stroke="#333333" stroke-width="1.5" stroke-miterlimit="10"/>
</svg>
