<svg width="48" height="48" viewBox="0 0 48 48" fill="none" xmlns="http://www.w3.org/2000/svg">
    <path d="M24.0003 17.4121C24.7335 17.4133 25.4506 17.197 26.0609 16.7905C26.6712 16.384 27.1471 15.8056 27.4286 15.1286C27.71 14.4515 27.7843 13.7061 27.642 12.9868C27.4997 12.2675 27.1472 11.6066 26.6291 11.0876C26.1111 10.5687 25.4507 10.2152 24.7316 10.0717C24.0126 9.92817 23.2671 10.0012 22.5895 10.2815C21.912 10.5618 21.3328 11.0369 20.9253 11.6465C20.5178 12.256 20.3003 12.9728 20.3003 13.7061C20.2995 14.1925 20.3946 14.6743 20.5802 15.1239C20.7658 15.5735 21.0382 15.9821 21.3818 16.3263C21.7255 16.6705 22.1336 16.9436 22.5829 17.1299C23.0322 17.3162 23.5139 17.4121 24.0003 17.4121V17.4121Z" stroke="#333333" stroke-width="1.5" stroke-miterlimit="10"/>
    <path d="M27.2908 34.8129V23.8351V20.648V20.6297H20.7091V20.648H17.5769V23.8351H20.7091V34.8129H17.5769V38H20.7091H27.2908H30.423V34.8129H27.2908Z" stroke="#333333" stroke-width="1.5" stroke-miterlimit="10"/>
</svg>
