<svg width="48" height="48" viewBox="0 0 48 48" fill="none" xmlns="http://www.w3.org/2000/svg">
    <path d="M14.0254 36.4425C14.4771 36.4425 14.9244 36.3534 15.3416 36.1803C15.7589 36.0072 16.1379 35.7535 16.457 35.4338C16.776 35.114 17.0289 34.7344 17.2011 34.3168C17.3733 33.8992 17.4614 33.4517 17.4604 33V11.5575H37.4104V33C37.4104 33.911 37.0485 34.7847 36.4043 35.4289C35.7601 36.0731 34.8864 36.435 33.9754 36.435H14.0254" stroke="#333333" stroke-width="1.5"/>
    <path d="M14.0249 36.4425C13.5731 36.4425 13.1258 36.3534 12.7086 36.1803C12.2914 36.0073 11.9124 35.7536 11.5933 35.4338C11.2742 35.114 11.0214 34.7345 10.8492 34.3169C10.677 33.8992 10.5889 33.4518 10.5899 33V13.035" stroke="#333333" stroke-width="1.5"/>
    <path d="M14.0254 13.035V33.4275" stroke="#333333" stroke-width="1.5"/>
    <path d="M21.1953 16.05H26.7003" stroke="#333333" stroke-width="1.5"/>
    <path d="M21.1953 19.08H31.5153" stroke="#333333" stroke-width="1.5"/>
    <path d="M33.3302 24.1801H21.8027V32.4751H33.3302V24.1801Z" stroke="#333333" stroke-width="1.5"/>
</svg>
