<svg width="48" height="48" viewBox="0 0 48 48" fill="none" xmlns="http://www.w3.org/2000/svg">
    <g clip-path="url(#clip0_234_9460)">
        <path d="M23.9996 8.22375C25.2992 8.22317 26.5783 8.54732 27.7208 9.16674C28.8633 9.78617 29.8329 10.6812 30.5415 11.7706C31.2501 12.86 31.6753 14.1092 31.7785 15.4047C31.8816 16.7002 31.6594 18.001 31.1321 19.1888L23.9996 35.2762L16.8671 19.2112C16.3348 18.0224 16.1087 16.7193 16.2094 15.4206C16.3101 14.122 16.7344 12.8693 17.4436 11.7768C18.1528 10.6842 19.1243 9.78671 20.2695 9.16608C21.4147 8.54546 22.697 8.22149 23.9996 8.22375V8.22375Z" stroke="#333333" stroke-width="1.5" stroke-miterlimit="10"/>
        <path d="M23.9996 18.8813C25.5902 18.8813 26.8796 17.5918 26.8796 16.0013C26.8796 14.4107 25.5902 13.1213 23.9996 13.1213C22.409 13.1213 21.1196 14.4107 21.1196 16.0013C21.1196 17.5918 22.409 18.8813 23.9996 18.8813Z" stroke="#333333" stroke-width="1.5" stroke-miterlimit="10"/>
        <path d="M25.9719 30.8438C31.8894 31.1812 36.4119 33.0412 36.4119 35.2762C36.4119 37.7587 30.8544 39.7762 23.9994 39.7762C17.1444 39.7762 11.5869 37.7587 11.5869 35.2762C11.5869 33.0262 16.0869 31.1887 22.0044 30.8438" stroke="#333333" stroke-width="1.5" stroke-miterlimit="10"/>
    </g>
    <defs>
        <clipPath id="clip0_234_9460">
            <rect width="48" height="48" fill="white"/>
        </clipPath>
    </defs>
</svg>
