<svg width="48" height="48" viewBox="0 0 48 48" fill="none" xmlns="http://www.w3.org/2000/svg">
    <path d="M33.98 22.37C34.21 21.83 34.16 20.76 33.18 19.77C32.2 20.75 32.2 21.83 32.38 22.37C31.78 22.06 31.4 21.44 31.4 20.76C31.4 19.78 31.8 18.53 33.19 16.29C34.58 18.53 34.98 19.78 34.98 20.76C34.98 21.44 34.6 22.06 33.99 22.37M43.3 9.8V8.9H33.19C28.38 8.9 24.48 12.8 24.49 17.61C24.49 17.61 24.49 17.61 24.49 17.62V31.72H23.58V17.62C23.59 12.81 19.7 8.9 14.89 8.89C14.88 8.89 14.87 8.89 14.86 8.89H4.71997V9.79C5.79997 11.4 6.05997 12.97 6.05997 16.06V32.84C6.05997 36.15 5.78997 37.45 4.71997 39.11V39.99H9.54997C12.21 40 14.37 37.85 14.38 35.2C14.38 35.2 14.38 35.18 14.38 35.17V21.09C13.22 22.22 12.11 22.48 11.36 22.34C11.61 21.61 12.4 20.77 13.97 20.34C12.41 19.9 11.63 19.07 11.38 18.34C12.13 18.19 13.25 18.46 14.42 19.6C13.99 17.99 14.32 16.87 14.83 16.29C15.34 16.88 15.67 17.99 15.24 19.6C16.42 18.46 17.51 18.19 18.28 18.34C18.03 19.07 17.25 19.9 15.69 20.34C17.26 20.78 18.05 21.61 18.3 22.34C17.55 22.49 16.44 22.22 15.28 21.09V31.28C15.18 36.1 19.01 40.08 23.83 40.18C28.65 40.28 32.63 36.45 32.73 31.63C32.73 31.51 32.73 31.39 32.73 31.27V22.99H33.62V35.16C33.62 37.82 35.77 39.98 38.43 39.98C38.44 39.98 38.45 39.98 38.47 39.98H43.3V39.1C42.22 37.44 41.96 36.15 41.96 32.83V16.05C41.96 12.96 42.23 11.39 43.3 9.78" fill="black"/>
</svg>
