<svg width="48" height="48" viewBox="0 0 48 48" fill="none" xmlns="http://www.w3.org/2000/svg">
    <path d="M29.2099 20.9C29.3999 20.6 29.5399 20.27 29.6299 19.91L32.7799 18.73V11.47L35.9699 10.29L35.4499 8.88L31.2799 10.43V17.7L29.6099 18.33C29.2399 16.95 27.9899 15.93 26.4899 15.93C25.8499 15.93 25.2599 16.12 24.7499 16.44V7.85H23.2499V16.43C22.7499 16.11 22.1499 15.91 21.5099 15.91C20.0099 15.91 18.7599 16.93 18.3899 18.31L16.7199 17.68V10.41L12.5499 8.86L12.0299 10.27L15.2199 11.45V18.71L18.3699 19.89C18.4599 20.25 18.5999 20.58 18.7899 20.88H5.62988V21.63C5.62988 24.85 9.35988 27.38 14.1199 27.38C15.5699 27.38 16.9299 27.14 18.1099 26.72L15.2199 30.56V35.67L11.8399 38.26L12.7499 39.45L16.7199 36.41V31.06L20.6599 25.82V37.5C20.6599 39.34 22.1599 40.84 23.9999 40.84C25.8399 40.84 27.3299 39.34 27.3299 37.5V25.82L31.2699 31.06V36.41L35.2399 39.45L36.1499 38.26L32.7699 35.67V30.56L29.8799 26.72C31.0599 27.14 32.4199 27.38 33.8699 27.38C38.6299 27.38 42.3599 24.86 42.3599 21.63V20.88H29.1999L29.2099 20.9ZM26.4799 17.41C27.4399 17.41 28.2199 18.19 28.2199 19.15C28.2199 20.11 27.4399 20.89 26.4799 20.89C25.5199 20.89 24.7899 20.15 24.7399 19.22V19.16C24.7399 19.16 24.7399 19.15 24.7399 19.14C24.7399 19.13 24.7399 19.13 24.7399 19.12V19.06C24.7799 18.14 25.5399 17.39 26.4799 17.39V17.41ZM19.7599 19.15C19.7599 18.19 20.5399 17.41 21.4999 17.41C22.4599 17.41 23.2099 18.17 23.2399 19.11C23.2399 19.13 23.2399 19.14 23.2399 19.16C23.2399 19.18 23.2399 19.19 23.2399 19.21C23.2099 20.15 22.4499 20.91 21.4999 20.91C20.5499 20.91 19.7599 20.13 19.7599 19.17V19.15ZM7.22988 22.39H20.9899C20.3899 24.35 17.4799 25.89 14.1099 25.89C10.7399 25.89 7.82988 24.35 7.22988 22.39ZM25.8299 37.51C25.8299 38.52 25.0099 39.35 23.9999 39.35C22.9899 39.35 22.1599 38.53 22.1599 37.51V24.22C22.1599 23.21 22.9799 22.38 23.9999 22.38C25.0199 22.38 25.8299 23.2 25.8299 24.22V37.51ZM33.8799 25.88C30.5099 25.88 27.5999 24.34 26.9999 22.38H40.7599C40.1599 24.34 37.2499 25.88 33.8799 25.88Z" fill="black"/>
</svg>
