<svg width="48" height="48" viewBox="0 0 48 48" fill="none" xmlns="http://www.w3.org/2000/svg">
    <path d="M24.9348 25.807C29.2982 25.807 32.8355 22.2698 32.8355 17.9064C32.8355 13.543 29.2982 10.0057 24.9348 10.0057C20.5714 10.0057 17.0342 13.543 17.0342 17.9064C17.0342 22.2698 20.5714 25.807 24.9348 25.807Z" stroke="#333333" stroke-width="1.5" stroke-miterlimit="10"/>
    <path d="M17.0288 17.9063H32.8358" stroke="#333333" stroke-width="1.5" stroke-miterlimit="10"/>
    <path d="M24.6383 9.99998C22.7823 12.2154 21.7651 15.0133 21.7651 17.9035C21.7651 20.7936 22.7823 23.5916 24.6383 25.807V25.807" stroke="#333333" stroke-width="1.5" stroke-miterlimit="10"/>
    <path d="M25.2261 25.807C27.0842 23.5926 28.1027 20.7942 28.1027 17.9035C28.1027 15.0127 27.0842 12.2144 25.2261 9.99998V9.99998" stroke="#333333" stroke-width="1.5" stroke-miterlimit="10"/>
    <path d="M18.8467 12.9014C20.7132 13.9197 22.8055 14.4533 24.9318 14.4533C27.058 14.4533 29.1503 13.9197 31.0169 12.9014V12.9014" stroke="#333333" stroke-width="1.5" stroke-miterlimit="10"/>
    <path d="M31.0171 22.9055H30.9886C29.1225 21.8857 27.03 21.3512 24.9035 21.3512C22.7769 21.3512 20.6844 21.8857 18.8184 22.9055" stroke="#333333" stroke-width="1.5" stroke-miterlimit="10"/>
    <path d="M24.4789 29.4438L17.2395 27.101C16.8181 26.9879 16.374 26.9913 15.9544 27.1107C15.5348 27.2302 15.1554 27.4613 14.8568 27.7793L12.5767 30.105V38L16.9944 36.5635C17.5905 36.3014 18.2463 36.2049 18.8926 36.2842L23.9773 36.8998C24.8364 37.0122 25.7071 36.8097 26.4285 36.3298L34.7053 30.7777C35.0559 30.5439 35.3012 30.1822 35.3885 29.7699C35.4759 29.3576 35.3984 28.9276 35.1727 28.5717V28.5717C35.0581 28.3921 34.9091 28.2369 34.7344 28.1151C34.5596 27.9932 34.3625 27.907 34.1544 27.8615C33.9463 27.8159 33.7312 27.8119 33.5215 27.8497C33.3119 27.8874 33.1117 27.9662 32.9325 28.0814L26.3885 32.2655" stroke="#333333" stroke-width="1.5" stroke-miterlimit="10"/>
    <path d="M18.7842 31.0855L24.5985 32.864C25.0022 32.9842 25.4368 32.9418 25.8096 32.7458C26.1824 32.5498 26.4638 32.2158 26.5936 31.8152V31.8152C26.6599 31.6127 26.6854 31.3991 26.6684 31.1868C26.6515 30.9744 26.5925 30.7676 26.4949 30.5782C26.3973 30.3889 26.2631 30.2208 26.0999 30.0838C25.9368 29.9468 25.7481 29.8436 25.5448 29.7801L24.4845 29.4324" stroke="#333333" stroke-width="1.5" stroke-miterlimit="10"/>
</svg>
