<svg width="24" height="24" viewBox="0 0 24 24" fill="none" xmlns="http://www.w3.org/2000/svg">
    <path d="M20.66 19.96C18.78 19.96 18.18 18.91 17 16.55L16.9 16.36C15.77 14.1 15.08 13.15 13.63 13.08H13.47V7.75H15.59L8.70004 1.58L1.79004 7.75H3.91004V21.5H5.41004V15.17H7.94004V21.5H9.44004V15.17H11.97V21.5H13.47V14.58H13.59C14.07 14.6 14.43 14.78 15.56 17.03L15.66 17.22C16.79 19.5 17.77 21.46 20.66 21.46H21.57V19.96H20.66ZM8.70004 3.59L11.67 6.24H5.72004L8.69004 3.59H8.70004ZM5.42004 7.74H11.99V13.66H5.42004V7.74Z" fill="#333333"/>
    <path d="M8.69982 9.57C8.07982 9.57 7.56982 10.08 7.56982 10.7C7.56982 11.32 8.07982 11.83 8.69982 11.83C9.31982 11.83 9.82982 11.32 9.82982 10.7C9.82982 10.08 9.31982 9.57 8.69982 9.57Z" fill="#333333"/>
</svg>
