<svg width="48" height="48" viewBox="0 0 48 48" fill="none" xmlns="http://www.w3.org/2000/svg">
    <path d="M39.6901 26.3212V21.6562H37.1401C36.8042 19.7493 36.0541 17.9392 34.9426 16.3537L36.7426 14.5537L33.4426 11.2387L31.6426 13.0387C30.0579 11.9271 28.2473 11.1793 26.3401 10.8487V8.31372H21.6751V10.8637C19.7678 11.1943 17.9572 11.9421 16.3726 13.0537L14.5726 11.2387L11.2576 14.5537L13.0576 16.3537C11.9461 17.9392 11.1959 19.7493 10.8601 21.6562H8.31006V26.3212H10.8601C11.1946 28.2309 11.9448 30.0436 13.0576 31.6312L11.2576 33.4312L14.5726 36.7387L16.3726 34.9387C17.9568 36.0526 19.7674 36.803 21.6751 37.1362V39.6862H26.3401V37.1362C28.2478 36.803 30.0584 36.0526 31.6426 34.9387L33.4426 36.7387L36.7576 33.4312L34.9576 31.6312C36.0703 30.0436 36.8205 28.2309 37.1551 26.3212H39.6901Z" stroke="#333333" stroke-width="1.5"/>
    <path d="M24.0076 27.8963C26.1656 27.8963 27.9151 26.1469 27.9151 23.9888C27.9151 21.8307 26.1656 20.0813 24.0076 20.0813C21.8495 20.0813 20.1001 21.8307 20.1001 23.9888C20.1001 26.1469 21.8495 27.8963 24.0076 27.8963Z" stroke="#333333" stroke-width="1.5"/>
</svg>
