<svg width="24" height="24" viewBox="0 0 24 24" fill="none" xmlns="http://www.w3.org/2000/svg">
    <path d="M16.6198 6.61C16.2698 4.31 14.2898 2.53 11.8898 2.53H8.81977C6.16976 2.53 4.00977 4.69 4.00977 7.34V20.28H5.50977V7.34C5.50977 5.52 6.98977 4.03 8.81977 4.03H11.8898C13.4698 4.03 14.7898 5.14 15.1198 6.63C12.8998 6.83 11.1398 8.68 11.1398 10.95V11.7H20.7598V10.95C20.7598 8.62 18.9198 6.73 16.6298 6.61H16.6198ZM12.7298 10.2C13.0598 8.99 14.1698 8.09 15.4898 8.09H16.3898C17.7098 8.09 18.8198 8.98 19.1498 10.2H12.7298Z" fill="#333333"/>
    <path d="M14.79 13.65H13.29V15.85H14.79V13.65Z" fill="#333333"/>
    <path d="M18.5898 13.65H17.0898V15.85H18.5898V13.65Z" fill="#333333"/>
    <path d="M14.79 18.07H13.29V20.27H14.79V18.07Z" fill="#333333"/>
    <path d="M18.5898 18.07H17.0898V20.27H18.5898V18.07Z" fill="#333333"/>
</svg>
