<svg width="48" height="48" viewBox="0 0 48 48" fill="none" xmlns="http://www.w3.org/2000/svg">
    <g clip-path="url(#clip0_234_9518)">
        <path d="M16.5482 25.1041C17.2982 27.4291 20.2607 30.5566 22.5482 31.1041C23.0707 31.2126 23.6147 31.1319 24.0832 30.8764C24.5517 30.6209 24.9141 30.2072 25.1057 29.7091C25.2231 29.358 25.4291 29.043 25.7037 28.7947C25.9784 28.5465 26.3125 28.3732 26.6737 28.2918C27.0349 28.2104 27.411 28.2235 27.7656 28.3299C28.1203 28.4362 28.4415 28.6323 28.6982 28.8991L31.9457 32.1466C32.3362 32.5738 32.5528 33.1316 32.5528 33.7104C32.5528 34.2891 32.3362 34.847 31.9457 35.2741L29.7707 37.5166C27.4532 39.8416 21.3032 37.2841 15.8507 31.8316C10.3982 26.3791 7.96068 20.2366 10.1657 17.9116L12.3707 15.7066C12.7991 15.3156 13.3582 15.0988 13.9382 15.0988C14.5182 15.0988 15.0773 15.3156 15.5057 15.7066L18.7532 18.9541C19.0268 19.2118 19.2288 19.5361 19.3392 19.8954C19.4496 20.2546 19.4647 20.6364 19.383 21.0033C19.3013 21.3702 19.1256 21.7095 18.8732 21.9879C18.6208 22.2664 18.3003 22.4744 17.9432 22.5916C17.678 22.6504 17.4284 22.7649 17.2107 22.9273C16.993 23.0898 16.8123 23.2966 16.6804 23.534C16.5486 23.7715 16.4686 24.0342 16.4458 24.3049C16.423 24.5755 16.4579 24.8479 16.5482 25.1041V25.1041Z" stroke="#333333" stroke-width="1.5" stroke-miterlimit="10"/>
        <path d="M21.6934 17.6041C24.0519 17.6137 26.3124 18.5487 27.9885 20.208C29.6647 21.8673 30.6225 24.1183 30.6559 26.4766" stroke="#333333" stroke-width="1.5" stroke-miterlimit="10"/>
        <path d="M21.6934 13.7341C25.0826 13.736 28.3338 15.077 30.7388 17.4652C33.1438 19.8533 34.5076 23.095 34.5334 26.4841" stroke="#333333" stroke-width="1.5" stroke-miterlimit="10"/>
        <path d="M21.6934 9.62411C26.1719 9.62404 30.4685 11.3964 33.6445 14.5541C36.8204 17.7118 38.6176 21.9981 38.6434 26.4766" stroke="#333333" stroke-width="1.5" stroke-miterlimit="10"/>
    </g>
    <defs>
        <clipPath id="clip0_234_9518">
            <rect width="48" height="48" fill="white"/>
        </clipPath>
    </defs>
</svg>
