<svg width="48" height="48" viewBox="0 0 48 48" fill="none" xmlns="http://www.w3.org/2000/svg">
    <path d="M18.4939 20.6399H29.4814C29.8793 20.6399 30.2608 20.7979 30.5421 21.0792C30.8234 21.3605 30.9814 21.7421 30.9814 22.1399V23.9624H17.0239V22.1099C17.0316 21.7224 17.1889 21.353 17.463 21.0789C17.737 20.8049 18.1065 20.6476 18.4939 20.6399Z" stroke="#333333" stroke-width="1.5"/>
    <path d="M23.9087 23.9324V36.6974" stroke="#333333" stroke-width="1.5"/>
    <path d="M19.6187 36.6974H28.2062" stroke="#333333" stroke-width="1.5"/>
    <path d="M22.1084 14.595C22.4784 14.595 22.8332 14.7419 23.0948 15.0036C23.3564 15.2652 23.5034 15.62 23.5034 15.99V20.6325H20.7134V15.99C20.7134 15.62 20.8604 15.2652 21.122 15.0036C21.3836 14.7419 21.7384 14.595 22.1084 14.595V14.595Z" stroke="#333333" stroke-width="1.5"/>
    <path d="M22.1089 14.595V10.755" stroke="#333333" stroke-width="1.5"/>
    <path d="M37.477 29.2426H31.7095C31.3116 29.2426 30.9301 29.0845 30.6488 28.8032C30.3675 28.5219 30.2095 28.1404 30.2095 27.7426C30.2095 27.3448 30.3675 26.9632 30.6488 26.6819C30.9301 26.4006 31.3116 26.2426 31.7095 26.2426H37.477C37.9326 26.2423 38.3731 26.0788 38.7185 25.7815C39.0639 25.4843 39.2913 25.0731 39.3595 24.6226L41.0095 13.8001C41.039 13.6031 41.1071 13.4139 41.2098 13.2432C41.3124 13.0725 41.4477 12.9237 41.6079 12.8053C41.7681 12.6869 41.95 12.6012 42.1433 12.5532C42.3366 12.5051 42.5375 12.4955 42.7345 12.5251C42.9315 12.5546 43.1207 12.6227 43.2914 12.7254C43.462 12.828 43.6108 12.9633 43.7292 13.1235C43.8476 13.2837 43.9333 13.4656 43.9814 13.6589C44.0295 13.8522 44.039 14.0531 44.0095 14.2501L42.3595 25.0801C42.1871 26.2473 41.5973 27.3123 40.6995 28.0778C39.8017 28.8432 38.6567 29.2571 37.477 29.2426V29.2426Z" stroke="#333333" stroke-width="1.5"/>
    <path d="M32.4595 29.25V37.245" stroke="#333333" stroke-width="1.5"/>
    <path d="M39.9819 28.95L41.5944 37.2449" stroke="#333333" stroke-width="1.5"/>
    <path d="M10.5063 29.2425H16.2738C16.6716 29.2425 17.0531 29.0845 17.3344 28.8031C17.6157 28.5218 17.7738 28.1403 17.7738 27.7425C17.7738 27.3447 17.6157 26.9631 17.3344 26.6818C17.0531 26.4005 16.6716 26.2425 16.2738 26.2425H10.5063C10.0502 26.2438 9.60888 26.0808 9.26317 25.7833C8.91746 25.4858 8.69048 25.0737 8.62378 24.6225L6.96628 13.8075C6.94553 13.6055 6.88398 13.4097 6.78534 13.2322C6.6867 13.0547 6.55304 12.899 6.39245 12.7747C6.23187 12.6503 6.0477 12.5599 5.85113 12.5088C5.65455 12.4578 5.44965 12.4472 5.24886 12.4777C5.04806 12.5082 4.85555 12.5792 4.683 12.6863C4.51045 12.7934 4.36144 12.9344 4.24502 13.1009C4.1286 13.2673 4.04719 13.4556 4.00572 13.6544C3.96425 13.8532 3.96359 14.0584 4.00378 14.2575L5.65378 25.0875C5.82855 26.2475 6.41512 27.3058 7.30618 28.0687C8.19724 28.8317 9.33321 29.2484 10.5063 29.2425V29.2425Z" stroke="#333333" stroke-width="1.5"/>
    <path d="M15.5239 29.25V37.245" stroke="#333333" stroke-width="1.5"/>
    <path d="M8.00166 28.95L6.38916 37.2449" stroke="#333333" stroke-width="1.5"/>
</svg>
