<svg width="48" height="48" viewBox="0 0 48 48" fill="none" xmlns="http://www.w3.org/2000/svg">
    <path d="M32.094 32.4518C34.133 30.5196 35.4099 27.9128 35.6901 25.1103C35.9703 22.3078 35.2351 19.4978 33.6194 17.1964C32.0037 14.895 29.6161 13.2569 26.8951 12.5828C24.1742 11.9087 21.3026 12.244 18.8079 13.5271" stroke="#333333" stroke-width="1.5" stroke-miterlimit="10"/>
    <path d="M15.9272 15.5942C13.9067 17.531 12.6463 20.1331 12.3758 22.9261C12.1053 25.719 12.8428 28.5166 14.4537 30.8086C16.0646 33.1006 18.4416 34.7341 21.151 35.4113C23.8605 36.0885 26.7219 35.7642 29.2133 34.4975" stroke="#333333" stroke-width="1.5" stroke-miterlimit="10"/>
    <path d="M15.5926 19.6591L15.9274 15.5942L12 16.6198" stroke="#333333" stroke-width="1.5" stroke-miterlimit="10"/>
    <path d="M32.4076 28.387L32.0728 32.4518L36.0001 31.4262" stroke="#333333" stroke-width="1.5" stroke-miterlimit="10"/>
    <path d="M22.969 24.4877L19.3552 26.2878" stroke="#333333" stroke-width="1.5" stroke-miterlimit="10"/>
    <path d="M28.5278 16.7213L24.6111 22.9868" stroke="#333333" stroke-width="1.5" stroke-miterlimit="10"/>
    <path d="M31.1638 24.023H33.7413" stroke="#333333" stroke-width="1.5" stroke-miterlimit="10"/>
    <path d="M23.8247 33.7498V31.1592" stroke="#333333" stroke-width="1.5" stroke-miterlimit="10"/>
    <path d="M23.8247 16.8922V14.2963" stroke="#333333" stroke-width="1.5" stroke-miterlimit="10"/>
    <path d="M14.3491 24.023H16.9319" stroke="#333333" stroke-width="1.5" stroke-miterlimit="10"/>
    <path d="M24.6109 22.9868C24.7759 23.0911 24.9114 23.2363 25.0044 23.4084C25.0975 23.5805 25.145 23.7737 25.1424 23.9696C25.1409 24.2267 25.0544 24.4761 24.8965 24.6784C24.7386 24.8807 24.5182 25.0245 24.2701 25.0871C24.0219 25.1498 23.7601 25.1277 23.5258 25.0244C23.2915 24.9211 23.0981 24.7424 22.9759 24.5165C22.8537 24.2905 22.8098 24.0302 22.851 23.7764C22.8922 23.5226 23.0162 23.2898 23.2034 23.1146C23.3907 22.9394 23.6306 22.8317 23.8854 22.8086C24.1402 22.7855 24.3955 22.8481 24.6109 22.9868" stroke="#333333" stroke-width="1.5" stroke-miterlimit="10"/>
</svg>
