<svg width="24" height="24" viewBox="0 0 24 24" fill="none" xmlns="http://www.w3.org/2000/svg">
    <path d="M16.3999 21.86H6.19986V18.26C5.18986 17.26 4.60986 15.89 4.60986 14.46V4.26C4.60986 2.84 5.75986 1.69 7.17986 1.69C8.59986 1.69 9.74986 2.84 9.74986 4.26V11.37H20.4199V12.12C20.4199 13.24 20.1299 14.34 19.5699 15.31C18.6499 16.9 17.0399 17.98 15.2199 18.28L16.3999 21.87V21.86ZM7.69986 20.36H14.3299L13.1799 16.85H14.2199C15.9099 16.85 17.4699 15.97 18.2799 14.55C18.5799 14.03 18.7799 13.46 18.8699 12.86H8.25986V4.26C8.25986 3.67 7.77986 3.19 7.18986 3.19C6.59986 3.19 6.11986 3.67 6.11986 4.26V14.46C6.11986 15.58 6.59986 16.64 7.44986 17.37L7.70986 17.59V20.36H7.69986Z" fill="#333333"/>
</svg>
