<svg width="48" height="48" viewBox="0 0 48 48" fill="none" xmlns="http://www.w3.org/2000/svg">
    <g clip-path="url(#clip0_360_19)">
        <path d="M37.76 35.06L30.95 28.11H33.54C34.1 28.11 34.6 27.78 34.81 27.27C35.02 26.76 34.91 26.17 34.52 25.77L27.93 19.04H29.72C30.28 19.04 30.78 18.71 30.99 18.2C31.2 17.69 31.09 17.1 30.7 16.7L24.96 10.85C24.89 10.78 24.8 10.74 24.73 10.69V6.87H23.23V10.7C23.15 10.75 23.06 10.78 22.99 10.85L17.26 16.7C16.87 17.1 16.76 17.69 16.97 18.2C17.19 18.71 17.68 19.04 18.24 19.04H20.03L13.44 25.77C13.05 26.17 12.94 26.76 13.15 27.27C13.37 27.78 13.86 28.11 14.42 28.11H17.01L10.2 35.06C9.80999 35.46 9.69999 36.05 9.90999 36.56C10.13 37.07 10.62 37.4 11.18 37.4H21.02V42.16H26.9V37.4H36.74C37.3 37.4 37.8 37.07 38.01 36.56C38.23 36.05 38.11 35.46 37.72 35.06H37.76ZM25.44 40.66H22.56V37.4H25.44V40.66ZM26.94 35.9H11.51L18.32 28.95C18.71 28.55 18.82 27.96 18.61 27.45C18.4 26.94 17.9 26.61 17.34 26.61H14.75L21.34 19.88C21.73 19.48 21.84 18.89 21.63 18.38C21.41 17.87 20.92 17.54 20.36 17.54H18.57L24.02 11.98L29.47 17.54H27.68C27.12 17.54 26.62 17.87 26.41 18.38C26.2 18.89 26.31 19.48 26.7 19.88L33.29 26.61H30.7C30.14 26.61 29.64 26.94 29.43 27.45C29.22 27.96 29.33 28.55 29.72 28.95L36.53 35.9H26.98H26.94Z" fill="#333333"/>
        <path d="M18.9799 31.3C18.1299 31.3 17.4399 31.99 17.4399 32.84C17.4399 33.69 18.1299 34.38 18.9799 34.38C19.8299 34.38 20.5199 33.69 20.5199 32.84C20.5199 31.99 19.8299 31.3 18.9799 31.3Z" fill="#333333"/>
        <path d="M27.2402 29.13C26.3902 29.13 25.7002 29.82 25.7002 30.67C25.7002 31.52 26.3902 32.21 27.2402 32.21C28.0902 32.21 28.7802 31.52 28.7802 30.67C28.7802 29.82 28.0902 29.13 27.2402 29.13Z" fill="#333333"/>
        <path d="M23.1201 22.48C22.2701 22.48 21.5801 23.17 21.5801 24.02C21.5801 24.87 22.2701 25.56 23.1201 25.56C23.9701 25.56 24.6601 24.87 24.6601 24.02C24.6601 23.17 23.9701 22.48 23.1201 22.48Z" fill="#333333"/>
        <path d="M24 14.43C23.15 14.43 22.46 15.12 22.46 15.97C22.46 16.82 23.15 17.51 24 17.51C24.85 17.51 25.54 16.82 25.54 15.97C25.54 15.12 24.85 14.43 24 14.43Z" fill="#333333"/>
    </g>
    <defs>
        <clipPath id="clip0_360_19">
            <rect width="48" height="48" fill="white"/>
        </clipPath>
    </defs>
</svg>
