<svg width="48" height="48" viewBox="0 0 48 48" fill="none" xmlns="http://www.w3.org/2000/svg">
    <path d="M31.0652 30.8612C32.969 28.9574 31.4399 24.3417 27.6498 20.5516C23.8598 16.7616 19.244 15.2325 17.3402 17.1363C15.4364 19.0401 16.9655 23.6559 20.7555 27.4459C24.5456 31.2359 29.1613 32.765 31.0652 30.8612Z" stroke="#333333" stroke-width="1.5"/>
    <path d="M27.6532 20.5279C31.4032 24.2779 32.9707 28.9354 31.0657 30.8404C29.4682 32.4604 13.3132 38.9479 8.15317 41.0029C8.01804 41.0512 7.8719 41.0597 7.73209 41.0274C7.59228 40.9951 7.46467 40.9234 7.3644 40.8207C7.26412 40.7181 7.1954 40.5888 7.16638 40.4483C7.13736 40.3078 7.14926 40.1619 7.20067 40.0279C9.27817 34.8904 15.7432 18.7354 17.3407 17.1379C19.2457 15.2329 23.8657 16.7779 27.6532 20.5279Z" stroke="#333333" stroke-width="1.5"/>
    <path d="M24.2026 24.0004L33.1426 15.0604" stroke="#333333" stroke-width="1.5"/>
    <path d="M20.0776 22.8754C21.6211 21.3287 22.4879 19.2329 22.4879 17.0479C22.4879 14.8629 21.6211 12.7671 20.0776 11.2204" stroke="#333333" stroke-width="1.5"/>
    <path d="M25.3433 27.9305C26.8899 26.387 28.9857 25.5202 31.1708 25.5202C33.3558 25.5202 35.4516 26.387 36.9983 27.9305" stroke="#333333" stroke-width="1.5"/>
    <path d="M8.90256 18.4128C10.0582 18.4128 10.9951 17.476 10.9951 16.3203C10.9951 15.1647 10.0582 14.2278 8.90256 14.2278C7.7469 14.2278 6.81006 15.1647 6.81006 16.3203C6.81006 17.476 7.7469 18.4128 8.90256 18.4128Z" stroke="#333333" stroke-width="1.5"/>
    <path d="M39.0979 24.9679C40.2535 24.9679 41.1904 24.0311 41.1904 22.8754C41.1904 21.7197 40.2535 20.7829 39.0979 20.7829C37.9422 20.7829 37.0054 21.7197 37.0054 22.8754C37.0054 24.0311 37.9422 24.9679 39.0979 24.9679Z" stroke="#333333" stroke-width="1.5"/>
    <path d="M32.0229 35.8633L29.2651 38.621L32.0229 41.3788L34.7806 38.621L32.0229 35.8633Z" stroke="#333333" stroke-width="1.5"/>
    <path d="M28.6693 6.62125L25.9116 9.37897L28.6693 12.1367L31.4271 9.37897L28.6693 6.62125Z" stroke="#333333" stroke-width="1.5"/>
    <path d="M22.5305 35.0779C20.753 34.8154 18.5255 33.5779 16.5755 31.6279C14.6255 29.6779 13.388 27.4504 13.1255 25.6729" stroke="#333333" stroke-width="1.5"/>
    <path d="M15.3302 38.1079C14.0962 37.757 12.9944 37.0469 12.1652 36.0679C11.2466 35.1727 10.5394 34.0837 10.0952 32.8804" stroke="#333333" stroke-width="1.5"/>
</svg>
