<svg width="48" height="48" viewBox="0 0 48 48" fill="none" xmlns="http://www.w3.org/2000/svg">
    <path d="M20.7903 15.2341V12.8716C20.7862 12.6273 20.8308 12.3846 20.9215 12.1577C21.0122 11.9308 21.1472 11.7242 21.3185 11.55C21.4899 11.3758 21.6942 11.2374 21.9196 11.143C22.1449 11.0486 22.3869 11 22.6312 11H38.322C38.8126 11.0096 39.2799 11.2109 39.6239 11.5606C39.968 11.9104 40.1615 12.381 40.163 12.8716V35.1591C40.1535 35.6444 39.9566 36.1072 39.6133 36.4504C39.2701 36.7936 38.8073 36.9906 38.322 37H22.6619C22.1737 37 21.7054 36.806 21.3602 36.4608C21.0149 36.1156 20.821 35.6473 20.821 35.1591V18.0876" stroke="#333333" stroke-width="1.5" stroke-miterlimit="10"/>
    <path d="M28.0984 30.3481H32.8787" stroke="#333333" stroke-width="1.5" stroke-miterlimit="10"/>
    <path d="M25.5146 33.1463H35.4618" stroke="#333333" stroke-width="1.5" stroke-miterlimit="10"/>
    <path d="M12.5119 20.7139C12.5119 20.7139 17.3719 20.6771 18.9551 18.0875H22.8763C23.0648 18.0883 23.2516 18.0517 23.4258 17.9798C23.6001 17.9078 23.7583 17.802 23.8913 17.6684C24.0243 17.5348 24.1295 17.3762 24.2007 17.2016C24.2719 17.0271 24.3077 16.8401 24.3061 16.6516V16.6516C24.3061 16.2724 24.1554 15.9087 23.8873 15.6406C23.6192 15.3725 23.2555 15.2218 22.8763 15.2218H15.5678C14.4696 15.2215 13.3838 15.4531 12.3813 15.9015C11.3788 16.3499 10.4823 17.0049 9.7505 17.8237L7.83594 19.9591V27.6358C7.83594 27.6358 11.6344 30.3481 17.8506 30.3481" stroke="#333333" stroke-width="1.5" stroke-miterlimit="10"/>
    <path d="M20.7897 30.3481H17.8503" stroke="#333333" stroke-width="1.5" stroke-miterlimit="10"/>
    <path d="M20.7896 27.2861H18.4578" stroke="#333333" stroke-width="1.5" stroke-miterlimit="10"/>
    <path d="M20.7896 24.2178H18.4578" stroke="#333333" stroke-width="1.5" stroke-miterlimit="10"/>
    <path d="M20.7896 21.1557H18.4578" stroke="#333333" stroke-width="1.5" stroke-miterlimit="10"/>
    <path d="M30.4913 26.5067C33.4195 26.5067 35.7932 24.133 35.7932 21.2049C35.7932 18.2767 33.4195 15.903 30.4913 15.903C27.5632 15.903 25.1895 18.2767 25.1895 21.2049C25.1895 24.133 27.5632 26.5067 30.4913 26.5067Z" stroke="#333333" stroke-width="1.5" stroke-miterlimit="10"/>
    <path d="M30.4916 26.5067C31.5897 26.5067 32.4798 24.133 32.4798 21.2049C32.4798 18.2767 31.5897 15.903 30.4916 15.903C29.3936 15.903 28.5034 18.2767 28.5034 21.2049C28.5034 24.133 29.3936 26.5067 30.4916 26.5067Z" stroke="#333333" stroke-width="1.5" stroke-miterlimit="10"/>
    <path d="M25.1895 21.2049H35.787" stroke="#333333" stroke-width="1.5" stroke-miterlimit="10"/>
</svg>
