<svg width="48" height="48" viewBox="0 0 48 48" fill="none" xmlns="http://www.w3.org/2000/svg">
    <path d="M24.1632 24.2049C27.8097 24.2049 30.7657 21.2489 30.7657 17.6025C30.7657 13.956 27.8097 11 24.1632 11C20.5168 11 17.5608 13.956 17.5608 17.6025C17.5608 21.2489 20.5168 24.2049 24.1632 24.2049Z" stroke="#333333" stroke-width="1.5" stroke-miterlimit="10"/>
    <path d="M18.1461 24.2049H30.1671C31.4196 24.2049 32.6208 24.7025 33.5065 25.5881C34.3921 26.4738 34.8897 27.675 34.8897 28.9275V37H13.4236V28.921C13.4253 27.6696 13.9236 26.4701 14.8091 25.5858C15.6945 24.7016 16.8948 24.2049 18.1461 24.2049V24.2049Z" stroke="#333333" stroke-width="1.5" stroke-miterlimit="10"/>
    <path d="M28.8528 12.932C29.5698 12.3527 30.4315 11.9803 31.3447 11.8549C32.2579 11.7295 33.1881 11.8559 34.0347 12.2205C34.8813 12.585 35.6123 13.1739 36.1487 13.9236C36.6852 14.6732 37.0067 15.5551 37.0785 16.4741C37.1504 17.3931 36.9698 18.3143 36.5565 19.1382C36.1431 19.9621 35.5125 20.6575 34.7328 21.1492C33.9531 21.6409 33.0539 21.9104 32.1323 21.9284C31.2107 21.9465 30.3016 21.7125 29.5033 21.2517" stroke="#333333" stroke-width="1.5" stroke-miterlimit="10"/>
    <path d="M34.2715 21.4338H36.6393C37.1153 21.433 37.5868 21.5261 38.0268 21.7079C38.4668 21.8897 38.8665 22.1565 39.2032 22.4932C39.5398 22.8298 39.8066 23.2295 39.9884 23.6695C40.1702 24.1095 40.2633 24.581 40.2625 25.0571V31.2302H34.8894" stroke="#333333" stroke-width="1.5" stroke-miterlimit="10"/>
    <path d="M19.1474 12.932C18.4303 12.3527 17.5687 11.9803 16.6555 11.8549C15.7422 11.7295 14.8121 11.8559 13.9655 12.2205C13.1188 12.585 12.3878 13.1739 11.8514 13.9236C11.315 14.6732 10.9935 15.5551 10.9216 16.4741C10.8498 17.3931 11.0303 18.3143 11.4437 19.1382C11.8571 19.9621 12.4877 20.6575 13.2674 21.1492C14.047 21.6409 14.9462 21.9104 15.8678 21.9284C16.7895 21.9465 17.6985 21.7125 18.4969 21.2517" stroke="#333333" stroke-width="1.5" stroke-miterlimit="10"/>
    <path d="M13.7293 21.4338H11.3615C10.8855 21.433 10.4139 21.5261 9.97394 21.7079C9.53397 21.8897 9.13421 22.1565 8.79759 22.4932C8.46097 22.8298 8.19412 23.2295 8.01234 23.6695C7.83056 24.1095 7.73743 24.581 7.73829 25.0571V31.2302H13.1048" stroke="#333333" stroke-width="1.5" stroke-miterlimit="10"/>
    <path d="M25.9518 27.3988C25.4698 27.409 25.0108 27.6072 24.6729 27.9512C24.335 28.2952 24.145 28.7576 24.1434 29.2397C24.1435 28.7582 23.955 28.2958 23.6181 27.9516C23.2813 27.6075 22.823 27.409 22.3416 27.3988C22.0939 27.3997 21.8487 27.4493 21.6202 27.5449C21.3916 27.6405 21.1842 27.7802 21.0096 27.9559C20.835 28.1317 20.6968 28.3402 20.6028 28.5694C20.5088 28.7986 20.4608 29.044 20.4617 29.2918V29.2332C20.4617 30.4431 20.9691 30.8464 21.8602 31.6595L24.163 33.7476L26.4527 31.6465C27.3438 30.8334 27.8447 30.4301 27.8447 29.2202V29.2787C27.8447 29.0308 27.7957 28.7852 27.7004 28.5563C27.6051 28.3274 27.4655 28.1196 27.2895 27.9448C27.1136 27.7701 26.9048 27.6319 26.6752 27.5382C26.4456 27.4445 26.1998 27.3971 25.9518 27.3988V27.3988Z" stroke="#333333" stroke-width="1.5" stroke-miterlimit="10"/>
</svg>
