<svg width="48" height="48" viewBox="0 0 48 48" fill="none" xmlns="http://www.w3.org/2000/svg">
    <g clip-path="url(#clip0_234_9450)">
        <path d="M23.9994 38.2687C31.8902 38.2687 38.2869 31.872 38.2869 23.9812C38.2869 16.0904 31.8902 9.6937 23.9994 9.6937C16.1086 9.6937 9.71191 16.0904 9.71191 23.9812C9.71191 31.872 16.1086 38.2687 23.9994 38.2687Z" stroke="#333333" stroke-width="1.5" stroke-miterlimit="10"/>
        <path d="M9.71191 23.9812H38.2869" stroke="#333333" stroke-width="1.5" stroke-miterlimit="10"/>
        <path d="M23.467 9.7312C20.1126 13.7365 18.2744 18.7943 18.2744 24.0187C18.2744 29.2431 20.1126 34.3009 23.467 38.3062V38.3062" stroke="#333333" stroke-width="1.5" stroke-miterlimit="10"/>
        <path d="M24.5317 38.2687C27.8861 34.2634 29.7243 29.2056 29.7243 23.9812C29.7243 18.7568 27.8861 13.699 24.5317 9.6937V9.6937" stroke="#333333" stroke-width="1.5" stroke-miterlimit="10"/>
        <path d="M12.9443 14.9362H12.9968C16.3715 16.7782 20.1547 17.7434 23.9993 17.7434C27.844 17.7434 31.6271 16.7782 35.0018 14.9362" stroke="#333333" stroke-width="1.5" stroke-miterlimit="10"/>
        <path d="M35.0018 33.0262H34.9493C31.5746 31.1842 27.7915 30.219 23.9468 30.219C20.1022 30.219 16.319 31.1842 12.9443 33.0262V33.0262" stroke="#333333" stroke-width="1.5" stroke-miterlimit="10"/>
    </g>
    <defs>
        <clipPath id="clip0_234_9450">
            <rect width="48" height="48" fill="white"/>
        </clipPath>
    </defs>
</svg>
