<svg width="48" height="48" viewBox="0 0 48 48" fill="none" xmlns="http://www.w3.org/2000/svg">
    <path d="M20.2754 20.3344L25.685 16.6624" stroke="#333333" stroke-width="1.0688" stroke-linecap="round" stroke-linejoin="round"/>
    <path d="M30.1841 25.3792C30.1841 28.8256 27.3905 34.7712 23.9441 34.7712C20.4977 34.7712 17.7041 28.8256 17.7041 25.3792C17.7041 21.9328 20.4977 19.1392 23.9441 19.1392C27.3905 19.1392 30.1841 21.9328 30.1841 25.3792Z" stroke="#333333" stroke-width="1.0688" stroke-linecap="round" stroke-linejoin="round"/>
    <path d="M23.9998 13.2288C19.4686 13.2288 15.3774 18.1552 15.3774 22.6864C15.3774 25.2112 16.6478 27.728 18.5566 29.4624C18.0158 28.0048 17.7038 26.528 17.7038 25.3792C17.7038 21.9328 20.4974 19.1392 23.9438 19.1392C27.3902 19.1392 30.1838 21.9328 30.1838 25.3792C30.1838 26.5664 29.8526 28.1024 29.2766 29.608C31.2766 27.8704 32.6222 25.2832 32.6222 22.6864C32.6222 18.1552 28.531 13.2288 23.9998 13.2288V13.2288Z" stroke="#333333" stroke-width="1.0688" stroke-linecap="round" stroke-linejoin="round"/>
    <path d="M19.7041 25.6656C19.7041 25.6656 20.9873 26.4768 22.1697 25.6656" stroke="#333333" stroke-width="1.0688" stroke-linecap="round" stroke-linejoin="round"/>
    <path d="M27.9055 25.6656C27.9055 25.6656 26.6223 26.4768 25.4399 25.6656" stroke="#333333" stroke-width="1.0688" stroke-linecap="round" stroke-linejoin="round"/>
    <path d="M22.1699 30.7472C22.1699 30.7472 23.4643 31.6368 25.4403 30.7472" stroke="#333333" stroke-width="1.0688" stroke-linecap="round" stroke-linejoin="round"/>
</svg>
