<svg width="48" height="48" viewBox="0 0 48 48" fill="none" xmlns="http://www.w3.org/2000/svg">
    <path d="M39.0571 26.9468V32.6359C39.0536 33.7934 38.5918 34.9024 37.7727 35.7202C36.9536 36.5381 35.8439 36.9982 34.6864 37H28.8589" stroke="#333333" stroke-width="1.5" stroke-miterlimit="10"/>
    <path d="M30.2759 37H13.314C12.1554 36.9983 11.0447 36.5372 10.2254 35.7179C9.40614 34.8987 8.9451 33.788 8.94336 32.6293V19.5833C8.9451 18.424 9.40593 17.3126 10.225 16.4923C11.0441 15.672 12.1548 15.2095 13.314 15.206H34.6861C35.8454 15.2095 36.956 15.672 37.7751 16.4923C38.5942 17.3126 39.055 18.424 39.0568 19.5833V28.8652" stroke="#333333" stroke-width="1.5" stroke-miterlimit="10"/>
    <path d="M14.6782 22.0356H17.4997V26.2217C17.5006 26.4075 17.4647 26.5916 17.3942 26.7635C17.3237 26.9355 17.2199 27.0918 17.0888 27.2235C16.9578 27.3552 16.802 27.4597 16.6304 27.531C16.4588 27.6023 16.2748 27.639 16.089 27.639V27.639C15.7148 27.639 15.356 27.4904 15.0914 27.2258C14.8269 26.9612 14.6782 26.6024 14.6782 26.2282V22.0356Z" stroke="#333333" stroke-width="1.5" stroke-miterlimit="10"/>
    <path d="M30.2759 22.0356H33.0974V26.2217C33.0974 26.5958 32.9487 26.9546 32.6842 27.2192C32.4196 27.4838 32.0608 27.6324 31.6866 27.6324V27.6324C31.5014 27.6324 31.3179 27.5959 31.1468 27.525C30.9756 27.4541 30.8201 27.3502 30.6891 27.2192C30.5581 27.0882 30.4542 26.9327 30.3833 26.7615C30.3124 26.5904 30.2759 26.4069 30.2759 26.2217V22.0356Z" stroke="#333333" stroke-width="1.5" stroke-miterlimit="10"/>
    <path d="M33.0908 23.9803H39.0568" stroke="#333333" stroke-width="1.5" stroke-miterlimit="10"/>
    <path d="M17.5 23.9803H30.2758" stroke="#333333" stroke-width="1.5" stroke-miterlimit="10"/>
    <path d="M8.94336 23.9803H14.6786" stroke="#333333" stroke-width="1.5" stroke-miterlimit="10"/>
    <path d="M18.7261 11.0001H29.2737C30.3892 11.0001 31.459 11.4432 32.2477 12.232C33.0365 13.0207 33.4796 14.0905 33.4796 15.206H14.4873C14.4873 14.6509 14.5972 14.1013 14.8106 13.5888C15.024 13.0764 15.3368 12.6113 15.7308 12.2203C16.1249 11.8293 16.5924 11.5202 17.1065 11.3108C17.6206 11.1014 18.171 10.9958 18.7261 11.0001V11.0001Z" stroke="#333333" stroke-width="1.5" stroke-miterlimit="10"/>
    <path d="M22.0225 19.4316H25.9778" stroke="#333333" stroke-width="1.5" stroke-miterlimit="10"/>
</svg>
