<svg width="17" height="17" viewBox="0 0 17 17" fill="none"
  xmlns="http://www.w3.org/2000/svg">
  <path d="M6.4598 16.7984C5.9378 16.7984 5.4434 16.5548 5.1266 16.1348L0.838999 10.4696C0.706439 10.2947 0.609662 10.0953 0.5542 9.88293C0.498738 9.67055 0.485679 9.44931 0.51577 9.23188C0.54586 9.01445 0.61851 8.80508 0.729566 8.61574C0.840622 8.42641 0.987907 8.26081 1.163 8.12843C1.33803 7.9955 1.53757 7.89842 1.75019 7.84275C1.96281 7.78708 2.18433 7.77391 2.40205 7.80401C2.61976 7.83411 2.8294 7.90688 3.01894 8.01815C3.20848 8.12942 3.3742 8.277 3.5066 8.45243L6.3278 12.1772L13.421 0.786833C13.6562 0.410752 14.031 0.143329 14.4632 0.0432211C14.8953 -0.0568865 15.3496 0.0184959 15.7262 0.252833C16.5098 0.740033 16.751 1.77203 16.2614 2.55683L7.8806 16.0088C7.73753 16.2395 7.54034 16.4318 7.30613 16.5689C7.07192 16.7061 6.80777 16.7841 6.5366 16.796C6.5102 16.7984 6.4862 16.7984 6.4598 16.7984Z" fill="currentColor"/>
</svg>
