<svg width="65" height="65" viewBox="0 0 65 65" fill="none" xmlns="http://www.w3.org/2000/svg">
<path d="M27.851 51.8163C38.6537 51.8163 47.411 43.059 47.411 32.2563C47.411 21.4536 38.6537 12.6963 27.851 12.6963C17.0483 12.6963 8.29102 21.4536 8.29102 32.2563C8.29102 43.059 17.0483 51.8163 27.851 51.8163Z" stroke="#333333" stroke-width="1.5" stroke-miterlimit="10"/>
<path d="M27.8496 12.6963H35.6096C40.7972 12.6963 45.7724 14.7571 49.4406 18.4253C53.1088 22.0935 55.1696 27.0687 55.1696 32.2563C55.1696 37.4439 53.1088 42.4191 49.4406 46.0873C45.7724 49.7555 40.7972 51.8163 35.6096 51.8163H27.8496" stroke="#333333" stroke-width="1.5" stroke-miterlimit="10"/>
<path d="M33.8912 24.4961C32.8344 23.7713 31.586 23.3768 30.3046 23.3628C26.1846 23.3628 22.8379 27.3628 22.8379 32.2561C22.8379 37.1495 26.1846 41.1495 30.3046 41.1495C31.586 41.1354 32.8344 40.7409 33.8912 40.0161" stroke="#333333" stroke-width="1.5" stroke-miterlimit="10"/>
<path d="M18.6641 29.7358H31.1707" stroke="#333333" stroke-width="1.5" stroke-miterlimit="10"/>
<path d="M18.6641 34.7764H30.1974" stroke="#333333" stroke-width="1.5" stroke-miterlimit="10"/>
</svg>
