<svg width="49" height="49" viewBox="0 0 49 49" fill="none" xmlns="http://www.w3.org/2000/svg">
<path d="M34.69 35.9443H34.81C35.5385 35.9434 36.26 36.086 36.9333 36.3641C37.6066 36.6422 38.2185 37.0503 38.734 37.565C39.2495 38.0798 39.6584 38.6911 39.9374 39.3641C40.2164 40.037 40.36 40.7584 40.36 41.4868H22.75C22.75 40.0169 23.3339 38.6071 24.3734 37.5677C25.4128 36.5283 26.8225 35.9443 28.2925 35.9443H28.42" stroke="#333333" stroke-width="1.5" stroke-miterlimit="10"/>
<path d="M31.2461 21.4168V12.7993" stroke="#333333" stroke-width="1.5" stroke-miterlimit="10"/>
<path d="M8.96286 10.2568V34.0018C8.95509 34.0791 8.95509 34.157 8.96286 34.2343V34.2343C8.96286 34.8311 9.19991 35.4034 9.62187 35.8253C10.0438 36.2473 10.6161 36.4843 11.2129 36.4843H25.8004" stroke="#333333" stroke-width="1.5" stroke-miterlimit="10"/>
<path d="M15.8711 17.1792H24.9836" stroke="#333333" stroke-width="1.5" stroke-miterlimit="10"/>
<path d="M13.7852 19.9995H27.1652" stroke="#333333" stroke-width="1.5" stroke-miterlimit="10"/>
<path d="M30.5336 10.257C30.4859 9.39336 30.7145 8.537 31.1861 7.81197C31.3136 7.65447 31.1861 7.45947 30.9311 7.45947H11.8586C10.2536 7.45947 8.93359 8.43447 8.93359 9.62697V10.887C8.93359 12.0795 10.2536 13.047 11.8586 13.047H30.9311C31.1711 13.047 31.3136 12.8595 31.1861 12.702C30.7154 11.9765 30.487 11.1205 30.5336 10.257V10.257Z" stroke="#333333" stroke-width="1.5" stroke-miterlimit="10"/>
<path d="M21.9366 22.9692H18.9141" stroke="#333333" stroke-width="1.5" stroke-miterlimit="10"/>
<path d="M36.8125 27.3496V31.7221C36.8125 33.1145 36.2594 34.4499 35.2748 35.4344C34.2902 36.419 32.9549 36.9721 31.5625 36.9721C30.1701 36.9721 28.8348 36.419 27.8502 35.4344C26.8656 34.4499 26.3125 33.1145 26.3125 31.7221V27.3496" stroke="#333333" stroke-width="1.5" stroke-miterlimit="10"/>
<path d="M26.2969 27.3495V24.7695C26.2969 23.8817 26.6491 23.0301 27.2761 22.4016C27.9032 21.7731 28.754 21.419 29.6419 21.417H33.4519C34.341 21.417 35.1937 21.7702 35.8225 22.3989C36.4512 23.0276 36.8044 23.8804 36.8044 24.7695V27.3495H26.2969Z" stroke="#333333" stroke-width="1.5" stroke-miterlimit="10"/>
<path d="M33.7656 27.3496H41.5356" stroke="#333333" stroke-width="1.5" stroke-miterlimit="10"/>
<path d="M29.8945 32.5918V29.5693" stroke="#333333" stroke-width="1.5" stroke-miterlimit="10"/>
<path d="M33.2109 32.5918V29.5693" stroke="#333333" stroke-width="1.5" stroke-miterlimit="10"/>
</svg>
