<svg width="65" height="64" viewBox="0 0 65 64" fill="none" xmlns="http://www.w3.org/2000/svg">
<path d="M41.6241 17.8598V23.8198H22.5041V17.8598L17.0841 12.5098L11.6641 17.8598V25.2698V48.9798H52.4741V25.2698V17.8598L46.9841 12.5098L41.6241 17.8598Z" stroke="#333333" stroke-width="1.5" stroke-miterlimit="10"/>
<path d="M11.6523 18.8101H22.5023" stroke="#333333" stroke-width="1.5" stroke-miterlimit="10"/>
<path d="M16.8516 26.6198V22.5898" stroke="#333333" stroke-width="1.5" stroke-miterlimit="10"/>
<path d="M47.043 26.6198V22.5898" stroke="#333333" stroke-width="1.5" stroke-miterlimit="10"/>
<path d="M16.8516 35.74V31.71" stroke="#333333" stroke-width="1.5" stroke-miterlimit="10"/>
<path d="M47.043 35.74V31.71" stroke="#333333" stroke-width="1.5" stroke-miterlimit="10"/>
<path d="M16.8516 44.8498V40.8198" stroke="#333333" stroke-width="1.5" stroke-miterlimit="10"/>
<path d="M32.0625 35.74V31.71" stroke="#333333" stroke-width="1.5" stroke-miterlimit="10"/>
<path d="M32.0625 44.8498V40.8198" stroke="#333333" stroke-width="1.5" stroke-miterlimit="10"/>
<path d="M24.8125 35.74V31.71" stroke="#333333" stroke-width="1.5" stroke-miterlimit="10"/>
<path d="M24.8125 44.8498V40.8198" stroke="#333333" stroke-width="1.5" stroke-miterlimit="10"/>
<path d="M39.5508 35.74V31.71" stroke="#333333" stroke-width="1.5" stroke-miterlimit="10"/>
<path d="M39.5508 44.8498V40.8198" stroke="#333333" stroke-width="1.5" stroke-miterlimit="10"/>
<path d="M47.043 44.8498V40.8198" stroke="#333333" stroke-width="1.5" stroke-miterlimit="10"/>
<path d="M41.6211 18.8101H52.4711" stroke="#333333" stroke-width="1.5" stroke-miterlimit="10"/>
<path d="M41.6239 23.8198H22.5039V28.3098H41.6239V23.8198Z" stroke="#333333" stroke-width="1.5" stroke-miterlimit="10"/>
</svg>
