<svg width="48" height="48" viewBox="0 0 48 48" fill="none" xmlns="http://www.w3.org/2000/svg">
  <g clip-path="url(#clip0_1653_47715)">
    <path d="M16.5483 25.104C17.2983 27.429 20.2608 30.5565 22.5483 31.104C23.0708 31.2125 23.6148 31.1318 24.0833 30.8763C24.5518 30.6207 24.9142 30.207 25.1058 29.709C25.2232 29.3578 25.4292 29.0429 25.7039 28.7946C25.9785 28.5463 26.3126 28.3731 26.6738 28.2917C27.035 28.2102 27.4111 28.2233 27.7657 28.3297C28.1204 28.4361 28.4416 28.6322 28.6983 28.899L31.9458 32.1465C32.3363 32.5736 32.5529 33.1315 32.5529 33.7102C32.5529 34.289 32.3363 34.8468 31.9458 35.274L29.7708 37.5165C27.4533 39.8415 21.3033 37.284 15.8508 31.8315C10.3983 26.379 7.9608 20.2365 10.1658 17.9115L12.3708 15.7065C12.7992 15.3154 13.3583 15.0986 13.9383 15.0986C14.5183 15.0986 15.0774 15.3154 15.5058 15.7065L18.7533 18.954C19.0269 19.2116 19.2289 19.536 19.3393 19.8953C19.4497 20.2545 19.4648 20.6363 19.3831 21.0032C19.3014 21.37 19.1258 21.7093 18.8733 21.9878C18.6209 22.2663 18.3004 22.4743 17.9433 22.5915C17.6781 22.6503 17.4285 22.7647 17.2108 22.9272C16.9931 23.0897 16.8124 23.2964 16.6806 23.5339C16.5487 23.7714 16.4687 24.0341 16.446 24.3048C16.4232 24.5754 16.458 24.8478 16.5483 25.104V25.104Z" stroke="#333333" stroke-width="1.5" stroke-miterlimit="10"/>
    <path d="M21.6934 17.604C24.0519 17.6136 26.3124 18.5486 27.9885 20.2079C29.6647 21.8672 30.6225 24.1182 30.6559 26.4765" stroke="#333333" stroke-width="1.5" stroke-miterlimit="10"/>
    <path d="M21.6934 13.7339C25.0826 13.7358 28.3338 15.0768 30.7388 17.4649C33.1438 19.853 34.5076 23.0947 34.5334 26.4839" stroke="#333333" stroke-width="1.5" stroke-miterlimit="10"/>
    <path d="M21.6934 9.62402C26.1719 9.62395 30.4685 11.3964 33.6445 14.554C36.8204 17.7117 38.6176 21.998 38.6434 26.4765" stroke="#333333" stroke-width="1.5" stroke-miterlimit="10"/>
  </g>
  <defs>
    <clipPath id="clip0_1653_47715">
      <rect width="48" height="48" fill="white"/>
    </clipPath>
  </defs>
</svg>
