<svg width="68" height="32" viewBox="0 0 68 32" fill="none" xmlns="http://www.w3.org/2000/svg">
  <path
    d="M0.570928 29.7145V32H67.3845V29.7145H0.570928ZM0.570928 0V2.28554H67.3845V0H0.570928ZM46.3334 17.6399H45.2589V27.0001H41.1203V4.9999H47.3281C51.4667 4.9999 53.3371 7.3197 53.3371 10.8401V11.1601C53.3371 13.9603 52.6607 14.7603 50.7506 15.9601C52.8596 16.9999 53.0584 19.2 53.0584 21.0402V23.1601C53.0584 23.7602 53.0584 26.4403 53.2573 27.0001H49.2779C48.9596 25.6 48.9199 23.0803 48.9199 23.04V21.0801C48.9199 18.7603 48.6809 17.6399 46.3334 17.6399ZM46.7315 8.3599H45.2593V14.2799H46.4132C48.9203 14.2799 49.1989 12.8 49.1989 11.36V11.04C49.1989 9.12 48.4031 8.3599 46.7319 8.3599H46.7315ZM62.5692 8.6799L55.2472 24.1999V27.0001H66.9066L67.3841 23.36H60.1018L67.0658 8.2402V5.0003H55.9236V8.6803H62.5692V8.6799ZM21.582 27.0001H17.4037V8.6799H13.3049V4.9999H25.7205V8.6799H21.582V26.9997V27.0001ZM6.3806 24.0802C7.57421 24.0802 8.33039 22.9602 8.33039 21.6004C8.33039 20.7605 8.09142 19.5204 7.0173 18.6805C6.26112 17.9204 3.91359 16.6404 3.03793 15.9206C1.04845 14.3206 0.49114 13.1607 0.49114 10.7204C0.49114 7.4003 2.08289 4.6803 6.30121 4.6803C11.0368 4.6803 12.0712 7.7203 12.0712 10.6402V11.1601H8.01204V10.6402C8.01204 9.44 7.65399 8 6.26112 8C5.02741 8 4.62968 8.8798 4.62968 10.2001C4.62968 11.1601 4.86864 11.8001 5.62442 12.48C5.98246 12.8 9.04647 14.5999 9.68357 15.1202C11.5937 16.64 12.509 18.3202 12.509 21.0801C12.509 25.6 9.52439 27.3999 6.26152 27.3999C1.68515 27.3999 0.0537109 24.64 0.0537109 21.1599V20.64H4.19225V21.2401C4.19225 22.6003 4.70947 24.0802 6.381 24.0802H6.3806ZM38.6136 26.24V10.6402C38.6136 7.0803 36.9425 4.6803 32.923 4.6803C29.3418 4.6803 26.9141 6.1602 26.9141 10.7204V11.0404H31.0527V10.6402C31.0527 9.0003 31.5699 8.1201 32.7242 8.1604C34.2762 8.2003 34.3556 9.8402 34.3556 10.9602V13.6403H33.8384C28.6253 13.6403 26.1583 16.0403 26.198 20.5602V20.96C26.198 24.3998 27.6703 27.3999 30.8538 27.3999C32.4058 27.3999 33.6391 26.7998 34.4751 25.3598L34.7934 26.9997H38.6533L38.6136 26.2396V26.24ZM33.6391 16.8802H34.4747V19.4801C34.4747 21.0402 34.1564 23.68 32.2066 23.68C30.6545 23.68 30.2568 22.4 30.2568 20.8399V20.4401C30.2171 18.2799 30.8935 16.8802 33.6391 16.8802Z"
    fill="currentColor"/>
</svg>
