<svg width="53" height="48" viewBox="0 0 53 48" fill="none" xmlns="http://www.w3.org/2000/svg">
<g clip-path="url(#clip0_6781_95781)">
<path d="M44.7571 0L37.2252 7.6489V14.5705H15.3244V7.6489L7.65599 0L0 7.6489V48H52.5V7.6489L44.7571 0ZM44.7571 2.64577L50.465 8.2884H39.1982L44.7571 2.64577ZM37.2252 16.4514V20.2132H15.3244V16.4514H37.2252ZM13.3018 8.2884H2.01016L7.65599 2.64577L13.3018 8.2884ZM1.86126 46.1191V10.1693H13.4631V22.0815H39.0493V10.1693H50.6387V46.1191H1.86126Z" fill="#333333" fill-opacity="0.25"/>
<path d="M8.31439 13.9688H6.45312V19.022H8.31439V13.9688Z" fill="#333333" fill-opacity="0.25"/>
<path d="M45.7753 13.9688H43.9141V19.022H45.7753V13.9688Z" fill="#333333" fill-opacity="0.25"/>
<path d="M8.31439 25.4043H6.45312V30.4576H8.31439V25.4043Z" fill="#333333" fill-opacity="0.25"/>
<path d="M45.7753 25.4043H43.9141V30.4576H45.7753V25.4043Z" fill="#333333" fill-opacity="0.25"/>
<path d="M8.31439 36.8271H6.45312V41.8804H8.31439V36.8271Z" fill="#333333" fill-opacity="0.25"/>
<path d="M27.1894 25.4043H25.3281V30.4576H27.1894V25.4043Z" fill="#333333" fill-opacity="0.25"/>
<path d="M27.1894 36.8271H25.3281V41.8804H27.1894V36.8271Z" fill="#333333" fill-opacity="0.25"/>
<path d="M18.1894 25.4043H16.3281V30.4576H18.1894V25.4043Z" fill="#333333" fill-opacity="0.25"/>
<path d="M18.1894 36.8271H16.3281V41.8804H18.1894V36.8271Z" fill="#333333" fill-opacity="0.25"/>
<path d="M36.4824 25.4043H34.6211V30.4576H36.4824V25.4043Z" fill="#333333" fill-opacity="0.25"/>
<path d="M36.4824 36.8271H34.6211V41.8804H36.4824V36.8271Z" fill="#333333" fill-opacity="0.25"/>
<path d="M45.7753 36.8271H43.9141V41.8804H45.7753V36.8271Z" fill="#333333" fill-opacity="0.25"/>
</g>
<defs>
<clipPath id="clip0_6781_95781">
<rect width="52.5" height="48" fill="white"/>
</clipPath>
</defs>
</svg>
