<svg width="48" height="48" viewBox="0 0 48 48" fill="none" xmlns="http://www.w3.org/2000/svg">
<path d="M31.2551 30.7329H16.7451" stroke="#333333" stroke-width="1.5" stroke-miterlimit="10"/>
<path d="M9.94481 30.7328H6.7148C6.10919 30.7328 5.52823 30.4929 5.09906 30.0656C4.66988 29.6383 4.42745 29.0584 4.4248 28.4528V16.1128C4.44045 15.5159 4.68861 14.9488 5.11638 14.5322C5.54415 14.1156 6.11771 13.8826 6.7148 13.8828H41.2848C41.8904 13.8828 42.4714 14.1227 42.9006 14.55C43.3297 14.9773 43.5722 15.5572 43.5748 16.1628V28.4528C43.5722 29.0584 43.3297 29.6383 42.9006 30.0656C42.4714 30.4929 41.8904 30.7328 41.2848 30.7328H38.0548" stroke="#333333" stroke-width="1.5" stroke-miterlimit="10"/>
<path d="M13.3344 27.3428C14.0099 27.3427 14.6705 27.5409 15.2344 27.9128C15.7926 28.2842 16.2277 28.8133 16.4844 29.4328C16.7547 30.0633 16.8211 30.7626 16.6744 31.4328C16.5449 32.0926 16.221 32.6985 15.7444 33.1728C15.2684 33.6492 14.6614 33.9731 14.0006 34.1031C13.3398 34.2331 12.6553 34.1634 12.0344 33.9028C11.413 33.6493 10.8831 33.2135 10.5144 32.6528C10.1742 32.1423 9.97885 31.5491 9.94926 30.9363C9.91967 30.3236 10.0569 29.7143 10.3463 29.1734C10.6358 28.6325 11.0666 28.1802 11.5928 27.8649C12.119 27.5496 12.7209 27.3829 13.3344 27.3828V27.3428Z" stroke="#333333" stroke-width="1.5" stroke-miterlimit="10"/>
<path d="M34.6543 27.343C35.3234 27.3353 35.9803 27.523 36.5443 27.883C37.1283 28.2518 37.5828 28.7937 37.8443 29.433C38.1129 30.0638 38.1826 30.7615 38.0443 31.433C37.9135 32.094 37.5887 32.701 37.1114 33.1766C36.634 33.6522 36.0258 33.9747 35.3643 34.103C34.9017 34.1911 34.4257 34.1819 33.9668 34.0759C33.5079 33.9699 33.0762 33.7695 32.6991 33.4873C32.322 33.2052 32.0078 32.8476 31.7765 32.4373C31.5453 32.027 31.4021 31.573 31.3561 31.1043C31.31 30.6355 31.3622 30.1624 31.5092 29.7149C31.6562 29.2675 31.8948 28.8556 32.2098 28.5054C32.5248 28.1553 32.9093 27.8747 33.3388 27.6814C33.7683 27.4882 34.2334 27.3865 34.7043 27.383L34.6543 27.343Z" stroke="#333333" stroke-width="1.5" stroke-miterlimit="10"/>
<path d="M4.4248 22.2827H43.5748" stroke="#333333" stroke-width="1.5" stroke-miterlimit="10"/>
<path d="M34.665 13.833V22.283" stroke="#333333" stroke-width="1.5" stroke-miterlimit="10"/>
<path d="M24.0049 13.833V22.283" stroke="#333333" stroke-width="1.5" stroke-miterlimit="10"/>
<path d="M13.335 13.833V22.283" stroke="#333333" stroke-width="1.5" stroke-miterlimit="10"/>
</svg>
