<svg width="48" height="48" viewBox="0 0 48 48" stroke="currentColor" fill="none" xmlns="http://www.w3.org/2000/svg">
  <path
    d="M33.7941 15.7862V23.3376C33.3357 23.6059 32.9475 23.9732 32.6583 24.4395C32.2418 25.1388 32.108 25.9371 32.2278 26.7494C31.3247 26.7565 30.5064 27.0531 29.9631 27.5901C29.7374 27.8091 29.561 28.0704 29.4412 28.3671C29.3706 28.5507 29.3213 28.7344 29.293 28.925C29.293 28.925 28.7357 31.8849 32.136 32.4996C32.136 32.4996 31.4658 35.0001 33.7938 35.9254V37.762H5.00269V15.7862L8.82663 12L12.6503 15.7862V19.9964H26.1395V15.7862L29.9209 12L33.7941 15.7862Z"
    stroke="#333333"
    strokeWidth="1.5"
    strokeMiterlimit="10"
  />
  <path d="M5 16.4501H12.6512" strokeWidth="1.5" strokeMiterlimit="10" />
  <path d="M8.66821 21.967V19.1222" strokeWidth="1.5" strokeMiterlimit="10" />
  <path d="M29.9662 21.967V19.1222" strokeWidth="1.5" strokeMiterlimit="10" />
  <path d="M8.66821 28.4085V25.5641" strokeWidth="1.5" strokeMiterlimit="10" />
  <path d="M29.9662 27.7022V25.5641" strokeWidth="1.5" strokeMiterlimit="10" />
  <path d="M8.66821 34.8466V32.0021" strokeWidth="1.5" strokeMiterlimit="10" />
  <path d="M19.396 28.4085V25.5641" strokeWidth="1.5" strokeMiterlimit="10" />
  <path d="M19.396 34.8466V32.0021" strokeWidth="1.5" strokeMiterlimit="10" />
  <path d="M14.2823 28.4085V25.5641" strokeWidth="1.5" strokeMiterlimit="10" />
  <path d="M14.2823 34.8466V32.0021" strokeWidth="1.5" strokeMiterlimit="10" />
  <path d="M24.6813 28.4085V25.5641" strokeWidth="1.5" strokeMiterlimit="10" />
  <path d="M24.6813 34.8466V32.0021" strokeWidth="1.5" strokeMiterlimit="10" />
  <path d="M29.9662 34.8466V32.0021" strokeWidth="1.5" strokeMiterlimit="10" />
  <path d="M26.1407 16.4501H33.792" strokeWidth="1.5" strokeMiterlimit="10" />
  <path
    d="M26.1408 19.9933H12.6512V23.1655H26.1408V19.9933Z"
    stroke="#333333"
    strokeWidth="1.5"
    strokeMiterlimit="10"
  />
  <path
    d="M41.9707 25.4851C41.5969 25.4921 41.2157 25.5488 40.8419 25.6758C40.3974 24.8845 39.72 24.1572 38.8382 23.6202C37.1308 22.5819 35.1484 22.5253 33.7938 23.3376C33.3354 23.6059 32.9473 23.9732 32.658 24.4395C32.2416 25.1388 32.1077 25.9371 32.2276 26.7494C31.3244 26.7564 30.5062 27.0531 29.9629 27.5901C29.7372 27.8091 29.5607 28.0704 29.4409 28.3671C29.3703 28.5507 29.321 28.7344 29.2928 28.925C29.2928 28.925 28.7355 31.8849 32.1357 32.4996C32.1357 32.4996 31.4656 35.0001 33.7935 35.9254C34.1181 36.0524 34.5059 36.1514 34.9646 36.2081C35.6348 36.2928 36.2276 36.2081 36.7353 36.0384C37.476 35.7981 38.0616 35.3745 38.5273 35.0355C38.5839 34.9931 38.6401 34.9508 38.6897 34.9155C38.7037 34.9225 38.725 34.9368 38.739 34.9438C39.8466 35.5301 41.0247 35.6924 41.9701 35.4664"
    stroke="#333333"
    strokeWidth="1.5"
    strokeMiterlimit="10"
  />
  <path
    d="M36.7378 35.7367V40.0081H38.5276V35.0301"
    stroke="#333333"
    strokeWidth="1.5"
    strokeMiterlimit="10"
  />
  <path
    d="M42.8669 31.1502C43.7557 32.1532 44.0733 33.3755 43.5793 34.3221C43.2687 34.9084 42.6905 35.297 41.9708 35.4664C41.0253 35.6924 39.8472 35.53 38.7397 34.9437C38.7257 34.9367 38.7044 34.9224 38.6904 34.9154C38.6411 34.9507 38.5845 34.9931 38.5279 35.0354C38.0622 35.3744 37.4767 35.7984 36.736 36.0384C36.228 36.208 35.6354 36.2927 34.9653 36.208C34.5066 36.1514 34.1187 36.0527 33.7942 35.9254C31.4662 35.0001 32.1363 32.4995 32.1363 32.4995C28.7358 31.8849 29.2934 28.925 29.2934 28.925C29.3217 28.7343 29.371 28.5507 29.4415 28.367C29.5614 28.0703 29.7378 27.809 29.9635 27.59C30.5068 27.0531 31.3251 26.7564 32.2282 26.7494C32.1084 25.9371 32.2422 25.1388 32.6586 24.4395C32.9479 23.9732 33.3358 23.6059 33.7945 23.3375C35.149 22.5252 37.1314 22.5816 38.8388 23.6202C39.7207 24.1571 40.3981 24.8845 40.8425 25.6758C41.2164 25.5488 41.5975 25.4921 41.9714 25.4851C43.2343 25.4638 44.3842 26.1351 44.8216 27.258C45.4002 28.7343 44.5253 30.4579 42.8675 31.1502H42.8669Z"
    stroke="#333333"
    strokeWidth="1.5"
    strokeMiterlimit="10"
  />
</svg>
