<svg width="48" height="48" viewBox="0 0 48 48" fill="none" xmlns="http://www.w3.org/2000/svg">
<path d="M38.49 37.8154H13.3125V40.7779H38.49V37.8154Z" fill="white" stroke="#333333" stroke-width="1.5" stroke-miterlimit="10"/>
<path d="M28.2305 23.1454H38.798V20.9329L28.6055 17.5054" fill="white"/>
<path d="M28.2305 23.1454H38.798V20.9329L28.6055 17.5054" stroke="#333333" stroke-width="1.5" stroke-miterlimit="10"/>
<path d="M35.5198 30.6V23.145H32.2273V29.61H32.2198V34.9575L31.0723 37.815H36.6673L35.5198 34.9575V30.6Z" fill="white" stroke="#333333" stroke-width="1.5" stroke-miterlimit="10"/>
<path d="M24.2481 29.1153V29.6103V34.9578L23.1006 37.8153H28.6956L27.5481 34.9578V30.6003V25.0278" fill="white"/>
<path d="M24.2481 29.1153V29.6103V34.9578L23.1006 37.8153H28.6956L27.5481 34.9578V30.6003V25.0278" stroke="#333333" stroke-width="1.5" stroke-miterlimit="10"/>
<path d="M16.2754 30.8779V34.9579L15.1279 37.8154H20.7229L19.5754 34.9579V31.7704" fill="white"/>
<path d="M16.2754 30.8779V34.9579L15.1279 37.8154H20.7229L19.5754 34.9579V31.7704" stroke="#333333" stroke-width="1.5" stroke-miterlimit="10"/>
<path d="M18.8631 7.22267C22.1487 7.21982 25.4149 7.72582 28.5456 8.72267L28.6056 20.2802C28.6111 22.1399 28.1498 23.9713 27.264 25.6066C26.3782 27.2419 25.0963 28.6287 23.5356 29.6402L21.1131 31.1927C20.4722 31.5971 19.7298 31.8118 18.9719 31.8118C18.214 31.8118 17.4716 31.5971 16.8306 31.1927L14.4006 29.6477C12.8212 28.6552 11.5171 27.2809 10.6087 25.6516C9.70036 24.0223 9.21696 22.1905 9.20312 20.3252V8.76767C12.3252 7.76203 15.5831 7.24098 18.8631 7.22267V7.22267Z" fill="#E07D21" stroke="#E07D21" stroke-width="1.5" stroke-miterlimit="10"/>
<path d="M15.4277 23.6626C16.4084 24.4748 17.6419 24.9193 18.9152 24.9193C20.1886 24.9193 21.422 24.4748 22.4027 23.6626V23.6626" stroke="#333333" stroke-width="1.5" stroke-miterlimit="10"/>
<path d="M17.3472 16.9651C16.0647 15.2851 14.2122 15.2851 12.9297 16.9651" stroke="#333333" stroke-width="1.5" stroke-miterlimit="10"/>
<path d="M24.8999 16.9651C23.6174 15.2851 21.7574 15.2851 20.4824 16.9651" stroke="#333333" stroke-width="1.5" stroke-miterlimit="10"/>
</svg>
