<svg width="48" height="48" viewBox="0 0 48 48" fill="none" xmlns="http://www.w3.org/2000/svg">
<path d="M20.177 33.7539C20.3722 33.9492 20.3721 34.2656 20.1769 34.4608L19.5713 35.0664C19.4775 35.1602 19.4248 35.2874 19.4248 35.42V36.5625C20.2487 36.8674 20.8368 37.658 20.8369 38.5879C20.8369 39.7816 19.8695 40.7497 18.6758 40.75C17.4819 40.75 16.5137 39.7818 16.5137 38.5879C16.5138 37.6584 17.1013 36.8677 17.9248 36.5625V35.005C17.9248 34.7398 18.0302 34.4855 18.2177 34.2979L19.116 33.3996C19.3113 33.2043 19.628 33.2044 19.8233 33.3998L20.177 33.7539ZM29.7813 34.2979C29.9689 34.4855 30.0742 34.7398 30.0742 35.005V36.5625C30.8979 36.8675 31.4852 37.6581 31.4854 38.5879C31.4854 39.7817 30.5179 40.7498 29.3242 40.75C28.1305 40.7498 27.1621 39.7817 27.1621 38.5879C27.1622 37.6582 27.7505 36.8676 28.5742 36.5625V35.419C28.5742 35.2864 28.5215 35.1592 28.4278 35.0655L27.7461 34.3838C27.5509 34.1886 27.5509 33.872 27.7461 33.6767L28.0996 33.3233C28.2948 33.128 28.6114 33.128 28.8067 33.3233L29.7813 34.2979ZM18.6758 37.9268C18.3104 37.9268 18.0138 38.2226 18.0137 38.5879C18.0137 38.9534 18.3104 39.25 18.6758 39.25C19.0411 39.2497 19.3369 38.9532 19.3369 38.5879C19.3367 38.2228 19.041 37.9271 18.6758 37.9268ZM29.3242 37.9268C28.959 37.927 28.6623 38.2228 28.6621 38.5879C28.6621 38.9533 28.9589 39.2498 29.3242 39.25C29.6895 39.2498 29.9854 38.9533 29.9854 38.5879C29.9852 38.2227 29.6895 37.9269 29.3242 37.9268ZM24.75 34.918C25.5735 35.223 26.161 36.0137 26.1611 36.9434C26.161 38.137 25.1937 39.1053 24 39.1055C22.8061 39.1054 21.838 38.137 21.8379 36.9434C21.838 36.0136 22.4262 35.223 23.25 34.918V34C23.25 33.7239 23.4739 33.5 23.75 33.5H24.25C24.5261 33.5 24.75 33.7239 24.75 34V34.918ZM24 36.2822C23.6346 36.2823 23.3381 36.5781 23.3379 36.9434C23.338 37.3087 23.6346 37.6054 24 37.6055C24.3652 37.6053 24.661 37.3086 24.6611 36.9434C24.661 36.5781 24.3652 36.2824 24 36.2822ZM19.1215 19.7183C19.2556 19.9596 19.1687 20.264 18.9273 20.3981L16.0557 21.9941V31.0137H18.5C18.7761 31.0137 19 31.2375 19 31.5137V32.0137C19 32.2898 18.7761 32.5137 18.5 32.5137H13.1016C12.8254 32.5137 12.6016 32.2898 12.6016 32.0137V31.5137C12.6016 31.2375 12.8254 31.0137 13.1016 31.0137H14.5557V21.6996C14.5557 21.3365 14.7525 21.0019 15.0699 20.8255L18.1986 19.0867C18.44 18.9525 18.7445 19.0395 18.8786 19.2809L19.1215 19.7183ZM26.3057 15.5771H27.0166C27.2927 15.5771 27.5166 15.801 27.5166 16.0771V21.5127C27.5166 21.7888 27.2927 22.0127 27.0166 22.0127H26.5166C26.2405 22.0127 26.0166 21.7888 26.0166 21.5127V17.0771H21.6279V31.0137H24.5C24.7761 31.0137 25 31.2375 25 31.5137V32.0137C25 32.2898 24.7761 32.5137 24.5 32.5137H20.6279C20.3518 32.5137 20.1279 32.2898 20.1279 32.0137V16.0771C20.1279 15.801 20.3518 15.5771 20.6279 15.5771H24.8057V15.126C24.8057 14.8498 25.0295 14.626 25.3057 14.626H25.8057C26.0818 14.626 26.3057 14.8498 26.3057 15.126V15.5771ZM30.2246 21.5664L33.1029 24.085C33.3199 24.2749 33.4443 24.5492 33.4443 24.8375V31.0137H34.8984C35.1746 31.0137 35.3984 31.2375 35.3984 31.5137V32.0137C35.3984 32.2898 35.1746 32.5137 34.8984 32.5137H26.5166C26.2405 32.5137 26.0166 32.2898 26.0166 32.0137V24.8376C26.0166 24.5492 26.1411 24.2749 26.3582 24.085L29.2367 21.5668C29.5195 21.3194 29.9416 21.3192 30.2246 21.5664ZM27.5166 25.0654V31.0137H31.9443V25.0654L29.7305 23.1279L27.5166 25.0654ZM18.75 29.7666C18.75 30.0427 18.5261 30.2666 18.25 30.2666H17.75C17.4739 30.2666 17.25 30.0427 17.25 29.7666V23.0332C17.25 22.7571 17.4739 22.5332 17.75 22.5332H18.25C18.5261 22.5332 18.75 22.7571 18.75 23.0332V29.7666ZM26.2178 7.25C30.7122 7.25006 34.3905 10.734 34.7051 15.1484C38.1485 15.8108 40.7498 18.8371 40.75 22.4736C40.75 24.317 40.3212 26.062 39.3838 27.4121C38.5163 28.6613 37.2372 29.5345 35.5718 29.8277C35.2997 29.8756 35.0534 29.6736 35.0254 29.3988L34.9746 28.9014C34.9465 28.6268 35.1473 28.3842 35.4181 28.3307C36.6343 28.0903 37.5296 27.4518 38.1514 26.5566C38.8686 25.5236 39.25 24.1027 39.25 22.4736C39.2498 19.3888 36.9057 16.8501 33.9023 16.543L33.6779 16.5203C33.4215 16.4944 33.2267 16.2777 33.2282 16.02L33.2295 15.793V15.7617C33.2293 11.8894 30.0901 8.75006 26.2178 8.75C23.2021 8.75 20.6293 10.6548 19.6396 13.3291L19.5369 13.6067C19.4294 13.8974 19.0859 14.0212 18.8176 13.8659L18.5615 13.7178C18.2151 13.5177 17.814 13.4034 17.3848 13.4033C16.1634 13.4033 15.1581 14.3311 15.0371 15.5205L15.0254 15.7617V15.7666L15.0286 16.0043C15.0323 16.2705 14.8266 16.4929 14.5609 16.5101L14.3232 16.5254C11.2122 16.7253 8.75021 19.3119 8.75 22.4736C8.75004 24.1018 9.1303 25.4452 9.83594 26.4033C10.4489 27.2355 11.3439 27.8292 12.5815 28.0607C12.8528 28.1115 13.0535 28.3543 13.0254 28.6289L12.9746 29.1263C12.9466 29.4011 12.7004 29.603 12.428 29.5568C10.7848 29.278 9.50457 28.4832 8.62793 27.293C7.67885 26.0043 7.25004 24.3178 7.25 22.4736C7.2502 18.7368 9.99717 15.6446 13.582 15.0996C13.8962 13.284 15.4793 11.9033 17.3848 11.9033C17.788 11.9034 18.1763 11.9678 18.542 12.083C19.9141 9.22536 22.8339 7.25 26.2178 7.25ZM29.2412 28.5811C29.2412 28.8572 29.0174 29.0811 28.7412 29.0811H28.6738C28.3977 29.0811 28.1738 28.8572 28.1738 28.5811V28.0811C28.1738 27.8049 28.3977 27.5811 28.6738 27.5811H28.7412C29.0174 27.5811 29.2412 27.8049 29.2412 28.0811V28.5811ZM31.2559 28.5811C31.2559 28.8572 31.032 29.0811 30.7559 29.0811H30.6885C30.4123 29.0811 30.1885 28.8572 30.1885 28.5811V28.0811C30.1885 27.8049 30.4123 27.5811 30.6885 27.5811H30.7559C31.032 27.5811 31.2559 27.8049 31.2559 28.0811V28.5811ZM29.2412 26.6475C29.2412 26.9236 29.0174 27.1475 28.7412 27.1475H28.6738C28.3977 27.1475 28.1738 26.9236 28.1738 26.6475V26.1475C28.1738 25.8713 28.3977 25.6475 28.6738 25.6475H28.7412C29.0174 25.6475 29.2412 25.8713 29.2412 26.1475V26.6475ZM31.2559 26.6475C31.2559 26.9236 31.032 27.1475 30.7559 27.1475H30.6885C30.4123 27.1475 30.1885 26.9236 30.1885 26.6475V26.1475C30.1885 25.8713 30.4123 25.6475 30.6885 25.6475H30.7559C31.032 25.6475 31.2559 25.8713 31.2559 26.1475V26.6475ZM25 27.7646C25 28.0408 24.7761 28.2646 24.5 28.2646H23.0342C22.758 28.2646 22.5342 28.0408 22.5342 27.7646V27.2646C22.5342 26.9885 22.758 26.7646 23.0342 26.7646H24.5C24.7761 26.7646 25 26.9885 25 27.2646V27.7646ZM25 24.8818C25 25.158 24.7761 25.3818 24.5 25.3818H23.0342C22.758 25.3818 22.5342 25.158 22.5342 24.8818V24.3818C22.5342 24.1057 22.758 23.8818 23.0342 23.8818H24.5C24.7761 23.8818 25 24.1057 25 24.3818V24.8818ZM25 21.998C25 22.2742 24.7761 22.498 24.5 22.498H23.0342C22.758 22.498 22.5342 22.2742 22.5342 21.998V21.498C22.5342 21.2219 22.758 20.998 23.0342 20.998H24.5C24.7761 20.998 25 21.2219 25 21.498V21.998ZM25 19.1152C25 19.3914 24.7761 19.6152 24.5 19.6152H23.0342C22.758 19.6152 22.5342 19.3914 22.5342 19.1152V18.6152C22.5342 18.3391 22.758 18.1152 23.0342 18.1152H24.5C24.7761 18.1152 25 18.3391 25 18.6152V19.1152Z" fill="currentColor"/>
</svg>
