<svg width="48" height="48" viewBox="0 0 48 48" fill="none" xmlns="http://www.w3.org/2000/svg">
<path d="M22.7578 25.2422H36.7002V25.9922C36.6999 34.1015 30.1263 40.75 22.0078 40.75C13.8941 40.7497 7.25026 34.1059 7.25 25.9922C7.25 17.8736 13.8986 11.3001 22.0078 11.2998H22.7578V25.2422ZM13.1924 35.8682C15.5405 37.968 18.6332 39.2499 22.0078 39.25C29.0373 39.25 34.7897 33.6872 35.1787 26.7422H22.3193L13.1924 35.8682ZM12.1475 17.1914C10.0386 19.5267 8.75 22.6109 8.75 25.9922C8.75012 29.3669 10.032 32.4595 12.1318 34.8076L20.9482 25.9922L12.1475 17.1914ZM21.2578 12.8223C18.1846 12.9944 15.3826 14.2174 13.2129 16.1357L21.2578 24.1807V12.8223ZM25.9922 7.25C34.1141 7.25027 40.75 13.8869 40.75 22.0088V22.7588H25.2422V7.25H25.9922ZM26.7422 21.2588H39.2285C38.8505 14.5591 33.4418 9.15077 26.7422 8.77246V21.2588Z" fill="currentColor"/>
</svg>
