<svg width="48" height="48" viewBox="0 0 48 48" fill="none" xmlns="http://www.w3.org/2000/svg">
<path d="M35.0784 23.0801C35.1736 22.9853 35.3267 22.9828 35.4251 23.0742L35.928 23.542C35.9773 23.5879 36.0061 23.6523 36.0081 23.7197C36.0096 23.7734 36.011 23.8272 36.011 23.8809C36.0108 27.7479 34.1215 31.1741 31.22 33.2871C30.7085 33.6596 30.407 33.9963 30.2278 34.3242C30.1179 34.5256 30.0428 34.7439 30.0022 34.9961H30.3606C30.8441 34.9964 31.2404 35.3881 31.2405 35.876V38.0342C31.2405 38.4601 30.9385 38.8125 30.5403 38.8955V40.4531C30.5401 40.8812 30.2347 41.2341 29.8333 41.3145V42.8701C29.8333 43.3583 29.4372 43.75 28.9534 43.75H19.5423C19.0587 43.7497 18.6624 43.3581 18.6624 42.8701V41.3154C18.2582 41.2373 17.9507 40.8832 17.9505 40.4531V38.8955C17.552 38.8127 17.2503 38.4603 17.2503 38.0342V35.876C17.2504 35.3879 17.6465 34.9962 18.1302 34.9961H18.7581C18.7175 34.744 18.6433 34.5255 18.5335 34.3242C18.3543 33.9963 18.0518 33.6597 17.5403 33.2871C16.8122 32.7568 16.1484 32.1428 15.5618 31.4609C15.4777 31.3632 15.4844 31.2172 15.5755 31.126L16.2845 30.418C16.3896 30.3128 16.5631 30.3222 16.6595 30.4355C17.1804 31.0486 17.7726 31.5998 18.4241 32.0742C19.0525 32.5319 19.533 33.0245 19.8499 33.6045C20.0909 34.0458 20.221 34.5083 20.2708 34.9961H22.1155L20.8665 31.3281C20.7427 30.9648 20.8943 30.5649 21.2278 30.375L22.4114 29.7012C22.718 29.5269 23.0941 29.5267 23.4007 29.7012L24.2483 30.1846L25.097 29.7012C25.4035 29.5268 25.7796 29.5268 26.0862 29.7012L27.2698 30.375C27.603 30.565 27.7548 30.965 27.6311 31.3281L26.3821 34.9961H28.4905C28.5403 34.5083 28.6704 34.0458 28.9114 33.6045C29.2283 33.0246 29.7088 32.5319 30.3372 32.0742C32.8677 30.2313 34.5108 27.2479 34.511 23.8809C34.511 23.8405 34.5094 23.8001 34.5081 23.7598C34.5058 23.6916 34.5322 23.6254 34.5804 23.5771L35.0784 23.0801ZM20.1624 42.25H28.3333V41.333H20.1624V42.25ZM19.4505 39.833H29.0403V38.9141H19.4505V39.833ZM18.7503 37.4141H29.7405V36.4961H18.7503V37.4141ZM24.6194 31.6992L24.2483 31.9102L23.8782 31.6992L22.9055 31.1465L22.472 31.3926L23.7005 34.9961H24.7971L26.0237 31.3926L25.5911 31.1465L24.6194 31.6992ZM37.2962 14.9668C37.8625 14.8319 38.379 15.3282 38.2669 15.8994L37.2425 21.1094C37.1331 21.6649 36.4909 21.9055 36.0471 21.5938L35.9622 21.5234L35.2122 20.8242L32.263 23.7734L31.5638 24.4697C31.1732 24.8583 30.5416 24.8581 30.1516 24.4688L29.4534 23.7715L29.4524 23.7725L28.5061 22.8271L22.8323 28.541L22.7571 28.6094C22.3676 28.9298 21.7914 28.9119 21.4231 28.5518L18.6956 25.8857L13.7405 30.8398C13.5061 31.0742 13.1882 31.2061 12.8567 31.2061H11.4427C10.9569 31.2058 10.5628 30.812 10.5628 30.3262V28.9121C10.5628 28.5808 10.6947 28.2627 10.929 28.0283L17.2874 21.6699L17.9866 20.9775C18.3762 20.5919 19.0041 20.5921 19.3938 20.9775L20.094 21.6699L20.096 21.6729L22.0647 23.6416L27.7981 17.9082C28.1885 17.518 28.8217 17.5182 29.2122 17.9082L30.8577 19.5547L32.2864 18.127L31.5999 17.6357C31.0628 17.2516 31.2261 16.4131 31.8684 16.2598L37.2962 14.9668ZM33.7766 17.3477L33.8792 17.4199L34.5989 17.9346L33.9729 18.5605L31.3889 21.1455L30.8587 21.6758L28.5052 19.3223L22.0647 25.7627L19.0354 22.7334L18.6897 22.3916L18.344 22.7334H18.345L12.0628 29.0156V29.7061H12.7532L18.1604 24.2998L18.6848 23.7754L19.2151 24.2939L22.1165 27.1328L27.9729 21.2363L28.5032 20.7021L29.0354 21.2334L30.8587 23.0557L31.2044 22.7109L35.1761 18.7393L35.7054 19.2334L36.0237 19.5312L36.5852 16.6787L33.7766 17.3477ZM24.3802 12.249C26.9321 12.2491 29.2911 13.074 31.2083 14.4678C31.3769 14.5903 31.3202 14.8492 31.1175 14.8975L29.7737 15.2168C29.7093 15.2321 29.641 15.2216 29.5843 15.1875C28.0631 14.2744 26.283 13.75 24.3802 13.75C22.4935 13.75 20.7294 14.267 19.218 15.1641L19.2102 15.168L18.8518 15.3867C17.103 16.5092 16.0059 18.0584 15.6848 18.6797L15.6634 18.7188L15.4993 19.0049C14.9288 20.0415 14.5343 21.1889 14.3567 22.4072C14.3488 22.4611 14.3239 22.5113 14.2854 22.5498L12.8948 23.9404C12.8412 23.9936 12.7503 23.9565 12.7503 23.8809C12.7503 21.852 13.2713 19.9426 14.1858 18.2812L14.3733 17.9521C14.8442 17.0637 16.2447 15.1493 18.4602 13.8701C20.1948 12.8423 22.2194 12.2491 24.3802 12.249ZM7.12527 14.7002C7.26336 14.4611 7.56877 14.3795 7.80789 14.5176L11.9495 16.9082C12.1886 17.0463 12.2701 17.3517 12.1321 17.5908L11.8821 18.0244C11.744 18.2633 11.4385 18.345 11.1995 18.207L7.05789 15.8164C6.81875 15.6783 6.7372 15.372 6.87527 15.1328L7.12527 14.7002ZM40.5325 14.5107C40.7716 14.3729 41.0771 14.4543 41.2151 14.6934L41.4651 15.126C41.6029 15.365 41.5213 15.6715 41.2825 15.8096L40.1018 16.4902C39.916 16.5969 39.6904 16.435 39.7317 16.2246L39.9661 15.0342C39.9941 14.8925 40.0821 14.7693 40.2073 14.6973L40.5325 14.5107ZM14.4798 7.5332C14.7189 7.39513 15.0253 7.47765 15.1634 7.7168L17.554 11.8584C17.6919 12.0975 17.6104 12.403 17.3714 12.541L16.9388 12.791C16.6997 12.929 16.3933 12.8474 16.2552 12.6084L13.8645 8.4668C13.7265 8.22765 13.808 7.92127 14.0471 7.7832L14.4798 7.5332ZM33.1819 7.71191C33.32 7.47291 33.6255 7.39144 33.8645 7.5293L34.2981 7.7793C34.5371 7.91742 34.6188 8.22283 34.4807 8.46191L32.0901 12.6035C31.952 12.8427 31.6457 12.9242 31.4065 12.7861L30.9739 12.5361C30.7349 12.398 30.6533 12.0926 30.7913 11.8535L33.1819 7.71191ZM24.4182 5C24.6942 5.00021 24.9182 5.22398 24.9182 5.5V10.2822C24.9182 10.5582 24.6942 10.782 24.4182 10.7822H23.9182C23.6421 10.7822 23.4182 10.5584 23.4182 10.2822V5.5C23.4182 5.22386 23.6421 5 23.9182 5H24.4182Z" fill="currentColor"/>
</svg>
