<svg width="48" height="48" viewBox="0 0 48 48" fill="none" xmlns="http://www.w3.org/2000/svg">
<path d="M34.6011 24.5024V29.5049C34.5913 30.5176 34.1826 31.4854 33.4637 32.1987C32.7449 32.9119 31.7738 33.313 30.7611 33.3149H25.6611" stroke="#333333" stroke-width="1.5" stroke-miterlimit="10"/>
<path d="M25.1809 31.1698H10.3309C9.31762 31.1659 8.34701 30.7616 7.63054 30.0452C6.91407 29.3287 6.50981 28.3581 6.50586 27.3448V15.9148C6.50784 14.901 6.91147 13.9292 7.62837 13.2123C8.34526 12.4955 9.31702 12.0918 10.3309 12.0898H29.0809C30.0954 12.0918 31.0679 12.4952 31.786 13.2119C32.5041 13.9286 32.9094 14.9003 32.9134 15.9148V24.0448" stroke="#333333" stroke-width="1.5" stroke-miterlimit="10"/>
<path d="M11.5309 18.0674H13.9984V21.7349C13.9965 22.0618 13.8652 22.3746 13.6333 22.6051C13.4015 22.8355 13.0878 22.9649 12.7609 22.9649V22.9649C12.4327 22.9649 12.118 22.8345 11.8859 22.6024C11.6538 22.3704 11.5234 22.0556 11.5234 21.7274V18.0674H11.5309Z" stroke="#333333" stroke-width="1.5" stroke-miterlimit="10"/>
<path d="M25.1804 18.0674H27.6479V21.7349C27.6479 22.0631 27.5175 22.3779 27.2854 22.6099C27.0533 22.842 26.7386 22.9724 26.4104 22.9724C26.0821 22.9724 25.7674 22.842 25.5353 22.6099C25.3032 22.3779 25.1729 22.0631 25.1729 21.7349V18.0674H25.1804Z" stroke="#333333" stroke-width="1.5" stroke-miterlimit="10"/>
<path d="M27.6484 19.77H32.8759" stroke="#333333" stroke-width="1.5" stroke-miterlimit="10"/>
<path d="M13.998 19.77H25.1805" stroke="#333333" stroke-width="1.5" stroke-miterlimit="10"/>
<path d="M6.50586 19.77H11.5309" stroke="#333333" stroke-width="1.5" stroke-miterlimit="10"/>
<path d="M15.0109 8.3999H24.3334C24.817 8.3999 25.2958 8.49515 25.7426 8.68022C26.1894 8.86528 26.5954 9.13653 26.9373 9.47848C27.2793 9.82043 27.5505 10.2264 27.7356 10.6732C27.9206 11.12 28.0159 11.5988 28.0159 12.0824H11.3584C11.3584 11.1109 11.7422 10.1788 12.4263 9.48903C13.1105 8.79928 14.0394 8.40782 15.0109 8.3999V8.3999Z" stroke="#333333" stroke-width="1.5" stroke-miterlimit="10"/>
<path d="M31.9832 37.5825C35.7401 37.5825 38.7857 34.537 38.7857 30.78C38.7857 27.0231 35.7401 23.9775 31.9832 23.9775C28.2262 23.9775 25.1807 27.0231 25.1807 30.78C25.1807 34.537 28.2262 37.5825 31.9832 37.5825Z" stroke="#333333" stroke-width="1.5" stroke-miterlimit="10"/>
<path d="M37.1211 35.2275L41.4936 39.6" stroke="#333333" stroke-width="1.5" stroke-miterlimit="10"/>
<path d="M28.2783 30.2022C28.2783 29.8024 28.3571 29.4064 28.5101 29.037C28.6631 28.6675 28.8874 28.3318 29.1702 28.0491C29.4529 27.7663 29.7886 27.542 30.158 27.389C30.5275 27.236 30.9234 27.1572 31.3233 27.1572" stroke="#333333" stroke-width="1.5" stroke-miterlimit="10"/>
<path d="M17.958 15.7871H21.4155" stroke="#333333" stroke-width="1.5" stroke-miterlimit="10"/>
</svg>
