<svg width="48" height="48" viewBox="0 0 48 48" fill="none" xmlns="http://www.w3.org/2000/svg">
<path d="M19.3359 21.8096L28.6959 15.8096" stroke="#333333" stroke-width="1.5" stroke-miterlimit="10"/>
<path d="M28.6959 32.1602L19.3359 26.1602" stroke="#333333" stroke-width="1.5" stroke-miterlimit="10"/>
<path d="M15.9059 28.0697C16.7109 28.0697 17.4978 27.831 18.1671 27.3838C18.8364 26.9366 19.3581 26.3009 19.6661 25.5572C19.9742 24.8135 20.0548 23.9952 19.8977 23.2057C19.7407 22.4162 19.3531 21.691 18.7839 21.1218C18.2147 20.5526 17.4895 20.1649 16.7 20.0079C15.9105 19.8509 15.0921 19.9315 14.3484 20.2395C13.6047 20.5475 12.9691 21.0692 12.5219 21.7385C12.0746 22.4078 11.8359 23.1947 11.8359 23.9997C11.8359 25.0791 12.2647 26.1143 13.028 26.8776C13.7913 27.6409 14.8265 28.0697 15.9059 28.0697V28.0697Z" stroke="#333333" stroke-width="1.5" stroke-miterlimit="10"/>
<path d="M32.1354 17.7199C32.9386 17.712 33.7215 17.4666 34.3856 17.0146C35.0496 16.5626 35.565 15.9242 35.8669 15.1799C36.1689 14.4355 36.2438 13.6185 36.0822 12.8316C35.9207 12.0448 35.53 11.3233 34.9592 10.7581C34.3884 10.1929 33.6632 9.80924 32.8748 9.65541C32.0864 9.50158 31.2701 9.58448 30.5288 9.89367C29.7874 10.2029 29.1541 10.7245 28.7086 11.3929C28.2632 12.0613 28.0254 12.8466 28.0254 13.6499C28.0254 14.1877 28.1319 14.7203 28.339 15.2167C28.546 15.7131 28.8494 16.1636 29.2316 16.542C29.6138 16.9205 30.0672 17.2195 30.5656 17.4216C31.064 17.6238 31.5976 17.7252 32.1354 17.7199V17.7199Z" stroke="#333333" stroke-width="1.5" stroke-miterlimit="10"/>
<path d="M32.1354 38.4201C32.9386 38.4122 33.7215 38.1668 34.3856 37.7148C35.0496 37.2628 35.565 36.6244 35.8669 35.8801C36.1689 35.1357 36.2438 34.3187 36.0822 33.5318C35.9207 32.745 35.53 32.0235 34.9592 31.4583C34.3884 30.8931 33.6632 30.5094 32.8748 30.3556C32.0864 30.2018 31.2701 30.2847 30.5288 30.5939C29.7874 30.9031 29.1541 31.4247 28.7086 32.0931C28.2632 32.7615 28.0254 33.5468 28.0254 34.3501C28.0254 34.8879 28.1319 35.4205 28.339 35.9169C28.546 36.4133 28.8494 36.8638 29.2316 37.2422C29.6138 37.6207 30.0672 37.9197 30.5656 38.1218C31.064 38.324 31.5976 38.4254 32.1354 38.4201V38.4201Z" stroke="#333333" stroke-width="1.5" stroke-miterlimit="10"/>
</svg>
