<svg width="48" height="48" viewBox="0 0 48 48" fill="none" xmlns="http://www.w3.org/2000/svg">
<path d="M24.8269 25.2201L13.4069 21.5401C12.7393 21.3549 12.0336 21.3568 11.367 21.5455C10.7003 21.7342 10.0984 22.1025 9.62688 22.6101L6.04688 26.2701V38.6701L12.9869 36.4401C13.9277 36.0214 14.9646 35.8659 15.9869 35.9901L23.9869 36.9901C25.343 37.1342 26.7057 36.7864 27.8269 36.0101L40.8269 27.2901C41.377 26.9211 41.7612 26.3518 41.8976 25.7036C42.034 25.0554 41.9117 24.3795 41.5569 23.8201V23.8201C41.3779 23.5366 41.1445 23.2915 40.87 23.099C40.5955 22.9065 40.2855 22.7704 39.9579 22.6988C39.6304 22.6271 39.2919 22.6213 38.9621 22.6816C38.6324 22.7419 38.3178 22.8672 38.0369 23.0501L27.8269 29.6601" stroke="#333333" stroke-width="1.5" stroke-miterlimit="10"/>
<path d="M15.8271 27.8102L24.9671 30.6002C25.6023 30.7865 26.2851 30.7185 26.871 30.4106C27.457 30.1027 27.9003 29.579 28.1071 28.9502C28.2097 28.6318 28.2484 28.2962 28.2209 27.9628C28.1934 27.6294 28.1004 27.3047 27.947 27.0074C27.7937 26.71 27.5832 26.4459 27.3275 26.2302C27.0718 26.0144 26.776 25.8513 26.4571 25.7502L24.8271 25.2102" stroke="#333333" stroke-width="1.5" stroke-miterlimit="10"/>
<path d="M22.8273 18.1101C22.2841 18.1101 21.7462 18.2173 21.2445 18.4254C20.7428 18.6336 20.287 18.9387 19.9034 19.3233C19.5197 19.7079 19.2157 20.1643 19.0088 20.6666C18.8018 21.1688 18.696 21.7069 18.6973 22.2501V23.2501" stroke="#333333" stroke-width="1.5" stroke-miterlimit="10"/>
<path d="M27.6572 18.1103C28.2038 18.105 28.746 18.2083 29.2523 18.4141C29.7587 18.6199 30.2191 18.9241 30.607 19.3092C30.9949 19.6943 31.3025 20.1526 31.512 20.6574C31.7214 21.1623 31.8286 21.7037 31.8272 22.2503V27.0703" stroke="#333333" stroke-width="1.5" stroke-miterlimit="10"/>
<path d="M24.9576 9.33008H25.4976C26.4099 9.33008 27.2849 9.69251 27.93 10.3376C28.5752 10.9828 28.9376 11.8577 28.9376 12.7701V15.7201C28.9376 16.1692 28.8491 16.6139 28.6772 17.0289C28.5054 17.4438 28.2535 17.8208 27.9359 18.1384C27.6183 18.456 27.2413 18.7079 26.8264 18.8797C26.4114 19.0516 25.9667 19.1401 25.5176 19.1401H24.9776C24.5232 19.1401 24.0733 19.0506 23.6535 18.8767C23.2337 18.7028 22.8523 18.448 22.531 18.1267C22.2097 17.8054 21.9548 17.4239 21.781 17.0042C21.6071 16.5844 21.5176 16.1345 21.5176 15.6801V12.7701C21.5176 11.8577 21.88 10.9828 22.5251 10.3376C23.1703 9.69251 24.0452 9.33008 24.9576 9.33008V9.33008Z" stroke="#333333" stroke-width="1.5" stroke-miterlimit="10"/>
</svg>
