<svg width="48" height="48" viewBox="0 0 48 48" fill="none" xmlns="http://www.w3.org/2000/svg">
<path d="M39.0553 32.4399H8.94531V37.8499H39.0553V32.4399Z" stroke="#333333" stroke-width="1.5" stroke-miterlimit="10"/>
<path d="M39.0553 10.1499H8.94531V14.0799H39.0553V10.1499Z" stroke="#333333" stroke-width="1.5" stroke-miterlimit="10"/>
<path d="M39.0553 14.0801H8.94531V32.4401H39.0553V14.0801Z" stroke="#333333" stroke-width="1.5" stroke-miterlimit="10"/>
<path d="M17.3453 14.0801C17.3453 14.0801 16.8053 27.0801 8.94531 27.0801" stroke="#333333" stroke-width="1.5" stroke-miterlimit="10"/>
<path d="M14.3253 32.4401C14.3253 32.4401 13.9853 27.05 8.94531 27.05" stroke="#333333" stroke-width="1.5" stroke-miterlimit="10"/>
<path d="M30.6553 14.0801C30.6553 14.0801 31.1953 27.0801 39.0553 27.0801" stroke="#333333" stroke-width="1.5" stroke-miterlimit="10"/>
<path d="M33.665 32.4401C33.665 32.4401 34.015 27.05 39.055 27.05" stroke="#333333" stroke-width="1.5" stroke-miterlimit="10"/>
<path d="M17.345 14.0801H30.655C30.655 15.6502 30.0312 17.1559 28.921 18.2662C27.8108 19.3764 26.305 20.0001 24.735 20.0001H23.255C21.6849 20.0001 20.1791 19.3764 19.0689 18.2662C17.9587 17.1559 17.335 15.6502 17.335 14.0801V14.0801H17.345Z" stroke="#333333" stroke-width="1.5" stroke-miterlimit="10"/>
</svg>
