<svg width="48" height="48" viewBox="0 0 48 48" fill="none" xmlns="http://www.w3.org/2000/svg">
<path d="M31.3195 22.8514V12.2014L23.1595 9.92139L14.9995 12.2014L6.85449 9.92139V30.4564L11.602 31.7839" fill="white"/>
<path d="M31.3195 22.8514V12.2014L23.1595 9.92139L14.9995 12.2014L6.85449 9.92139V30.4564L11.602 31.7839" stroke="#333333" stroke-width="1.5" stroke-miterlimit="10"/>
<path d="M15.0146 12.2017V22.8517" stroke="#333333" stroke-width="1.5" stroke-miterlimit="10"/>
<path d="M23.1602 22.8512V9.92871" stroke="#333333" stroke-width="1.5" stroke-miterlimit="10"/>
<path d="M11.8125 29.189H41.145V33.8165C41.145 34.272 40.964 34.7088 40.642 35.0309C40.3199 35.353 39.883 35.534 39.4275 35.534H13.5C13.0497 35.5261 12.6205 35.3417 12.3049 35.0204C11.9893 34.6992 11.8124 34.2668 11.8125 33.8165V29.189Z" fill="#0F6D95"/>
<path d="M11.8125 29.1886V24.5686C11.8145 24.1137 11.9961 23.678 12.3177 23.3563C12.6394 23.0346 13.0751 22.853 13.53 22.8511H39.4275C39.8824 22.853 40.3181 23.0346 40.6398 23.3563C40.9614 23.678 41.143 24.1137 41.145 24.5686V29.1886H11.8125Z" fill="white"/>
<path d="M15.9225 35.5336H13.5C13.0503 35.5238 12.6223 35.3388 12.307 35.0179C11.9918 34.6971 11.8143 34.2659 11.8125 33.8161V24.5686C11.8145 24.1137 11.9961 23.678 12.3177 23.3563C12.6394 23.0346 13.0751 22.853 13.53 22.8511H39.4275C39.8824 22.853 40.3181 23.0346 40.6398 23.3563C40.9614 23.678 41.143 24.1137 41.145 24.5686V33.8161C41.143 34.271 40.9614 34.7067 40.6398 35.0284C40.3181 35.35 39.8824 35.5316 39.4275 35.5336H37.005" stroke="#333333" stroke-width="1.5" stroke-miterlimit="10"/>
<path d="M18.4724 32.9912C18.9765 32.9922 19.4693 33.1408 19.8899 33.4187C20.2049 33.6252 20.4696 33.8996 20.6646 34.2219C20.8596 34.5442 20.9799 34.906 21.0166 35.2809C21.0533 35.6558 21.0055 36.0341 20.8767 36.388C20.7479 36.742 20.5414 37.0626 20.2724 37.3262C19.9178 37.6852 19.4628 37.9284 18.9674 38.0237C18.4645 38.1298 17.9413 38.0801 17.4674 37.8812C16.9247 37.6555 16.477 37.2487 16.2004 36.73C15.9239 36.2114 15.8355 35.613 15.9505 35.0366C16.0654 34.4601 16.3765 33.9413 16.8308 33.5684C17.2851 33.1955 17.8546 32.9916 18.4424 32.9912H18.4724Z" fill="white" stroke="#333333" stroke-width="1.5" stroke-miterlimit="10"/>
<path d="M34.4553 32.9912C34.9594 32.9922 35.4522 33.1408 35.8728 33.4187C36.2933 33.6952 36.6202 34.0927 36.8103 34.5587C37.0003 35.024 37.0485 35.5352 36.9489 36.0278C36.8493 36.5205 36.6064 36.9727 36.2506 37.3277C35.8947 37.6827 35.442 37.9247 34.9491 38.0231C34.4562 38.1216 33.9452 38.0722 33.4803 37.8812C33.0131 37.6901 32.6137 37.3638 32.3331 36.9443C32.0525 36.5247 31.9035 36.0309 31.9053 35.5262C31.9093 34.8525 32.1797 34.2078 32.6574 33.7328C33.1352 33.2578 33.7816 32.9912 34.4553 32.9912V32.9912Z" fill="white" stroke="#333333" stroke-width="1.5" stroke-miterlimit="10"/>
<path d="M11.7822 29.189H41.1447" stroke="#333333" stroke-width="1.5" stroke-miterlimit="10"/>
<path d="M34.4629 22.8511V29.1886" stroke="#333333" stroke-width="1.5" stroke-miterlimit="10"/>
<path d="M26.4678 22.8511V29.1886" stroke="#333333" stroke-width="1.5" stroke-miterlimit="10"/>
<path d="M18.4648 22.8511V29.1886" stroke="#333333" stroke-width="1.5" stroke-miterlimit="10"/>
<path d="M31.905 35.5337H21.0225" stroke="#333333" stroke-width="1.5" stroke-miterlimit="10"/>
<path d="M41.1449 29.189V33.8165C41.1429 34.2714 40.9613 34.7071 40.6397 35.0287C40.318 35.3504 39.8823 35.532 39.4274 35.534H37.0049" stroke="#333333" stroke-width="1.5" stroke-miterlimit="10"/>
</svg>
