<svg width="48" height="48" viewBox="0 0 48 48" fill="none" xmlns="http://www.w3.org/2000/svg">
    <g clip-path="url(#clip0_234_6708)">
        <path d="M16.7494 19.6851V28.3151H12.1294V20.1151" stroke="#333333" stroke-width="1.5" stroke-miterlimit="10"/>
        <path d="M31.1294 19.795V28.315H35.7494V20.115" stroke="#333333" stroke-width="1.5" stroke-miterlimit="10"/>
        <path d="M12.2599 9.10498L9.78985 17.215C9.77893 17.9766 10.0671 18.7122 10.5925 19.2638C11.1179 19.8153 11.8386 20.1389 12.5999 20.165C13.3265 20.177 14.0302 19.91 14.5659 19.4189C15.1017 18.9278 15.4288 18.25 15.4798 17.525V17.525C15.5397 18.237 15.8648 18.9007 16.3908 19.3843C16.9168 19.868 17.6053 20.1364 18.3199 20.1364C19.0344 20.1364 19.7229 19.868 20.2489 19.3843C20.7749 18.9007 21.1 18.237 21.1599 17.525C21.2197 18.237 21.5448 18.9007 22.0708 19.3843C22.5968 19.868 23.2853 20.1364 23.9998 20.1364C24.7144 20.1364 25.4029 19.868 25.9289 19.3843C26.4549 18.9007 26.78 18.237 26.8398 17.525C26.8997 18.237 27.2248 18.9007 27.7508 19.3843C28.2768 19.868 28.9653 20.1364 29.6798 20.1364C30.3944 20.1364 31.0829 19.868 31.6089 19.3843C32.1349 18.9007 32.46 18.237 32.5198 17.525V17.525C32.5709 18.25 32.898 18.9278 33.4338 19.4189C33.9695 19.91 34.6732 20.177 35.3999 20.165C36.1611 20.1389 36.8818 19.8153 37.4072 19.2638C37.9326 18.7122 38.2208 17.9766 38.2098 17.215L35.8198 9.10498H12.2599Z" stroke="#333333" stroke-width="1.5" stroke-miterlimit="10"/>
        <path d="M35.7494 28.3151H12.1294V38.9051H35.7494V28.3151Z" stroke="#333333" stroke-width="1.5" stroke-miterlimit="10"/>
        <path d="M21.1997 17.525L21.7497 9.09497" stroke="#333333" stroke-width="1.5" stroke-miterlimit="10"/>
        <path d="M26.8991 17.525L26.3491 9.09497" stroke="#333333" stroke-width="1.5" stroke-miterlimit="10"/>
        <path d="M15.48 17.525L16.7 9.09497" stroke="#333333" stroke-width="1.5" stroke-miterlimit="10"/>
        <path d="M32.5796 17.525L31.3696 9.09497" stroke="#333333" stroke-width="1.5" stroke-miterlimit="10"/>
    </g>
    <defs>
        <clipPath id="clip0_234_6708">
            <rect width="48" height="48" fill="white"/>
        </clipPath>
    </defs>
</svg>
