<svg width="48" height="48" viewBox="0 0 48 48" fill="none" xmlns="http://www.w3.org/2000/svg">
    <g clip-path="url(#clip0_234_6626)">
        <path d="M11.7101 25.0651C10.0949 25.0651 8.54593 25.7067 7.40384 26.8488C6.26174 27.9909 5.62012 29.5399 5.62012 31.1551H20.3901" stroke="#333333" stroke-width="1.5" stroke-miterlimit="10"/>
        <path d="M20.3896 31.1549H20.5496" stroke="#333333" stroke-width="1.5" stroke-miterlimit="10"/>
        <path d="M21.0703 17.3949V17.0149V15.8949" stroke="#333333" stroke-width="1.5" stroke-miterlimit="10"/>
        <path d="M18.1898 25.3949C17.3124 25.9181 16.3113 26.1978 15.2898 26.2049V26.2049C13.7568 26.2049 12.2866 25.5959 11.2027 24.512C10.1187 23.428 9.50977 21.9578 9.50977 20.4249V15.8949" stroke="#333333" stroke-width="1.5" stroke-miterlimit="10"/>
        <path d="M9.50977 15.895C9.51241 14.5299 10.0558 13.2216 11.0211 12.2563C11.9863 11.2911 13.2947 10.7476 14.6598 10.745H15.9298C17.2939 10.7476 18.6013 11.2914 19.5649 12.2569C20.5286 13.2225 21.0698 14.5309 21.0698 15.895" stroke="#333333" stroke-width="1.5" stroke-miterlimit="10"/>
        <path d="M21.0703 15.8949V15.6149" stroke="#333333" stroke-width="1.5" stroke-miterlimit="10"/>
        <path d="M9.50977 15.8949V15.6149" stroke="#333333" stroke-width="1.5" stroke-miterlimit="10"/>
        <path d="M27.3799 31.1549H27.5499" stroke="#333333" stroke-width="1.5" stroke-miterlimit="10"/>
        <path d="M27.5498 31.1551H42.3798C42.3798 29.5399 41.7382 27.9909 40.5961 26.8488C39.454 25.7067 37.905 25.0651 36.2898 25.0651" stroke="#333333" stroke-width="1.5" stroke-miterlimit="10"/>
        <path d="M38.49 15.8949V20.4249C38.49 21.1839 38.3405 21.9355 38.05 22.6368C37.7595 23.3381 37.3338 23.9753 36.797 24.512C36.2603 25.0487 35.6231 25.4744 34.9219 25.7649C34.2206 26.0554 33.469 26.2049 32.71 26.2049C31.6514 26.2084 30.6128 25.9176 29.71 25.3649" stroke="#333333" stroke-width="1.5" stroke-miterlimit="10"/>
        <path d="M38.4902 15.8949V15.6149" stroke="#333333" stroke-width="1.5" stroke-miterlimit="10"/>
        <path d="M26.9297 15.895C26.9297 14.5309 27.4709 13.2225 28.4345 12.2569C29.3982 11.2914 30.7056 10.7476 32.0697 10.745H33.3397C34.7047 10.7476 36.0131 11.2911 36.9784 12.2563C37.9436 13.2216 38.487 14.5299 38.4897 15.895" stroke="#333333" stroke-width="1.5" stroke-miterlimit="10"/>
        <path d="M26.9297 15.8949V15.6149" stroke="#333333" stroke-width="1.5" stroke-miterlimit="10"/>
        <path d="M26.9297 17.4249V17.0149V15.8949" stroke="#333333" stroke-width="1.5" stroke-miterlimit="10"/>
        <path d="M20.39 31.1549C18.7722 31.1549 17.2207 31.7976 16.0767 32.9416C14.9327 34.0855 14.29 35.6371 14.29 37.2549H33.64C33.64 35.6388 32.9987 34.0888 31.8569 32.9451C30.7151 31.8014 29.1661 31.1576 27.55 31.1549" stroke="#333333" stroke-width="1.5" stroke-miterlimit="10"/>
        <path d="M21.0704 17.3849C20.2121 17.8051 19.4878 18.4563 18.9791 19.2653C18.4703 20.0743 18.1972 21.0092 18.1904 21.9649" stroke="#333333" stroke-width="1.5" stroke-miterlimit="10"/>
        <path d="M18.1904 21.715V21.995" stroke="#333333" stroke-width="1.5" stroke-miterlimit="10"/>
        <path d="M26.9297 17.4249C27.7708 17.8503 28.4788 18.4989 28.9762 19.2996C29.4735 20.1003 29.7411 21.0224 29.7497 21.9649" stroke="#333333" stroke-width="1.5" stroke-miterlimit="10"/>
        <path d="M29.75 21.995V23.115V25.365" stroke="#333333" stroke-width="1.5" stroke-miterlimit="10"/>
        <path d="M29.7499 25.3649V26.5149C29.748 27.4203 29.5324 28.3124 29.1206 29.1187C28.7088 29.925 28.1123 30.6227 27.3799 31.1549" stroke="#333333" stroke-width="1.5" stroke-miterlimit="10"/>
        <path d="M20.5498 31.1549C21.5349 31.8941 22.7332 32.2937 23.9648 32.2937C25.1964 32.2937 26.3947 31.8941 27.3798 31.1549" stroke="#333333" stroke-width="1.5" stroke-miterlimit="10"/>
        <path d="M18.1904 25.3949V26.5149C18.1903 27.4196 18.404 28.3115 18.8142 29.1178C19.2243 29.9242 19.8192 30.6222 20.5504 31.1549" stroke="#333333" stroke-width="1.5" stroke-miterlimit="10"/>
        <path d="M18.1904 21.995V23.115V25.395" stroke="#333333" stroke-width="1.5" stroke-miterlimit="10"/>
        <path d="M29.75 21.995V21.715" stroke="#333333" stroke-width="1.5" stroke-miterlimit="10"/>
        <path d="M21.0703 17.3848C21.7735 17.0373 22.546 16.8528 23.3303 16.8448H24.6003C25.4121 16.8496 26.211 17.0485 26.9303 17.4248" stroke="#333333" stroke-width="1.5" stroke-miterlimit="10"/>
    </g>
    <defs>
        <clipPath id="clip0_234_6626">
            <rect width="48" height="48" fill="white"/>
        </clipPath>
    </defs>
</svg>
