<svg width="48" height="48" viewBox="0 0 48 48" fill="none" xmlns="http://www.w3.org/2000/svg">
    <g clip-path="url(#clip0_234_6665)">
        <path d="M23.5654 7.01892V14.9189H31.4654" stroke="#333333" stroke-width="1.5" stroke-miterlimit="10"/>
        <path d="M31.465 23.0289V14.9189L23.565 7.01892H10.625V38.0189H22.695" stroke="#333333" stroke-width="1.5" stroke-miterlimit="10"/>
        <path d="M30.3753 22.2388C32.8446 22.8521 35.2053 23.8402 37.3753 25.1688V25.1688L35.2353 33.9388C34.8902 35.3548 34.1933 36.6609 33.2091 37.7359C32.225 38.811 30.9854 39.6202 29.6053 40.0888L27.4753 40.8088C26.9159 41.0069 26.3104 41.0348 25.7353 40.8888C25.1613 40.7436 24.6387 40.4425 24.2253 40.0188L22.6753 38.3888C21.6698 37.3335 20.9466 36.0417 20.5726 34.6329C20.1985 33.2242 20.1857 31.7438 20.5353 30.3288L22.6953 21.5688C25.2745 21.3937 27.8653 21.6197 30.3753 22.2388Z" stroke="#333333" stroke-width="1.5" stroke-miterlimit="10"/>
        <path d="M26.8254 25.4288L25.5254 30.7188" stroke="#333333" stroke-width="1.5" stroke-miterlimit="10"/>
        <path d="M31.8352 26.6588L30.5352 31.9488" stroke="#333333" stroke-width="1.5" stroke-miterlimit="10"/>
        <path d="M24.7549 33.5587C25.3473 34.3575 26.1999 34.9245 27.1657 35.1618C28.1314 35.3992 29.1497 35.292 30.0449 34.8587" stroke="#333333" stroke-width="1.5" stroke-miterlimit="10"/>
    </g>
    <defs>
        <clipPath id="clip0_234_6665">
            <rect width="48" height="48" fill="white"/>
        </clipPath>
    </defs>
</svg>
