<svg width="48" height="48" viewBox="0 0 48 48" fill="none" xmlns="http://www.w3.org/2000/svg">
    <g clip-path="url(#clip0_234_6734)">
        <path d="M23.9999 34.55C29.8762 34.55 34.6399 29.7863 34.6399 23.91C34.6399 18.0337 29.8762 13.27 23.9999 13.27C18.1236 13.27 13.3599 18.0337 13.3599 23.91C13.3599 29.7863 18.1236 34.55 23.9999 34.55Z" stroke="#333333" stroke-width="1.5" stroke-miterlimit="10"/>
        <path d="M23.9995 13.2698V9.7998" stroke="#333333" stroke-width="1.5" stroke-miterlimit="10"/>
        <path d="M23.9995 38.2V34.73" stroke="#333333" stroke-width="1.5" stroke-miterlimit="10"/>
        <path d="M16.4095 16.41L14.2495 14.25" stroke="#333333" stroke-width="1.5" stroke-miterlimit="10"/>
        <path d="M33.7494 33.7498L31.5894 31.5898" stroke="#333333" stroke-width="1.5" stroke-miterlimit="10"/>
        <path d="M13.2693 24H9.79932" stroke="#333333" stroke-width="1.5" stroke-miterlimit="10"/>
        <path d="M38.2 24H34.73" stroke="#333333" stroke-width="1.5" stroke-miterlimit="10"/>
        <path d="M16.4095 31.5898L14.2495 33.7498" stroke="#333333" stroke-width="1.5" stroke-miterlimit="10"/>
        <path d="M33.7494 14.25L31.5894 16.41" stroke="#333333" stroke-width="1.5" stroke-miterlimit="10"/>
        <path d="M23.9998 9.79994C25.2038 9.79994 26.1798 8.82392 26.1798 7.61994C26.1798 6.41596 25.2038 5.43994 23.9998 5.43994C22.7958 5.43994 21.8198 6.41596 21.8198 7.61994C21.8198 8.82392 22.7958 9.79994 23.9998 9.79994Z" stroke="#333333" stroke-width="1.5" stroke-miterlimit="10"/>
        <path d="M23.9998 42.56C25.2038 42.56 26.1798 41.5839 26.1798 40.38C26.1798 39.176 25.2038 38.2 23.9998 38.2C22.7958 38.2 21.8198 39.176 21.8198 40.38C21.8198 41.5839 22.7958 42.56 23.9998 42.56Z" stroke="#333333" stroke-width="1.5" stroke-miterlimit="10"/>
        <path d="M12.7098 14.89C13.9138 14.89 14.8898 13.914 14.8898 12.71C14.8898 11.506 13.9138 10.53 12.7098 10.53C11.5058 10.53 10.5298 11.506 10.5298 12.71C10.5298 13.914 11.5058 14.89 12.7098 14.89Z" stroke="#333333" stroke-width="1.5" stroke-miterlimit="10"/>
        <path d="M35.2899 37.4699C36.4938 37.4699 37.4699 36.4938 37.4699 35.2899C37.4699 34.0859 36.4938 33.1099 35.2899 33.1099C34.0859 33.1099 33.1099 34.0859 33.1099 35.2899C33.1099 36.4938 34.0859 37.4699 35.2899 37.4699Z" stroke="#333333" stroke-width="1.5" stroke-miterlimit="10"/>
        <path d="M7.61994 26.1798C8.82392 26.1798 9.79994 25.2038 9.79994 23.9998C9.79994 22.7958 8.82392 21.8198 7.61994 21.8198C6.41596 21.8198 5.43994 22.7958 5.43994 23.9998C5.43994 25.2038 6.41596 26.1798 7.61994 26.1798Z" stroke="#333333" stroke-width="1.5" stroke-miterlimit="10"/>
        <path d="M40.3797 26.1798C41.5837 26.1798 42.5597 25.2038 42.5597 23.9998C42.5597 22.7958 41.5837 21.8198 40.3797 21.8198C39.1757 21.8198 38.1997 22.7958 38.1997 23.9998C38.1997 25.2038 39.1757 26.1798 40.3797 26.1798Z" stroke="#333333" stroke-width="1.5" stroke-miterlimit="10"/>
        <path d="M12.7098 37.4699C13.9138 37.4699 14.8898 36.4938 14.8898 35.2899C14.8898 34.0859 13.9138 33.1099 12.7098 33.1099C11.5058 33.1099 10.5298 34.0859 10.5298 35.2899C10.5298 36.4938 11.5058 37.4699 12.7098 37.4699Z" stroke="#333333" stroke-width="1.5" stroke-miterlimit="10"/>
        <path d="M35.2899 14.89C36.4938 14.89 37.4699 13.914 37.4699 12.71C37.4699 11.506 36.4938 10.53 35.2899 10.53C34.0859 10.53 33.1099 11.506 33.1099 12.71C33.1099 13.914 34.0859 14.89 35.2899 14.89Z" stroke="#333333" stroke-width="1.5" stroke-miterlimit="10"/>
        <path d="M19.6395 23.59C20.8435 23.59 21.8195 22.614 21.8195 21.41C21.8195 20.206 20.8435 19.23 19.6395 19.23C18.4355 19.23 17.4595 20.206 17.4595 21.41C17.4595 22.614 18.4355 23.59 19.6395 23.59Z" stroke="#333333" stroke-width="1.5" stroke-miterlimit="10"/>
        <path d="M28.2694 23.59C29.4733 23.59 30.4494 22.614 30.4494 21.41C30.4494 20.206 29.4733 19.23 28.2694 19.23C27.0654 19.23 26.0894 20.206 26.0894 21.41C26.0894 22.614 27.0654 23.59 28.2694 23.59Z" stroke="#333333" stroke-width="1.5" stroke-miterlimit="10"/>
        <path d="M23.9998 30.13C25.2038 30.13 26.1798 29.154 26.1798 27.95C26.1798 26.746 25.2038 25.77 23.9998 25.77C22.7958 25.77 21.8198 26.746 21.8198 27.95C21.8198 29.154 22.7958 30.13 23.9998 30.13Z" stroke="#333333" stroke-width="1.5" stroke-miterlimit="10"/>
    </g>
    <defs>
        <clipPath id="clip0_234_6734">
            <rect width="48" height="48" fill="white"/>
        </clipPath>
    </defs>
</svg>
