<svg width="48" height="48" viewBox="0 0 48 48" fill="none" xmlns="http://www.w3.org/2000/svg">
    <g clip-path="url(#clip0_234_6674)">
        <path d="M23.9999 39.39C32.4995 39.39 39.3899 32.4996 39.3899 24C39.3899 15.5003 32.4995 8.60999 23.9999 8.60999C15.5002 8.60999 8.60986 15.5003 8.60986 24C8.60986 32.4996 15.5002 39.39 23.9999 39.39Z" stroke="#333333" stroke-width="1.5" stroke-miterlimit="10"/>
        <path d="M32.7598 11.35L27.4898 13.84C26.5887 14.2766 25.8291 14.9588 25.2984 15.8079C24.7677 16.657 24.4874 17.6387 24.4898 18.64V24.36C24.4897 25.0275 24.7535 25.668 25.2237 26.1419C25.6938 26.6158 26.3322 26.8847 26.9998 26.89V26.89C27.3319 26.8873 27.6613 26.9506 27.9688 27.0762C28.2763 27.2018 28.5558 27.3871 28.7911 27.6215C29.0264 27.8559 29.2129 28.1347 29.3397 28.4417C29.4665 28.7487 29.5311 29.0778 29.5298 29.41V29.41C29.5305 29.7505 29.6008 30.0872 29.7363 30.3995C29.8718 30.7119 30.0697 30.9932 30.3178 31.2264C30.566 31.4595 30.8591 31.6395 31.1793 31.7554C31.4994 31.8712 31.8399 31.9204 32.1798 31.9L37.4298 31.57" stroke="#333333" stroke-width="1.5" stroke-miterlimit="10"/>
        <path d="M13.2993 12.95L14.9993 16.86C15.3206 17.5836 15.4066 18.3898 15.2451 19.1649C15.0836 19.94 14.6828 20.6448 14.0993 21.18L8.75928 26.07" stroke="#333333" stroke-width="1.5" stroke-miterlimit="10"/>
        <path d="M11.0991 32.3799L11.3591 31.5699C11.4978 31.1518 11.7229 30.7675 12.0198 30.4421C12.3166 30.1167 12.6787 29.8574 13.0823 29.681C13.486 29.5046 13.9222 29.4152 14.3627 29.4184C14.8032 29.4217 15.2381 29.5176 15.6391 29.6999L17.3891 30.4999C17.9675 30.7646 18.4514 31.1993 18.7766 31.7459C19.1017 32.2926 19.2526 32.9254 19.2091 33.5599L18.8691 38.5099" stroke="#333333" stroke-width="1.5" stroke-miterlimit="10"/>
    </g>
    <defs>
        <clipPath id="clip0_234_6674">
            <rect width="48" height="48" fill="white"/>
        </clipPath>
    </defs>
</svg>
