<svg width="48" height="48" viewBox="0 0 48 48" fill="none" xmlns="http://www.w3.org/2000/svg">
    <path d="M36.0926 35.5292H15.0767V38H36.0926V35.5292Z" stroke="#333333" stroke-width="1.5" stroke-miterlimit="10"/>
    <path d="M27.5303 23.2871H36.351V21.4385L27.8413 18.5804" stroke="#333333" stroke-width="1.5" stroke-miterlimit="10"/>
    <path d="M33.6163 29.508V23.2871H30.8638V28.6805V33.1466L29.9014 35.5293H34.5788L33.6163 33.1466V29.508Z" stroke="#333333" stroke-width="1.5" stroke-miterlimit="10"/>
    <path d="M24.2086 28.2755V28.6805V33.1466L23.2461 35.5293H27.9176L26.961 33.1466V29.508V24.8599" stroke="#333333" stroke-width="1.5" stroke-miterlimit="10"/>
    <path d="M17.5533 29.7427V33.1465L16.5908 35.5293H21.2623L20.3057 33.1465V30.488" stroke="#333333" stroke-width="1.5" stroke-miterlimit="10"/>
    <path d="M19.7072 10.0003C22.4492 9.98839 25.1768 10.3981 27.7943 11.2151L27.8413 20.8633C27.85 22.4236 27.4646 23.9609 26.7208 25.3326C25.977 26.7042 24.8989 27.8659 23.5864 28.7098L21.5734 30.0303C21.0407 30.3757 20.4184 30.5573 19.7835 30.5526C19.1602 30.5515 18.55 30.3745 18.0229 30.042L15.9629 28.7391C14.6442 27.9044 13.5574 26.7504 12.8034 25.3839C12.0494 24.0174 11.6524 22.4827 11.6494 20.922V11.2738C14.2537 10.4365 16.9717 10.0069 19.7072 10.0003V10.0003Z" stroke="#333333" stroke-width="1.5" stroke-miterlimit="10"/>
    <path d="M16.8433 23.7214C17.6615 24.4 18.6911 24.7713 19.7542 24.7713C20.8172 24.7713 21.8468 24.4 22.6651 23.7214" stroke="#333333" stroke-width="1.5" stroke-miterlimit="10"/>
    <path d="M18.4453 18.1284C17.3772 16.7258 15.8279 16.7258 14.7598 18.1284" stroke="#333333" stroke-width="1.5" stroke-miterlimit="10"/>
    <path d="M24.7486 18.1284C23.6804 16.7258 22.1311 16.7258 21.063 18.1284" stroke="#333333" stroke-width="1.5" stroke-miterlimit="10"/>
</svg>
