<svg width="48" height="48" viewBox="0 0 48 48" fill="none" xmlns="http://www.w3.org/2000/svg">
    <g clip-path="url(#clip0_234_6692)">
        <path d="M35.0748 11.84H12.9148C10.9893 11.84 9.1427 12.6049 7.78119 13.9664C6.41968 15.3279 5.65479 17.1745 5.65479 19.1V36.18H42.3448V19.1C42.3448 18.1457 42.1567 17.2009 41.7912 16.3194C41.4257 15.4379 40.8901 14.6371 40.2148 13.9628C39.5396 13.2886 38.7381 12.754 37.8561 12.3897C36.9742 12.0255 36.029 11.8387 35.0748 11.84V11.84Z" stroke="#333333" stroke-width="1.5" stroke-miterlimit="10"/>
        <path d="M28.9048 21.4298H34.7148V27.4298C34.7148 28.1432 34.4314 28.8275 33.9269 29.3319C33.4224 29.8364 32.7382 30.1198 32.0248 30.1198H31.6048C30.8914 30.1198 30.2071 29.8364 29.7027 29.3319C29.1982 28.8275 28.9148 28.1432 28.9148 27.4298V21.4298H28.9048Z" stroke="#333333" stroke-width="1.5" stroke-miterlimit="10"/>
        <path d="M31.8042 26.8398V24.6698" stroke="#333333" stroke-width="1.5" stroke-miterlimit="10"/>
        <path d="M6.12451 21.4298H41.8645" stroke="#333333" stroke-width="1.5" stroke-miterlimit="10"/>
        <path d="M13.6548 11.8199C15.5812 11.8226 17.4278 12.5897 18.789 13.9528C20.1502 15.3159 20.9148 17.1636 20.9148 19.0899V36.1599" stroke="#333333" stroke-width="1.5" stroke-miterlimit="10"/>
    </g>
    <defs>
        <clipPath id="clip0_234_6692">
            <rect width="48" height="48" fill="white"/>
        </clipPath>
    </defs>
</svg>
