<svg width="48" height="48" viewBox="0 0 48 48" fill="none" xmlns="http://www.w3.org/2000/svg">
    <g clip-path="url(#clip0_234_10747)">
        <path d="M31.7321 19.53V36.1875H16.2896V19.3275" stroke="#333333" stroke-width="1.5" stroke-miterlimit="10"/>
        <path d="M34.6907 40.32H13.3307C13.2946 40.3212 13.2589 40.3118 13.2279 40.2932C13.1969 40.2745 13.172 40.2473 13.1562 40.2148C13.1403 40.1823 13.1342 40.1459 13.1386 40.11C13.1429 40.0741 13.1576 40.0403 13.1807 40.0125L16.2932 36.1875H31.7357L34.8407 40.0125C34.8609 40.0411 34.8731 40.0745 34.876 40.1094C34.8788 40.1443 34.8722 40.1793 34.8569 40.2107C34.8415 40.2422 34.818 40.2689 34.7888 40.2881C34.7595 40.3074 34.7257 40.3184 34.6907 40.32V40.32Z" stroke="#333333" stroke-width="1.5" stroke-miterlimit="10"/>
        <path d="M13.3307 7.67991H34.6907C34.7257 7.68154 34.7595 7.69255 34.7888 7.71178C34.818 7.73101 34.8415 7.75775 34.8569 7.7892C34.8722 7.82065 34.8788 7.85564 34.876 7.89051C34.8731 7.92539 34.8609 7.95885 34.8407 7.98741L31.7282 11.8124H16.2857L13.1807 7.98741C13.1576 7.95964 13.1429 7.92577 13.1386 7.88988C13.1342 7.85399 13.1403 7.8176 13.1562 7.78511C13.172 7.75261 13.1969 7.72539 13.2279 7.70673C13.2589 7.68806 13.2946 7.67875 13.3307 7.67991V7.67991Z" stroke="#333333" stroke-width="1.5" stroke-miterlimit="10"/>
        <path d="M34.2676 16.3576C34.2354 15.8242 34.0025 15.3227 33.6157 14.954C33.229 14.5853 32.7169 14.3767 32.1826 14.3701C31.8679 14.3594 31.5547 14.4167 31.2642 14.5381C30.9737 14.6595 30.7128 14.8421 30.4992 15.0734C30.2857 15.3047 30.1245 15.5794 30.0267 15.8787C29.9289 16.178 29.8968 16.4948 29.9326 16.8076C29.9326 18.4126 30.9901 19.6651 33.2926 19.6651C33.8226 19.6883 34.3519 19.6039 34.8484 19.417C35.345 19.2301 35.7986 18.9447 36.1818 18.5778C36.5651 18.2109 36.8701 17.7703 37.0784 17.2824C37.2868 16.7944 37.3942 16.2694 37.3942 15.7388C37.3942 15.2083 37.2868 14.6832 37.0784 14.1953C36.8701 13.7074 36.5651 13.2667 36.1818 12.8999C35.7986 12.533 35.345 12.2475 34.8484 12.0607C34.3519 11.8738 33.8226 11.7894 33.2926 11.8126H14.7076C14.1776 11.7894 13.6483 11.8738 13.1518 12.0607C12.6552 12.2475 12.2016 12.533 11.8184 12.8999C11.4351 13.2667 11.1301 13.7074 10.9218 14.1953C10.7134 14.6832 10.606 15.2083 10.606 15.7388C10.606 16.2694 10.7134 16.7944 10.9218 17.2824C11.1301 17.7703 11.4351 18.2109 11.8184 18.5778C12.2016 18.9447 12.6552 19.2301 13.1518 19.417C13.6483 19.6039 14.1776 19.6883 14.7076 19.6651C17.0176 19.6651 18.0751 18.4126 18.0751 16.8076C18.1109 16.4948 18.0788 16.178 17.981 15.8787C17.8832 15.5794 17.722 15.3047 17.5085 15.0734C17.2949 14.8421 17.034 14.6595 16.7435 14.5381C16.453 14.4167 16.1398 14.3594 15.8251 14.3701C15.29 14.3766 14.7771 14.5849 14.3891 14.9535C14.0011 15.322 13.7666 15.8235 13.7326 16.3576" stroke="#333333" stroke-width="1.5" stroke-miterlimit="10"/>
        <path d="M18.0767 16.8076H29.9417" stroke="#333333" stroke-width="1.5" stroke-miterlimit="10"/>
        <path d="M24.0122 36.1875V19.3275" stroke="#333333" stroke-width="1.5" stroke-miterlimit="10"/>
        <path d="M20.0864 36.1876V21.1201" stroke="#333333" stroke-width="1.5" stroke-miterlimit="10"/>
        <path d="M27.9321 36.1876V21.1201" stroke="#333333" stroke-width="1.5" stroke-miterlimit="10"/>
    </g>
    <defs>
        <clipPath id="clip0_234_10747">
            <rect width="48" height="48" fill="white"/>
        </clipPath>
    </defs>
</svg>
