<svg width="48" height="48" viewBox="0 0 48 48" fill="none" xmlns="http://www.w3.org/2000/svg">
    <path d="M16.2402 33.51C19.1402 33.51 21.8402 34.06 23.6402 35.03L23.9902 35.22L24.3402 35.03C26.1402 34.06 28.8402 33.51 31.7402 33.51C34.6402 33.51 37.3402 34.06 39.1402 35.03L40.2402 35.62V10.83L39.8402 10.62C37.8202 9.53998 34.8702 8.91998 31.7302 8.91998C28.7702 8.91998 25.9702 9.46998 23.9702 10.44C21.9702 9.46998 19.1702 8.91998 16.2102 8.91998C13.0702 8.91998 10.1102 9.53998 8.1002 10.62L7.7002 10.83V35.62L8.8002 35.03C10.6002 34.06 13.3002 33.51 16.2002 33.51H16.2402ZM38.7602 11.74V33.2C36.8402 32.44 34.3602 32.01 31.7502 32.01C29.1402 32.01 26.6602 32.44 24.7402 33.2V11.75C26.5302 10.9 29.0502 10.42 31.7502 10.42C34.4502 10.42 36.9702 10.9 38.7602 11.74ZM9.2302 11.74C11.0202 10.9 13.5402 10.42 16.2402 10.42C18.9402 10.42 21.4502 10.91 23.2502 11.75V33.2C21.3302 32.44 18.8502 32.01 16.2402 32.01C13.6302 32.01 11.1502 32.44 9.2302 33.2V11.74Z" fill="black"/>
    <path d="M32.1102 35.9C29.0102 35.9 26.0902 36.48 24.0002 37.49C21.9102 36.48 18.9902 35.9 15.8902 35.9C12.6102 35.9 9.53018 36.55 7.43018 37.67L8.14018 38.99C10.0302 37.98 12.8602 37.4 15.8902 37.4C18.9202 37.4 21.7502 37.98 23.6402 38.99L23.9902 39.18L24.3402 38.99C26.2302 37.98 29.0602 37.4 32.0902 37.4C35.1202 37.4 37.9502 37.98 39.8402 38.99L40.5502 37.67C38.4502 36.54 35.3602 35.9 32.0902 35.9H32.1102Z" fill="black"/>
</svg>
