<svg width="48" height="48" viewBox="0 0 48 48" fill="none" xmlns="http://www.w3.org/2000/svg">
    <g clip-path="url(#clip0_234_6757)">
        <path d="M24.4407 32.3901H14.7407" stroke="#333333" stroke-width="1.5" stroke-miterlimit="10"/>
        <path d="M25.3702 37.1508C35.0302 37.1508 40.9302 32.9408 40.9302 32.9408V19.3308C40.9302 19.3308 37.1202 16.6108 32.7702 13.8408C32.1102 13.4208 30.3002 12.1908 28.6802 11.3108C27.3102 10.5608 25.5402 10.6708 24.8102 12.0408C24.5028 12.6079 24.4227 13.2707 24.5861 13.8947C24.7495 14.5187 25.1443 15.0572 25.6902 15.4008L29.5202 17.8308C29.5441 17.8458 29.5624 17.8683 29.5724 17.8947C29.5825 17.9211 29.5836 17.9501 29.5757 17.9772C29.5678 18.0043 29.5512 18.0281 29.5286 18.045C29.5059 18.0619 29.4784 18.0709 29.4502 18.0708H12.8302C12.2043 18.0708 11.604 18.3194 11.1614 18.762C10.7188 19.2046 10.4702 19.8049 10.4702 20.4308V20.4308C10.4594 20.7474 10.5125 21.0629 10.6263 21.3585C10.7401 21.6541 10.9122 21.9238 11.1325 22.1515C11.3527 22.3792 11.6165 22.5602 11.9082 22.6838C12.1998 22.8074 12.5134 22.871 12.8302 22.8708H9.43016C8.80425 22.8708 8.20398 23.1194 7.76139 23.562C7.31881 24.0046 7.07016 24.6049 7.07016 25.2308V25.2308C7.06485 25.5441 7.12197 25.8552 7.2382 26.1462C7.35442 26.4372 7.52741 26.7021 7.74709 26.9255C7.96677 27.1489 8.22873 27.3263 8.51769 27.4474C8.80666 27.5685 9.11685 27.6308 9.43016 27.6308H10.6102C9.98425 27.6308 9.38398 27.8794 8.94139 28.322C8.49881 28.7646 8.25016 29.3649 8.25016 29.9908V29.9908C8.25016 30.3007 8.31121 30.6076 8.42981 30.8939C8.54841 31.1802 8.72225 31.4404 8.94139 31.6596C9.16054 31.8787 9.4207 32.0525 9.70703 32.1711C9.99336 32.2897 10.3002 32.3508 10.6102 32.3508H14.7402C14.1143 32.3508 13.514 32.5994 13.0714 33.042C12.6288 33.4846 12.3802 34.0849 12.3802 34.7108V34.7108C12.3802 35.3367 12.6288 35.937 13.0714 36.3796C13.514 36.8221 14.1143 37.0708 14.7402 37.0708L25.3702 37.1508Z" stroke="#333333" stroke-width="1.5" stroke-miterlimit="10"/>
        <path d="M12.8208 22.8704H24.8108" stroke="#333333" stroke-width="1.5" stroke-miterlimit="10"/>
        <path d="M10.6108 27.6304H24.8108" stroke="#333333" stroke-width="1.5" stroke-miterlimit="10"/>
        <path d="M14.7407 32.3901H24.8107" stroke="#333333" stroke-width="1.5" stroke-miterlimit="10"/>
    </g>
    <defs>
        <clipPath id="clip0_234_6757">
            <rect width="48" height="48" fill="white"/>
        </clipPath>
    </defs>
</svg>
