<svg width="48" height="48" viewBox="0 0 48 48" fill="none" xmlns="http://www.w3.org/2000/svg">
    <g clip-path="url(#clip0_234_9436)">
        <path d="M19.1023 23.1376H24.1498" stroke="#333333" stroke-width="1.5"/>
        <path d="M35.3098 34.6201V29.3101" stroke="#333333" stroke-width="1.5"/>
        <path d="M9.80214 23.1376H9.27714C8.92437 23.1376 8.58594 23.2772 8.33579 23.5259C8.08565 23.7747 7.94412 24.1123 7.94214 24.4651V36.1651C7.94412 36.5178 8.08565 36.8555 8.33579 37.1042C8.58594 37.353 8.92437 37.4926 9.27714 37.4926H33.9671C34.3199 37.4926 34.6583 37.353 34.9085 37.1042C35.1586 36.8555 35.3002 36.5178 35.3021 36.1651V33.0301" stroke="#333333" stroke-width="1.5"/>
        <path d="M33.4497 23.1376H33.9672C34.1402 23.1366 34.3117 23.1698 34.4718 23.2353C34.6319 23.3009 34.7775 23.3974 34.9001 23.5194C35.0228 23.6413 35.1202 23.7864 35.1866 23.9461C35.253 24.1058 35.2872 24.2771 35.2872 24.4501V29.3101" stroke="#333333" stroke-width="1.5"/>
        <path d="M35.3098 32.6475L40.7173 35.775V24.855L35.3098 27.99" stroke="#333333" stroke-width="1.5"/>
        <path d="M26.7223 34.05H10.7173" stroke="#333333" stroke-width="1.5"/>
        <path d="M14.4522 24.8476C18.4121 24.8476 21.6222 21.6374 21.6222 17.6776C21.6222 13.7177 18.4121 10.5076 14.4522 10.5076C10.4923 10.5076 7.28223 13.7177 7.28223 17.6776C7.28223 21.6374 10.4923 24.8476 14.4522 24.8476Z" stroke="#333333" stroke-width="1.5"/>
        <path d="M28.7996 24.8476C32.7595 24.8476 35.9696 21.6374 35.9696 17.6776C35.9696 13.7177 32.7595 10.5076 28.7996 10.5076C24.8398 10.5076 21.6296 13.7177 21.6296 17.6776C21.6296 21.6374 24.8398 24.8476 28.7996 24.8476Z" stroke="#333333" stroke-width="1.5"/>
        <path d="M28.7998 20.3026C30.2496 20.3026 31.4248 19.1273 31.4248 17.6776C31.4248 16.2278 30.2496 15.0526 28.7998 15.0526C27.3501 15.0526 26.1748 16.2278 26.1748 17.6776C26.1748 19.1273 27.3501 20.3026 28.7998 20.3026Z" stroke="#333333" stroke-width="1.5"/>
        <path d="M14.4521 20.3026C15.9019 20.3026 17.0771 19.1273 17.0771 17.6776C17.0771 16.2278 15.9019 15.0526 14.4521 15.0526C13.0024 15.0526 11.8271 16.2278 11.8271 17.6776C11.8271 19.1273 13.0024 20.3026 14.4521 20.3026Z" stroke="#333333" stroke-width="1.5"/>
    </g>
    <defs>
        <clipPath id="clip0_234_9436">
            <rect width="48" height="48" fill="white"/>
        </clipPath>
    </defs>
</svg>
