<svg width="48" height="48" viewBox="0 0 48 48" fill="none" xmlns="http://www.w3.org/2000/svg">
    <path d="M26.7299 23.02C26.0899 22.09 25.0399 21.54 23.9199 21.54C22.7999 21.54 21.7499 22.09 21.1099 23.02L17.5899 28.15C16.7999 29.3 16.7799 30.75 17.5399 31.92C18.2999 33.09 19.6299 33.67 20.9999 33.42L23.5799 32.96C23.7999 32.92 24.0299 32.92 24.2499 32.96L26.8299 33.42C27.0399 33.46 27.2499 33.48 27.4599 33.48C28.5999 33.48 29.6499 32.91 30.2899 31.92C31.0499 30.75 31.0299 29.3 30.2399 28.15L26.7199 23.02H26.7299ZM29.0399 31.11C28.7099 31.62 28.0199 32.12 27.0999 31.95L24.5199 31.49C24.3199 31.45 24.1199 31.44 23.9199 31.44C23.7199 31.44 23.5199 31.46 23.3199 31.49L20.7399 31.95C19.8199 32.12 19.1299 31.62 18.7999 31.11C18.4699 30.6 18.2999 29.77 18.8299 29L22.3499 23.87C22.7099 23.34 23.2799 23.04 23.9199 23.04C24.5599 23.04 25.1299 23.34 25.4899 23.87L29.0099 29C29.5399 29.77 29.3699 30.6 29.0399 31.11Z" fill="black"/>
    <path d="M26.8601 20.28C26.9701 20.3 27.0901 20.31 27.2001 20.31C28.5101 20.31 29.6901 19.08 29.9801 17.34C30.2901 15.45 29.4101 13.79 27.9701 13.55C27.2401 13.43 26.4901 13.71 25.8901 14.32C25.3601 14.87 24.9901 15.64 24.8501 16.49C24.7101 17.34 24.8101 18.19 25.1401 18.88C25.5101 19.65 26.1301 20.16 26.8601 20.28ZM26.3301 16.73C26.4201 16.19 26.6501 15.69 26.9701 15.36C27.1001 15.23 27.3501 15.01 27.6401 15.01C27.6701 15.01 27.7001 15.01 27.7301 15.01C28.2401 15.09 28.6901 15.96 28.5001 17.08C28.3201 18.19 27.6201 18.88 27.1001 18.79C26.7801 18.74 26.5801 18.41 26.4901 18.23C26.3001 17.82 26.2401 17.27 26.3201 16.73H26.3301Z" fill="black"/>
    <path d="M33.5199 19.4C32.9099 18.99 32.0999 18.93 31.3099 19.24C30.5999 19.52 29.9399 20.06 29.4599 20.78C28.3899 22.37 28.4999 24.25 29.7099 25.06C30.0699 25.31 30.4899 25.42 30.9199 25.42C31.9299 25.42 33.0199 24.79 33.7699 23.68C34.2499 22.96 34.5099 22.15 34.4999 21.39C34.4899 20.54 34.1299 19.81 33.5199 19.4ZM32.5199 22.84C31.8899 23.77 30.9699 24.1 30.5399 23.81C30.1099 23.52 30.0699 22.54 30.6999 21.61C31.0099 21.15 31.4299 20.8 31.8499 20.63C31.9599 20.59 32.1299 20.53 32.3099 20.53C32.4399 20.53 32.5699 20.56 32.6799 20.63C32.9499 20.81 32.9899 21.19 32.9999 21.4C32.9999 21.85 32.8299 22.38 32.5199 22.83V22.84Z" fill="black"/>
    <path d="M20.8 20.31C20.91 20.31 21.03 20.31 21.14 20.28C21.87 20.16 22.49 19.65 22.86 18.88C23.19 18.19 23.29 17.34 23.15 16.49C22.84 14.6 21.46 13.31 20.03 13.55C19.3 13.67 18.68 14.18 18.31 14.95C17.98 15.64 17.88 16.49 18.02 17.34C18.31 19.08 19.49 20.31 20.8 20.31ZM19.67 15.59C19.76 15.4 19.96 15.08 20.28 15.03C20.78 14.95 21.49 15.62 21.68 16.74C21.77 17.28 21.71 17.83 21.51 18.24C21.42 18.43 21.22 18.75 20.9 18.8C20.4 18.88 19.69 18.2 19.5 17.09C19.41 16.55 19.47 16 19.67 15.59Z" fill="black"/>
    <path d="M18.3 25.06C18.91 24.65 19.27 23.92 19.28 23.07C19.29 22.31 19.03 21.49 18.55 20.78C18.07 20.07 17.41 19.52 16.7 19.24C15.9 18.93 15.1 18.99 14.49 19.4C13.88 19.81 13.52 20.54 13.51 21.39C13.5 22.15 13.76 22.97 14.24 23.68C14.72 24.4 15.38 24.94 16.09 25.22C16.43 25.35 16.77 25.42 17.09 25.42C17.53 25.42 17.95 25.3 18.3 25.06ZM16.63 23.82C16.21 23.66 15.79 23.3 15.48 22.84C15.17 22.38 15 21.86 15 21.41C15 21.2 15.05 20.83 15.32 20.64C15.43 20.56 15.56 20.54 15.69 20.54C15.87 20.54 16.04 20.59 16.15 20.64C16.57 20.8 16.99 21.16 17.3 21.62C17.61 22.08 17.78 22.6 17.78 23.05C17.78 23.26 17.73 23.63 17.46 23.82C17.19 24 16.83 23.9 16.63 23.82Z" fill="black"/>
    <path d="M38.8799 9.42999H9.11988C7.74988 9.42999 6.62988 10.55 6.62988 11.92V34.91C6.62988 36.28 7.74988 37.4 9.11988 37.4H11.3799V42.22H12.8799V37.4H35.1099V42.22H36.6099V37.4H38.8699C40.2399 37.4 41.3599 36.28 41.3599 34.91V11.92C41.3599 10.55 40.2399 9.42999 38.8699 9.42999H38.8799ZM39.8699 34.91C39.8699 35.46 39.4299 35.9 38.8799 35.9H9.11988C8.56988 35.9 8.12988 35.46 8.12988 34.91V11.92C8.12988 11.37 8.56988 10.93 9.11988 10.93H38.8799C39.4299 10.93 39.8699 11.37 39.8699 11.92V34.91Z" fill="black"/>
</svg>
