<svg width="48" height="48" viewBox="0 0 48 48" fill="none" xmlns="http://www.w3.org/2000/svg">
    <path d="M24.0005 35.8704C30.5564 35.8704 35.8709 30.5559 35.8709 24C35.8709 17.4442 30.5564 12.1296 24.0005 12.1296C17.4447 12.1296 12.1301 17.4442 12.1301 24C12.1301 30.5559 17.4447 35.8704 24.0005 35.8704Z" stroke="#333333" stroke-width="1.0688" stroke-linecap="round" stroke-linejoin="round"/>
    <path d="M12.1301 24C12.1301 26.9984 13.2453 29.736 15.0789 31.8256C16.9125 29.736 18.0277 26.9984 18.0277 24C18.0277 21.0016 16.9141 18.264 15.0789 16.1744C13.2453 18.264 12.1301 21.0016 12.1301 24Z" stroke="#333333" stroke-width="1.0688" stroke-linecap="round" stroke-linejoin="round"/>
    <path d="M35.871 24C35.871 26.9984 34.7558 29.736 32.9222 31.8256C31.0886 29.736 29.9734 26.9984 29.9734 24C29.9734 21.0016 31.087 18.264 32.9222 16.1744C34.7558 18.264 35.871 21.0016 35.871 24Z" stroke="#333333" stroke-width="1.0688" stroke-linecap="round" stroke-linejoin="round"/>
    <path d="M16.9648 24.1632H19.0992" stroke="#333333" stroke-width="1.0688" stroke-linecap="round" stroke-linejoin="round"/>
    <path d="M16.5327 20.7169L18.4655 19.8145" stroke="#333333" stroke-width="1.0688" stroke-linecap="round" stroke-linejoin="round"/>
    <path d="M16.5327 27.2832L18.4655 28.1856" stroke="#333333" stroke-width="1.0688" stroke-linecap="round" stroke-linejoin="round"/>
    <path d="M30.8368 24.1632H28.7024" stroke="#333333" stroke-width="1.0688" stroke-linecap="round" stroke-linejoin="round"/>
    <path d="M31.4672 20.7169L29.5344 19.8145" stroke="#333333" stroke-width="1.0688" stroke-linecap="round" stroke-linejoin="round"/>
    <path d="M31.4672 27.2832L29.5344 28.1856" stroke="#333333" stroke-width="1.0688" stroke-linecap="round" stroke-linejoin="round"/>
</svg>
