<svg width="48" height="48" viewBox="0 0 48 48" fill="none" xmlns="http://www.w3.org/2000/svg">
    <path d="M24.0007 35.872C30.5653 35.872 35.8871 30.5503 35.8871 23.9856C35.8871 17.421 30.5653 12.0992 24.0007 12.0992C17.436 12.0992 12.1143 17.421 12.1143 23.9856C12.1143 30.5503 17.436 35.872 24.0007 35.872Z" stroke="#333333" stroke-width="1.18223" stroke-linecap="round" stroke-linejoin="round"/>
    <path d="M35.7602 22.5424C33.1794 18.816 28.8754 16.3744 24.0002 16.3744C19.125 16.3744 14.821 18.816 12.2402 22.5424" stroke="#333333" stroke-width="1.18223" stroke-linecap="round" stroke-linejoin="round"/>
    <path d="M24.2227 12.397V35.901" stroke="#333333" stroke-width="1.18223" stroke-linecap="round" stroke-linejoin="round"/>
    <path d="M16.4377 15.0926C16.4377 15.0926 20.7481 14.8094 18.0777 20.2638C15.4073 25.7182 13.5977 27.003 14.4569 30.907" stroke="#333333" stroke-width="1.18223" stroke-linecap="round" stroke-linejoin="round"/>
    <path d="M31.5605 15.0926C31.5605 15.0926 27.2501 14.8094 29.9205 20.2638C32.5909 25.7198 34.4005 27.003 33.5413 30.907" stroke="#333333" stroke-width="1.18223" stroke-linecap="round" stroke-linejoin="round"/>
</svg>
