<svg width="48" height="48" viewBox="0 0 48 48" fill="none" xmlns="http://www.w3.org/2000/svg">
    <path d="M35.8575 23.9999C35.8575 17.4511 30.5487 12.1423 23.9999 12.1423C17.4511 12.1423 12.1423 17.4511 12.1423 23.9999C12.1423 30.5487 17.4511 35.8575 23.9999 35.8575C30.5487 35.8575 35.8575 30.5487 35.8575 23.9999Z" stroke="#333333" stroke-width="1.0688" stroke-linecap="round" stroke-linejoin="round"/>
    <path d="M26.4456 18.8881C27.1383 18.8881 27.7 18.3265 27.7 17.6337C27.7 16.9409 27.1383 16.3793 26.4456 16.3793C25.7528 16.3793 25.1912 16.9409 25.1912 17.6337C25.1912 18.3265 25.7528 18.8881 26.4456 18.8881Z" stroke="#333333" stroke-width="1.0688" stroke-linecap="round" stroke-linejoin="round"/>
    <path d="M23.8552 23.6544C24.548 23.6544 25.1096 23.0928 25.1096 22.4C25.1096 21.7072 24.548 21.1456 23.8552 21.1456C23.1624 21.1456 22.6008 21.7072 22.6008 22.4C22.6008 23.0928 23.1624 23.6544 23.8552 23.6544Z" stroke="#333333" stroke-width="1.0688" stroke-linecap="round" stroke-linejoin="round"/>
    <path d="M21.5527 18.8881C22.2455 18.8881 22.8071 18.3265 22.8071 17.6337C22.8071 16.9409 22.2455 16.3793 21.5527 16.3793C20.86 16.3793 20.2983 16.9409 20.2983 17.6337C20.2983 18.3265 20.86 18.8881 21.5527 18.8881Z" stroke="#333333" stroke-width="1.0688" stroke-linecap="round" stroke-linejoin="round"/>
</svg>
