<svg width="48" height="48" viewBox="0 0 48 48" fill="none" xmlns="http://www.w3.org/2000/svg">
    <path d="M17.3699 36.5391V11.4607H30.6307V36.5391" stroke="#333333" stroke-width="1.0688" stroke-linecap="round" stroke-linejoin="round"/>
    <path d="M20.7619 14.7072C21.1066 14.7072 21.3859 14.4279 21.3859 14.0832C21.3859 13.7386 21.1066 13.4592 20.7619 13.4592C20.4173 13.4592 20.1379 13.7386 20.1379 14.0832C20.1379 14.4279 20.4173 14.7072 20.7619 14.7072Z" fill="#333333"/>
    <path d="M20.9104 33.1855C21.255 33.1855 21.5344 32.9061 21.5344 32.5615C21.5344 32.2169 21.255 31.9375 20.9104 31.9375C20.5658 31.9375 20.2864 32.2169 20.2864 32.5615C20.2864 32.9061 20.5658 33.1855 20.9104 33.1855Z" fill="#333333"/>
    <path d="M28.6433 27.3856C28.9879 27.3856 29.2673 27.1062 29.2673 26.7616C29.2673 26.4169 28.9879 26.1376 28.6433 26.1376C28.2987 26.1376 28.0193 26.4169 28.0193 26.7616C28.0193 27.1062 28.2987 27.3856 28.6433 27.3856Z" fill="#333333"/>
    <path d="M27.6032 16.2224C27.9479 16.2224 28.2272 15.943 28.2272 15.5984C28.2272 15.2537 27.9479 14.9744 27.6032 14.9744C27.2586 14.9744 26.9792 15.2537 26.9792 15.5984C26.9792 15.943 27.2586 16.2224 27.6032 16.2224Z" fill="#333333"/>
    <path d="M22.4431 29.7343C22.7877 29.7343 23.0671 29.455 23.0671 29.1103C23.0671 28.7657 22.7877 28.4863 22.4431 28.4863C22.0985 28.4863 21.8191 28.7657 21.8191 29.1103C21.8191 29.455 22.0985 29.7343 22.4431 29.7343Z" fill="#333333"/>
    <path d="M20.7619 25.4432C21.1066 25.4432 21.3859 25.1638 21.3859 24.8192C21.3859 24.4746 21.1066 24.1952 20.7619 24.1952C20.4173 24.1952 20.1379 24.4746 20.1379 24.8192C20.1379 25.1638 20.4173 25.4432 20.7619 25.4432Z" fill="#333333"/>
    <path d="M24.6247 17.6416C24.9694 17.6416 25.2487 17.3622 25.2487 17.0176C25.2487 16.6729 24.9694 16.3936 24.6247 16.3936C24.2801 16.3936 24.0007 16.6729 24.0007 17.0176C24.0007 17.3622 24.2801 17.6416 24.6247 17.6416Z" fill="#333333"/>
    <path d="M24.0002 24.4543C24.3448 24.4543 24.6242 24.1749 24.6242 23.8303C24.6242 23.4857 24.3448 23.2063 24.0002 23.2063C23.6556 23.2063 23.3762 23.4857 23.3762 23.8303C23.3762 24.1749 23.6556 24.4543 24.0002 24.4543Z" fill="#333333"/>
    <path d="M20.2851 19.7296C20.6298 19.7296 20.9091 19.4502 20.9091 19.1056C20.9091 18.7609 20.6298 18.4816 20.2851 18.4816C19.9405 18.4816 19.6611 18.7609 19.6611 19.1056C19.6611 19.4502 19.9405 19.7296 20.2851 19.7296Z" fill="#333333"/>
    <path d="M24.2353 20.3535C24.58 20.3535 24.8593 20.0741 24.8593 19.7295C24.8593 19.3848 24.58 19.1055 24.2353 19.1055C23.8907 19.1055 23.6113 19.3848 23.6113 19.7295C23.6113 20.0741 23.8907 20.3535 24.2353 20.3535Z" fill="#333333"/>
    <path d="M27.3935 22.3295C27.7382 22.3295 28.0175 22.0502 28.0175 21.7055C28.0175 21.3609 27.7382 21.0815 27.3935 21.0815C27.0489 21.0815 26.7695 21.3609 26.7695 21.7055C26.7695 22.0502 27.0489 22.3295 27.3935 22.3295Z" fill="#333333"/>
    <path d="M26.9795 30.5504C27.3241 30.5504 27.6035 30.271 27.6035 29.9264C27.6035 29.5817 27.3241 29.3024 26.9795 29.3024C26.6348 29.3024 26.3555 29.5817 26.3555 29.9264C26.3555 30.271 26.6348 30.5504 26.9795 30.5504Z" fill="#333333"/>
    <path d="M14.4749 36.5392H33.9949" stroke="#333333" stroke-width="1.0688" stroke-linecap="round" stroke-linejoin="round"/>
</svg>
