<svg width="48" height="48" viewBox="0 0 48 48" fill="none" xmlns="http://www.w3.org/2000/svg">
    <path d="M4.36816 26.1262C4.36816 24.0238 5.73776 22.4814 7.85296 22.4814C9.28976 22.4814 9.96816 23.187 9.96816 24.4766L8.14576 24.915C8.14576 24.5294 8.05296 24.011 7.52016 24.011C6.80176 24.011 6.49616 24.8622 6.49616 25.6878C6.49616 26.5918 6.90896 27.0574 7.77296 27.0574C9.41616 27.0574 10.749 26.0798 11.1282 25.7102L10.9842 26.6814C10.765 26.9598 9.26576 28.6286 7.05456 28.6286C5.24496 28.6286 4.36816 27.6046 4.36816 26.1278V26.1262Z" fill="#333333"/>
    <path d="M21.876 26.1262C21.876 24.0238 23.2456 22.4814 25.3608 22.4814C26.7976 22.4814 27.476 23.187 27.476 24.4766L25.6536 24.915C25.6536 24.5294 25.5608 24.011 25.028 24.011C24.3096 24.011 24.004 24.8622 24.004 25.6878C24.004 26.5918 24.4168 27.0574 25.2808 27.0574C26.924 27.0574 28.2648 26.0398 28.644 25.6686L28.492 26.6798C28.2728 26.9582 26.7736 28.627 24.5624 28.627C22.7528 28.627 21.876 27.603 21.876 26.1262Z" fill="#333333"/>
    <path d="M11.1985 24.544C11.1985 24.2784 11.1185 24.1856 10.9057 24.1856C10.7985 24.1856 10.6801 24.1984 10.6001 24.2128L10.7201 22.8032C11.0129 22.6576 11.6913 22.4832 12.2497 22.4832C12.9409 22.4832 13.3425 22.776 13.3425 23.5472C13.3425 23.84 13.0577 25.7952 13.0369 26.1552C13.0065 26.6704 13.1985 26.9888 13.6193 26.9888C14.6081 26.9888 14.9073 25.3312 14.9073 24.1472C14.9073 23.5616 14.8273 23.0432 14.7473 22.6448H16.8385C16.9313 23.0304 16.9713 23.5232 16.9713 24.0144C16.9713 26.6352 15.7601 28.6304 13.2193 28.6304C11.6625 28.6304 10.9585 27.792 10.9585 26.648C10.9585 26.1952 11.1985 24.9056 11.1985 24.5456" fill="#333333"/>
    <path d="M18.1975 26.8718C17.9975 28.2814 18.5959 28.627 19.5543 28.627C21.0551 28.627 21.9415 27.5982 22.2983 27.299L21.9159 26.707C21.2967 27.1454 20.0871 27.8526 20.2999 26.619L20.8583 22.6414H19.9255C18.1895 22.6414 18.0503 23.8846 16.2583 24.0862L16.1895 24.8206C16.9351 24.8206 17.9367 24.6574 18.5543 24.2254" fill="#333333"/>
    <path d="M19.9167 21.5695C20.6063 21.5695 21.2527 21.0079 21.3503 20.3183C21.4495 19.6159 20.9567 19.0527 20.2543 19.0527C19.5519 19.0527 18.9183 19.6143 18.8207 20.3183C18.7231 21.0079 19.2287 21.5695 19.9167 21.5695Z" fill="#333333"/>
    <path d="M33.5695 27.2225C34.5695 27.2225 35.0591 26.7377 35.0591 26.7377L35.7839 27.1841C35.7839 27.1841 34.5311 28.6273 33.1615 28.6273C31.7919 28.6273 31.0991 27.7761 30.7263 26.2993L30.5007 26.3265L30.2079 28.4545H28.1455L29.4351 19.1425H31.4975L30.9247 23.3057C31.4175 22.8273 32.0687 22.4673 32.8671 22.4673C33.8511 22.4673 34.3039 23.0001 34.3039 23.7185C34.3039 24.8625 33.4527 25.5937 32.2015 25.9937C32.3279 26.5105 32.5679 27.2225 33.5679 27.2225H33.5695ZM30.6463 25.2609C31.5247 25.1681 32.2687 24.8625 32.2687 24.3297C32.2687 24.1441 32.1631 23.9441 31.8559 23.9441C31.2847 23.9441 30.8975 24.4897 30.6847 25.0353L30.6447 25.2609H30.6463Z" fill="#333333"/>
    <path d="M34.9248 26.099C34.9248 23.971 36.3488 22.4814 38.5424 22.4814C40.2448 22.4814 41.2432 23.3726 41.2432 24.9294C41.2432 27.0446 39.8064 28.627 37.6384 28.627C35.936 28.627 34.9248 27.6686 34.9248 26.099ZM39.088 25.1806C39.088 24.4222 38.7952 24.0494 38.2896 24.0494C37.4512 24.0494 37.0656 24.9678 37.0656 25.859C37.0656 26.6302 37.3184 27.0558 37.9696 27.0558C38.6752 27.0558 39.0864 26.1118 39.0864 25.1806H39.088Z" fill="#333333"/>
    <path d="M40.1162 23.3026C40.1162 23.3026 41.1386 23.5218 41.8138 21.9042H43.633C43.633 21.9042 43.0986 23.6898 40.5546 24.0946L40.1162 23.3026Z" fill="#333333"/>
    <path d="M28.345 19.1426H26.5258C26.1658 20.181 25.777 20.4706 25.4442 20.6994C25.4442 20.6994 24.913 20.3202 24.7626 19.1426H23.193C23.193 19.1426 22.9866 20.6418 24.7402 21.6898H26.1034C28.4954 20.7634 28.3466 19.1426 28.3466 19.1426H28.345Z" fill="#333333"/>
</svg>
