<svg width="48" height="48" viewBox="0 0 48 48" fill="none" xmlns="http://www.w3.org/2000/svg">
    <path d="M24.0002 36.141C30.7054 36.141 36.141 30.7054 36.141 24.0002C36.141 17.295 30.7054 11.8594 24.0002 11.8594C17.295 11.8594 11.8594 17.295 11.8594 24.0002C11.8594 30.7054 17.295 36.141 24.0002 36.141Z" stroke="#333333" stroke-width="1.18223" stroke-linecap="round" stroke-linejoin="round"/>
    <path d="M20.9236 35.6145L18.2324 31.9985L21.09 27.9985H26.8372L29.7092 31.9217L26.9972 35.6817" stroke="#333333" stroke-width="1.18223" stroke-linecap="round" stroke-linejoin="round"/>
    <path d="M34.2816 30.3856L29.6624 31.9072L26.8208 27.9632L28.5776 22.584L33.2128 21.1184L36.056 24.9216" stroke="#333333" stroke-width="1.18223" stroke-linecap="round" stroke-linejoin="round"/>
    <path d="M14.0596 30.6239L18.2324 31.9983L21.074 28.0543L19.298 22.5887L14.6804 21.0671L12.0068 24.7775" stroke="#333333" stroke-width="1.18223" stroke-linecap="round" stroke-linejoin="round"/>
    <path d="M14.6611 16.307L14.6803 21.067L19.3059 22.5838L23.9427 19.187V14.3262L19.3059 12.8606" stroke="#333333" stroke-width="1.18223" stroke-linecap="round" stroke-linejoin="round"/>
    <path d="M33.2143 16.2558V21.1182L28.579 22.5838L23.9438 19.187V14.3262L28.579 12.8606" stroke="#333333" stroke-width="1.18223" stroke-linecap="round" stroke-linejoin="round"/>
</svg>
