<svg width="48" height="48" viewBox="0 0 48 48" fill="none" xmlns="http://www.w3.org/2000/svg">
    <path d="M39.342 13.2114C38.8572 12.7746 38.0988 12.8434 37.638 13.3042L21.0764 29.8658C20.038 30.9042 18.5324 31.3202 17.1084 30.965L9.58999 29.085C8.91319 28.9154 8.25879 29.4274 8.25879 30.125V34.0114C8.25879 34.6034 8.73879 35.0834 9.33079 35.0834H17.5372C18.646 35.0834 19.7084 34.6434 20.4908 33.8594L39.3884 14.9618C39.8732 14.477 39.8588 13.6786 39.342 13.2146V13.2114Z" stroke="#333333" stroke-width="1.169" stroke-linecap="round" stroke-linejoin="round"/>
    <path d="M16.5775 24.0781C19.4847 24.0781 21.8415 23.326 21.8415 22.3981C21.8415 21.4703 19.4847 20.7181 16.5775 20.7181C13.6703 20.7181 11.3135 21.4703 11.3135 22.3981C11.3135 23.326 13.6703 24.0781 16.5775 24.0781Z" stroke="#333333" stroke-width="1.169" stroke-linecap="round" stroke-linejoin="round"/>
    <path d="M21.8415 22.3983C21.8415 23.3263 19.4847 24.0783 16.5775 24.0783C13.6703 24.0783 11.3151 23.3263 11.3135 22.3983V24.9359C11.3135 25.8639 13.6703 26.6159 16.5775 26.6159C19.4847 26.6159 21.8415 25.8639 21.8415 24.9359V22.3967V22.3983Z" stroke="#333333" stroke-width="1.169" stroke-linecap="round" stroke-linejoin="round"/>
</svg>
