<svg width="48" height="48" viewBox="0 0 48 48" fill="none" xmlns="http://www.w3.org/2000/svg">
    <g clip-path="url(#clip0_234_7041)">
        <path d="M27.5596 30.2853H27.7296C28.7495 30.284 29.7597 30.4837 30.7023 30.8731C31.6449 31.2625 32.5016 31.8339 33.2232 32.5546C33.9449 33.2753 34.5174 34.1312 34.908 35.0734C35.2986 36.0155 35.4996 37.0254 35.4996 38.0453H10.8496C10.8496 35.9872 11.6672 34.0134 13.1225 32.5581C14.5777 31.1029 16.5515 30.2853 18.6096 30.2853H18.7896" stroke="#333333" stroke-width="1.5" stroke-miterlimit="10"/>
        <path d="M30.5296 18.2545V24.3745C30.5309 25.3414 30.3414 26.2991 29.972 27.1926C29.6026 28.0862 29.0605 28.8981 28.3768 29.5818C27.6931 30.2655 26.8812 30.8075 25.9877 31.1769C25.0941 31.5464 24.1365 31.7358 23.1696 31.7345V31.7345C21.2176 31.7345 19.3455 30.9591 17.9653 29.5788C16.585 28.1986 15.8096 26.3265 15.8096 24.3745V18.2545" stroke="#333333" stroke-width="1.5" stroke-miterlimit="10"/>
        <path d="M15.8096 18.2547V14.6447C15.8096 13.4008 16.3037 12.2079 17.1832 11.3284C18.0628 10.4488 19.2557 9.95471 20.4996 9.95471H25.8396C27.0834 9.95471 28.2764 10.4488 29.1559 11.3284C30.0354 12.2079 30.5296 13.4008 30.5296 14.6447V18.2547H15.8096Z" stroke="#333333" stroke-width="1.5" stroke-miterlimit="10"/>
        <path d="M26.2705 18.2545H37.1505" stroke="#333333" stroke-width="1.5" stroke-miterlimit="10"/>
        <path d="M20.8496 25.5951V21.3651" stroke="#333333" stroke-width="1.5" stroke-miterlimit="10"/>
        <path d="M25.4893 25.5951V21.3651" stroke="#333333" stroke-width="1.5" stroke-miterlimit="10"/>
    </g>
    <defs>
        <clipPath id="clip0_234_7041">
            <rect width="48" height="48" fill="white"/>
        </clipPath>
    </defs>
</svg>
