<svg width="48" height="48" viewBox="0 0 48 48" fill="none" xmlns="http://www.w3.org/2000/svg">
    <path d="M31.2868 32.8423H31.3793C31.9408 32.8415 32.497 32.9515 33.016 33.1658C33.535 33.3802 34.0067 33.6948 34.404 34.0916C34.8013 34.4884 35.1166 34.9596 35.3316 35.4783C35.5467 35.9971 35.6574 36.5531 35.6574 37.1146H22.083C22.083 35.9815 22.5331 34.8948 23.3343 34.0936C24.1356 33.2924 25.2223 32.8423 26.3554 32.8423H26.4536" stroke="#333333" stroke-width="1.5" stroke-miterlimit="10"/>
    <path d="M28.6333 21.644V15.0013" stroke="#333333" stroke-width="1.5" stroke-miterlimit="10"/>
    <path d="M11.4571 13.0416V31.3451C11.4511 31.4047 11.4511 31.4647 11.4571 31.5243V31.5243C11.4571 31.9843 11.6399 32.4254 11.9651 32.7507C12.2904 33.0759 12.7315 33.2587 13.1915 33.2587H24.436" stroke="#333333" stroke-width="1.5" stroke-miterlimit="10"/>
    <path d="M16.7817 18.3776H23.806" stroke="#333333" stroke-width="1.5" stroke-miterlimit="10"/>
    <path d="M15.1748 20.5515H25.4886" stroke="#333333" stroke-width="1.5" stroke-miterlimit="10"/>
    <path d="M28.0841 13.0415C28.0473 12.3758 28.2235 11.7157 28.5871 11.1569C28.6853 11.0354 28.5871 10.8851 28.3905 10.8851H13.6888C12.4516 10.8851 11.4341 11.6367 11.4341 12.5559V13.5272C11.4341 14.4464 12.4516 15.1922 13.6888 15.1922H28.3905C28.5755 15.1922 28.6853 15.0476 28.5871 14.9262C28.2243 14.367 28.0482 13.7072 28.0841 13.0415V13.0415Z" stroke="#333333" stroke-width="1.5" stroke-miterlimit="10"/>
    <path d="M21.4592 22.8408H19.1294" stroke="#333333" stroke-width="1.5" stroke-miterlimit="10"/>
    <path d="M32.9229 26.217V29.5875C32.9229 30.6608 32.4965 31.6901 31.7375 32.4491C30.9786 33.208 29.9493 33.6344 28.876 33.6344C27.8027 33.6344 26.7733 33.208 26.0144 32.4491C25.2555 31.6901 24.8291 30.6608 24.8291 29.5875V26.217" stroke="#333333" stroke-width="1.5" stroke-miterlimit="10"/>
    <path d="M24.8184 26.217V24.2283C24.8184 23.5439 25.0898 22.8875 25.5732 22.403C26.0566 21.9185 26.7124 21.6456 27.3968 21.644H30.3337C31.019 21.644 31.6764 21.9163 32.161 22.4009C32.6456 22.8856 32.9179 23.5429 32.9179 24.2283V26.217H24.8184Z" stroke="#333333" stroke-width="1.5" stroke-miterlimit="10"/>
    <path d="M30.5762 26.217H36.5655" stroke="#333333" stroke-width="1.5" stroke-miterlimit="10"/>
    <path d="M27.5928 30.2582V27.9283" stroke="#333333" stroke-width="1.5" stroke-miterlimit="10"/>
    <path d="M30.1484 30.2582V27.9283" stroke="#333333" stroke-width="1.5" stroke-miterlimit="10"/>
</svg>
