<svg width="48" height="48" viewBox="0 0 48 48" fill="none" xmlns="http://www.w3.org/2000/svg">
    <path d="M27.7764 31.3762C27.7764 29.013 29.6596 27.0978 31.9828 27.0978C34.306 27.0978 36.1892 29.013 36.1892 31.3762C36.1892 33.7394 34.306 35.6546 31.9828 35.6546" stroke="#333333" stroke-width="1.16984" stroke-linecap="round" stroke-linejoin="round"/>
    <path d="M31.9834 27.1567C34.113 27.1567 36.1466 28.6815 36.1466 30.7359V16.0559C36.1466 13.9519 34.1946 12.1023 31.9578 12.1023C29.721 12.1023 27.6826 13.9519 27.6826 16.0559V31.4223H27.777C27.777 28.7775 29.6602 27.1567 31.9834 27.1567Z" stroke="#333333" stroke-width="1.16984" stroke-linecap="round" stroke-linejoin="round"/>
    <path d="M27.6814 18.7247H11.811V35.6543H31.9134" stroke="#333333" stroke-width="1.16984" stroke-linecap="round" stroke-linejoin="round"/>
    <path d="M30.2018 27.5024C29.6162 27.7264 29.117 28.0592 28.7218 28.4656C27.7058 29.5104 27.3698 31.0352 27.9954 32.4128C28.6914 33.944 30.6114 34.6688 32.2834 34.0304C33.621 33.52 34.253 32.112 33.6962 30.8864C33.2498 29.9056 32.0226 29.4432 30.9522 29.8512C30.0962 30.1776 29.6914 31.0784 30.0482 31.8624C30.333 32.4896 31.1202 32.7872 31.805 32.5248" stroke="#333333" stroke-width="1.16984" stroke-linecap="round" stroke-linejoin="round"/>
</svg>
