<svg width="48" height="48" viewBox="0 0 48 48" fill="none" xmlns="http://www.w3.org/2000/svg">
    <path d="M32.6319 29.4889C36.7608 25.36 37.1499 19.0547 33.5008 15.4056C29.8517 11.7566 23.5464 12.1456 19.4175 16.2745C15.2886 20.4034 14.8996 26.7088 18.5486 30.3578C22.1977 34.0069 28.503 33.6179 32.6319 29.4889Z" stroke="#333333" stroke-width="1.18223" stroke-linecap="round" stroke-linejoin="round"/>
    <path d="M19.6564 31.5998L15.9396 35.3166C15.1828 36.0734 13.9572 36.0734 13.2004 35.3166C12.4436 34.5598 12.4436 33.3342 13.2004 32.5774L16.9172 28.8606" stroke="#333333" stroke-width="1.18223" stroke-linecap="round" stroke-linejoin="round"/>
    <path d="M13.0034 32.774L15.7426 35.5132" stroke="#333333" stroke-width="1.18223" stroke-linecap="round" stroke-linejoin="round"/>
    <path d="M16.1353 23.3821L25.5273 32.7741" stroke="#333333" stroke-width="1.18223" stroke-linecap="round" stroke-linejoin="round"/>
    <path d="M14.8435 17.8063C16.4155 17.8063 17.6899 16.5319 17.6899 14.9599C17.6899 13.3879 16.4155 12.1135 14.8435 12.1135C13.2714 12.1135 11.9971 13.3879 11.9971 14.9599C11.9971 16.5319 13.2714 17.8063 14.8435 17.8063Z" stroke="#333333" stroke-width="1.18223" stroke-linecap="round" stroke-linejoin="round"/>
</svg>
