<svg width="48" height="48" viewBox="0 0 48 48" fill="none" xmlns="http://www.w3.org/2000/svg">
    <path d="M33.2113 25.6656C36.8447 22.0322 37.3705 16.667 34.3856 13.6821C31.4008 10.6973 26.0356 11.2231 22.4022 14.8565C18.7687 18.4899 18.2429 23.8551 21.2278 26.84C24.2127 29.8248 29.5778 29.2991 33.2113 25.6656Z" stroke="#333333" stroke-width="1.18223" stroke-linecap="round" stroke-linejoin="round"/>
    <path d="M31.9108 24.3658C34.792 21.4846 35.2899 17.3113 33.023 15.0444C30.7561 12.7775 26.5827 13.2754 23.7016 16.1565C20.8205 19.0377 20.3226 23.211 22.5895 25.4779C24.8564 27.7448 29.0297 27.2469 31.9108 24.3658Z" stroke="#333333" stroke-width="1.18223" stroke-linecap="round" stroke-linejoin="round"/>
    <path d="M14.3884 35.7873C13.7692 36.4065 12.7644 36.4065 12.1436 35.7873C11.5244 35.1681 11.5244 34.1633 12.1436 33.5425L15.1356 30.5505C15.7548 29.9313 16.7596 29.9313 17.3804 30.5505C17.9996 31.1697 17.9996 32.1745 17.3804 32.7953L14.3884 35.7873Z" stroke="#333333" stroke-width="1.18223" stroke-linecap="round" stroke-linejoin="round"/>
    <path d="M19.299 22.189C19.299 22.189 19.9822 28.013 17.4126 30.5826" stroke="#333333" stroke-width="1.18223" stroke-linecap="round" stroke-linejoin="round"/>
    <path d="M25.5149 28.7505C25.5149 28.7505 19.9837 28.0129 17.4141 30.5825" stroke="#333333" stroke-width="1.18223" stroke-linecap="round" stroke-linejoin="round"/>
    <path d="M32.7193 15.2142L22.6201 25.3134" stroke="#333333" stroke-width="1.18223" stroke-linecap="round" stroke-linejoin="round"/>
    <path d="M31.9703 24.1919L24.1143 16.3359" stroke="#333333" stroke-width="1.18223" stroke-linecap="round" stroke-linejoin="round"/>
    <path d="M29.7267 25.6879L22.2451 18.2063" stroke="#333333" stroke-width="1.18223" stroke-linecap="round" stroke-linejoin="round"/>
    <path d="M26.7319 26.435L21.4951 21.1982" stroke="#333333" stroke-width="1.18223" stroke-linecap="round" stroke-linejoin="round"/>
    <path d="M33.4679 21.9472L25.9863 14.4656" stroke="#333333" stroke-width="1.18223" stroke-linecap="round" stroke-linejoin="round"/>
    <path d="M34.2143 18.9554L28.9775 13.717" stroke="#333333" stroke-width="1.18223" stroke-linecap="round" stroke-linejoin="round"/>
    <path d="M34.2145 18.2063L25.6113 26.8095" stroke="#333333" stroke-width="1.18223" stroke-linecap="round" stroke-linejoin="round"/>
    <path d="M29.7255 13.717L21.4951 21.9474" stroke="#333333" stroke-width="1.18223" stroke-linecap="round" stroke-linejoin="round"/>
</svg>
