<svg width="48" height="48" viewBox="0 0 48 48" fill="none" xmlns="http://www.w3.org/2000/svg">
    <path d="M33.2314 32.6849C35.1962 32.2721 36.4138 31.5153 36.7162 29.6929C37.0762 27.5329 32.5386 27.4993 29.5034 26.6545" stroke="#333333" stroke-width="1.18223" stroke-linecap="round" stroke-linejoin="round"/>
    <path d="M17.8887 24.3407C17.6071 24.4831 17.3046 24.5823 16.9782 24.6351C14.383 25.0575 15.8326 22.0063 13.607 22.0063C11.3814 22.0063 11.5174 29.6912 11.5174 29.6912C11.5174 29.6912 10.5062 32.32 12.5286 32.928C14.551 33.536 18.1911 32.456 20.6183 32.456C21.8439 32.456 23.6887 32.6816 25.6071 32.8656" stroke="#333333" stroke-width="1.18223" stroke-linecap="round" stroke-linejoin="round"/>
    <path d="M32.3701 30.995C34.2965 30.5902 35.6533 29.859 36.2885 28.5774" stroke="#333333" stroke-width="1.18223" stroke-linecap="round" stroke-linejoin="round"/>
    <path d="M12.0234 29.9838C12.0234 29.9838 19.305 29.2862 21.697 30.2974C22.2634 30.5358 22.969 30.747 23.7642 30.9182" stroke="#333333" stroke-width="1.18223" stroke-linecap="round" stroke-linejoin="round"/>
    <path d="M14.3138 16.4943C14.3138 16.4943 11.5938 17.7039 12.6514 19.6687C13.709 21.6335 17.2354 23.5487 19.0498 25.3615C20.8642 27.1759 23.8306 31.4639 26.3266 33.5007C28.8226 35.5391 31.0306 36.8383 33.1458 35.3263C35.261 33.8143 30.637 29.4927 29.4274 26.4687C28.2178 23.4463 29.2882 16.3439 27.173 16.9487C25.0578 17.5535 23.4594 17.7215 22.173 16.7951C19.9186 15.1711 23.2818 13.9743 21.6194 12.3119C19.957 10.6495 14.3138 16.4927 14.3138 16.4927V16.4943Z" stroke="#333333" stroke-width="1.18223" stroke-linecap="round" stroke-linejoin="round"/>
    <path d="M14.4727 17.0911C14.4727 17.0911 20.4343 22.0111 21.4679 24.5551C23.0151 28.3663 29.6295 35.5343 33.6583 34.1727" stroke="#333333" stroke-width="1.18223" stroke-linecap="round" stroke-linejoin="round"/>
    <path d="M28.6916 21.1359L25.5732 21.2559" stroke="#333333" stroke-width="1.18223" stroke-linecap="round" stroke-linejoin="round"/>
    <path d="M28.4774 23.8767L26.5254 23.9519" stroke="#333333" stroke-width="1.18223" stroke-linecap="round" stroke-linejoin="round"/>
    <path d="M29.3546 26.2751L27.665 26.3487" stroke="#333333" stroke-width="1.18223" stroke-linecap="round" stroke-linejoin="round"/>
</svg>
