<svg width="48" height="48" viewBox="0 0 48 48" fill="none" xmlns="http://www.w3.org/2000/svg">
    <g clip-path="url(#clip0_234_7050)">
        <path d="M23.9999 39.0599C32.3173 39.0599 39.0599 32.3174 39.0599 23.9999C39.0599 15.6825 32.3173 8.93994 23.9999 8.93994C15.6825 8.93994 8.93994 15.6825 8.93994 23.9999C8.93994 32.3174 15.6825 39.0599 23.9999 39.0599Z" stroke="#333333" stroke-width="1.5" stroke-miterlimit="10"/>
        <path d="M38.9197 22.2498C38.9197 22.2498 37.1897 18.2498 33.7397 20.8098C30.2897 23.3698 30.6797 27.1298 28.5197 32.0198C27.2825 34.5269 25.6557 36.8221 23.6997 38.8198" stroke="#333333" stroke-width="1.5" stroke-miterlimit="10"/>
        <path d="M25.7402 9.07983C25.7402 9.07983 29.7402 10.7998 27.1802 14.2598C24.6202 17.7198 20.8602 17.3198 15.9802 19.4898C13.4753 20.7309 11.1808 22.3574 9.18018 24.3098" stroke="#333333" stroke-width="1.5" stroke-miterlimit="10"/>
        <path d="M34.47 13.53L13.77 34.23" stroke="#333333" stroke-width="1.5" stroke-miterlimit="10"/>
        <path d="M35.5699 33.3501C35.6588 30.5788 35.1785 27.8187 34.1587 25.2404C33.1388 22.662 31.6011 20.3202 29.6405 18.3596C27.6798 16.3989 25.338 14.8612 22.7597 13.8413C20.1813 12.8215 17.4212 12.3412 14.6499 12.4301" stroke="#333333" stroke-width="1.5" stroke-miterlimit="10"/>
    </g>
    <defs>
        <clipPath id="clip0_234_7050">
            <rect width="48" height="48" fill="white"/>
        </clipPath>
    </defs>
</svg>
