<svg width="48" height="48" viewBox="0 0 48 48" fill="none" xmlns="http://www.w3.org/2000/svg">
    <g clip-path="url(#clip0_234_7026)">
        <path d="M24.7502 27.9401L14.1202 24.5001C13.4995 24.3323 12.8448 24.3367 12.2264 24.5129C11.608 24.6891 11.0493 25.0304 10.6102 25.5001L7.24023 28.9201V40.5101L13.7302 38.4001C14.6088 38.0107 15.5761 37.8656 16.5302 37.9801L23.9802 38.8901C25.2456 39.0389 26.5224 38.7303 27.5802 38.0201L39.7302 29.8701C40.2342 29.5246 40.5852 28.9978 40.71 28.3997C40.8349 27.8016 40.7239 27.1784 40.4002 26.6601V26.6601C40.2335 26.396 40.0159 26.1676 39.7602 25.9881C39.5045 25.8087 39.2158 25.6818 38.9107 25.6149C38.6055 25.5479 38.2902 25.5422 37.9828 25.598C37.6755 25.6538 37.3823 25.7701 37.1202 25.9401L27.5302 32.0801" stroke="#333333" stroke-width="1.5" stroke-miterlimit="10"/>
        <path d="M16.3799 30.3494L24.9199 32.9694C25.5139 33.1427 26.1521 33.0777 26.6991 32.7884C27.2461 32.499 27.6588 32.008 27.8499 31.4194V31.4194C27.9491 31.1215 27.9879 30.8067 27.964 30.4935C27.94 30.1804 27.8538 29.8752 27.7104 29.5958C27.567 29.3164 27.3692 29.0684 27.1287 28.8664C26.8882 28.6644 26.6099 28.5125 26.3099 28.4194L24.7499 27.9194" stroke="#333333" stroke-width="1.5" stroke-miterlimit="10"/>
        <path d="M21.81 22.19C25.8693 22.19 29.16 18.8993 29.16 14.84C29.16 10.7807 25.8693 7.48999 21.81 7.48999C17.7507 7.48999 14.46 10.7807 14.46 14.84C14.46 18.8993 17.7507 22.19 21.81 22.19Z" stroke="#333333" stroke-width="1.5" stroke-miterlimit="10"/>
        <path d="M21.8105 7.49939H25.6105C26.5979 7.46295 27.5825 7.62595 28.5054 7.97866C29.4283 8.33137 30.2707 8.86654 30.9821 9.55218C31.6935 10.2378 32.2594 11.0599 32.6459 11.9692C33.0324 12.8785 33.2316 13.8564 33.2316 14.8444C33.2316 15.8324 33.0324 16.8103 32.6459 17.7196C32.2594 18.6289 31.6935 19.4509 30.9821 20.1366C30.2707 20.8222 29.4283 21.3574 28.5054 21.7101C27.5825 22.0628 26.5979 22.2258 25.6105 22.1894H21.8105" stroke="#333333" stroke-width="1.5" stroke-miterlimit="10"/>
    </g>
    <defs>
        <clipPath id="clip0_234_7026">
            <rect width="48" height="48" fill="white"/>
        </clipPath>
    </defs>
</svg>
