<svg width="48" height="48" viewBox="0 0 48 48" fill="none" xmlns="http://www.w3.org/2000/svg">
    <path d="M30.9 15.78H44.47V15.03C44.47 10.53 40.81 6.87 36.31 6.87C34.23 6.87 32.34 7.64999 30.89 8.93999C29.45 7.65999 27.56 6.87 25.48 6.87C21.23 6.87 17.74 10.13 17.36 14.28H4.29004V15.78H17.32V39.5C15.7 39.21 14.72 38.5 14.72 37.96H13.22C13.22 38.64 11.63 39.63 9.13004 39.63C6.63004 39.63 5.04004 38.64 5.04004 37.96H3.54004C3.54004 39.77 5.94004 41.13 9.13004 41.13C11.25 41.13 13.02 40.53 13.97 39.59C14.92 40.52 16.69 41.13 18.81 41.13C20.93 41.13 22.7 40.53 23.65 39.59C24.6 40.52 26.37 41.13 28.49 41.13C30.61 41.13 32.38 40.53 33.33 39.59C34.28 40.52 36.05 41.13 38.17 41.13C41.36 41.13 43.76 39.77 43.76 37.96H42.26C42.26 38.64 40.67 39.63 38.17 39.63C35.67 39.63 34.08 38.64 34.08 37.96H32.58C32.58 38.53 31.47 39.3 29.66 39.54V15.78H30.91H30.9ZM29.69 14.28C29.82 13.13 30.25 12.07 30.89 11.17C31.53 12.07 31.96 13.13 32.09 14.28H29.68H29.69ZM42.93 14.28H33.61C33.46 12.69 32.86 11.23 31.92 10.03C33.09 8.99999 34.63 8.37 36.31 8.37C39.73 8.37 42.55 10.96 42.93 14.28ZM25.48 8.37C27.16 8.37 28.69 8.99999 29.87 10.03C28.94 11.23 28.33 12.69 28.18 14.28H18.86C19.23 10.96 22.06 8.37 25.47 8.37H25.48ZM28.15 33.59H18.82V28.83H28.15V33.59ZM28.15 27.33H18.82V22.3H28.15V27.33ZM24.4 37.97H22.9C22.9 38.65 21.31 39.63 18.83 39.64V35.09H28.16V39.62C25.86 39.53 24.41 38.62 24.41 37.97H24.4ZM28.15 20.81H18.82V15.78H28.15V20.81Z" fill="black"/>
</svg>
