<svg width="48" height="48" viewBox="0 0 48 48" fill="none" xmlns="http://www.w3.org/2000/svg">
    <path d="M20.1841 29.6099V15.4291C20.1841 14.1139 21.2497 13.0483 22.5649 13.0483H22.6113C23.9265 13.0483 24.9921 14.1139 24.9921 15.4291V20.5283" stroke="#333333" stroke-width="1.18223" stroke-linecap="round" stroke-linejoin="round"/>
    <path d="M34.0726 20.5283V15.4291C34.0726 14.1139 33.0071 13.0483 31.6919 13.0483H31.6454C30.3302 13.0483 29.2646 14.1139 29.2646 15.4291V29.6083" stroke="#333333" stroke-width="1.18223" stroke-linecap="round" stroke-linejoin="round"/>
    <path d="M11.6367 20.528H36.2095" stroke="#333333" stroke-width="1.18223" stroke-linecap="round" stroke-linejoin="round"/>
    <path d="M11.6367 29.6099C13.6847 29.6099 13.6847 31.7475 15.7327 31.7475C17.7807 31.7475 17.7807 29.6099 19.8287 29.6099C21.8767 29.6099 21.8767 31.7475 23.9247 31.7475C25.9727 31.7475 25.9727 29.6099 28.0207 29.6099C30.0687 29.6099 30.0687 31.7475 32.1167 31.7475C34.1647 31.7475 34.1647 29.6099 36.2127 29.6099" stroke="#333333" stroke-width="1.18223" stroke-linecap="round" stroke-linejoin="round"/>
    <path d="M11.6367 33.8831C13.6847 33.8831 13.6847 36.0207 15.7327 36.0207C17.7807 36.0207 17.7807 33.8831 19.8287 33.8831C21.8767 33.8831 21.8767 36.0207 23.9247 36.0207C25.9727 36.0207 25.9727 33.8831 28.0207 33.8831C30.0687 33.8831 30.0687 36.0207 32.1167 36.0207C34.1647 36.0207 34.1647 33.8831 36.2127 33.8831" stroke="#333333" stroke-width="1.18223" stroke-linecap="round" stroke-linejoin="round"/>
    <path d="M20.1841 23.7329H29.2657" stroke="#333333" stroke-width="1.18223" stroke-linecap="round" stroke-linejoin="round"/>
    <path d="M20.1841 26.9375H29.2657" stroke="#333333" stroke-width="1.18223" stroke-linecap="round" stroke-linejoin="round"/>
</svg>
