<svg width="48" height="48" viewBox="0 0 48 48" fill="none" xmlns="http://www.w3.org/2000/svg">
    <g clip-path="url(#clip0_234_7033)">
        <path d="M22.1742 40.075C27.4982 40.075 31.8142 35.7591 31.8142 30.435C31.8142 25.111 27.4982 20.795 22.1742 20.795C16.8502 20.795 12.5342 25.111 12.5342 30.435C12.5342 35.7591 16.8502 40.075 22.1742 40.075Z" stroke="#333333" stroke-width="1.5" stroke-miterlimit="10"/>
        <path d="M22.1748 20.795H27.1748C29.7315 20.795 32.1835 21.8107 33.9913 23.6185C35.7992 25.4264 36.8148 27.8784 36.8148 30.435C36.8148 32.9917 35.7992 35.4437 33.9913 37.2516C32.1835 39.0594 29.7315 40.075 27.1748 40.075H22.1748" stroke="#333333" stroke-width="1.5" stroke-miterlimit="10"/>
        <path d="M18.6551 21.4549L9.95508 7.92493H18.2551L26.5351 20.7849" stroke="#333333" stroke-width="1.5" stroke-miterlimit="10"/>
        <path d="M29.4649 21.3949L38.0449 7.92493H29.7449L24.0049 16.8549" stroke="#333333" stroke-width="1.5" stroke-miterlimit="10"/>
        <path d="M19.5244 30.0547L21.7544 27.8147C21.8109 27.7593 21.8826 27.7219 21.9604 27.7072C22.0382 27.6926 22.1186 27.7013 22.1914 27.7324C22.2642 27.7634 22.3261 27.8154 22.3694 27.8816C22.4126 27.9479 22.4353 28.0255 22.4344 28.1047V33.6647" stroke="#333333" stroke-width="1.5" stroke-miterlimit="10"/>
    </g>
    <defs>
        <clipPath id="clip0_234_7033">
            <rect width="48" height="48" fill="white"/>
        </clipPath>
    </defs>
</svg>
