<svg width="48" height="48" viewBox="0 0 48 48" fill="none" xmlns="http://www.w3.org/2000/svg">
    <path d="M11.7144 18.5774C13.7624 18.5774 13.7624 20.715 15.8104 20.715C17.8584 20.715 17.8584 18.5774 19.9064 18.5774C21.9544 18.5774 21.9544 20.715 24.0024 20.715C26.0504 20.715 26.0504 18.5774 28.0984 18.5774C30.1464 18.5774 30.1464 20.715 32.1944 20.715C34.2424 20.715 34.2424 18.5774 36.2904 18.5774" stroke="#333333" stroke-width="1.18223" stroke-linecap="round" stroke-linejoin="round"/>
    <path d="M11.7144 22.9312C13.7624 22.9312 13.7624 25.0687 15.8104 25.0687C17.8584 25.0687 17.8584 22.9312 19.9064 22.9312C21.9544 22.9312 21.9544 25.0687 24.0024 25.0687C26.0504 25.0687 26.0504 22.9312 28.0984 22.9312C30.1464 22.9312 30.1464 25.0687 32.1944 25.0687C34.2424 25.0687 34.2424 22.9312 36.2904 22.9312" stroke="#333333" stroke-width="1.18223" stroke-linecap="round" stroke-linejoin="round"/>
    <path d="M11.7144 27.2866C13.7624 27.2866 13.7624 29.4242 15.8104 29.4242C17.8584 29.4242 17.8584 27.2866 19.9064 27.2866C21.9544 27.2866 21.9544 29.4242 24.0024 29.4242C26.0504 29.4242 26.0504 27.2866 28.0984 27.2866C30.1464 27.2866 30.1464 29.4242 32.1944 29.4242C34.2424 29.4242 34.2424 27.2866 36.2904 27.2866" stroke="#333333" stroke-width="1.18223" stroke-linecap="round" stroke-linejoin="round"/>
</svg>
