<svg width="64" height="64" viewBox="0 0 64 64" fill="none" xmlns="http://www.w3.org/2000/svg">
<path d="M41.9329 14.5132C39.2814 14.5621 36.755 15.6499 34.8973 17.5425C33.0397 19.4351 31.9991 21.9812 31.9996 24.6332C32 21.9812 30.9595 19.4351 29.1018 17.5425C27.2441 15.6499 24.7177 14.5621 22.0662 14.5132C20.7059 14.5149 19.3592 14.7853 18.1036 15.3087C16.8479 15.8321 15.708 16.5983 14.7492 17.5633C13.7903 18.5283 13.0315 19.6732 12.5162 20.9322C12.0009 22.1911 11.7392 23.5395 11.7462 24.8999V24.6065C11.7462 31.2732 14.5329 33.4465 19.4262 37.9398L31.9996 49.4865L44.5729 37.9398C49.4662 33.4465 52.2529 31.2732 52.2529 24.6065V24.8999C52.2599 23.5395 51.9983 22.1911 51.4829 20.9322C50.9676 19.6732 50.2088 18.5283 49.25 17.5633C48.2911 16.5983 47.1512 15.8321 45.8955 15.3087C44.6399 14.7853 43.2933 14.5149 41.9329 14.5132V14.5132Z" stroke="#333333" stroke-width="1.5" stroke-miterlimit="10"/>
<path d="M44.1992 20.9128C44.8023 21.5147 45.2808 22.2297 45.6073 23.0167C45.9337 23.8037 46.1018 24.6474 46.1018 25.4995C46.1018 26.3516 45.9337 27.1953 45.6073 27.9823C45.2808 28.7694 44.8023 29.4843 44.1992 30.0862" stroke="#333333" stroke-width="1.5" stroke-miterlimit="10"/>
</svg>
