<svg width="64" height="64" viewBox="0 0 64 64" fill="none" xmlns="http://www.w3.org/2000/svg">
<path d="M20.505 48.5098C21.7966 48.5098 23.0353 49.0229 23.9486 49.9362C24.862 50.8495 25.375 52.0882 25.375 53.3798H9.91504C9.91504 52.0882 10.4281 50.8495 11.3414 49.9362C12.2547 49.0229 13.4934 48.5098 14.785 48.5098" stroke="#333333" stroke-width="1.5" stroke-miterlimit="10"/>
<path d="M18.1549 37.0699H17.1549C16.0649 37.0699 15.0195 37.5029 14.2487 38.2737C13.4779 39.0444 13.0449 40.0898 13.0449 41.1799V44.7999C13.0449 46.0252 13.5317 47.2003 14.3981 48.0667C14.8271 48.4957 15.3364 48.836 15.8969 49.0682C16.4574 49.3004 17.0582 49.4199 17.6649 49.4199V49.4199C18.2716 49.4199 18.8724 49.3004 19.4329 49.0682C19.9934 48.836 20.5027 48.4957 20.9318 48.0667C21.3608 47.6377 21.7011 47.1284 21.9332 46.5679C22.1654 46.0073 22.2849 45.4066 22.2849 44.7999V41.1799C22.2849 40.6385 22.178 40.1024 21.9702 39.6024C21.7624 39.1025 21.4578 38.6485 21.0741 38.2666C20.6903 37.8847 20.2349 37.5823 19.7339 37.377C19.2329 37.1716 18.6963 37.0672 18.1549 37.0699Z" stroke="#333333" stroke-width="1.5" stroke-miterlimit="10"/>
<path d="M34.7755 22.0601C35.4181 22.0601 36.0543 22.1869 36.6477 22.4334C37.2411 22.6799 37.7799 23.0412 38.2333 23.4964C38.6867 23.9517 39.0458 24.492 39.2898 25.0864C39.5339 25.6808 39.6582 26.3175 39.6555 26.9601H24.1855C24.1855 26.3205 24.3115 25.6872 24.5563 25.0964C24.801 24.5055 25.1597 23.9687 25.6119 23.5164C26.0642 23.0642 26.601 22.7055 27.1919 22.4608C27.7827 22.216 28.416 22.0901 29.0555 22.0901" stroke="#333333" stroke-width="1.5" stroke-miterlimit="10"/>
<path d="M32.4257 10.6201H31.4257C30.8843 10.6188 30.3479 10.7245 29.8475 10.9311C29.347 11.1376 28.8923 11.4411 28.5095 11.8239C28.1266 12.2067 27.8232 12.6615 27.6166 13.1619C27.41 13.6624 27.3044 14.1987 27.3057 14.7401V18.3501C27.3083 19.572 27.7949 20.743 28.6588 21.607C29.5228 22.4709 30.6938 22.9575 31.9157 22.9601V22.9601C33.141 22.9601 34.3161 22.4734 35.1825 21.607C36.0489 20.7405 36.5357 19.5654 36.5357 18.3401V14.7401C36.537 14.1996 36.4317 13.664 36.2257 13.1642C36.0197 12.6644 35.7172 12.2102 35.3354 11.8275C34.9536 11.4447 34.5001 11.1411 34.0008 10.9339C33.5015 10.7268 32.9663 10.6201 32.4257 10.6201V10.6201Z" stroke="#333333" stroke-width="1.5" stroke-miterlimit="10"/>
<path d="M49.215 48.5098C50.5066 48.5098 51.7453 49.0229 52.6586 49.9362C53.5719 50.8495 54.085 52.0882 54.085 53.3798H38.625C38.625 52.0882 39.1381 50.8495 40.0514 49.9362C40.9647 49.0229 42.2034 48.5098 43.495 48.5098" stroke="#333333" stroke-width="1.5" stroke-miterlimit="10"/>
<path d="M46.8651 37.0698H45.8651C45.3245 37.0685 44.789 37.1739 44.2892 37.3798C43.7894 37.5858 43.3352 37.8883 42.9524 38.2701C42.5697 38.6519 42.2661 39.1054 42.0589 39.6047C41.8518 40.104 41.7451 40.6393 41.7451 41.1798V44.7998C41.7451 46.0251 42.2319 47.2003 43.0983 48.0667C43.9647 48.9331 45.1398 49.4198 46.3651 49.4198V49.4198C47.5904 49.4198 48.7655 48.9331 49.632 48.0667C50.4984 47.2003 50.9851 46.0251 50.9851 44.7998V41.1798C50.9851 40.6393 50.8785 40.104 50.6713 39.6047C50.4641 39.1054 50.1605 38.6519 49.7778 38.2701C49.3951 37.8883 48.9408 37.5858 48.441 37.3798C47.9412 37.1739 47.4057 37.0685 46.8651 37.0698V37.0698Z" stroke="#333333" stroke-width="1.5" stroke-miterlimit="10"/>
<path d="M26.1748 43.2397H37.6548" stroke="#333333" stroke-width="1.5" stroke-miterlimit="10"/>
<path d="M23.6849 30.5601L21.5049 35.1401" stroke="#333333" stroke-width="1.5" stroke-miterlimit="10"/>
<path d="M40.1455 30.5601L42.3255 35.1401" stroke="#333333" stroke-width="1.5" stroke-miterlimit="10"/>
</svg>
