<svg width="48" height="48" viewBox="0 0 48 48" fill="none" xmlns="http://www.w3.org/2000/svg">
    <g clip-path="url(#clip0_234_8131)">
        <path d="M11.883 21.2073C13.2145 21.2037 14.5172 21.5951 15.6262 22.332C16.7351 23.069 17.6006 24.1183 18.113 25.3473C18.4928 26.266 18.6639 27.2576 18.6142 28.2505C18.5645 29.2434 18.2951 30.2129 17.8254 31.0891C17.3557 31.9653 16.6975 32.7264 15.8982 33.3174C15.0989 33.9085 14.1784 34.3149 13.203 34.5073C11.8976 34.762 10.5462 34.6266 9.31727 34.118C8.08837 33.6094 7.03652 32.7501 6.29301 31.6473C5.62042 30.6354 5.23474 29.4602 5.17702 28.2465C5.1193 27.0329 5.39169 25.8263 5.96521 24.7552C6.53874 23.6841 7.39192 22.7885 8.43399 22.1638C9.47606 21.539 10.668 21.2085 11.883 21.2073V21.2073Z" stroke="#333333" stroke-width="1.5" stroke-linejoin="round"/>
        <path d="M36.0929 21.2073C37.4227 21.2056 38.7232 21.598 39.8302 22.3348C40.9373 23.0716 41.8012 24.1199 42.3129 25.3473C42.8255 26.5661 42.9613 27.9105 42.7029 29.2073C42.4421 30.5103 41.802 31.7071 40.8629 32.6473C39.9214 33.5898 38.7212 34.2317 37.4146 34.4916C36.1079 34.7515 34.7535 34.6178 33.5229 34.1073C32.0943 33.5095 30.9164 32.436 30.189 31.0689C29.4617 29.7017 29.2296 28.125 29.5322 26.6062C29.8347 25.0874 30.6534 23.7201 31.8492 22.736C33.0449 21.752 34.5443 21.2119 36.0929 21.2073V21.2073Z" stroke="#333333" stroke-width="1.5" stroke-linejoin="round"/>
        <path d="M18.6228 27.8974H24.7228L15.3228 13.3674" stroke="#333333" stroke-width="1.5" stroke-linejoin="round"/>
        <path d="M36.1021 27.8975L30.5221 16.9275H17.4621L11.8921 27.8975H18.6221" stroke="#333333" stroke-width="1.5" stroke-linejoin="round"/>
        <path d="M24.7222 27.8975L30.5222 16.9275" stroke="#333333" stroke-width="1.5" stroke-linejoin="round"/>
        <path d="M30.5229 16.9274V13.3674H34.273" stroke="#333333" stroke-width="1.5" stroke-linejoin="round"/>
        <path d="M13.0327 13.3674H19.9527" stroke="#333333" stroke-width="1.5" stroke-linejoin="round"/>
    </g>
    <defs>
        <clipPath id="clip0_234_8131">
            <rect width="48" height="48" fill="white"/>
        </clipPath>
    </defs>
</svg>
