<svg width="48" height="48" viewBox="0 0 48 48" fill="none" xmlns="http://www.w3.org/2000/svg">
    <g clip-path="url(#clip0_234_9498)">
        <path d="M21.9744 28.3416L25.5969 31.9641L20.7519 36.8091C19.3134 38.2491 17.4472 39.1844 15.4327 39.4751C13.4182 39.7658 11.3637 39.3962 9.57685 38.4216V38.4216C8.60226 36.6347 8.23265 34.5803 8.52333 32.5658C8.81402 30.5512 9.74936 28.6851 11.1894 27.2466L16.0344 22.4016L19.6569 26.0241" stroke="#333333" stroke-width="1.5"/>
        <path d="M34.2895 16.0641L31.972 13.7466L19.657 26.0241L19.0645 27.9591C19.0099 28.0954 18.9965 28.2447 19.026 28.3885C19.0555 28.5323 19.1266 28.6643 19.2304 28.7681C19.3342 28.8719 19.4662 28.943 19.61 28.9725C19.7538 29.002 19.9032 28.9886 20.0395 28.9341L21.9745 28.3416L34.2895 16.0641Z" stroke="#333333" stroke-width="1.5"/>
        <path d="M38.0829 13.7846L34.2168 9.91845C33.3938 9.09542 32.0594 9.09542 31.2363 9.91845L31.1992 9.95557C30.3762 10.7786 30.3762 12.113 31.1992 12.936L35.0653 16.8021C35.8883 17.6252 37.2227 17.6252 38.0458 16.8021L38.0829 16.765C38.9059 15.942 38.9059 14.6076 38.0829 13.7846Z" stroke="#333333" stroke-width="1.5"/>
        <path d="M14.2568 33.7418L19.1768 28.8218" stroke="#333333" stroke-width="1.5"/>
    </g>
    <defs>
        <clipPath id="clip0_234_9498">
            <rect width="48" height="48" fill="white"/>
        </clipPath>
    </defs>
</svg>
