<svg width="48" height="48" viewBox="0 0 48 48" fill="none" xmlns="http://www.w3.org/2000/svg">
    <g clip-path="url(#clip0_234_8181)">
        <path d="M32.5452 9.03516H11.5952C10.1813 9.03516 9.03516 10.1813 9.03516 11.5952V32.5452C9.03516 33.959 10.1813 35.1052 11.5952 35.1052H32.5452C33.959 35.1052 35.1052 33.959 35.1052 32.5452V11.5952C35.1052 10.1813 33.959 9.03516 32.5452 9.03516Z" stroke="#333333" stroke-width="1.5" stroke-miterlimit="10"/>
        <path d="M38.9651 12.4551V33.0551C38.9598 34.6209 38.3355 36.1211 37.2283 37.2283C36.1211 38.3355 34.6209 38.9598 33.0551 38.9651H12.4551" stroke="#333333" stroke-width="1.5" stroke-miterlimit="10"/>
        <path d="M19.8955 16.2554H22.8955C23.8025 16.2554 24.6724 16.6157 25.3138 17.2571C25.9552 17.8984 26.3155 18.7683 26.3155 19.6754C26.3155 20.5824 25.9552 21.4523 25.3138 22.0937C24.6724 22.7351 23.8025 23.0954 22.8955 23.0954H19.8955V16.2554Z" stroke="#333333" stroke-width="1.5" stroke-miterlimit="10"/>
        <path d="M19.8955 29.385V23.105" stroke="#333333" stroke-width="1.5" stroke-miterlimit="10"/>
    </g>
    <defs>
        <clipPath id="clip0_234_8181">
            <rect width="48" height="48" fill="white"/>
        </clipPath>
    </defs>
</svg>
