<svg width="48" height="48" viewBox="0 0 48 48" fill="none" xmlns="http://www.w3.org/2000/svg">
    <g clip-path="url(#clip0_234_8347)">
        <path d="M19.3354 21.8093L28.6954 15.8093" stroke="#333333" stroke-width="1.5" stroke-miterlimit="10"/>
        <path d="M28.6954 32.1599L19.3354 26.1599" stroke="#333333" stroke-width="1.5" stroke-miterlimit="10"/>
        <path d="M15.9054 28.0694C16.7104 28.0694 17.4973 27.8307 18.1666 27.3835C18.8359 26.9363 19.3576 26.3007 19.6656 25.557C19.9737 24.8133 20.0543 23.9949 19.8972 23.2054C19.7402 22.4159 19.3526 21.6907 18.7834 21.1215C18.2142 20.5523 17.489 20.1647 16.6995 20.0076C15.91 19.8506 15.0916 19.9312 14.3479 20.2393C13.6042 20.5473 12.9686 21.069 12.5214 21.7383C12.0741 22.4076 11.8354 23.1945 11.8354 23.9994C11.8354 25.0789 12.2643 26.1141 13.0275 26.8774C13.7908 27.6406 14.826 28.0694 15.9054 28.0694V28.0694Z" stroke="#333333" stroke-width="1.5" stroke-miterlimit="10"/>
        <path d="M32.1349 17.7196C32.9381 17.7117 33.721 17.4663 34.3851 17.0144C35.0491 16.5624 35.5645 15.924 35.8665 15.1796C36.1684 14.4353 36.2433 13.6182 36.0818 12.8314C35.9202 12.0445 35.5295 11.3231 34.9587 10.7579C34.388 10.1927 33.6627 9.80899 32.8743 9.65516C32.0859 9.50134 31.2696 9.58424 30.5283 9.89343C29.7869 10.2026 29.1536 10.7243 28.7081 11.3927C28.2627 12.0611 28.0249 12.8464 28.0249 13.6496C28.0249 14.1875 28.1315 14.72 28.3385 15.2165C28.5455 15.7129 28.8489 16.1633 29.2311 16.5418C29.6133 16.9203 30.0667 17.2192 30.5651 17.4214C31.0635 17.6236 31.5971 17.7249 32.1349 17.7196V17.7196Z" stroke="#333333" stroke-width="1.5" stroke-miterlimit="10"/>
        <path d="M32.1349 38.4198C32.9381 38.4119 33.721 38.1665 34.3851 37.7146C35.0491 37.2626 35.5645 36.6242 35.8665 35.8798C36.1684 35.1355 36.2433 34.3184 36.0818 33.5316C35.9202 32.7447 35.5295 32.0233 34.9587 31.4581C34.388 30.8929 33.6627 30.5092 32.8743 30.3554C32.0859 30.2015 31.2696 30.2844 30.5283 30.5936C29.7869 30.9028 29.1536 31.4245 28.7081 32.0929C28.2627 32.7613 28.0249 33.5466 28.0249 34.3498C28.0249 34.8877 28.1315 35.4202 28.3385 35.9167C28.5455 36.4131 28.8489 36.8635 29.2311 37.242C29.6133 37.6205 30.0667 37.9194 30.5651 38.1216C31.0635 38.3237 31.5971 38.4251 32.1349 38.4198V38.4198Z" stroke="#333333" stroke-width="1.5" stroke-miterlimit="10"/>
    </g>
    <defs>
        <clipPath id="clip0_234_8347">
            <rect width="48" height="48" fill="white"/>
        </clipPath>
    </defs>
</svg>
