<svg width="48" height="48" viewBox="0 0 48 48" fill="none" xmlns="http://www.w3.org/2000/svg">
    <path d="M38.2498 19.74C37.5998 18.88 36.5598 18.37 35.4798 18.37H27.7498C26.4998 18.37 25.4798 19.39 25.4798 20.64V24.59L11.2098 6.29003C10.7498 5.71003 10.0998 5.34003 9.35978 5.27003C8.61978 5.20003 7.90978 5.42003 7.34978 5.91003C6.30978 6.81003 6.11979 8.33003 6.89979 9.46003L7.97978 11.02V18.08C7.97978 18.8 7.65979 19.44 7.14979 19.77C6.05979 20.46 5.54979 21.77 5.87979 23.03C6.13979 24.03 6.94978 24.85 7.95978 25.1C8.21978 25.17 8.47978 25.2 8.72978 25.2C9.37978 25.2 10.0098 24.99 10.5298 24.58C11.2598 24.02 11.6698 23.17 11.6698 22.25H10.1698C10.1698 22.7 9.95978 23.12 9.60978 23.4C9.24978 23.68 8.78978 23.77 8.32978 23.65C7.85978 23.53 7.44978 23.13 7.32978 22.65C7.15978 22.01 7.40978 21.37 7.94978 21.03C8.89978 20.43 9.46979 19.32 9.46979 18.08V13.19L20.5698 29.22H5.77979V38.07H9.83979C9.95978 38.69 10.1898 39.29 10.5498 39.83C11.0698 40.61 11.7998 41.21 12.6698 41.56C13.2498 41.8 13.8598 41.92 14.4698 41.92C14.7798 41.92 15.0898 41.89 15.3898 41.83C16.3098 41.65 17.1398 41.2 17.8098 40.54C18.4698 39.88 18.9198 39.05 19.0998 38.13C19.0998 38.11 19.0998 38.09 19.0998 38.06H26.9598H28.8998C29.0098 38.72 29.2498 39.36 29.6298 39.93C30.1498 40.71 30.8798 41.31 31.7498 41.66C32.3298 41.9 32.9398 42.02 33.5498 42.02C33.8598 42.02 34.1698 41.99 34.4698 41.93C35.3898 41.75 36.2198 41.3 36.8898 40.64C37.5498 39.98 37.9998 39.15 38.1798 38.23C38.1898 38.17 38.1898 38.12 38.1998 38.06H40.7698C41.9598 38.06 42.9298 37.09 42.9298 35.9V25.93L38.2198 19.74H38.2498ZM37.0598 20.65L41.4598 26.44V29.21H33.3898C31.9598 29.21 30.7898 28.04 30.7898 26.61V19.87H35.4798C36.0898 19.87 36.6798 20.16 37.0598 20.65ZM8.12979 8.60003C7.78979 8.10003 7.86978 7.43003 8.32978 7.04003C8.57978 6.83003 8.88979 6.73003 9.20978 6.76003C9.52978 6.79003 9.81979 6.95003 10.0198 7.21003L25.4698 27.03V29.21H22.3898L8.12979 8.60003ZM17.6298 37.83C17.5098 38.45 17.1998 39.02 16.7498 39.47C16.2998 39.92 15.7298 40.22 15.0998 40.35C14.4698 40.47 13.8298 40.41 13.2398 40.17C12.6498 39.93 12.1498 39.52 11.7998 38.99C11.4598 38.49 11.2798 37.9 11.2598 37.3V37.21C11.2598 36.36 11.5898 35.55 12.1998 34.95C12.8098 34.35 13.6198 34.01 14.4698 34.01C15.1098 34.01 15.7198 34.2 16.2598 34.55C16.7898 34.9 17.1998 35.4 17.4498 35.99C17.6998 36.58 17.7598 37.22 17.6298 37.84V37.83ZM17.0898 33.29C16.3098 32.77 15.4098 32.5 14.4698 32.5C13.2098 32.5 12.0298 32.99 11.1398 33.88C10.3998 34.61 9.95978 35.55 9.81978 36.56H7.26978V30.71H25.4698V36.56H19.1298C19.0698 36.17 18.9798 35.78 18.8198 35.41C18.4598 34.55 17.8598 33.82 17.0798 33.3L17.0898 33.29ZM36.7198 37.93C36.5998 38.55 36.2898 39.12 35.8398 39.57C35.3898 40.02 34.8198 40.32 34.1898 40.45C33.5598 40.57 32.9198 40.51 32.3298 40.27C31.7398 40.03 31.2398 39.62 30.8898 39.09C30.5398 38.56 30.3498 37.94 30.3498 37.31C30.3498 36.46 30.6798 35.65 31.2898 35.05C31.8898 34.45 32.7198 34.11 33.5598 34.11C34.1998 34.11 34.8198 34.3 35.3498 34.65C35.8798 35 36.2898 35.5 36.5398 36.09C36.7898 36.68 36.8498 37.32 36.7198 37.94V37.93ZM40.7898 36.56H38.2098C38.1498 36.2 38.0598 35.85 37.9198 35.51C37.5598 34.65 36.9598 33.92 36.1798 33.4C35.3998 32.88 34.4998 32.61 33.5598 32.61C32.3198 32.61 31.0998 33.11 30.2298 33.99C29.5198 34.7 29.0798 35.59 28.9198 36.56H26.9698V29.96V20.64C26.9698 20.22 27.3098 19.87 27.7398 19.87H29.2798V26.61C29.2798 28.87 31.1198 30.71 33.3798 30.71H41.4498V35.9C41.4498 36.27 41.1498 36.56 40.7898 36.56Z" fill="black"/>
</svg>
