<svg width="48" height="48" viewBox="0 0 48 48" fill="none" xmlns="http://www.w3.org/2000/svg">
    <g clip-path="url(#clip0_234_9484)">
        <path d="M39.0144 15.0862H8.98438V27.0787H39.0144V15.0862Z" stroke="#333333" stroke-width="1.5"/>
        <path d="M13.4917 27.0789V37.0314" stroke="#333333" stroke-width="1.5"/>
        <path d="M34.5068 27.0789V37.0314" stroke="#333333" stroke-width="1.5"/>
        <path d="M9.17188 37.0312H17.8044" stroke="#333333" stroke-width="1.5"/>
        <path d="M30.1943 37.0312H38.8268" stroke="#333333" stroke-width="1.5"/>
        <path d="M13.4995 10.9688C13.8997 10.9724 14.283 11.1305 14.5695 11.41C14.856 11.6894 15.0234 12.0688 15.037 12.4688V15.0563H11.9395V12.4688C11.9531 12.0649 12.1237 11.6823 12.415 11.4022C12.7063 11.1221 13.0953 10.9666 13.4995 10.9688V10.9688Z" stroke="#333333" stroke-width="1.5"/>
        <path d="M34.4994 10.9688C34.9035 10.9666 35.2926 11.1221 35.5839 11.4022C35.8751 11.6823 36.0458 12.0649 36.0594 12.4688V15.0563H32.9619V12.4688C32.9754 12.0688 33.1429 11.6894 33.4294 11.41C33.7159 11.1305 34.0992 10.9724 34.4994 10.9688Z" stroke="#333333" stroke-width="1.5"/>
        <path d="M16.2144 14.7563V26.5463" stroke="#333333" stroke-width="1.5"/>
        <path d="M24.0068 15.0862V26.8762" stroke="#333333" stroke-width="1.5"/>
        <path d="M31.8066 15.0862V27.0787" stroke="#333333" stroke-width="1.5"/>
    </g>
    <defs>
        <clipPath id="clip0_234_9484">
            <rect width="48" height="48" fill="white"/>
        </clipPath>
    </defs>
</svg>
