<svg width="48" height="48" viewBox="0 0 48 48" fill="none" xmlns="http://www.w3.org/2000/svg">
    <g clip-path="url(#clip0_234_8157)">
        <path d="M31.2551 34.0681H16.7451" stroke="#333333" stroke-width="1.5" stroke-miterlimit="10"/>
        <path d="M9.94481 34.068H6.7148C6.10919 34.068 5.52823 33.8281 5.09906 33.4008C4.66988 32.9735 4.42745 32.3936 4.4248 31.788V19.448C4.44045 18.8511 4.68861 18.284 5.11638 17.8674C5.54415 17.4508 6.11771 17.2178 6.7148 17.218H41.2848C41.8904 17.218 42.4714 17.4579 42.9006 17.8852C43.3297 18.3125 43.5722 18.8924 43.5748 19.498V31.788C43.5722 32.3936 43.3297 32.9735 42.9006 33.4008C42.4714 33.8281 41.8904 34.068 41.2848 34.068H38.0548" stroke="#333333" stroke-width="1.5" stroke-miterlimit="10"/>
        <path d="M13.3344 30.718C14.0099 30.7179 14.6705 30.8761 15.2344 31.248C15.7926 31.6195 16.2277 32.1486 16.4844 32.768C16.7547 33.3986 16.8211 34.0978 16.6744 34.768C16.5449 35.4278 16.221 36.0338 15.7444 36.508C15.2684 36.9844 14.6614 37.3083 14.0006 37.4383C13.3398 37.5683 12.6553 37.4986 12.0344 37.238C11.413 36.9845 10.8831 36.5487 10.5144 35.988C10.1742 35.4775 9.97885 34.8843 9.94926 34.2715C9.91967 33.6588 10.0569 33.0495 10.3463 32.5086C10.6358 31.9677 11.0666 31.5155 11.5928 31.2002C12.119 30.8848 12.7209 30.7181 13.3344 30.718Z" stroke="#333333" stroke-width="1.5" stroke-miterlimit="10"/>
        <path d="M34.7043 30.7182C35.3734 30.7106 35.9803 30.8582 36.5443 31.2182C37.1283 31.587 37.5828 32.1289 37.8443 32.7682C38.1129 33.399 38.1826 34.0967 38.0443 34.7682C37.9135 35.4292 37.5887 36.0362 37.1114 36.5118C36.634 36.9873 36.0258 37.3099 35.3643 37.4382C34.9017 37.5263 34.4257 37.5171 33.9668 37.4111C33.5079 37.3051 33.0762 37.1046 32.6991 36.8225C32.322 36.5404 32.0078 36.1827 31.7765 35.7724C31.5453 35.3621 31.4021 34.9082 31.3561 34.4394C31.31 33.9707 31.3622 33.4976 31.5092 33.0501C31.6562 32.6027 31.8948 32.1907 32.2098 31.8406C32.5248 31.4905 32.9093 31.2099 33.3388 31.0166C33.7683 30.8234 34.2334 30.7218 34.7043 30.7182Z" stroke="#333333" stroke-width="1.5" stroke-miterlimit="10"/>
        <path d="M24.5946 17.1678L17.9346 10.4978" stroke="#333333" stroke-width="1.5" stroke-miterlimit="10"/>
        <path d="M28.5645 17.1678L21.8945 10.4978" stroke="#333333" stroke-width="1.5" stroke-miterlimit="10"/>
        <path d="M4.4248 25.6179H43.5748" stroke="#333333" stroke-width="1.5" stroke-miterlimit="10"/>
        <path d="M34.665 17.1682V25.6182" stroke="#333333" stroke-width="1.5" stroke-miterlimit="10"/>
        <path d="M24.0049 17.1682V25.6182" stroke="#333333" stroke-width="1.5" stroke-miterlimit="10"/>
        <path d="M13.335 17.1682V25.6182" stroke="#333333" stroke-width="1.5" stroke-miterlimit="10"/>
    </g>
    <defs>
        <clipPath id="clip0_234_8157">
            <rect width="48" height="48" fill="white"/>
        </clipPath>
    </defs>
</svg>
