<svg width="48" height="48" viewBox="0 0 48 48" fill="none" xmlns="http://www.w3.org/2000/svg">
    <g clip-path="url(#clip0_234_9506)">
        <path d="M14.4521 17.0193V25.8243C14.4521 26.3434 14.6584 26.8413 15.0255 27.2084C15.3926 27.5756 15.8905 27.7818 16.4096 27.7818H21.5471L27.9371 35.3268" stroke="#333333" stroke-width="1.5"/>
        <path d="M14.4524 17.0191C15.782 17.0191 16.8599 15.9412 16.8599 14.6116C16.8599 13.282 15.782 12.2041 14.4524 12.2041C13.1228 12.2041 12.0449 13.282 12.0449 14.6116C12.0449 15.9412 13.1228 17.0191 14.4524 17.0191Z" stroke="#333333" stroke-width="1.5"/>
        <path d="M11.7224 25.0518C10.9647 25.783 10.3727 26.6682 9.98622 27.6477C9.59973 28.6272 9.42776 29.6782 9.48191 30.7298C9.53607 31.7814 9.81508 32.8091 10.3001 33.7437C10.7852 34.6783 11.465 35.4981 12.2938 36.1476C13.1225 36.7972 14.0809 37.2615 15.1043 37.5093C16.1278 37.757 17.1924 37.7824 18.2265 37.5838C19.2606 37.3852 20.24 36.9671 21.0988 36.3578C21.9576 35.7485 22.6758 34.9622 23.2049 34.0518" stroke="#333333" stroke-width="1.5"/>
        <path d="M14.4521 21.7366H21.5396" stroke="#333333" stroke-width="1.5"/>
        <path d="M31.1172 13.4417V22.2391" stroke="#333333" stroke-width="1.5"/>
        <path d="M31.1172 13.4417H33.4797C34.1063 13.4417 34.7072 13.6906 35.1502 14.1336C35.5933 14.5767 35.8422 15.1776 35.8422 15.8042V15.8042C35.8422 16.4307 35.5933 17.0316 35.1502 17.4747C34.7072 17.9177 34.1063 18.1667 33.4797 18.1667H31.1172V13.4417Z" stroke="#333333" stroke-width="1.5"/>
        <path d="M36.345 10.2842H29.64C28.4347 10.2842 27.4575 11.2613 27.4575 12.4667V23.2142C27.4575 24.4195 28.4347 25.3967 29.64 25.3967H36.345C37.5504 25.3967 38.5275 24.4195 38.5275 23.2142V12.4667C38.5275 11.2613 37.5504 10.2842 36.345 10.2842Z" stroke="#333333" stroke-width="1.5"/>
        <path d="M32.9922 25.0518V37.6818" stroke="#333333" stroke-width="1.5"/>
    </g>
    <defs>
        <clipPath id="clip0_234_9506">
            <rect width="48" height="48" fill="white"/>
        </clipPath>
    </defs>
</svg>
