<svg xmlns="http://www.w3.org/2000/svg" width="24" height="24" fill="none" viewBox="0 0 24 24">
  <path fill="currentColor" fill-rule="evenodd" d="M14.9 2.26c.64 0 1.26.24 1.74.67h-.02l4.23 3.8c.55.49.87 1.2.87 1.94v10.09c0 1.44-1.17 2.61-2.61 2.61H4.77c-1.44 0-2.61-1.17-2.61-2.61V4.87c0-1.44 1.17-2.61 2.61-2.61H14.9Zm-2.57 4.1v-2.6H7.08v2.6c0 .2.16.36.36.36h4.53c.2 0 .36-.16.36-.36Zm6.79 13.51c.61 0 1.11-.5 1.11-1.11h-.01V8.67c0-.32-.14-.62-.37-.83l-4.23-3.8c-.2-.18-.47-.28-.74-.28h-1.06v2.6c0 1.02-.83 1.86-1.86 1.86H7.43c-1.02 0-1.86-.83-1.86-1.86v-2.6h-.8c-.61 0-1.11.5-1.11 1.11v13.89c0 .61.5 1.11 1.11 1.11h14.35ZM8.65 14c0-1.82 1.48-3.3 3.3-3.3 1.82 0 3.3 1.48 3.3 3.3 0 1.82-1.48 3.3-3.3 3.3-1.82 0-3.3-1.48-3.3-3.3Zm1.5-.01c0 .99.81 1.8 1.8 1.8s1.8-.81 1.8-1.8-.81-1.8-1.8-1.8-1.8.81-1.8 1.8Z" clip-rule="evenodd"/>
</svg>
