<svg xmlns="http://www.w3.org/2000/svg" width="20" height="20" viewBox="0 0 20 20" fill="none">
  <path d="M17.0417 3.99909H10.625V1.48242H9.37502V3.99909H2.95835C1.70002 3.99909 0.68335 5.02409 0.68335 6.27409V14.2824C0.68335 15.5408 1.70002 16.5574 2.95835 16.5574H17.05C18.3083 16.5574 19.325 15.5324 19.325 14.2824V6.27409C19.325 5.01576 18.3083 3.99909 17.05 3.99909H17.0417ZM18.0667 14.2824C18.0667 14.8491 17.6084 15.3074 17.0417 15.3074H2.95835C2.39168 15.3074 1.93335 14.8491 1.93335 14.2824V6.27409C1.93335 5.70742 2.39168 5.24909 2.95835 5.24909H9.37502V6.66576H10.625V5.24909H17.0417C17.6084 5.24909 18.0667 5.70742 18.0667 6.27409V14.2824Z" fill="#464646"/>
  <path d="M8.65831 10.3001C8.76664 10.0418 8.83331 9.75846 8.83331 9.4668V8.22513C8.79998 7.18346 7.93331 6.3418 6.88331 6.3418H6.55831C5.50831 6.3418 4.64998 7.17513 4.60831 8.22513V9.4668C4.60831 9.7668 4.66664 10.0418 4.77498 10.3001C4.07498 10.6668 3.59998 11.3918 3.59998 12.2335V14.0001H9.84164V12.2335C9.84164 11.3918 9.35831 10.6668 8.66664 10.3001H8.65831ZM5.84998 8.5918V8.30013C5.84998 7.9168 6.16664 7.60013 6.54998 7.60013H6.87498C7.25831 7.60013 7.57498 7.9168 7.57498 8.30013V9.4668C7.57498 9.9418 7.18331 10.3335 6.70831 10.3335C6.23331 10.3335 5.84164 9.9418 5.84164 9.4668V8.5918H5.84998ZM8.58331 12.7501H4.84164V12.2335C4.84164 11.7501 5.21664 11.3585 5.69164 11.3085C5.99164 11.4751 6.34164 11.5835 6.70831 11.5835C7.07498 11.5835 7.42498 11.4751 7.72498 11.3085C8.19998 11.3585 8.57498 11.7501 8.57498 12.2335V12.7501H8.58331Z" fill="#333333"/>
  <path d="M16.4083 8.00781H12.0083V9.25781H16.4083V8.00781Z" fill="#333333"/>
  <path d="M16.4083 11.3008H12.0083V12.5508H16.4083V11.3008Z" fill="#333333"/>
</svg>