<svg xmlns="http://www.w3.org/2000/svg" width="24" height="24" fill="none" viewBox="0 0 24 24">
  <path fill="currentColor" d="M19.48 7.22h-2.56V4.75c0-1.36-1.11-2.47-2.47-2.47H5c-1.36 0-2.47 1.11-2.47 2.47v9.98c0 1.36 1.11 2.47 2.47 2.47h2.56v2.47c0 1.36 1.11 2.47 2.47 2.47h9.45c1.36 0 2.47-1.11 2.47-2.47V9.69c0-1.36-1.11-2.47-2.47-2.47ZM5 15.7a.97.97 0 0 1-.97-.97V4.75c0-.54.44-.97.97-.97h9.45c.54 0 .97.44.97.97v2.47h-5.39c-1.36 0-2.47 1.11-2.47 2.47v6H5v.01Zm15.45 3.97c0 .54-.44.97-.97.97h-9.45a.97.97 0 0 1-.97-.97V9.69c0-.54.44-.97.97-.97h9.45c.54 0 .97.44.97.97v9.98Z"/>
</svg>
