<svg xmlns="http://www.w3.org/2000/svg" width="24" height="24" fill="none" viewBox="0 0 24 24">
  <path fill="currentColor" fill-rule="evenodd" d="M.27 12.37C2.71 16.64 7.21 19.3 12 19.3s9.28-2.65 11.73-6.93l.21-.37-.21-.37C21.29 7.36 16.79 4.7 12 4.7S2.72 7.35.27 11.63L.06 12l.21.37ZM12 17.8c-4.12 0-7.99-2.21-10.21-5.8C4.01 8.41 7.88 6.2 12 6.2c4.12 0 7.99 2.21 10.21 5.8-2.22 3.59-6.09 5.8-10.21 5.8ZM8.63 12c0 1.86 1.51 3.37 3.37 3.37s3.37-1.51 3.37-3.37S13.86 8.63 12 8.63 8.63 10.14 8.63 12Zm1.5.01c0-1.03.84-1.87 1.87-1.87 1.03 0 1.87.84 1.87 1.87 0 1.03-.84 1.87-1.87 1.87-1.03 0-1.87-.84-1.87-1.87Z" clip-rule="evenodd"/>
</svg>
