<svg xmlns="http://www.w3.org/2000/svg" width="24" height="24" fill="none" viewBox="0 0 24 24">
  <path fill="currentColor" fill-rule="evenodd" d="M19.78 2.77v3.78h3.03v11.16h-3.04v3.9H4.54v-3.9H1.19V6.55h3.35V2.77h15.24Zm-1.5 1.5H6.04v2.28h12.24V4.27ZM6.04 20.11h12.23v-2.4H6.04v2.4Zm-3.35-3.9h18.62V8.05H2.69v8.16Zm3.95-3.05h-.86v1.97h-1.5V9.24h2.36c1.14 0 2.06.88 2.06 1.96s-.92 1.96-2.06 1.96Zm0-2.41h-.86v.92h.86c.3 0 .56-.2.56-.46s-.25-.46-.56-.46Zm8.15 1.46c0-1.63-1.42-2.96-3.15-2.96H9.98v5.93h1.66c1.74 0 3.15-1.33 3.15-2.96v-.01Zm-3.31-1.46h.16c.91 0 1.65.66 1.65 1.46 0 .8-.74 1.46-1.65 1.46h-.16v-2.92Zm8.26 2.33h-2.01v2.06h-1.5V9.25h3.51v1.5h-2.01v.83h2.01v1.5Z" clip-rule="evenodd"/>
</svg>
