<svg xmlns="http://www.w3.org/2000/svg" width="24" height="24" fill="none" viewBox="0 0 24 24">
  <path fill="currentColor" fill-rule="evenodd" d="M3.55 4.38C2.04 4.38.82 5.6.82 7.11v9.61c0 1.51 1.22 2.73 2.73 2.73h16.91c1.51 0 2.73-1.22 2.73-2.73V7.11c0-1.51-1.22-2.73-2.73-2.73H3.55Zm0 1.5h16.91c.68 0 1.23.55 1.23 1.23v1.27H2.32V7.11c0-.68.55-1.23 1.23-1.23Zm16.91 12.07H3.55c-.68 0-1.23-.55-1.23-1.23V9.87h19.37v6.85c0 .68-.55 1.23-1.23 1.23Zm-5.4-3.47H4.55v1.5h10.51v-1.5Zm2.1 0h2.28v1.5h-2.28v-1.5Z" clip-rule="evenodd"/>
</svg>
