<svg xmlns="http://www.w3.org/2000/svg" width="24" height="24" fill="none" viewBox="0 0 24 24">
  <path fill="currentColor" d="M10.96 19.01c-1.39 1.39-3.81 1.39-5.2 0l-.41-.41a4.183 4.183 0 0 1 0-5.91l8.43-8.44c.99-.99 2.73-.99 3.72 0 .5.5.77 1.16.77 1.86 0 .7-.27 1.36-.77 1.86L9.07 16.4a.984.984 0 0 1-1.4 0c-.38-.39-.39-1.02 0-1.4l7.48-7.48-1.06-1.06-7.48 7.48c-.97.97-.97 2.55 0 3.52.97.97 2.55.97 3.52 0l8.43-8.43c.78-.78 1.21-1.82 1.21-2.92 0-1.1-.43-2.14-1.21-2.92a4.108 4.108 0 0 0-2.92-1.21c-1.1 0-2.14.43-2.92 1.21l-8.43 8.43a5.704 5.704 0 0 0 0 8.04l.41.41c.98.98 2.28 1.52 3.66 1.52 1.38 0 2.68-.54 3.66-1.52l7.78-7.78-1.06-1.06-7.78 7.78Z"/>
</svg>
