<svg xmlns="http://www.w3.org/2000/svg" width="24" height="24" fill="none" viewBox="0 0 24 24">
  <g clip-path="url(#a)">
    <path fill="currentColor" d="M12 .83C5.84.83.83 5.84.83 12S5.84 23.17 12 23.17 23.17 18.16 23.17 12 18.16.83 12 .83ZM7 18.07c0-1.54 1.23-2.8 2.76-2.86.65.42 1.42.67 2.24.67a4.2 4.2 0 0 0 2.24-.66c1.53.06 2.76 1.32 2.76 2.86v2.19a9.577 9.577 0 0 1-10 0v-2.2Zm7.69-6.38a2.68 2.68 0 0 1-5.36 0V9c0-1.27 1.04-2.31 2.31-2.31h.75c1.27 0 2.31 1.04 2.31 2.31v2.69h-.01Zm3.82 7.45v-1.07c0-1.92-1.26-3.54-2.99-4.13.42-.65.67-1.42.67-2.25V8.83a3.814 3.814 0 0 0-3.8-3.64h-.75c-2.04 0-3.72 1.62-3.8 3.64v2.86c0 .83.25 1.6.67 2.25-1.73.58-2.99 2.2-2.99 4.13v1.07C3.58 17.37 2.35 14.83 2.35 12 2.33 6.67 6.67 2.33 12 2.33s9.67 4.34 9.67 9.67c0 2.83-1.23 5.37-3.17 7.14h.01Z"/>
  </g>
  <defs>
    <clipPath id="a">
      <path fill="#fff" d="M0 0h24v24H0z"/>
    </clipPath>
  </defs>
</svg>
