<svg xmlns="http://www.w3.org/2000/svg" width="24" height="24" fill="none" viewBox="0 0 24 24">
  <path fill="currentColor" fill-rule="evenodd" d="M10.47 3.18v-1.5c6.55 0 11.91 5.33 11.95 11.89h-1.5C20.89 7.84 16.2 3.18 10.47 3.18Zm5.18 11.48c-.55-.55-1.34-.77-2.1-.58-.74.18-1.31.72-1.52 1.41-.08.24-.25.51-.6.43-1.23-.31-3.03-2.13-3.45-3.48-.186-.597.03-.677.218-.746l.012-.004c.71-.22 1.25-.79 1.43-1.53.19-.76-.03-1.54-.58-2.1L6.88 5.88c-.91-.8-2.27-.79-3.09.03L2.32 7.38c-1.8 1.89-.18 6.3 3.77 10.25 2.91 2.91 5.95 4.55 8.13 4.55.86 0 1.59-.26 2.13-.79l1.49-1.49c.8-.92.79-2.27-.03-3.09l-2.15-2.15h-.01Zm1.09 4.22-1.46 1.46c-1.04 1.04-4.63-.25-8.14-3.76-3.47-3.47-4.76-7.08-3.76-8.14l1.46-1.46c.13-.13.31-.19.49-.19s.38.06.52.19L8 9.13c.18.18.25.43.19.68-.03.11-.12.36-.43.46-1.13.38-1.59 1.38-1.21 2.62.52 1.69 2.61 4.01 4.54 4.5 1.06.24 2.01-.33 2.37-1.43.09-.3.35-.39.45-.42.25-.06.5.01.68.19l2.15 2.15c.25.25.24.73 0 1.01v-.01Zm-.31-6.08 1.5-.02c-.04-3.64-3.04-6.6-6.68-6.6v1.5c2.82 0 5.15 2.3 5.18 5.12Z" clip-rule="evenodd"/>
</svg>
