<svg width="32" height="32" viewBox="0 0 32 32" fill="none" xmlns="http://www.w3.org/2000/svg">
    <g clip-path="url(#clip0_8974_4524)">
        <path d="M11.0322 16.7362C11.5322 18.2862 13.5072 20.3712 15.0322 20.7362C15.3805 20.8085 15.7432 20.7547 16.0555 20.5843C16.3678 20.414 16.6094 20.1382 16.7372 19.8062C16.8154 19.5721 16.9528 19.3621 17.1359 19.1966C17.319 19.0311 17.5417 18.9156 17.7825 18.8613C18.0233 18.807 18.274 18.8157 18.5105 18.8867C18.7469 18.9576 18.961 19.0883 19.1322 19.2662L21.2972 21.4312C21.5575 21.7159 21.7019 22.0878 21.7019 22.4737C21.7019 22.8595 21.5575 23.2314 21.2972 23.5162L19.8472 25.0112C18.3022 26.5612 14.2022 24.8562 10.5672 21.2212C6.93217 17.5862 5.30717 13.4912 6.77717 11.9412L8.24717 10.4712C8.53276 10.2105 8.90548 10.0659 9.29217 10.0659C9.67886 10.0659 10.0516 10.2105 10.3372 10.4712L12.5022 12.6362C12.6846 12.8079 12.8192 13.0242 12.8928 13.2637C12.9664 13.5032 12.9765 13.7577 12.9221 14.0023C12.8676 14.2469 12.7505 14.4731 12.5822 14.6587C12.4139 14.8443 12.2002 14.983 11.9622 15.0612C11.7854 15.1004 11.619 15.1767 11.4738 15.285C11.3287 15.3933 11.2082 15.5311 11.1203 15.6894C11.0324 15.8477 10.9791 16.0229 10.9639 16.2033C10.9487 16.3838 10.972 16.5654 11.0322 16.7362V16.7362Z" stroke="currentColor" stroke-width="1.5" stroke-miterlimit="10"/>
        <path d="M14.4622 11.7358C16.0345 11.7422 17.5415 12.3656 18.6589 13.4718C19.7764 14.578 20.4149 16.0786 20.4372 17.6508" stroke="currentColor" stroke-width="1.5" stroke-miterlimit="10"/>
        <path d="M14.4622 9.15625C16.7217 9.1575 18.8891 10.0515 20.4924 11.6436C22.0958 13.2357 23.005 15.3968 23.0222 17.6562" stroke="currentColor" stroke-width="1.5" stroke-miterlimit="10"/>
        <path d="M14.4622 6.41602C17.4479 6.41597 20.3123 7.59757 22.4296 9.7027C24.5469 11.8078 25.745 14.6653 25.7622 17.651" stroke="currentColor" stroke-width="1.5" stroke-miterlimit="10"/>
    </g>
    <defs>
        <clipPath id="clip0_8974_4524">
            <rect width="32" height="32" fill="white"/>
        </clipPath>
    </defs>
</svg>
