<svg width="48" height="48" viewBox="0 0 48 48" fill="none" xmlns="http://www.w3.org/2000/svg">
<path d="M27.5596 30.2852H27.7296C28.7495 30.2838 29.7597 30.4836 30.7023 30.873C31.6449 31.2624 32.5016 31.8338 33.2232 32.5545C33.9449 33.2752 34.5174 34.1311 34.908 35.0732C35.2986 36.0154 35.4996 37.0253 35.4996 38.0452H10.8496C10.8496 35.9871 11.6672 34.0133 13.1225 32.558C14.5777 31.1027 16.5515 30.2852 18.6096 30.2852H18.7896" stroke="#333333" stroke-width="1.5" stroke-miterlimit="10"/>
<path d="M30.5296 18.2544V24.3744C30.5309 25.3413 30.3414 26.299 29.972 27.1925C29.6026 28.0861 29.0605 28.8979 28.3768 29.5816C27.6931 30.2653 26.8812 30.8074 25.9877 31.1768C25.0941 31.5462 24.1365 31.7357 23.1696 31.7344V31.7344C21.2176 31.7344 19.3455 30.959 17.9653 29.5787C16.585 28.1984 15.8096 26.3264 15.8096 24.3744V18.2544" stroke="#333333" stroke-width="1.5" stroke-miterlimit="10"/>
<path d="M15.8096 18.2546V14.6446C15.8096 13.4007 16.3037 12.2078 17.1832 11.3283C18.0628 10.4487 19.2557 9.95459 20.4996 9.95459H25.8396C27.0834 9.95459 28.2764 10.4487 29.1559 11.3283C30.0354 12.2078 30.5296 13.4007 30.5296 14.6446V18.2546H15.8096Z" stroke="#333333" stroke-width="1.5" stroke-miterlimit="10"/>
<path d="M26.2705 18.2544H37.1505" stroke="#333333" stroke-width="1.5" stroke-miterlimit="10"/>
<path d="M20.8496 25.595V21.365" stroke="#333333" stroke-width="1.5" stroke-miterlimit="10"/>
<path d="M25.4893 25.595V21.365" stroke="#333333" stroke-width="1.5" stroke-miterlimit="10"/>
</svg>
