<svg width="48" height="48" viewBox="0 0 48 48" fill="none" xmlns="http://www.w3.org/2000/svg">
<path d="M23.5654 7.01904V14.919H31.4654" stroke="#333333" stroke-width="1.5" stroke-miterlimit="10"/>
<path d="M31.465 23.029V14.919L23.565 7.01904H10.625V38.019H22.695" stroke="#333333" stroke-width="1.5" stroke-miterlimit="10"/>
<path d="M30.3753 22.2389C32.8446 22.8522 35.2053 23.8403 37.3753 25.1689V25.1689L35.2353 33.9389C34.8902 35.3549 34.1933 36.661 33.2091 37.736C32.225 38.8111 30.9854 39.6204 29.6053 40.0889L27.4753 40.8089C26.9159 41.007 26.3104 41.0349 25.7353 40.8889C25.1613 40.7437 24.6387 40.4426 24.2253 40.0189L22.6753 38.3889C21.6698 37.3336 20.9466 36.0419 20.5726 34.6331C20.1985 33.2243 20.1857 31.7439 20.5353 30.3289L22.6953 21.5689C25.2745 21.3938 27.8653 21.6198 30.3753 22.2389Z" stroke="#333333" stroke-width="1.5" stroke-miterlimit="10"/>
<path d="M26.8254 25.429L25.5254 30.719" stroke="#333333" stroke-width="1.5" stroke-miterlimit="10"/>
<path d="M31.8352 26.6589L30.5352 31.9489" stroke="#333333" stroke-width="1.5" stroke-miterlimit="10"/>
<path d="M24.7549 33.5588C25.3473 34.3576 26.1999 34.9246 27.1657 35.162C28.1314 35.3993 29.1497 35.2921 30.0449 34.8588" stroke="#333333" stroke-width="1.5" stroke-miterlimit="10"/>
</svg>
