<svg width="48" height="48" viewBox="0 0 48 48" fill="none" xmlns="http://www.w3.org/2000/svg">
<path d="M23.805 21.5889V12.1314C23.805 11.7482 23.7295 11.3689 23.5829 11.0149C23.4363 10.6609 23.2214 10.3393 22.9505 10.0684C22.6796 9.79747 22.3579 9.58257 22.004 9.43595C21.65 9.28933 21.2706 9.21387 20.8875 9.21387H9.105C8.33123 9.21387 7.58915 9.52125 7.04202 10.0684C6.49488 10.6155 6.1875 11.3576 6.1875 12.1314V35.8689C6.1875 36.6426 6.49488 37.3847 7.04202 37.9319C7.58915 38.479 8.33123 38.7864 9.105 38.7864H20.865C21.25 38.7893 21.6318 38.7161 21.9884 38.5708C22.345 38.4255 22.6692 38.2111 22.9425 37.9398C23.2158 37.6686 23.4328 37.346 23.5808 36.9906C23.7288 36.6351 23.805 36.2539 23.805 35.8689V34.1364" stroke="#333333" stroke-width="1.5" stroke-miterlimit="10"/>
<path d="M23.8043 34.1357L30.1268 36.4532C31.1166 36.8206 32.1909 36.8965 33.2225 36.6718C34.254 36.4472 35.1995 35.9314 35.9468 35.1857L39.6968 31.4807C40.3674 30.8106 40.8994 30.015 41.2623 29.1393C41.6252 28.2636 41.812 27.3249 41.812 26.3769C41.812 25.429 41.6252 24.4903 41.2623 23.6146C40.8994 22.7389 40.3674 21.9432 39.6968 21.2732V21.2732L34.1243 15.7082L33.5168 15.0932C33.139 14.7287 32.6523 14.4977 32.1311 14.4355C31.6098 14.3732 31.0824 14.483 30.6293 14.7482C30.3647 14.9352 30.1436 15.1773 29.9812 15.4577C29.8187 15.7381 29.7188 16.0503 29.6881 16.3729C29.6575 16.6955 29.6969 17.0209 29.8037 17.3269C29.9105 17.6329 30.0821 17.9122 30.3068 18.1457C29.8825 17.7582 29.326 17.5477 28.7514 17.5575C28.1768 17.5673 27.6278 17.7965 27.2168 18.1982C27.0042 18.3927 26.8336 18.6288 26.7158 18.8919C26.598 19.1549 26.5354 19.4394 26.5319 19.7276C26.5284 20.0158 26.584 20.3016 26.6954 20.5675C26.8068 20.8333 26.9715 21.0735 27.1793 21.2732V21.2732C26.9087 21.0118 26.5769 20.8224 26.2141 20.7224C25.8514 20.6224 25.4694 20.6149 25.103 20.7007C24.7367 20.7866 24.3977 20.9629 24.1171 21.2135C23.8365 21.4642 23.6232 21.7813 23.4968 22.1357C23.3633 22.5232 23.3431 22.9408 23.4388 23.3394C23.5345 23.738 23.7419 24.101 24.0368 24.3857V24.3857L17.0543 17.4707C16.6344 17.0629 16.0722 16.8348 15.4868 16.8348C14.9015 16.8348 14.3392 17.0629 13.9193 17.4707V17.4707C13.5138 17.8902 13.2871 18.4509 13.2871 19.0344C13.2871 19.6179 13.5138 20.1786 13.9193 20.5982L20.0843 26.7632L20.6993 30.8957C20.8057 31.6151 21.1158 32.2891 21.5929 32.838C22.07 33.3868 22.6942 33.7877 23.3918 33.9932L23.7668 34.1357" stroke="#333333" stroke-width="1.5" stroke-miterlimit="10"/>
<path d="M20.0996 26.7637L24.6221 31.2862" stroke="#333333" stroke-width="1.5" stroke-miterlimit="10"/>
<path d="M15.3447 14.9362V11.4937" stroke="#333333" stroke-width="1.5" stroke-miterlimit="10"/>
<path d="M11.2872 19.0986H7.84473" stroke="#333333" stroke-width="1.5" stroke-miterlimit="10"/>
<path d="M12.2324 16.1587L9.79492 13.7212" stroke="#333333" stroke-width="1.5" stroke-miterlimit="10"/>
<path d="M18.457 16.1587L20.887 13.7212" stroke="#333333" stroke-width="1.5" stroke-miterlimit="10"/>
<path d="M12.5472 22.1733L10.1172 24.6108" stroke="#333333" stroke-width="1.5" stroke-miterlimit="10"/>
<path d="M16.7098 35.5464H13.2598" stroke="#333333" stroke-width="1.5" stroke-miterlimit="10"/>
</svg>
