<svg width="48" height="48" viewBox="0 0 48 48" fill="none" xmlns="http://www.w3.org/2000/svg">
<path d="M24.4412 32.3909H14.7412" stroke="#333333" stroke-width="1.5" stroke-miterlimit="10"/>
<path d="M25.3707 37.1507C35.0307 37.1507 40.9306 32.9407 40.9306 32.9407V19.3307C40.9306 19.3307 37.1207 16.6107 32.7707 13.8407C32.1107 13.4207 30.3007 12.1907 28.6807 11.3107C27.3107 10.5607 25.5407 10.6707 24.8107 12.0407C24.5033 12.6078 24.4232 13.2706 24.5866 13.8946C24.75 14.5187 25.1447 15.0571 25.6907 15.4007L29.5207 17.8307C29.5446 17.8458 29.5629 17.8682 29.5729 17.8946C29.5829 17.921 29.5841 17.95 29.5762 17.9771C29.5683 18.0042 29.5517 18.0281 29.5291 18.0449C29.5064 18.0618 29.4789 18.0709 29.4507 18.0707H12.8307C12.2047 18.0707 11.6045 18.3194 11.1619 18.762C10.7193 19.2045 10.4707 19.8048 10.4707 20.4307V20.4307C10.4599 20.7473 10.513 21.0628 10.6268 21.3584C10.7406 21.6541 10.9127 21.9238 11.1329 22.1515C11.3532 22.3791 11.617 22.5602 11.9087 22.6837C12.2003 22.8073 12.5139 22.8709 12.8307 22.8707H9.43065C8.80474 22.8707 8.20447 23.1194 7.76188 23.562C7.31929 24.0045 7.07065 24.6048 7.07065 25.2307V25.2307C7.06534 25.544 7.12246 25.8552 7.23868 26.1461C7.3549 26.4371 7.5279 26.702 7.74758 26.9254C7.96725 27.1488 8.22922 27.3262 8.51818 27.4473C8.80715 27.5684 9.11734 27.6308 9.43065 27.6307H10.6107C9.98474 27.6307 9.38447 27.8794 8.94188 28.322C8.49929 28.7645 8.25065 29.3648 8.25065 29.9907V29.9907C8.25065 30.3006 8.31169 30.6075 8.4303 30.8939C8.5489 31.1802 8.72273 31.4404 8.94188 31.6595C9.16103 31.8786 9.42119 32.0525 9.70752 32.1711C9.99385 32.2897 10.3007 32.3507 10.6107 32.3507H14.7407C14.1147 32.3507 13.5145 32.5994 13.0719 33.042C12.6293 33.4845 12.3807 34.0848 12.3807 34.7107V34.7107C12.3807 35.3366 12.6293 35.9369 13.0719 36.3795C13.5145 36.8221 14.1147 37.0707 14.7407 37.0707L25.3707 37.1507Z" stroke="#333333" stroke-width="1.5" stroke-miterlimit="10"/>
<path d="M12.8213 22.8708H24.8113" stroke="#333333" stroke-width="1.5" stroke-miterlimit="10"/>
<path d="M10.6113 27.6309H24.8113" stroke="#333333" stroke-width="1.5" stroke-miterlimit="10"/>
<path d="M14.7412 32.3909H24.8112" stroke="#333333" stroke-width="1.5" stroke-miterlimit="10"/>
</svg>
