<svg width="48" height="48" viewBox="0 0 48 48" fill="none" xmlns="http://www.w3.org/2000/svg">
<path d="M31.4507 10.885C29.462 10.9217 27.5672 11.7375 26.174 13.157C24.7807 14.5764 24.0003 16.486 24.0006 18.475C24.001 16.486 23.2206 14.5764 21.8273 13.157C20.4341 11.7375 18.5393 10.9217 16.5506 10.885C15.5304 10.8863 14.5204 11.0891 13.5787 11.4816C12.6369 11.8742 11.782 12.4488 11.0629 13.1726C10.3437 13.8964 9.7746 14.755 9.38811 15.6992C9.00162 16.6435 8.80538 17.6547 8.81065 18.675V18.455C8.81065 23.455 10.9006 25.085 14.5706 28.455L24.0006 37.115L33.4307 28.455C37.1007 25.085 39.1906 23.455 39.1906 18.455V18.675C39.1959 17.6547 38.9997 16.6435 38.6132 15.6992C38.2267 14.755 37.6576 13.8964 36.9384 13.1726C36.2193 12.4488 35.3644 11.8742 34.4226 11.4816C33.4809 11.0891 32.4709 10.8863 31.4507 10.885V10.885Z" stroke="#333333" stroke-width="1.5" stroke-miterlimit="10"/>
<path d="M33.1514 15.6851C33.6037 16.1365 33.9626 16.6727 34.2074 17.263C34.4523 17.8532 34.5783 18.486 34.5783 19.1251C34.5783 19.7641 34.4523 20.3969 34.2074 20.9872C33.9626 21.5774 33.6037 22.1136 33.1514 22.5651" stroke="#333333" stroke-width="1.5" stroke-miterlimit="10"/>
</svg>
