<svg width="48" height="48" viewBox="0 0 48 48" fill="none" xmlns="http://www.w3.org/2000/svg">
<path d="M34.3995 17.7675C34.3923 16.0925 33.9807 14.444 33.1995 12.9622C32.4184 11.4805 31.2909 10.2093 29.913 9.2569C28.5351 8.30448 26.9475 7.69897 25.2853 7.49189C23.6231 7.28481 21.9355 7.48229 20.366 8.06752C18.7965 8.65275 17.3916 9.60842 16.2708 10.8532C15.15 12.098 14.3465 13.5952 13.9285 15.2172C13.5106 16.8393 13.4906 18.5383 13.8704 20.1697C14.2501 21.8012 15.0183 23.3167 16.1095 24.5875C18.4342 27.1662 19.7359 30.5059 19.7695 33.9775V34.3575H28.2195V33.9775C28.2701 30.5032 29.5693 27.163 31.8795 24.5675C33.5161 22.6813 34.4116 20.2647 34.3995 17.7675Z" stroke="#333333" stroke-width="1.5" stroke-miterlimit="10"/>
<path d="M28.2195 37.4575C28.2195 38.2842 27.8925 39.0773 27.3099 39.6637C26.7272 40.2501 25.9362 40.5822 25.1095 40.5875H22.9095C22.0785 40.5875 21.2813 40.2581 20.6927 39.6714C20.1042 39.0847 19.7722 38.2886 19.7695 37.4575V37.4575" stroke="#333333" stroke-width="1.5" stroke-miterlimit="10"/>
<path d="M25.6797 12.5176C26.8307 12.5176 27.9346 12.9748 28.7485 13.7887C29.5624 14.6026 30.0197 15.7065 30.0197 16.8576" stroke="#333333" stroke-width="1.5" stroke-miterlimit="10"/>
<path d="M24.0996 34.3175V24.4775" stroke="#333333" stroke-width="1.5" stroke-miterlimit="10"/>
<path d="M28.2197 37.4574V34.3174" stroke="#333333" stroke-width="1.5" stroke-miterlimit="10"/>
<path d="M19.7695 37.4574V34.3174" stroke="#333333" stroke-width="1.5" stroke-miterlimit="10"/>
</svg>
