<svg width="48" height="48" viewBox="0 0 48 48" fill="none" xmlns="http://www.w3.org/2000/svg">
<path d="M35.0743 11.8399H12.9143C10.9888 11.8399 9.14222 12.6047 7.7807 13.9663C6.41919 15.3278 5.6543 17.1744 5.6543 19.0999V36.1799H42.3443V19.0999C42.3443 18.1456 42.1562 17.2007 41.7907 16.3193C41.4252 15.4378 40.8896 14.637 40.2144 13.9627C39.5391 13.2884 38.7376 12.7539 37.8556 12.3896C36.9737 12.0254 36.0285 11.8385 35.0743 11.8399V11.8399Z" stroke="#333333" stroke-width="1.5" stroke-miterlimit="10"/>
<path d="M28.9043 21.4297H34.7143V27.4297C34.7143 28.1431 34.4309 28.8273 33.9264 29.3318C33.4219 29.8363 32.7377 30.1197 32.0243 30.1197H31.6043C30.8909 30.1197 30.2067 29.8363 29.7022 29.3318C29.1977 28.8273 28.9143 28.1431 28.9143 27.4297V21.4297H28.9043Z" stroke="#333333" stroke-width="1.5" stroke-miterlimit="10"/>
<path d="M31.8037 26.8397V24.6697" stroke="#333333" stroke-width="1.5" stroke-miterlimit="10"/>
<path d="M6.12402 21.4297H41.864" stroke="#333333" stroke-width="1.5" stroke-miterlimit="10"/>
<path d="M13.6543 11.8198C15.5807 11.8225 17.4273 12.5896 18.7885 13.9527C20.1497 15.3158 20.9143 17.1634 20.9143 19.0898V36.1598" stroke="#333333" stroke-width="1.5" stroke-miterlimit="10"/>
</svg>
