<svg width="48" height="48" viewBox="0 0 48 48" fill="none" xmlns="http://www.w3.org/2000/svg">
<path d="M25.3398 7.85032C26.3151 7.86346 27.246 8.26013 27.9309 8.95447C28.6159 9.64881 28.9999 10.585 28.9998 11.5603V15.5603C28.9998 16.0436 28.9047 16.5221 28.7197 16.9686C28.5348 17.4151 28.2637 17.8208 27.922 18.1625C27.5803 18.5042 27.1746 18.7753 26.7281 18.9602C26.2816 19.1451 25.8031 19.2403 25.3198 19.2403C24.3306 19.2403 23.3818 18.8473 22.6823 18.1478C21.9828 17.4483 21.5898 16.4996 21.5898 15.5103V11.5103C21.603 10.5281 22.0052 9.59118 22.7082 8.90506C23.4112 8.21895 24.3576 7.83964 25.3398 7.85032V7.85032Z" stroke="#333333" stroke-width="1.5" stroke-miterlimit="10"/>
<path d="M21.6401 15.0002H17.9401C16.1207 15.0002 14.3758 15.723 13.0893 17.0095C11.8028 18.296 11.0801 20.0409 11.0801 21.8602V39.6002H24.7501V26.7102H31.6001C32.1491 26.7102 32.6756 26.4922 33.0638 26.104C33.452 25.7158 33.6701 25.1892 33.6701 24.6402C33.6701 24.0912 33.452 23.5647 33.0638 23.1765C32.6756 22.7883 32.1491 22.5702 31.6001 22.5702H24.7501V19.2502" stroke="#333333" stroke-width="1.5" stroke-miterlimit="10"/>
<path d="M36.9197 40.1501V27.8801C36.9197 27.0208 36.5783 26.1967 35.9707 25.5891C35.3631 24.9815 34.539 24.6401 33.6797 24.6401V24.6401" stroke="#333333" stroke-width="1.5" stroke-miterlimit="10"/>
<path d="M24.7501 31.1401H11.0801" stroke="#333333" stroke-width="1.5" stroke-miterlimit="10"/>
</svg>
