<svg width="48" height="48" viewBox="0 0 48 48" fill="none" xmlns="http://www.w3.org/2000/svg">
<path d="M29.098 14.6655C28.0691 14.6913 27.0911 15.1181 26.3726 15.855C25.6541 16.5919 25.2522 17.5805 25.2525 18.6097C25.2528 17.5805 24.8508 16.5919 24.1323 15.855C23.4139 15.1181 22.4358 14.6913 21.4069 14.6655C20.8801 14.6664 20.3586 14.7712 19.8724 14.974C19.3862 15.1768 18.9447 15.4736 18.5734 15.8474C18.2021 16.2211 17.9082 16.6645 17.7086 17.152C17.509 17.6396 17.4076 18.1617 17.4102 18.6886V18.5702C17.4102 21.1471 18.4883 21.9951 20.3815 23.7371L25.2525 28.2005L30.1169 23.7239C32.0101 21.9819 33.0882 21.1339 33.0882 18.5571V18.6754C33.0899 17.6148 32.6707 16.5968 31.9226 15.845C31.1745 15.0932 30.1586 14.669 29.098 14.6655V14.6655Z" stroke="#333333" stroke-width="1.5" stroke-miterlimit="10"/>
<path d="M23.5039 30.1923L15.1883 27.5103C14.7044 27.381 14.1944 27.3855 13.7128 27.5232C13.2312 27.661 12.7961 27.9269 12.4537 28.2925L9.85059 30.9548V40.0001L14.9122 38.3567C15.5952 38.0551 16.3465 37.9416 17.0881 38.028L22.8991 38.738C23.8832 38.8609 24.8789 38.6277 25.706 38.0806L35.1917 31.7174C35.5922 31.4493 35.8721 31.0352 35.9716 30.5636C36.0711 30.092 35.9823 29.6002 35.7242 29.1931V29.1931C35.5938 28.9867 35.4238 28.8082 35.224 28.6679C35.0242 28.5276 34.7986 28.4283 34.5602 28.3758C34.3218 28.3232 34.0754 28.3184 33.8351 28.3617C33.5949 28.4049 33.3656 28.4954 33.1605 28.6278L25.706 33.4265" stroke="#333333" stroke-width="1.5" stroke-miterlimit="10"/>
<path d="M16.9766 32.0793L23.6422 34.1171C24.1033 34.2544 24.5998 34.2071 25.0267 33.9851C25.4536 33.763 25.7775 33.3837 25.9298 32.9273V32.9273C26.0053 32.6951 26.034 32.4503 26.0143 32.2069C25.9946 31.9636 25.9269 31.7265 25.815 31.5095C25.7032 31.2925 25.5494 31.0998 25.3626 30.9426C25.1758 30.7854 24.9597 30.6668 24.7268 30.5936L23.5107 30.1992" stroke="#333333" stroke-width="1.5" stroke-miterlimit="10"/>
<path d="M24.9824 10.5834V8" stroke="#333333" stroke-width="1.5" stroke-miterlimit="10"/>
<path d="M24.9824 10.5834V8" stroke="#333333" stroke-width="1.5" stroke-miterlimit="10"/>
<path d="M32.4707 13.6859L34.2982 11.8584" stroke="#333333" stroke-width="1.5" stroke-miterlimit="10"/>
<path d="M32.4707 13.6859L34.2982 11.8584" stroke="#333333" stroke-width="1.5" stroke-miterlimit="10"/>
<path d="M17.5023 13.6859L15.6748 11.8584" stroke="#333333" stroke-width="1.5" stroke-miterlimit="10"/>
<path d="M17.5023 13.6859L15.6748 11.8584" stroke="#333333" stroke-width="1.5" stroke-miterlimit="10"/>
<path d="M14.3988 21.167H11.8154" stroke="#333333" stroke-width="1.5" stroke-miterlimit="10"/>
<path d="M14.3988 21.167H11.8154" stroke="#333333" stroke-width="1.5" stroke-miterlimit="10"/>
<path d="M35.5664 21.167H38.1498" stroke="#333333" stroke-width="1.5" stroke-miterlimit="10"/>
<path d="M29.9717 17.1504C30.4421 17.6213 30.7064 18.2596 30.7064 18.9253C30.7064 19.5909 30.4421 20.2293 29.9717 20.7001" stroke="#333333" stroke-width="1.5" stroke-miterlimit="10"/>
</svg>
