<svg width="48" height="48" viewBox="0 0 48 48" fill="none" xmlns="http://www.w3.org/2000/svg">
<path d="M23.9995 39.0599C32.3169 39.0599 39.0595 32.3174 39.0595 23.9999C39.0595 15.6825 32.3169 8.93994 23.9995 8.93994C15.682 8.93994 8.93945 15.6825 8.93945 23.9999C8.93945 32.3174 15.682 39.0599 23.9995 39.0599Z" stroke="#333333" stroke-width="1.5" stroke-miterlimit="10"/>
<path d="M38.9192 22.2498C38.9192 22.2498 37.1892 18.2498 33.7392 20.8098C30.2892 23.3698 30.6792 27.1298 28.5192 32.0198C27.282 34.5269 25.6552 36.8221 23.6992 38.8198" stroke="#333333" stroke-width="1.5" stroke-miterlimit="10"/>
<path d="M25.7397 9.07983C25.7397 9.07983 29.7397 10.7998 27.1797 14.2598C24.6197 17.7198 20.8597 17.3198 15.9797 19.4898C13.4748 20.7309 11.1803 22.3574 9.17969 24.3098" stroke="#333333" stroke-width="1.5" stroke-miterlimit="10"/>
<path d="M34.4695 13.53L13.7695 34.23" stroke="#333333" stroke-width="1.5" stroke-miterlimit="10"/>
<path d="M35.5694 33.3501C35.6583 30.5788 35.178 27.8187 34.1582 25.2404C33.1383 22.662 31.6006 20.3202 29.64 18.3596C27.6794 16.3989 25.3375 14.8612 22.7592 13.8413C20.1808 12.8215 17.4207 12.3412 14.6494 12.4301" stroke="#333333" stroke-width="1.5" stroke-miterlimit="10"/>
</svg>
