<svg width="48" height="48" viewBox="0 0 48 48" fill="none" xmlns="http://www.w3.org/2000/svg">
<path d="M27.0204 29.6152H21.0204C20.3943 29.642 19.7798 29.441 19.2907 29.0493C18.8016 28.6577 18.4711 28.102 18.3604 27.4852L16.3604 11.6152H31.6504L29.6504 27.4852C29.5423 28.0976 29.2166 28.6503 28.7334 29.0417C28.2502 29.4331 27.6418 29.6368 27.0204 29.6152V29.6152Z" stroke="#333333" stroke-width="1.5" stroke-miterlimit="10"/>
<path d="M12.001 11.6152H35.991H12.001Z" stroke="#333333" stroke-width="1.5" stroke-miterlimit="10"/>
<path d="M21.4308 6.53516H26.5608C27.2292 6.53516 27.8911 6.66681 28.5087 6.92261C29.1262 7.17841 29.6873 7.55333 30.16 8.02598C30.6326 8.49863 31.0076 9.05975 31.2634 9.6773C31.5192 10.2948 31.6508 10.9567 31.6508 11.6252V11.6252H16.3408C16.3408 10.2752 16.8771 8.98054 17.8316 8.02598C18.7862 7.07142 20.0809 6.53516 21.4308 6.53516V6.53516Z" stroke="#333333" stroke-width="1.5" stroke-miterlimit="10"/>
<path d="M21.9111 41.4652V29.6152H26.0811V41.4652" stroke="#333333" stroke-width="1.5" stroke-miterlimit="10"/>
<path d="M7.57031 24.9156L12.6103 23.9756" stroke="#333333" stroke-width="1.5" stroke-miterlimit="10"/>
<path d="M14.7302 29.2158L10.4502 32.0358" stroke="#333333" stroke-width="1.5" stroke-miterlimit="10"/>
<path d="M7.68066 17.2354L12.7007 18.3254" stroke="#333333" stroke-width="1.5" stroke-miterlimit="10"/>
<path d="M40.4299 24.9156L35.3799 23.9756" stroke="#333333" stroke-width="1.5" stroke-miterlimit="10"/>
<path d="M33.2607 29.2158L37.5507 32.0358" stroke="#333333" stroke-width="1.5" stroke-miterlimit="10"/>
<path d="M40.31 17.2354L35.29 18.3254" stroke="#333333" stroke-width="1.5" stroke-miterlimit="10"/>
</svg>
