<svg width="48" height="48" viewBox="0 0 48 48" fill="none" xmlns="http://www.w3.org/2000/svg">
<path d="M15.378 36.3823C16.3467 36.3823 17.2758 36.7671 17.9608 37.4521C18.6457 38.1371 19.0305 39.0661 19.0305 40.0348H7.43555C7.43555 39.0661 7.82036 38.1371 8.50534 37.4521C9.19032 36.7671 10.1193 36.3823 11.088 36.3823" stroke="#333333" stroke-width="1.5" stroke-miterlimit="10"/>
<path d="M13.6157 27.8028H12.8657C12.0482 27.8028 11.2641 28.1275 10.686 28.7056C10.108 29.2837 9.7832 30.0677 9.7832 30.8853V33.6003C9.7832 34.5192 10.1483 35.4006 10.7981 36.0504C11.1198 36.3722 11.5018 36.6274 11.9222 36.8015C12.3426 36.9756 12.7932 37.0653 13.2482 37.0653V37.0653C13.7032 37.0653 14.1538 36.9756 14.5742 36.8015C14.9946 36.6274 15.3766 36.3722 15.6983 36.0504C16.0201 35.7286 16.2753 35.3467 16.4494 34.9263C16.6236 34.5059 16.7132 34.0553 16.7132 33.6003V30.8853C16.7132 30.4792 16.633 30.0771 16.4771 29.7022C16.3213 29.3272 16.0929 28.9867 15.8051 28.7003C15.5172 28.4139 15.1757 28.1871 14.7999 28.0331C14.4242 27.8791 14.0218 27.8008 13.6157 27.8028Z" stroke="#333333" stroke-width="1.5" stroke-miterlimit="10"/>
<path d="M26.0812 16.5454C26.5631 16.5454 27.0402 16.6406 27.4853 16.8254C27.9303 17.0103 28.3344 17.2812 28.6745 17.6227C29.0146 17.9641 29.2838 18.3694 29.4669 18.8152C29.6499 19.261 29.7431 19.7385 29.7412 20.2204H18.1387C18.1387 19.7408 18.2331 19.2658 18.4167 18.8227C18.6003 18.3795 18.8693 17.9769 19.2085 17.6377C19.5476 17.2985 19.9503 17.0295 20.3934 16.8459C20.8366 16.6624 21.3115 16.5679 21.7912 16.5679" stroke="#333333" stroke-width="1.5" stroke-miterlimit="10"/>
<path d="M24.3185 7.96534H23.5685C23.1625 7.96435 22.7602 8.0436 22.3849 8.19854C22.0095 8.35348 21.6685 8.58105 21.3814 8.86818C21.0942 9.15531 20.8667 9.49634 20.7117 9.87168C20.5568 10.247 20.4775 10.6493 20.4785 11.0553V13.7628C20.4805 14.6792 20.8454 15.5575 21.4934 16.2055C22.1414 16.8535 23.0196 17.2184 23.936 17.2203V17.2203C24.855 17.2203 25.7363 16.8553 26.3861 16.2055C27.036 15.5557 27.401 14.6743 27.401 13.7553V11.0553C27.402 10.6499 27.323 10.2483 27.1685 9.87342C27.0141 9.49856 26.7872 9.15787 26.5008 8.87083C26.2145 8.5838 25.8744 8.35608 25.4999 8.2007C25.1254 8.04532 24.724 7.96534 24.3185 7.96534V7.96534Z" stroke="#333333" stroke-width="1.5" stroke-miterlimit="10"/>
<path d="M36.9113 36.3823C37.88 36.3823 38.809 36.7671 39.494 37.4521C40.1789 38.1371 40.5638 39.0661 40.5638 40.0348H28.9688C28.9688 39.0661 29.3536 38.1371 30.0385 37.4521C30.7235 36.7671 31.6525 36.3823 32.6213 36.3823" stroke="#333333" stroke-width="1.5" stroke-miterlimit="10"/>
<path d="M35.1486 27.8027H34.3986C33.9932 27.8018 33.5915 27.8808 33.2167 28.0352C32.8418 28.1897 32.5011 28.4166 32.2141 28.7029C31.9271 28.9893 31.6993 29.3294 31.544 29.7039C31.3886 30.0784 31.3086 30.4798 31.3086 30.8852V33.6002C31.3086 34.5192 31.6737 35.4006 32.3235 36.0504C32.9733 36.7002 33.8546 37.0652 34.7736 37.0652V37.0652C35.6926 37.0652 36.5739 36.7002 37.2237 36.0504C37.8735 35.4006 38.2386 34.5192 38.2386 33.6002V30.8852C38.2386 30.4798 38.1586 30.0784 38.0032 29.7039C37.8479 29.3294 37.6201 28.9893 37.3331 28.7029C37.0461 28.4166 36.7054 28.1897 36.3305 28.0352C35.9557 27.8808 35.554 27.8018 35.1486 27.8027V27.8027Z" stroke="#333333" stroke-width="1.5" stroke-miterlimit="10"/>
<path d="M19.6309 32.4302H28.2409" stroke="#333333" stroke-width="1.5" stroke-miterlimit="10"/>
<path d="M17.7639 22.9204L16.1289 26.3554" stroke="#333333" stroke-width="1.5" stroke-miterlimit="10"/>
<path d="M30.1084 22.9204L31.7434 26.3554" stroke="#333333" stroke-width="1.5" stroke-miterlimit="10"/>
</svg>
