<svg width="48" height="48" viewBox="0 0 48 48" fill="none" xmlns="http://www.w3.org/2000/svg">
<path d="M15.0146 12.2012V22.8512" stroke="#333333" stroke-width="1.5" stroke-miterlimit="10"/>
<path d="M23.1602 22.8512V9.92871" stroke="#333333" stroke-width="1.5" stroke-miterlimit="10"/>
<path d="M31.3195 22.8514V12.2014L23.1595 9.92139L14.9995 12.2014L6.85449 9.92139V30.4564L11.602 31.7839" stroke="#333333" stroke-width="1.5" stroke-miterlimit="10"/>
<path d="M31.904 35.5337H21.0215" stroke="#333333" stroke-width="1.5" stroke-miterlimit="10"/>
<path d="M15.9225 35.5341H13.5C13.0503 35.5243 12.6223 35.3393 12.307 35.0184C11.9918 34.6976 11.8143 34.2663 11.8125 33.8166V24.5691C11.8145 24.1142 11.9961 23.6785 12.3177 23.3568C12.6394 23.0351 13.0751 22.8535 13.53 22.8516H39.4275C39.8824 22.8535 40.3181 23.0351 40.6398 23.3568C40.9614 23.6785 41.143 24.1142 41.145 24.5691V33.8166C41.143 34.2715 40.9614 34.7072 40.6398 35.0288C40.3181 35.3505 39.8824 35.5321 39.4275 35.5341H37.005" stroke="#333333" stroke-width="1.5" stroke-miterlimit="10"/>
<path d="M18.4714 32.9912C18.9755 32.9922 19.4683 33.1408 19.8889 33.4187C20.2039 33.6252 20.4687 33.8996 20.6636 34.2219C20.8586 34.5442 20.9789 34.906 21.0156 35.2809C21.0523 35.6558 21.0045 36.0341 20.8757 36.388C20.7469 36.742 20.5404 37.0626 20.2714 37.3262C19.9168 37.6852 19.4619 37.9284 18.9664 38.0237C18.4635 38.1298 17.9403 38.0801 17.4664 37.8812C16.9237 37.6555 16.476 37.2487 16.1994 36.73C15.9229 36.2114 15.8345 35.613 15.9495 35.0366C16.0644 34.4601 16.3755 33.9413 16.8298 33.5684C17.2841 33.1955 17.8536 32.9916 18.4414 32.9912H18.4714Z" stroke="#333333" stroke-width="1.5" stroke-miterlimit="10"/>
<path d="M34.4543 32.9912C34.9584 32.9922 35.4512 33.1408 35.8718 33.4187C36.2923 33.6952 36.6192 34.0927 36.8093 34.5587C36.9993 35.024 37.0475 35.5352 36.9479 36.0278C36.8483 36.5205 36.6054 36.9727 36.2496 37.3277C35.8938 37.6827 35.441 37.9247 34.9481 38.0231C34.4552 38.1216 33.9442 38.0722 33.4793 37.8812C33.0122 37.6901 32.6127 37.3638 32.3321 36.9443C32.0515 36.5247 31.9026 36.0309 31.9043 35.5262C31.9083 34.8525 32.1787 34.2078 32.6565 33.7328C33.1343 33.2578 33.7806 32.9912 34.4543 32.9912V32.9912Z" stroke="#333333" stroke-width="1.5" stroke-miterlimit="10"/>
<path d="M11.7822 29.189H41.1447" stroke="#333333" stroke-width="1.5" stroke-miterlimit="10"/>
<path d="M34.4619 22.8516V29.1891" stroke="#333333" stroke-width="1.5" stroke-miterlimit="10"/>
<path d="M26.4668 22.8516V29.1891" stroke="#333333" stroke-width="1.5" stroke-miterlimit="10"/>
<path d="M18.4648 22.8516V29.1891" stroke="#333333" stroke-width="1.5" stroke-miterlimit="10"/>
</svg>
