<svg width="48" height="48" viewBox="0 0 48 48" fill="none" xmlns="http://www.w3.org/2000/svg">
<path d="M31.2551 34.0684H16.7451" stroke="#333333" stroke-width="1.5" stroke-miterlimit="10"/>
<path d="M9.94481 34.0683H6.7148C6.10919 34.0683 5.52823 33.8284 5.09906 33.4011C4.66988 32.9738 4.42745 32.3939 4.4248 31.7883V19.4483C4.44045 18.8514 4.68861 18.2842 5.11638 17.8676C5.54415 17.4511 6.11771 17.2181 6.7148 17.2183H41.2848C41.8904 17.2183 42.4714 17.4582 42.9006 17.8854C43.3297 18.3127 43.5722 18.8927 43.5748 19.4983V31.7883C43.5722 32.3939 43.3297 32.9738 42.9006 33.4011C42.4714 33.8284 41.8904 34.0683 41.2848 34.0683H38.0548" stroke="#333333" stroke-width="1.5" stroke-miterlimit="10"/>
<path d="M13.3344 30.6782C14.0099 30.6781 14.6705 30.8763 15.2344 31.2482C15.7926 31.6197 16.2277 32.1488 16.4844 32.7682C16.7547 33.3988 16.8211 34.0981 16.6744 34.7682C16.5449 35.428 16.221 36.034 15.7444 36.5082C15.2684 36.9846 14.6614 37.3085 14.0006 37.4385C13.3398 37.5685 12.6553 37.4988 12.0344 37.2382C11.413 36.9848 10.8831 36.5489 10.5144 35.9882C10.1742 35.4777 9.97885 34.8845 9.94926 34.2718C9.91967 33.659 10.0569 33.0497 10.3463 32.5088C10.6358 31.9679 11.0666 31.5157 11.5928 31.2004C12.119 30.885 12.7209 30.7184 13.3344 30.7182V30.6782Z" stroke="#333333" stroke-width="1.5" stroke-miterlimit="10"/>
<path d="M34.6543 30.6784C35.3234 30.6708 35.9803 30.8585 36.5443 31.2184C37.1283 31.5873 37.5828 32.1291 37.8443 32.7684C38.1129 33.3993 38.1826 34.097 38.0443 34.7684C37.9135 35.4294 37.5887 36.0365 37.1114 36.512C36.634 36.9876 36.0258 37.3101 35.3643 37.4384C34.9017 37.5266 34.4257 37.5174 33.9668 37.4114C33.5079 37.3054 33.0762 37.1049 32.6991 36.8228C32.322 36.5406 32.0078 36.183 31.7765 35.7727C31.5453 35.3624 31.4021 34.9084 31.3561 34.4397C31.31 33.971 31.3622 33.4978 31.5092 33.0504C31.6562 32.6029 31.8948 32.191 32.2098 31.8409C32.5248 31.4908 32.9093 31.2102 33.3388 31.0169C33.7683 30.8236 34.2334 30.722 34.7043 30.7184L34.6543 30.6784Z" stroke="#333333" stroke-width="1.5" stroke-miterlimit="10"/>
<path d="M24.5946 17.168L17.9346 10.498" stroke="#333333" stroke-width="1.5" stroke-miterlimit="10"/>
<path d="M28.5645 17.168L21.8945 10.498" stroke="#333333" stroke-width="1.5" stroke-miterlimit="10"/>
<path d="M4.4248 25.6182H43.5748" stroke="#333333" stroke-width="1.5" stroke-miterlimit="10"/>
<path d="M34.665 17.1685V25.6185" stroke="#333333" stroke-width="1.5" stroke-miterlimit="10"/>
<path d="M24.0049 17.1685V25.6185" stroke="#333333" stroke-width="1.5" stroke-miterlimit="10"/>
<path d="M13.335 17.1685V25.6185" stroke="#333333" stroke-width="1.5" stroke-miterlimit="10"/>
</svg>
