<svg width="1218" height="98" viewBox="0 0 1218 98" fill="none" xmlns="http://www.w3.org/2000/svg">
<path d="M628.427 96.9998L645.802 71.1387H623.696V61.8019L616.945 61.7432H610.195V71.1387H588.088L605.464 96.9998" stroke="#D6D6D6" stroke-width="2" stroke-linecap="round" stroke-linejoin="round"/>
<path d="M682.687 97.0006V42.2366C682.689 41.2803 682.513 40.3332 682.17 39.4502C681.827 38.5672 681.324 37.7658 680.689 37.0925C679.396 35.729 677.653 34.9653 675.838 34.9668H665.959C665.056 34.967 664.161 35.1545 663.324 35.5188C662.503 35.8832 661.757 36.4181 661.129 37.0925C660.485 37.7561 659.976 38.5561 659.636 39.4414C659.286 40.3213 659.107 41.2684 659.109 42.2248V97.0006" stroke="#D6D6D6" stroke-width="2" stroke-linecap="round" stroke-linejoin="round"/>
<path d="M714.375 97.0006V42.2366C714.375 41.2816 714.199 40.336 713.859 39.4532C713.334 38.1211 712.452 36.9847 711.326 36.1866C710.199 35.3884 708.877 34.9641 707.526 34.9668L698.174 35.2604C696.361 35.2569 694.621 36.0212 693.333 37.3862C692.698 38.0596 692.193 38.8608 691.849 39.7436C691.504 40.6264 691.326 41.5734 691.324 42.5302V97.0006" stroke="#D6D6D6" stroke-width="2" stroke-linecap="round" stroke-linejoin="round"/>
<path d="M746.413 80.4645V42.2366C746.413 41.2816 746.238 40.336 745.897 39.4532C745.557 38.5709 745.053 37.7718 744.416 37.1043C743.127 35.7321 741.382 34.9633 739.564 34.9668H729.685C727.89 34.9831 726.172 35.7503 724.899 37.1043C724.264 37.7752 723.759 38.5742 723.415 39.4552C723.07 40.3361 722.892 41.2815 722.891 42.2366V96.9419" stroke="#D6D6D6" stroke-width="2" stroke-linecap="round" stroke-linejoin="round"/>
<path d="M810.717 57.1029L816.984 44.0784L805.92 1L794.855 44.0784L801.123 57.1029" stroke="#D6D6D6" stroke-width="2" stroke-linecap="round" stroke-linejoin="round"/>
<path d="M912.996 77.9968V29.7744H903.26V40.0977H881.011V29.7744H871.275V40.0977H854.426V29.7744H844.689V66.182" stroke="#D6D6D6" stroke-width="2" stroke-linecap="round" stroke-linejoin="round"/>
<path d="M974.781 52.8031L971.971 43.7012" stroke="#D6D6D6" stroke-width="2" stroke-linecap="round" stroke-linejoin="round"/>
<path d="M966.812 53.5564L964.32 46.04" stroke="#D6D6D6" stroke-width="2" stroke-linecap="round" stroke-linejoin="round"/>
<path d="M966.252 69.0107L943.498 96.9976" stroke="#D6D6D6" stroke-width="2" stroke-linecap="round" stroke-linejoin="round"/>
<path d="M979.697 68.53C981.829 67.5642 983.821 66.279 985.614 64.7131C986.782 63.6884 987.882 62.5778 988.907 61.3894C984.604 56.3628 979.741 53.5207 974.791 52.8277C972.114 52.5896 969.419 52.8438 966.822 53.5794C962.569 55.0264 958.796 57.7543 955.955 61.4364C958.749 64.8436 962.291 67.4546 966.262 69.035C968.485 69.7708 970.808 70.1003 973.133 70.0098C975.388 69.9532 977.613 69.4516 979.697 68.53V68.53Z" stroke="#D6D6D6" stroke-width="2" stroke-linecap="round" stroke-linejoin="round"/>
<path d="M988.59 96.9409L979.699 68.5312" stroke="#D6D6D6" stroke-width="2" stroke-linecap="round" stroke-linejoin="round"/>
<path d="M974.812 61.7881L1035.18 96.939" stroke="#D6D6D6" stroke-width="2" stroke-linecap="round" stroke-linejoin="round"/>
<path d="M980.929 96.9407L973.125 70.8799" stroke="#D6D6D6" stroke-width="2" stroke-linecap="round" stroke-linejoin="round"/>
<path d="M1 96.9414H722.848C722.848 96.9414 732.727 90.8109 746.415 80.4171C751.756 75.5246 757.609 71.3115 763.857 67.8623C775.434 61.4594 788.16 57.7907 801.177 57.1045H810.77C822.552 57.7295 834.108 60.7968 844.797 66.1359C844.797 66.1359 862.294 75.1791 868.605 80.4171C879.9 75.8955 898.242 72.196 913.093 77.9977C923.884 82.3872 933.846 88.8245 942.499 97.0001H943.597H942.763H1217" stroke="#D6D6D6" stroke-width="2" stroke-linecap="round" stroke-linejoin="round"/>
</svg>
