<svg width="20" height="20" viewBox="0 0 20 20" fill="none" xmlns="http://www.w3.org/2000/svg">
    <path fill-rule="evenodd" clip-rule="evenodd"
        d="M9.99961 0.725098C4.88294 0.725098 0.724609 4.88343 0.724609 10.0001C0.724609 15.1168 4.88294 19.2751 9.99961 19.2751C15.1163 19.2751 19.2746 15.1168 19.2746 10.0001C19.2746 4.88343 15.1163 0.725098 9.99961 0.725098ZM9.99961 18.0168C5.57461 18.0168 1.97461 14.4168 1.97461 9.99176C1.97461 5.56676 5.57461 1.9751 9.99961 1.9751C14.4246 1.9751 18.0246 5.5751 18.0246 10.0001C18.0246 14.4251 14.4246 18.0251 9.99961 18.0251V18.0168ZM10.1329 5.38343C8.70795 5.38343 7.54128 6.54176 7.54128 7.99176L8.79128 7.9751C8.79128 7.23343 9.39128 6.63343 10.1329 6.63343C10.7246 6.63343 11.2079 7.11676 11.2079 7.70843C11.2079 8.14176 10.9496 8.5251 10.5579 8.7001L10.1663 8.86676C9.49128 9.15843 9.05795 9.81676 9.05795 10.5501V11.6084H10.3079V10.5501C10.3079 10.3168 10.4496 10.1001 10.6579 10.0084L11.0496 9.84176C11.8996 9.4751 12.4579 8.63343 12.4579 7.70843C12.4579 6.4251 11.4163 5.38343 10.1329 5.38343ZM8.74128 13.6751C8.74128 13.1584 9.16628 12.7334 9.68295 12.7334C10.1996 12.7334 10.6246 13.1584 10.6246 13.6751C10.6246 14.1918 10.1996 14.6168 9.68295 14.6168C9.16628 14.6168 8.74128 14.1918 8.74128 13.6751Z"
        fill="currentColor" />
</svg>
