<svg width="18" height="18" viewBox="0 0 18 18" fill="none" xmlns="http://www.w3.org/2000/svg">
    <path
        d="M9.00033 0.666504C4.39616 0.666504 0.666992 4.39567 0.666992 8.99984C0.666992 13.604 4.39616 17.3332 9.00033 17.3332C13.6045 17.3332 17.3337 13.604 17.3337 8.99984C17.3337 4.39567 13.6045 0.666504 9.00033 0.666504ZM9.83366 14.8332H8.16699V13.1665H9.83366V14.8332ZM11.5545 8.379L10.8087 9.14567C10.2087 9.74567 9.83366 10.2498 9.83366 11.4998H8.16699V11.0832C8.16699 10.1623 8.54199 9.329 9.14199 8.72484L10.1795 7.67484C10.4795 7.37484 10.667 6.95817 10.667 6.49984C10.667 5.579 9.92116 4.83317 9.00033 4.83317C8.07949 4.83317 7.33366 5.579 7.33366 6.49984H5.66699C5.66699 4.65817 7.15866 3.1665 9.00033 3.1665C10.842 3.1665 12.3337 4.65817 12.3337 6.49984C12.3337 7.23317 12.0378 7.89567 11.5545 8.379Z"
        fill="#333333" />
</svg>
