<svg width="23" height="16" viewBox="0 0 23 16" fill="none" xmlns="http://www.w3.org/2000/svg">
    <path fill-rule="evenodd" clip-rule="evenodd"
        d="M3.24953 0.379883C1.73953 0.379883 0.519531 1.59988 0.519531 3.10988V12.7199C0.519531 14.2299 1.73953 15.4499 3.24953 15.4499H20.1595C21.6695 15.4499 22.8895 14.2299 22.8895 12.7199V3.10988C22.8895 1.59988 21.6695 0.379883 20.1595 0.379883H3.24953ZM3.24953 1.87988H20.1595C20.8395 1.87988 21.3895 2.42988 21.3895 3.10988V4.37988H2.01953V3.10988C2.01953 2.42988 2.56953 1.87988 3.24953 1.87988ZM20.1595 13.9499H3.24953C2.56953 13.9499 2.01953 13.3999 2.01953 12.7199V5.86988H21.3895V12.7199C21.3895 13.3999 20.8395 13.9499 20.1595 13.9499ZM14.7595 10.4799H4.24953V11.9799H14.7595V10.4799ZM16.8595 10.4799H19.1395V11.9799H16.8595V10.4799Z"
        fill="currentColor" />
</svg>
