<svg width="20" height="20" viewBox="0 0 20 20" fill="none" xmlns="http://www.w3.org/2000/svg">
    <path
        d="M9.99974 0.691895C4.86641 0.691895 0.691406 4.86689 0.691406 10.0002C0.691406 15.1336 4.86641 19.3086 9.99974 19.3086C15.1331 19.3086 19.3081 15.1336 19.3081 10.0002C19.3081 4.86689 15.1331 0.691895 9.99974 0.691895ZM5.83307 15.0586C5.83307 13.7752 6.85807 12.7252 8.13307 12.6752C8.67474 13.0252 9.31641 13.2336 9.99974 13.2336C10.6831 13.2336 11.3247 13.0252 11.8664 12.6836C13.1414 12.7336 14.1664 13.7836 14.1664 15.0669V16.8919C12.9497 17.6336 11.5247 18.0669 9.99974 18.0669C8.47474 18.0669 7.04974 17.6336 5.83307 16.8919V15.0586ZM12.2414 9.74189C12.2414 10.9752 11.2414 11.9752 10.0081 11.9752C8.77474 11.9752 7.77474 10.9752 7.77474 9.74189V7.50023C7.77474 6.44189 8.64141 5.57523 9.69974 5.57523H10.3247C11.3831 5.57523 12.2497 6.44189 12.2497 7.50023V9.74189H12.2414ZM15.4247 15.9502V15.0586C15.4247 13.4586 14.3747 12.1086 12.9331 11.6169C13.2831 11.0752 13.4914 10.4336 13.4914 9.74189V7.35856C13.4164 5.67523 12.0247 4.32523 10.3247 4.32523H9.69974C7.99974 4.32523 6.59974 5.67523 6.53307 7.35856V9.74189C6.53307 10.4336 6.74141 11.0752 7.09141 11.6169C5.64974 12.1002 4.59974 13.4502 4.59974 15.0586V15.9502C2.98307 14.4752 1.95807 12.3586 1.95807 10.0002C1.94141 5.55856 5.55807 1.94189 9.99974 1.94189C14.4414 1.94189 18.0581 5.55856 18.0581 10.0002C18.0581 12.3586 17.0331 14.4752 15.4164 15.9502H15.4247Z"
        fill="currentColor" />
</svg>
