<svg width="18" height="18" viewBox="0 0 18 18" fill="none" xmlns="http://www.w3.org/2000/svg">
    <path
        d="M9.00033 0.666504C4.39616 0.666504 0.666992 4.39567 0.666992 8.99984C0.666992 13.604 4.39616 17.3332 9.00033 17.3332C13.6045 17.3332 17.3337 13.604 17.3337 8.99984C17.3337 4.39567 13.6045 0.666504 9.00033 0.666504ZM9.00033 3.1665C10.3795 3.1665 11.5003 4.28734 11.5003 5.6665C11.5003 7.04984 10.3795 8.1665 9.00033 8.1665C7.62116 8.1665 6.50033 7.04984 6.50033 5.6665C6.50033 4.28734 7.62116 3.1665 9.00033 3.1665ZM9.00033 14.9998C6.91283 14.9998 5.07949 13.9332 4.00033 12.3165C4.02116 10.6623 7.33783 9.74984 9.00033 9.74984C10.6628 9.74984 13.9753 10.6623 14.0003 12.3165C12.9212 13.9332 11.0878 14.9998 9.00033 14.9998Z"
        fill="#333333" />
</svg>
