<svg width="26" height="24" viewBox="0 0 26 24" fill="none" xmlns="http://www.w3.org/2000/svg">
<g clip-path="url(#clip0_2791:8677)">
<path d="M22.1654 0L18.4354 3.78803V7.21588H7.58922V3.78803L3.79154 0L0 3.78803V23.7714H26V3.78803L22.1654 0ZM22.1654 1.31029L24.9922 4.10473H19.4124L22.1654 1.31029ZM18.4354 8.14737V10.0103H7.58922V8.14737H18.4354ZM6.58757 4.10473H0.995509L3.79154 1.31029L6.58757 4.10473ZM0.921768 22.8399V5.03621H6.66745V10.9356H19.3387V5.03621H25.0782V22.8399H0.921768Z" fill="currentColor"/>
<path d="M4.11708 6.91797H3.19531V9.42055H4.11708V6.91797Z" fill="currentColor"/>
<path d="M22.6693 6.91797H21.7476V9.42055H22.6693V6.91797Z" fill="currentColor"/>
<path d="M4.11708 12.5811H3.19531V15.0836H4.11708V12.5811Z" fill="currentColor"/>
<path d="M22.6693 12.5811H21.7476V15.0836H22.6693V12.5811Z" fill="currentColor"/>
<path d="M4.11708 18.2383H3.19531V20.7409H4.11708V18.2383Z" fill="currentColor"/>
<path d="M13.464 12.5811H12.5422V15.0836H13.464V12.5811Z" fill="currentColor"/>
<path d="M13.464 18.2383H12.5422V20.7409H13.464V18.2383Z" fill="currentColor"/>
<path d="M9.00868 12.5811H8.08691V15.0836H9.00868V12.5811Z" fill="currentColor"/>
<path d="M9.00868 18.2383H8.08691V20.7409H9.00868V18.2383Z" fill="currentColor"/>
<path d="M18.0668 12.5811H17.145V15.0836H18.0668V12.5811Z" fill="currentColor"/>
<path d="M18.0668 18.2383H17.145V20.7409H18.0668V18.2383Z" fill="currentColor"/>
<path d="M22.6693 18.2383H21.7476V20.7409H22.6693V18.2383Z" fill="currentColor"/>
</g>
<defs>
<clipPath id="clip0_2791:8677">
<rect width="26" height="23.7714" fill="currentColor"/>
</clipPath>
</defs>
</svg>
