<svg width="25" height="24" viewBox="0 0 25 24" fill="none" xmlns="http://www.w3.org/2000/svg">
<rect x="0.0625" width="24" height="24" rx="4" fill="#E46054"/>
<path d="M11.0396 16C10.7789 16 10.5319 15.884 10.3736 15.684L8.23184 12.986C8.16562 12.9027 8.11728 12.8077 8.08957 12.7066C8.06187 12.6055 8.05535 12.5001 8.07038 12.3965C8.08541 12.293 8.1217 12.1933 8.17718 12.1031C8.23265 12.0129 8.30623 11.9341 8.39369 11.871C8.48112 11.8077 8.5808 11.7615 8.68701 11.735C8.79322 11.7085 8.90388 11.7022 9.01263 11.7165C9.12139 11.7309 9.22611 11.7655 9.32079 11.8185C9.41547 11.8715 9.49826 11.9418 9.56439 12.0253L10.9737 13.7992L14.517 8.37472C14.6345 8.19561 14.8217 8.06826 15.0376 8.02058C15.2534 7.97291 15.4803 8.00881 15.6685 8.12041C16.0599 8.35243 16.1804 8.8439 15.9358 9.21765L11.7493 15.624C11.6779 15.7338 11.5794 15.8254 11.4624 15.8907C11.3454 15.956 11.2134 15.9932 11.078 15.9989C11.0648 16 11.0528 16 11.0396 16Z" fill="white"/>
</svg>
