<svg width="17" height="24" viewBox="0 0 17 24" fill="none" xmlns="http://www.w3.org/2000/svg">
<path d="M15.8424 21.7739H1.79117C1.32173 21.7739 0.9375 22.165 0.9375 22.6435C0.9375 23.1217 1.32173 23.5131 1.79117 23.5131H15.851C16.3205 23.5131 16.7047 23.1217 16.7047 22.6435C16.7047 22.165 16.3205 21.7739 15.8424 21.7739Z" fill="#333333"/>
<path d="M8.19167 13.652C8.35399 13.8259 8.5759 13.9303 8.81479 13.9303C9.05396 13.9303 9.27587 13.8259 9.43792 13.652L14.4405 8.18248C14.7648 7.83449 14.7392 7.27803 14.3979 6.9564C14.0562 6.62599 13.51 6.65181 13.1942 6.9998L9.66846 10.8519V1.35639C9.66846 0.87793 9.28423 0.486816 8.81479 0.486816C8.34536 0.486816 7.96113 0.87793 7.96113 1.35639V10.8519L4.44401 6.9998C4.11963 6.65208 3.58171 6.62599 3.24035 6.9564C2.899 7.28682 2.87338 7.83476 3.19775 8.18248L8.19167 13.652Z" fill="#333333"/>
</svg>
