<svg width="49" height="49" viewBox="0 0 49 49" fill="none" xmlns="http://www.w3.org/2000/svg">
<path d="M38.5955 38.3896H13.418V41.3521H38.5955V38.3896Z" stroke="#333333" stroke-width="1.5" stroke-miterlimit="10"/>
<path d="M28.3359 23.7196H38.9034V21.5071L28.7109 18.0796" stroke="#333333" stroke-width="1.5" stroke-miterlimit="10"/>
<path d="M35.6272 31.1742V23.7192H32.3347V30.1842H32.3272V35.5317L31.1797 38.3892H36.7747L35.6272 35.5317V31.1742Z" stroke="#333333" stroke-width="1.5" stroke-miterlimit="10"/>
<path d="M24.3545 29.6896V30.1846V35.532L23.207 38.3895H28.802L27.6545 35.532V31.1746V25.6021" stroke="#333333" stroke-width="1.5" stroke-miterlimit="10"/>
<path d="M16.3819 31.4521V35.5321L15.2344 38.3896H20.8294L19.6819 35.5321V32.3446" stroke="#333333" stroke-width="1.5" stroke-miterlimit="10"/>
<path d="M18.9686 7.79689C22.2542 7.79404 25.5204 8.30004 28.6511 9.29689L28.7111 20.8544C28.7165 22.7141 28.2552 24.5455 27.3695 26.1808C26.4837 27.8161 25.2018 29.2029 23.6411 30.2144L21.2186 31.7669C20.5776 32.1713 19.8352 32.386 19.0773 32.386C18.3194 32.386 17.5771 32.1713 16.9361 31.7669L14.5061 30.2219C12.9266 29.2294 11.6226 27.8551 10.7142 26.2258C9.80583 24.5966 9.32243 22.7647 9.30859 20.8994V9.34189C12.4307 8.33625 15.6886 7.8152 18.9686 7.79689V7.79689Z" stroke="#333333" stroke-width="1.5" stroke-miterlimit="10"/>
<path d="M15.5312 24.2368C16.5119 25.049 17.7454 25.4935 19.0187 25.4935C20.2921 25.4935 21.5256 25.049 22.5062 24.2368V24.2368" stroke="#333333" stroke-width="1.5" stroke-miterlimit="10"/>
<path d="M17.4527 17.5393C16.1702 15.8593 14.3177 15.8593 13.0352 17.5393" stroke="#333333" stroke-width="1.5" stroke-miterlimit="10"/>
<path d="M25.0073 17.5393C23.7248 15.8593 21.8648 15.8593 20.5898 17.5393" stroke="#333333" stroke-width="1.5" stroke-miterlimit="10"/>
</svg>
