<svg width="96" height="96" viewBox="0 0 96 96" fill="none" xmlns="http://www.w3.org/2000/svg">
<path d="M33.285 50.0244C34.785 54.6744 40.71 60.9294 45.285 62.0244C46.3299 62.2414 47.418 62.08 48.3549 61.569C49.2919 61.0579 50.0167 60.2305 50.4 59.2344C50.6347 58.5321 51.0467 57.9022 51.5961 57.4057C52.1454 56.9091 52.8136 56.5626 53.536 56.3998C54.2583 56.2369 55.0105 56.2631 55.7198 56.4759C56.4291 56.6886 57.0715 57.0808 57.585 57.6144L64.08 64.1094C64.861 64.9637 65.2941 66.0793 65.2941 67.2369C65.2941 68.3944 64.861 69.5101 64.08 70.3644L59.73 74.8494C55.095 79.4994 42.795 74.3844 31.89 63.4794C20.985 52.5744 16.11 40.2894 20.52 35.6394L24.93 31.2294C25.7867 30.4473 26.9049 30.0137 28.065 30.0137C29.225 30.0137 30.3432 30.4473 31.2 31.2294L37.695 37.7244C38.2422 38.2397 38.6461 38.8884 38.8669 39.6069C39.0878 40.3255 39.118 41.089 38.9546 41.8228C38.7912 42.5565 38.4399 43.2351 37.935 43.792C37.4302 44.3489 36.7892 44.765 36.075 44.9994C35.5446 45.1171 35.0453 45.3459 34.61 45.6708C34.1746 45.9957 33.8132 46.4093 33.5495 46.8842C33.2858 47.3591 33.1258 47.8846 33.0803 48.4259C33.0347 48.9672 33.1044 49.512 33.285 50.0244V50.0244Z" stroke="currentColor" stroke-width="1.5" stroke-miterlimit="10"/>
<path d="M43.575 35.0254C48.292 35.0446 52.813 36.9146 56.1653 40.2333C59.5176 43.5519 61.4332 48.0538 61.5 52.7704" stroke="currentColor" stroke-width="1.5" stroke-miterlimit="10"/>
<path d="M43.575 27.2852C50.3534 27.2889 56.8558 29.971 61.6658 34.7473C66.4757 39.5235 69.2035 46.0069 69.2549 52.7852" stroke="currentColor" stroke-width="1.5" stroke-miterlimit="10"/>
<path d="M43.575 19.0654C52.5321 19.0653 61.1253 22.6101 67.4772 28.9255C73.8291 35.2408 77.4234 43.8134 77.4749 52.7704" stroke="currentColor" stroke-width="1.5" stroke-miterlimit="10"/>
</svg>
