<svg width="65" height="65" viewBox="0 0 65 65" fill="none" xmlns="http://www.w3.org/2000/svg">
<path d="M30.2113 36.8261H49.8312C50.1309 36.8261 50.4184 36.9451 50.6303 37.157C50.8422 37.3689 50.9613 37.6564 50.9613 37.9561V45.1761H29.0313V37.9561C29.0311 37.8034 29.0619 37.6522 29.1218 37.5118C29.1817 37.3713 29.2694 37.2444 29.3797 37.1388C29.49 37.0332 29.6205 36.951 29.7634 36.8973C29.9064 36.8435 30.0587 36.8193 30.2113 36.8261Z" stroke="#333333" stroke-width="1.5" stroke-miterlimit="10"/>
<path d="M26.8715 45.176H53.1715C53.3996 45.176 53.6183 45.2666 53.7796 45.4279C53.9409 45.5892 54.0315 45.8079 54.0315 46.036V47.256C54.0315 47.4549 53.9525 47.6457 53.8118 47.7864C53.6712 47.927 53.4804 48.006 53.2815 48.006H26.7615C26.5661 48.0008 26.3804 47.9195 26.244 47.7794C26.1077 47.6393 26.0314 47.4515 26.0315 47.256V46.056C26.0288 45.9431 26.0485 45.8307 26.0892 45.7254C26.13 45.62 26.1912 45.5237 26.2692 45.442C26.3472 45.3603 26.4405 45.2947 26.5439 45.2491C26.6472 45.2034 26.7585 45.1786 26.8715 45.176V45.176Z" stroke="#333333" stroke-width="1.5" stroke-miterlimit="10"/>
<path d="M27.5215 47.9861V55.9361" stroke="#333333" stroke-width="1.5" stroke-miterlimit="10"/>
<path d="M52.5215 47.9861V55.9361" stroke="#333333" stroke-width="1.5" stroke-miterlimit="10"/>
<path d="M49.4512 47.9861V55.9361" stroke="#333333" stroke-width="1.5" stroke-miterlimit="10"/>
<path d="M30.5918 47.9861V55.9361" stroke="#333333" stroke-width="1.5" stroke-miterlimit="10"/>
<path d="M22.5605 32.9561L22.5705 55.9361" stroke="#333333" stroke-width="1.5" stroke-miterlimit="10"/>
<path d="M17.5022 33.2561C18.9723 33.7467 20.5408 33.8674 22.0687 33.6076C23.5966 33.3477 25.0369 32.7152 26.2622 31.7661L26.3522 31.8161C30.1622 33.9261 34.3522 33.3561 35.8222 30.5561C36.8222 28.6161 36.1722 26.1161 34.4322 24.0661C37.6722 22.6561 39.4322 19.1261 38.2522 16.0661C37.6416 14.6094 36.4812 13.4522 35.0228 12.8457C33.5645 12.2391 31.9257 12.2321 30.4622 12.8261C29.5399 11.1112 28.1895 9.66429 26.5422 8.62609C22.0322 5.77609 16.6622 6.52609 14.4522 10.3161C13.6458 11.7453 13.3496 13.4063 13.6122 15.0261C13.6122 15.0261 7.49219 15.9461 7.49219 21.5661C7.49219 27.9061 13.2222 27.7661 13.2222 27.7661C13.2222 27.7661 13.6922 31.9661 17.5022 33.2561Z" stroke="#333333" stroke-width="1.5" stroke-miterlimit="10"/>
</svg>
