<svg width="24" height="24" viewBox="0 0 24 24" fill="none" xmlns="http://www.w3.org/2000/svg">
<path d="M10.57 3.74991C9.21874 3.74991 7.89783 4.15074 6.77443 4.90167C5.65103 5.6526 4.77561 6.71989 4.25896 7.9685C3.74231 9.2171 3.60764 10.5909 3.87199 11.9161C4.13634 13.2412 4.78783 14.4582 5.74402 15.413C6.70021 16.3678 7.91814 17.0175 9.24369 17.2799C10.5692 17.5423 11.9428 17.4056 13.1907 16.8871C14.4385 16.3687 15.5045 15.4917 16.2538 14.3672C17.0031 13.2427 17.402 11.9212 17.4 10.5699C17.3974 8.76021 16.6766 7.02554 15.396 5.74683C14.1154 4.46812 12.3797 3.74991 10.57 3.74991ZM10.57 2.64991C12.1393 2.64793 13.6738 3.11159 14.9794 3.98219C16.2851 4.85279 17.303 6.09118 17.9045 7.54061C18.5059 8.99003 18.6638 10.5853 18.3581 12.1245C18.0525 13.6637 17.297 15.0776 16.1874 16.1873C15.0777 17.2969 13.6638 18.0524 12.1246 18.358C10.5854 18.6637 8.99014 18.5058 7.54071 17.9044C6.09129 17.3029 4.85289 16.285 3.98229 14.9793C3.11169 13.6737 2.64803 12.1392 2.65001 10.5699C2.65266 8.47021 3.48794 6.45726 4.97265 4.97255C6.45736 3.48783 8.47031 2.65255 10.57 2.64991Z" 
fill="currentColor" stroke="currentColor"/>
<path d="M15.7001 15.7002L20.9301 20.9302" stroke="currentColor" stroke-width="2" stroke-miterlimit="10"/>
</svg>
