<svg width="96" height="96" viewBox="0 0 96 96" fill="none" xmlns="http://www.w3.org/2000/svg">
<rect width="96" height="96" rx="48" fill="#F8D7D4"/>
<path d="M45.7598 45.1399V39.9199" stroke="#333333" stroke-width="1.5" stroke-miterlimit="10"/>
<path d="M49.5198 53.55V70.62H45.7598V53.55" stroke="#333333" stroke-width="1.5" stroke-miterlimit="10"/>
<path d="M49.5195 39.9199V45.1399" stroke="#333333" stroke-width="1.5" stroke-miterlimit="10"/>
<path d="M45.7598 31.5201V29.1801C45.7624 28.6832 45.9616 28.2076 46.3139 27.8572C46.6662 27.5067 47.1429 27.3101 47.6398 27.3101V27.3101C48.1366 27.3101 48.6133 27.5067 48.9656 27.8572C49.3179 28.2076 49.5171 28.6832 49.5198 29.1801V31.5201" stroke="#333333" stroke-width="1.5" stroke-miterlimit="10"/>
<path d="M63.5504 39.92H30.1504V31.52H63.5504L67.1304 35.72L63.5504 39.92Z" stroke="#333333" stroke-width="1.5" stroke-miterlimit="10"/>
<path d="M50.5203 53.5499H32.1103L28.5303 49.3399L32.1103 45.1399H50.5203H65.5103V53.5499H50.5203Z" stroke="#333333" stroke-width="1.5" stroke-miterlimit="10"/>
<path d="M37.6605 35.72H33.4805" stroke="#333333" stroke-width="1.5" stroke-miterlimit="10"/>
<path d="M55.1605 35.72H50.9805" stroke="#333333" stroke-width="1.5" stroke-miterlimit="10"/>
<path d="M61.0101 35.72H56.8301" stroke="#333333" stroke-width="1.5" stroke-miterlimit="10"/>
<path d="M39.4503 49.3401H35.2803" stroke="#333333" stroke-width="1.5" stroke-miterlimit="10"/>
<path d="M49.1302 35.72H39.4502" stroke="#333333" stroke-width="1.5" stroke-miterlimit="10"/>
<path d="M61.9005 49.3401H52.2305" stroke="#333333" stroke-width="1.5" stroke-miterlimit="10"/>
<path d="M50.5999 49.3401H40.9199" stroke="#333333" stroke-width="1.5" stroke-miterlimit="10"/>
</svg>
