<svg width="65" height="65" viewBox="0 0 65 65" fill="none" xmlns="http://www.w3.org/2000/svg">
<path d="M33.3642 33.2966L18.1376 28.3899C17.2474 28.143 16.3065 28.1455 15.4177 28.3971C14.5288 28.6487 13.7262 29.1397 13.0976 29.8166L8.32422 34.6966V51.2299L17.5776 48.2566C18.832 47.6983 20.2145 47.4909 21.5776 47.6566L32.2442 48.9899C34.0523 49.182 35.8693 48.7183 37.3642 47.6833L54.6976 36.0566C55.4311 35.5646 55.9434 34.8055 56.1252 33.9412C56.307 33.0769 56.144 32.1758 55.6709 31.4299V31.4299C55.4323 31.0519 55.121 30.725 54.755 30.4684C54.389 30.2117 53.9757 30.0303 53.539 29.9348C53.1023 29.8393 52.651 29.8315 52.2112 29.9119C51.7715 29.9923 51.3522 30.1594 50.9776 30.4033L37.3642 39.2166" stroke="#333333" stroke-width="1.5" stroke-miterlimit="10"/>
<path d="M21.3652 36.7489L33.5519 40.4689C34.3988 40.7173 35.3091 40.6267 36.0904 40.2161C36.8717 39.8056 37.4627 39.1073 37.7386 38.2689C37.8753 37.8443 37.9269 37.3969 37.8902 36.9524C37.8536 36.5078 37.7295 36.0749 37.5251 35.6784C37.3207 35.282 37.0399 34.9298 36.699 34.6422C36.3581 34.3545 35.9638 34.137 35.5386 34.0022L33.3652 33.2822" stroke="#333333" stroke-width="1.5" stroke-miterlimit="10"/>
<path d="M30.6981 23.8159C29.9738 23.8159 29.2567 23.9588 28.5877 24.2364C27.9187 24.5139 27.3111 24.9207 26.7996 25.4335C26.288 25.9462 25.8827 26.5549 25.6068 27.2245C25.3308 27.8942 25.1897 28.6117 25.1914 29.3359V30.6693" stroke="#333333" stroke-width="1.5" stroke-miterlimit="10"/>
<path d="M37.1387 23.8162C37.8674 23.8091 38.5903 23.9468 39.2655 24.2212C39.9406 24.4956 40.5546 24.9013 41.0717 25.4148C41.5889 25.9282 41.999 26.5392 42.2783 27.2124C42.5576 27.8855 42.7005 28.6074 42.6987 29.3362V35.7628" stroke="#333333" stroke-width="1.5" stroke-miterlimit="10"/>
<path d="M33.5378 12.1089H34.2578C35.4743 12.1089 36.6409 12.5921 37.5011 13.4523C38.3613 14.3125 38.8445 15.4791 38.8445 16.6956V20.6289C38.8445 21.2277 38.7266 21.8207 38.4974 22.3739C38.2682 22.9272 37.9323 23.4299 37.5089 23.8533C37.0855 24.2767 36.5828 24.6126 36.0295 24.8418C35.4763 25.0709 34.8833 25.1889 34.2845 25.1889H33.5645C32.9587 25.1889 32.3588 25.0696 31.7991 24.8377C31.2393 24.6059 30.7308 24.2661 30.3024 23.8377C29.874 23.4093 29.5342 22.9007 29.3023 22.341C29.0705 21.7813 28.9512 21.1814 28.9512 20.5756V16.6956C28.9512 15.4791 29.4344 14.3125 30.2946 13.4523C31.1547 12.5921 32.3214 12.1089 33.5378 12.1089V12.1089Z" stroke="#333333" stroke-width="1.5" stroke-miterlimit="10"/>
</svg>
