<?xml version="1.0" standalone="no"?>
<!DOCTYPE svg PUBLIC "-//W3C//DTD SVG 20010904//EN"
 "http://www.w3.org/TR/2001/REC-SVG-20010904/DTD/svg10.dtd">
<svg version="1.0" xmlns="http://www.w3.org/2000/svg"
 width="832.000000pt" height="832.000000pt" viewBox="0 0 832.000000 832.000000"
 preserveAspectRatio="xMidYMid meet">
<metadata>
Created by potrace 1.14, written by Peter Selinger 2001-2017
</metadata>
<g transform="translate(0.000000,832.000000) scale(0.100000,-0.100000)"
fill="#000000" stroke="none">
<path d="M0 5310 l0 -2297 580 0 580 0 -1 106 c-1 58 -1 111 1 116 1 6 1 12 0
15 -6 17 -5 77 2 87 5 6 5 14 -1 17 -7 4 -7 15 -1 30 5 13 6 27 3 30 -10 9
-10 70 -1 83 5 6 5 14 -1 17 -7 4 -7 15 -1 30 5 13 6 27 3 30 -10 9 -10 70 -1
83 5 6 5 14 -1 17 -7 4 -7 15 -1 30 5 13 6 27 3 30 -10 9 -10 70 -1 83 5 6 5
14 -1 17 -7 4 -7 15 -1 30 5 13 6 27 3 30 -10 9 -10 70 -1 83 5 6 5 14 -1 17
-7 4 -7 15 -1 30 5 13 6 27 3 30 -10 9 -10 70 -1 83 5 6 5 14 -1 17 -7 4 -7
15 -1 30 5 13 6 27 3 30 -10 9 -10 70 -1 83 5 6 5 14 -1 17 -7 4 -7 15 -1 30
5 13 6 26 3 30 -9 9 -11 76 -1 82 4 3 6 10 3 15 -6 8 -10 153 -5 174 1 6 1 12
0 15 -6 16 -6 68 1 86 4 12 5 24 2 28 -8 8 -11 76 -3 81 6 3 6 38 0 55 -2 7
-2 203 0 215 1 6 1 12 0 15 -6 16 -6 68 1 87 5 12 4 25 -1 28 -5 3 -7 12 -3
20 4 13 221 15 1742 13 l1736 -3 0 -1133 c0 -998 2 -1133 15 -1136 8 -2 268
-4 578 -4 400 1 562 4 563 12 1 6 3 513 4 1126 1 613 3 1121 4 1128 2 18 1167
18 1173 0 2 -7 4 -520 4 -1139 l-1 -1126 580 1 580 1 0 2288 c0 1259 -2 2292
-5 2296 -8 12 -1150 9 -1151 -3 -1 -6 -3 -265 -4 -576 -1 -311 -3 -570 -4
-576 -1 -11 -1170 -16 -1172 -5 -1 3 -2 267 -3 586 l-1 580 -570 1 c-313 1
-574 -2 -580 -7 -6 -5 -10 -209 -10 -579 0 -379 -3 -574 -10 -578 -5 -4 -787
-7 -1737 -8 l-1726 -1 -5 24 c-2 13 0 26 4 29 5 3 5 13 1 22 -5 9 -6 31 -2 47
3 17 3 43 -1 58 -5 16 -4 39 1 51 4 12 5 28 1 34 -4 6 -5 35 -3 64 1 29 3 58
3 63 -1 51 -1 243 0 255 0 8 -2 32 -4 53 -3 20 -1 37 4 37 6 0 6 6 0 17 -5 10
-5 26 -1 39 5 12 6 24 4 27 -10 10 -12 77 -3 77 6 0 6 6 0 17 -5 10 -5 26 -1
39 5 12 6 24 4 27 -10 10 -12 77 -3 77 6 0 6 7 1 18 -5 9 -6 26 -2 37 4 11 3
29 -2 41 -10 20 -12 21 -584 20 l-574 0 0 -2296z"/>
<path d="M2319 4156 c-4 -54 -1 -1125 4 -1133 4 -6 209 -10 580 -10 l574 0 -1
576 -1 576 -577 1 c-397 0 -578 -3 -579 -10z"/>
<path d="M2 1298 l3 -572 576 0 577 -1 0 36 c0 19 2 39 3 45 1 5 0 11 -1 14
-6 16 -6 68 1 86 4 12 5 24 2 28 -8 8 -11 76 -3 81 6 3 6 38 0 55 -2 7 -2 203
0 215 1 6 1 12 0 15 -6 16 -6 68 1 86 4 12 5 24 2 28 -8 8 -11 76 -3 81 6 3 6
38 0 55 -1 3 -2 76 -1 163 l0 157 -580 0 -579 0 2 -572z"/>
<path d="M2319 1858 c0 -7 -1 -262 -2 -566 -1 -360 2 -556 8 -561 6 -3 267 -6
580 -6 l570 1 0 570 0 569 -577 3 c-459 2 -578 0 -579 -10z"/>
<path d="M4619 1863 c-1 -5 -2 -261 -3 -570 -1 -556 -1 -563 19 -564 80 -4
1135 -3 1136 1 4 14 5 1117 1 1128 -3 9 -128 12 -578 12 -316 0 -575 -3 -575
-7z"/>
<path d="M6977 1863 c-3 -7 -2 -1084 2 -1123 1 -13 71 -15 568 -13 313 0 573
2 578 2 7 1 10 195 9 563 -1 310 -2 566 -3 571 0 4 -259 7 -575 7 -316 0 -576
-3 -579 -7z"/>
</g>
</svg>
