<svg width="48" height="48" viewBox="0 0 48 48" fill="none" xmlns="http://www.w3.org/2000/svg">
<path d="M11.8835 21.2071C13.215 21.2034 14.5177 21.5949 15.6266 22.3318C16.7356 23.0687 17.6011 24.1181 18.1135 25.3471C18.4933 26.2658 18.6644 27.2574 18.6147 28.2503C18.565 29.2431 18.2956 30.2126 17.8259 31.0888C17.3562 31.965 16.698 32.7261 15.8987 33.3172C15.0994 33.9083 14.1788 34.3147 13.2035 34.5071C11.8981 34.7618 10.5466 34.6264 9.31775 34.1178C8.08886 33.6091 7.03701 32.7498 6.2935 31.6471C5.62091 30.6352 5.23523 29.4599 5.17751 28.2463C5.11979 27.0327 5.39218 25.8261 5.9657 24.755C6.53922 23.6839 7.39241 22.7883 8.43448 22.1635C9.47655 21.5388 10.6685 21.2082 11.8835 21.2071V21.2071Z" stroke="#333333" stroke-width="1.5" stroke-linejoin="round"/>
<path d="M36.0934 21.207C37.4232 21.2054 38.7237 21.5977 39.8307 22.3346C40.9377 23.0714 41.8017 24.1196 42.3134 25.347C42.826 26.5659 42.9618 27.9103 42.7034 29.207C42.4426 30.51 41.8025 31.7068 40.8634 32.647C39.9219 33.5896 38.7217 34.2315 37.4151 34.4914C36.1084 34.7513 34.754 34.6175 33.5234 34.107C32.0948 33.5093 30.9169 32.4358 30.1895 31.0686C29.4622 29.7014 29.2301 28.1248 29.5327 26.606C29.8352 25.0872 30.6538 23.7198 31.8496 22.7358C33.0454 21.7518 34.5448 21.2116 36.0934 21.207V21.207Z" stroke="#333333" stroke-width="1.5" stroke-linejoin="round"/>
<path d="M18.6232 27.8972H24.7232L15.3232 13.3672" stroke="#333333" stroke-width="1.5" stroke-linejoin="round"/>
<path d="M36.1026 27.8972L30.5226 16.9272H17.4626L11.8926 27.8972H18.6226" stroke="#333333" stroke-width="1.5" stroke-linejoin="round"/>
<path d="M24.7227 27.8972L30.5227 16.9272" stroke="#333333" stroke-width="1.5" stroke-linejoin="round"/>
<path d="M30.5234 16.9272V13.3672H34.2734" stroke="#333333" stroke-width="1.5" stroke-linejoin="round"/>
<path d="M13.0332 13.3672H19.9532" stroke="#333333" stroke-width="1.5" stroke-linejoin="round"/>
</svg>
