<svg width="48" height="48" viewBox="0 0 48 48" fill="none" xmlns="http://www.w3.org/2000/svg">
<path d="M11.7101 25.0652C10.0949 25.0652 8.54593 25.7068 7.40384 26.8489C6.26174 27.991 5.62012 29.54 5.62012 31.1552H20.3901" stroke="#333333" stroke-width="1.5" stroke-miterlimit="10"/>
<path d="M20.3896 31.155H20.5496" stroke="#333333" stroke-width="1.5" stroke-miterlimit="10"/>
<path d="M21.0703 17.395V17.015V15.895" stroke="#333333" stroke-width="1.5" stroke-miterlimit="10"/>
<path d="M18.1898 25.395C17.3124 25.9183 16.3113 26.1979 15.2898 26.205V26.205C13.7568 26.205 12.2866 25.5961 11.2027 24.5121C10.1187 23.4281 9.50977 21.958 9.50977 20.425V15.895" stroke="#333333" stroke-width="1.5" stroke-miterlimit="10"/>
<path d="M9.50977 15.8951C9.51241 14.5301 10.0558 13.2217 11.0211 12.2564C11.9863 11.2912 13.2947 10.7478 14.6598 10.7451H15.9298C17.2939 10.7478 18.6013 11.2915 19.5649 12.257C20.5286 13.2226 21.0698 14.531 21.0698 15.8951" stroke="#333333" stroke-width="1.5" stroke-miterlimit="10"/>
<path d="M21.0703 15.895V15.615" stroke="#333333" stroke-width="1.5" stroke-miterlimit="10"/>
<path d="M9.50977 15.895V15.615" stroke="#333333" stroke-width="1.5" stroke-miterlimit="10"/>
<path d="M27.3799 31.155H27.5499" stroke="#333333" stroke-width="1.5" stroke-miterlimit="10"/>
<path d="M27.5498 31.1552H42.3798C42.3798 29.54 41.7382 27.991 40.5961 26.8489C39.454 25.7068 37.905 25.0652 36.2898 25.0652" stroke="#333333" stroke-width="1.5" stroke-miterlimit="10"/>
<path d="M38.49 15.895V20.425C38.49 21.1841 38.3405 21.9357 38.05 22.6369C37.7595 23.3382 37.3338 23.9754 36.797 24.5121C36.2603 25.0488 35.6231 25.4746 34.9219 25.765C34.2206 26.0555 33.469 26.205 32.71 26.205C31.6514 26.2085 30.6128 25.9177 29.71 25.365" stroke="#333333" stroke-width="1.5" stroke-miterlimit="10"/>
<path d="M38.4902 15.895V15.615" stroke="#333333" stroke-width="1.5" stroke-miterlimit="10"/>
<path d="M26.9297 15.8951C26.9297 14.531 27.4709 13.2226 28.4345 12.257C29.3982 11.2915 30.7056 10.7478 32.0697 10.7451H33.3397C34.7047 10.7478 36.0131 11.2912 36.9784 12.2564C37.9436 13.2217 38.487 14.5301 38.4897 15.8951" stroke="#333333" stroke-width="1.5" stroke-miterlimit="10"/>
<path d="M26.9297 15.895V15.615" stroke="#333333" stroke-width="1.5" stroke-miterlimit="10"/>
<path d="M26.9297 17.425V17.015V15.895" stroke="#333333" stroke-width="1.5" stroke-miterlimit="10"/>
<path d="M20.39 31.155C18.7722 31.155 17.2207 31.7977 16.0767 32.9417C14.9327 34.0857 14.29 35.6372 14.29 37.255H33.64C33.64 35.6389 32.9987 34.0889 31.8569 32.9452C30.7151 31.8015 29.1661 31.1577 27.55 31.155" stroke="#333333" stroke-width="1.5" stroke-miterlimit="10"/>
<path d="M21.0704 17.385C20.2121 17.8052 19.4878 18.4564 18.9791 19.2654C18.4703 20.0745 18.1972 21.0093 18.1904 21.965" stroke="#333333" stroke-width="1.5" stroke-miterlimit="10"/>
<path d="M18.1904 21.7151V21.9951" stroke="#333333" stroke-width="1.5" stroke-miterlimit="10"/>
<path d="M26.9297 17.425C27.7708 17.8505 28.4788 18.499 28.9762 19.2997C29.4735 20.1004 29.7411 21.0225 29.7497 21.965" stroke="#333333" stroke-width="1.5" stroke-miterlimit="10"/>
<path d="M29.75 21.9951V23.1151V25.3651" stroke="#333333" stroke-width="1.5" stroke-miterlimit="10"/>
<path d="M29.7499 25.365V26.515C29.748 27.4204 29.5324 28.3125 29.1206 29.1188C28.7088 29.9251 28.1123 30.6228 27.3799 31.155" stroke="#333333" stroke-width="1.5" stroke-miterlimit="10"/>
<path d="M20.5498 31.155C21.5349 31.8942 22.7332 32.2938 23.9648 32.2938C25.1964 32.2938 26.3947 31.8942 27.3798 31.155" stroke="#333333" stroke-width="1.5" stroke-miterlimit="10"/>
<path d="M18.1904 25.395V26.515C18.1903 27.4197 18.404 28.3116 18.8142 29.1179C19.2243 29.9243 19.8192 30.6223 20.5504 31.155" stroke="#333333" stroke-width="1.5" stroke-miterlimit="10"/>
<path d="M18.1904 21.9951V23.1151V25.3951" stroke="#333333" stroke-width="1.5" stroke-miterlimit="10"/>
<path d="M29.75 21.9951V21.7151" stroke="#333333" stroke-width="1.5" stroke-miterlimit="10"/>
<path d="M21.0703 17.385C21.7735 17.0375 22.546 16.8529 23.3303 16.845H24.6003C25.4121 16.8497 26.211 17.0486 26.9303 17.425" stroke="#333333" stroke-width="1.5" stroke-miterlimit="10"/>
</svg>
