<svg width="48" height="48" viewBox="0 0 48 48" fill="none" xmlns="http://www.w3.org/2000/svg">
<path d="M25.1997 31.7741H8.42969V16.9766H32.7747V20.5916" stroke="#333333" stroke-width="1.5" stroke-miterlimit="10"/>
<path d="M33.989 34.4888H36.1265C37.0913 34.4947 38.0146 34.8822 38.6947 35.5665C39.3748 36.2508 39.7565 37.1765 39.7565 38.1413V40.3463H21.1865V38.1413C21.1865 37.1726 21.5713 36.2435 22.2563 35.5586C22.9413 34.8736 23.8703 34.4888 24.839 34.4888H27.0065" stroke="#333333" stroke-width="1.5" stroke-miterlimit="10"/>
<path d="M31.0867 20.2842H29.8717C28.5336 20.3137 27.2618 20.8727 26.3352 21.8386C25.4087 22.8045 24.9031 24.0985 24.9292 25.4367V29.9817C24.9123 30.7273 25.0424 31.469 25.3122 32.1643C25.582 32.8596 25.9861 33.495 26.5015 34.034C27.0169 34.5731 27.6335 35.0054 28.316 35.3061C28.9985 35.6068 29.7336 35.7701 30.4792 35.7867V35.7867C31.9792 35.7454 33.402 35.1128 34.4374 34.0268C35.4729 32.9408 36.037 31.4894 36.0067 29.9892V25.4367C36.0309 24.1029 35.5277 22.8134 34.6064 21.8485C33.6851 20.8837 32.4202 20.3215 31.0867 20.2842V20.2842Z" stroke="#333333" stroke-width="1.5" stroke-miterlimit="10"/>
<path d="M22.3418 10.4141L32.9693 16.8191" stroke="#333333" stroke-width="1.5" stroke-miterlimit="10"/>
<path d="M8.24219 16.8191L18.8697 10.4141" stroke="#333333" stroke-width="1.5" stroke-miterlimit="10"/>
<path d="M20.602 11.8543C21.7618 11.8543 22.702 10.9141 22.702 9.7543C22.702 8.5945 21.7618 7.6543 20.602 7.6543C19.4422 7.6543 18.502 8.5945 18.502 9.7543C18.502 10.9141 19.4422 11.8543 20.602 11.8543Z" stroke="#333333" stroke-width="1.5" stroke-miterlimit="10"/>
<path d="M15.4349 20.6592H11.6924" stroke="#333333" stroke-width="1.5" stroke-miterlimit="10"/>
<path d="M21.9515 20.6592H18.209" stroke="#333333" stroke-width="1.5" stroke-miterlimit="10"/>
<path d="M15.4349 24.3789H11.6924" stroke="#333333" stroke-width="1.5" stroke-miterlimit="10"/>
<path d="M21.9515 24.3789H18.209" stroke="#333333" stroke-width="1.5" stroke-miterlimit="10"/>
<path d="M15.4349 28.0918H11.6924" stroke="#333333" stroke-width="1.5" stroke-miterlimit="10"/>
<path d="M21.9515 28.0918H18.209" stroke="#333333" stroke-width="1.5" stroke-miterlimit="10"/>
<path d="M24.9297 25.2266H36.0372" stroke="#333333" stroke-width="1.5" stroke-miterlimit="10"/>
</svg>
