<svg width="48" height="48" viewBox="0 0 48 48" fill="none" xmlns="http://www.w3.org/2000/svg">
<path d="M33.4537 35.4712H33.5737C34.3022 35.4702 35.0237 35.6128 35.697 35.8909C36.3703 36.169 36.9822 36.5771 37.4977 37.0919C38.0131 37.6067 38.422 38.218 38.7011 38.8909C38.9801 39.5639 39.1237 40.2852 39.1237 41.0137H21.5137C21.5137 39.5437 22.0976 38.134 23.137 37.0946C24.1765 36.0551 25.5862 35.4712 27.0562 35.4712H27.1837" stroke="#333333" stroke-width="1.5" stroke-miterlimit="10"/>
<path d="M30.0117 20.9437V12.3262" stroke="#333333" stroke-width="1.5" stroke-miterlimit="10"/>
<path d="M7.72848 9.78369V33.5287C7.72071 33.606 7.72071 33.6839 7.72848 33.7612V33.7612C7.72848 34.3579 7.96554 34.9302 8.38749 35.3522C8.80945 35.7741 9.38175 36.0112 9.97848 36.0112H24.566" stroke="#333333" stroke-width="1.5" stroke-miterlimit="10"/>
<path d="M14.6367 16.7061H23.7492" stroke="#333333" stroke-width="1.5" stroke-miterlimit="10"/>
<path d="M12.5508 19.5264H25.9308" stroke="#333333" stroke-width="1.5" stroke-miterlimit="10"/>
<path d="M29.2992 9.78383C29.2516 8.92022 29.4801 8.06386 29.9517 7.33883C30.0792 7.18133 29.9517 6.98633 29.6967 6.98633H10.6242C9.01922 6.98633 7.69922 7.96133 7.69922 9.15383V10.4138C7.69922 11.6063 9.01922 12.5738 10.6242 12.5738H29.6967C29.9367 12.5738 30.0792 12.3863 29.9517 12.2288C29.4811 11.5034 29.2526 10.6473 29.2992 9.78383V9.78383Z" stroke="#333333" stroke-width="1.5" stroke-miterlimit="10"/>
<path d="M20.7041 22.4961H17.6816" stroke="#333333" stroke-width="1.5" stroke-miterlimit="10"/>
<path d="M35.5762 26.8765V31.249C35.5762 32.6414 35.023 33.9767 34.0385 34.9613C33.0539 35.9458 31.7186 36.499 30.3262 36.499C28.9338 36.499 27.5984 35.9458 26.6139 34.9613C25.6293 33.9767 25.0762 32.6414 25.0762 31.249V26.8765" stroke="#333333" stroke-width="1.5" stroke-miterlimit="10"/>
<path d="M25.0615 26.8763V24.2963C25.0615 23.4085 25.4137 22.5569 26.0408 21.9284C26.6679 21.2999 27.5187 20.9458 28.4065 20.9438H32.2165C33.1057 20.9438 33.9584 21.2971 34.5871 21.9258C35.2158 22.5545 35.569 23.4072 35.569 24.2963V26.8763H25.0615Z" stroke="#333333" stroke-width="1.5" stroke-miterlimit="10"/>
<path d="M32.5312 26.8765H40.3013" stroke="#333333" stroke-width="1.5" stroke-miterlimit="10"/>
<path d="M28.6611 32.1187V29.0962" stroke="#333333" stroke-width="1.5" stroke-miterlimit="10"/>
<path d="M31.9766 32.1187V29.0962" stroke="#333333" stroke-width="1.5" stroke-miterlimit="10"/>
</svg>
