<svg width="48" height="48" viewBox="0 0 48 48" fill="none" xmlns="http://www.w3.org/2000/svg">
<path d="M21.0899 38.6701C29.1919 38.6701 35.7599 32.1021 35.7599 24.0001C35.7599 15.8981 29.1919 9.33008 21.0899 9.33008C12.9879 9.33008 6.41992 15.8981 6.41992 24.0001C6.41992 32.1021 12.9879 38.6701 21.0899 38.6701Z" stroke="#333333" stroke-width="1.5" stroke-miterlimit="10"/>
<path d="M21.0898 9.33008H26.9098C30.8006 9.33008 34.5319 10.8757 37.2831 13.6268C40.0343 16.378 41.5798 20.1094 41.5798 24.0001C41.5798 27.8908 40.0343 31.6222 37.2831 34.3733C34.5319 37.1245 30.8006 38.6701 26.9098 38.6701H21.0898" stroke="#333333" stroke-width="1.5" stroke-miterlimit="10"/>
<path d="M25.6201 18.1801C24.8274 17.6365 23.8912 17.3406 22.9301 17.3301C19.8401 17.3301 17.3301 20.3301 17.3301 24.0001C17.3301 27.6701 19.8401 30.6701 22.9301 30.6701C23.8912 30.6595 24.8274 30.3637 25.6201 29.8201" stroke="#333333" stroke-width="1.5" stroke-miterlimit="10"/>
<path d="M14.2012 22.1099H23.5812" stroke="#333333" stroke-width="1.5" stroke-miterlimit="10"/>
<path d="M14.2012 25.8901H22.8512" stroke="#333333" stroke-width="1.5" stroke-miterlimit="10"/>
</svg>
