<svg width="48" height="48" viewBox="0 0 48 48" fill="none" xmlns="http://www.w3.org/2000/svg">
<path d="M29.1855 31.7071V39.2896H32.3655V30.4546" stroke="#333333" stroke-width="1.5" stroke-miterlimit="10"/>
<path d="M24.7157 31.5496C25.5597 31.7749 26.4296 31.8883 27.3032 31.8871C29.2175 31.9151 31.0926 31.3434 32.6657 30.2521L32.7407 30.2971C36.2057 32.1271 40.0607 31.6321 41.3432 29.2021C42.2282 27.5221 41.6582 25.3546 40.0832 23.5771C43.0232 22.3471 44.5832 19.2871 43.5557 16.6621C42.5282 14.0371 39.4307 12.8671 36.4757 13.8571C35.6266 12.352 34.3984 11.0954 32.9132 10.2121C28.8557 7.73714 23.9132 8.38964 21.9482 11.6671C21.2249 12.9017 20.9594 14.3514 21.1982 15.7621C18.9482 15.7621 16.9832 16.8196 16.2482 18.6346C16.1205 18.9496 16.0347 19.2799 15.9932 19.6171" stroke="#333333" stroke-width="1.5" stroke-miterlimit="10"/>
<path d="M24.7161 39.2897H7.14355V24.6797L15.9336 19.5947L24.7161 24.6797V39.2897Z" stroke="#333333" stroke-width="1.5" stroke-miterlimit="10"/>
<path d="M4.12793 26.4272L15.9329 19.5947" stroke="#333333" stroke-width="1.5" stroke-miterlimit="10"/>
<path d="M27.7311 26.4272L15.9336 19.5947" stroke="#333333" stroke-width="1.5" stroke-miterlimit="10"/>
<path d="M18.4459 32.0298H13.4209V39.2898H18.4459V32.0298Z" stroke="#333333" stroke-width="1.5" stroke-miterlimit="10"/>
<path d="M15.9334 28.7145C17.321 28.7145 18.4459 27.5896 18.4459 26.202C18.4459 24.8143 17.321 23.6895 15.9334 23.6895C14.5458 23.6895 13.4209 24.8143 13.4209 26.202C13.4209 27.5896 14.5458 28.7145 15.9334 28.7145Z" stroke="#333333" stroke-width="1.5" stroke-miterlimit="10"/>
<path d="M9.35547 23.4045V17.772H11.8755V21.942L9.35547 23.4045Z" stroke="#333333" stroke-width="1.5" stroke-miterlimit="10"/>
<path d="M15.9336 37.1295V34.1895" stroke="#333333" stroke-width="1.5" stroke-miterlimit="10"/>
</svg>
