<svg width="48" height="48" viewBox="0 0 48 48" fill="none" xmlns="http://www.w3.org/2000/svg">
<path d="M29.1865 31.7071V39.2896H32.3665V30.4546" stroke="#333333" stroke-width="1.5" stroke-miterlimit="10"/>
<path d="M15.9941 19.6171C16.0419 19.2803 16.13 18.9504 16.2566 18.6346C17.0066 16.8196 18.9491 15.7696 21.2066 15.7621C20.9678 14.3514 21.2334 12.9017 21.9566 11.6671C23.9516 8.38964 28.8641 7.73714 32.9216 10.2121C34.4069 11.0954 35.6351 12.352 36.4841 13.8571C39.4391 12.8671 42.5591 14.0821 43.5641 16.6621C44.5691 19.2421 43.0316 22.3471 40.0916 23.5771C41.6666 25.3546 42.2366 27.5221 41.3516 29.2021C40.0691 31.6321 36.2141 32.1271 32.7491 30.2971L32.6666 30.2521C31.0968 31.3442 29.2238 31.9161 27.3116 31.8871C26.4381 31.8883 25.5682 31.7749 24.7241 31.5496V24.6796L15.9941 19.6171Z" fill="#237C36" stroke="#237C36" stroke-width="1.5" stroke-miterlimit="10"/>
<path d="M24.717 39.2897H7.14453V24.6797L15.9345 19.5947L24.717 24.6797V39.2897Z" fill="white" stroke="#333333" stroke-width="1.5" stroke-miterlimit="10"/>
<path d="M4.12891 26.4272L15.9339 19.5947" stroke="#333333" stroke-width="1.5" stroke-miterlimit="10"/>
<path d="M27.7321 26.4272L15.9346 19.5947" stroke="#333333" stroke-width="1.5" stroke-miterlimit="10"/>
<path d="M18.4469 32.0298H13.4219V39.2898H18.4469V32.0298Z" fill="white" stroke="#333333" stroke-width="1.5" stroke-miterlimit="10"/>
<path d="M15.9344 28.7145C17.322 28.7145 18.4469 27.5896 18.4469 26.202C18.4469 24.8143 17.322 23.6895 15.9344 23.6895C14.5468 23.6895 13.4219 24.8143 13.4219 26.202C13.4219 27.5896 14.5468 28.7145 15.9344 28.7145Z" stroke="#333333" stroke-width="1.5" stroke-miterlimit="10"/>
<path d="M9.35645 23.4045V17.772H11.8764V21.942L9.35645 23.4045Z" stroke="#333333" stroke-width="1.5" stroke-miterlimit="10"/>
<path d="M15.9346 37.1295V34.1895" stroke="#333333" stroke-width="1.5" stroke-miterlimit="10"/>
</svg>
