<svg width="48" height="48" viewBox="0 0 48 48" fill="none" xmlns="http://www.w3.org/2000/svg">
<path d="M21.0692 32.884C28.0391 32.884 33.6892 27.2339 33.6892 20.264C33.6892 13.2942 28.0391 7.64404 21.0692 7.64404C14.0994 7.64404 8.44922 13.2942 8.44922 20.264C8.44922 27.2339 14.0994 32.884 21.0692 32.884Z" stroke="#333333" stroke-width="1.5" stroke-miterlimit="10"/>
<path d="M30.7392 28.2144L38.8592 36.3244C39.3021 36.7673 39.5509 37.368 39.5509 37.9944C39.5509 38.6207 39.3021 39.2214 38.8592 39.6644C38.4163 40.1073 37.8156 40.3561 37.1892 40.3561C36.5628 40.3561 35.9621 40.1073 35.5192 39.6644L27.4092 31.5444" stroke="#333333" stroke-width="1.5" stroke-miterlimit="10"/>
<path d="M27.9697 20.2545C26.0597 22.1645 23.5697 24.2045 21.0697 24.2045C18.5697 24.2045 16.0697 22.2045 14.1797 20.2545C16.0797 18.3545 18.5797 16.3145 21.0697 16.3145C23.5597 16.3145 26.1097 18.3545 27.9697 20.2545Z" stroke="#333333" stroke-width="1.5" stroke-miterlimit="10"/>
<path d="M21.07 21.0843C21.5229 21.0843 21.89 20.7172 21.89 20.2643C21.89 19.8115 21.5229 19.4443 21.07 19.4443C20.6171 19.4443 20.25 19.8115 20.25 20.2643C20.25 20.7172 20.6171 21.0843 21.07 21.0843Z" stroke="#333333" stroke-width="1.5" stroke-miterlimit="10"/>
</svg>
