<svg width="48" height="48" viewBox="0 0 48 48" fill="none" xmlns="http://www.w3.org/2000/svg">
<path d="M32.9549 21.9638C32.9569 20.5165 32.608 19.0903 31.9383 17.8073C31.2685 16.5244 30.2977 15.4228 29.1091 14.5971C27.9205 13.7714 26.5495 13.246 25.1134 13.0661C23.6774 12.8861 22.2191 13.0569 20.8635 13.5638C19.5079 14.0707 18.2954 14.8986 17.3297 15.9766C16.3641 17.0546 15.6741 18.3506 15.3188 19.7536C14.9636 21.1567 14.9537 22.6249 15.2901 24.0325C15.6264 25.4402 16.2989 26.7453 17.2499 27.8363C19.2286 30.0558 20.3346 32.9179 20.3624 35.8913V36.2138H27.6374V35.8913C27.6747 32.895 28.7934 30.013 30.7874 27.7763C32.1823 26.1606 32.9513 24.0982 32.9549 21.9638V21.9638Z" stroke="#333333" stroke-width="1.5" stroke-miterlimit="10"/>
<path d="M27.6383 36.2134H20.3633V38.9134H27.6383V36.2134Z" stroke="#333333" stroke-width="1.5" stroke-miterlimit="10"/>
<path d="M20.3633 38.9136H27.6383C27.6383 39.2681 27.5684 39.6192 27.4328 39.9468C27.2971 40.2744 27.0982 40.572 26.8475 40.8228C26.5968 41.0735 26.2991 41.2724 25.9715 41.4081C25.6439 41.5437 25.2929 41.6136 24.9383 41.6136H23.0633C22.3472 41.6136 21.6604 41.3291 21.1541 40.8228C20.6477 40.3164 20.3633 39.6297 20.3633 38.9136V38.9136Z" stroke="#333333" stroke-width="1.5" stroke-miterlimit="10"/>
<path d="M26.752 17.0884C27.4913 17.0904 28.1998 17.3849 28.7226 17.9077C29.2454 18.4305 29.54 19.139 29.542 19.8784" stroke="#333333" stroke-width="1.5" stroke-miterlimit="10"/>
<path d="M25.372 27.7388H22.627V36.2138H25.372V27.7388Z" stroke="#333333" stroke-width="1.5" stroke-miterlimit="10"/>
<path d="M22.627 24.6108V27.7758" stroke="#333333" stroke-width="1.5" stroke-miterlimit="10"/>
<path d="M25.373 24.6108V27.7758" stroke="#333333" stroke-width="1.5" stroke-miterlimit="10"/>
<path d="M24 9.27324V6.38574" stroke="#333333" stroke-width="1.5" stroke-miterlimit="10"/>
<path d="M33.0371 12.7234L35.0696 10.6909" stroke="#333333" stroke-width="1.5" stroke-miterlimit="10"/>
<path d="M14.9622 12.7234L12.9297 10.6909" stroke="#333333" stroke-width="1.5" stroke-miterlimit="10"/>
<path d="M11.505 21.7607H8.625" stroke="#333333" stroke-width="1.5" stroke-miterlimit="10"/>
<path d="M36.4951 21.7607H39.3751" stroke="#333333" stroke-width="1.5" stroke-miterlimit="10"/>
<path d="M14.9622 30.7983L12.9297 32.8308" stroke="#333333" stroke-width="1.5" stroke-miterlimit="10"/>
<path d="M33.0371 30.7983L35.0696 32.8308" stroke="#333333" stroke-width="1.5" stroke-miterlimit="10"/>
</svg>
