<svg width="48" height="48" viewBox="0 0 48 48" fill="none" xmlns="http://www.w3.org/2000/svg">
<path d="M22.1742 40.0749C27.4982 40.0749 31.8142 35.7589 31.8142 30.4349C31.8142 25.1109 27.4982 20.7949 22.1742 20.7949C16.8502 20.7949 12.5342 25.1109 12.5342 30.4349C12.5342 35.7589 16.8502 40.0749 22.1742 40.0749Z" stroke="#333333" stroke-width="1.5" stroke-miterlimit="10"/>
<path d="M22.1748 20.7949H27.1748C29.7315 20.7949 32.1835 21.8106 33.9913 23.6184C35.7992 25.4263 36.8148 27.8782 36.8148 30.4349C36.8148 32.9916 35.7992 35.4436 33.9913 37.2514C32.1835 39.0593 29.7315 40.0749 27.1748 40.0749H22.1748" stroke="#333333" stroke-width="1.5" stroke-miterlimit="10"/>
<path d="M18.6551 21.4548L9.95508 7.9248H18.2551L26.5351 20.7848" stroke="#333333" stroke-width="1.5" stroke-miterlimit="10"/>
<path d="M29.4649 21.3948L38.0449 7.9248H29.7449L24.0049 16.8548" stroke="#333333" stroke-width="1.5" stroke-miterlimit="10"/>
<path d="M19.5244 30.0546L21.7544 27.8146C21.8109 27.7592 21.8826 27.7218 21.9604 27.7071C22.0382 27.6925 22.1186 27.7012 22.1914 27.7323C22.2642 27.7633 22.3261 27.8153 22.3694 27.8815C22.4126 27.9478 22.4353 28.0254 22.4344 28.1046V33.6646" stroke="#333333" stroke-width="1.5" stroke-miterlimit="10"/>
</svg>
