<svg width="48" height="48" viewBox="0 0 48 48" fill="none" xmlns="http://www.w3.org/2000/svg">
<path d="M24.7664 28.7903L13.8764 25.2603C13.2422 25.0839 12.5718 25.0838 11.9375 25.26C11.3031 25.4362 10.7289 25.7821 10.2764 26.2603L6.85645 29.7603V41.6603L13.5064 39.5003C14.4017 39.1077 15.386 38.9627 16.3564 39.0803L23.9964 40.0003C25.2694 40.1466 26.5527 39.8346 27.6164 39.1203L40.0664 30.7603C40.5924 30.4094 40.9601 29.8666 41.091 29.248C41.2218 28.6294 41.1053 27.9842 40.7664 27.4503V27.4503C40.5946 27.1795 40.3709 26.9453 40.1082 26.7613C39.8454 26.5774 39.5489 26.4472 39.2356 26.3784C38.9223 26.3096 38.5985 26.3035 38.2828 26.3605C37.9672 26.4175 37.6659 26.5364 37.3964 26.7103L27.6164 33.0303" stroke="#333333" stroke-width="1.5" stroke-miterlimit="10"/>
<path d="M16.1963 31.2603L24.9463 33.9403C25.5536 34.1198 26.207 34.0551 26.7674 33.76C27.3277 33.4649 27.7507 32.9627 27.9463 32.3603C28.1348 31.749 28.0747 31.0879 27.7789 30.5207C27.4831 29.9534 26.9755 29.5257 26.3663 29.3303L24.7763 28.8203" stroke="#333333" stroke-width="1.5" stroke-miterlimit="10"/>
<path d="M20.8262 15.9404C22.6762 18.9904 23.9562 23.1304 24.2062 28.7904" stroke="#333333" stroke-width="1.5" stroke-miterlimit="10"/>
<path d="M27.2364 21.1504C25.5099 23.3228 24.5032 25.9793 24.3564 28.7504" stroke="#333333" stroke-width="1.5" stroke-miterlimit="10"/>
<path d="M20.6964 16.1098C18.4164 18.1098 14.8364 16.1998 13.2364 13.3398C11.9064 10.9498 12.0764 6.33984 12.0764 6.33984C12.0764 6.33984 17.1364 6.99984 19.4864 8.66984C22.2864 10.6998 22.9864 14.0898 20.6964 16.1098Z" stroke="#333333" stroke-width="1.5" stroke-miterlimit="10"/>
<path d="M27.0469 20.3803C25.5569 18.2203 27.5769 15.3803 30.1869 14.3003C32.3569 13.4103 36.2469 14.0203 36.2469 14.0203C36.2469 14.0203 35.1569 18.2703 33.4969 20.1103C31.4969 22.3303 28.5369 22.5403 27.0469 20.3803Z" stroke="#333333" stroke-width="1.5" stroke-miterlimit="10"/>
</svg>
