<svg width="48" height="48" viewBox="0 0 48 48" fill="none" xmlns="http://www.w3.org/2000/svg">
<path d="M29.0843 14.6719C28.0555 14.6976 27.0774 15.1245 26.3589 15.8614C25.6405 16.5983 25.2385 17.5868 25.2388 18.616C25.2391 17.5868 24.8371 16.5983 24.1187 15.8614C23.4002 15.1245 22.4221 14.6976 21.3933 14.6719C20.8664 14.6727 20.3449 14.7776 19.8587 14.9804C19.3725 15.1832 18.9311 15.48 18.5598 15.8537C18.1885 16.2275 17.8946 16.6708 17.695 17.1584C17.4954 17.6459 17.3939 18.1681 17.3965 18.6949V18.5766C17.3965 21.1468 18.4812 22.0014 20.3744 23.7368L25.2388 28.2069L30.1032 23.7368C32.003 22.0014 33.0811 21.1468 33.0811 18.5766V18.6949C33.0837 18.1681 32.9823 17.6459 32.7826 17.1584C32.583 16.6708 32.2891 16.2275 31.9178 15.8537C31.5465 15.48 31.1051 15.1832 30.6189 14.9804C30.1327 14.7776 29.6112 14.6727 29.0843 14.6719Z" fill="white" stroke="#333333" stroke-width="1.5" stroke-miterlimit="10"/>
<path d="M23.5039 30.1923L15.1883 27.5103C14.7044 27.381 14.1944 27.3855 13.7128 27.5232C13.2312 27.661 12.7961 27.9269 12.4537 28.2925L9.85059 30.9548V40.0001L14.9122 38.3567C15.5952 38.0551 16.3465 37.9416 17.0881 38.028L22.8991 38.738C23.8832 38.8609 24.8789 38.6277 25.706 38.0806L35.1917 31.7174C35.5922 31.4493 35.8721 31.0352 35.9716 30.5636C36.0711 30.092 35.9823 29.6002 35.7242 29.1931V29.1931C35.5938 28.9867 35.4238 28.8082 35.224 28.6679C35.0242 28.5276 34.7986 28.4283 34.5602 28.3758C34.3218 28.3232 34.0754 28.3184 33.8351 28.3617C33.5949 28.4049 33.3656 28.4954 33.1605 28.6278L25.706 33.4265" fill="#F1B830"/>
<path d="M16.9766 32.0793L23.6422 34.1171C24.1033 34.2544 24.5998 34.2071 25.0267 33.9851C25.4536 33.763 25.7775 33.3837 25.9298 32.9273V32.9273C26.0053 32.6951 26.034 32.4503 26.0143 32.2069C25.9946 31.9636 25.9269 31.7265 25.815 31.5095C25.7032 31.2925 25.5494 31.0998 25.3626 30.9426C25.1758 30.7854 24.9597 30.6668 24.7268 30.5936L23.5107 30.1992" fill="#F1B830"/>
<path d="M16.9766 32.0791L23.6422 34.1169C24.1033 34.2543 24.5998 34.2069 25.0267 33.9849C25.4536 33.7629 25.7775 33.3835 25.9298 32.9271V32.9271" stroke="#333333" stroke-width="1.5" stroke-miterlimit="10"/>
<path d="M29.9658 17.1504C30.4363 17.6213 30.7006 18.2596 30.7006 18.9253C30.7006 19.5909 30.4363 20.2293 29.9658 20.7001" stroke="#333333" stroke-width="1.5" stroke-miterlimit="10"/>
<path d="M24.9824 10.5834V8" stroke="#333333" stroke-width="1.5" stroke-miterlimit="10"/>
<path d="M24.9824 10.5834V8" stroke="#333333" stroke-width="1.5" stroke-miterlimit="10"/>
<path d="M32.4707 13.6859L34.2982 11.8584" stroke="#333333" stroke-width="1.5" stroke-miterlimit="10"/>
<path d="M32.4707 13.6859L34.2982 11.8584" stroke="#333333" stroke-width="1.5" stroke-miterlimit="10"/>
<path d="M17.5023 13.6859L15.6748 11.8584" stroke="#333333" stroke-width="1.5" stroke-miterlimit="10"/>
<path d="M17.5023 13.6859L15.6748 11.8584" stroke="#333333" stroke-width="1.5" stroke-miterlimit="10"/>
<path d="M14.3988 21.167H11.8154" stroke="#333333" stroke-width="1.5" stroke-miterlimit="10"/>
<path d="M14.3988 21.167H11.8154" stroke="#333333" stroke-width="1.5" stroke-miterlimit="10"/>
<path d="M35.5664 21.167H38.1498" stroke="#333333" stroke-width="1.5" stroke-miterlimit="10"/>
</svg>
