<svg width="48" height="48" viewBox="0 0 48 48" fill="none" xmlns="http://www.w3.org/2000/svg">
<path d="M22.4288 33.8887H22.5713C24.0433 33.8887 25.4549 34.4734 26.4958 35.5142C27.5366 36.5551 28.1213 37.9667 28.1213 39.4387V40.2412H7.92383V39.4387C7.92383 37.9667 8.50856 36.5551 9.54939 35.5142C10.5902 34.4734 12.0019 33.8887 13.4738 33.8887H13.6163" stroke="#333333" stroke-width="1.5" stroke-miterlimit="10"/>
<path d="M24.0257 25.8413C24.4224 25.9734 24.8375 26.0418 25.2557 26.0438H29.5682C29.6402 26.7981 29.5054 27.5578 29.1782 28.2413C28.993 28.64 28.7391 29.003 28.4282 29.3138C28.1355 29.5996 27.7651 29.7927 27.3632 29.8688C27.2158 29.9198 27.088 30.0155 26.9975 30.1425C26.9071 30.2695 26.8585 30.4216 26.8585 30.5775C26.8585 30.7335 26.9071 30.8856 26.9975 31.0126C27.088 31.1396 27.2158 31.2353 27.3632 31.2863C27.5255 31.2977 27.6884 31.2977 27.8507 31.2863C28.4309 31.2806 29.0024 31.1448 29.5232 30.8888C30.1663 30.5751 30.746 30.1454 31.2332 29.6213C32.1886 28.6207 32.8345 27.3654 33.0932 26.0063H36.2432C37.2584 26.0023 38.2309 25.5973 38.9488 24.8794C39.6667 24.1615 40.0717 23.189 40.0757 22.1738V11.5838C40.0717 10.5693 39.6664 9.59752 38.9483 8.88083C38.2302 8.16415 37.2577 7.76076 36.2432 7.75879H25.2557C24.2418 7.76077 23.2701 8.1644 22.5532 8.88129C21.8363 9.59819 21.4326 10.5699 21.4307 11.5838V16.6763" stroke="#333333" stroke-width="1.5" stroke-miterlimit="10"/>
<path d="M23.928 21.8735C23.9757 22.0827 24.0009 22.2965 24.003 22.511V29.771C24.003 31.3623 23.3709 32.8885 22.2457 34.0137C21.1204 35.1389 19.5943 35.771 18.003 35.771C16.4117 35.771 14.8856 35.1389 13.7604 34.0137C12.6352 32.8885 12.003 31.3623 12.003 29.771V22.511C12.0015 22.3222 12.0191 22.1338 12.0555 21.9485" stroke="#333333" stroke-width="1.5" stroke-miterlimit="10"/>
<path d="M16.1143 28.6237V25.1587" stroke="#333333" stroke-width="1.5" stroke-miterlimit="10"/>
<path d="M19.9082 28.6237V25.1587" stroke="#333333" stroke-width="1.5" stroke-miterlimit="10"/>
<path d="M30.7158 22.0311V19.2861" stroke="#333333" stroke-width="1.5" stroke-miterlimit="10"/>
<path d="M30.7158 17.4783V11.5908" stroke="#333333" stroke-width="1.5" stroke-miterlimit="10"/>
<path d="M15.5063 15.3034C16.3331 15.2633 17.1573 15.423 17.9093 15.769C18.6613 16.115 19.3188 16.637 19.8263 17.2909C20.4437 16.865 21.1763 16.6374 21.9263 16.6384C22.7634 16.6126 23.5783 16.9097 24.2024 17.4682C24.8264 18.0266 25.2118 18.8036 25.2788 19.6384V19.6384C25.2788 21.1384 23.8538 22.3609 22.0913 22.3609H13.9238C12.1613 22.3609 10.7363 21.1384 10.7363 19.6384C10.7363 17.3659 12.8213 15.3709 15.5063 15.3034Z" stroke="#333333" stroke-width="1.5" stroke-miterlimit="10"/>
</svg>
