<svg width="48" height="48" viewBox="0 0 48 48" fill="none" xmlns="http://www.w3.org/2000/svg">
<path d="M23.4238 7.67236V14.0849H29.8363" stroke="#333333" stroke-width="1.5" stroke-miterlimit="10"/>
<path d="M29.835 25.6649V14.0849L23.4225 7.67236H12.915V32.8424H23.7825" stroke="#333333" stroke-width="1.5" stroke-miterlimit="10"/>
<path d="M12.9152 11.4678H9.47266V36.6303H24.9077" stroke="#333333" stroke-width="1.5" stroke-miterlimit="10"/>
<path d="M18.218 11.4746H15.083" stroke="#333333" stroke-width="1.5" stroke-miterlimit="10"/>
<path d="M18.218 28.7627H15.083" stroke="#333333" stroke-width="1.5" stroke-miterlimit="10"/>
<path d="M26.6255 18.2476H15.083" stroke="#333333" stroke-width="1.5" stroke-miterlimit="10"/>
<path d="M25.1705 20.9697H15.083" stroke="#333333" stroke-width="1.5" stroke-miterlimit="10"/>
<path d="M33.5703 29.5499C33.1061 29.2312 32.5582 29.0565 31.9953 29.0474C30.1878 29.0474 28.7178 30.7949 28.7178 32.9549C28.7178 35.1149 30.2178 36.8624 31.9953 36.8624C32.5582 36.8533 33.1061 36.6785 33.5703 36.3599" stroke="#333333" stroke-width="1.5" stroke-miterlimit="10"/>
<path d="M26.8877 31.8525H32.3702" stroke="#333333" stroke-width="1.5" stroke-miterlimit="10"/>
<path d="M26.8877 34.0576H31.9427" stroke="#333333" stroke-width="1.5" stroke-miterlimit="10"/>
<path d="M31.1557 40.3275C35.2274 40.3275 38.5282 37.0267 38.5282 32.955C38.5282 28.8833 35.2274 25.5825 31.1557 25.5825C27.084 25.5825 23.7832 28.8833 23.7832 32.955C23.7832 37.0267 27.084 40.3275 31.1557 40.3275Z" stroke="#333333" stroke-width="1.5" stroke-miterlimit="10"/>
</svg>
