<svg width="48" height="48" viewBox="0 0 48 48" fill="none" xmlns="http://www.w3.org/2000/svg">
<path d="M33.4248 36.7999H14.5648C13.7166 36.838 12.8878 36.5384 12.26 35.9667C11.6321 35.3951 11.2563 34.598 11.2148 33.7499L13.1348 14.4899C13.25 13.7084 13.6493 12.9968 14.2563 12.4913C14.8633 11.9858 15.6354 11.7218 16.4248 11.7499H31.5648C32.3548 11.7196 33.1281 11.9827 33.7356 12.4886C34.3431 12.9946 34.7418 13.7075 34.8548 14.4899L36.7848 33.7499C36.7434 34.5998 36.3662 35.3985 35.7362 35.9704C35.1061 36.5423 34.2748 36.8407 33.4248 36.7999Z" stroke="#333333" stroke-width="1.5" stroke-miterlimit="10"/>
<path d="M13.8945 40.7798L17.6645 36.7998" stroke="#333333" stroke-width="1.5" stroke-miterlimit="10"/>
<path d="M34.0542 40.7798L30.2842 36.7998" stroke="#333333" stroke-width="1.5" stroke-miterlimit="10"/>
<path d="M12.0049 25.3999H35.9349" stroke="#333333" stroke-width="1.5" stroke-miterlimit="10"/>
<path d="M12.9141 16.3398H35.0341" stroke="#333333" stroke-width="1.5" stroke-miterlimit="10"/>
<path d="M14.7744 29.6001L19.8744 30.6801" stroke="#333333" stroke-width="1.5" stroke-miterlimit="10"/>
<path d="M33.1742 29.6001L28.0742 30.6801" stroke="#333333" stroke-width="1.5" stroke-miterlimit="10"/>
<path d="M22.4844 11.7499L27.4244 7.43994" stroke="#333333" stroke-width="1.5" stroke-miterlimit="10"/>
<path d="M36.7749 7.21973H12.0049" stroke="#333333" stroke-width="1.5" stroke-miterlimit="10"/>
</svg>
