<svg width="14" height="9" viewBox="0 0 14 9" fill="none" xmlns="http://www.w3.org/2000/svg">
<path d="M0.690392 4.21188C0.49513 4.40714 0.49513 4.72372 0.690392 4.91898L3.87237 8.10096C4.06763 8.29623 4.38422 8.29623 4.57948 8.10096C4.77474 7.9057 4.77474 7.58912 4.57948 7.39386L1.75105 4.56543L4.57948 1.737C4.77474 1.54174 4.77474 1.22516 4.57948 1.0299C4.38422 0.834634 4.06763 0.834634 3.87237 1.0299L0.690392 4.21188ZM13.3075 4.91898C13.5028 4.72372 13.5028 4.40714 13.3075 4.21188L10.1255 1.0299C9.93026 0.834634 9.61367 0.834634 9.41841 1.0299C9.22315 1.22516 9.22315 1.54174 9.41841 1.737L12.2468 4.56543L9.41841 7.39386C9.22315 7.58912 9.22315 7.9057 9.41841 8.10096C9.61367 8.29623 9.93026 8.29623 10.1255 8.10096L13.3075 4.91898ZM1.04395 5.06543H12.9539V4.06543H1.04395V5.06543Z" 
fill="currentColor"/>
</svg>

