<svg width="24" height="9" viewBox="0 0 24 9" fill="none" xmlns="http://www.w3.org/2000/svg">
<path d="M0.690392 4.21188C0.49513 4.40714 0.49513 4.72372 0.690392 4.91898L3.87237 8.10096C4.06763 8.29623 4.38422 8.29623 4.57948 8.10096C4.77474 7.9057 4.77474 7.58912 4.57948 7.39386L1.75105 4.56543L4.57948 1.737C4.77474 1.54174 4.77474 1.22516 4.57948 1.0299C4.38422 0.834634 4.06763 0.834634 3.87237 1.0299L0.690392 4.21188ZM23.3105 4.91898C23.5058 4.72372 23.5058 4.40714 23.3105 4.21188L20.1286 1.0299C19.9333 0.834634 19.6167 0.834634 19.4215 1.0299C19.2262 1.22516 19.2262 1.54174 19.4215 1.737L22.2499 4.56543L19.4215 7.39386C19.2262 7.58912 19.2262 7.9057 19.4215 8.10096C19.6167 8.29623 19.9333 8.29623 20.1286 8.10096L23.3105 4.91898ZM1.04395 5.06543H22.957V4.06543H1.04395V5.06543Z" 
fill="currentColor"/>
</svg>

