<svg width="19" height="32" viewBox="0 0 19 32" fill="none" xmlns="http://www.w3.org/2000/svg">
<path d="M16.0407 15.5066V2.72929C16.0407 1.32378 14.8908 0.173828 13.4853 0.173828H5.81892C4.41342 0.173828 3.26346 1.32378 3.26346 2.72929V15.5066C1.85796 15.5066 0.708008 16.6565 0.708008 18.062V19.9786C0.708008 20.3619 0.963553 20.6175 1.34687 20.6175H1.98574V30.8393C1.98574 31.2226 2.24128 31.4782 2.6246 31.4782C3.00792 31.4782 3.26346 31.2226 3.26346 30.8393V20.6175H16.0407V30.8393C16.0407 31.2226 16.2963 31.4782 16.6796 31.4782C17.0629 31.4782 17.3185 31.2226 17.3185 30.8393V20.6175H17.9573C18.3407 20.6175 18.5962 20.3619 18.5962 19.9786V18.062C18.5962 16.6565 17.4463 15.5066 16.0407 15.5066ZM4.54119 2.72929C4.54119 2.02653 5.11617 1.45156 5.81892 1.45156H13.4853C14.188 1.45156 14.763 2.02653 14.763 2.72929V15.5066H4.54119V2.72929ZM17.3185 19.3398H1.98574V18.062C1.98574 17.3593 2.56071 16.7843 3.26346 16.7843H16.0407C16.7435 16.7843 17.3185 17.3593 17.3185 18.062V19.3398Z" 
fill="currentColor"/>
</svg>

