<svg width="65" height="64" viewBox="0 0 65 64" fill="none" xmlns="http://www.w3.org/2000/svg">
<path d="M39.2215 16.2202C37.6563 16.2594 36.1685 16.9087 35.0755 18.0297C33.9825 19.1507 33.371 20.6546 33.3715 22.2202C33.372 20.6546 32.7605 19.1507 31.6675 18.0297C30.5745 16.9087 29.0866 16.2594 27.5215 16.2202C26.72 16.2215 25.9267 16.381 25.1871 16.6895C24.4474 16.998 23.7759 17.4495 23.211 18.0181C22.6462 18.5866 22.1991 19.2611 21.8955 20.0028C21.5918 20.7445 21.4375 21.5388 21.4415 22.3402V22.1602C21.4415 26.0802 23.0815 27.3702 25.9615 30.0202L33.3715 36.8102L40.7715 30.0002C43.6515 27.3502 45.2915 26.0602 45.2915 22.1402V22.3202C45.2941 20.7068 44.6564 19.1582 43.5184 18.0145C42.3803 16.8708 40.8349 16.2255 39.2215 16.2202V16.2202Z" stroke="#333333" stroke-width="1.5" stroke-miterlimit="10"/>
<path d="M30.7114 39.8399L18.0614 35.7599C17.3252 35.5632 16.5495 35.57 15.8168 35.7795C15.0842 35.9891 14.4222 36.3936 13.9014 36.9499L9.94141 40.9999V54.7599L17.6414 52.2599C18.6804 51.8011 19.8232 51.6284 20.9514 51.7599L29.7914 52.8399C31.2885 53.0269 32.8031 52.6722 34.0614 51.8399L48.4914 42.1599C49.1007 41.752 49.5265 41.1221 49.6778 40.4047C49.8292 39.6873 49.6941 38.9391 49.3014 38.3199V38.3199C49.1031 38.0059 48.8445 37.7343 48.5406 37.5209C48.2366 37.3075 47.8934 37.1564 47.5308 37.0764C47.1681 36.9965 46.7932 36.9892 46.4277 37.055C46.0622 37.1208 45.7134 37.2584 45.4014 37.4599L34.0614 44.7599" stroke="#333333" stroke-width="1.5" stroke-miterlimit="10"/>
<path d="M20.7812 42.7101L30.9213 45.8101C31.6228 46.0191 32.3781 45.947 33.0275 45.6093C33.6769 45.2715 34.1695 44.6945 34.4013 44.0001V44.0001C34.5161 43.6469 34.5599 43.2745 34.5299 42.9043C34.4999 42.5341 34.3969 42.1735 34.2267 41.8434C34.0566 41.5133 33.8226 41.2202 33.5385 40.981C33.2543 40.7419 32.9256 40.5614 32.5712 40.4501L30.7213 39.8501" stroke="#333333" stroke-width="1.5" stroke-miterlimit="10"/>
<path d="M32.9609 10.0101V6.08008" stroke="#333333" stroke-width="1.5" stroke-miterlimit="10"/>
<path d="M32.9609 10.0101V6.08008" stroke="#333333" stroke-width="1.5" stroke-miterlimit="10"/>
<path d="M44.3516 14.7302L47.1316 11.9502" stroke="#333333" stroke-width="1.5" stroke-miterlimit="10"/>
<path d="M44.3516 14.7302L47.1316 11.9502" stroke="#333333" stroke-width="1.5" stroke-miterlimit="10"/>
<path d="M21.5808 14.7302L18.8008 11.9502" stroke="#333333" stroke-width="1.5" stroke-miterlimit="10"/>
<path d="M21.5808 14.7302L18.8008 11.9502" stroke="#333333" stroke-width="1.5" stroke-miterlimit="10"/>
<path d="M16.8636 26.1099H12.9336" stroke="#333333" stroke-width="1.5" stroke-miterlimit="10"/>
<path d="M16.8636 26.1099H12.9336" stroke="#333333" stroke-width="1.5" stroke-miterlimit="10"/>
<path d="M49.0625 26.1099H52.9925" stroke="#333333" stroke-width="1.5" stroke-miterlimit="10"/>
<path d="M40.5508 20C41.2665 20.7163 41.6685 21.6874 41.6685 22.7C41.6685 23.7126 41.2665 24.6837 40.5508 25.4" stroke="#333333" stroke-width="1.5" stroke-miterlimit="10"/>
</svg>
