<svg width="65" height="64" viewBox="0 0 65 64" fill="none" xmlns="http://www.w3.org/2000/svg">
<path d="M51.0036 50.3198H17.4336V54.2698H51.0036V50.3198Z" stroke="#333333" stroke-width="1.5" stroke-miterlimit="10"/>
<path d="M37.3242 30.7602H51.4142V27.8102L37.8242 23.2402" stroke="#333333" stroke-width="1.5" stroke-miterlimit="10"/>
<path d="M47.0433 40.6998V30.7598H42.6533V39.3798H42.6433V46.5098L41.1133 50.3198H48.5733L47.0433 46.5098V40.6998Z" stroke="#333333" stroke-width="1.5" stroke-miterlimit="10"/>
<path d="M32.0144 38.72V39.38V46.51L30.4844 50.32H37.9444L36.4144 46.51V40.7V33.27" stroke="#333333" stroke-width="1.5" stroke-miterlimit="10"/>
<path d="M21.3816 41.0698V46.5098L19.8516 50.3198H27.3116L25.7816 46.5098V42.2598" stroke="#333333" stroke-width="1.5" stroke-miterlimit="10"/>
<path d="M24.8331 9.5298C29.2139 9.52601 33.5688 10.2007 37.7431 11.5298L37.8231 26.9398C37.8304 29.4195 37.2153 31.8613 36.0343 34.0417C34.8533 36.222 33.144 38.0712 31.0631 39.4198L27.8331 41.4898C26.9785 42.0291 25.9887 42.3153 24.9781 42.3153C23.9676 42.3153 22.9777 42.0291 22.1231 41.4898L18.8831 39.4298C16.7772 38.1065 15.0384 36.2741 13.8273 34.1017C12.6161 31.9294 11.9716 29.4869 11.9531 26.9998V11.5898C16.116 10.249 20.4597 9.55422 24.8331 9.5298V9.5298Z" stroke="#333333" stroke-width="1.5" stroke-miterlimit="10"/>
<path d="M20.2539 31.4502C21.5615 32.5332 23.2061 33.1258 24.9039 33.1258C26.6017 33.1258 28.2463 32.5332 29.5539 31.4502V31.4502" stroke="#333333" stroke-width="1.5" stroke-miterlimit="10"/>
<path d="M22.8119 22.5198C21.1019 20.2798 18.6319 20.2798 16.9219 22.5198" stroke="#333333" stroke-width="1.5" stroke-miterlimit="10"/>
<path d="M32.8822 22.5198C31.1722 20.2798 28.6922 20.2798 26.9922 22.5198" stroke="#333333" stroke-width="1.5" stroke-miterlimit="10"/>
</svg>
