<svg width="65" height="64" viewBox="0 0 65 64" fill="none" xmlns="http://www.w3.org/2000/svg">
<path d="M19.332 13.9502V28.1502" stroke="#333333" stroke-width="1.5" stroke-miterlimit="10"/>
<path d="M30.1914 28.1499V10.9199" stroke="#333333" stroke-width="1.5" stroke-miterlimit="10"/>
<path d="M41.0731 28.1502V13.9502L30.1931 10.9102L19.3131 13.9502L8.45312 10.9102V38.2902L14.7831 40.0602" stroke="#333333" stroke-width="1.5" stroke-miterlimit="10"/>
<path d="M41.8538 45.0601H27.3438" stroke="#333333" stroke-width="1.5" stroke-miterlimit="10"/>
<path d="M20.5425 45.0599H17.3125C16.7129 45.0469 16.1422 44.8002 15.7219 44.3724C15.3016 43.9446 15.065 43.3696 15.0625 42.7699V30.4399C15.0651 29.8334 15.3072 29.2524 15.7361 28.8235C16.165 28.3946 16.746 28.1525 17.3525 28.1499H51.8825C52.489 28.1525 53.07 28.3946 53.4989 28.8235C53.9278 29.2524 54.1699 29.8334 54.1725 30.4399V42.7699C54.1699 43.3764 53.9278 43.9574 53.4989 44.3863C53.07 44.8152 52.489 45.0573 51.8825 45.0599H48.6525" stroke="#333333" stroke-width="1.5" stroke-miterlimit="10"/>
<path d="M23.9436 41.6699C24.6158 41.6712 25.2729 41.8694 25.8336 42.2399C26.2537 42.5152 26.6067 42.8811 26.8666 43.3108C27.1266 43.7405 27.287 44.223 27.3359 44.7228C27.3848 45.2227 27.3211 45.7271 27.1494 46.199C26.9776 46.671 26.7023 47.0984 26.3436 47.4499C25.8709 47.9286 25.2643 48.2528 24.6036 48.3799C23.9332 48.5214 23.2355 48.4551 22.6036 48.1899C21.8801 47.8889 21.2831 47.3465 20.9144 46.655C20.5456 45.9635 20.4278 45.1656 20.5811 44.397C20.7343 43.6285 21.1491 42.9368 21.7549 42.4396C22.3606 41.9424 23.1199 41.6704 23.9036 41.6699H23.9436Z" stroke="#333333" stroke-width="1.5" stroke-miterlimit="10"/>
<path d="M45.2516 41.6699C45.9237 41.6712 46.5808 41.8694 47.1416 42.2399C47.7023 42.6086 48.1381 43.1386 48.3916 43.7599C48.6449 44.3804 48.7092 45.0618 48.5764 45.7187C48.4436 46.3756 48.1197 46.9786 47.6453 47.4519C47.1709 47.9253 46.5671 48.2479 45.91 48.3792C45.2528 48.5105 44.5715 48.4446 43.9516 48.1899C43.3287 47.9351 42.7961 47.5001 42.422 46.9407C42.0479 46.3813 41.8492 45.7229 41.8516 45.0499C41.8569 44.1517 42.2174 43.292 42.8545 42.6587C43.4915 42.0254 44.3533 41.6699 45.2516 41.6699V41.6699Z" stroke="#333333" stroke-width="1.5" stroke-miterlimit="10"/>
<path d="M15.0234 36.6001H54.1734" stroke="#333333" stroke-width="1.5" stroke-miterlimit="10"/>
<path d="M45.2617 28.1499V36.5999" stroke="#333333" stroke-width="1.5" stroke-miterlimit="10"/>
<path d="M34.6016 28.1499V36.5999" stroke="#333333" stroke-width="1.5" stroke-miterlimit="10"/>
<path d="M23.9336 28.1499V36.5999" stroke="#333333" stroke-width="1.5" stroke-miterlimit="10"/>
</svg>
