<svg width="16" height="16" viewBox="0 0 16 16" fill="none" xmlns="http://www.w3.org/2000/svg">
<path d="M8.11191 0.00074328C3.61288 -0.0600202 -0.0600231 3.61271 0.000743315 8.11152C0.0607405 12.4261 3.57404 15.9392 7.88884 15.9992C12.3886 16.0608 16.0608 12.388 15.9992 7.88923C15.94 3.57387 12.4267 0.0607376 8.11191 0.00074328ZM11.6541 4.89413L8.49112 12.0673C8.3069 12.47 7.69193 12.3365 7.69193 11.8919V8.46149C7.69193 8.42069 7.67572 8.38156 7.64687 8.35271C7.61802 8.32386 7.57889 8.30765 7.53809 8.30765H4.10825C3.66519 8.30765 3.53135 7.69733 3.93248 7.51273L11.1064 4.34649C11.183 4.31109 11.2687 4.30006 11.3518 4.31487C11.4349 4.32969 11.5115 4.36964 11.5712 4.42933C11.6309 4.48903 11.6709 4.5656 11.6857 4.64871C11.7005 4.73183 11.6894 4.81748 11.6541 4.89413Z" fill="currentColor"/>
</svg>
