<svg width="102" height="134" viewBox="0 0 102 134" fill="none" xmlns="http://www.w3.org/2000/svg">
<path d="M91.5861 96.7526L76.2154 91.1635C76.2706 90.4382 76.0259 89.7006 75.4968 89.1448L70.5851 83.9846V75.3221C71.1044 74.8942 71.6162 74.4547 72.1123 73.99C78.3086 68.1822 81.8622 59.9823 81.8622 51.4932V44.5751C83.7332 40.5037 84.6814 36.1953 84.6814 31.7582V3.56641C84.6814 2.11023 83.5008 0.929688 82.0446 0.929688H42.575C28.6848 0.929688 17.3845 12.2303 17.3845 26.1202V31.7589C17.3845 36.196 18.3327 40.5044 20.2037 44.5758V50.5281C20.2037 60.3845 24.5863 69.2643 31.4808 75.1185V83.9849L26.5691 89.1451C26.04 89.701 25.7953 90.4385 25.8505 91.1638L9.62767 97.0627C6.88919 98.0585 3.93656 100.173 2.58938 102.777C1.23656 104.942 0.46875 107.48 0.46875 110.139V130.433C0.46875 131.889 1.6493 133.07 3.10547 133.07C4.56164 133.07 5.74219 131.889 5.74219 130.433V110.139C5.74219 106.519 8.02769 103.256 11.4298 102.019L28.534 95.7995L35.6542 106.48C36.5644 107.846 38.023 108.722 39.656 108.883C39.8381 108.901 40.0192 108.91 40.1999 108.91C41.6406 108.91 43.0205 108.343 44.052 107.312L48.3959 102.968V130.433C48.3959 131.89 49.5764 133.07 51.0326 133.07C52.4888 133.07 53.6693 131.89 53.6693 130.433V102.968L58.0132 107.312C59.0443 108.343 60.4242 108.91 61.8653 108.91C62.0457 108.91 62.2271 108.902 62.4088 108.884C64.0422 108.722 65.5008 107.846 66.411 106.481L73.5316 95.8002L90.6354 102.02C94.0372 103.257 96.323 106.52 96.323 110.14V130.434C96.323 131.89 97.5035 133.07 98.9597 133.07C100.416 133.07 101.596 131.89 101.596 130.434V110.14C101.596 106.474 100.14 103.035 97.6966 100.493C95.8022 98.521 94.1332 97.6915 91.5861 96.7526ZM25.4771 50.5278V43.9859C25.4771 43.589 25.3875 43.197 25.2149 42.8394C23.5182 39.3259 22.658 35.598 22.658 31.7589V26.1205C22.658 15.1381 31.5929 6.20347 42.575 6.20347H79.4079V31.7593C79.4079 35.5983 78.5476 39.3263 76.851 42.8398C76.6784 43.1973 76.5887 43.5893 76.5887 43.9862V51.4939C76.5887 58.6344 73.7182 65.2575 68.506 70.1432C67.8552 70.7528 67.1799 71.3244 66.4817 71.8571C66.4662 71.8676 66.4514 71.8792 66.4363 71.8901C61.5535 75.5973 55.5727 77.3991 49.3268 76.9944C35.953 76.1285 25.4771 64.5031 25.4771 50.5278ZM40.3233 103.582C40.305 103.601 40.2625 103.644 40.1763 103.635C40.0905 103.626 40.0568 103.576 40.0424 103.554L31.8422 91.2538L34.481 88.481L46.921 96.9843L40.3233 103.582ZM51.0329 93.4071L36.7542 83.6471V78.7252C40.4488 80.7224 44.5856 81.9715 48.9854 82.2563C49.6805 82.3013 50.3713 82.3234 51.06 82.3234C56.1018 82.3234 60.954 81.1183 65.3117 78.8306V83.6471L51.0329 93.4071ZM62.0235 103.555C62.0091 103.577 61.9753 103.627 61.8896 103.635C61.8034 103.646 61.7612 103.601 61.7426 103.583L55.1448 96.9853L67.5849 88.4817L70.2241 91.2545L62.0235 103.555Z" fill="black"/>
</svg>
