<svg width="20" height="22" viewBox="0 0 20 22" fill="none" xmlns="http://www.w3.org/2000/svg">
<path d="M8.96094 9.23838V6.82324" stroke="black" stroke-width="0.75" stroke-miterlimit="10"/>
<path d="M10.6973 13.1172V20.9999H8.96094V13.1172" stroke="black" stroke-width="0.75" stroke-miterlimit="10"/>
<path d="M10.6992 6.82324V9.23838" stroke="black" stroke-width="0.75" stroke-miterlimit="10"/>
<path d="M8.96094 2.96264V1.86821C8.96094 1.7542 8.98339 1.64131 9.02702 1.53598C9.07065 1.43065 9.1346 1.33494 9.21522 1.25433C9.29583 1.17371 9.39154 1.10976 9.49687 1.06613C9.6022 1.0225 9.71509 1.00005 9.8291 1.00005V1.00005C9.94388 0.998828 10.0578 1.02038 10.1642 1.06346C10.2706 1.10655 10.3674 1.1703 10.449 1.25104C10.5306 1.33178 10.5953 1.42789 10.6395 1.53383C10.6837 1.63977 10.7065 1.75342 10.7065 1.86821V2.96264" stroke="black" stroke-width="0.75" stroke-miterlimit="10"/>
<path d="M17.1776 6.82309H1.75391V2.94409H17.1776L18.8308 4.88359L17.1776 6.82309Z" stroke="black" stroke-width="0.75" stroke-miterlimit="10"/>
<path d="M11.1593 13.1173H2.65319L1 11.1778L2.65319 9.23828H11.1593H18.0815V13.1173H11.1593Z" stroke="black" stroke-width="0.75" stroke-miterlimit="10"/>
<path d="M5.21933 4.88379H3.28906" stroke="black" stroke-width="0.75" stroke-miterlimit="10"/>
<path d="M13.3014 4.88379H11.3711" stroke="black" stroke-width="0.75" stroke-miterlimit="10"/>
<path d="M16.0045 4.88379H14.0742" stroke="black" stroke-width="0.75" stroke-miterlimit="10"/>
<path d="M6.04674 11.1777H4.12109" stroke="black" stroke-width="0.75" stroke-miterlimit="10"/>
<path d="M10.517 4.88379H6.04688" stroke="black" stroke-width="0.75" stroke-miterlimit="10"/>
<path d="M16.4147 11.1777H11.9492" stroke="black" stroke-width="0.75" stroke-miterlimit="10"/>
<path d="M11.1967 11.1777H6.72656" stroke="black" stroke-width="0.75" stroke-miterlimit="10"/>
</svg>
