<svg width="48" height="48" viewBox="0 0 48 48" fill="none" xmlns="http://www.w3.org/2000/svg">
    <g clip-path="url(#clip0_234_9032)">
        <path d="M23.805 21.5886V12.1311C23.805 11.748 23.7295 11.3686 23.5829 11.0146C23.4363 10.6607 23.2214 10.3391 22.9505 10.0681C22.6796 9.79722 22.3579 9.58232 22.004 9.4357C21.65 9.28909 21.2706 9.21362 20.8875 9.21362H9.105C8.33123 9.21362 7.58915 9.521 7.04202 10.0681C6.49488 10.6153 6.1875 11.3574 6.1875 12.1311V35.8686C6.1875 36.6424 6.49488 37.3845 7.04202 37.9316C7.58915 38.4787 8.33123 38.7861 9.105 38.7861H20.865C21.25 38.7891 21.6318 38.7158 21.9884 38.5705C22.345 38.4252 22.6692 38.2108 22.9425 37.9396C23.2158 37.6684 23.4328 37.3458 23.5808 36.9903C23.7288 36.6349 23.805 36.2537 23.805 35.8686V34.1361" stroke="#333333" stroke-width="1.5" stroke-miterlimit="10"/>
        <path d="M23.8043 34.1354L30.1268 36.4529C31.1166 36.8203 32.1909 36.8962 33.2225 36.6716C34.254 36.4469 35.1995 35.9311 35.9468 35.1854L39.6968 31.4804C40.3674 30.8104 40.8994 30.0148 41.2623 29.139C41.6252 28.2633 41.812 27.3246 41.812 26.3767C41.812 25.4287 41.6252 24.4901 41.2623 23.6143C40.8994 22.7386 40.3674 21.943 39.6968 21.2729V21.2729L34.1243 15.7079L33.5168 15.0929C33.139 14.7285 32.6523 14.4975 32.1311 14.4352C31.6098 14.3729 31.0824 14.4828 30.6293 14.7479C30.3647 14.935 30.1436 15.177 29.9812 15.4574C29.8187 15.7378 29.7188 16.05 29.6881 16.3727C29.6575 16.6953 29.6969 17.0207 29.8037 17.3267C29.9105 17.6326 30.0821 17.9119 30.3068 18.1454C29.8825 17.7579 29.326 17.5475 28.7514 17.5573C28.1768 17.567 27.6278 17.7963 27.2168 18.1979C27.0042 18.3925 26.8336 18.6286 26.7158 18.8916C26.598 19.1547 26.5354 19.4391 26.5319 19.7273C26.5284 20.0155 26.584 20.3014 26.6954 20.5672C26.8068 20.8331 26.9715 21.0733 27.1793 21.2729V21.2729C26.9087 21.0115 26.5769 20.8221 26.2141 20.7221C25.8514 20.6221 25.4694 20.6147 25.103 20.7005C24.7367 20.7863 24.3977 20.9626 24.1171 21.2133C23.8365 21.464 23.6232 21.781 23.4968 22.1354C23.3633 22.523 23.3431 22.9406 23.4388 23.3392C23.5345 23.7378 23.7419 24.1007 24.0368 24.3854V24.3854L17.0543 17.4704C16.6344 17.0627 16.0722 16.8346 15.4868 16.8346C14.9015 16.8346 14.3392 17.0627 13.9193 17.4704V17.4704C13.5138 17.89 13.2871 18.4507 13.2871 19.0342C13.2871 19.6177 13.5138 20.1784 13.9193 20.5979L20.0843 26.7629L20.6993 30.8954C20.8057 31.6149 21.1158 32.2888 21.5929 32.8377C22.07 33.3866 22.6942 33.7875 23.3918 33.9929L23.7668 34.1354" stroke="#333333" stroke-width="1.5" stroke-miterlimit="10"/>
        <path d="M20.0996 26.7634L24.6221 31.2859" stroke="#333333" stroke-width="1.5" stroke-miterlimit="10"/>
        <path d="M15.3447 14.9359V11.4934" stroke="#333333" stroke-width="1.5" stroke-miterlimit="10"/>
        <path d="M11.2872 19.0984H7.84473" stroke="#333333" stroke-width="1.5" stroke-miterlimit="10"/>
        <path d="M12.2324 16.1584L9.79492 13.7209" stroke="#333333" stroke-width="1.5" stroke-miterlimit="10"/>
        <path d="M18.457 16.1584L20.887 13.7209" stroke="#333333" stroke-width="1.5" stroke-miterlimit="10"/>
        <path d="M12.5472 22.1731L10.1172 24.6106" stroke="#333333" stroke-width="1.5" stroke-miterlimit="10"/>
        <path d="M16.7098 35.5461H13.2598" stroke="#333333" stroke-width="1.5" stroke-miterlimit="10"/>
    </g>
    <defs>
        <clipPath id="clip0_234_9032">
            <rect width="48" height="48" fill="white"/>
        </clipPath>
    </defs>
</svg>
