<svg width="48" height="48" viewBox="0 0 48 48" fill="none" xmlns="http://www.w3.org/2000/svg">
    <g clip-path="url(#clip0_234_9216)">
        <path d="M23.5876 28.057H38.3026C38.5274 28.057 38.743 28.1463 38.9019 28.3052C39.0608 28.4641 39.1501 28.6797 39.1501 28.9045V34.3195H22.7026V28.9045C22.7025 28.79 22.7256 28.6766 22.7705 28.5713C22.8155 28.4659 22.8813 28.3708 22.964 28.2916C23.0467 28.2123 23.1446 28.1507 23.2518 28.1104C23.359 28.0701 23.4732 28.0519 23.5876 28.057Z" stroke="#333333" stroke-width="1.5" stroke-miterlimit="10"/>
        <path d="M21.0828 34.3193H40.8078C40.9789 34.3193 41.1429 34.3873 41.2639 34.5083C41.3849 34.6292 41.4528 34.7933 41.4528 34.9643V35.8793C41.4528 36.0285 41.3936 36.1716 41.2881 36.2771C41.1826 36.3826 41.0395 36.4418 40.8903 36.4418H21.0003C20.8537 36.4379 20.7145 36.3769 20.6122 36.2719C20.51 36.1668 20.4528 36.026 20.4528 35.8793V34.9793C20.4508 34.8946 20.4655 34.8104 20.4961 34.7313C20.5267 34.6523 20.5726 34.5801 20.6311 34.5188C20.6896 34.4575 20.7596 34.4084 20.8371 34.3741C20.9146 34.3399 20.9981 34.3213 21.0828 34.3193V34.3193Z" stroke="#333333" stroke-width="1.5" stroke-miterlimit="10"/>
        <path d="M21.5698 36.427V42.3895" stroke="#333333" stroke-width="1.5" stroke-miterlimit="10"/>
        <path d="M40.3198 36.427V42.3895" stroke="#333333" stroke-width="1.5" stroke-miterlimit="10"/>
        <path d="M38.0181 36.427V42.3895" stroke="#333333" stroke-width="1.5" stroke-miterlimit="10"/>
        <path d="M23.8726 36.427V42.3895" stroke="#333333" stroke-width="1.5" stroke-miterlimit="10"/>
        <path d="M17.8501 25.1543L17.8576 42.3893" stroke="#333333" stroke-width="1.5" stroke-miterlimit="10"/>
        <path d="M14.0549 25.3793C15.1575 25.7473 16.3338 25.8378 17.4797 25.6429C18.6257 25.448 19.7059 24.9737 20.6249 24.2618L20.6924 24.2993C23.5499 25.8818 26.6924 25.4543 27.7949 23.3543C28.5449 21.8993 28.0574 20.0243 26.7524 18.4868C29.1824 17.4293 30.5024 14.7818 29.6174 12.4868C29.1594 11.3943 28.2891 10.5264 27.1953 10.0715C26.1016 9.61659 24.8725 9.61131 23.7749 10.0568C23.0832 8.77067 22.0703 7.68548 20.8349 6.90682C17.4524 4.76932 13.4249 5.33182 11.7674 8.17432C11.1626 9.24621 10.9404 10.4919 11.1374 11.7068C11.1374 11.7068 6.54736 12.3968 6.54736 16.6118C6.54736 21.3668 10.8449 21.2618 10.8449 21.2618C10.8449 21.2618 11.1974 24.4118 14.0549 25.3793Z" stroke="#333333" stroke-width="1.5" stroke-miterlimit="10"/>
    </g>
    <defs>
        <clipPath id="clip0_234_9216">
            <rect width="48" height="48" fill="white"/>
        </clipPath>
    </defs>
</svg>
