<svg width="48" height="48" viewBox="0 0 48 48" fill="none" xmlns="http://www.w3.org/2000/svg">
    <g clip-path="url(#clip0_234_8989)">
        <path d="M22.4293 33.8887H22.5718C24.0438 33.8887 25.4554 34.4734 26.4963 35.5142C27.5371 36.5551 28.1218 37.9667 28.1218 39.4387V40.2412H7.92432V39.4387C7.92432 37.9667 8.50905 36.5551 9.54987 35.5142C10.5907 34.4734 12.0024 33.8887 13.4743 33.8887H13.6168" stroke="#333333" stroke-width="1.5" stroke-miterlimit="10"/>
        <path d="M24.0262 25.8413C24.4229 25.9734 24.838 26.0418 25.2562 26.0438H29.5687C29.6407 26.7981 29.5059 27.5578 29.1787 28.2413C28.9934 28.64 28.7396 29.003 28.4287 29.3138C28.136 29.5996 27.7655 29.7927 27.3637 29.8688C27.2163 29.9198 27.0885 30.0155 26.998 30.1425C26.9076 30.2695 26.859 30.4216 26.859 30.5775C26.859 30.7335 26.9076 30.8856 26.998 31.0126C27.0885 31.1396 27.2163 31.2353 27.3637 31.2863C27.526 31.2977 27.6889 31.2977 27.8512 31.2863C28.4314 31.2806 29.0029 31.1448 29.5237 30.8888C30.1668 30.5751 30.7465 30.1454 31.2337 29.6213C32.1891 28.6207 32.835 27.3654 33.0937 26.0063H36.2437C37.2589 26.0023 38.2314 25.5973 38.9493 24.8794C39.6672 24.1615 40.0722 23.189 40.0762 22.1738V11.5838C40.0722 10.5693 39.6669 9.59752 38.9488 8.88083C38.2307 8.16415 37.2582 7.76076 36.2437 7.75879H25.2562C24.2423 7.76077 23.2706 8.1644 22.5537 8.88129C21.8368 9.59819 21.4331 10.5699 21.4312 11.5838V16.6763" stroke="#333333" stroke-width="1.5" stroke-miterlimit="10"/>
        <path d="M23.9285 21.8735C23.9762 22.0827 24.0014 22.2965 24.0035 22.511V29.771C24.0035 31.3623 23.3714 32.8885 22.2461 34.0137C21.1209 35.1389 19.5948 35.771 18.0035 35.771C16.4122 35.771 14.8861 35.1389 13.7609 34.0137C12.6356 32.8885 12.0035 31.3623 12.0035 29.771V22.511C12.002 22.3222 12.0196 22.1338 12.056 21.9485" stroke="#333333" stroke-width="1.5" stroke-miterlimit="10"/>
        <path d="M16.1147 28.6237V25.1587" stroke="#333333" stroke-width="1.5" stroke-miterlimit="10"/>
        <path d="M19.9087 28.6237V25.1587" stroke="#333333" stroke-width="1.5" stroke-miterlimit="10"/>
        <path d="M30.7163 22.0311V19.2861" stroke="#333333" stroke-width="1.5" stroke-miterlimit="10"/>
        <path d="M30.7163 17.4783V11.5908" stroke="#333333" stroke-width="1.5" stroke-miterlimit="10"/>
        <path d="M15.5068 15.3034C16.3336 15.2633 17.1578 15.423 17.9098 15.769C18.6618 16.115 19.3193 16.637 19.8268 17.2909C20.4442 16.865 21.1768 16.6374 21.9268 16.6384C22.7639 16.6126 23.5788 16.9097 24.2028 17.4682C24.8269 18.0266 25.2123 18.8036 25.2793 19.6384V19.6384C25.2793 21.1384 23.8543 22.3609 22.0918 22.3609H13.9243C12.1618 22.3609 10.7368 21.1384 10.7368 19.6384C10.7368 17.3659 12.8218 15.3709 15.5068 15.3034Z" stroke="#333333" stroke-width="1.5" stroke-miterlimit="10"/>
    </g>
    <defs>
        <clipPath id="clip0_234_8989">
            <rect width="48" height="48" fill="white"/>
        </clipPath>
    </defs>
</svg>
