<svg width="24" height="24" viewBox="0 0 24 24" fill="none" xmlns="http://www.w3.org/2000/svg">
<path fill-rule="evenodd" clip-rule="evenodd" d="M11.9991 23.1301C5.85914 23.1301 0.869141 18.1401 0.869141 12.0001C0.869141 5.86012 5.85914 0.870117 11.9991 0.870117C18.1391 0.870117 23.1291 5.86012 23.1291 12.0001C23.1291 18.1401 18.1391 23.1301 11.9991 23.1301ZM11.9991 2.38012C6.68914 2.37012 2.36914 6.69012 2.36914 12.0001C2.36914 17.3101 6.68914 21.6301 11.9991 21.6301C17.3091 21.6301 21.6291 17.3101 21.6291 12.0001C21.6291 6.69012 17.3091 2.37012 11.9991 2.37012V2.38012ZM11.9991 17.1601C11.3791 17.1601 10.8691 16.6501 10.8691 16.0301C10.8691 15.4101 11.3791 14.9001 11.9991 14.9001C12.6191 14.9001 13.1291 15.4101 13.1291 16.0301C13.1291 16.6501 12.6191 17.1601 11.9991 17.1601ZM11.2491 6.61012H12.7491V13.2501H11.2491V6.61012Z" fill="#D00000"/>
</svg>
