<svg width="100%" height="100%" viewBox="0 0 24 24" fill="none" xmlns="http://www.w3.org/2000/svg">
<g clip-path="url(#clip0_2407_1940)">
<path fill-rule="evenodd" clip-rule="evenodd" d="M11.9991 0.869141C5.85914 0.869141 0.869141 5.85914 0.869141 11.9991C0.869141 18.1391 5.85914 23.1291 11.9991 23.1291C18.1391 23.1291 23.1291 18.1391 23.1291 11.9991C23.1291 5.85914 18.1391 0.869141 11.9991 0.869141ZM11.9991 21.6191C6.68914 21.6191 2.36914 17.2991 2.36914 11.9891C2.36914 6.67914 6.68914 2.36914 11.9991 2.36914C17.3091 2.36914 21.6291 6.68914 21.6291 11.9991C21.6291 17.3091 17.3091 21.6291 11.9991 21.6291V21.6191ZM12.1591 6.45914C10.4491 6.45914 9.04915 7.84914 9.04915 9.58914L10.5491 9.56914C10.5491 8.67914 11.2691 7.95914 12.1591 7.95914C12.8691 7.95914 13.4491 8.53914 13.4491 9.24914C13.4491 9.76914 13.1391 10.2291 12.6691 10.4391L12.1991 10.6391C11.3891 10.9891 10.8691 11.7791 10.8691 12.6591V13.9291H12.3691V12.6591C12.3691 12.3791 12.5391 12.1191 12.7891 12.0091L13.2591 11.8091C14.2791 11.3691 14.9491 10.3591 14.9491 9.24914C14.9491 7.70914 13.6991 6.45914 12.1591 6.45914ZM10.4892 16.4091C10.4892 15.7891 10.9992 15.2791 11.6192 15.2791C12.2392 15.2791 12.7492 15.7891 12.7492 16.4091C12.7492 17.0291 12.2392 17.5391 11.6192 17.5391C10.9992 17.5391 10.4892 17.0291 10.4892 16.4091Z" fill="black"/>
</g>
<defs>
<clipPath id="clip0_2407_1940">
<rect width="24" height="24" fill="white"/>
</clipPath>
</defs>
</svg>
