<svg width="64" height="64" viewBox="0 0 64 64" fill="none" xmlns="http://www.w3.org/2000/svg">
<path d="M39.4224 31.4399V18.0354L39.0614 17.8965H15.4925C13.5115 17.8965 11.8822 16.7024 11.8822 15.2305V43.7612C11.8726 43.8566 11.8726 43.9528 11.8822 44.0482V44.0482C11.8822 44.7847 12.1748 45.4911 12.6956 46.012C13.2164 46.5328 13.9228 46.8254 14.6594 46.8254H37.0618L39.4224 31.4399Z" fill="#5158D8" stroke="#5158D8" stroke-width="1.5" stroke-miterlimit="10"/>
<path d="M20.4453 22.9976H31.6928" stroke="#333333" stroke-width="1.5" stroke-miterlimit="10"/>
<path d="M17.8721 26.478H34.387" stroke="#333333" stroke-width="1.5" stroke-miterlimit="10"/>
<path d="M38.5426 14.4529C38.4838 13.387 38.7659 12.33 39.348 11.4351C39.5054 11.2407 39.348 11 39.0333 11H15.4922C13.5111 11 11.8818 12.2034 11.8818 13.6753V15.2305C11.8818 16.7024 13.5111 17.8966 15.4922 17.8966H39.0333C39.3295 17.8966 39.5054 17.6652 39.348 17.4708C38.7671 16.5754 38.4851 15.5188 38.5426 14.4529V14.4529Z" fill="white" stroke="#333333" stroke-width="1.5" stroke-miterlimit="10"/>
<path d="M27.9348 30.1436H24.2041" stroke="#333333" stroke-width="1.5" stroke-miterlimit="10"/>
<path d="M43.6711 46.1587H43.8192C44.7184 46.1575 45.609 46.3335 46.44 46.6768C47.2711 47.02 48.0263 47.5238 48.6626 48.1591C49.2988 48.7945 49.8035 49.5491 50.1479 50.3797C50.4923 51.2103 50.6696 52.1006 50.6696 52.9998H28.9336C28.9336 51.1854 29.6544 49.4454 30.9373 48.1624C32.2203 46.8795 33.9603 46.1587 35.7747 46.1587H43.6711Z" fill="white" stroke="#333333" stroke-width="1.5" stroke-miterlimit="10"/>
<path d="M46.2912 35.5503V40.9473C46.2912 42.6659 45.6084 44.3141 44.3932 45.5293C43.178 46.7446 41.5297 47.4273 39.8111 47.4273C38.0925 47.4273 36.4443 46.7446 35.229 45.5293C34.0138 44.3141 33.3311 42.6659 33.3311 40.9473V35.5503H46.2912Z" fill="white" stroke="#333333" stroke-width="1.5" stroke-miterlimit="10"/>
<path d="M42.5332 35.5503H52.1237" stroke="#333333" stroke-width="1.5" stroke-miterlimit="10"/>
<path d="M37.7559 42.0207V38.29" stroke="#333333" stroke-width="1.5" stroke-miterlimit="10"/>
<path d="M41.8477 42.0207V38.29" stroke="#333333" stroke-width="1.5" stroke-miterlimit="10"/>
<path d="M33.3135 35.55V32.3655C33.3135 31.2697 33.7482 30.2185 34.5222 29.4428C35.2962 28.667 36.3463 28.23 37.4422 28.2275H42.1449C43.2423 28.2275 44.2948 28.6635 45.0709 29.4395C45.8469 30.2155 46.2828 31.2681 46.2828 32.3655V35.55H33.3135Z" fill="white" stroke="#333333" stroke-width="1.5" stroke-miterlimit="10"/>
</svg>
