<svg width="732" height="73" viewBox="0 0 732 73" fill="none" xmlns="http://www.w3.org/2000/svg">
<path d="M731 71.4077H1" stroke="#BABABA" stroke-width="1.5" stroke-linecap="round" stroke-linejoin="round"/>
<path d="M323.45 71.4077H284.92C282.931 71.4077 281.023 70.6175 279.617 69.211C278.21 67.8045 277.42 65.8968 277.42 63.9077C277.42 61.9186 278.21 60.0109 279.617 58.6044C281.023 57.1979 282.931 56.4077 284.92 56.4077H288.59" stroke="#BABABA" stroke-width="1.5" stroke-linecap="round" stroke-linejoin="round"/>
<path d="M293.89 56.4077H323.45" stroke="#BABABA" stroke-width="1.5" stroke-linecap="round" stroke-linejoin="round"/>
<path d="M323.45 71.4077C321.71 71.4077 320.3 68.0477 320.3 63.9077C320.3 59.7677 321.71 56.4077 323.45 56.4077" stroke="#BABABA" stroke-width="1.5" stroke-linecap="round" stroke-linejoin="round"/>
<path d="M280.28 44.6777H318.81C320.799 44.6777 322.707 43.8876 324.114 42.481C325.52 41.0745 326.31 39.1669 326.31 37.1777C326.31 35.1886 325.52 33.281 324.114 31.8744C322.707 30.4679 320.799 29.6777 318.81 29.6777H280.28" stroke="#BABABA" stroke-width="1.5" stroke-linecap="round" stroke-linejoin="round"/>
<path d="M280.28 29.6777C282.01 29.6777 283.42 33.0377 283.42 37.1777C283.42 41.3177 282.01 44.6777 280.28 44.6777" stroke="#BABABA" stroke-width="1.5" stroke-linecap="round" stroke-linejoin="round"/>
<path d="M288.59 56.4079H285.59C284.799 56.4405 284.01 56.313 283.27 56.033C282.53 55.7529 281.854 55.3262 281.283 54.7783C280.712 54.2305 280.258 53.5729 279.948 52.845C279.637 52.1172 279.478 51.3341 279.478 50.5429C279.478 49.7516 279.637 48.9685 279.948 48.2407C280.258 47.5128 280.712 46.8552 281.283 46.3074C281.854 45.7595 282.53 45.3328 283.27 45.0527C284.01 44.7727 284.799 44.6452 285.59 44.6779H326.59" stroke="#BABABA" stroke-width="1.5" stroke-linecap="round" stroke-linejoin="round"/>
<path d="M326.07 56.4077C325 56.4077 324.14 53.7777 324.14 50.5377C324.14 47.2977 325 44.6777 326.07 44.6777" stroke="#BABABA" stroke-width="1.5" stroke-linecap="round" stroke-linejoin="round"/>
<path d="M293.89 50.5376V64.9876L291.24 62.1776L288.59 64.9876V50.5376H293.89Z" stroke="#BABABA" stroke-width="1.5" stroke-linecap="round" stroke-linejoin="round"/>
<path d="M328.382 1.72258L320.808 3.74644C319.314 4.14563 318.426 5.68035 318.825 7.17434L335.269 68.7153C335.668 70.2093 337.203 71.0968 338.697 70.6976L346.271 68.6738C347.765 68.2746 348.653 66.7398 348.254 65.2458L331.81 3.70487C331.411 2.21089 329.876 1.32339 328.382 1.72258Z" stroke="#BABABA" stroke-width="1.5" stroke-linecap="round" stroke-linejoin="round"/>
<path d="M344.306 2.08329L335.007 5.45126C333.553 5.97787 332.801 7.58346 333.328 9.03743L355.02 68.93C355.547 70.384 357.152 71.1357 358.606 70.6091L367.905 67.2411C369.359 66.7145 370.111 65.1089 369.584 63.655L347.892 3.7624C347.365 2.30843 345.759 1.55667 344.306 2.08329Z" stroke="#BABABA" stroke-width="1.5" stroke-linecap="round" stroke-linejoin="round"/>
<path d="M378.11 10.8779H372.3C371.267 10.8779 370.43 11.7152 370.43 12.7479V69.5279C370.43 70.5607 371.267 71.3979 372.3 71.3979H378.11C379.142 71.3979 379.98 70.5607 379.98 69.5279V12.7479C379.98 11.7152 379.142 10.8779 378.11 10.8779Z" stroke="#BABABA" stroke-width="1.5" stroke-linecap="round" stroke-linejoin="round"/>
<path d="M407.06 10.8779H395.88C394.847 10.8779 394.01 11.7152 394.01 12.7479V69.5279C394.01 70.5607 394.847 71.3979 395.88 71.3979H407.06C408.093 71.3979 408.93 70.5607 408.93 69.5279V12.7479C408.93 11.7152 408.093 10.8779 407.06 10.8779Z" stroke="#BABABA" stroke-width="1.5" stroke-linecap="round" stroke-linejoin="round"/>
<path d="M392.14 7.60791H381.85C380.818 7.60791 379.98 8.44514 379.98 9.47791V69.5379C379.98 70.5707 380.818 71.4079 381.85 71.4079H392.14C393.173 71.4079 394.01 70.5707 394.01 69.5379V9.47791C394.01 8.44514 393.173 7.60791 392.14 7.60791Z" stroke="#BABABA" stroke-width="1.5" stroke-linecap="round" stroke-linejoin="round"/>
<path d="M473.41 60.8979H417.45C416.677 60.8979 416.05 61.5247 416.05 62.2979V70.0079C416.05 70.7811 416.677 71.408 417.45 71.408H473.41C474.183 71.408 474.81 70.7811 474.81 70.0079V62.2979C474.81 61.5247 474.183 60.8979 473.41 60.8979Z" stroke="#BABABA" stroke-width="1.5" stroke-linecap="round" stroke-linejoin="round"/>
<path d="M479.53 52.8076H421.09C420.317 52.8076 419.69 53.4344 419.69 54.2076V59.4876C419.69 60.2608 420.317 60.8876 421.09 60.8876H479.53C480.304 60.8876 480.93 60.2608 480.93 59.4876V54.2076C480.93 53.4344 480.304 52.8076 479.53 52.8076Z" stroke="#BABABA" stroke-width="1.5" stroke-linecap="round" stroke-linejoin="round"/>
<path d="M379.98 60.8979H370.43V65.188H379.98V60.8979Z" stroke="#BABABA" stroke-width="1.5" stroke-linecap="round" stroke-linejoin="round"/>
<path d="M379.98 17.4478H370.43V21.3778H379.98V17.4478Z" stroke="#BABABA" stroke-width="1.5" stroke-linecap="round" stroke-linejoin="round"/>
<path d="M387 42.768V36.248" stroke="#BABABA" stroke-width="1.5" stroke-linecap="round" stroke-linejoin="round"/>
<path d="M401.47 51.5678V30.7178" stroke="#BABABA" stroke-width="1.5" stroke-linecap="round" stroke-linejoin="round"/>
<path d="M404.11 62.5376H398.82V67.8276H404.11V62.5376Z" stroke="#BABABA" stroke-width="1.5" stroke-linecap="round" stroke-linejoin="round"/>
<path d="M326.61 56.4077H323.45" stroke="#BABABA" stroke-width="1.5" stroke-linecap="round" stroke-linejoin="round"/>
<path d="M284.3 50.5376H302.06" stroke="#BABABA" stroke-width="1.5" stroke-linecap="round" stroke-linejoin="round"/>
<path d="M464.13 66.1479H471.24" stroke="#BABABA" stroke-width="1.5" stroke-linecap="round" stroke-linejoin="round"/>
<path d="M429.73 52.8076H425.42V60.8876H429.73V52.8076Z" stroke="#BABABA" stroke-width="1.5" stroke-linecap="round" stroke-linejoin="round"/>
<path d="M471.24 52.8076H466.93V60.8876H471.24V52.8076Z" stroke="#BABABA" stroke-width="1.5" stroke-linecap="round" stroke-linejoin="round"/>
<path d="M347.6 25.688L355.31 46.988" stroke="#BABABA" stroke-width="1.5" stroke-linecap="round" stroke-linejoin="round"/>
<path d="M338.91 9.31768L344.22 7.36768" stroke="#BABABA" stroke-width="1.5" stroke-linecap="round" stroke-linejoin="round"/>
<path d="M320.96 15.158L333.89 11.708" stroke="#BABABA" stroke-width="1.5" stroke-linecap="round" stroke-linejoin="round"/>
<path d="M322.69 19.4078L335.62 15.9678" stroke="#BABABA" stroke-width="1.5" stroke-linecap="round" stroke-linejoin="round"/>
<path d="M332.37 57.8376L345.41 54.5776" stroke="#BABABA" stroke-width="1.5" stroke-linecap="round" stroke-linejoin="round"/>
<path d="M333.94 62.3477L346.64 59.1777" stroke="#BABABA" stroke-width="1.5" stroke-linecap="round" stroke-linejoin="round"/>
<path d="M283.25 34.7578H299.61" stroke="#BABABA" stroke-width="1.5" stroke-linecap="round" stroke-linejoin="round"/>
<path d="M295 39.5078H310.95" stroke="#BABABA" stroke-width="1.5" stroke-linecap="round" stroke-linejoin="round"/>
<path d="M429.73 52.8076H468.26C470.25 52.8076 472.157 52.0174 473.564 50.6109C474.97 49.2044 475.76 47.2967 475.76 45.3076C475.76 43.3185 474.97 41.4108 473.564 40.0043C472.157 38.5978 470.25 37.8076 468.26 37.8076H429.73" stroke="#BABABA" stroke-width="1.5" stroke-linecap="round" stroke-linejoin="round"/>
<path d="M429.73 37.8076C431.47 37.8076 432.88 41.1676 432.88 45.3076C432.88 49.4476 431.47 52.8076 429.73 52.8076" stroke="#BABABA" stroke-width="1.5" stroke-linecap="round" stroke-linejoin="round"/>
<path d="M432.7 42.8779H449.06" stroke="#BABABA" stroke-width="1.5" stroke-linecap="round" stroke-linejoin="round"/>
<path d="M444.45 47.6377H460.4" stroke="#BABABA" stroke-width="1.5" stroke-linecap="round" stroke-linejoin="round"/>
<path d="M267.23 71.4077H217.7C215.711 71.4077 213.803 70.6175 212.397 69.211C210.99 67.8045 210.2 65.8968 210.2 63.9077C210.2 61.9186 210.99 60.0109 212.397 58.6044C213.803 57.1979 215.711 56.4077 217.7 56.4077H267.23" stroke="#BABABA" stroke-width="1.5" stroke-linecap="round" stroke-linejoin="round"/>
<path d="M267.23 56.4077C265.49 56.4077 264.09 59.7577 264.09 63.9077C264.09 68.0577 265.49 71.4077 267.23 71.4077" stroke="#BABABA" stroke-width="1.5" stroke-linecap="round" stroke-linejoin="round"/>
<path d="M264.26 61.478H247.9" stroke="#BABABA" stroke-width="1.5" stroke-linecap="round" stroke-linejoin="round"/>
<path d="M237.75 66.228H221.8" stroke="#BABABA" stroke-width="1.5" stroke-linecap="round" stroke-linejoin="round"/>
<path d="M302.06 65.188H320.3" stroke="#BABABA" stroke-width="1.5" stroke-linecap="round" stroke-linejoin="round"/>
</svg>
