<svg width="1114" height="48" viewBox="0 0 1114 48" fill="none" xmlns="http://www.w3.org/2000/svg">
<path d="M1112 45.79H2" stroke="#DADADA" stroke-width="3" stroke-linecap="round" stroke-linejoin="round"/>
<path d="M697.311 28.1L701.901 22.74C702.626 21.8963 703.525 21.2191 704.537 20.7549C705.548 20.2906 706.648 20.0502 707.761 20.05H719.101C720.843 20.0521 722.533 20.6404 723.901 21.72L731.961 28.1" stroke="#DADADA" stroke-width="3" stroke-linecap="round" stroke-linejoin="round"/>
<path d="M706.43 38.45H727.97" stroke="#DADADA" stroke-width="3" stroke-linecap="round" stroke-linejoin="round"/>
<path d="M697.311 28.1001H694.911C694.046 28.1001 693.217 28.4436 692.606 29.0549C691.994 29.6663 691.651 30.4955 691.651 31.3601V36.1001C691.644 36.4129 691.7 36.7239 691.815 37.0148C691.93 37.3057 692.102 37.5707 692.321 37.7942C692.54 38.0178 692.801 38.1953 693.09 38.3166C693.378 38.4378 693.688 38.5002 694.001 38.5001H697.311" stroke="#DADADA" stroke-width="3" stroke-linecap="round" stroke-linejoin="round"/>
<path d="M737.091 38.5001H738.761C739.557 38.5001 740.32 38.184 740.882 37.6214C741.445 37.0588 741.761 36.2957 741.761 35.5001V31.0801C741.761 30.2844 741.445 29.5214 740.882 28.9588C740.32 28.3961 739.557 28.0801 738.761 28.0801H731.961" stroke="#DADADA" stroke-width="3" stroke-linecap="round" stroke-linejoin="round"/>
<path d="M732.501 33.8499C733.403 33.8446 734.286 34.1081 735.038 34.6068C735.789 35.1055 736.375 35.8168 736.721 36.6499C737.071 37.4804 737.161 38.3971 736.981 39.2799C736.803 40.1644 736.367 40.9763 735.728 41.6134C735.089 42.2505 734.276 42.6842 733.391 42.8599C732.508 43.03 731.594 42.9397 730.761 42.5999C729.791 42.1957 728.991 41.4681 728.496 40.5407C728.002 39.6133 727.843 38.5433 728.048 37.5125C728.253 36.4817 728.809 35.5536 729.621 34.886C730.432 34.2183 731.45 33.8522 732.501 33.8499V33.8499Z" stroke="#DADADA" stroke-width="3" stroke-linecap="round" stroke-linejoin="round"/>
<path d="M701.86 33.8501C702.763 33.8481 703.646 34.1124 704.4 34.6101C705.144 35.0969 705.729 35.7926 706.08 36.6101C706.433 37.4479 706.526 38.3723 706.348 39.2638C706.17 40.1552 705.728 40.9726 705.08 41.6101C704.443 42.2463 703.632 42.681 702.75 42.8601C701.863 43.0305 700.946 42.9401 700.11 42.6001C699.295 42.2446 698.601 41.6612 698.11 40.9201C697.608 40.1723 697.343 39.2907 697.35 38.3901C697.35 37.7931 697.468 37.2019 697.696 36.6504C697.925 36.0989 698.26 35.598 698.683 35.1763C699.106 34.7546 699.607 34.4204 700.159 34.1928C700.711 33.9653 701.303 33.8488 701.9 33.8501H701.86Z" stroke="#DADADA" stroke-width="3" stroke-linecap="round" stroke-linejoin="round"/>
<path d="M882.189 28.0999L887.499 22.7399C889.332 20.9828 891.781 20.0166 894.319 20.0499H907.499C909.484 20.0406 911.426 20.6219 913.079 21.7199L922.499 28.0999" stroke="#DADADA" stroke-width="3" stroke-linecap="round" stroke-linejoin="round"/>
<path d="M896.971 38.45H918.511" stroke="#DADADA" stroke-width="3" stroke-linecap="round" stroke-linejoin="round"/>
<path d="M882.19 28.1001V36.1001C882.183 36.4095 882.238 36.7173 882.351 37.0056C882.463 37.2939 882.632 37.5571 882.846 37.7801C883.061 38.0031 883.318 38.1815 883.601 38.3051C883.885 38.4286 884.191 38.4949 884.5 38.5001H887.81" stroke="#DADADA" stroke-width="3" stroke-linecap="round" stroke-linejoin="round"/>
<path d="M927.63 38.5001H929.31C930.106 38.5001 930.869 38.184 931.431 37.6214C931.994 37.0588 932.31 36.2957 932.31 35.5001V31.0801C932.31 30.2844 931.994 29.5214 931.431 28.9588C930.869 28.3961 930.106 28.0801 929.31 28.0801H922.5" stroke="#DADADA" stroke-width="3" stroke-linecap="round" stroke-linejoin="round"/>
<path d="M923.069 33.8499C923.971 33.8446 924.854 34.1081 925.606 34.6068C926.358 35.1055 926.944 35.8168 927.289 36.6499C927.639 37.4804 927.73 38.3971 927.549 39.2799C927.371 40.1625 926.936 40.9728 926.299 41.6096C925.662 42.2463 924.852 42.6812 923.969 42.8599C923.083 43.0303 922.166 42.94 921.329 42.5999C920.359 42.1957 919.559 41.4681 919.064 40.5407C918.57 39.6133 918.412 38.5433 918.617 37.5125C918.822 36.4817 919.377 35.5536 920.189 34.886C921.001 34.2183 922.018 33.8522 923.069 33.8499V33.8499Z" stroke="#DADADA" stroke-width="3" stroke-linecap="round" stroke-linejoin="round"/>
<path d="M892.4 33.8499C893.302 33.8446 894.185 34.1081 894.937 34.6068C895.689 35.1055 896.275 35.8168 896.62 36.6499C896.973 37.4877 897.067 38.4121 896.888 39.3036C896.71 40.195 896.268 41.0124 895.62 41.6499C894.984 42.2881 894.173 42.7231 893.29 42.8999C892.404 43.0703 891.487 42.98 890.65 42.6399C889.836 42.2845 889.141 41.701 888.65 40.9599C888.194 40.2744 887.933 39.4781 887.894 38.6557C887.855 37.8334 888.04 37.0158 888.429 36.2902C888.817 35.5646 889.396 34.9582 890.103 34.5354C890.809 34.1127 891.617 33.8896 892.44 33.8899L892.4 33.8499Z" stroke="#DADADA" stroke-width="3" stroke-linecap="round" stroke-linejoin="round"/>
<path d="M825.19 37.79H803.15" stroke="#DADADA" stroke-width="3" stroke-linecap="round" stroke-linejoin="round"/>
<path d="M792.819 37.7901H787.049C786.358 37.7875 785.696 37.5117 785.207 37.0228C784.718 36.5339 784.442 35.8715 784.439 35.1801V14.7301C784.442 14.0387 784.718 13.3764 785.207 12.8875C785.696 12.3986 786.358 12.1228 787.049 12.1201H841.279C841.972 12.1201 842.636 12.3951 843.125 12.8846C843.614 13.374 843.889 14.0379 843.889 14.7301V35.1801C843.889 35.8723 843.614 36.5362 843.125 37.0257C842.636 37.5151 841.972 37.7901 841.279 37.7901H835.499" stroke="#DADADA" stroke-width="3" stroke-linecap="round" stroke-linejoin="round"/>
<path d="M797.979 32.6501C799 32.6502 799.997 32.9492 800.849 33.5101C801.698 34.0758 802.36 34.8802 802.751 35.8217C803.143 36.7632 803.246 37.7996 803.049 38.8001C802.838 39.7908 802.341 40.6977 801.619 41.4087C800.897 42.1196 799.983 42.6034 798.989 42.8001C797.983 43.0023 796.939 42.9014 795.989 42.5101C795.207 42.1859 794.517 41.6738 793.979 41.0191C793.442 40.3643 793.075 39.5872 792.909 38.7564C792.744 37.9257 792.787 37.0671 793.033 36.2567C793.278 35.4462 793.721 34.7089 794.319 34.1101C795.291 33.149 796.603 32.61 797.969 32.6101L797.979 32.6501Z" stroke="#DADADA" stroke-width="3" stroke-linecap="round" stroke-linejoin="round"/>
<path d="M835.5 37.8399C835.494 38.1754 835.46 38.5098 835.4 38.8399C835.189 39.8306 834.691 40.7375 833.97 41.4485C833.248 42.1594 832.334 42.6432 831.34 42.8399C830.592 42.9929 829.819 42.9773 829.078 42.7943C828.336 42.6113 827.645 42.2654 827.054 41.7817C826.464 41.2981 825.988 40.6889 825.662 39.9984C825.336 39.3079 825.168 38.5535 825.17 37.7899C825.17 37.1141 825.303 36.4449 825.562 35.8206C825.821 35.1963 826.201 34.6293 826.679 34.1518C827.157 33.6744 827.725 33.296 828.35 33.0383C828.975 32.7806 829.644 32.6486 830.32 32.6499V32.6499C831.343 32.6486 832.345 32.9476 833.2 33.5099C833.911 33.9856 834.493 34.63 834.895 35.3856C835.296 36.1411 835.504 36.9844 835.5 37.8399Z" stroke="#DADADA" stroke-width="3" stroke-linecap="round" stroke-linejoin="round"/>
<path d="M815.069 12.12L804.949 2" stroke="#DADADA" stroke-width="3" stroke-linecap="round" stroke-linejoin="round"/>
<path d="M825.091 12.12L814.98 2" stroke="#DADADA" stroke-width="3" stroke-linecap="round" stroke-linejoin="round"/>
<path d="M791.711 24.96H836.621" stroke="#DADADA" stroke-width="3" stroke-linecap="round" stroke-linejoin="round"/>
<path d="M1012.61 37.79H990.57" stroke="#DADADA" stroke-width="3" stroke-linecap="round" stroke-linejoin="round"/>
<path d="M1008.56 12.1201H1028.71C1029.4 12.1228 1030.06 12.3986 1030.55 12.8875C1031.04 13.3764 1031.32 14.0387 1031.32 14.7301V35.1801C1031.32 35.8715 1031.04 36.5339 1030.55 37.0228C1030.06 37.5117 1029.4 37.7875 1028.71 37.7901H1023.94" stroke="#DADADA" stroke-width="3" stroke-linecap="round" stroke-linejoin="round"/>
<path d="M985.4 32.65C986.421 32.6462 987.42 32.9453 988.271 33.5096C989.122 34.0739 989.787 34.8779 990.18 35.82C990.574 36.7687 990.675 37.8134 990.47 38.82C990.262 39.8123 989.766 40.7212 989.044 41.4328C988.322 42.1444 987.406 42.6269 986.41 42.82C985.702 42.9685 984.971 42.9661 984.264 42.8131C983.556 42.66 982.889 42.3596 982.306 41.9315C981.723 41.5034 981.236 40.9572 980.878 40.3285C980.52 39.6998 980.298 39.0027 980.228 38.2826C980.157 37.5625 980.239 36.8356 980.468 36.1493C980.697 35.463 981.068 34.8326 981.557 34.2993C982.046 33.766 982.642 33.3417 983.306 33.0541C983.97 32.7664 984.687 32.6219 985.41 32.63L985.4 32.65Z" stroke="#DADADA" stroke-width="3" stroke-linecap="round" stroke-linejoin="round"/>
<path d="M1023.94 37.84C1023.94 38.176 1023.91 38.5115 1023.84 38.84C1023.64 39.8368 1023.15 40.7521 1022.43 41.47C1021.71 42.1957 1020.78 42.6871 1019.78 42.88C1019.07 43.0285 1018.34 43.0262 1017.63 42.8731C1016.93 42.72 1016.26 42.4197 1015.68 41.9916C1015.09 41.5635 1014.61 41.0173 1014.25 40.3886C1013.89 39.7599 1013.67 39.0628 1013.6 38.3427C1013.53 37.6226 1013.61 36.8957 1013.84 36.2094C1014.07 35.523 1014.44 34.8927 1014.93 34.3594C1015.42 33.826 1016.01 33.4017 1016.68 33.1141C1017.34 32.8265 1018.06 32.682 1018.78 32.69V32.69C1019.8 32.6862 1020.8 32.9854 1021.65 33.5497C1022.5 34.114 1023.17 34.918 1023.56 35.86C1023.83 36.4928 1023.96 37.1736 1023.95 37.86" stroke="#DADADA" stroke-width="3" stroke-linecap="round" stroke-linejoin="round"/>
<path d="M1017.79 24.96H1031.32" stroke="#DADADA" stroke-width="3" stroke-linecap="round" stroke-linejoin="round"/>
<path d="M1017.79 12.1201V24.9601" stroke="#DADADA" stroke-width="3" stroke-linecap="round" stroke-linejoin="round"/>
<path d="M990.569 37.7901H1008.28V9.05005C1008.28 8.51962 1008.07 8.01091 1007.69 7.63584C1007.32 7.26076 1006.81 7.05005 1006.28 7.05005H974.279C973.96 7.05134 973.644 7.11589 973.349 7.23997C973.055 7.36405 972.788 7.5452 972.564 7.77297C972.34 8.00074 972.163 8.27063 972.044 8.56705C971.925 8.86348 971.865 9.18057 971.869 9.50005V35.7901C971.869 36.3205 972.08 36.8292 972.455 37.2043C972.83 37.5793 973.339 37.7901 973.869 37.7901H980.239" stroke="#DADADA" stroke-width="3" stroke-linecap="round" stroke-linejoin="round"/>
</svg>
