<svg width="302" height="24" viewBox="0 0 302 24" fill="none" xmlns="http://www.w3.org/2000/svg">
<path d="M301 22.5996H1" stroke="#BABABA" stroke-width="1.5" stroke-linecap="round" stroke-linejoin="round"/>
<path d="M68.5996 13.8702L70.8696 11.2602C71.2275 10.8438 71.6709 10.5095 72.1696 10.28C72.6683 10.0505 73.2106 9.93117 73.7596 9.93018H79.3496C80.2108 9.93028 81.0465 10.2229 81.7196 10.7602L85.7196 13.9002" stroke="#BABABA" stroke-width="1.5" stroke-linecap="round" stroke-linejoin="round"/>
<path d="M73.0996 18.98H83.7296" stroke="#BABABA" stroke-width="1.5" stroke-linecap="round" stroke-linejoin="round"/>
<path d="M68.5996 13.8701H67.4196C66.9926 13.8701 66.5831 14.0397 66.2811 14.3417C65.9792 14.6436 65.8096 15.0531 65.8096 15.4801V17.8201C65.8096 18.1278 65.9318 18.4228 66.1493 18.6404C66.3669 18.8579 66.6619 18.9801 66.9696 18.9801H68.5996" stroke="#BABABA" stroke-width="1.5" stroke-linecap="round" stroke-linejoin="round"/>
<path d="M88.2605 18.9801H89.0805C89.2744 18.9814 89.4666 18.9444 89.6461 18.8711C89.8256 18.7978 89.9888 18.6898 90.1264 18.5531C90.264 18.4165 90.3731 18.254 90.4476 18.075C90.5221 17.896 90.5605 17.704 90.5605 17.5101V15.3501C90.5605 14.9576 90.4045 14.5812 90.127 14.3036C89.8494 14.026 89.473 13.8701 89.0805 13.8701H85.7305" stroke="#BABABA" stroke-width="1.5" stroke-linecap="round" stroke-linejoin="round"/>
<path d="M85.9805 16.71C86.4255 16.7111 86.8603 16.8436 87.2303 17.0909C87.6004 17.3382 87.8891 17.6892 88.0605 18.1C88.2277 18.5083 88.2729 18.9564 88.1905 19.39C88.105 19.8272 87.8888 20.2283 87.5705 20.54C87.2577 20.8569 86.8572 21.073 86.4205 21.1603C85.9839 21.2476 85.5311 21.2022 85.1205 21.03C84.7097 20.8586 84.3587 20.5699 84.1114 20.1998C83.8641 19.8298 83.7316 19.395 83.7305 18.95C83.7331 18.355 83.9713 17.7852 84.393 17.3654C84.8147 16.9456 85.3855 16.71 85.9805 16.71V16.71Z" stroke="#BABABA" stroke-width="1.5" stroke-linecap="round" stroke-linejoin="round"/>
<path d="M70.8496 16.71C71.2947 16.7111 71.7295 16.8436 72.0995 17.0909C72.4695 17.3382 72.7583 17.6892 72.9296 18.1C73.0969 18.5083 73.142 18.9564 73.0596 19.39C72.9742 19.8272 72.758 20.2283 72.4396 20.54C72.1268 20.8569 71.7263 21.073 71.2897 21.1603C70.853 21.2476 70.4002 21.2022 69.9896 21.03C69.5789 20.8586 69.2278 20.5699 68.9806 20.1998C68.7333 19.8298 68.6008 19.395 68.5996 18.95C68.6023 18.355 68.8405 17.7852 69.2621 17.3654C69.6838 16.9456 70.2546 16.71 70.8496 16.71V16.71Z" stroke="#BABABA" stroke-width="1.5" stroke-linecap="round" stroke-linejoin="round"/>
<path d="M159.81 13.8699L162.44 11.2599C163.347 10.3952 164.556 9.91812 165.81 9.9299H172.31C173.292 9.92363 174.254 10.2128 175.07 10.7599L179.7 13.8999" stroke="#BABABA" stroke-width="1.5" stroke-linecap="round" stroke-linejoin="round"/>
<path d="M167.1 18.98H177.73" stroke="#BABABA" stroke-width="1.5" stroke-linecap="round" stroke-linejoin="round"/>
<path d="M159.81 13.8701V17.8201C159.81 18.1278 159.932 18.4228 160.149 18.6404C160.367 18.8579 160.662 18.9801 160.97 18.9801H162.6" stroke="#BABABA" stroke-width="1.5" stroke-linecap="round" stroke-linejoin="round"/>
<path d="M182.26 18.9801H183.08C183.274 18.9814 183.467 18.9444 183.646 18.8711C183.826 18.7978 183.989 18.6898 184.126 18.5531C184.264 18.4165 184.373 18.254 184.448 18.075C184.522 17.896 184.56 17.704 184.56 17.5101V15.3501C184.56 14.9576 184.405 14.5812 184.127 14.3036C183.849 14.026 183.473 13.8701 183.08 13.8701H179.73" stroke="#BABABA" stroke-width="1.5" stroke-linecap="round" stroke-linejoin="round"/>
<path d="M179.98 16.71C180.425 16.7111 180.86 16.8436 181.23 17.0909C181.6 17.3382 181.889 17.6892 182.06 18.1C182.232 18.5091 182.277 18.9602 182.189 19.3951C182.102 19.83 181.886 20.2288 181.57 20.54C181.253 20.8507 180.854 21.0656 180.42 21.16C179.983 21.2426 179.532 21.1975 179.12 21.03C178.71 20.8619 178.361 20.5723 178.12 20.2C177.871 19.8308 177.739 19.3953 177.74 18.95C177.743 18.355 177.981 17.7852 178.403 17.3654C178.824 16.9456 179.395 16.71 179.99 16.71H179.98Z" stroke="#BABABA" stroke-width="1.5" stroke-linecap="round" stroke-linejoin="round"/>
<path d="M164.85 16.71C165.295 16.7111 165.729 16.8436 166.099 17.0909C166.47 17.3382 166.758 17.6892 166.93 18.1C167.097 18.5083 167.142 18.9564 167.06 19.39C166.974 19.8272 166.758 20.2283 166.44 20.54C166.127 20.8569 165.726 21.073 165.29 21.1603C164.853 21.2476 164.4 21.2022 163.99 21.03C163.579 20.8586 163.228 20.5699 162.981 20.1998C162.733 19.8298 162.601 19.395 162.6 18.95C162.602 18.355 162.84 17.7852 163.262 17.3654C163.684 16.9456 164.255 16.71 164.85 16.71V16.71Z" stroke="#BABABA" stroke-width="1.5" stroke-linecap="round" stroke-linejoin="round"/>
<path d="M131.69 18.6602H120.81" stroke="#BABABA" stroke-width="1.5" stroke-linecap="round" stroke-linejoin="round"/>
<path d="M115.72 18.6602H112.87C112.529 18.6576 112.204 18.5205 111.964 18.2789C111.724 18.0372 111.59 17.7106 111.59 17.3702V7.26021C111.59 6.91981 111.724 6.5932 111.964 6.35156C112.204 6.10993 112.529 5.97285 112.87 5.97021H139.63C139.97 5.97285 140.296 6.10993 140.536 6.35156C140.775 6.5932 140.91 6.91981 140.91 7.26021V17.3702C140.91 17.7106 140.775 18.0372 140.536 18.2789C140.296 18.5205 139.97 18.6576 139.63 18.6602H136.78" stroke="#BABABA" stroke-width="1.5" stroke-linecap="round" stroke-linejoin="round"/>
<path d="M118.26 16.1201C118.766 16.1195 119.26 16.2692 119.68 16.5501C120.103 16.8243 120.432 17.2224 120.62 17.6901C120.809 18.1523 120.861 18.6591 120.77 19.1501C120.67 19.6431 120.427 20.0957 120.071 20.4514C119.716 20.8071 119.263 21.0501 118.77 21.1501C118.277 21.2447 117.767 21.1928 117.303 21.0008C116.84 20.8089 116.442 20.4854 116.16 20.0701C115.834 19.5813 115.687 18.9948 115.743 18.4099C115.8 17.825 116.057 17.2775 116.47 16.8601C116.951 16.3888 117.597 16.1234 118.27 16.1201H118.26Z" stroke="#BABABA" stroke-width="1.5" stroke-linecap="round" stroke-linejoin="round"/>
<path d="M136.78 18.6801C136.779 18.838 136.762 18.9955 136.73 19.1501C136.634 19.6423 136.394 20.0947 136.04 20.4501C135.682 20.8063 135.226 21.0497 134.73 21.1501C134.237 21.2513 133.724 21.1989 133.26 21.0001C132.792 20.8132 132.391 20.489 132.11 20.0701C131.789 19.5789 131.646 18.9926 131.704 18.4087C131.762 17.8247 132.019 17.2782 132.43 16.8601C132.911 16.3888 133.557 16.1234 134.23 16.1201C134.736 16.1195 135.23 16.2692 135.65 16.5501C136.071 16.8272 136.399 17.2244 136.59 17.6901C136.725 18.0059 136.79 18.347 136.78 18.6901" stroke="#BABABA" stroke-width="1.5" stroke-linecap="round" stroke-linejoin="round"/>
<path d="M126.7 5.99L121.7 1" stroke="#BABABA" stroke-width="1.5" stroke-linecap="round" stroke-linejoin="round"/>
<path d="M131.64 5.99L126.65 1" stroke="#BABABA" stroke-width="1.5" stroke-linecap="round" stroke-linejoin="round"/>
<path d="M115.17 12.3301H137.33" stroke="#BABABA" stroke-width="1.5" stroke-linecap="round" stroke-linejoin="round"/>
<path d="M224.15 18.6602H213.28" stroke="#BABABA" stroke-width="1.5" stroke-linecap="round" stroke-linejoin="round"/>
<path d="M222.15 5.99023H232.09C232.429 5.99019 232.754 6.12335 232.996 6.36097C233.237 6.59858 233.375 6.92158 233.38 7.26023V17.3702C233.38 17.7124 233.244 18.0405 233.003 18.2824C232.761 18.5243 232.433 18.6602 232.09 18.6602H229.74" stroke="#BABABA" stroke-width="1.5" stroke-linecap="round" stroke-linejoin="round"/>
<path d="M210.73 16.1201C211.232 16.1209 211.723 16.2706 212.14 16.5501C212.558 16.8274 212.885 17.2223 213.079 17.685C213.273 18.1477 213.325 18.6575 213.23 19.1501C213.134 19.6445 212.89 20.0979 212.53 20.4501C212.175 20.8061 211.723 21.0495 211.23 21.1501C210.735 21.2468 210.223 21.1959 209.758 21.0039C209.292 20.8119 208.893 20.4872 208.61 20.0701C208.354 19.6871 208.208 19.2418 208.186 18.7819C208.163 18.322 208.267 17.8647 208.485 17.4589C208.702 17.0532 209.026 16.7143 209.422 16.4785C209.817 16.2427 210.269 16.1188 210.73 16.1201V16.1201Z" stroke="#BABABA" stroke-width="1.5" stroke-linecap="round" stroke-linejoin="round"/>
<path d="M229.74 18.6801C229.739 18.8381 229.722 18.9955 229.69 19.1501C229.594 19.6445 229.35 20.0979 228.99 20.4501C228.723 20.7148 228.401 20.9174 228.047 21.0435C227.693 21.1697 227.315 21.2163 226.941 21.18C226.566 21.1437 226.205 21.0255 225.882 20.8337C225.558 20.6418 225.281 20.3811 225.07 20.0701C224.814 19.6871 224.668 19.2418 224.645 18.7819C224.623 18.322 224.727 17.8647 224.945 17.4589C225.162 17.0532 225.486 16.7143 225.882 16.4785C226.277 16.2427 226.729 16.1188 227.19 16.1201V16.1201C227.692 16.1209 228.183 16.2706 228.6 16.5501C229.023 16.8243 229.351 17.2224 229.54 17.6901C229.677 18.0053 229.746 18.3463 229.74 18.6901" stroke="#BABABA" stroke-width="1.5" stroke-linecap="round" stroke-linejoin="round"/>
<path d="M226.7 12.3301H233.38" stroke="#BABABA" stroke-width="1.5" stroke-linecap="round" stroke-linejoin="round"/>
<path d="M226.7 5.99023V12.3302" stroke="#BABABA" stroke-width="1.5" stroke-linecap="round" stroke-linejoin="round"/>
<path d="M213.26 18.66H221.99V4.47998C221.99 4.21476 221.885 3.96041 221.697 3.77287C221.51 3.58534 221.256 3.47998 220.99 3.47998H205.26C204.945 3.47998 204.642 3.60536 204.419 3.82852C204.196 4.05169 204.07 4.35437 204.07 4.66998V17.67C204.07 17.9352 204.176 18.1896 204.363 18.3771C204.551 18.5646 204.805 18.67 205.07 18.67H208.21" stroke="#BABABA" stroke-width="1.5" stroke-linecap="round" stroke-linejoin="round"/>
</svg>
