<svg width="1114" height="82" viewBox="0 0 1114 82" fill="none" xmlns="http://www.w3.org/2000/svg">
<path d="M1112 79.5901H2" stroke="#DADADA" stroke-width="3" stroke-linecap="round" stroke-linejoin="round"/>
<path d="M943.971 16.8201V24.6601H973.061V79.5901H982.881V24.6601H994.811V16.8201H943.971Z" stroke="#DADADA" stroke-width="3" stroke-linecap="round" stroke-linejoin="round"/>
<path d="M977.971 16.82V2" stroke="#DADADA" stroke-width="3" stroke-linecap="round" stroke-linejoin="round"/>
<path d="M943.971 16.82L977.971 2" stroke="#DADADA" stroke-width="3" stroke-linecap="round" stroke-linejoin="round"/>
<path d="M994.811 16.82L977.971 2" stroke="#DADADA" stroke-width="3" stroke-linecap="round" stroke-linejoin="round"/>
<path d="M951.789 24.6599V50.2799" stroke="#DADADA" stroke-width="3" stroke-linecap="round" stroke-linejoin="round"/>
<path d="M777.09 27.8301V35.6701H789.03V79.5901H798.84V35.6701H827.93V27.8301H777.09Z" stroke="#DADADA" stroke-width="3" stroke-linecap="round" stroke-linejoin="round"/>
<path d="M793.93 27.83V13.01" stroke="#DADADA" stroke-width="3" stroke-linecap="round" stroke-linejoin="round"/>
<path d="M827.93 27.83L793.93 13.01" stroke="#DADADA" stroke-width="3" stroke-linecap="round" stroke-linejoin="round"/>
<path d="M777.09 27.83L793.93 13.01" stroke="#DADADA" stroke-width="3" stroke-linecap="round" stroke-linejoin="round"/>
<path d="M820.109 35.6699V50.2799" stroke="#DADADA" stroke-width="3" stroke-linecap="round" stroke-linejoin="round"/>
<path d="M1009.39 71.49H993.801V79.59H1009.39V71.49Z" stroke="#DADADA" stroke-width="3" stroke-linecap="round" stroke-linejoin="round"/>
<path d="M1024.98 71.49H1009.39V79.59H1024.98V71.49Z" stroke="#DADADA" stroke-width="3" stroke-linecap="round" stroke-linejoin="round"/>
<path d="M1017.18 63.3999H1001.59V71.4999H1017.18V63.3999Z" stroke="#DADADA" stroke-width="3" stroke-linecap="round" stroke-linejoin="round"/>
<path d="M960 50.28H943.58V58.81H960V50.28Z" stroke="#DADADA" stroke-width="3" stroke-linecap="round" stroke-linejoin="round"/>
<path d="M828.32 51.54H811.9V60.07H828.32V51.54Z" stroke="#DADADA" stroke-width="3" stroke-linecap="round" stroke-linejoin="round"/>
<path d="M777.971 71.0601H761.551V79.5901H777.971V71.0601Z" stroke="#DADADA" stroke-width="3" stroke-linecap="round" stroke-linejoin="round"/>
<path d="M889.3 54.54H850.5V79.59H889.3V54.54Z" stroke="#DADADA" stroke-width="3" stroke-linecap="round" stroke-linejoin="round"/>
<path d="M926.401 63.3999H889.301V79.5999H926.401V63.3999Z" stroke="#DADADA" stroke-width="3" stroke-linecap="round" stroke-linejoin="round"/>
<path d="M850.5 54.54V42.97" stroke="#DADADA" stroke-width="3" stroke-linecap="round" stroke-linejoin="round"/>
<path d="M859.83 54.5399V35.6699" stroke="#DADADA" stroke-width="3" stroke-linecap="round" stroke-linejoin="round"/>
<path d="M889.301 54.54V37.47" stroke="#DADADA" stroke-width="3" stroke-linecap="round" stroke-linejoin="round"/>
<path d="M880.699 54.54V42.97" stroke="#DADADA" stroke-width="3" stroke-linecap="round" stroke-linejoin="round"/>
</svg>
