<svg width="1114" height="53" viewBox="0 0 1114 53" fill="none" xmlns="http://www.w3.org/2000/svg">
<path d="M1112 51.1499H2" stroke="#DADADA" stroke-width="3" stroke-linecap="round" stroke-linejoin="round"/>
<path d="M702.5 31.27C704.195 31.272 705.851 31.7766 707.259 32.7199C708.668 33.6632 709.765 35.0029 710.411 36.5697C711.058 38.1364 711.226 39.8597 710.893 41.5217C710.561 43.1838 709.743 44.7099 708.543 45.907C707.343 47.1041 705.815 47.9186 704.152 48.2473C702.489 48.576 700.766 48.4043 699.201 47.7538C697.636 47.1034 696.299 46.0034 695.359 44.5929C694.419 43.1825 693.918 41.525 693.92 39.83C693.921 38.7046 694.144 37.5904 694.576 36.5512C695.008 35.5119 695.64 34.5679 696.437 33.773C697.234 32.9782 698.179 32.348 699.22 31.9185C700.26 31.4891 701.375 31.2687 702.5 31.27Z" stroke="#DADADA" stroke-width="3" stroke-linecap="round" stroke-linejoin="round"/>
<path d="M733.35 31.27C735.048 31.2667 736.71 31.7664 738.125 32.7061C739.539 33.6457 740.644 34.9833 741.3 36.55C742.015 38.2545 742.162 40.1439 741.72 41.9386C741.278 43.7333 740.271 45.3382 738.846 46.5159C737.421 47.6936 735.656 48.3817 733.81 48.4783C731.964 48.5749 730.136 48.0749 728.597 47.0523C727.057 46.0297 725.887 44.5388 725.26 42.8C724.633 41.0612 724.583 39.1668 725.116 37.397C725.649 35.6272 726.737 34.0759 728.22 32.9725C729.703 31.8691 731.502 31.2722 733.35 31.27V31.27Z" stroke="#DADADA" stroke-width="3" stroke-linecap="round" stroke-linejoin="round"/>
<path d="M729.48 32.1901L724.24 25.8201H707.57L704.84 31.6101" stroke="#DADADA" stroke-width="3" stroke-linecap="round" stroke-linejoin="round"/>
<path d="M711.051 39.8201H717.841L724.241 25.8201" stroke="#DADADA" stroke-width="3" stroke-linecap="round" stroke-linejoin="round"/>
<path d="M724.24 25.82V21.27H729.02" stroke="#DADADA" stroke-width="3" stroke-linecap="round" stroke-linejoin="round"/>
<path d="M715.03 39.82L714.87 30.17L704.58 21.27L716.17 11.47L717.16 17.45L724.24 21.27" stroke="#DADADA" stroke-width="3" stroke-linecap="round" stroke-linejoin="round"/>
<path d="M717.649 2C718.54 2 719.395 2.354 720.025 2.98412C720.655 3.61424 721.009 4.46887 721.009 5.36V5.36C721.009 6.25113 720.655 7.10576 720.025 7.73588C719.395 8.366 718.54 8.72 717.649 8.72H714.289V5.36C714.289 4.46887 714.643 3.61424 715.273 2.98412C715.903 2.354 716.758 2 717.649 2V2Z" stroke="#DADADA" stroke-width="3" stroke-linecap="round" stroke-linejoin="round"/>
<path d="M835.419 31.27C837.126 31.2568 838.798 31.7519 840.223 32.6921C841.648 33.6324 842.76 34.9754 843.419 36.55C844.133 38.2526 844.281 40.1395 843.841 41.9325C843.401 43.7255 842.396 45.3295 840.975 46.5079C839.553 47.6863 837.791 48.3766 835.948 48.4771C834.104 48.5775 832.277 48.0828 830.736 47.0658C829.196 46.0488 828.022 44.5635 827.39 42.829C826.758 41.0945 826.699 39.2026 827.224 37.4326C827.749 35.6625 828.829 34.108 830.304 32.9984C831.78 31.8888 833.573 31.2829 835.419 31.27V31.27Z" stroke="#DADADA" stroke-width="3" stroke-linecap="round" stroke-linejoin="round"/>
<path d="M866.32 31.27C868.017 31.2687 869.676 31.7693 871.089 32.7089C872.502 33.6484 873.605 34.9848 874.26 36.55C874.917 38.1149 875.091 39.8403 874.759 41.5046C874.428 43.1689 873.606 44.6961 872.4 45.89C871.406 46.8937 870.178 47.6362 868.827 48.0513C867.477 48.4665 866.044 48.5417 864.657 48.27C863.27 47.9984 861.972 47.3884 860.878 46.4942C859.784 45.6001 858.927 44.4495 858.384 43.1446C857.842 41.8398 857.63 40.4211 857.767 39.0146C857.905 37.6082 858.388 36.2575 859.173 35.0825C859.958 33.9076 861.022 32.9448 862.268 32.2797C863.515 31.6146 864.907 31.2678 866.32 31.27V31.27Z" stroke="#DADADA" stroke-width="3" stroke-linecap="round" stroke-linejoin="round"/>
<path d="M862.451 32.1901L857.211 25.8201H840.531L837.811 31.6101" stroke="#DADADA" stroke-width="3" stroke-linecap="round" stroke-linejoin="round"/>
<path d="M844.02 39.8201H850.799L857.21 25.8201" stroke="#DADADA" stroke-width="3" stroke-linecap="round" stroke-linejoin="round"/>
<path d="M857.211 25.82V21.27H861.991" stroke="#DADADA" stroke-width="3" stroke-linecap="round" stroke-linejoin="round"/>
<path d="M848.001 39.82L847.841 30.17L837.551 21.27L849.141 11.47L850.131 17.45L857.211 21.27" stroke="#DADADA" stroke-width="3" stroke-linecap="round" stroke-linejoin="round"/>
<path d="M850.129 2.00001C850.571 1.9987 851.009 2.08464 851.418 2.2529C851.827 2.42117 852.199 2.66846 852.512 2.98059C852.825 3.29273 853.073 3.66358 853.243 4.07188C853.412 4.48019 853.499 4.91793 853.499 5.36001C853.499 6.25114 853.145 7.10577 852.515 7.73589C851.885 8.36602 851.03 8.72002 850.139 8.72002H846.779V5.36001C846.779 4.46889 847.133 3.61426 847.763 2.98414C848.393 2.35401 849.248 2.00001 850.139 2.00001H850.129Z" stroke="#DADADA" stroke-width="3" stroke-linecap="round" stroke-linejoin="round"/>
<path d="M1006.13 31.27C1007.84 31.2568 1009.51 31.7519 1010.93 32.6921C1012.36 33.6324 1013.47 34.9754 1014.13 36.55C1014.84 38.2526 1014.99 40.1395 1014.55 41.9325C1014.11 43.7255 1013.11 45.3295 1011.69 46.5079C1010.26 47.6863 1008.5 48.3766 1006.66 48.4771C1004.82 48.5775 1002.99 48.0828 1001.45 47.0658C999.906 46.0488 998.733 44.5635 998.101 42.829C997.469 41.0945 997.41 39.2026 997.935 37.4326C998.46 35.6625 999.54 34.108 1001.02 32.9984C1002.49 31.8888 1004.28 31.2829 1006.13 31.27V31.27Z" stroke="#DADADA" stroke-width="3" stroke-linecap="round" stroke-linejoin="round"/>
<path d="M1037.02 31.27C1038.73 31.2568 1040.4 31.7519 1041.82 32.6921C1043.25 33.6324 1044.36 34.9754 1045.02 36.55C1045.67 38.116 1045.84 39.8397 1045.51 41.5026C1045.18 43.1654 1044.36 44.6924 1043.16 45.89C1042.17 46.8934 1040.94 47.6357 1039.59 48.051C1038.24 48.4663 1036.81 48.5417 1035.42 48.2705C1034.03 47.9994 1032.73 47.39 1031.64 46.4966C1030.55 45.6032 1029.69 44.4534 1029.15 43.1493C1028.6 41.8451 1028.39 40.427 1028.53 39.0209C1028.66 37.6147 1029.14 36.264 1029.93 35.0888C1030.71 33.9135 1031.77 32.95 1033.02 32.2838C1034.27 31.6176 1035.66 31.2694 1037.07 31.27H1037.02Z" stroke="#DADADA" stroke-width="3" stroke-linecap="round" stroke-linejoin="round"/>
<path d="M1033.16 32.1901L1027.92 25.8201H1011.24L1008.52 31.6101" stroke="#DADADA" stroke-width="3" stroke-linecap="round" stroke-linejoin="round"/>
<path d="M1014.73 39.8201H1021.51L1027.92 25.8201" stroke="#DADADA" stroke-width="3" stroke-linecap="round" stroke-linejoin="round"/>
<path d="M1027.92 25.82V21.27H1032.7" stroke="#DADADA" stroke-width="3" stroke-linecap="round" stroke-linejoin="round"/>
<path d="M1018.71 39.82L1018.54 30.17L1008.26 21.27L1019.85 11.47L1020.84 17.45L1027.92 21.27" stroke="#DADADA" stroke-width="3" stroke-linecap="round" stroke-linejoin="round"/>
<path d="M1020.84 2C1021.73 2 1022.59 2.354 1023.22 2.98412C1023.85 3.61424 1024.2 4.46887 1024.2 5.36V5.36C1024.2 6.25113 1023.85 7.10576 1023.22 7.73588C1022.59 8.366 1021.73 8.72 1020.84 8.72H1017.5V5.36C1017.5 4.46887 1017.85 3.61424 1018.48 2.98412C1019.11 2.354 1019.97 2 1020.86 2H1020.84Z" stroke="#DADADA" stroke-width="3" stroke-linecap="round" stroke-linejoin="round"/>
<path d="M904.3 45.0299C904.3 43.1742 902.796 41.6699 900.94 41.6699C899.084 41.6699 897.58 43.1742 897.58 45.0299C897.58 46.8856 899.084 48.3899 900.94 48.3899C902.796 48.3899 904.3 46.8856 904.3 45.0299Z" stroke="#DADADA" stroke-width="3" stroke-linecap="round" stroke-linejoin="round"/>
<path d="M930.441 45.0299C930.441 43.1742 928.936 41.6699 927.081 41.6699C925.225 41.6699 923.721 43.1742 923.721 45.0299C923.721 46.8856 925.225 48.3899 927.081 48.3899C928.936 48.3899 930.441 46.8856 930.441 45.0299Z" stroke="#DADADA" stroke-width="3" stroke-linecap="round" stroke-linejoin="round"/>
<path d="M904.301 45.03H923.721" stroke="#DADADA" stroke-width="3" stroke-linecap="round" stroke-linejoin="round"/>
<path d="M927.081 41.67L923.061 19.53" stroke="#DADADA" stroke-width="3" stroke-linecap="round" stroke-linejoin="round"/>
<path d="M910.3 43.1801L910.13 33.5301L906.09 25.8201L911.43 14.8301L923.06 19.5301" stroke="#DADADA" stroke-width="3" stroke-linecap="round" stroke-linejoin="round"/>
<path d="M890.109 33.5401H900.109L906.089 25.8201" stroke="#DADADA" stroke-width="3" stroke-linecap="round" stroke-linejoin="round"/>
<path d="M912.139 5.36011C913.03 5.36011 913.885 5.71411 914.515 6.34423C915.145 6.97435 915.499 7.82898 915.499 8.72011V8.72011C915.499 9.61123 915.145 10.4659 914.515 11.096C913.885 11.7261 913.03 12.0801 912.139 12.0801H908.779V8.72011C908.779 7.82898 909.133 6.97435 909.763 6.34423C910.393 5.71411 911.248 5.36011 912.139 5.36011V5.36011Z" stroke="#DADADA" stroke-width="3" stroke-linecap="round" stroke-linejoin="round"/>
<path d="M908.779 20.3601L924.279 26.2801" stroke="#DADADA" stroke-width="3" stroke-linecap="round" stroke-linejoin="round"/>
</svg>
