<svg width="734" height="53" viewBox="0 0 734 53" fill="none" xmlns="http://www.w3.org/2000/svg">
<path d="M732 51.15H2" stroke="#DADADA" stroke-width="3" stroke-linecap="round" stroke-linejoin="round"/>
<path d="M214.991 31.27C216.689 31.2667 218.35 31.7664 219.765 32.7061C221.18 33.6457 222.285 34.9833 222.941 36.55C223.655 38.2545 223.803 40.1439 223.361 41.9386C222.919 43.7333 221.911 45.3382 220.487 46.5159C219.062 47.6936 217.296 48.3817 215.451 48.4783C213.605 48.5749 211.777 48.0749 210.237 47.0523C208.697 46.0297 207.528 44.5388 206.901 42.8C206.274 41.0612 206.223 39.1668 206.756 37.397C207.289 35.6272 208.378 34.0759 209.861 32.9725C211.344 31.8691 213.142 31.2722 214.991 31.27V31.27Z" stroke="#DADADA" stroke-width="3" stroke-linecap="round" stroke-linejoin="round"/>
<path d="M245.891 31.2701C247.588 31.2648 249.249 31.7638 250.663 32.7038C252.076 33.6438 253.179 34.9825 253.831 36.5501C254.487 38.1149 254.661 39.8403 254.33 41.5046C253.998 43.1689 253.177 44.6961 251.971 45.8901C250.976 46.8938 249.749 47.6362 248.398 48.0514C247.047 48.4666 245.614 48.5417 244.228 48.27C242.841 47.9984 241.543 47.3884 240.448 46.4943C239.354 45.6001 238.497 44.4495 237.955 43.1447C237.412 41.8398 237.2 40.4211 237.338 39.0147C237.475 37.6082 237.958 36.2575 238.743 35.0825C239.529 33.9076 240.592 32.9448 241.839 32.2797C243.086 31.6146 244.478 31.2678 245.891 31.2701V31.2701Z" stroke="#DADADA" stroke-width="3" stroke-linecap="round" stroke-linejoin="round"/>
<path d="M242.021 32.1899L236.781 25.8199H220.101L217.381 31.6099" stroke="#DADADA" stroke-width="3" stroke-linecap="round" stroke-linejoin="round"/>
<path d="M223.59 39.8199H230.37L236.78 25.8199" stroke="#DADADA" stroke-width="3" stroke-linecap="round" stroke-linejoin="round"/>
<path d="M236.779 25.82V21.27H241.559" stroke="#DADADA" stroke-width="3" stroke-linecap="round" stroke-linejoin="round"/>
<path d="M227.569 39.82L227.409 30.17L217.119 21.27L228.709 11.47L229.699 17.45L236.779 21.27" stroke="#DADADA" stroke-width="3" stroke-linecap="round" stroke-linejoin="round"/>
<path d="M230.189 2C231.072 2.01313 231.914 2.37292 232.533 3.00163C233.152 3.63033 233.499 4.47747 233.499 5.36V5.36C233.499 6.25113 233.145 7.10576 232.515 7.73588C231.885 8.366 231.03 8.72 230.139 8.72H226.779V5.36C226.779 4.46887 227.133 3.61424 227.763 2.98412C228.394 2.354 229.248 2 230.139 2H230.189Z" stroke="#DADADA" stroke-width="3" stroke-linecap="round" stroke-linejoin="round"/>
<path d="M347.96 31.27C349.667 31.2568 351.339 31.7519 352.764 32.6921C354.189 33.6324 355.301 34.9754 355.96 36.55C356.674 38.2526 356.822 40.1395 356.382 41.9325C355.942 43.7255 354.937 45.3295 353.516 46.5079C352.095 47.6863 350.332 48.3766 348.489 48.4771C346.645 48.5775 344.818 48.0828 343.277 47.0658C341.737 46.0488 340.563 44.5635 339.931 42.829C339.299 41.0945 339.241 39.2026 339.765 37.4326C340.29 35.6625 341.37 34.108 342.845 32.9984C344.321 31.8888 346.114 31.2829 347.96 31.27V31.27Z" stroke="#DADADA" stroke-width="3" stroke-linecap="round" stroke-linejoin="round"/>
<path d="M378.849 31.27C380.548 31.2667 382.209 31.7664 383.624 32.7061C385.039 33.6457 386.144 34.9833 386.799 36.55C387.449 38.116 387.619 39.8398 387.288 41.5026C386.957 43.1654 386.14 44.6924 384.939 45.89C383.945 46.8934 382.718 47.6357 381.368 48.051C380.017 48.4663 378.585 48.5417 377.199 48.2705C375.812 47.9994 374.514 47.39 373.42 46.4966C372.325 45.6032 371.469 44.4534 370.925 43.1493C370.382 41.8451 370.169 40.427 370.306 39.0209C370.442 37.6147 370.924 36.264 371.708 35.0888C372.492 33.9135 373.554 32.95 374.8 32.2838C376.046 31.6176 377.437 31.2694 378.849 31.27V31.27Z" stroke="#DADADA" stroke-width="3" stroke-linecap="round" stroke-linejoin="round"/>
<path d="M374.99 32.1899L369.75 25.8199H353.07L350.35 31.6099" stroke="#DADADA" stroke-width="3" stroke-linecap="round" stroke-linejoin="round"/>
<path d="M356.561 39.8199H363.341L369.751 25.8199" stroke="#DADADA" stroke-width="3" stroke-linecap="round" stroke-linejoin="round"/>
<path d="M369.75 25.82V21.27H374.53" stroke="#DADADA" stroke-width="3" stroke-linecap="round" stroke-linejoin="round"/>
<path d="M360.54 39.82L360.38 30.17L350.09 21.27L361.68 11.47L362.67 17.45L369.75 21.27" stroke="#DADADA" stroke-width="3" stroke-linecap="round" stroke-linejoin="round"/>
<path d="M362.671 2C363.562 2 364.416 2.354 365.046 2.98412C365.677 3.61424 366.031 4.46887 366.031 5.36V5.36C366.031 6.25113 365.677 7.10576 365.046 7.73588C364.416 8.366 363.562 8.72 362.671 8.72H359.311V5.36C359.311 4.46887 359.665 3.61424 360.295 2.98412C360.925 2.354 361.779 2 362.671 2V2Z" stroke="#DADADA" stroke-width="3" stroke-linecap="round" stroke-linejoin="round"/>
<path d="M518.67 31.2701C520.368 31.2648 522.029 31.7638 523.442 32.7038C524.856 33.6438 525.958 34.9825 526.61 36.5501C527.267 38.1149 527.44 39.8403 527.109 41.5046C526.777 43.1689 525.956 44.6961 524.75 45.8901C523.755 46.8938 522.528 47.6362 521.177 48.0514C519.826 48.4666 518.394 48.5417 517.007 48.27C515.62 47.9984 514.322 47.3884 513.227 46.4943C512.133 45.6001 511.277 44.4495 510.734 43.1447C510.191 41.8398 509.979 40.4211 510.117 39.0147C510.255 37.6082 510.737 36.2575 511.523 35.0825C512.308 33.9076 513.371 32.9448 514.618 32.2797C515.865 31.6146 517.257 31.2678 518.67 31.2701V31.2701Z" stroke="#DADADA" stroke-width="3" stroke-linecap="round" stroke-linejoin="round"/>
<path d="M549.56 31.27C551.255 31.272 552.912 31.7766 554.32 32.7199C555.728 33.6632 556.825 35.0029 557.472 36.5697C558.119 38.1364 558.286 39.8597 557.954 41.5217C557.621 43.1838 556.803 44.7099 555.603 45.907C554.403 47.1041 552.875 47.9186 551.213 48.2473C549.55 48.576 547.827 48.4043 546.262 47.7538C544.696 47.1034 543.359 46.0034 542.419 44.5929C541.479 43.1825 540.978 41.525 540.98 39.83C540.982 38.7046 541.205 37.5904 541.637 36.5512C542.069 35.5119 542.701 34.5679 543.498 33.773C544.294 32.9782 545.24 32.348 546.28 31.9185C547.32 31.4891 548.435 31.2687 549.56 31.27V31.27Z" stroke="#DADADA" stroke-width="3" stroke-linecap="round" stroke-linejoin="round"/>
<path d="M545.701 32.1899L540.461 25.8199H523.781L521.051 31.6099" stroke="#DADADA" stroke-width="3" stroke-linecap="round" stroke-linejoin="round"/>
<path d="M527.27 39.8199H534.049L540.46 25.8199" stroke="#DADADA" stroke-width="3" stroke-linecap="round" stroke-linejoin="round"/>
<path d="M540.461 25.82V21.27H545.241" stroke="#DADADA" stroke-width="3" stroke-linecap="round" stroke-linejoin="round"/>
<path d="M531.251 39.82L531.081 30.17L520.801 21.27L532.381 11.47L533.381 17.45L540.461 21.27" stroke="#DADADA" stroke-width="3" stroke-linecap="round" stroke-linejoin="round"/>
<path d="M533.38 2C534.271 2 535.125 2.354 535.755 2.98412C536.385 3.61424 536.74 4.46887 536.74 5.36V5.36C536.74 6.25113 536.385 7.10576 535.755 7.73588C535.125 8.366 534.271 8.72 533.38 8.72H530.02V5.36C530.02 4.46887 530.374 3.61424 531.004 2.98412C531.634 2.354 532.488 2 533.38 2V2Z" stroke="#DADADA" stroke-width="3" stroke-linecap="round" stroke-linejoin="round"/>
<path d="M416.839 45.03C416.839 43.1744 415.335 41.67 413.479 41.67C411.623 41.67 410.119 43.1744 410.119 45.03C410.119 46.8857 411.623 48.39 413.479 48.39C415.335 48.39 416.839 46.8857 416.839 45.03Z" stroke="#DADADA" stroke-width="3" stroke-linecap="round" stroke-linejoin="round"/>
<path d="M442.98 45.03C442.98 43.1744 441.475 41.67 439.62 41.67C437.764 41.67 436.26 43.1744 436.26 45.03C436.26 46.8857 437.764 48.39 439.62 48.39C441.475 48.39 442.98 46.8857 442.98 45.03Z" stroke="#DADADA" stroke-width="3" stroke-linecap="round" stroke-linejoin="round"/>
<path d="M416.84 45.03H436.26" stroke="#DADADA" stroke-width="3" stroke-linecap="round" stroke-linejoin="round"/>
<path d="M439.62 41.67L435.6 19.53" stroke="#DADADA" stroke-width="3" stroke-linecap="round" stroke-linejoin="round"/>
<path d="M422.839 43.18L422.669 33.53L418.619 25.82L423.969 14.83L435.599 19.53" stroke="#DADADA" stroke-width="3" stroke-linecap="round" stroke-linejoin="round"/>
<path d="M402.641 33.5399H412.651L418.621 25.8199" stroke="#DADADA" stroke-width="3" stroke-linecap="round" stroke-linejoin="round"/>
<path d="M424.68 5.35999C425.571 5.35999 426.426 5.71398 427.056 6.34411C427.686 6.97423 428.04 7.82886 428.04 8.71999C428.04 9.61111 427.686 10.4657 427.056 11.0959C426.426 11.726 425.571 12.08 424.68 12.08H421.32V8.71999C421.32 7.82886 421.674 6.97423 422.304 6.34411C422.935 5.71398 423.789 5.35999 424.68 5.35999Z" stroke="#DADADA" stroke-width="3" stroke-linecap="round" stroke-linejoin="round"/>
<path d="M421.32 20.36L436.81 26.28" stroke="#DADADA" stroke-width="3" stroke-linecap="round" stroke-linejoin="round"/>
</svg>
