<svg width="1110" height="84" viewBox="0 0 1110 84" fill="none" xmlns="http://www.w3.org/2000/svg">
<path d="M572.61 82.74L588.44 60.72H568.3V52.77L562.15 52.72H556V60.72H535.86L551.69 82.74" stroke="#BABABA" stroke-width="2" stroke-linecap="round" stroke-linejoin="round"/>
<path d="M622.04 82.7399V36.1099C622.042 35.2957 621.882 34.4893 621.569 33.7374C621.257 32.9855 620.798 32.3032 620.22 31.7299C619.042 30.5689 617.454 29.9187 615.8 29.9199H606.8C605.977 29.9201 605.162 30.0797 604.4 30.3899C603.652 30.7002 602.972 31.1557 602.4 31.7299C601.813 32.295 601.35 32.9761 601.04 33.7299C600.721 34.4792 600.558 35.2855 600.56 36.0999V82.7399" stroke="#BABABA" stroke-width="2" stroke-linecap="round" stroke-linejoin="round"/>
<path d="M650.91 82.7399V36.1099C650.91 35.2968 650.75 34.4916 650.44 33.7399C649.962 32.6057 649.159 31.6381 648.132 30.9585C647.106 30.2789 645.901 29.9176 644.67 29.9199L636.15 30.1699C634.499 30.167 632.913 30.8177 631.74 31.9799C631.162 32.5534 630.702 33.2355 630.388 33.9872C630.074 34.7389 629.911 35.5453 629.91 36.3599V82.7399" stroke="#BABABA" stroke-width="2" stroke-linecap="round" stroke-linejoin="round"/>
<path d="M680.1 68.6599V36.1099C680.1 35.2968 679.94 34.4916 679.63 33.7399C679.32 32.9887 678.861 32.3083 678.28 31.7399C677.106 30.5716 675.516 29.917 673.86 29.9199H664.86C663.225 29.9338 661.66 30.5871 660.5 31.7399C659.921 32.3112 659.461 32.9915 659.147 33.7416C658.833 34.4918 658.671 35.2967 658.67 36.1099V82.6899" stroke="#BABABA" stroke-width="2" stroke-linecap="round" stroke-linejoin="round"/>
<path d="M738.68 48.77L744.39 37.68L734.31 1L724.23 37.68L729.94 48.77" stroke="#BABABA" stroke-width="2" stroke-linecap="round" stroke-linejoin="round"/>
<path d="M831.86 66.56V25.5H822.99V34.29H802.72V25.5H793.85V34.29H778.5V25.5H769.63V56.5" stroke="#BABABA" stroke-width="2" stroke-linecap="round" stroke-linejoin="round"/>
<path d="M888.15 45.1101L885.59 37.3601" stroke="#BABABA" stroke-width="2" stroke-linecap="round" stroke-linejoin="round"/>
<path d="M880.89 45.7501L878.62 39.3501" stroke="#BABABA" stroke-width="2" stroke-linecap="round" stroke-linejoin="round"/>
<path d="M880.38 58.9099L859.65 82.7399" stroke="#BABABA" stroke-width="2" stroke-linecap="round" stroke-linejoin="round"/>
<path d="M892.63 58.5001C894.572 57.6777 896.387 56.5835 898.02 55.2501C899.085 54.3776 900.087 53.432 901.02 52.4201C897.1 48.1401 892.67 45.7201 888.16 45.1301C885.721 44.9273 883.266 45.1438 880.9 45.7701C877.026 47.0022 873.588 49.3249 871 52.4601C873.546 55.3612 876.772 57.5844 880.39 58.9301C882.415 59.5566 884.532 59.8372 886.65 59.7601C888.704 59.7119 890.731 59.2848 892.63 58.5001V58.5001Z" stroke="#BABABA" stroke-width="2" stroke-linecap="round" stroke-linejoin="round"/>
<path d="M900.73 82.69L892.63 58.5" stroke="#BABABA" stroke-width="2" stroke-linecap="round" stroke-linejoin="round"/>
<path d="M888.18 52.76L943.18 82.69" stroke="#BABABA" stroke-width="2" stroke-linecap="round" stroke-linejoin="round"/>
<path d="M893.75 82.69L886.64 60.5" stroke="#BABABA" stroke-width="2" stroke-linecap="round" stroke-linejoin="round"/>
<path d="M1 82.69H658.63C658.63 82.69 667.63 77.47 680.1 68.62C684.965 64.4542 690.298 60.8669 695.99 57.93C706.537 52.4781 718.132 49.3543 729.99 48.77H738.73C749.464 49.3022 759.992 51.9139 769.73 56.46C769.73 56.46 785.67 64.16 791.42 68.62C801.71 64.77 818.42 61.62 831.95 66.56C841.781 70.2975 850.856 75.7787 858.74 82.74H859.74H858.98H1108.82" stroke="#BABABA" stroke-width="2" stroke-linecap="round" stroke-linejoin="round"/>
</svg>
