<svg width="302" height="43" viewBox="0 0 302 43" fill="none" xmlns="http://www.w3.org/2000/svg">
<path d="M63.6427 41.3021L71.4593 30.4468H61.5236V26.5285L58.4849 26.4985H55.4562V30.4468H45.5205L53.3271 41.3021" stroke="#BABABA" stroke-width="1.5" stroke-linecap="round" stroke-linejoin="round"/>
<path d="M88.0229 41.3127V18.3226C88.0253 17.9208 87.9468 17.5227 87.7923 17.1518C87.6378 16.7809 87.4103 16.4448 87.1233 16.1636C86.5428 15.591 85.7595 15.2713 84.9442 15.2739H80.5262C79.7085 15.274 78.9231 15.5932 78.3371 16.1636C78.0528 16.4515 77.8256 16.7907 77.6674 17.1631C77.5165 17.5346 77.4385 17.9317 77.4375 18.3326V41.3227" stroke="#BABABA" stroke-width="1.5" stroke-linecap="round" stroke-linejoin="round"/>
<path d="M102.216 41.3121V18.3221C102.219 17.9203 102.14 17.5221 101.986 17.1512C101.831 16.7803 101.604 16.4443 101.317 16.163C101.031 15.8781 100.691 15.6538 100.317 15.5033C99.9687 15.3541 99.5961 15.2694 99.2175 15.2534L95.0093 15.3734C94.205 15.368 93.4308 15.6796 92.8546 16.2409C92.2784 16.8022 91.9464 17.5678 91.9307 18.3721V41.3121" stroke="#BABABA" stroke-width="1.5" stroke-linecap="round" stroke-linejoin="round"/>
<path d="M116.65 34.3651V18.3121C116.649 17.9111 116.571 17.5141 116.42 17.1426C116.267 16.7676 116.039 16.4276 115.75 16.143C115.465 15.8582 115.125 15.6338 114.751 15.4833C114.379 15.3325 113.982 15.2544 113.581 15.2534H109.143C108.328 15.2518 107.545 15.5714 106.964 16.143C106.677 16.4243 106.45 16.7603 106.295 17.1312C106.141 17.5021 106.062 17.9003 106.065 18.3021V41.2422" stroke="#BABABA" stroke-width="1.5" stroke-linecap="round" stroke-linejoin="round"/>
<path d="M145.537 24.5598L148.356 19.0922L143.358 1L138.36 19.0922L141.199 24.5598" stroke="#BABABA" stroke-width="1.5" stroke-linecap="round" stroke-linejoin="round"/>
<path d="M191.488 33.3259V13.0747H187.11V17.4028H177.114V13.0747H172.746V17.4028H165.189V13.0747H160.821V28.3481" stroke="#BABABA" stroke-width="1.5" stroke-linecap="round" stroke-linejoin="round"/>
<path d="M219.246 22.751L217.986 18.9326" stroke="#BABABA" stroke-width="1.5" stroke-linecap="round" stroke-linejoin="round"/>
<path d="M215.667 23.0703L214.548 19.9116" stroke="#BABABA" stroke-width="1.5" stroke-linecap="round" stroke-linejoin="round"/>
<path d="M215.416 29.5581L205.171 41.313" stroke="#BABABA" stroke-width="1.5" stroke-linecap="round" stroke-linejoin="round"/>
<path d="M221.454 29.3478C222.431 28.9452 223.343 28.4032 224.163 27.7385C224.687 27.3095 225.182 26.8453 225.643 26.3491C224.02 24.436 221.77 23.1609 219.295 22.7507C217.693 22.5892 216.077 22.8363 214.596 23.4691C213.116 24.1019 211.819 25.0996 210.829 26.3691C212.089 27.7974 213.682 28.8927 215.467 29.5577C216.466 29.8673 217.51 30.0059 218.556 29.9676C219.552 29.9382 220.534 29.7282 221.454 29.3478V29.3478Z" stroke="#BABABA" stroke-width="1.5" stroke-linecap="round" stroke-linejoin="round"/>
<path d="M225.452 41.2429L221.454 29.3081" stroke="#BABABA" stroke-width="1.5" stroke-linecap="round" stroke-linejoin="round"/>
<path d="M219.266 26.519L246.394 41.2427" stroke="#BABABA" stroke-width="1.5" stroke-linecap="round" stroke-linejoin="round"/>
<path d="M222.004 41.2423L218.506 30.2471" stroke="#BABABA" stroke-width="1.5" stroke-linecap="round" stroke-linejoin="round"/>
<path d="M1 41.2428H106.064C106.064 41.2428 110.483 38.6639 116.65 34.3058C119.051 32.2512 121.68 30.4803 124.486 29.0281C125.992 28.2707 127.54 27.6031 129.124 27.029C133.002 25.6028 137.073 24.7704 141.199 24.5601H145.507C150.796 24.8214 155.983 26.108 160.781 28.3484C160.781 28.3484 168.637 32.1468 171.476 34.3458C176.544 32.4466 184.81 30.8973 191.467 33.3463C196.318 35.193 200.795 37.9021 204.682 41.3428H205.172H204.792H301" stroke="#BABABA" stroke-width="1.5" stroke-linecap="round" stroke-linejoin="round"/>
</svg>
