<svg width="734" height="86" viewBox="0 0 734 86" fill="none" xmlns="http://www.w3.org/2000/svg">
<path d="M503.82 46.02C502.578 46.1377 501.352 46.3823 500.16 46.75L497.89 40.35M732 83.69H520L511.9 59.5C513.846 58.6801 515.664 57.5856 517.3 56.25C518.365 55.3775 519.367 54.4319 520.3 53.42C516.38 49.14 511.94 46.72 507.44 46.13L504.87 38.38L732 83.69ZM497.05 48.13C494.497 49.4984 492.202 51.3022 490.27 53.46C492.816 56.3611 496.042 58.5844 499.66 59.93L478.93 83.74H477.93C470.046 76.7787 460.971 71.2975 451.14 67.56V26.5H442.27V35.29H421.99V26.5H413.12V35.29H397.78V26.5H388.92V57.5C379.182 52.9539 368.654 50.3422 357.92 49.81L363.63 38.72L353.59 2L343.5 38.68L349.22 49.77C330.867 50.6872 313.338 57.6687 299.38 69.62V37.06C299.381 36.249 299.218 35.4461 298.9 34.7C298.588 33.9498 298.129 33.2698 297.55 32.7C296.977 32.127 296.298 31.6717 295.55 31.36C294.791 31.0498 293.98 30.8902 293.16 30.89H284.16C282.509 30.8892 280.924 31.5396 279.75 32.7C279.171 33.2712 278.711 33.9516 278.397 34.7017C278.083 35.4518 277.921 36.2568 277.92 37.07V83.69H270.21V37.06C270.206 36.2495 270.043 35.4476 269.73 34.7C269.416 33.9457 268.956 33.2611 268.376 32.686C267.796 32.111 267.107 31.6568 266.35 31.35C265.595 31.0389 264.786 30.8792 263.97 30.88L255.44 31.12C253.789 31.1192 252.204 31.7696 251.03 32.93C250.451 33.5034 249.992 34.1856 249.678 34.9373C249.364 35.689 249.201 36.4953 249.2 37.31V83.69H241.33V37.06C241.331 36.2464 241.17 35.4408 240.856 34.6904C240.542 33.94 240.081 33.2599 239.5 32.69C238.322 31.529 236.734 30.8787 235.08 30.88H226.08C225.259 30.8735 224.446 31.0292 223.685 31.3381C222.925 31.647 222.233 32.103 221.65 32.68C221.068 33.2511 220.607 33.9328 220.292 34.685C219.978 35.4372 219.817 36.2448 219.82 37.06V83.69H191.82L207.66 61.69H187.57V53.73L181.41 53.67H175.27V61.67H155.13L170.97 83.67H2L497.05 48.13Z" stroke="#DADADA" stroke-width="3" stroke-linecap="round" stroke-linejoin="round"/>
<path d="M507.5 53.76L562.5 83.69" stroke="#DADADA" stroke-width="3" stroke-linecap="round" stroke-linejoin="round"/>
<path d="M513.02 83.69L505.92 61.5" stroke="#DADADA" stroke-width="3" stroke-linecap="round" stroke-linejoin="round"/>
<path d="M157.109 83.69H277.899C277.899 83.69 286.899 78.47 299.379 69.62" stroke="#DADADA" stroke-width="3" stroke-linecap="round" stroke-linejoin="round"/>
<path d="M478.16 83.6899H520.01" stroke="#DADADA" stroke-width="3" stroke-linecap="round" stroke-linejoin="round"/>
<path d="M388.92 57.5C388.92 57.5 404.86 65.2 410.61 69.66C420.89 65.81 437.61 62.66 451.13 67.6" stroke="#DADADA" stroke-width="3" stroke-linecap="round" stroke-linejoin="round"/>
<path d="M349.221 49.77H357.951" stroke="#DADADA" stroke-width="3" stroke-linecap="round" stroke-linejoin="round"/>
</svg>
