<svg width="1200" height="104" viewBox="0 0 1200 104" fill="none" xmlns="http://www.w3.org/2000/svg">
<g clip-path="url(#clip0_7121_112563)">
<mask id="mask0_7121_112563" style="mask-type:alpha" maskUnits="userSpaceOnUse" x="271" y="48" width="664" height="57">
<rect width="663.487" height="55.6075" transform="matrix(1 0 0 -1 271.246 104.25)" fill="white"/>
</mask>
<g mask="url(#mask0_7121_112563)">
<path d="M933.836 104.695C874.179 104.695 858 99 821.5 98C778.861 96.8318 745.688 102.679 704.5 98.5C683.513 96.3708 667.216 83.5057 644.5 68C628.811 57.2909 600.826 49 571 49C535.408 49 505.009 59.1842 491.5 73.5C482.8 71.0439 473.027 70.859 461.5 72C431.457 74.9686 401.361 104.695 401.361 104.695H270.349" fill="white"/>
</g>
<path d="M793.384 96.9463L781.528 80.45H795.433V74.9625L799.676 74.9238H803.925V80.45H817.83L806.278 97.0307" stroke="#BABABA" stroke-width="1.5" stroke-linecap="round" stroke-linejoin="round"/>
<path d="M725.004 99.1653V62.2684C725.003 61.7072 725.115 61.1516 725.332 60.6342C725.549 60.1148 725.866 59.6433 726.265 59.2466C726.668 58.849 727.144 58.5337 727.667 58.3184C728.19 58.1041 728.75 57.9957 729.315 57.9993H735.501C736.07 57.9932 736.634 58.1017 737.159 58.3184C737.683 58.5299 738.16 58.843 738.562 59.2396C738.964 59.6362 739.284 60.1086 739.503 60.6294C739.72 61.1486 739.832 61.7057 739.832 62.2684V99.0236" stroke="#BABABA" stroke-width="1.5" stroke-linecap="round" stroke-linejoin="round"/>
<path d="M705.079 98.3001V62.2682C705.079 61.707 705.191 61.1514 705.408 60.634C705.626 60.1155 705.943 59.6443 706.341 59.2464C707.155 58.4467 708.25 57.9987 709.391 57.999L715.273 58.1682C716.414 58.1679 717.509 58.6159 718.323 59.4156C718.721 59.8113 719.038 60.282 719.255 60.8005C719.471 61.3191 719.583 61.8754 719.584 62.4374V99.0985" stroke="#BABABA" stroke-width="1.5" stroke-linecap="round" stroke-linejoin="round"/>
<path d="M684.926 92.6798V62.2682C684.934 61.1308 685.392 60.0428 686.2 59.2425C687.008 58.4423 688.101 57.9952 689.238 57.999H695.444C696.583 58 697.676 58.4479 698.489 59.2464C698.887 59.6421 699.204 60.1128 699.421 60.6313C699.637 61.1499 699.749 61.7062 699.75 62.2682V97.5555" stroke="#BABABA" stroke-width="1.5" stroke-linecap="round" stroke-linejoin="round"/>
<path d="M566.886 48.9781L561.748 39.0039L570.811 6.01123L579.873 39.0039L574.735 48.9781" stroke="#BABABA" stroke-width="1.5" stroke-linecap="round" stroke-linejoin="round"/>
<path d="M347.79 77.252L346.021 71.8999" stroke="#BABABA" stroke-width="1.5" stroke-linecap="round" stroke-linejoin="round"/>
<path d="M342.775 77.6963L341.209 73.2725" stroke="#BABABA" stroke-width="1.5" stroke-linecap="round" stroke-linejoin="round"/>
<path d="M342.424 86.7812L328.113 103.239" stroke="#BABABA" stroke-width="1.5" stroke-linecap="round" stroke-linejoin="round"/>
<path d="M350.876 86.4867C352.22 85.9205 353.475 85.1634 354.603 84.2386C355.336 83.6442 356.026 82.9979 356.666 82.3046C353.96 79.3506 350.9 77.6777 347.788 77.2716C346.104 77.1321 344.409 77.2826 342.776 77.7164C340.101 78.5654 337.728 80.1686 335.941 82.3337C337.696 84.3396 339.924 85.8752 342.423 86.801C342.423 86.801 343.873 87.3764 346.773 87.3764C348.184 87.3356 349.575 87.034 350.876 86.4867V86.4867Z" stroke="#BABABA" stroke-width="1.5" stroke-linecap="round" stroke-linejoin="round"/>
<path d="M356.472 103.21L350.875 86.4863" stroke="#BABABA" stroke-width="1.5" stroke-linecap="round" stroke-linejoin="round"/>
<path d="M353.049 85.3765L385.801 103.21" stroke="#BABABA" stroke-width="1.5" stroke-linecap="round" stroke-linejoin="round"/>
<path d="M351.651 103.2L346.75 87.8594" stroke="#BABABA" stroke-width="1.5" stroke-linecap="round" stroke-linejoin="round"/>
<path d="M534.882 47.876C532.765 47.876 531.049 46.1595 531.049 44.042C531.049 41.9245 532.765 40.208 534.882 40.208C536.999 40.208 538.715 41.9245 538.715 44.042C538.715 46.1595 536.999 47.876 534.882 47.876Z" stroke="#BABABA" stroke-width="1.5" stroke-linecap="round" stroke-linejoin="round"/>
<path d="M534.883 52.1881V47.8755" stroke="#BABABA" stroke-width="1.5" stroke-linecap="round" stroke-linejoin="round"/>
<path d="M525.085 50.4136C522.968 50.4136 521.253 48.6971 521.253 46.5796C521.253 44.4621 522.968 42.7456 525.085 42.7456C527.202 42.7456 528.918 44.4621 528.918 46.5796C528.918 48.6971 527.202 50.4136 525.085 50.4136Z" stroke="#BABABA" stroke-width="1.5" stroke-linecap="round" stroke-linejoin="round"/>
<path d="M525.084 54.7262V50.4136" stroke="#BABABA" stroke-width="1.5" stroke-linecap="round" stroke-linejoin="round"/>
<path d="M618.254 55.0216V50.709" stroke="#BABABA" stroke-width="1.5" stroke-linecap="round" stroke-linejoin="round"/>
<path d="M641.527 65.5226V61.21" stroke="#BABABA" stroke-width="1.5" stroke-linecap="round" stroke-linejoin="round"/>
<path d="M651.595 67.7842C649.478 67.7842 647.762 66.0677 647.762 63.9502C647.762 61.8328 649.478 60.1162 651.595 60.1162C653.712 60.1162 655.428 61.8328 655.428 63.9502C655.428 66.0677 653.712 67.7842 651.595 67.7842Z" stroke="#BABABA" stroke-width="1.5" stroke-linecap="round" stroke-linejoin="round"/>
<path d="M651.596 72.0968V67.7842" stroke="#BABABA" stroke-width="1.5" stroke-linecap="round" stroke-linejoin="round"/>
<path d="M768.853 93.4131C766.736 93.4131 765.02 91.6966 765.02 89.5791C765.02 87.4617 766.736 85.7451 768.853 85.7451C770.97 85.7451 772.686 87.4617 772.686 89.5791C772.686 91.6966 770.97 93.4131 768.853 93.4131Z" stroke="#BABABA" stroke-width="1.5" stroke-linecap="round" stroke-linejoin="round"/>
<path d="M768.854 97.7257V93.4131" stroke="#BABABA" stroke-width="1.5" stroke-linecap="round" stroke-linejoin="round"/>
<path d="M757.337 94.479C755.22 94.479 753.505 92.7625 753.505 90.645C753.505 88.5276 755.22 86.811 757.337 86.811C759.454 86.811 761.17 88.5276 761.17 90.645C761.17 92.7625 759.454 94.479 757.337 94.479Z" stroke="#BABABA" stroke-width="1.5" stroke-linecap="round" stroke-linejoin="round"/>
<path d="M757.336 98.7916V94.479" stroke="#BABABA" stroke-width="1.5" stroke-linecap="round" stroke-linejoin="round"/>
<path d="M825.886 93.1407C823.769 93.1407 822.053 91.4241 822.053 89.3067C822.053 87.1892 823.769 85.4727 825.886 85.4727C828.003 85.4727 829.719 87.1892 829.719 89.3067C829.719 91.4241 828.003 93.1407 825.886 93.1407Z" stroke="#BABABA" stroke-width="1.5" stroke-linecap="round" stroke-linejoin="round"/>
<path d="M825.885 97.4533V93.1406" stroke="#BABABA" stroke-width="1.5" stroke-linecap="round" stroke-linejoin="round"/>
<path d="M436.445 74.4429C434.328 74.4429 432.612 72.7263 432.612 70.6089C432.612 68.4914 434.328 66.7749 436.445 66.7749C438.561 66.7749 440.277 68.4914 440.277 70.6089C440.277 72.7263 438.561 74.4429 436.445 74.4429Z" stroke="#BABABA" stroke-width="1.5" stroke-linecap="round" stroke-linejoin="round"/>
<path d="M436.445 78.7555V74.4429" stroke="#BABABA" stroke-width="1.5" stroke-linecap="round" stroke-linejoin="round"/>
<path d="M488.064 71.6093V46.5796H481.979V52.6183H471.457V46.5796H465.372V52.6183H451.467V46.5796H445.382V75.5642" stroke="#BABABA" stroke-width="1.5" stroke-linecap="round" stroke-linejoin="round"/>
<path d="M1200 103.254H894.684C894.684 103.254 845.67 98.57 821.213 97.6283C775.167 95.8552 745.895 102.834 704.707 98.6556C683.72 96.5264 665.872 82.2226 643.156 66.7169C627.468 56.0078 601.107 48.978 571.281 48.978C535.689 48.978 505.09 58.9716 491.581 73.2874C482.881 70.8313 473.418 70.4687 461.891 71.6097C431.847 74.5783 401.959 103.254 401.959 103.254H-2.16574e-05" stroke="#BABABA" stroke-width="1.5" stroke-linecap="square" stroke-linejoin="round"/>
<path d="M592.383 45.4624H601.272L596.825 37.8618L592.383 45.4624Z" stroke="#BABABA" stroke-width="1.5" stroke-linecap="round" stroke-linejoin="round"/>
<path d="M613.891 50.4126H622.853L618.369 43.2407L613.891 50.4126Z" stroke="#BABABA" stroke-width="1.5" stroke-linecap="round" stroke-linejoin="round"/>
<path d="M637.193 60.5728H646.155L641.672 53.4009L637.193 60.5728Z" stroke="#BABABA" stroke-width="1.5" stroke-linecap="round" stroke-linejoin="round"/>
<path d="M596.826 50.0459V45.5659" stroke="#BABABA" stroke-width="1.5" stroke-linecap="round" stroke-linejoin="round"/>
<path d="M560.953 3.87362C560.953 3.20706 560.688 2.5678 560.217 2.09647C559.746 1.62514 559.106 1.36035 558.44 1.36035C557.773 1.36035 557.134 1.62514 556.663 2.09647C556.191 2.5678 555.927 3.20706 555.927 3.87362" stroke="#BABABA" stroke-width="1.5" stroke-linecap="round" stroke-linejoin="round"/>
<path d="M565.951 3.87347C565.966 3.53447 565.912 3.19597 565.792 2.87837C565.673 2.56077 565.49 2.27066 565.256 2.02552C565.021 1.78037 564.739 1.58528 564.427 1.452C564.115 1.31871 563.779 1.25 563.44 1.25C563.101 1.25 562.765 1.31871 562.453 1.452C562.141 1.58528 561.859 1.78037 561.624 2.02552C561.39 2.27066 561.207 2.56077 561.088 2.87837C560.968 3.19597 560.914 3.53447 560.929 3.87347" stroke="#BABABA" stroke-width="1.5" stroke-linecap="round" stroke-linejoin="round"/>
<path d="M550.904 10.3116C550.904 9.64506 550.64 9.0058 550.168 8.53446C549.697 8.06313 549.058 7.79834 548.391 7.79834C547.724 7.79834 547.085 8.06313 546.614 8.53446C546.142 9.0058 545.878 9.64506 545.878 10.3116" stroke="#BABABA" stroke-width="1.5" stroke-linecap="round" stroke-linejoin="round"/>
<path d="M555.925 10.3119C555.94 9.97294 555.886 9.63444 555.767 9.31685C555.647 8.99925 555.465 8.70914 555.23 8.46399C554.996 8.21885 554.714 8.02376 554.402 7.89047C554.09 7.75719 553.754 7.68848 553.414 7.68848C553.075 7.68848 552.739 7.75719 552.427 7.89047C552.115 8.02376 551.833 8.21885 551.599 8.46399C551.364 8.70914 551.182 8.99925 551.062 9.31685C550.943 9.63444 550.889 9.97294 550.904 10.3119" stroke="#BABABA" stroke-width="1.5" stroke-linecap="round" stroke-linejoin="round"/>
<path d="M525.607 12.9474C525.607 12.2808 525.343 11.6415 524.871 11.1702C524.4 10.6989 523.761 10.4341 523.094 10.4341C522.428 10.4341 521.788 10.6989 521.317 11.1702C520.846 11.6415 520.581 12.2808 520.581 12.9474" stroke="#BABABA" stroke-width="1.5" stroke-linecap="round" stroke-linejoin="round"/>
<path d="M530.633 12.9474C530.633 12.2808 530.368 11.6415 529.897 11.1702C529.425 10.6989 528.786 10.4341 528.12 10.4341C527.453 10.4341 526.814 10.6989 526.342 11.1702C525.871 11.6415 525.606 12.2808 525.606 12.9474" stroke="#BABABA" stroke-width="1.5" stroke-linecap="round" stroke-linejoin="round"/>
<path d="M623.283 22.3233C623.283 21.6568 623.018 21.0175 622.547 20.5462C622.076 20.0748 621.436 19.8101 620.77 19.8101C620.103 19.8101 619.464 20.0748 618.993 20.5462C618.521 21.0175 618.257 21.6568 618.257 22.3233" stroke="#BABABA" stroke-width="1.5" stroke-linecap="round" stroke-linejoin="round"/>
<path d="M628.298 22.3232C628.313 21.9842 628.259 21.6457 628.14 21.3281C628.02 21.0105 627.838 20.7204 627.603 20.4752C627.369 20.2301 627.087 20.035 626.775 19.9017C626.463 19.7684 626.127 19.6997 625.787 19.6997C625.448 19.6997 625.112 19.7684 624.8 19.9017C624.488 20.035 624.206 20.2301 623.972 20.4752C623.737 20.7204 623.555 21.0105 623.435 21.3281C623.316 21.6457 623.262 21.9842 623.277 22.3232" stroke="#BABABA" stroke-width="1.5" stroke-linecap="round" stroke-linejoin="round"/>
<path d="M730.557 21.066C730.557 20.3995 730.292 19.7602 729.821 19.2889C729.349 18.8175 728.71 18.5527 728.043 18.5527C727.377 18.5527 726.737 18.8175 726.266 19.2889C725.795 19.7602 725.53 20.3995 725.53 21.066" stroke="#BABABA" stroke-width="1.5" stroke-linecap="round" stroke-linejoin="round"/>
<path d="M735.595 21.0658C735.61 20.7268 735.556 20.3883 735.437 20.0707C735.317 19.7531 735.135 19.463 734.9 19.2179C734.665 18.9728 734.384 18.7777 734.072 18.6444C733.759 18.5111 733.424 18.4424 733.084 18.4424C732.745 18.4424 732.409 18.5111 732.097 18.6444C731.785 18.7777 731.503 18.9728 731.269 19.2179C731.034 19.463 730.851 19.7531 730.732 20.0707C730.613 20.3883 730.559 20.7268 730.573 21.0658" stroke="#BABABA" stroke-width="1.5" stroke-linecap="round" stroke-linejoin="round"/>
</g>
<defs>
<clipPath id="clip0_7121_112563">
<rect width="1200" height="104" fill="white"/>
</clipPath>
</defs>
</svg>
