<svg width="1114" height="57" viewBox="0 0 1114 57" fill="none" xmlns="http://www.w3.org/2000/svg">
<path d="M1112 55.06L905.23 54.82V8.19C905.232 7.37561 905.069 6.56924 904.75 5.82C904.436 5.07123 903.977 4.39165 903.4 3.82C902.227 2.65775 900.641 2.00703 898.99 2.01H889.99C888.339 2.0092 886.754 2.65959 885.58 3.82C885.001 4.39342 884.542 5.0756 884.228 5.82729C883.914 6.57898 883.751 7.38534 883.75 8.2V54.82H876.04V8.19C876.042 7.37561 875.879 6.56924 875.56 5.82C875.246 5.07123 874.787 4.39165 874.21 3.82C873.039 2.65408 871.453 1.99969 869.8 2L861.27 2.25C859.619 2.2492 858.034 2.89959 856.86 4.06C856.281 4.63124 855.821 5.3116 855.507 6.06171C855.193 6.81182 855.031 7.61678 855.03 8.43V55.06L847.17 54.86V8.19C847.172 7.37561 847.009 6.56924 846.69 5.82C846.378 5.06984 845.919 4.38978 845.34 3.82C844.167 2.65775 842.581 2.00703 840.93 2.01H831.93C830.275 1.99859 828.683 2.64203 827.5 3.8C826.923 4.37386 826.462 5.05272 826.14 5.8C825.83 6.55517 825.67 7.36363 825.67 8.18V54.82H2" stroke="#DADADA" stroke-width="3" stroke-linecap="round" stroke-linejoin="round"/>
<path d="M931.391 46.14C935.771 46.14 939.321 42.5896 939.321 38.21C939.321 33.8304 935.771 30.28 931.391 30.28C927.011 30.28 923.461 33.8304 923.461 38.21C923.461 42.5896 927.011 46.14 931.391 46.14Z" stroke="#DADADA" stroke-width="3" stroke-linecap="round" stroke-linejoin="round"/>
<path d="M931.391 54.6799V46.1399" stroke="#DADADA" stroke-width="3" stroke-linecap="round" stroke-linejoin="round"/>
<path d="M956.6 46.14C960.98 46.14 964.53 42.5896 964.53 38.21C964.53 33.8304 960.98 30.28 956.6 30.28C952.22 30.28 948.67 33.8304 948.67 38.21C948.67 42.5896 952.22 46.14 956.6 46.14Z" stroke="#DADADA" stroke-width="3" stroke-linecap="round" stroke-linejoin="round"/>
<path d="M956.6 54.6799V46.1399" stroke="#DADADA" stroke-width="3" stroke-linecap="round" stroke-linejoin="round"/>
<path d="M765.93 46.14C770.31 46.14 773.86 42.5896 773.86 38.21C773.86 33.8304 770.31 30.28 765.93 30.28C761.55 30.28 758 33.8304 758 38.21C758 42.5896 761.55 46.14 765.93 46.14Z" stroke="#DADADA" stroke-width="3" stroke-linecap="round" stroke-linejoin="round"/>
<path d="M765.93 55.0599V46.1399" stroke="#DADADA" stroke-width="3" stroke-linecap="round" stroke-linejoin="round"/>
<path d="M815.76 54.8201H913.48" stroke="#DADADA" stroke-width="3" stroke-linecap="round" stroke-linejoin="round"/>
</svg>
