<svg width="734" height="55" viewBox="0 0 734 55" fill="none" xmlns="http://www.w3.org/2000/svg">
<path d="M732 53.3H2" stroke="#DADADA" stroke-width="3" stroke-linecap="round" stroke-linejoin="round"/>
<path d="M301.56 7.85999H239.26V53.3H301.56V7.85999Z" stroke="#DADADA" stroke-width="3" stroke-linecap="round" stroke-linejoin="round"/>
<path d="M301.57 7.85999H285.41V53.3H301.57V7.85999Z" stroke="#DADADA" stroke-width="3" stroke-linecap="round" stroke-linejoin="round"/>
<path d="M257.39 2H247.99V7.86H257.39V2Z" stroke="#DADADA" stroke-width="3" stroke-linecap="round" stroke-linejoin="round"/>
<path d="M279.81 2H270.41V7.86H279.81V2Z" stroke="#DADADA" stroke-width="3" stroke-linecap="round" stroke-linejoin="round"/>
<path d="M248.99 16.9301V20.6601" stroke="#DADADA" stroke-width="3" stroke-linecap="round" stroke-linejoin="round"/>
<path d="M261.529 16.9301V20.6601" stroke="#DADADA" stroke-width="3" stroke-linecap="round" stroke-linejoin="round"/>
<path d="M274.07 16.9301V20.6601" stroke="#DADADA" stroke-width="3" stroke-linecap="round" stroke-linejoin="round"/>
<path d="M248.99 28.72V32.45" stroke="#DADADA" stroke-width="3" stroke-linecap="round" stroke-linejoin="round"/>
<path d="M261.529 28.72V32.45" stroke="#DADADA" stroke-width="3" stroke-linecap="round" stroke-linejoin="round"/>
<path d="M274.07 28.72V32.45" stroke="#DADADA" stroke-width="3" stroke-linecap="round" stroke-linejoin="round"/>
<path d="M248.99 40.51V44.25" stroke="#DADADA" stroke-width="3" stroke-linecap="round" stroke-linejoin="round"/>
<path d="M261.529 40.51V44.25" stroke="#DADADA" stroke-width="3" stroke-linecap="round" stroke-linejoin="round"/>
<path d="M274.07 40.51V44.25" stroke="#DADADA" stroke-width="3" stroke-linecap="round" stroke-linejoin="round"/>
<path d="M467.841 53.3L530.141 53.3V7.86005L467.841 7.86005V53.3Z" stroke="#DADADA" stroke-width="3" stroke-linecap="round" stroke-linejoin="round"/>
<path d="M467.84 53.3H484V7.86005H467.84V53.3Z" stroke="#DADADA" stroke-width="3" stroke-linecap="round" stroke-linejoin="round"/>
<path d="M512.02 7.85999L521.42 7.85999V1.99999L512.02 1.99999V7.85999Z" stroke="#DADADA" stroke-width="3" stroke-linecap="round" stroke-linejoin="round"/>
<path d="M489.6 7.85999L499 7.85999V1.99999L489.6 1.99999V7.85999Z" stroke="#DADADA" stroke-width="3" stroke-linecap="round" stroke-linejoin="round"/>
<path d="M520.42 16.9301V20.6601" stroke="#DADADA" stroke-width="3" stroke-linecap="round" stroke-linejoin="round"/>
<path d="M507.881 16.9301V20.6601" stroke="#DADADA" stroke-width="3" stroke-linecap="round" stroke-linejoin="round"/>
<path d="M495.34 16.9301V20.6601" stroke="#DADADA" stroke-width="3" stroke-linecap="round" stroke-linejoin="round"/>
<path d="M520.42 28.72V32.45" stroke="#DADADA" stroke-width="3" stroke-linecap="round" stroke-linejoin="round"/>
<path d="M507.881 28.72V32.45" stroke="#DADADA" stroke-width="3" stroke-linecap="round" stroke-linejoin="round"/>
<path d="M495.34 28.72V32.45" stroke="#DADADA" stroke-width="3" stroke-linecap="round" stroke-linejoin="round"/>
<path d="M520.42 40.51V44.25" stroke="#DADADA" stroke-width="3" stroke-linecap="round" stroke-linejoin="round"/>
<path d="M507.881 40.51V44.25" stroke="#DADADA" stroke-width="3" stroke-linecap="round" stroke-linejoin="round"/>
<path d="M495.34 40.51V44.25" stroke="#DADADA" stroke-width="3" stroke-linecap="round" stroke-linejoin="round"/>
<path d="M329.199 16.9301V20.6601" stroke="#DADADA" stroke-width="3" stroke-linecap="round" stroke-linejoin="round"/>
<path d="M341.74 16.9301V20.6601" stroke="#DADADA" stroke-width="3" stroke-linecap="round" stroke-linejoin="round"/>
<path d="M354.289 16.9301V20.6601" stroke="#DADADA" stroke-width="3" stroke-linecap="round" stroke-linejoin="round"/>
<path d="M329.199 28.72V32.45" stroke="#DADADA" stroke-width="3" stroke-linecap="round" stroke-linejoin="round"/>
<path d="M341.74 28.72V32.45" stroke="#DADADA" stroke-width="3" stroke-linecap="round" stroke-linejoin="round"/>
<path d="M354.289 28.72V32.45" stroke="#DADADA" stroke-width="3" stroke-linecap="round" stroke-linejoin="round"/>
<path d="M329.199 40.51V44.25" stroke="#DADADA" stroke-width="3" stroke-linecap="round" stroke-linejoin="round"/>
<path d="M341.74 40.51V44.25" stroke="#DADADA" stroke-width="3" stroke-linecap="round" stroke-linejoin="round"/>
<path d="M354.289 40.51V44.25" stroke="#DADADA" stroke-width="3" stroke-linecap="round" stroke-linejoin="round"/>
<path d="M367.02 16.9301V20.6601" stroke="#DADADA" stroke-width="3" stroke-linecap="round" stroke-linejoin="round"/>
<path d="M379.57 16.9301V20.6601" stroke="#DADADA" stroke-width="3" stroke-linecap="round" stroke-linejoin="round"/>
<path d="M392.109 16.9301V20.6601" stroke="#DADADA" stroke-width="3" stroke-linecap="round" stroke-linejoin="round"/>
<path d="M367.02 28.72V32.45" stroke="#DADADA" stroke-width="3" stroke-linecap="round" stroke-linejoin="round"/>
<path d="M379.57 28.72V32.45" stroke="#DADADA" stroke-width="3" stroke-linecap="round" stroke-linejoin="round"/>
<path d="M392.109 28.72V32.45" stroke="#DADADA" stroke-width="3" stroke-linecap="round" stroke-linejoin="round"/>
<path d="M367.02 40.51V44.25" stroke="#DADADA" stroke-width="3" stroke-linecap="round" stroke-linejoin="round"/>
<path d="M379.57 40.51V44.25" stroke="#DADADA" stroke-width="3" stroke-linecap="round" stroke-linejoin="round"/>
<path d="M392.109 40.51V44.25" stroke="#DADADA" stroke-width="3" stroke-linecap="round" stroke-linejoin="round"/>
<path d="M404.01 16.9301V20.6601" stroke="#DADADA" stroke-width="3" stroke-linecap="round" stroke-linejoin="round"/>
<path d="M404.01 28.72V32.45" stroke="#DADADA" stroke-width="3" stroke-linecap="round" stroke-linejoin="round"/>
<path d="M404.01 40.51V44.25" stroke="#DADADA" stroke-width="3" stroke-linecap="round" stroke-linejoin="round"/>
<path d="M414.08 7.85999H319.49V53.3H414.08V7.85999Z" stroke="#DADADA" stroke-width="3" stroke-linecap="round" stroke-linejoin="round"/>
<path d="M430.24 7.85999H414.08V53.3H430.24V7.85999Z" stroke="#DADADA" stroke-width="3" stroke-linecap="round" stroke-linejoin="round"/>
<path d="M337.621 2H328.221V7.86H337.621V2Z" stroke="#DADADA" stroke-width="3" stroke-linecap="round" stroke-linejoin="round"/>
<path d="M360.041 2H350.641V7.86H360.041V2Z" stroke="#DADADA" stroke-width="3" stroke-linecap="round" stroke-linejoin="round"/>
<path d="M382.679 2H373.279V7.86H382.679V2Z" stroke="#DADADA" stroke-width="3" stroke-linecap="round" stroke-linejoin="round"/>
<path d="M405.31 2H395.91V7.86H405.31V2Z" stroke="#DADADA" stroke-width="3" stroke-linecap="round" stroke-linejoin="round"/>
<path d="M443.719 43.99C448.099 43.99 451.649 40.4396 451.649 36.06C451.649 31.6804 448.099 28.13 443.719 28.13C439.339 28.13 435.789 31.6804 435.789 36.06C435.789 40.4396 439.339 43.99 443.719 43.99Z" stroke="#DADADA" stroke-width="3" stroke-linecap="round" stroke-linejoin="round"/>
<path d="M443.721 52.9V43.99" stroke="#DADADA" stroke-width="3" stroke-linecap="round" stroke-linejoin="round"/>
<path d="M560.95 43.99C565.329 43.99 568.88 40.4396 568.88 36.06C568.88 31.6804 565.329 28.13 560.95 28.13C556.57 28.13 553.02 31.6804 553.02 36.06C553.02 40.4396 556.57 43.99 560.95 43.99Z" stroke="#DADADA" stroke-width="3" stroke-linecap="round" stroke-linejoin="round"/>
<path d="M560.949 52.9V43.99" stroke="#DADADA" stroke-width="3" stroke-linecap="round" stroke-linejoin="round"/>
<path d="M211 43.99C215.38 43.99 218.93 40.4396 218.93 36.06C218.93 31.6804 215.38 28.13 211 28.13C206.621 28.13 203.07 31.6804 203.07 36.06C203.07 40.4396 206.621 43.99 211 43.99Z" stroke="#DADADA" stroke-width="3" stroke-linecap="round" stroke-linejoin="round"/>
<path d="M211 52.9V43.99" stroke="#DADADA" stroke-width="3" stroke-linecap="round" stroke-linejoin="round"/>
<path d="M216.9 30.76C217.973 29.5619 219.383 28.7175 220.946 28.3386C222.509 27.9597 224.149 28.0641 225.651 28.6381C227.153 29.212 228.445 30.2284 229.357 31.5528C230.269 32.8772 230.757 34.4471 230.757 36.055C230.757 37.6629 230.269 39.2328 229.357 40.5572C228.445 41.8816 227.153 42.898 225.651 43.4719C224.149 44.0459 222.509 44.1503 220.946 43.7714C219.383 43.3925 217.973 42.5481 216.9 41.35" stroke="#DADADA" stroke-width="3" stroke-linecap="round" stroke-linejoin="round"/>
<path d="M222.811 52.9V43.99" stroke="#DADADA" stroke-width="3" stroke-linecap="round" stroke-linejoin="round"/>
<path d="M530.09 28.12C532.146 28.193 534.093 29.0609 535.521 30.5411C536.95 32.0212 537.748 33.998 537.748 36.055C537.748 38.112 536.95 40.0888 535.521 41.5689C534.093 43.049 532.146 43.917 530.09 43.99" stroke="#DADADA" stroke-width="3" stroke-linecap="round" stroke-linejoin="round"/>
</svg>
