<svg width="302" height="28" viewBox="0 0 302 28" fill="none" xmlns="http://www.w3.org/2000/svg">
<path d="M301 26.3096H1" stroke="#BABABA" stroke-width="1.5" stroke-linecap="round" stroke-linejoin="round"/>
<path d="M118.79 3.89014H88.0498V26.3101H118.79V3.89014Z" stroke="#BABABA" stroke-width="1.5" stroke-linecap="round" stroke-linejoin="round"/>
<path d="M118.78 3.89014H110.81V26.3101H118.78V3.89014Z" stroke="#BABABA" stroke-width="1.5" stroke-linecap="round" stroke-linejoin="round"/>
<path d="M96.9896 1H92.3496V3.89H96.9896V1Z" stroke="#BABABA" stroke-width="1.5" stroke-linecap="round" stroke-linejoin="round"/>
<path d="M108.06 1H103.42V3.89H108.06V1Z" stroke="#BABABA" stroke-width="1.5" stroke-linecap="round" stroke-linejoin="round"/>
<path d="M92.8496 8.35986V10.1999" stroke="#BABABA" stroke-width="1.5" stroke-linecap="round" stroke-linejoin="round"/>
<path d="M99.0303 8.35986V10.1999" stroke="#BABABA" stroke-width="1.5" stroke-linecap="round" stroke-linejoin="round"/>
<path d="M105.22 8.35986V10.1999" stroke="#BABABA" stroke-width="1.5" stroke-linecap="round" stroke-linejoin="round"/>
<path d="M92.8496 14.1802V16.0202" stroke="#BABABA" stroke-width="1.5" stroke-linecap="round" stroke-linejoin="round"/>
<path d="M99.0303 14.1802V16.0202" stroke="#BABABA" stroke-width="1.5" stroke-linecap="round" stroke-linejoin="round"/>
<path d="M105.22 14.1802V16.0202" stroke="#BABABA" stroke-width="1.5" stroke-linecap="round" stroke-linejoin="round"/>
<path d="M92.8496 20V21.84" stroke="#BABABA" stroke-width="1.5" stroke-linecap="round" stroke-linejoin="round"/>
<path d="M99.0303 20V21.84" stroke="#BABABA" stroke-width="1.5" stroke-linecap="round" stroke-linejoin="round"/>
<path d="M105.22 20V21.84" stroke="#BABABA" stroke-width="1.5" stroke-linecap="round" stroke-linejoin="round"/>
<path d="M200.82 26.3101L231.56 26.3101V3.89006L200.82 3.89006V26.3101Z" stroke="#BABABA" stroke-width="1.5" stroke-linecap="round" stroke-linejoin="round"/>
<path d="M200.82 26.3101H208.79V3.89006H200.82V26.3101Z" stroke="#BABABA" stroke-width="1.5" stroke-linecap="round" stroke-linejoin="round"/>
<path d="M222.6 3.89014L227.24 3.89014V1.00014L222.6 1.00014V3.89014Z" stroke="#BABABA" stroke-width="1.5" stroke-linecap="round" stroke-linejoin="round"/>
<path d="M211.55 3.89014L216.19 3.89014V1.00014L211.55 1.00014V3.89014Z" stroke="#BABABA" stroke-width="1.5" stroke-linecap="round" stroke-linejoin="round"/>
<path d="M226.75 8.35986V10.1999" stroke="#BABABA" stroke-width="1.5" stroke-linecap="round" stroke-linejoin="round"/>
<path d="M220.56 8.35986V10.1999" stroke="#BABABA" stroke-width="1.5" stroke-linecap="round" stroke-linejoin="round"/>
<path d="M214.38 8.35986V10.1999" stroke="#BABABA" stroke-width="1.5" stroke-linecap="round" stroke-linejoin="round"/>
<path d="M226.75 14.1802V16.0202" stroke="#BABABA" stroke-width="1.5" stroke-linecap="round" stroke-linejoin="round"/>
<path d="M220.56 14.1802V16.0202" stroke="#BABABA" stroke-width="1.5" stroke-linecap="round" stroke-linejoin="round"/>
<path d="M214.38 14.1802V16.0202" stroke="#BABABA" stroke-width="1.5" stroke-linecap="round" stroke-linejoin="round"/>
<path d="M226.75 20V21.84" stroke="#BABABA" stroke-width="1.5" stroke-linecap="round" stroke-linejoin="round"/>
<path d="M220.56 20V21.84" stroke="#BABABA" stroke-width="1.5" stroke-linecap="round" stroke-linejoin="round"/>
<path d="M214.38 20V21.84" stroke="#BABABA" stroke-width="1.5" stroke-linecap="round" stroke-linejoin="round"/>
<path d="M132.42 8.35986V10.1999" stroke="#BABABA" stroke-width="1.5" stroke-linecap="round" stroke-linejoin="round"/>
<path d="M138.61 8.35986V10.1999" stroke="#BABABA" stroke-width="1.5" stroke-linecap="round" stroke-linejoin="round"/>
<path d="M144.79 8.35986V10.1999" stroke="#BABABA" stroke-width="1.5" stroke-linecap="round" stroke-linejoin="round"/>
<path d="M132.42 14.1802V16.0202" stroke="#BABABA" stroke-width="1.5" stroke-linecap="round" stroke-linejoin="round"/>
<path d="M138.61 14.1802V16.0202" stroke="#BABABA" stroke-width="1.5" stroke-linecap="round" stroke-linejoin="round"/>
<path d="M144.79 14.1802V16.0202" stroke="#BABABA" stroke-width="1.5" stroke-linecap="round" stroke-linejoin="round"/>
<path d="M132.42 20V21.84" stroke="#BABABA" stroke-width="1.5" stroke-linecap="round" stroke-linejoin="round"/>
<path d="M138.61 20V21.84" stroke="#BABABA" stroke-width="1.5" stroke-linecap="round" stroke-linejoin="round"/>
<path d="M144.79 20V21.84" stroke="#BABABA" stroke-width="1.5" stroke-linecap="round" stroke-linejoin="round"/>
<path d="M151.08 8.35986V10.1999" stroke="#BABABA" stroke-width="1.5" stroke-linecap="round" stroke-linejoin="round"/>
<path d="M157.27 8.35986V10.1999" stroke="#BABABA" stroke-width="1.5" stroke-linecap="round" stroke-linejoin="round"/>
<path d="M163.45 8.35986V10.1999" stroke="#BABABA" stroke-width="1.5" stroke-linecap="round" stroke-linejoin="round"/>
<path d="M151.08 14.1802V16.0202" stroke="#BABABA" stroke-width="1.5" stroke-linecap="round" stroke-linejoin="round"/>
<path d="M157.27 14.1802V16.0202" stroke="#BABABA" stroke-width="1.5" stroke-linecap="round" stroke-linejoin="round"/>
<path d="M163.45 14.1802V16.0202" stroke="#BABABA" stroke-width="1.5" stroke-linecap="round" stroke-linejoin="round"/>
<path d="M151.08 20V21.84" stroke="#BABABA" stroke-width="1.5" stroke-linecap="round" stroke-linejoin="round"/>
<path d="M157.27 20V21.84" stroke="#BABABA" stroke-width="1.5" stroke-linecap="round" stroke-linejoin="round"/>
<path d="M163.45 20V21.84" stroke="#BABABA" stroke-width="1.5" stroke-linecap="round" stroke-linejoin="round"/>
<path d="M169.32 8.35986V10.1999" stroke="#BABABA" stroke-width="1.5" stroke-linecap="round" stroke-linejoin="round"/>
<path d="M169.32 14.1802V16.0202" stroke="#BABABA" stroke-width="1.5" stroke-linecap="round" stroke-linejoin="round"/>
<path d="M169.32 20V21.84" stroke="#BABABA" stroke-width="1.5" stroke-linecap="round" stroke-linejoin="round"/>
<path d="M174.29 3.89014H127.63V26.3101H174.29V3.89014Z" stroke="#BABABA" stroke-width="1.5" stroke-linecap="round" stroke-linejoin="round"/>
<path d="M182.26 3.89014H174.29V26.3101H182.26V3.89014Z" stroke="#BABABA" stroke-width="1.5" stroke-linecap="round" stroke-linejoin="round"/>
<path d="M136.57 1H131.93V3.89H136.57V1Z" stroke="#BABABA" stroke-width="1.5" stroke-linecap="round" stroke-linejoin="round"/>
<path d="M147.64 1H143V3.89H147.64V1Z" stroke="#BABABA" stroke-width="1.5" stroke-linecap="round" stroke-linejoin="round"/>
<path d="M158.8 1H154.16V3.89H158.8V1Z" stroke="#BABABA" stroke-width="1.5" stroke-linecap="round" stroke-linejoin="round"/>
<path d="M169.97 1H165.33V3.89H169.97V1Z" stroke="#BABABA" stroke-width="1.5" stroke-linecap="round" stroke-linejoin="round"/>
<path d="M188.92 21.7101C191.079 21.7101 192.83 19.9596 192.83 17.8001C192.83 15.6407 191.079 13.8901 188.92 13.8901C186.76 13.8901 185.01 15.6407 185.01 17.8001C185.01 19.9596 186.76 21.7101 188.92 21.7101Z" stroke="#BABABA" stroke-width="1.5" stroke-linecap="round" stroke-linejoin="round"/>
<path d="M188.92 26.11V21.71" stroke="#BABABA" stroke-width="1.5" stroke-linecap="round" stroke-linejoin="round"/>
<path d="M246.75 21.7101C248.909 21.7101 250.66 19.9596 250.66 17.8001C250.66 15.6407 248.909 13.8901 246.75 13.8901C244.59 13.8901 242.84 15.6407 242.84 17.8001C242.84 19.9596 244.59 21.7101 246.75 21.7101Z" stroke="#BABABA" stroke-width="1.5" stroke-linecap="round" stroke-linejoin="round"/>
<path d="M246.75 26.11V21.71" stroke="#BABABA" stroke-width="1.5" stroke-linecap="round" stroke-linejoin="round"/>
<path d="M74.1102 21.7101C76.2696 21.7101 78.0202 19.9596 78.0202 17.8001C78.0202 15.6407 76.2696 13.8901 74.1102 13.8901C71.9508 13.8901 70.2002 15.6407 70.2002 17.8001C70.2002 19.9596 71.9508 21.7101 74.1102 21.7101Z" stroke="#BABABA" stroke-width="1.5" stroke-linecap="round" stroke-linejoin="round"/>
<path d="M74.1104 26.11V21.71" stroke="#BABABA" stroke-width="1.5" stroke-linecap="round" stroke-linejoin="round"/>
<path d="M77.0195 15.1901C77.5479 14.6008 78.2426 14.1857 79.0119 13.9997C79.7813 13.8136 80.5889 13.8655 81.3281 14.1483C82.0674 14.4312 82.7034 14.9317 83.152 15.5837C83.6007 16.2358 83.8409 17.0086 83.8409 17.8001C83.8409 18.5916 83.6007 19.3645 83.152 20.0165C82.7034 20.6686 82.0674 21.1691 81.3281 21.452C80.5889 21.7348 79.7813 21.7866 79.0119 21.6006C78.2426 21.4146 77.5479 20.9995 77.0195 20.4101" stroke="#BABABA" stroke-width="1.5" stroke-linecap="round" stroke-linejoin="round"/>
<path d="M79.9297 26.11V21.71" stroke="#BABABA" stroke-width="1.5" stroke-linecap="round" stroke-linejoin="round"/>
<path d="M231.52 13.8901C232.557 13.8901 233.551 14.3021 234.284 15.0353C235.018 15.7686 235.43 16.7631 235.43 17.8001C235.43 18.8371 235.018 19.8317 234.284 20.5649C233.551 21.2982 232.557 21.7101 231.52 21.7101" stroke="#BABABA" stroke-width="1.5" stroke-linecap="round" stroke-linejoin="round"/>
</svg>
