<svg width="734" height="59" viewBox="0 0 734 59" fill="none" xmlns="http://www.w3.org/2000/svg">
<path d="M732 57.11H2" stroke="#DADADA" stroke-width="3" stroke-linecap="round" stroke-linejoin="round"/>
<path d="M265.6 39.19L270.2 33.83C270.925 32.9862 271.824 32.3091 272.836 31.8448C273.847 31.3806 274.947 31.1401 276.06 31.14H287.39C289.132 31.1382 290.824 31.7268 292.19 32.81L300.26 39.19" stroke="#DADADA" stroke-width="3" stroke-linecap="round" stroke-linejoin="round"/>
<path d="M274.73 49.55H296.27" stroke="#DADADA" stroke-width="3" stroke-linecap="round" stroke-linejoin="round"/>
<path d="M265.6 39.19H263.21C262.777 39.19 262.349 39.2759 261.95 39.4429C261.552 39.6098 261.19 39.8544 260.887 40.1624C260.583 40.4705 260.344 40.8358 260.183 41.2371C260.022 41.6384 259.943 42.0677 259.95 42.5V47.2C259.95 47.8233 260.197 48.421 260.638 48.8617C261.079 49.3024 261.676 49.55 262.3 49.55H265.6" stroke="#DADADA" stroke-width="3" stroke-linecap="round" stroke-linejoin="round"/>
<path d="M305.39 49.55H307.06C307.855 49.55 308.618 49.2339 309.181 48.6713C309.744 48.1087 310.06 47.3456 310.06 46.55V42.18C310.06 41.3843 309.744 40.6213 309.181 40.0587C308.618 39.4961 307.855 39.18 307.06 39.18H300.26" stroke="#DADADA" stroke-width="3" stroke-linecap="round" stroke-linejoin="round"/>
<path d="M300.829 44.94C301.73 44.9434 302.611 45.2116 303.361 45.7111C304.111 46.2107 304.698 46.9197 305.049 47.75C305.389 48.5828 305.48 49.4967 305.309 50.38C305.132 51.2603 304.697 52.068 304.059 52.7C303.419 53.3384 302.605 53.7733 301.719 53.95C300.836 54.1201 299.922 54.0298 299.089 53.69C298.119 53.2858 297.319 52.5582 296.824 51.6308C296.33 50.7034 296.171 49.6334 296.376 48.6026C296.581 47.5718 297.137 46.6437 297.949 45.976C298.76 45.3084 299.778 44.9423 300.829 44.94V44.94Z" stroke="#DADADA" stroke-width="3" stroke-linecap="round" stroke-linejoin="round"/>
<path d="M270.159 44.94C271.061 44.9395 271.944 45.2061 272.695 45.7061C273.446 46.2062 274.032 46.9174 274.379 47.75C274.634 48.3725 274.748 49.0437 274.713 49.7154C274.678 50.3871 274.495 51.0428 274.176 51.6353C273.858 52.2279 273.413 52.7428 272.872 53.1429C272.331 53.5431 271.709 53.8187 271.049 53.95C270.166 54.1201 269.252 54.0298 268.419 53.69C267.449 53.2858 266.649 52.5582 266.154 51.6308C265.66 50.7034 265.502 49.6334 265.707 48.6026C265.912 47.5718 266.467 46.6437 267.279 45.976C268.09 45.3084 269.108 44.9423 270.159 44.94V44.94Z" stroke="#DADADA" stroke-width="3" stroke-linecap="round" stroke-linejoin="round"/>
<path d="M370.98 39.19L375.58 33.83C376.306 32.9863 377.205 32.3091 378.217 31.8448C379.228 31.3806 380.328 31.1402 381.44 31.14H392.78C394.523 31.1421 396.213 31.7303 397.58 32.81L405.64 39.19" stroke="#DADADA" stroke-width="3" stroke-linecap="round" stroke-linejoin="round"/>
<path d="M380.109 49.55H401.649" stroke="#DADADA" stroke-width="3" stroke-linecap="round" stroke-linejoin="round"/>
<path d="M370.98 39.19H368.59C368.158 39.19 367.73 39.2759 367.331 39.4429C366.932 39.6098 366.571 39.8544 366.267 40.1624C365.964 40.4705 365.725 40.8358 365.564 41.2371C365.403 41.6384 365.324 42.0677 365.33 42.5V47.2C365.33 47.8233 365.578 48.421 366.019 48.8617C366.459 49.3024 367.057 49.55 367.68 49.55H370.98" stroke="#DADADA" stroke-width="3" stroke-linecap="round" stroke-linejoin="round"/>
<path d="M410.771 49.55H412.441C413.236 49.55 413.999 49.2339 414.562 48.6713C415.125 48.1087 415.441 47.3456 415.441 46.55V42.18C415.441 41.3843 415.125 40.6213 414.562 40.0587C413.999 39.4961 413.236 39.18 412.441 39.18H405.641" stroke="#DADADA" stroke-width="3" stroke-linecap="round" stroke-linejoin="round"/>
<path d="M406.21 44.94C406.884 44.9374 407.551 45.0847 408.162 45.3714C408.772 45.658 409.311 46.0768 409.74 46.5975C410.169 47.1182 410.477 47.7276 410.641 48.3818C410.805 49.036 410.822 49.7185 410.69 50.38C410.513 51.2603 410.078 52.068 409.44 52.7C408.8 53.3384 407.986 53.7733 407.1 53.95C406.217 54.1201 405.303 54.0298 404.47 53.69C403.5 53.2858 402.699 52.5582 402.205 51.6308C401.711 50.7034 401.552 49.6334 401.757 48.6026C401.962 47.5718 402.518 46.6437 403.329 45.976C404.141 45.3084 405.159 44.9423 406.21 44.94V44.94Z" stroke="#DADADA" stroke-width="3" stroke-linecap="round" stroke-linejoin="round"/>
<path d="M375.501 44.94C376.403 44.9395 377.285 45.2061 378.036 45.7061C378.787 46.2062 379.373 46.9174 379.721 47.75C380.071 48.5804 380.161 49.4972 379.981 50.38C379.804 51.2603 379.369 52.068 378.731 52.7C378.091 53.3384 377.277 53.7733 376.391 53.95C375.508 54.1201 374.594 54.0298 373.761 53.69C372.791 53.2858 371.991 52.5582 371.496 51.6308C371.002 50.7034 370.843 49.6334 371.048 48.6026C371.253 47.5718 371.809 46.6437 372.621 45.976C373.432 45.3084 374.45 44.9423 375.501 44.94V44.94Z" stroke="#DADADA" stroke-width="3" stroke-linecap="round" stroke-linejoin="round"/>
<path d="M472.06 39.19L467.5 33.83C466.773 32.986 465.872 32.3088 464.859 31.8446C463.846 31.3804 462.745 31.14 461.63 31.14H450.27C448.528 31.1398 446.836 31.7283 445.47 32.81L437.4 39.19" stroke="#DADADA" stroke-width="3" stroke-linecap="round" stroke-linejoin="round"/>
<path d="M462.931 49.55H441.391" stroke="#DADADA" stroke-width="3" stroke-linecap="round" stroke-linejoin="round"/>
<path d="M472.061 39.19H474.501C475.366 39.2032 476.191 39.559 476.795 40.1795C477.398 40.7999 477.731 41.6344 477.721 42.5V47.2C477.721 47.5086 477.66 47.8142 477.542 48.0993C477.424 48.3844 477.25 48.6435 477.032 48.8617C476.814 49.0799 476.555 49.253 476.27 49.3711C475.985 49.4892 475.679 49.55 475.371 49.55H472.061" stroke="#DADADA" stroke-width="3" stroke-linecap="round" stroke-linejoin="round"/>
<path d="M432.27 49.55H430.6C429.804 49.55 429.041 49.2339 428.478 48.6713C427.916 48.1087 427.6 47.3456 427.6 46.55V42.18C427.6 41.3843 427.916 40.6213 428.478 40.0587C429.041 39.4961 429.804 39.18 430.6 39.18H437.4" stroke="#DADADA" stroke-width="3" stroke-linecap="round" stroke-linejoin="round"/>
<path d="M436.831 44.94C435.712 44.954 434.637 45.3802 433.812 46.1369C432.987 46.8937 432.47 47.9279 432.36 49.0419C432.25 50.1558 432.554 51.2713 433.215 52.1749C433.875 53.0786 434.846 53.707 435.941 53.94C436.828 54.1103 437.745 54.02 438.581 53.68C439.552 53.2754 440.353 52.547 440.847 51.6185C441.341 50.6901 441.499 49.6191 441.293 48.5877C441.086 47.5562 440.529 46.6281 439.716 45.9613C438.902 45.2944 437.883 44.93 436.831 44.93V44.94Z" stroke="#DADADA" stroke-width="3" stroke-linecap="round" stroke-linejoin="round"/>
<path d="M467.5 44.94C466.598 44.9434 465.718 45.2116 464.968 45.7111C464.217 46.2107 463.63 46.9197 463.28 47.75C462.939 48.5828 462.849 49.4967 463.02 50.38C463.197 51.2603 463.632 52.068 464.27 52.7C464.909 53.3384 465.723 53.7733 466.61 53.95C467.493 54.1201 468.407 54.0298 469.24 53.69C470.21 53.2858 471.01 52.5582 471.505 51.6308C471.999 50.7034 472.157 49.6334 471.952 48.6026C471.747 47.5718 471.192 46.6437 470.38 45.976C469.568 45.3084 468.551 44.9423 467.5 44.94V44.94Z" stroke="#DADADA" stroke-width="3" stroke-linecap="round" stroke-linejoin="round"/>
<path d="M349.53 2H328.58C327.166 2 326.02 3.14615 326.02 4.56V25.51C326.02 26.9238 327.166 28.07 328.58 28.07H349.53C350.943 28.07 352.09 26.9238 352.09 25.51V4.56C352.09 3.14615 350.943 2 349.53 2Z" stroke="#DADADA" stroke-width="3" stroke-linecap="round" stroke-linejoin="round"/>
<path d="M335.881 8.67999H339.881C340.788 8.67999 341.658 9.04031 342.299 9.68169C342.941 10.3231 343.301 11.193 343.301 12.1V13.19C343.301 14.097 342.941 14.9669 342.299 15.6083C341.658 16.2497 340.788 16.61 339.881 16.61H335.881V8.67999Z" stroke="#DADADA" stroke-width="3" stroke-linecap="round" stroke-linejoin="round"/>
<path d="M335.881 21.35V16.07" stroke="#DADADA" stroke-width="3" stroke-linecap="round" stroke-linejoin="round"/>
<path d="M339.59 28.07V57.11" stroke="#DADADA" stroke-width="3" stroke-linecap="round" stroke-linejoin="round"/>
</svg>
