<svg width="1114" height="74" viewBox="0 0 1114 74" fill="none" xmlns="http://www.w3.org/2000/svg">
<path d="M1112 71.5481H2" stroke="#DADADA" stroke-width="3" stroke-linecap="round" stroke-linejoin="round"/>
<path d="M763.939 46.728C764.058 44.3211 764.937 42.014 766.45 40.1384C767.963 38.2627 770.032 36.9153 772.359 36.2898C774.686 35.6643 777.152 35.793 779.401 36.6574C781.651 37.5218 783.568 39.0774 784.877 41.1004C786.187 43.1233 786.821 45.5095 786.688 47.9156C786.556 50.3217 785.664 52.6238 784.14 54.4908C782.617 56.3578 780.54 57.6935 778.209 58.3057C775.879 58.9179 773.414 58.7752 771.169 57.898" stroke="#DADADA" stroke-width="3" stroke-linecap="round" stroke-linejoin="round"/>
<path d="M775.33 71.548V58.718" stroke="#DADADA" stroke-width="3" stroke-linecap="round" stroke-linejoin="round"/>
<path d="M763.93 62.6281C768.31 62.6281 771.86 59.0777 771.86 54.6981C771.86 50.3184 768.31 46.7681 763.93 46.7681C759.55 46.7681 756 50.3184 756 54.6981C756 59.0777 759.55 62.6281 763.93 62.6281Z" stroke="#DADADA" stroke-width="3" stroke-linecap="round" stroke-linejoin="round"/>
<path d="M763.93 71.5479V62.6279" stroke="#DADADA" stroke-width="3" stroke-linecap="round" stroke-linejoin="round"/>
<path d="M951 58.718C957.296 58.718 962.4 53.614 962.4 47.318C962.4 41.0219 957.296 35.918 951 35.918C944.704 35.918 939.6 41.0219 939.6 47.318C939.6 53.614 944.704 58.718 951 58.718Z" stroke="#DADADA" stroke-width="3" stroke-linecap="round" stroke-linejoin="round"/>
<path d="M951 71.548V58.718" stroke="#DADADA" stroke-width="3" stroke-linecap="round" stroke-linejoin="round"/>
<path d="M996.41 62.6281C1000.79 62.6281 1004.34 59.0777 1004.34 54.6981C1004.34 50.3184 1000.79 46.7681 996.41 46.7681C992.031 46.7681 988.48 50.3184 988.48 54.6981C988.48 59.0777 992.031 62.6281 996.41 62.6281Z" stroke="#DADADA" stroke-width="3" stroke-linecap="round" stroke-linejoin="round"/>
<path d="M996.41 71.5479V62.6279" stroke="#DADADA" stroke-width="3" stroke-linecap="round" stroke-linejoin="round"/>
<path d="M850.92 38.3079C850.92 36.9288 851.468 35.6061 852.443 34.631C853.418 33.6558 854.741 33.1079 856.12 33.1079C857.499 33.1079 858.822 33.6558 859.797 34.631C860.772 35.6061 861.32 36.9288 861.32 38.3079V42.2179" stroke="#DADADA" stroke-width="3" stroke-linecap="round" stroke-linejoin="round"/>
<path d="M850.92 38.3079C850.951 37.6065 850.84 36.9061 850.592 36.249C850.345 35.5919 849.967 34.9916 849.482 34.4844C848.997 33.9772 848.414 33.5736 847.768 33.2978C847.122 33.0221 846.427 32.8799 845.725 32.8799C845.023 32.8799 844.328 33.0221 843.683 33.2978C843.037 33.5736 842.454 33.9772 841.969 34.4844C841.483 34.9916 841.106 35.5919 840.858 36.249C840.611 36.9061 840.5 37.6065 840.53 38.3079V42.2179" stroke="#DADADA" stroke-width="3" stroke-linecap="round" stroke-linejoin="round"/>
<path d="M868.891 61.238H832.961V71.548H868.891V61.238Z" stroke="#DADADA" stroke-width="3" stroke-linecap="round" stroke-linejoin="round"/>
<path d="M850.92 60.5781V38.5081" stroke="#DADADA" stroke-width="3" stroke-linecap="round" stroke-linejoin="round"/>
<path d="M951.001 69.078C951.001 66.248 947.941 63.958 944.171 63.958C943.348 63.9553 942.53 64.0697 941.741 64.298C941.012 62.6492 939.81 61.2534 938.289 60.2869C936.767 59.3205 934.993 58.8267 933.191 58.868C931.109 58.7988 929.069 59.4611 927.424 60.7399C925.78 62.0187 924.636 63.8332 924.191 65.868C923.628 65.5759 923.004 65.4217 922.371 65.418C921.294 65.418 920.261 65.8457 919.5 66.6071C918.738 67.3685 918.311 68.4012 918.311 69.478V71.538H951.001V69.458C951.011 69.3315 951.011 69.2044 951.001 69.078V69.078Z" stroke="#DADADA" stroke-width="3" stroke-linecap="round" stroke-linejoin="round"/>
<path d="M716.5 69.078C716.5 66.248 719.56 63.958 723.33 63.958C724.152 63.9566 724.97 64.0711 725.76 64.298C726.487 62.65 727.687 61.2545 729.207 60.288C730.727 59.3215 732.499 58.8274 734.3 58.868C736.382 58.7988 738.422 59.4611 740.066 60.7399C741.71 62.0187 742.855 63.8332 743.3 65.868C743.862 65.5759 744.486 65.4217 745.12 65.418C746.197 65.418 747.229 65.8457 747.991 66.6071C748.752 67.3685 749.18 68.4012 749.18 69.478V71.538H716.5V69.458C716.55 69.338 716.5 69.208 716.5 69.078Z" stroke="#DADADA" stroke-width="3" stroke-linecap="round" stroke-linejoin="round"/>
<path d="M891.29 64.5281H881.83V71.5481H891.29V64.5281Z" stroke="#DADADA" stroke-width="3" stroke-linecap="round" stroke-linejoin="round"/>
<path d="M891.279 64.528L894.099 56.478" stroke="#DADADA" stroke-width="3" stroke-linecap="round" stroke-linejoin="round"/>
<path d="M811.251 71.5481H820.711V64.5281H811.251V71.5481Z" stroke="#DADADA" stroke-width="3" stroke-linecap="round" stroke-linejoin="round"/>
<path d="M811.259 64.528L808.439 56.478" stroke="#DADADA" stroke-width="3" stroke-linecap="round" stroke-linejoin="round"/>
<path d="M969.53 71.5481H978.99V64.5281H969.53V71.5481Z" stroke="#DADADA" stroke-width="3" stroke-linecap="round" stroke-linejoin="round"/>
<path d="M969.531 64.528L966.711 56.478" stroke="#DADADA" stroke-width="3" stroke-linecap="round" stroke-linejoin="round"/>
<path d="M909.881 21.888C909.881 20.5089 910.429 19.1862 911.404 18.211C912.379 17.2358 913.702 16.688 915.081 16.688C916.46 16.688 917.783 17.2358 918.758 18.211C919.733 19.1862 920.281 20.5089 920.281 21.888" stroke="#DADADA" stroke-width="3" stroke-linecap="round" stroke-linejoin="round"/>
<path d="M899.499 21.8879C899.468 21.1865 899.58 20.4862 899.827 19.8291C900.074 19.172 900.452 18.5717 900.937 18.0645C901.423 17.5573 902.006 17.1537 902.652 16.8779C903.297 16.6021 903.992 16.46 904.694 16.46C905.396 16.46 906.091 16.6021 906.737 16.8779C907.382 17.1537 907.965 17.5573 908.451 18.0645C908.936 18.5717 909.314 19.172 909.561 19.8291C909.808 20.4862 909.92 21.1865 909.889 21.8879" stroke="#DADADA" stroke-width="3" stroke-linecap="round" stroke-linejoin="round"/>
<path d="M884.18 7.42803C884.18 6.0489 884.728 4.72626 885.703 3.75107C886.678 2.77588 888.001 2.22803 889.38 2.22803C890.759 2.22803 892.081 2.77588 893.057 3.75107C894.032 4.72626 894.58 6.0489 894.58 7.42803" stroke="#DADADA" stroke-width="3" stroke-linecap="round" stroke-linejoin="round"/>
<path d="M873.79 7.42798C873.759 6.72659 873.871 6.02623 874.118 5.36911C874.365 4.712 874.743 4.11175 875.229 3.60455C875.714 3.09735 876.297 2.6937 876.943 2.41793C877.588 2.14217 878.283 2 878.985 2C879.687 2 880.382 2.14217 881.028 2.41793C881.673 2.6937 882.256 3.09735 882.742 3.60455C883.227 4.11175 883.605 4.712 883.852 5.36911C884.099 6.02623 884.211 6.72659 884.18 7.42798" stroke="#DADADA" stroke-width="3" stroke-linecap="round" stroke-linejoin="round"/>
<path d="M840.529 49.1379V54.2779" stroke="#DADADA" stroke-width="3" stroke-linecap="round" stroke-linejoin="round"/>
<path d="M861.32 49.1379V54.2779" stroke="#DADADA" stroke-width="3" stroke-linecap="round" stroke-linejoin="round"/>
</svg>
