<svg width="734" height="74" viewBox="0 0 734 74" fill="none" xmlns="http://www.w3.org/2000/svg">
<path d="M732 71.548H2" stroke="#DADADA" stroke-width="3" stroke-linecap="round" stroke-linejoin="round"/>
<path d="M266.5 46.728C266.615 44.4996 267.382 42.354 268.704 40.5566C270.026 38.7593 271.846 37.389 273.939 36.6155C276.032 35.842 278.306 35.6991 280.479 36.2046C282.653 36.71 284.63 37.8416 286.167 39.4593C287.704 41.077 288.733 43.1099 289.126 45.3062C289.519 47.5026 289.26 49.7661 288.38 51.8167C287.501 53.8673 286.039 55.6149 284.176 56.8433C282.313 58.0717 280.131 58.7269 277.9 58.728C276.474 58.7281 275.06 58.4636 273.73 57.948" stroke="#DADADA" stroke-width="3" stroke-linecap="round" stroke-linejoin="round"/>
<path d="M277.869 71.548V58.718" stroke="#DADADA" stroke-width="3" stroke-linecap="round" stroke-linejoin="round"/>
<path d="M266.459 62.628C270.839 62.628 274.389 59.0776 274.389 54.698C274.389 50.3184 270.839 46.768 266.459 46.768C262.08 46.768 258.529 50.3184 258.529 54.698C258.529 59.0776 262.08 62.628 266.459 62.628Z" stroke="#DADADA" stroke-width="3" stroke-linecap="round" stroke-linejoin="round"/>
<path d="M266.461 71.548V62.628" stroke="#DADADA" stroke-width="3" stroke-linecap="round" stroke-linejoin="round"/>
<path d="M453.531 58.718C459.827 58.718 464.931 53.614 464.931 47.318C464.931 41.0219 459.827 35.918 453.531 35.918C447.235 35.918 442.131 41.0219 442.131 47.318C442.131 53.614 447.235 58.718 453.531 58.718Z" stroke="#DADADA" stroke-width="3" stroke-linecap="round" stroke-linejoin="round"/>
<path d="M453.529 71.548V58.718" stroke="#DADADA" stroke-width="3" stroke-linecap="round" stroke-linejoin="round"/>
<path d="M498.94 62.628C503.319 62.628 506.87 59.0776 506.87 54.698C506.87 50.3184 503.319 46.768 498.94 46.768C494.56 46.768 491.01 50.3184 491.01 54.698C491.01 59.0776 494.56 62.628 498.94 62.628Z" stroke="#DADADA" stroke-width="3" stroke-linecap="round" stroke-linejoin="round"/>
<path d="M498.939 71.548V62.628" stroke="#DADADA" stroke-width="3" stroke-linecap="round" stroke-linejoin="round"/>
<path d="M353.499 38.308C353.468 37.6066 353.58 36.9062 353.827 36.2491C354.074 35.592 354.452 34.9918 354.937 34.4846C355.423 33.9774 356.006 33.5737 356.652 33.2979C357.297 33.0222 357.992 32.88 358.694 32.88C359.396 32.88 360.091 33.0222 360.737 33.2979C361.382 33.5737 361.965 33.9774 362.451 34.4846C362.936 34.9918 363.314 35.592 363.561 36.2491C363.808 36.9062 363.92 37.6066 363.889 38.308V42.218" stroke="#DADADA" stroke-width="3" stroke-linecap="round" stroke-linejoin="round"/>
<path d="M353.5 38.308C353.5 36.9288 352.952 35.6062 351.977 34.631C351.001 33.6558 349.679 33.108 348.3 33.108C346.92 33.108 345.598 33.6558 344.623 34.631C343.647 35.6062 343.1 36.9288 343.1 38.308V42.218" stroke="#DADADA" stroke-width="3" stroke-linecap="round" stroke-linejoin="round"/>
<path d="M371.42 61.238H335.49V71.548H371.42V61.238Z" stroke="#DADADA" stroke-width="3" stroke-linecap="round" stroke-linejoin="round"/>
<path d="M353.461 60.578V38.508" stroke="#DADADA" stroke-width="3" stroke-linecap="round" stroke-linejoin="round"/>
<path d="M453.5 69.078C453.5 66.248 450.44 63.958 446.67 63.958C445.848 63.9559 445.03 64.0704 444.24 64.298C443.513 62.65 442.314 61.2545 440.794 60.288C439.274 59.3215 437.501 58.8274 435.7 58.868C433.619 58.7988 431.578 59.4611 429.934 60.7399C428.29 62.0187 427.146 63.8332 426.7 65.868C426.138 65.5759 425.514 65.4217 424.88 65.418C423.804 65.418 422.771 65.8457 422.009 66.6071C421.248 67.3685 420.82 68.4012 420.82 69.478V71.538H453.5V69.458C453.5 69.338 453.5 69.208 453.5 69.078Z" stroke="#DADADA" stroke-width="3" stroke-linecap="round" stroke-linejoin="round"/>
<path d="M219.07 69.078C219.07 66.248 222.13 63.958 225.9 63.958C226.722 63.9559 227.54 64.0704 228.33 64.298C229.059 62.6492 230.26 61.2534 231.782 60.2869C233.304 59.3205 235.078 58.8267 236.88 58.868C238.962 58.7988 241.002 59.4611 242.646 60.7399C244.291 62.0187 245.435 63.8332 245.88 65.868C246.443 65.5759 247.066 65.4217 247.7 65.418C248.777 65.418 249.81 65.8457 250.571 66.6071C251.332 67.3685 251.76 68.4012 251.76 69.478V71.538H219.07V69.458C219.06 69.3315 219.06 69.2044 219.07 69.078V69.078Z" stroke="#DADADA" stroke-width="3" stroke-linecap="round" stroke-linejoin="round"/>
<path d="M393.819 64.528H384.359V71.548H393.819V64.528Z" stroke="#DADADA" stroke-width="3" stroke-linecap="round" stroke-linejoin="round"/>
<path d="M393.82 64.528L396.64 56.478" stroke="#DADADA" stroke-width="3" stroke-linecap="round" stroke-linejoin="round"/>
<path d="M313.79 71.548H323.25V64.528H313.79V71.548Z" stroke="#DADADA" stroke-width="3" stroke-linecap="round" stroke-linejoin="round"/>
<path d="M313.791 64.528L310.971 56.478" stroke="#DADADA" stroke-width="3" stroke-linecap="round" stroke-linejoin="round"/>
<path d="M472.069 71.548H481.529V64.528H472.069V71.548Z" stroke="#DADADA" stroke-width="3" stroke-linecap="round" stroke-linejoin="round"/>
<path d="M472.06 64.528L469.24 56.478" stroke="#DADADA" stroke-width="3" stroke-linecap="round" stroke-linejoin="round"/>
<path d="M412.419 21.888C412.388 21.1866 412.5 20.4862 412.747 19.8291C412.994 19.172 413.372 18.5718 413.857 18.0646C414.343 17.5574 414.926 17.1537 415.572 16.878C416.217 16.6022 416.912 16.46 417.614 16.46C418.316 16.46 419.011 16.6022 419.657 16.878C420.302 17.1537 420.885 17.5574 421.371 18.0646C421.856 18.5718 422.234 19.172 422.481 19.8291C422.728 20.4862 422.84 21.1866 422.809 21.888" stroke="#DADADA" stroke-width="3" stroke-linecap="round" stroke-linejoin="round"/>
<path d="M402.02 21.888C402.02 20.5089 402.567 19.1862 403.543 18.211C404.518 17.2358 405.84 16.688 407.22 16.688C408.599 16.688 409.921 17.2358 410.896 18.211C411.872 19.1862 412.42 20.5089 412.42 21.888" stroke="#DADADA" stroke-width="3" stroke-linecap="round" stroke-linejoin="round"/>
<path d="M386.72 7.42798C386.689 6.72659 386.801 6.02623 387.048 5.36911C387.295 4.712 387.673 4.11175 388.158 3.60455C388.644 3.09735 389.227 2.6937 389.872 2.41793C390.518 2.14217 391.213 2 391.915 2C392.617 2 393.312 2.14217 393.957 2.41793C394.603 2.6937 395.186 3.09735 395.672 3.60455C396.157 4.11175 396.535 4.712 396.782 5.36911C397.029 6.02623 397.141 6.72659 397.11 7.42798" stroke="#DADADA" stroke-width="3" stroke-linecap="round" stroke-linejoin="round"/>
<path d="M376.32 7.42797C376.32 6.04884 376.868 4.7262 377.843 3.75101C378.819 2.77582 380.141 2.22797 381.52 2.22797C382.899 2.22797 384.222 2.77582 385.197 3.75101C386.172 4.7262 386.72 6.04884 386.72 7.42797" stroke="#DADADA" stroke-width="3" stroke-linecap="round" stroke-linejoin="round"/>
<path d="M343.061 49.138V54.278" stroke="#DADADA" stroke-width="3" stroke-linecap="round" stroke-linejoin="round"/>
<path d="M363.85 49.138V54.278" stroke="#DADADA" stroke-width="3" stroke-linecap="round" stroke-linejoin="round"/>
</svg>
