<svg width="302" height="36" viewBox="0 0 302 36" fill="none" xmlns="http://www.w3.org/2000/svg">
<path d="M301 35.0498H1" stroke="#BABABA" stroke-width="1.5" stroke-linecap="round" stroke-linejoin="round"/>
<path d="M101.47 22.8197C101.525 21.6265 101.958 20.4817 102.705 19.5502C103.453 18.6188 104.477 17.9488 105.63 17.6367C106.783 17.3247 108.006 17.3868 109.121 17.8141C110.237 18.2413 111.188 19.0117 111.837 20.0141C112.487 21.0166 112.801 22.1993 112.735 23.392C112.669 24.5846 112.226 25.7256 111.47 26.6504C110.714 27.5752 109.684 28.2361 108.529 28.5379C107.373 28.8397 106.151 28.7668 105.04 28.3297" stroke="#BABABA" stroke-width="1.5" stroke-linecap="round" stroke-linejoin="round"/>
<path d="M107.09 35.0497V28.7197" stroke="#BABABA" stroke-width="1.5" stroke-linecap="round" stroke-linejoin="round"/>
<path d="M101.47 30.6398C103.629 30.6398 105.38 28.8893 105.38 26.7298C105.38 24.5704 103.629 22.8198 101.47 22.8198C99.3101 22.8198 97.5596 24.5704 97.5596 26.7298C97.5596 28.8893 99.3101 30.6398 101.47 30.6398Z" stroke="#BABABA" stroke-width="1.5" stroke-linecap="round" stroke-linejoin="round"/>
<path d="M101.47 35.0499V30.6499" stroke="#BABABA" stroke-width="1.5" stroke-linecap="round" stroke-linejoin="round"/>
<path d="M193.75 28.72C196.859 28.72 199.38 26.1993 199.38 23.09C199.38 19.9806 196.859 17.46 193.75 17.46C190.641 17.46 188.12 19.9806 188.12 23.09C188.12 26.1993 190.641 28.72 193.75 28.72Z" stroke="#BABABA" stroke-width="1.5" stroke-linecap="round" stroke-linejoin="round"/>
<path d="M193.75 35.0497V28.7197" stroke="#BABABA" stroke-width="1.5" stroke-linecap="round" stroke-linejoin="round"/>
<path d="M216.16 30.6398C218.319 30.6398 220.07 28.8893 220.07 26.7298C220.07 24.5704 218.319 22.8198 216.16 22.8198C214.001 22.8198 212.25 24.5704 212.25 26.7298C212.25 28.8893 214.001 30.6398 216.16 30.6398Z" stroke="#BABABA" stroke-width="1.5" stroke-linecap="round" stroke-linejoin="round"/>
<path d="M216.16 35.0499V30.6499" stroke="#BABABA" stroke-width="1.5" stroke-linecap="round" stroke-linejoin="round"/>
<path d="M144.38 18.6497C144.358 18.2994 144.408 17.9483 144.527 17.6181C144.646 17.2879 144.832 16.9855 145.072 16.7297C145.312 16.4739 145.602 16.2701 145.925 16.1307C146.247 15.9913 146.594 15.9194 146.945 15.9194C147.296 15.9194 147.643 15.9913 147.965 16.1307C148.288 16.2701 148.578 16.4739 148.818 16.7297C149.058 16.9855 149.244 17.2879 149.363 17.6181C149.482 17.9483 149.532 18.2994 149.51 18.6497V20.5797" stroke="#BABABA" stroke-width="1.5" stroke-linecap="round" stroke-linejoin="round"/>
<path d="M144.38 18.6498C144.38 17.9709 144.11 17.3197 143.63 16.8397C143.15 16.3596 142.499 16.0898 141.82 16.0898C141.141 16.0898 140.49 16.3596 140.01 16.8397C139.529 17.3197 139.26 17.9709 139.26 18.6498V20.5798" stroke="#BABABA" stroke-width="1.5" stroke-linecap="round" stroke-linejoin="round"/>
<path d="M153.25 29.96H135.52V35.05H153.25V29.96Z" stroke="#BABABA" stroke-width="1.5" stroke-linecap="round" stroke-linejoin="round"/>
<path d="M144.38 29.63V18.75" stroke="#BABABA" stroke-width="1.5" stroke-linecap="round" stroke-linejoin="round"/>
<path d="M193.75 33.83C193.75 32.43 192.25 31.3 190.38 31.3C189.977 31.2989 189.576 31.3562 189.19 31.47C188.828 30.6577 188.235 29.9702 187.484 29.4935C186.733 29.0168 185.859 28.7721 184.97 28.79C183.945 28.7561 182.94 29.0813 182.129 29.7094C181.319 30.3375 180.753 31.229 180.53 32.23C180.253 32.0904 179.949 32.0152 179.64 32.01C179.109 32.01 178.601 32.2207 178.225 32.5958C177.85 32.9709 177.64 33.4796 177.64 34.01V35.01H193.76V34.01C193.761 33.9498 193.757 33.8897 193.75 33.83V33.83Z" stroke="#BABABA" stroke-width="1.5" stroke-linecap="round" stroke-linejoin="round"/>
<path d="M78.0901 33.83C78.0901 32.43 79.6001 31.3 81.4601 31.3C81.8661 31.2997 82.2701 31.357 82.6601 31.47C83.018 30.6569 83.609 29.9683 84.3584 29.4912C85.1078 29.0142 85.9819 28.7701 86.8701 28.79C87.8951 28.7561 88.8997 29.0813 89.7104 29.7094C90.5211 30.3375 91.0869 31.229 91.3101 32.23C91.5863 32.0904 91.8906 32.0152 92.2001 32.01C92.7305 32.01 93.2392 32.2207 93.6143 32.5958C93.9894 32.9709 94.2001 33.4796 94.2001 34.01V35.01H78.0901V34.01C78.0859 33.9501 78.0859 33.8899 78.0901 33.83Z" stroke="#BABABA" stroke-width="1.5" stroke-linecap="round" stroke-linejoin="round"/>
<path d="M164.3 31.5796H159.63V35.0396H164.3V31.5796Z" stroke="#BABABA" stroke-width="1.5" stroke-linecap="round" stroke-linejoin="round"/>
<path d="M164.29 31.5799L165.69 27.6099" stroke="#BABABA" stroke-width="1.5" stroke-linecap="round" stroke-linejoin="round"/>
<path d="M124.81 35.0498H129.48V31.5898H124.81V35.0498Z" stroke="#BABABA" stroke-width="1.5" stroke-linecap="round" stroke-linejoin="round"/>
<path d="M124.81 31.5799L123.42 27.6099" stroke="#BABABA" stroke-width="1.5" stroke-linecap="round" stroke-linejoin="round"/>
<path d="M202.89 35.0498H207.56V31.5898H202.89V35.0498Z" stroke="#BABABA" stroke-width="1.5" stroke-linecap="round" stroke-linejoin="round"/>
<path d="M202.9 31.5799L201.51 27.6099" stroke="#BABABA" stroke-width="1.5" stroke-linecap="round" stroke-linejoin="round"/>
<path d="M173.47 10.5496C173.448 10.1993 173.498 9.84818 173.617 9.51798C173.736 9.18777 173.921 8.88544 174.162 8.62963C174.402 8.37382 174.692 8.16995 175.014 8.03059C175.337 7.89123 175.684 7.81934 176.035 7.81934C176.386 7.81934 176.733 7.89123 177.055 8.03059C177.377 8.16995 177.668 8.37382 177.908 8.62963C178.148 8.88544 178.334 9.18777 178.453 9.51798C178.572 9.84818 178.622 10.1993 178.6 10.5496" stroke="#BABABA" stroke-width="1.5" stroke-linecap="round" stroke-linejoin="round"/>
<path d="M168.34 10.5496C168.318 10.1993 168.368 9.84818 168.487 9.51798C168.606 9.18777 168.792 8.88544 169.032 8.62963C169.272 8.37382 169.562 8.16995 169.885 8.03059C170.207 7.89123 170.554 7.81934 170.905 7.81934C171.256 7.81934 171.603 7.89123 171.925 8.03059C172.248 8.16995 172.538 8.37382 172.778 8.62963C173.018 8.88544 173.204 9.18777 173.323 9.51798C173.442 9.84818 173.492 10.1993 173.47 10.5496" stroke="#BABABA" stroke-width="1.5" stroke-linecap="round" stroke-linejoin="round"/>
<path d="M160.79 3.40977C160.831 2.75717 161.119 2.14465 161.595 1.69694C162.072 1.24923 162.701 1 163.355 1C164.009 1 164.638 1.24923 165.115 1.69694C165.591 2.14465 165.879 2.75717 165.92 3.40977" stroke="#BABABA" stroke-width="1.5" stroke-linecap="round" stroke-linejoin="round"/>
<path d="M155.66 3.40977C155.701 2.75717 155.989 2.14465 156.465 1.69694C156.942 1.24923 157.571 1 158.225 1C158.879 1 159.508 1.24923 159.985 1.69694C160.461 2.14465 160.749 2.75717 160.79 3.40977" stroke="#BABABA" stroke-width="1.5" stroke-linecap="round" stroke-linejoin="round"/>
<path d="M139.26 23.9897V26.5297" stroke="#BABABA" stroke-width="1.5" stroke-linecap="round" stroke-linejoin="round"/>
<path d="M149.51 23.9897V26.5297" stroke="#BABABA" stroke-width="1.5" stroke-linecap="round" stroke-linejoin="round"/>
</svg>
