<svg width="1114" height="59" viewBox="0 0 1114 59" fill="none" xmlns="http://www.w3.org/2000/svg">
<path d="M1112 57.1101H2" stroke="#DADADA" stroke-width="3" stroke-linecap="round" stroke-linejoin="round"/>
<path d="M763.07 39.1899L767.66 33.8299C768.384 32.9887 769.28 32.313 770.287 31.8489C771.295 31.3847 772.391 31.1429 773.5 31.1399H784.83C786.573 31.1396 788.264 31.7281 789.63 32.8099L797.7 39.1899" stroke="#DADADA" stroke-width="3" stroke-linecap="round" stroke-linejoin="round"/>
<path d="M772.189 49.55H793.739" stroke="#DADADA" stroke-width="3" stroke-linecap="round" stroke-linejoin="round"/>
<path d="M763.07 39.1899H760.68C760.248 39.1899 759.819 39.2758 759.42 39.4426C759.02 39.6095 758.658 39.8539 758.354 40.1618C758.05 40.4697 757.81 40.8349 757.648 41.2363C757.486 41.6376 757.405 42.0672 757.41 42.4999V47.1999C757.41 47.8232 757.658 48.4209 758.099 48.8616C758.539 49.3024 759.137 49.5499 759.76 49.5499H763.07" stroke="#DADADA" stroke-width="3" stroke-linecap="round" stroke-linejoin="round"/>
<path d="M802.859 49.5499H804.499C805.295 49.5499 806.058 49.2339 806.621 48.6713C807.183 48.1086 807.499 47.3456 807.499 46.5499V42.1799C807.499 41.3843 807.183 40.6212 806.621 40.0586C806.058 39.496 805.295 39.1799 804.499 39.1799H797.699" stroke="#DADADA" stroke-width="3" stroke-linecap="round" stroke-linejoin="round"/>
<path d="M798.301 44.9399C799.2 44.94 800.079 45.2071 800.826 45.7072C801.573 46.2073 802.155 46.918 802.497 47.7492C802.84 48.5803 802.928 49.4945 802.751 50.3759C802.573 51.2573 802.138 52.0661 801.501 52.6999C800.86 53.3364 800.046 53.771 799.161 53.9499C798.274 54.1203 797.357 54.03 796.521 53.6899C795.55 53.2854 794.749 52.5569 794.255 51.6285C793.76 50.7001 793.603 49.629 793.809 48.5976C794.015 47.5662 794.573 46.6381 795.386 45.9712C796.2 45.3044 797.219 44.9399 798.271 44.9399H798.301Z" stroke="#DADADA" stroke-width="3" stroke-linecap="round" stroke-linejoin="round"/>
<path d="M767.63 44.9399C768.532 44.9434 769.412 45.2115 770.162 45.7111C770.913 46.2107 771.5 46.9196 771.85 47.7499C772.191 48.5827 772.281 49.4966 772.11 50.3799C771.933 51.2603 771.498 52.0679 770.86 52.6999C770.215 53.3418 769.394 53.777 768.5 53.9499C767.614 54.1197 766.697 54.0294 765.86 53.6899C765.036 53.3414 764.332 52.7586 763.836 52.0137C763.34 51.2689 763.074 50.3948 763.07 49.4999C763.076 48.294 763.558 47.1393 764.413 46.2885C765.268 45.4376 766.424 44.9599 767.63 44.9599V44.9399Z" stroke="#DADADA" stroke-width="3" stroke-linecap="round" stroke-linejoin="round"/>
<path d="M868.5 39.1899L873.09 33.8299C873.818 32.9859 874.719 32.3087 875.732 31.8445C876.745 31.3802 877.846 31.1399 878.96 31.1399H890.29C892.033 31.1381 893.725 31.7267 895.09 32.8099L903.16 39.1899" stroke="#DADADA" stroke-width="3" stroke-linecap="round" stroke-linejoin="round"/>
<path d="M877.58 49.55H899.12" stroke="#DADADA" stroke-width="3" stroke-linecap="round" stroke-linejoin="round"/>
<path d="M868.499 39.1901H866.109C865.672 39.1834 865.238 39.2643 864.833 39.4282C864.428 39.592 864.06 39.8354 863.75 40.144C863.441 40.4525 863.196 40.82 863.031 41.2247C862.866 41.6294 862.784 42.0631 862.789 42.5001V47.2001C862.789 47.8233 863.037 48.4211 863.478 48.8618C863.918 49.3025 864.516 49.5501 865.139 49.5501H868.499" stroke="#DADADA" stroke-width="3" stroke-linecap="round" stroke-linejoin="round"/>
<path d="M908.239 49.5499H909.909C910.705 49.5499 911.468 49.2339 912.031 48.6713C912.593 48.1086 912.909 47.3456 912.909 46.5499V42.1799C912.909 41.3843 912.593 40.6212 912.031 40.0586C911.468 39.496 910.705 39.1799 909.909 39.1799H903.109" stroke="#DADADA" stroke-width="3" stroke-linecap="round" stroke-linejoin="round"/>
<path d="M903.681 44.9399C904.8 44.954 905.875 45.3801 906.7 46.1368C907.525 46.8936 908.042 47.9279 908.152 49.0418C908.262 50.1558 907.958 51.2712 907.297 52.1749C906.636 53.0785 905.666 53.7069 904.571 53.9399C903.684 54.1103 902.767 54.02 901.931 53.6799C900.96 53.2754 900.159 52.5469 899.665 51.6185C899.17 50.6901 899.013 49.619 899.219 48.5876C899.426 47.5562 899.983 46.6281 900.796 45.9612C901.61 45.2944 902.629 44.9299 903.681 44.9299V44.9399Z" stroke="#DADADA" stroke-width="3" stroke-linecap="round" stroke-linejoin="round"/>
<path d="M873.011 44.9399C873.912 44.9434 874.793 45.2115 875.543 45.7111C876.293 46.2107 876.88 46.9196 877.231 47.7499C877.571 48.5827 877.661 49.4966 877.491 50.3799C877.314 51.2603 876.879 52.0679 876.241 52.6999C875.601 53.3383 874.787 53.7733 873.901 53.9499C873.017 54.1201 872.104 54.0297 871.271 53.6899C870.301 53.2857 869.5 52.5581 869.006 51.6307C868.511 50.7033 868.353 49.6333 868.558 48.6025C868.763 47.5717 869.319 46.6436 870.13 45.976C870.942 45.3083 871.96 44.9422 873.011 44.9399V44.9399Z" stroke="#DADADA" stroke-width="3" stroke-linecap="round" stroke-linejoin="round"/>
<path d="M969.499 39.1899L964.899 33.8299C964.174 32.9861 963.274 32.309 962.263 31.8447C961.252 31.3805 960.152 31.14 959.039 31.1399H947.729C945.987 31.142 944.296 31.7302 942.929 32.8099L934.869 39.1899" stroke="#DADADA" stroke-width="3" stroke-linecap="round" stroke-linejoin="round"/>
<path d="M960.399 49.55H938.859" stroke="#DADADA" stroke-width="3" stroke-linecap="round" stroke-linejoin="round"/>
<path d="M969.5 39.1901H971.89C972.325 39.186 972.756 39.269 973.158 39.4342C973.561 39.5993 973.926 39.8433 974.233 40.1518C974.539 40.4602 974.781 40.8269 974.944 41.2302C975.106 41.6335 975.187 42.0652 975.18 42.5001V47.2001C975.18 47.8233 974.932 48.4211 974.492 48.8618C974.051 49.3025 973.453 49.5501 972.83 49.5501H969.5" stroke="#DADADA" stroke-width="3" stroke-linecap="round" stroke-linejoin="round"/>
<path d="M929.74 49.5499H928.07C927.275 49.5499 926.512 49.2339 925.949 48.6713C925.386 48.1086 925.07 47.3456 925.07 46.5499V42.1799C925.07 41.3843 925.386 40.6212 925.949 40.0586C926.512 39.496 927.275 39.1799 928.07 39.1799H934.87" stroke="#DADADA" stroke-width="3" stroke-linecap="round" stroke-linejoin="round"/>
<path d="M934.3 44.94C933.626 44.9373 932.959 45.0847 932.349 45.3713C931.738 45.658 931.199 46.0768 930.77 46.5975C930.341 47.1181 930.034 47.7276 929.869 48.3818C929.705 49.036 929.688 49.7185 929.82 50.38C929.997 51.2603 930.432 52.068 931.07 52.7C931.71 53.3384 932.524 53.7733 933.41 53.95C934.294 54.1201 935.207 54.0298 936.04 53.69C937.01 53.2858 937.811 52.5581 938.305 51.6307C938.8 50.7033 938.958 49.6334 938.753 48.6025C938.548 47.5717 937.992 46.6437 937.181 45.976C936.369 45.3084 935.351 44.9423 934.3 44.94V44.94Z" stroke="#DADADA" stroke-width="3" stroke-linecap="round" stroke-linejoin="round"/>
<path d="M964.971 44.9399C964.069 44.9394 963.186 45.206 962.435 45.7061C961.684 46.2061 961.098 46.9173 960.751 47.7499C960.401 48.5804 960.31 49.4971 960.491 50.3799C960.668 51.2603 961.103 52.0679 961.741 52.6999C962.38 53.3383 963.195 53.7733 964.081 53.9499C964.964 54.1201 965.878 54.0297 966.711 53.6899C967.681 53.2857 968.481 52.5581 968.976 51.6307C969.47 50.7033 969.629 49.6333 969.424 48.6025C969.219 47.5717 968.663 46.6436 967.851 45.976C967.04 45.3083 966.022 44.9422 964.971 44.9399V44.9399Z" stroke="#DADADA" stroke-width="3" stroke-linecap="round" stroke-linejoin="round"/>
<path d="M847 2H826.05C824.636 2 823.49 3.14615 823.49 4.56V25.51C823.49 26.9238 824.636 28.07 826.05 28.07H847C848.414 28.07 849.56 26.9238 849.56 25.51V4.56C849.56 3.14615 848.414 2 847 2Z" stroke="#DADADA" stroke-width="3" stroke-linecap="round" stroke-linejoin="round"/>
<path d="M833.35 8.67993H837.35C838.257 8.67993 839.127 9.04025 839.768 9.68163C840.409 10.323 840.77 11.1929 840.77 12.0999V13.1899C840.77 14.097 840.409 14.9669 839.768 15.6082C839.127 16.2496 838.257 16.6099 837.35 16.6099H833.35V8.67993Z" stroke="#DADADA" stroke-width="3" stroke-linecap="round" stroke-linejoin="round"/>
<path d="M833.35 21.3501V16.0701" stroke="#DADADA" stroke-width="3" stroke-linecap="round" stroke-linejoin="round"/>
<path d="M837.051 28.0701V57.1101" stroke="#DADADA" stroke-width="3" stroke-linecap="round" stroke-linejoin="round"/>
</svg>
