<svg width="302" height="37" viewBox="0 0 302 37" fill="none" xmlns="http://www.w3.org/2000/svg">
<path d="M301 36.1299H1" stroke="#BABABA" stroke-width="1.5" stroke-linecap="round" stroke-linejoin="round"/>
<path d="M108.33 25.9299C108.367 24.9462 108.717 24 109.33 23.2299C109.794 22.654 110.388 22.1963 111.064 21.8944C111.739 21.5925 112.476 21.455 113.215 21.493C113.953 21.5311 114.672 21.7437 115.313 22.1134C115.954 22.4831 116.498 22.9994 116.9 23.6199C117.435 24.4516 117.694 25.4309 117.64 26.4184C117.586 27.4059 117.222 28.3513 116.6 29.1199C115.998 29.8734 115.177 30.4218 114.25 30.6899C113.29 30.9395 112.275 30.88 111.35 30.5199" stroke="#BABABA" stroke-width="1.5" stroke-linecap="round" stroke-linejoin="round"/>
<path d="M113.01 36.1299V30.8599" stroke="#BABABA" stroke-width="1.5" stroke-linecap="round" stroke-linejoin="round"/>
<path d="M108.33 32.4702C108.976 32.4702 109.607 32.2785 110.144 31.9194C110.68 31.5603 111.098 31.0499 111.344 30.4531C111.59 29.8562 111.654 29.1997 111.526 28.5668C111.399 27.9339 111.086 27.3531 110.628 26.8979C110.17 26.4428 109.588 26.1339 108.954 26.0104C108.32 25.8869 107.664 25.9543 107.069 26.2041C106.474 26.4539 105.966 26.8749 105.61 27.4136C105.254 27.9524 105.066 28.5846 105.07 29.2302C105.076 30.0913 105.421 30.9154 106.032 31.5224C106.643 32.1295 107.469 32.4702 108.33 32.4702Z" stroke="#BABABA" stroke-width="1.5" stroke-linecap="round" stroke-linejoin="round"/>
<path d="M108.33 36.1302V32.4702" stroke="#BABABA" stroke-width="1.5" stroke-linecap="round" stroke-linejoin="round"/>
<path d="M189.32 30.86C190.25 30.8599 191.159 30.5833 191.932 30.0652C192.705 29.5472 193.306 28.8111 193.659 27.9506C194.012 27.0901 194.101 26.1441 193.915 25.2327C193.729 24.3213 193.277 23.4858 192.615 22.8324C191.953 22.1789 191.112 21.737 190.198 21.5629C189.284 21.3888 188.339 21.4903 187.484 21.8544C186.628 22.2186 185.899 22.8291 185.391 23.6082C184.883 24.3873 184.618 25.2999 184.63 26.23C184.646 27.4634 185.147 28.641 186.025 29.5076C186.903 30.3742 188.087 30.8601 189.32 30.86V30.86Z" stroke="#BABABA" stroke-width="1.5" stroke-linecap="round" stroke-linejoin="round"/>
<path d="M189.32 36.1299V30.8599" stroke="#BABABA" stroke-width="1.5" stroke-linecap="round" stroke-linejoin="round"/>
<path d="M203.87 32.4702C204.516 32.4702 205.147 32.2785 205.684 31.9194C206.22 31.5603 206.638 31.0499 206.884 30.4531C207.13 29.8562 207.194 29.1997 207.066 28.5668C206.939 27.9339 206.626 27.3531 206.168 26.8979C205.71 26.4428 205.128 26.1339 204.494 26.0104C203.86 25.8869 203.204 25.9543 202.609 26.2041C202.014 26.4539 201.506 26.8749 201.15 27.4136C200.794 27.9524 200.606 28.5846 200.61 29.2302C200.616 30.0913 200.961 30.9154 201.572 31.5224C202.183 32.1295 203.009 32.4702 203.87 32.4702V32.4702Z" stroke="#BABABA" stroke-width="1.5" stroke-linecap="round" stroke-linejoin="round"/>
<path d="M203.87 36.1302V32.4702" stroke="#BABABA" stroke-width="1.5" stroke-linecap="round" stroke-linejoin="round"/>
<path d="M70.8997 32.4702C71.5453 32.4702 72.1764 32.2785 72.7129 31.9194C73.2495 31.5603 73.6673 31.0499 73.9134 30.4531C74.1596 29.8562 74.2229 29.1997 74.0955 28.5668C73.9681 27.9339 73.6556 27.3531 73.1977 26.8979C72.7398 26.4428 72.157 26.1339 71.5234 26.0104C70.8897 25.8869 70.2336 25.9543 69.6382 26.2041C69.0429 26.4539 68.5352 26.8749 68.1794 27.4136C67.8236 27.9524 67.6357 28.5846 67.6397 29.2302C67.645 30.0913 67.9908 30.9154 68.6016 31.5224C69.2124 32.1295 70.0386 32.4702 70.8997 32.4702V32.4702Z" stroke="#BABABA" stroke-width="1.5" stroke-linecap="round" stroke-linejoin="round"/>
<path d="M70.9004 36.1302V32.4702" stroke="#BABABA" stroke-width="1.5" stroke-linecap="round" stroke-linejoin="round"/>
<path d="M189.32 35.1201C189.32 33.9601 188.06 33.0101 186.51 33.0101C186.172 33.0117 185.835 33.0588 185.51 33.1501C185.211 32.4741 184.716 31.903 184.09 31.5101C183.466 31.1121 182.739 30.9069 182 30.9201C181.144 30.8911 180.304 31.1635 179.628 31.6898C178.952 32.2161 178.482 32.9628 178.3 33.8001C178.067 33.6822 177.811 33.6173 177.55 33.6101C177.107 33.6116 176.683 33.7877 176.37 34.1001C176.059 34.4147 175.884 34.838 175.88 35.2801V36.1301H189.32V35.1301V35.1201Z" stroke="#BABABA" stroke-width="1.5" stroke-linecap="round" stroke-linejoin="round"/>
<path d="M88.8398 35.1201C88.8398 33.9601 90.0898 33.0101 91.6398 33.0101C91.978 33.0111 92.3144 33.0582 92.6398 33.1501C92.9392 32.4741 93.4337 31.903 94.0598 31.5101C94.6833 31.1121 95.4103 30.9069 96.1498 30.9201C97.0061 30.8911 97.8455 31.1635 98.5216 31.6898C99.1977 32.2161 99.6677 32.9628 99.8498 33.8001C100.083 33.6822 100.339 33.6173 100.6 33.6101C101.042 33.6116 101.466 33.7877 101.78 34.1001C102.09 34.4147 102.266 34.838 102.27 35.2801V36.1301H88.8398V35.2801C88.8499 35.2272 88.8499 35.1729 88.8398 35.1201V35.1201Z" stroke="#BABABA" stroke-width="1.5" stroke-linecap="round" stroke-linejoin="round"/>
<path d="M208.61 35.1201C208.61 33.9601 209.87 33.0101 211.42 33.0101C211.759 33.0108 212.095 33.0579 212.42 33.1501C212.723 32.4759 213.217 31.9054 213.841 31.509C214.465 31.1127 215.191 30.9079 215.93 30.9201C216.787 30.8911 217.626 31.1635 218.302 31.6898C218.978 32.2161 219.448 32.9628 219.63 33.8001C219.863 33.6822 220.119 33.6173 220.38 33.6101C220.823 33.6116 221.247 33.7877 221.56 34.1001C221.871 34.4147 222.047 34.838 222.05 35.2801V36.1301H208.61V35.2801C208.62 35.2272 208.62 35.1729 208.61 35.1201V35.1201Z" stroke="#BABABA" stroke-width="1.5" stroke-linecap="round" stroke-linejoin="round"/>
<path d="M180.36 9.14997C180.34 8.85731 180.381 8.56366 180.479 8.28724C180.577 8.01083 180.731 7.75756 180.931 7.54317C181.132 7.32877 181.374 7.15783 181.643 7.04095C181.912 6.92408 182.202 6.86377 182.495 6.86377C182.789 6.86377 183.079 6.92408 183.348 7.04095C183.617 7.15783 183.859 7.32877 184.06 7.54317C184.26 7.75756 184.414 8.01083 184.512 8.28724C184.61 8.56366 184.651 8.85731 184.63 9.14997" stroke="#BABABA" stroke-width="1.5" stroke-linecap="round" stroke-linejoin="round"/>
<path d="M176.09 9.14992C176.081 8.86344 176.129 8.578 176.23 8.30992C176.329 8.03847 176.482 7.79006 176.68 7.57992C176.882 7.37133 177.123 7.2048 177.39 7.08992C177.656 6.97798 177.941 6.92018 178.23 6.91992C178.518 6.92123 178.804 6.97899 179.07 7.08992C179.332 7.20747 179.57 7.37375 179.77 7.57992C179.971 7.78967 180.128 8.038 180.23 8.30992C180.328 8.57868 180.372 8.8641 180.36 9.14992" stroke="#BABABA" stroke-width="1.5" stroke-linecap="round" stroke-linejoin="round"/>
<path d="M169.8 3.23001C169.799 2.94992 169.853 2.67237 169.959 2.41326C170.066 2.15416 170.222 1.91858 170.42 1.72001C170.617 1.52287 170.851 1.36648 171.108 1.25977C171.365 1.15307 171.641 1.09814 171.92 1.09814C172.198 1.09814 172.474 1.15307 172.732 1.25977C172.989 1.36648 173.223 1.52287 173.42 1.72001C173.625 1.9147 173.788 2.14888 173.9 2.40842C174.011 2.66796 174.069 2.94745 174.07 3.23001" stroke="#BABABA" stroke-width="1.5" stroke-linecap="round" stroke-linejoin="round"/>
<path d="M165.53 3.23C165.511 2.94059 165.555 2.65056 165.66 2.38C165.762 2.11114 165.919 1.86612 166.12 1.66C166.32 1.45383 166.557 1.28755 166.82 1.17C167.086 1.05906 167.371 1.00131 167.66 1C167.948 1.00026 168.234 1.05805 168.5 1.17C168.766 1.28488 169.008 1.45141 169.21 1.66C169.407 1.86978 169.56 2.11652 169.662 2.38599C169.763 2.65546 169.81 2.94231 169.8 3.23" stroke="#BABABA" stroke-width="1.5" stroke-linecap="round" stroke-linejoin="round"/>
<path d="M157.8 20.14L148.4 10.73L139 20.14H124.84V36.13H171.96V20.14H157.8Z" stroke="#BABABA" stroke-width="1.5" stroke-linecap="round" stroke-linejoin="round"/>
<path d="M151.69 14.02H166.13L171.96 20.14" stroke="#BABABA" stroke-width="1.5" stroke-linecap="round" stroke-linejoin="round"/>
<path d="M144.98 14.02H130.66L124.84 20.14" stroke="#BABABA" stroke-width="1.5" stroke-linecap="round" stroke-linejoin="round"/>
<path d="M148.4 10.7298V5.06982" stroke="#BABABA" stroke-width="1.5" stroke-linecap="round" stroke-linejoin="round"/>
<path d="M155.12 5.06982H148.4V8.56982H155.12V5.06982Z" stroke="#BABABA" stroke-width="1.5" stroke-linecap="round" stroke-linejoin="round"/>
<path d="M148.4 20.14C149.825 20.14 150.98 18.9849 150.98 17.56C150.98 16.1351 149.825 14.98 148.4 14.98C146.975 14.98 145.82 16.1351 145.82 17.56C145.82 18.9849 146.975 20.14 148.4 20.14Z" stroke="#BABABA" stroke-width="1.5" stroke-linecap="round" stroke-linejoin="round"/>
<path d="M148.37 29.0899C149.102 29.0899 149.804 29.3807 150.321 29.8983C150.839 30.4159 151.13 31.1179 151.13 31.8499V36.1299H145.59V31.8399C145.591 31.4766 145.664 31.1172 145.805 30.7821C145.945 30.4471 146.151 30.1432 146.409 29.8877C146.667 29.6322 146.973 29.4302 147.31 29.2933C147.646 29.1564 148.007 29.0873 148.37 29.0899Z" stroke="#BABABA" stroke-width="1.5" stroke-linecap="round" stroke-linejoin="round"/>
<path d="M148.38 36.1298V29.0898" stroke="#BABABA" stroke-width="1.5" stroke-linecap="round" stroke-linejoin="round"/>
<path d="M130.31 29.5698H127.52V33.7998H130.31V29.5698Z" stroke="#BABABA" stroke-width="1.5" stroke-linecap="round" stroke-linejoin="round"/>
<path d="M135.84 29.5698H133.05V33.7998H135.84V29.5698Z" stroke="#BABABA" stroke-width="1.5" stroke-linecap="round" stroke-linejoin="round"/>
<path d="M141.38 29.5698H138.59V33.7998H141.38V29.5698Z" stroke="#BABABA" stroke-width="1.5" stroke-linecap="round" stroke-linejoin="round"/>
<path d="M130.31 22.9702H127.52V27.2002H130.31V22.9702Z" stroke="#BABABA" stroke-width="1.5" stroke-linecap="round" stroke-linejoin="round"/>
<path d="M135.84 22.9702H133.05V27.2002H135.84V22.9702Z" stroke="#BABABA" stroke-width="1.5" stroke-linecap="round" stroke-linejoin="round"/>
<path d="M141.38 22.9702H138.59V27.2002H141.38V22.9702Z" stroke="#BABABA" stroke-width="1.5" stroke-linecap="round" stroke-linejoin="round"/>
<path d="M157.98 29.5698H155.19V33.7998H157.98V29.5698Z" stroke="#BABABA" stroke-width="1.5" stroke-linecap="round" stroke-linejoin="round"/>
<path d="M163.52 29.5698H160.73V33.7998H163.52V29.5698Z" stroke="#BABABA" stroke-width="1.5" stroke-linecap="round" stroke-linejoin="round"/>
<path d="M169.05 29.5698H166.26V33.7998H169.05V29.5698Z" stroke="#BABABA" stroke-width="1.5" stroke-linecap="round" stroke-linejoin="round"/>
<path d="M157.98 22.9702H155.19V27.2002H157.98V22.9702Z" stroke="#BABABA" stroke-width="1.5" stroke-linecap="round" stroke-linejoin="round"/>
<path d="M163.52 22.9702H160.73V27.2002H163.52V22.9702Z" stroke="#BABABA" stroke-width="1.5" stroke-linecap="round" stroke-linejoin="round"/>
<path d="M146.91 22.9702H144.12V27.2002H146.91V22.9702Z" stroke="#BABABA" stroke-width="1.5" stroke-linecap="round" stroke-linejoin="round"/>
<path d="M152.45 22.9702H149.66V27.2002H152.45V22.9702Z" stroke="#BABABA" stroke-width="1.5" stroke-linecap="round" stroke-linejoin="round"/>
<path d="M169.05 22.9702H166.26V27.2002H169.05V22.9702Z" stroke="#BABABA" stroke-width="1.5" stroke-linecap="round" stroke-linejoin="round"/>
</svg>
