<svg width="1112" height="88" viewBox="0 0 1112 88" fill="none" xmlns="http://www.w3.org/2000/svg">
<path d="M1111 86.5991H1" stroke="#BABABA" stroke-width="1.5" stroke-linecap="round" stroke-linejoin="round"/>
<path d="M762.94 61.7788C763.059 59.3719 763.938 57.0648 765.451 55.1892C766.964 53.3135 769.033 51.9661 771.36 51.3406C773.687 50.7151 776.153 50.8438 778.402 51.7082C780.652 52.5726 782.569 54.1282 783.878 56.1511C785.188 58.1741 785.822 60.5603 785.689 62.9664C785.557 65.3725 784.665 67.6746 783.141 69.5416C781.618 71.4086 779.541 72.7442 777.21 73.3565C774.88 73.9687 772.415 73.8259 770.17 72.9488" stroke="#BABABA" stroke-width="1.5" stroke-linecap="round" stroke-linejoin="round"/>
<path d="M774.33 86.599V73.769" stroke="#BABABA" stroke-width="1.5" stroke-linecap="round" stroke-linejoin="round"/>
<path d="M762.93 77.6789C764.498 77.6789 766.032 77.2138 767.336 76.3424C768.64 75.471 769.656 74.2325 770.256 72.7835C770.857 71.3345 771.014 69.7401 770.708 68.2018C770.402 66.6635 769.646 65.2505 768.537 64.1415C767.428 63.0325 766.015 62.2772 764.477 61.9712C762.939 61.6652 761.344 61.8223 759.895 62.4225C758.446 63.0227 757.208 64.0391 756.336 65.3432C755.465 66.6473 755 68.1804 755 69.7489C755 71.852 755.835 73.869 757.323 75.3562C758.81 76.8434 760.827 77.6789 762.93 77.6789Z" stroke="#BABABA" stroke-width="1.5" stroke-linecap="round" stroke-linejoin="round"/>
<path d="M762.93 86.5992V77.6792" stroke="#BABABA" stroke-width="1.5" stroke-linecap="round" stroke-linejoin="round"/>
<path d="M960 73.7688C962.254 73.7688 964.458 73.1002 966.333 71.8475C968.208 70.5949 969.669 68.8144 970.532 66.7313C971.395 64.6483 971.62 62.3561 971.181 60.1447C970.741 57.9333 969.655 55.9021 968.061 54.3077C966.466 52.7134 964.435 51.6277 962.224 51.1878C960.012 50.7479 957.72 50.9737 955.637 51.8365C953.554 52.6994 951.774 54.1605 950.521 56.0353C949.268 57.91 948.6 60.114 948.6 62.3688C948.598 63.8662 948.892 65.3492 949.465 66.7329C950.037 68.1166 950.877 69.3739 951.936 70.4327C952.995 71.4916 954.252 72.3312 955.636 72.9037C957.019 73.4761 958.502 73.7701 960 73.7688V73.7688Z" stroke="#BABABA" stroke-width="1.5" stroke-linecap="round" stroke-linejoin="round"/>
<path d="M960 86.599V73.769" stroke="#BABABA" stroke-width="1.5" stroke-linecap="round" stroke-linejoin="round"/>
<path d="M995.41 77.6789C996.979 77.6789 998.512 77.2138 999.816 76.3424C1001.12 75.471 1002.14 74.2325 1002.74 72.7835C1003.34 71.3345 1003.49 69.7401 1003.19 68.2018C1002.88 66.6635 1002.13 65.2505 1001.02 64.1415C999.909 63.0325 998.496 62.2772 996.958 61.9712C995.419 61.6652 993.825 61.8223 992.376 62.4225C990.927 63.0227 989.688 64.0391 988.817 65.3432C987.946 66.6473 987.48 68.1804 987.48 69.7489C987.48 71.852 988.316 73.869 989.803 75.3562C991.29 76.8434 993.307 77.6789 995.41 77.6789Z" stroke="#BABABA" stroke-width="1.5" stroke-linecap="round" stroke-linejoin="round"/>
<path d="M995.41 86.5992V77.6792" stroke="#BABABA" stroke-width="1.5" stroke-linecap="round" stroke-linejoin="round"/>
<path d="M671.86 77.6789C673.428 77.6789 674.961 77.2138 676.265 76.3424C677.569 75.471 678.586 74.2325 679.186 72.7835C679.786 71.3345 679.943 69.7401 679.637 68.2018C679.331 66.6635 678.576 65.2505 677.467 64.1415C676.358 63.0325 674.945 62.2772 673.407 61.9712C671.868 61.6652 670.274 61.8223 668.825 62.4225C667.376 63.0227 666.137 64.0391 665.266 65.3432C664.395 66.6473 663.93 68.1804 663.93 69.7489C663.93 71.852 664.765 73.869 666.252 75.3562C667.739 76.8434 669.757 77.6789 671.86 77.6789V77.6789Z" stroke="#BABABA" stroke-width="1.5" stroke-linecap="round" stroke-linejoin="round"/>
<path d="M671.86 86.5992V77.6792" stroke="#BABABA" stroke-width="1.5" stroke-linecap="round" stroke-linejoin="round"/>
<path d="M960 84.1288C960 81.2988 956.94 79.0088 953.17 79.0088C952.348 79.0067 951.529 79.1212 950.74 79.3488C950.011 77.7 948.809 76.3042 947.288 75.3377C945.766 74.3713 943.992 73.8775 942.19 73.9188C940.107 73.8476 938.066 74.5092 936.421 75.7883C934.777 77.0675 933.633 78.8831 933.19 80.9188C932.626 80.6306 932.003 80.4766 931.37 80.4688C930.293 80.4688 929.26 80.8965 928.499 81.6579C927.737 82.4193 927.31 83.452 927.31 84.5288V86.5888H960V84.5088C960.01 84.3823 960.01 84.2552 960 84.1288V84.1288Z" stroke="#BABABA" stroke-width="1.5" stroke-linecap="round" stroke-linejoin="round"/>
<path d="M715.5 84.1288C715.5 81.2988 718.56 79.0088 722.33 79.0088C723.152 79.0067 723.97 79.1212 724.76 79.3488C725.488 77.7016 726.688 76.3069 728.208 75.3406C729.728 74.3742 731.499 73.8795 733.3 73.9188C735.382 73.8476 737.424 74.5092 739.068 75.7883C740.713 77.0675 741.856 78.8831 742.3 80.9188C742.864 80.6306 743.487 80.4766 744.12 80.4688C745.197 80.4688 746.229 80.8965 746.991 81.6579C747.752 82.4193 748.18 83.452 748.18 84.5288V86.5888H715.5V84.5088C715.524 84.3833 715.524 84.2543 715.5 84.1288V84.1288Z" stroke="#BABABA" stroke-width="1.5" stroke-linecap="round" stroke-linejoin="round"/>
<path d="M1006.94 84.1288C1006.94 81.2988 1010 79.0088 1013.77 79.0088C1014.59 79.0059 1015.41 79.1204 1016.2 79.3488C1016.93 77.7016 1018.13 76.3069 1019.65 75.3406C1021.17 74.3742 1022.94 73.8795 1024.74 73.9188C1026.82 73.8476 1028.86 74.5092 1030.51 75.7883C1032.15 77.0675 1033.3 78.8831 1033.74 80.9188C1034.3 80.6319 1034.93 80.478 1035.56 80.4688C1036.64 80.4709 1037.67 80.8985 1038.44 81.6588C1038.82 82.0344 1039.12 82.4818 1039.32 82.9747C1039.52 83.4675 1039.62 83.9959 1039.62 84.5288V86.5888H1006.94V84.5088C1006.96 84.3833 1006.96 84.2543 1006.94 84.1288Z" stroke="#BABABA" stroke-width="1.5" stroke-linecap="round" stroke-linejoin="round"/>
<path d="M938.2 20.949C938.2 19.5699 938.748 18.2473 939.723 17.2721C940.698 16.2969 942.021 15.749 943.4 15.749C944.779 15.749 946.102 16.2969 947.077 17.2721C948.052 18.2473 948.6 19.5699 948.6 20.949" stroke="#BABABA" stroke-width="1.5" stroke-linecap="round" stroke-linejoin="round"/>
<path d="M927.82 20.9489C927.79 20.247 927.902 19.5461 928.15 18.8889C928.392 18.2274 928.77 17.6242 929.26 17.1189C929.989 16.3359 930.94 15.7964 931.986 15.5739C933.032 15.3513 934.121 15.4565 935.105 15.8752C936.088 16.2939 936.919 17.0056 937.484 17.9136C938.049 18.8215 938.32 19.8814 938.26 20.9489" stroke="#BABABA" stroke-width="1.5" stroke-linecap="round" stroke-linejoin="round"/>
<path d="M912.5 6.48906C912.5 5.80619 912.634 5.13 912.896 4.49911C913.157 3.86822 913.54 3.29497 914.023 2.81211C914.506 2.32924 915.079 1.94621 915.71 1.68489C916.341 1.42356 917.017 1.28906 917.7 1.28906C918.383 1.28906 919.059 1.42356 919.69 1.68489C920.321 1.94621 920.894 2.32924 921.377 2.81211C921.86 3.29497 922.243 3.86822 922.504 4.49911C922.765 5.13 922.9 5.80619 922.9 6.48906" stroke="#BABABA" stroke-width="1.5" stroke-linecap="round" stroke-linejoin="round"/>
<path d="M902.11 6.48898C902.08 5.78704 902.192 5.08616 902.44 4.42898C902.682 3.76739 903.06 3.16423 903.55 2.65898C904.279 1.87598 905.23 1.33646 906.276 1.1139C907.322 0.891344 908.411 0.996567 909.395 1.41524C910.379 1.83391 911.209 2.54568 911.774 3.45359C912.339 4.36151 912.61 5.42142 912.55 6.48898" stroke="#BABABA" stroke-width="1.5" stroke-linecap="round" stroke-linejoin="round"/>
<path d="M883.31 47.6788L860.43 24.7788L837.55 47.6788H803.1V86.5888H917.76V47.6788H883.31Z" stroke="#BABABA" stroke-width="1.5" stroke-linecap="round" stroke-linejoin="round"/>
<path d="M868.44 32.7988H903.59L917.76 47.6788" stroke="#BABABA" stroke-width="1.5" stroke-linecap="round" stroke-linejoin="round"/>
<path d="M852.11 32.7988H817.27L803.1 47.6788" stroke="#BABABA" stroke-width="1.5" stroke-linecap="round" stroke-linejoin="round"/>
<path d="M860.43 24.779V10.999" stroke="#BABABA" stroke-width="1.5" stroke-linecap="round" stroke-linejoin="round"/>
<path d="M876.79 10.999H860.43V19.509H876.79V10.999Z" stroke="#BABABA" stroke-width="1.5" stroke-linecap="round" stroke-linejoin="round"/>
<path d="M860.43 47.6792C863.893 47.6792 866.7 44.872 866.7 41.4092C866.7 37.9463 863.893 35.1392 860.43 35.1392C856.967 35.1392 854.16 37.9463 854.16 41.4092C854.16 44.872 856.967 47.6792 860.43 47.6792Z" stroke="#BABABA" stroke-width="1.5" stroke-linecap="round" stroke-linejoin="round"/>
<path d="M859.58 69.4492H861.21C862.78 69.4492 864.286 70.0729 865.396 71.1831C866.506 72.2934 867.13 73.7991 867.13 75.3692V86.5892H853.66V75.3692C853.66 73.7991 854.284 72.2934 855.394 71.1831C856.504 70.0729 858.01 69.4492 859.58 69.4492V69.4492Z" stroke="#BABABA" stroke-width="1.5" stroke-linecap="round" stroke-linejoin="round"/>
<path d="M860.4 86.5992V69.4492" stroke="#BABABA" stroke-width="1.5" stroke-linecap="round" stroke-linejoin="round"/>
<path d="M816.4 70.6191H809.62V80.9191H816.4V70.6191Z" stroke="#BABABA" stroke-width="1.5" stroke-linecap="round" stroke-linejoin="round"/>
<path d="M829.87 70.6191H823.09V80.9191H829.87V70.6191Z" stroke="#BABABA" stroke-width="1.5" stroke-linecap="round" stroke-linejoin="round"/>
<path d="M843.33 70.6191H836.55V80.9191H843.33V70.6191Z" stroke="#BABABA" stroke-width="1.5" stroke-linecap="round" stroke-linejoin="round"/>
<path d="M816.4 54.5688H809.62V64.8688H816.4V54.5688Z" stroke="#BABABA" stroke-width="1.5" stroke-linecap="round" stroke-linejoin="round"/>
<path d="M829.87 54.5688H823.09V64.8688H829.87V54.5688Z" stroke="#BABABA" stroke-width="1.5" stroke-linecap="round" stroke-linejoin="round"/>
<path d="M843.33 54.5688H836.55V64.8688H843.33V54.5688Z" stroke="#BABABA" stroke-width="1.5" stroke-linecap="round" stroke-linejoin="round"/>
<path d="M883.74 70.6191H876.96V80.9191H883.74V70.6191Z" stroke="#BABABA" stroke-width="1.5" stroke-linecap="round" stroke-linejoin="round"/>
<path d="M897.21 70.6191H890.43V80.9191H897.21V70.6191Z" stroke="#BABABA" stroke-width="1.5" stroke-linecap="round" stroke-linejoin="round"/>
<path d="M910.68 70.6191H903.9V80.9191H910.68V70.6191Z" stroke="#BABABA" stroke-width="1.5" stroke-linecap="round" stroke-linejoin="round"/>
<path d="M883.74 54.5688H876.96V64.8688H883.74V54.5688Z" stroke="#BABABA" stroke-width="1.5" stroke-linecap="round" stroke-linejoin="round"/>
<path d="M897.21 54.5688H890.43V64.8688H897.21V54.5688Z" stroke="#BABABA" stroke-width="1.5" stroke-linecap="round" stroke-linejoin="round"/>
<path d="M856.799 54.5688H850.02V64.8688H856.799V54.5688Z" stroke="#BABABA" stroke-width="1.5" stroke-linecap="round" stroke-linejoin="round"/>
<path d="M870.27 54.5688H863.49V64.8688H870.27V54.5688Z" stroke="#BABABA" stroke-width="1.5" stroke-linecap="round" stroke-linejoin="round"/>
<path d="M910.68 54.5688H903.9V64.8688H910.68V54.5688Z" stroke="#BABABA" stroke-width="1.5" stroke-linecap="round" stroke-linejoin="round"/>
<path d="M859.29 39.249V42.539L862.36 41.759" stroke="#BABABA" stroke-width="1.5" stroke-linecap="round" stroke-linejoin="round"/>
</svg>
