<svg width="302" height="32" viewBox="0 0 302 32" fill="none" xmlns="http://www.w3.org/2000/svg">
<path d="M301 28.1484H205.342" stroke="#BABABA" stroke-width="1.5" stroke-linecap="round" stroke-linejoin="round"/>
<path d="M81.735 28.1684L1 28.1484" stroke="#BABABA" stroke-width="1.5" stroke-linecap="round" stroke-linejoin="round"/>
<path d="M171.007 28.248C171.007 29.5275 169.467 30.567 167.578 30.567C165.689 30.567 164.189 29.4775 164.189 28.248" stroke="#BABABA" stroke-width="1.5" stroke-linecap="round" stroke-linejoin="round"/>
<path d="M177.874 28.248C177.874 29.5275 176.335 30.567 174.445 30.567C172.556 30.567 171.007 29.5675 171.007 28.248" stroke="#BABABA" stroke-width="1.5" stroke-linecap="round" stroke-linejoin="round"/>
<path d="M184.741 28.248C184.741 29.5275 183.202 30.567 181.313 30.567C179.423 30.567 177.874 29.5675 177.874 28.248" stroke="#BABABA" stroke-width="1.5" stroke-linecap="round" stroke-linejoin="round"/>
<path d="M191.607 28.248C191.607 29.5275 190.068 30.567 188.179 30.567C186.29 30.567 184.74 29.5675 184.74 28.248" stroke="#BABABA" stroke-width="1.5" stroke-linecap="round" stroke-linejoin="round"/>
<path d="M198.474 28.248C198.474 29.5275 196.935 30.567 195.046 30.567C193.157 30.567 191.607 29.5675 191.607 28.248" stroke="#BABABA" stroke-width="1.5" stroke-linecap="round" stroke-linejoin="round"/>
<path d="M205.342 28.248C205.342 29.5275 203.802 30.567 201.913 30.567C200.024 30.567 198.475 29.5675 198.475 28.248" stroke="#BABABA" stroke-width="1.5" stroke-linecap="round" stroke-linejoin="round"/>
<path d="M129.805 28.248C129.805 29.5275 128.265 30.567 126.366 30.567C124.467 30.567 122.938 29.5675 122.938 28.248" stroke="#BABABA" stroke-width="1.5" stroke-linecap="round" stroke-linejoin="round"/>
<path d="M136.671 28.248C136.671 29.5275 135.131 30.567 133.232 30.567C131.333 30.567 129.804 29.5675 129.804 28.248" stroke="#BABABA" stroke-width="1.5" stroke-linecap="round" stroke-linejoin="round"/>
<path d="M143.538 28.248C143.538 29.5275 141.999 30.567 140.099 30.567C138.2 30.567 136.671 29.5675 136.671 28.248" stroke="#BABABA" stroke-width="1.5" stroke-linecap="round" stroke-linejoin="round"/>
<path d="M150.405 28.248C150.405 29.5275 148.866 30.567 146.967 30.567C145.067 30.567 143.538 29.5675 143.538 28.248" stroke="#BABABA" stroke-width="1.5" stroke-linecap="round" stroke-linejoin="round"/>
<path d="M157.272 28.248C157.272 29.5275 155.733 30.567 153.844 30.567C151.955 30.567 150.405 29.5675 150.405 28.248" stroke="#BABABA" stroke-width="1.5" stroke-linecap="round" stroke-linejoin="round"/>
<path d="M164.189 28.248C164.189 29.5275 162.65 30.567 160.761 30.567C158.872 30.567 157.322 29.5675 157.322 28.248" stroke="#BABABA" stroke-width="1.5" stroke-linecap="round" stroke-linejoin="round"/>
<path d="M88.6024 28.248C88.6024 29.5275 87.063 30.567 85.1639 30.567C83.2647 30.567 81.7354 29.5675 81.7354 28.248" stroke="#BABABA" stroke-width="1.5" stroke-linecap="round" stroke-linejoin="round"/>
<path d="M95.4696 28.248C95.4696 29.5275 93.9302 30.567 92.0311 30.567C90.1319 30.567 88.6025 29.5675 88.6025 28.248" stroke="#BABABA" stroke-width="1.5" stroke-linecap="round" stroke-linejoin="round"/>
<path d="M102.336 28.248C102.336 29.5275 100.796 30.567 98.8973 30.567C96.9981 30.567 95.4688 29.5675 95.4688 28.248" stroke="#BABABA" stroke-width="1.5" stroke-linecap="round" stroke-linejoin="round"/>
<path d="M109.214 28.248C109.214 29.5275 107.674 30.567 105.775 30.567C103.876 30.567 102.347 29.5675 102.347 28.248" stroke="#BABABA" stroke-width="1.5" stroke-linecap="round" stroke-linejoin="round"/>
<path d="M116.07 28.248C116.07 29.5275 114.531 30.567 112.631 30.567C110.732 30.567 109.213 29.4775 109.213 28.248" stroke="#BABABA" stroke-width="1.5" stroke-linecap="round" stroke-linejoin="round"/>
<path d="M122.937 28.248C122.937 29.5275 121.398 30.567 119.499 30.567C117.6 30.567 116.07 29.5675 116.07 28.248" stroke="#BABABA" stroke-width="1.5" stroke-linecap="round" stroke-linejoin="round"/>
<path d="M154.613 30.4571C153.995 29.0804 153.674 27.5883 153.674 26.079V21.9907H183.251C183.257 25.0253 182.321 27.9869 180.572 30.467" stroke="#BABABA" stroke-width="1.5" stroke-linecap="round" stroke-linejoin="round"/>
<path d="M166.648 16.7031H156.343V21.9908H166.648V16.7031Z" stroke="#BABABA" stroke-width="1.5" stroke-linecap="round" stroke-linejoin="round"/>
<path d="M175.675 18.4624H171.566V22.0009H175.675V18.4624Z" stroke="#BABABA" stroke-width="1.5" stroke-linecap="round" stroke-linejoin="round"/>
<path d="M179.782 18.4624H175.674V22.0009H179.782V18.4624Z" stroke="#BABABA" stroke-width="1.5" stroke-linecap="round" stroke-linejoin="round"/>
<path d="M177.723 14.9443H173.615V18.4828H177.723V14.9443Z" stroke="#BABABA" stroke-width="1.5" stroke-linecap="round" stroke-linejoin="round"/>
<path d="M159.531 16.7029V10.5156" stroke="#BABABA" stroke-width="1.5" stroke-linecap="round" stroke-linejoin="round"/>
<path d="M214.657 21.7314H207.74L205.271 28.1487H217.116L214.657 21.7314Z" stroke="#BABABA" stroke-width="1.5" stroke-linecap="round" stroke-linejoin="round"/>
<path d="M217.116 15.4233H205.231V21.7306H217.116V15.4233Z" stroke="#BABABA" stroke-width="1.5" stroke-linecap="round" stroke-linejoin="round"/>
<path d="M205.232 15.4237L198.475 1" stroke="#BABABA" stroke-width="1.5" stroke-linecap="round" stroke-linejoin="round"/>
<path d="M217.117 15.4237L198.475 1" stroke="#BABABA" stroke-width="1.5" stroke-linecap="round" stroke-linejoin="round"/>
<path d="M194.656 10.116L198.475 1" stroke="#BABABA" stroke-width="1.5" stroke-linecap="round" stroke-linejoin="round"/>
</svg>
