<svg width="732" height="85" viewBox="0 0 732 85" fill="none" xmlns="http://www.w3.org/2000/svg">
<path d="M731 83.8701H1" stroke="#BABABA" stroke-width="1.5" stroke-linecap="round" stroke-linejoin="round"/>
<path d="M323.35 33.8501H289.06V83.8701H416.45V33.8501H382.5" stroke="#BABABA" stroke-width="1.5" stroke-linecap="round" stroke-linejoin="round"/>
<path d="M382.22 23.4299H323.35V83.8699H382.22V23.4299Z" stroke="#BABABA" stroke-width="1.5" stroke-linecap="round" stroke-linejoin="round"/>
<path d="M382.22 23.43C382.22 21.5009 381.84 19.5906 381.102 17.8084C380.364 16.0261 379.282 14.4067 377.918 13.0426C376.554 11.6785 374.934 10.5964 373.152 9.8582C371.37 9.11996 369.459 8.73999 367.53 8.73999H338C336.072 8.73999 334.162 9.12003 332.38 9.85839C330.598 10.5968 328.98 11.679 327.616 13.0432C326.253 14.4074 325.172 16.0269 324.435 17.8091C323.698 19.5913 323.319 21.5013 323.32 23.43V23.43" stroke="#BABABA" stroke-width="1.5" stroke-linecap="round" stroke-linejoin="round"/>
<path d="M323.35 31.8501H382.22" stroke="#BABABA" stroke-width="1.5" stroke-linecap="round" stroke-linejoin="round"/>
<path d="M323.35 36.79H382.17" stroke="#BABABA" stroke-width="1.5" stroke-linecap="round" stroke-linejoin="round"/>
<path d="M332.63 45.6101V62.3401" stroke="#BABABA" stroke-width="1.5" stroke-linecap="round" stroke-linejoin="round"/>
<path d="M346.05 45.6101V60.6701" stroke="#BABABA" stroke-width="1.5" stroke-linecap="round" stroke-linejoin="round"/>
<path d="M359.47 45.6101V60.6701" stroke="#BABABA" stroke-width="1.5" stroke-linecap="round" stroke-linejoin="round"/>
<path d="M372.88 45.6101V62.3401" stroke="#BABABA" stroke-width="1.5" stroke-linecap="round" stroke-linejoin="round"/>
<path d="M332.63 62.3401V83.8701" stroke="#BABABA" stroke-width="1.5" stroke-linecap="round" stroke-linejoin="round"/>
<path d="M346.05 66.3401V83.8701" stroke="#BABABA" stroke-width="1.5" stroke-linecap="round" stroke-linejoin="round"/>
<path d="M359.47 66.3401V83.8701" stroke="#BABABA" stroke-width="1.5" stroke-linecap="round" stroke-linejoin="round"/>
<path d="M372.88 62.3401V83.8701" stroke="#BABABA" stroke-width="1.5" stroke-linecap="round" stroke-linejoin="round"/>
<path d="M382.17 60.6699H323.35V66.3399H382.17V60.6699Z" stroke="#BABABA" stroke-width="1.5" stroke-linecap="round" stroke-linejoin="round"/>
<path d="M323.35 45.6101H382.17" stroke="#BABABA" stroke-width="1.5" stroke-linecap="round" stroke-linejoin="round"/>
<path d="M338.8 42.2099C339.358 42.2099 339.81 41.7578 339.81 41.1999C339.81 40.6421 339.358 40.1899 338.8 40.1899C338.242 40.1899 337.79 40.6421 337.79 41.1999C337.79 41.7578 338.242 42.2099 338.8 42.2099Z" stroke="#BABABA" stroke-width="1.5" stroke-linecap="round" stroke-linejoin="round"/>
<path d="M327.79 42.2099C327.994 42.2099 328.16 41.7578 328.16 41.1999C328.16 40.6421 327.994 40.1899 327.79 40.1899C327.586 40.1899 327.42 40.6421 327.42 41.1999C327.42 41.7578 327.586 42.2099 327.79 42.2099Z" stroke="#BABABA" stroke-width="1.5" stroke-linecap="round" stroke-linejoin="round"/>
<path d="M377.27 42.2099C377.475 42.2099 377.64 41.7578 377.64 41.1999C377.64 40.6421 377.475 40.1899 377.27 40.1899C377.066 40.1899 376.9 40.6421 376.9 41.1999C376.9 41.7578 377.066 42.2099 377.27 42.2099Z" stroke="#BABABA" stroke-width="1.5" stroke-linecap="round" stroke-linejoin="round"/>
<path d="M352.22 42.2099C352.778 42.2099 353.23 41.7578 353.23 41.1999C353.23 40.6421 352.778 40.1899 352.22 40.1899C351.662 40.1899 351.21 40.6421 351.21 41.1999C351.21 41.7578 351.662 42.2099 352.22 42.2099Z" stroke="#BABABA" stroke-width="1.5" stroke-linecap="round" stroke-linejoin="round"/>
<path d="M365.63 42.2099C366.188 42.2099 366.64 41.7578 366.64 41.1999C366.64 40.6421 366.188 40.1899 365.63 40.1899C365.072 40.1899 364.62 40.6421 364.62 41.1999C364.62 41.7578 365.072 42.2099 365.63 42.2099Z" stroke="#BABABA" stroke-width="1.5" stroke-linecap="round" stroke-linejoin="round"/>
<path d="M285.24 33.8501H289.06" stroke="#BABABA" stroke-width="1.5" stroke-linecap="round" stroke-linejoin="round"/>
<path d="M416.45 33.8501H420.28" stroke="#BABABA" stroke-width="1.5" stroke-linecap="round" stroke-linejoin="round"/>
<path d="M323.35 29.1001H289.06V33.8401H323.35V29.1001Z" stroke="#BABABA" stroke-width="1.5" stroke-linecap="round" stroke-linejoin="round"/>
<path d="M416.46 29.1001H382.22V33.8401H416.46V29.1001Z" stroke="#BABABA" stroke-width="1.5" stroke-linecap="round" stroke-linejoin="round"/>
<path d="M323.51 21.25H313.67L307.37 29.1" stroke="#BABABA" stroke-width="1.5" stroke-linecap="round" stroke-linejoin="round"/>
<path d="M382.05 21.25H391.89L398.19 29.1" stroke="#BABABA" stroke-width="1.5" stroke-linecap="round" stroke-linejoin="round"/>
<path d="M367.01 4.76001H337.42V8.74001H367.01V4.76001Z" stroke="#BABABA" stroke-width="1.5" stroke-linecap="round" stroke-linejoin="round"/>
<path d="M339.81 27.6001H364.62" stroke="#BABABA" stroke-width="1.5" stroke-linecap="round" stroke-linejoin="round"/>
<path d="M352.22 12.8601C353.355 12.8601 354.443 13.311 355.246 14.1137C356.049 14.9163 356.5 16.005 356.5 17.1401V23.4201H347.93V17.1501C347.93 16.015 348.381 14.9263 349.183 14.1237C349.986 13.321 351.075 12.8701 352.21 12.8701L352.22 12.8601Z" stroke="#BABABA" stroke-width="1.5" stroke-linecap="round" stroke-linejoin="round"/>
<path d="M369.28 16.0801C369.882 16.0801 370.459 16.3192 370.885 16.7449C371.311 17.1707 371.55 17.748 371.55 18.3501V23.1001H367V18.3501C367 17.748 367.239 17.1707 367.665 16.7449C368.091 16.3192 368.668 16.0801 369.27 16.0801H369.28Z" stroke="#BABABA" stroke-width="1.5" stroke-linecap="round" stroke-linejoin="round"/>
<path d="M335.15 16.0801C335.752 16.0801 336.329 16.3192 336.755 16.7449C337.18 17.1707 337.42 17.748 337.42 18.3501V23.1001H332.89V18.3501C332.89 17.748 333.129 17.1707 333.555 16.7449C333.98 16.3192 334.558 16.0801 335.16 16.0801H335.15Z" stroke="#BABABA" stroke-width="1.5" stroke-linecap="round" stroke-linejoin="round"/>
<path d="M323.35 64.3401H289.06" stroke="#BABABA" stroke-width="1.5" stroke-linecap="round" stroke-linejoin="round"/>
<path d="M416.48 64.3401H382.19" stroke="#BABABA" stroke-width="1.5" stroke-linecap="round" stroke-linejoin="round"/>
<path d="M343 1V4.4" stroke="#BABABA" stroke-width="1.5" stroke-linecap="round" stroke-linejoin="round"/>
<path d="M362.46 1V4.4" stroke="#BABABA" stroke-width="1.5" stroke-linecap="round" stroke-linejoin="round"/>
<path d="M317.83 52.04H313.93V58.86H317.83V52.04Z" stroke="#BABABA" stroke-width="1.5" stroke-linecap="round" stroke-linejoin="round"/>
<path d="M308.1 52.04H304.2V58.86H308.1V52.04Z" stroke="#BABABA" stroke-width="1.5" stroke-linecap="round" stroke-linejoin="round"/>
<path d="M298.37 52.04H294.47V58.86H298.37V52.04Z" stroke="#BABABA" stroke-width="1.5" stroke-linecap="round" stroke-linejoin="round"/>
<path d="M317.83 38.8H313.93V42.91H317.83V38.8Z" stroke="#BABABA" stroke-width="1.5" stroke-linecap="round" stroke-linejoin="round"/>
<path d="M308.1 38.8H304.2V42.91H308.1V38.8Z" stroke="#BABABA" stroke-width="1.5" stroke-linecap="round" stroke-linejoin="round"/>
<path d="M298.37 38.8H294.47V42.91H298.37V38.8Z" stroke="#BABABA" stroke-width="1.5" stroke-linecap="round" stroke-linejoin="round"/>
<path d="M317.83 74.5601H313.93V78.9101H317.83V74.5601Z" stroke="#BABABA" stroke-width="1.5" stroke-linecap="round" stroke-linejoin="round"/>
<path d="M308.1 74.5601H304.2V78.9101H308.1V74.5601Z" stroke="#BABABA" stroke-width="1.5" stroke-linecap="round" stroke-linejoin="round"/>
<path d="M298.37 74.5601H294.47V78.9101H298.37V74.5601Z" stroke="#BABABA" stroke-width="1.5" stroke-linecap="round" stroke-linejoin="round"/>
<path d="M313.93 68.8701H317.83" stroke="#BABABA" stroke-width="1.5" stroke-linecap="round" stroke-linejoin="round"/>
<path d="M304.2 68.8701H308.1" stroke="#BABABA" stroke-width="1.5" stroke-linecap="round" stroke-linejoin="round"/>
<path d="M294.47 68.8701H298.37" stroke="#BABABA" stroke-width="1.5" stroke-linecap="round" stroke-linejoin="round"/>
<path d="M411.01 74.5601H407.11V78.9101H411.01V74.5601Z" stroke="#BABABA" stroke-width="1.5" stroke-linecap="round" stroke-linejoin="round"/>
<path d="M401.28 74.5601H397.38V78.9101H401.28V74.5601Z" stroke="#BABABA" stroke-width="1.5" stroke-linecap="round" stroke-linejoin="round"/>
<path d="M391.56 74.5601H387.66V78.9101H391.56V74.5601Z" stroke="#BABABA" stroke-width="1.5" stroke-linecap="round" stroke-linejoin="round"/>
<path d="M407.11 68.8701H411.01" stroke="#BABABA" stroke-width="1.5" stroke-linecap="round" stroke-linejoin="round"/>
<path d="M397.38 68.8701H401.28" stroke="#BABABA" stroke-width="1.5" stroke-linecap="round" stroke-linejoin="round"/>
<path d="M387.66 68.8701H391.55" stroke="#BABABA" stroke-width="1.5" stroke-linecap="round" stroke-linejoin="round"/>
<path d="M411.01 52.04H407.11V58.86H411.01V52.04Z" stroke="#BABABA" stroke-width="1.5" stroke-linecap="round" stroke-linejoin="round"/>
<path d="M401.28 52.04H397.38V58.86H401.28V52.04Z" stroke="#BABABA" stroke-width="1.5" stroke-linecap="round" stroke-linejoin="round"/>
<path d="M391.56 52.04H387.66V58.86H391.56V52.04Z" stroke="#BABABA" stroke-width="1.5" stroke-linecap="round" stroke-linejoin="round"/>
<path d="M411.01 38.8H407.11V42.91H411.01V38.8Z" stroke="#BABABA" stroke-width="1.5" stroke-linecap="round" stroke-linejoin="round"/>
<path d="M401.28 38.8H397.38V42.91H401.28V38.8Z" stroke="#BABABA" stroke-width="1.5" stroke-linecap="round" stroke-linejoin="round"/>
<path d="M391.56 38.8H387.66V42.91H391.56V38.8Z" stroke="#BABABA" stroke-width="1.5" stroke-linecap="round" stroke-linejoin="round"/>
<path d="M278.21 79.1101H237.15V83.8701H278.21V79.1101Z" stroke="#BABABA" stroke-width="1.5" stroke-linecap="round" stroke-linejoin="round"/>
<path d="M264.11 73.6201H251.26V79.1101H264.11V73.6201Z" stroke="#BABABA" stroke-width="1.5" stroke-linecap="round" stroke-linejoin="round"/>
<path d="M260 61.8701H255.35V73.6201H260V61.8701Z" stroke="#BABABA" stroke-width="1.5" stroke-linecap="round" stroke-linejoin="round"/>
<path d="M262.61 61.8699H252.75C250.992 61.8703 249.269 61.3813 247.773 60.4576C246.277 59.5339 245.067 58.212 244.28 56.6399H271.08C270.295 58.2134 269.086 59.5366 267.59 60.4606C266.093 61.3845 264.369 61.8726 262.61 61.8699Z" stroke="#BABABA" stroke-width="1.5" stroke-linecap="round" stroke-linejoin="round"/>
<path d="M260 44.87V42.1301C260 41.5121 259.754 40.9195 259.317 40.4825C258.88 40.0455 258.288 39.8 257.67 39.8C257.052 39.8 256.459 40.0455 256.022 40.4825C255.585 40.9195 255.34 41.5121 255.34 42.1301V44.87H249.34L251.34 48.87H255.34V56.68H260V48.8301H264L266 44.8301L260 44.87Z" stroke="#BABABA" stroke-width="1.5" stroke-linecap="round" stroke-linejoin="round"/>
<path d="M470.61 70.3C468.932 70.9564 467.122 71.2049 465.329 71.0252C463.537 70.8455 461.812 70.2427 460.298 69.2664C458.783 68.29 457.523 66.968 456.619 65.4092C455.715 63.8504 455.195 62.0993 455.1 60.3C454.978 58.7823 455.162 57.2556 455.64 55.8102C456.118 54.3647 456.881 53.0297 457.884 51.8842C458.887 50.7387 460.109 49.8059 461.479 49.141C462.849 48.476 464.338 48.0924 465.858 48.0129C467.379 47.9333 468.9 48.1594 470.331 48.6777C471.763 49.1961 473.076 49.9962 474.193 51.0307C475.31 52.0653 476.208 53.3133 476.835 54.701C477.461 56.0887 477.803 57.5879 477.84 59.11" stroke="#BABABA" stroke-width="1.5" stroke-linecap="round" stroke-linejoin="round"/>
<path d="M466.45 71.1201V84.0001" stroke="#BABABA" stroke-width="1.5" stroke-linecap="round" stroke-linejoin="round"/>
<path d="M485.78 67.0999C485.786 65.5302 485.326 63.9941 484.458 62.6861C483.59 61.3781 482.354 60.357 480.905 59.7522C479.457 59.1474 477.862 58.986 476.321 59.2886C474.781 59.5912 473.365 60.3441 472.253 61.4519C471.141 62.5598 470.383 63.9727 470.075 65.5118C469.766 67.0508 469.921 68.6468 470.521 70.0976C471.12 71.5484 472.136 72.7887 473.441 73.6613C474.746 74.534 476.28 74.9999 477.85 74.9999C479.948 74.9999 481.96 74.1686 483.447 72.6879C484.933 71.2072 485.772 69.1979 485.78 67.0999V67.0999Z" stroke="#BABABA" stroke-width="1.5" stroke-linecap="round" stroke-linejoin="round"/>
<path d="M477.85 75V84" stroke="#BABABA" stroke-width="1.5" stroke-linecap="round" stroke-linejoin="round"/>
<path d="M437.45 74.9999C439.015 74.9998 440.546 74.5365 441.848 73.6682C443.151 72.7999 444.167 71.5655 444.769 70.1205C445.371 68.6756 445.533 67.0847 445.232 65.5484C444.932 64.0121 444.184 62.599 443.081 61.4872C441.979 60.3755 440.573 59.6147 439.039 59.3009C437.506 58.9871 435.914 59.1341 434.463 59.7236C433.013 60.3131 431.77 61.3186 430.89 62.6135C430.01 63.9083 429.534 65.4345 429.52 66.9999C429.511 68.0472 429.709 69.0859 430.103 70.0561C430.498 71.0263 431.08 71.9088 431.818 72.6526C432.555 73.3964 433.432 73.9867 434.399 74.3896C435.366 74.7925 436.403 74.9999 437.45 74.9999V74.9999Z" stroke="#BABABA" stroke-width="1.5" stroke-linecap="round" stroke-linejoin="round"/>
<path d="M437.45 83.87V75" stroke="#BABABA" stroke-width="1.5" stroke-linecap="round" stroke-linejoin="round"/>
<path d="M180 75.0001C181.565 74.9961 183.093 74.5294 184.393 73.6587C185.693 72.788 186.706 71.5522 187.305 70.1069C187.904 68.6616 188.063 67.0714 187.76 65.5364C187.457 64.0014 186.708 62.5902 185.605 61.4804C184.502 60.3706 183.095 59.6119 181.562 59.2996C180.029 58.9874 178.438 59.1357 176.989 59.7257C175.54 60.3158 174.298 61.3213 173.419 62.6158C172.54 63.9102 172.064 65.4356 172.05 67.0001C172.041 68.0491 172.24 69.0894 172.635 70.0609C173.031 71.0325 173.615 71.9158 174.355 72.6599C175.094 73.404 175.974 73.9939 176.943 74.3956C177.912 74.7973 178.951 75.0028 180 75.0001Z" stroke="#BABABA" stroke-width="1.5" stroke-linecap="round" stroke-linejoin="round"/>
<path d="M180 83.87V75" stroke="#BABABA" stroke-width="1.5" stroke-linecap="round" stroke-linejoin="round"/>
<path d="M488 81.41C488 78.58 491.06 76.29 494.83 76.29C495.652 76.288 496.47 76.4025 497.26 76.63C497.988 74.9828 499.188 73.5881 500.708 72.6218C502.228 71.6555 503.999 71.1607 505.8 71.2C507.882 71.1288 509.924 71.7905 511.568 73.0696C513.213 74.3487 514.356 76.1643 514.8 78.2C515.362 77.908 515.986 77.7537 516.62 77.75C517.697 77.75 518.729 78.1778 519.491 78.9392C520.252 79.7006 520.68 80.7332 520.68 81.81V83.87H488V81.79C488.024 81.6645 488.024 81.5355 488 81.41V81.41Z" stroke="#BABABA" stroke-width="1.5" stroke-linecap="round" stroke-linejoin="round"/>
<path d="M187.91 81.41C187.91 78.58 190.97 76.29 194.74 76.29C195.562 76.288 196.38 76.4025 197.17 76.63C197.898 74.9828 199.098 73.5881 200.618 72.6218C202.138 71.6555 203.91 71.1607 205.71 71.2C207.792 71.1288 209.834 71.7905 211.478 73.0696C213.123 74.3487 214.267 76.1643 214.71 78.2C215.273 77.908 215.896 77.7537 216.53 77.75C217.607 77.75 218.64 78.1778 219.401 78.9392C220.162 79.7006 220.59 80.7332 220.59 81.81V83.87H187.91V81.79C187.934 81.6645 187.934 81.5355 187.91 81.41V81.41Z" stroke="#BABABA" stroke-width="1.5" stroke-linecap="round" stroke-linejoin="round"/>
</svg>
