<svg width="1114" height="70" viewBox="0 0 1114 70" fill="none" xmlns="http://www.w3.org/2000/svg">
<path d="M931.391 59.0499C935.771 59.0499 939.321 55.4996 939.321 51.1199C939.321 46.7403 935.771 43.1899 931.391 43.1899C927.011 43.1899 923.461 46.7403 923.461 51.1199C923.461 55.4996 927.011 59.0499 931.391 59.0499Z" stroke="#DADADA" stroke-width="3" stroke-linecap="round" stroke-linejoin="round"/>
<path d="M931.391 67.9701V59.05" stroke="#DADADA" stroke-width="3" stroke-linecap="round" stroke-linejoin="round"/>
<path d="M690.83 59.0499C695.21 59.0499 698.76 55.4996 698.76 51.1199C698.76 46.7403 695.21 43.1899 690.83 43.1899C686.451 43.1899 682.9 46.7403 682.9 51.1199C682.9 55.4996 686.451 59.0499 690.83 59.0499Z" stroke="#DADADA" stroke-width="3" stroke-linecap="round" stroke-linejoin="round"/>
<path d="M690.83 67.9701V59.05" stroke="#DADADA" stroke-width="3" stroke-linecap="round" stroke-linejoin="round"/>
<path d="M766.129 58.83C770.509 58.83 774.059 55.2796 774.059 50.9C774.059 46.5204 770.509 42.97 766.129 42.97C761.75 42.97 758.199 46.5204 758.199 50.9C758.199 55.2796 761.75 58.83 766.129 58.83Z" stroke="#DADADA" stroke-width="3" stroke-linecap="round" stroke-linejoin="round"/>
<path d="M766.131 67.7501V58.8301" stroke="#DADADA" stroke-width="3" stroke-linecap="round" stroke-linejoin="round"/>
<path d="M836.789 34.0499C841.169 34.0499 844.719 30.4996 844.719 26.1199C844.719 21.7403 841.169 18.1899 836.789 18.1899C832.41 18.1899 828.859 21.7403 828.859 26.1199C828.859 30.4996 832.41 34.0499 836.789 34.0499Z" stroke="#DADADA" stroke-width="3" stroke-linecap="round" stroke-linejoin="round"/>
<path d="M836.789 42.9701V34.05" stroke="#DADADA" stroke-width="3" stroke-linecap="round" stroke-linejoin="round"/>
<path d="M1112 67.97H919.5C911.65 60.51 898.72 55.47 884.23 55.47C880.661 55.4651 877.098 55.7662 873.58 56.37C865.83 48.45 852.58 43.23 837.58 43.23C816.11 43.23 798.29 53.89 794.9 67.88V67.97L2 67.71" stroke="#DADADA" stroke-width="3" stroke-linecap="round" stroke-linejoin="round"/>
<path d="M947.641 57.81H967.331L957.491 40.98L947.641 57.81Z" stroke="#DADADA" stroke-width="3" stroke-linecap="round" stroke-linejoin="round"/>
<path d="M957.49 67.9701V58.05" stroke="#DADADA" stroke-width="3" stroke-linecap="round" stroke-linejoin="round"/>
<path d="M851.01 37.3901H870.7L860.85 20.5601L851.01 37.3901Z" stroke="#DADADA" stroke-width="3" stroke-linecap="round" stroke-linejoin="round"/>
<path d="M860.85 47.5401V37.6201" stroke="#DADADA" stroke-width="3" stroke-linecap="round" stroke-linejoin="round"/>
<path d="M977.01 57.81H996.7L986.85 40.98L977.01 57.81Z" stroke="#DADADA" stroke-width="3" stroke-linecap="round" stroke-linejoin="round"/>
<path d="M986.85 67.9701V58.05" stroke="#DADADA" stroke-width="3" stroke-linecap="round" stroke-linejoin="round"/>
<path d="M887.5 7.2C887.5 5.82087 888.048 4.49823 889.023 3.52304C889.998 2.54786 891.321 2 892.7 2C894.079 2 895.402 2.54786 896.377 3.52304C897.352 4.49823 897.9 5.82087 897.9 7.2" stroke="#DADADA" stroke-width="3" stroke-linecap="round" stroke-linejoin="round"/>
<path d="M877.1 7.2C877.1 5.82087 877.647 4.49823 878.623 3.52304C879.598 2.54786 880.92 2 882.3 2C883.679 2 885.001 2.54786 885.977 3.52304C886.952 4.49823 887.5 5.82087 887.5 7.2" stroke="#DADADA" stroke-width="3" stroke-linecap="round" stroke-linejoin="round"/>
<path d="M908.29 22.24C908.259 21.5386 908.371 20.8382 908.618 20.1811C908.865 19.524 909.243 18.9238 909.729 18.4166C910.214 17.9094 910.797 17.5057 911.443 17.2299C912.088 16.9542 912.783 16.812 913.485 16.812C914.187 16.812 914.882 16.9542 915.528 17.2299C916.173 17.5057 916.756 17.9094 917.242 18.4166C917.727 18.9238 918.105 19.524 918.352 20.1811C918.599 20.8382 918.711 21.5386 918.68 22.24" stroke="#DADADA" stroke-width="3" stroke-linecap="round" stroke-linejoin="round"/>
<path d="M897.891 22.24C897.891 20.8609 898.438 19.5383 899.414 18.5631C900.389 17.5879 901.712 17.04 903.091 17.04C904.47 17.04 905.792 17.5879 906.768 18.5631C907.743 19.5383 908.291 20.8609 908.291 22.24" stroke="#DADADA" stroke-width="3" stroke-linecap="round" stroke-linejoin="round"/>
</svg>
