<svg width="302" height="35" viewBox="0 0 302 35" fill="none" xmlns="http://www.w3.org/2000/svg">
<path d="M193.866 28.9777C196.025 28.9777 197.775 27.2279 197.775 25.0694C197.775 22.9109 196.025 21.1611 193.866 21.1611C191.708 21.1611 189.958 22.9109 189.958 25.0694C189.958 27.2279 191.708 28.9777 193.866 28.9777Z" stroke="#BABABA" stroke-width="1.5" stroke-linecap="round" stroke-linejoin="round"/>
<path d="M193.866 33.3761V28.978" stroke="#BABABA" stroke-width="1.5" stroke-linecap="round" stroke-linejoin="round"/>
<path d="M75.2481 28.9777C77.4066 28.9777 79.1565 27.2279 79.1565 25.0694C79.1565 22.9109 77.4066 21.1611 75.2481 21.1611C73.0896 21.1611 71.3398 22.9109 71.3398 25.0694C71.3398 27.2279 73.0896 28.9777 75.2481 28.9777Z" stroke="#BABABA" stroke-width="1.5" stroke-linecap="round" stroke-linejoin="round"/>
<path d="M75.248 33.3761V28.978" stroke="#BABABA" stroke-width="1.5" stroke-linecap="round" stroke-linejoin="round"/>
<path d="M112.371 28.8674C114.53 28.8674 116.28 27.1176 116.28 24.9591C116.28 22.8006 114.53 21.0508 112.371 21.0508C110.213 21.0508 108.463 22.8006 108.463 24.9591C108.463 27.1176 110.213 28.8674 112.371 28.8674Z" stroke="#BABABA" stroke-width="1.5" stroke-linecap="round" stroke-linejoin="round"/>
<path d="M112.372 33.2755V28.8774" stroke="#BABABA" stroke-width="1.5" stroke-linecap="round" stroke-linejoin="round"/>
<path d="M147.217 16.653C149.375 16.653 151.125 14.9032 151.125 12.7447C151.125 10.5862 149.375 8.83643 147.217 8.83643C145.058 8.83643 143.309 10.5862 143.309 12.7447C143.309 14.9032 145.058 16.653 147.217 16.653Z" stroke="#BABABA" stroke-width="1.5" stroke-linecap="round" stroke-linejoin="round"/>
<path d="M147.217 21.0514V16.6533" stroke="#BABABA" stroke-width="1.5" stroke-linecap="round" stroke-linejoin="round"/>
<path d="M301 33.3753H188.049C184.171 29.6969 177.803 27.2079 170.656 27.2079C168.894 27.2077 167.135 27.3582 165.399 27.6577C161.54 23.7195 155.013 21.1006 147.606 21.1006C137.021 21.1006 128.235 26.3683 126.616 33.2553H1" stroke="#BABABA" stroke-width="1.5" stroke-linecap="round" stroke-linejoin="round"/>
<path d="M201.883 28.3682H211.589L206.741 20.0718L201.883 28.3682Z" stroke="#BABABA" stroke-width="1.5" stroke-linecap="round" stroke-linejoin="round"/>
<path d="M206.741 33.3762V28.4883" stroke="#BABABA" stroke-width="1.5" stroke-linecap="round" stroke-linejoin="round"/>
<path d="M154.233 18.3025H163.939L159.081 9.99609L154.233 18.3025Z" stroke="#BABABA" stroke-width="1.5" stroke-linecap="round" stroke-linejoin="round"/>
<path d="M159.081 23.3105V18.4126" stroke="#BABABA" stroke-width="1.5" stroke-linecap="round" stroke-linejoin="round"/>
<path d="M216.366 28.3682H226.072L221.214 20.0718L216.366 28.3682Z" stroke="#BABABA" stroke-width="1.5" stroke-linecap="round" stroke-linejoin="round"/>
<path d="M221.215 33.3762V28.4883" stroke="#BABABA" stroke-width="1.5" stroke-linecap="round" stroke-linejoin="round"/>
<path d="M172.186 3.40872C172.226 2.75641 172.514 2.14415 172.99 1.69664C173.467 1.24912 174.096 1 174.749 1C175.403 1 176.032 1.24912 176.508 1.69664C176.985 2.14415 177.273 2.75641 177.313 3.40872" stroke="#BABABA" stroke-width="1.5" stroke-linecap="round" stroke-linejoin="round"/>
<path d="M167.098 3.40872C167.138 2.75641 167.426 2.14415 167.903 1.69664C168.379 1.24912 169.008 1 169.662 1C170.315 1 170.944 1.24912 171.42 1.69664C171.897 2.14415 172.185 2.75641 172.225 3.40872" stroke="#BABABA" stroke-width="1.5" stroke-linecap="round" stroke-linejoin="round"/>
<path d="M182.471 10.8252C182.511 10.1729 182.799 9.56066 183.276 9.11314C183.752 8.66563 184.381 8.4165 185.035 8.4165C185.688 8.4165 186.317 8.66563 186.794 9.11314C187.27 9.56066 187.558 10.1729 187.598 10.8252" stroke="#BABABA" stroke-width="1.5" stroke-linecap="round" stroke-linejoin="round"/>
<path d="M177.354 10.8255C177.354 10.1468 177.623 9.49597 178.103 9.01608C178.583 8.5362 179.234 8.2666 179.912 8.2666C180.591 8.2666 181.242 8.5362 181.722 9.01608C182.202 9.49597 182.471 10.1468 182.471 10.8255" stroke="#BABABA" stroke-width="1.5" stroke-linecap="round" stroke-linejoin="round"/>
</svg>
