<svg width="64" height="64" viewBox="0 0 64 64" fill="none" xmlns="http://www.w3.org/2000/svg">
<path d="M43.6682 46.1587H43.8163C44.7154 46.1575 45.606 46.3335 46.4371 46.6768C47.2682 47.02 48.0234 47.5238 48.6596 48.1591C49.2959 48.7945 49.8006 49.5491 50.145 50.3797C50.4894 51.2103 50.6666 52.1006 50.6666 52.9998H28.9307C28.9307 51.1854 29.6514 49.4454 30.9344 48.1624C32.2173 46.8795 33.9574 46.1587 35.7718 46.1587H35.9291" stroke="#333333" stroke-width="1.5" stroke-miterlimit="10"/>
<path d="M39.4189 28.2279V17.5913" stroke="#333333" stroke-width="1.5" stroke-miterlimit="10"/>
<path d="M11.9164 14.4531V43.7615C11.9068 43.8569 11.9068 43.953 11.9164 44.0485V44.0485C11.9164 44.785 12.209 45.4914 12.7298 46.0122C13.2506 46.533 13.957 46.8256 14.6935 46.8256H32.6988" stroke="#333333" stroke-width="1.5" stroke-miterlimit="10"/>
<path d="M20.4414 22.9976H31.6889" stroke="#333333" stroke-width="1.5" stroke-miterlimit="10"/>
<path d="M17.8691 26.478H34.384" stroke="#333333" stroke-width="1.5" stroke-miterlimit="10"/>
<path d="M38.5397 14.4529C38.4809 13.387 38.763 12.33 39.3451 11.4351C39.5025 11.2407 39.3451 11 39.0303 11H15.4892C13.5082 11 11.8789 12.2034 11.8789 13.6753V15.2305C11.8789 16.7024 13.5082 17.8966 15.4892 17.8966H39.0303C39.3266 17.8966 39.5025 17.6652 39.3451 17.4708C38.7642 16.5754 38.4822 15.5188 38.5397 14.4529V14.4529Z" stroke="#333333" stroke-width="1.5" stroke-miterlimit="10"/>
<path d="M27.9318 30.1436H24.2012" stroke="#333333" stroke-width="1.5" stroke-miterlimit="10"/>
<path d="M46.2882 35.5503V40.9473C46.2882 42.6659 45.6055 44.3141 44.3903 45.5293C43.175 46.7446 41.5268 47.4273 39.8082 47.4273C38.0896 47.4273 36.4413 46.7446 35.2261 45.5293C34.0108 44.3141 33.3281 42.6659 33.3281 40.9473V35.5503" stroke="#333333" stroke-width="1.5" stroke-miterlimit="10"/>
<path d="M33.3096 35.55V32.3655C33.3096 31.2697 33.7443 30.2185 34.5183 29.4428C35.2923 28.667 36.3424 28.23 37.4383 28.2275H42.141C43.2384 28.2275 44.2909 28.6635 45.067 29.4395C45.843 30.2155 46.2789 31.2681 46.2789 32.3655V35.55H33.3096Z" stroke="#333333" stroke-width="1.5" stroke-miterlimit="10"/>
<path d="M42.5303 35.5503H52.1208" stroke="#333333" stroke-width="1.5" stroke-miterlimit="10"/>
<path d="M37.7529 42.0207V38.29" stroke="#333333" stroke-width="1.5" stroke-miterlimit="10"/>
<path d="M41.8447 42.0207V38.29" stroke="#333333" stroke-width="1.5" stroke-miterlimit="10"/>
</svg>
