<svg width="64" height="64" viewBox="0 0 64 64" fill="none" xmlns="http://www.w3.org/2000/svg">
<path d="M31.74 28.7852V16.1752C31.74 15.6643 31.6394 15.1585 31.4439 14.6865C31.2484 14.2146 30.9619 13.7857 30.6006 13.4245C30.2394 13.0633 29.8106 12.7768 29.3386 12.5813C28.8667 12.3858 28.3608 12.2852 27.85 12.2852H12.14C11.1083 12.2852 10.1189 12.695 9.38935 13.4245C8.65984 14.154 8.25 15.1435 8.25 16.1752V47.8252C8.25 48.8568 8.65984 49.8463 9.38935 50.5758C10.1189 51.3053 11.1083 51.7152 12.14 51.7152H27.82C28.3334 51.7191 28.8424 51.6214 29.3179 51.4277C29.7933 51.234 30.2257 50.9481 30.5901 50.5865C30.9545 50.2248 31.2437 49.7947 31.441 49.3208C31.6384 48.8468 31.74 48.3385 31.74 47.8252V45.5152" stroke="#333333" stroke-width="1.5" stroke-miterlimit="10"/>
<path d="M31.7398 45.5147L40.1698 48.6047C41.4894 49.0946 42.9219 49.1958 44.2973 48.8962C45.6727 48.5967 46.9333 47.909 47.9298 46.9147L52.9298 41.9747C53.8239 41.0813 54.5331 40.0205 55.017 38.8529C55.501 37.6852 55.75 36.4337 55.75 35.1697C55.75 33.9058 55.501 32.6542 55.017 31.4866C54.5331 30.319 53.8239 29.2581 52.9298 28.3647V28.3647L45.4998 20.9447L44.6898 20.1247C44.186 19.6388 43.5371 19.3308 42.8421 19.2478C42.147 19.1647 41.4439 19.3112 40.8398 19.6647C40.4869 19.9141 40.1921 20.2368 39.9755 20.6107C39.7589 20.9846 39.6257 21.4009 39.5848 21.831C39.544 22.2612 39.5966 22.6951 39.739 23.103C39.8813 23.511 40.1102 23.8834 40.4098 24.1947C39.844 23.6781 39.1019 23.3975 38.3358 23.4105C37.5698 23.4235 36.8377 23.7292 36.2898 24.2647C36.0062 24.5241 35.7788 24.8389 35.6218 25.1897C35.4647 25.5404 35.3812 25.9196 35.3765 26.3039C35.3719 26.6882 35.446 27.0693 35.5945 27.4238C35.743 27.7783 35.9626 28.0985 36.2398 28.3647V28.3647C35.8789 28.0162 35.4365 27.7637 34.9528 27.6303C34.4692 27.497 33.9598 27.4871 33.4713 27.6015C32.9829 27.7159 32.5309 27.951 32.1567 28.2852C31.7826 28.6195 31.4983 29.0422 31.3298 29.5147C31.1517 30.0314 31.1248 30.5883 31.2524 31.1197C31.3799 31.6512 31.6566 32.1351 32.0498 32.5147V32.5147L22.7398 23.2947C22.1799 22.751 21.4302 22.4469 20.6498 22.4469C19.8693 22.4469 19.1196 22.751 18.5598 23.2947V23.2947C18.019 23.8541 17.7168 24.6017 17.7168 25.3797C17.7168 26.1578 18.019 26.9053 18.5598 27.4647L26.7798 35.6847L27.5998 41.1947C27.7416 42.154 28.155 43.0526 28.7911 43.7844C29.4273 44.5163 30.2596 45.0508 31.1898 45.3247L31.6898 45.5147" stroke="#333333" stroke-width="1.5" stroke-miterlimit="10"/>
<path d="M26.7998 35.6851L32.8298 41.7151" stroke="#333333" stroke-width="1.5" stroke-miterlimit="10"/>
<path d="M20.46 19.9152V15.3252" stroke="#333333" stroke-width="1.5" stroke-miterlimit="10"/>
<path d="M15.05 25.4648H10.46" stroke="#333333" stroke-width="1.5" stroke-miterlimit="10"/>
<path d="M16.3105 21.5449L13.0605 18.2949" stroke="#333333" stroke-width="1.5" stroke-miterlimit="10"/>
<path d="M24.6104 21.5449L27.8504 18.2949" stroke="#333333" stroke-width="1.5" stroke-miterlimit="10"/>
<path d="M16.7302 29.5649L13.4902 32.8149" stroke="#333333" stroke-width="1.5" stroke-miterlimit="10"/>
<path d="M22.2807 47.395H17.6807" stroke="#333333" stroke-width="1.5" stroke-miterlimit="10"/>
</svg>
