<svg width="64" height="64" viewBox="0 0 64 64" fill="none" xmlns="http://www.w3.org/2000/svg">
<path d="M38.9141 42.276V52.386H43.1541V40.606" stroke="#333333" stroke-width="1.5" stroke-miterlimit="10"/>
<path d="M32.9542 42.066C34.0796 42.3663 35.2395 42.5176 36.4042 42.516C38.9567 42.5534 41.4568 41.7911 43.5542 40.336L43.6542 40.396C48.2742 42.836 53.4142 42.176 55.1242 38.936C56.3042 36.696 55.5442 33.806 53.4442 31.436C57.3642 29.796 59.4442 25.716 58.0742 22.216C56.7042 18.716 52.5742 17.156 48.6342 18.476C47.5022 16.4692 45.8646 14.7937 43.8842 13.616C38.4742 10.316 31.8842 11.186 29.2642 15.556C28.2998 17.202 27.9458 19.1351 28.2642 21.016C25.2642 21.016 22.6442 22.426 21.6642 24.846C21.494 25.2659 21.3797 25.7063 21.3242 26.156" stroke="#333333" stroke-width="1.5" stroke-miterlimit="10"/>
<path d="M32.9544 52.386H9.52441V32.906L21.2444 26.126L32.9544 32.906V52.386Z" stroke="#333333" stroke-width="1.5" stroke-miterlimit="10"/>
<path d="M5.50391 35.236L21.2439 26.126" stroke="#333333" stroke-width="1.5" stroke-miterlimit="10"/>
<path d="M36.9741 35.236L21.2441 26.126" stroke="#333333" stroke-width="1.5" stroke-miterlimit="10"/>
<path d="M24.5945 42.7061H17.8945V52.3861H24.5945V42.7061Z" stroke="#333333" stroke-width="1.5" stroke-miterlimit="10"/>
<path d="M21.2445 38.2859C23.0947 38.2859 24.5945 36.7861 24.5945 34.9359C24.5945 33.0858 23.0947 31.5859 21.2445 31.5859C19.3944 31.5859 17.8945 33.0858 17.8945 34.9359C17.8945 36.7861 19.3944 38.2859 21.2445 38.2859Z" stroke="#333333" stroke-width="1.5" stroke-miterlimit="10"/>
<path d="M12.4746 31.2063V23.6963H15.8346V29.2563L12.4746 31.2063Z" stroke="#333333" stroke-width="1.5" stroke-miterlimit="10"/>
<path d="M21.2441 49.5059V45.5859" stroke="#333333" stroke-width="1.5" stroke-miterlimit="10"/>
</svg>
