<svg width="64" height="64" viewBox="0 0 64 64" fill="none" xmlns="http://www.w3.org/2000/svg">
<path d="M28.0923 43.8452C37.3854 43.8452 44.919 36.3117 44.919 27.0186C44.919 17.7254 37.3854 10.1919 28.0923 10.1919C18.7992 10.1919 11.2656 17.7254 11.2656 27.0186C11.2656 36.3117 18.7992 43.8452 28.0923 43.8452Z" stroke="#333333" stroke-width="1.5" stroke-miterlimit="10"/>
<path d="M40.9849 37.6191L51.8116 48.4325C52.4021 49.023 52.7339 49.824 52.7339 50.6591C52.7339 51.4943 52.4021 52.2953 51.8116 52.8858C51.221 53.4764 50.4201 53.8081 49.5849 53.8081C48.7498 53.8081 47.9488 53.4764 47.3583 52.8858L36.5449 42.0591" stroke="#333333" stroke-width="1.5" stroke-miterlimit="10"/>
<path d="M37.2919 27.0058C34.7453 29.5524 31.4253 32.2724 28.0919 32.2724C24.7586 32.2724 21.4253 29.6058 18.9053 27.0058C21.4386 24.4724 24.7719 21.7524 28.0919 21.7524C31.4119 21.7524 34.8119 24.4724 37.2919 27.0058Z" stroke="#333333" stroke-width="1.5" stroke-miterlimit="10"/>
<path d="M28.0924 28.1124C28.6962 28.1124 29.1857 27.6229 29.1857 27.0191C29.1857 26.4153 28.6962 25.9258 28.0924 25.9258C27.4885 25.9258 26.999 26.4153 26.999 27.0191C26.999 27.6229 27.4885 28.1124 28.0924 28.1124Z" stroke="#333333" stroke-width="1.5" stroke-miterlimit="10"/>
</svg>
