<svg width="64" height="64" viewBox="0 0 64 64" fill="none" xmlns="http://www.w3.org/2000/svg">
<path d="M43.9396 29.2849C43.9422 27.3552 43.4771 25.4536 42.584 23.7429C41.691 22.0323 40.3966 20.5636 38.8118 19.4627C37.227 18.3617 35.399 17.6612 33.4843 17.4213C31.5695 17.1813 29.6252 17.409 27.8177 18.0849C26.0102 18.7608 24.3935 19.8646 23.1059 21.302C21.8184 22.7394 20.8984 24.4674 20.4248 26.338C19.9512 28.2087 19.938 30.1663 20.3864 32.0432C20.8348 33.9201 21.7315 35.6603 22.9996 37.1149C25.6378 40.0742 27.1124 43.8904 27.1496 47.8549V48.2849H36.8496V47.8549C36.8993 43.8598 38.3909 40.0172 41.0496 37.0349C42.9094 34.8806 43.9348 32.1308 43.9396 29.2849V29.2849Z" stroke="#333333" stroke-width="1.5" stroke-miterlimit="10"/>
<path d="M36.8504 48.2847H27.1504V51.8847H36.8504V48.2847Z" stroke="#333333" stroke-width="1.5" stroke-miterlimit="10"/>
<path d="M27.1504 51.8848H36.8504C36.8504 52.3575 36.7573 52.8257 36.5764 53.2624C36.3954 53.6992 36.1303 54.0961 35.796 54.4304C35.4617 54.7646 35.0648 55.0298 34.628 55.2107C34.1913 55.3917 33.7231 55.4848 33.2504 55.4848H30.7504C29.7956 55.4848 28.8799 55.1055 28.2048 54.4304C27.5297 53.7552 27.1504 52.8395 27.1504 51.8848V51.8848Z" stroke="#333333" stroke-width="1.5" stroke-miterlimit="10"/>
<path d="M35.6699 22.7847C36.6557 22.7873 37.6004 23.1801 38.2974 23.8771C38.9945 24.5742 39.3873 25.5189 39.3899 26.5047" stroke="#333333" stroke-width="1.5" stroke-miterlimit="10"/>
<path d="M33.8299 36.9849H30.1699V48.2849H33.8299V36.9849Z" stroke="#333333" stroke-width="1.5" stroke-miterlimit="10"/>
<path d="M30.1699 32.8145V37.0345" stroke="#333333" stroke-width="1.5" stroke-miterlimit="10"/>
<path d="M33.8301 32.8145V37.0345" stroke="#333333" stroke-width="1.5" stroke-miterlimit="10"/>
<path d="M32 12.3646V8.51465" stroke="#333333" stroke-width="1.5" stroke-miterlimit="10"/>
<path d="M44.0498 16.9649L46.7598 14.2549" stroke="#333333" stroke-width="1.5" stroke-miterlimit="10"/>
<path d="M19.9502 16.9649L17.2402 14.2549" stroke="#333333" stroke-width="1.5" stroke-miterlimit="10"/>
<path d="M15.34 29.0146H11.5" stroke="#333333" stroke-width="1.5" stroke-miterlimit="10"/>
<path d="M48.6602 29.0146H52.5002" stroke="#333333" stroke-width="1.5" stroke-miterlimit="10"/>
<path d="M19.9502 41.0645L17.2402 43.7745" stroke="#333333" stroke-width="1.5" stroke-miterlimit="10"/>
<path d="M44.0498 41.0645L46.7598 43.7745" stroke="#333333" stroke-width="1.5" stroke-miterlimit="10"/>
</svg>
