<svg width="64" height="64" viewBox="0 0 64 64" fill="none" xmlns="http://www.w3.org/2000/svg">
<path d="M45.866 23.6901C45.8564 21.4567 45.3076 19.2587 44.2661 17.283C43.2246 15.3073 41.7212 13.6124 39.884 12.3425C38.0468 11.0726 35.93 10.2653 33.7138 9.98919C31.4975 9.71308 29.2474 9.97638 27.1547 10.7567C25.0621 11.537 23.1889 12.8112 21.6944 14.471C20.2 16.1307 19.1286 18.1269 18.5714 20.2896C18.0141 22.4524 17.9875 24.7177 18.4938 26.893C19.0001 29.0682 20.0243 31.089 21.4794 32.7834C24.5789 36.2217 26.3145 40.6745 26.3594 45.3034V45.8101H37.626V45.3034C37.6935 40.6709 39.4257 36.2174 42.506 32.7567C44.6881 30.2417 45.8822 27.0197 45.866 23.6901Z" stroke="#333333" stroke-width="1.5" stroke-miterlimit="10"/>
<path d="M37.626 49.9434C37.6261 51.0456 37.19 52.1031 36.4131 52.885C35.6363 53.6669 34.5816 54.1097 33.4794 54.1167H30.546C29.438 54.1167 28.3751 53.6774 27.5903 52.8952C26.8056 52.1129 26.3629 51.0514 26.3594 49.9434V49.9434" stroke="#333333" stroke-width="1.5" stroke-miterlimit="10"/>
<path d="M34.2393 16.6904C35.774 16.6904 37.2458 17.3001 38.331 18.3853C39.4163 19.4705 40.0259 20.9424 40.0259 22.4771" stroke="#333333" stroke-width="1.5" stroke-miterlimit="10"/>
<path d="M32.1328 45.7567V32.6367" stroke="#333333" stroke-width="1.5" stroke-miterlimit="10"/>
<path d="M37.626 49.9435V45.7568" stroke="#333333" stroke-width="1.5" stroke-miterlimit="10"/>
<path d="M26.3594 49.9435V45.7568" stroke="#333333" stroke-width="1.5" stroke-miterlimit="10"/>
</svg>
