<svg width="64" height="64" viewBox="0 0 64 64" fill="none" xmlns="http://www.w3.org/2000/svg">
<path d="M43.3935 12.0469H15.4602C13.5751 12.0469 12.0469 13.5751 12.0469 15.4602V43.3935C12.0469 45.2787 13.5751 46.8069 15.4602 46.8069H43.3935C45.2787 46.8069 46.8069 45.2787 46.8069 43.3935V15.4602C46.8069 13.5751 45.2787 12.0469 43.3935 12.0469Z" stroke="#333333" stroke-width="1.5" stroke-miterlimit="10"/>
<path d="M51.9531 16.6069V44.0736C51.9461 46.1613 51.1136 48.1616 49.6374 49.6378C48.1611 51.1141 46.1609 51.9466 44.0731 51.9536H16.6064" stroke="#333333" stroke-width="1.5" stroke-miterlimit="10"/>
<path d="M26.5273 21.6738H30.5273C31.7367 21.6738 32.8966 22.1543 33.7517 23.0094C34.6069 23.8646 35.0873 25.0244 35.0873 26.2338C35.0873 27.4432 34.6069 28.6031 33.7517 29.4582C32.8966 30.3134 31.7367 30.7938 30.5273 30.7938H26.5273V21.6738Z" stroke="#333333" stroke-width="1.5" stroke-miterlimit="10"/>
<path d="M26.5273 39.18V30.8066" stroke="#333333" stroke-width="1.5" stroke-miterlimit="10"/>
</svg>
