<svg width="64" height="64" viewBox="0 0 64 64" fill="none" xmlns="http://www.w3.org/2000/svg">
<path d="M33 37.2534L18.8267 32.6667C17.999 32.443 17.1261 32.4489 16.3016 32.6838C15.4771 32.9187 14.7321 33.3738 14.1467 34.0001L9.65332 38.5601V54.0134L18.3067 51.2001C19.478 50.6809 20.7678 50.4874 22.04 50.6401L31.9733 51.8534C33.6605 52.0517 35.3629 51.6403 36.7733 50.6934L52.9733 39.8267C53.6452 39.366 54.1132 38.6637 54.2797 37.8662C54.4461 37.0687 54.2982 36.2377 53.8667 35.5467V35.5467C53.6443 35.1946 53.3543 34.89 53.0133 34.6508C52.6724 34.4115 52.2874 34.2424 51.8806 34.1531C51.4737 34.0638 51.0532 34.0561 50.6435 34.1306C50.2337 34.205 49.8427 34.3601 49.4933 34.5867L36.7067 42.7734" stroke="#333333" stroke-width="1.5" stroke-miterlimit="10"/>
<path d="M21.8398 40.4658L33.2265 43.9592C34.0186 44.1901 34.8695 44.1035 35.5988 43.7177C36.3281 43.3319 36.8784 42.6772 37.1332 41.8925V41.8925C37.2655 41.4952 37.3172 41.0755 37.2853 40.658C37.2534 40.2404 37.1384 39.8335 36.9472 39.461C36.756 39.0884 36.4923 38.7578 36.1716 38.4885C35.851 38.2191 35.4798 38.0165 35.0798 37.8925L32.9998 37.2258" stroke="#333333" stroke-width="1.5" stroke-miterlimit="10"/>
<path d="M29.0803 29.5863C34.4927 29.5863 38.8803 25.1987 38.8803 19.7863C38.8803 14.3739 34.4927 9.98633 29.0803 9.98633C23.6679 9.98633 19.2803 14.3739 19.2803 19.7863C19.2803 25.1987 23.6679 29.5863 29.0803 29.5863Z" stroke="#333333" stroke-width="1.5" stroke-miterlimit="10"/>
<path d="M29.0791 9.99934H34.1458C35.4622 9.95076 36.775 10.1681 38.0056 10.6384C39.2362 11.1087 40.3593 11.8222 41.3079 12.7364C42.2564 13.6506 43.0109 14.7466 43.5262 15.959C44.0416 17.1714 44.3072 18.4753 44.3072 19.7927C44.3072 21.1101 44.0416 22.4139 43.5262 23.6263C43.0109 24.8387 42.2564 25.9348 41.3079 26.8489C40.3593 27.7631 39.2362 28.4767 38.0056 28.947C36.775 29.4172 35.4622 29.6346 34.1458 29.586H29.0791" stroke="#333333" stroke-width="1.5" stroke-miterlimit="10"/>
</svg>
