<svg width="64" height="64" viewBox="0 0 64 64" fill="none" xmlns="http://www.w3.org/2000/svg">
<path d="M25.7793 29.0796L38.2593 21.0796" stroke="#333333" stroke-width="1.5" stroke-miterlimit="10"/>
<path d="M38.2593 42.8799L25.7793 34.8799" stroke="#333333" stroke-width="1.5" stroke-miterlimit="10"/>
<path d="M21.206 37.4266C22.2793 37.4266 23.3284 37.1083 24.2209 36.512C25.1133 35.9157 25.8088 35.0682 26.2196 34.0766C26.6303 33.085 26.7377 31.9939 26.5284 30.9412C26.319 29.8886 25.8021 28.9216 25.0432 28.1627C24.2843 27.4037 23.3173 26.8869 22.2647 26.6775C21.212 26.4681 20.1209 26.5756 19.1293 26.9863C18.1377 27.3971 17.2901 28.0926 16.6939 28.985C16.0976 29.8774 15.7793 30.9266 15.7793 31.9999C15.7793 33.4392 16.351 34.8194 17.3687 35.8371C18.3864 36.8548 19.7667 37.4266 21.206 37.4266V37.4266Z" stroke="#333333" stroke-width="1.5" stroke-miterlimit="10"/>
<path d="M42.8472 23.626C43.9181 23.6155 44.962 23.2883 45.8474 22.6857C46.7328 22.083 47.42 21.2318 47.8226 20.2394C48.2252 19.2469 48.325 18.1575 48.1097 17.1084C47.8943 16.0592 47.3733 15.0973 46.6123 14.3437C45.8513 13.5901 44.8843 13.0785 43.8331 12.8734C42.7819 12.6683 41.6935 12.7788 40.705 13.1911C39.7165 13.6033 38.8721 14.2989 38.2782 15.1901C37.6842 16.0813 37.3672 17.1283 37.3672 18.1994C37.3672 18.9165 37.5093 19.6266 37.7853 20.2884C38.0614 20.9503 38.4659 21.551 38.9754 22.0556C39.485 22.5602 40.0895 22.9588 40.7541 23.2284C41.4187 23.4979 42.1301 23.6331 42.8472 23.626V23.626Z" stroke="#333333" stroke-width="1.5" stroke-miterlimit="10"/>
<path d="M42.8472 51.2266C43.9181 51.2161 44.962 50.8889 45.8474 50.2862C46.7328 49.6836 47.42 48.8324 47.8226 47.8399C48.2252 46.8475 48.325 45.7581 48.1097 44.7089C47.8943 43.6598 47.3733 42.6979 46.6123 41.9443C45.8513 41.1906 44.8843 40.6791 43.8331 40.474C42.7819 40.2689 41.6935 40.3794 40.705 40.7917C39.7165 41.2039 38.8721 41.8994 38.2782 42.7907C37.6842 43.6819 37.3672 44.7289 37.3672 45.7999C37.3672 46.5171 37.5093 47.2271 37.7853 47.889C38.0614 48.5509 38.4659 49.1515 38.9754 49.6562C39.485 50.1608 40.0895 50.5594 40.7541 50.8289C41.4187 51.0985 42.1301 51.2337 42.8472 51.2266V51.2266Z" stroke="#333333" stroke-width="1.5" stroke-miterlimit="10"/>
</svg>
