<svg width="64" height="64" viewBox="0 0 64 64" fill="none" xmlns="http://www.w3.org/2000/svg">
<path d="M38.6743 19.7573C37.3239 19.7911 36.0402 20.3514 35.0972 21.3185C34.1542 22.2857 33.6266 23.5832 33.627 24.934C33.6275 23.5832 33.0999 22.2857 32.1568 21.3185C31.2138 20.3514 29.9301 19.7911 28.5798 19.7573C27.8883 19.7585 27.2038 19.896 26.5657 20.1622C25.9275 20.4284 25.3481 20.8179 24.8608 21.3085C24.3734 21.799 23.9877 22.3809 23.7257 23.0208C23.4637 23.6608 23.3306 24.3461 23.334 25.0375V24.8822C23.334 28.2557 24.7576 29.3773 27.2424 31.6551L33.627 37.522L40.0116 31.6551C42.505 29.3773 43.92 28.2557 43.92 24.8822V25.0375C43.9234 24.3461 43.7903 23.6608 43.5283 23.0208C43.2663 22.3809 42.8806 21.799 42.3933 21.3085C41.9059 20.8179 41.3266 20.4284 40.6884 20.1622C40.0502 19.896 39.3658 19.7585 38.6743 19.7573Z" fill="white" stroke="#333333" stroke-width="1.5" stroke-miterlimit="10"/>
<path d="M31.3487 40.1276L20.4345 36.6075C19.7993 36.4378 19.13 36.4436 18.4979 36.6244C17.8658 36.8053 17.2947 37.1542 16.8453 37.6342L13.4287 41.1284V53.0003L20.0721 50.8434C20.9686 50.4475 21.9546 50.2986 22.9279 50.412L30.5549 51.3438C31.8466 51.5051 33.1533 51.1991 34.239 50.481L46.6889 42.1293C47.2146 41.7774 47.582 41.2339 47.7125 40.6149C47.8431 39.996 47.7266 39.3504 47.3878 38.8162V38.8162C47.2167 38.5453 46.9936 38.311 46.7313 38.1269C46.4691 37.9427 46.173 37.8124 45.8601 37.7434C45.5472 37.6744 45.2237 37.6681 44.9084 37.7249C44.5931 37.7817 44.2921 37.9004 44.0229 38.0742L34.239 44.3725" fill="#F1B830"/>
<path d="M22.7812 42.6043L31.5299 45.2789C32.1351 45.4592 32.7868 45.397 33.3471 45.1056C33.9074 44.8142 34.3324 44.3163 34.5323 43.7173V43.7173C34.6314 43.4125 34.6692 43.0912 34.6433 42.7718C34.6175 42.4524 34.5286 42.1413 34.3818 41.8565C34.2349 41.5717 34.0331 41.3188 33.7879 41.1124C33.5428 40.9061 33.2591 40.7504 32.9534 40.6544L31.3573 40.1367" fill="#F1B830"/>
<path d="M22.7812 42.6035L31.5299 45.2781C32.1351 45.4584 32.7868 45.3963 33.3471 45.1049C33.9074 44.8135 34.3324 44.3156 34.5323 43.7165V43.7165" stroke="#333333" stroke-width="1.5" stroke-miterlimit="10"/>
<path d="M39.8311 23.0103C40.4485 23.6283 40.7954 24.4661 40.7954 25.3398C40.7954 26.2134 40.4485 27.0513 39.8311 27.6693" stroke="#333333" stroke-width="1.5" stroke-miterlimit="10"/>
<path d="M33.291 14.3907V11" stroke="#333333" stroke-width="1.5" stroke-miterlimit="10"/>
<path d="M33.291 14.3907V11" stroke="#333333" stroke-width="1.5" stroke-miterlimit="10"/>
<path d="M43.1162 18.463L45.5147 16.0645" stroke="#333333" stroke-width="1.5" stroke-miterlimit="10"/>
<path d="M43.1162 18.463L45.5147 16.0645" stroke="#333333" stroke-width="1.5" stroke-miterlimit="10"/>
<path d="M23.4718 18.463L21.0732 16.0645" stroke="#333333" stroke-width="1.5" stroke-miterlimit="10"/>
<path d="M23.4718 18.463L21.0732 16.0645" stroke="#333333" stroke-width="1.5" stroke-miterlimit="10"/>
<path d="M19.3985 28.2817H16.0078" stroke="#333333" stroke-width="1.5" stroke-miterlimit="10"/>
<path d="M19.3985 28.2817H16.0078" stroke="#333333" stroke-width="1.5" stroke-miterlimit="10"/>
<path d="M47.1807 28.2817H50.5714" stroke="#333333" stroke-width="1.5" stroke-miterlimit="10"/>
</svg>
