<svg width="64" height="64" viewBox="0 0 64 64" fill="none" xmlns="http://www.w3.org/2000/svg">
<path d="M33.7861 10.4664C35.0865 10.4839 36.3276 11.0128 37.2409 11.9386C38.1542 12.8643 38.6663 14.1126 38.6661 15.413V20.7464C38.6661 21.3907 38.5392 22.0288 38.2926 22.6241C38.0461 23.2194 37.6846 23.7603 37.229 24.2159C36.7734 24.6715 36.2325 25.0329 35.6372 25.2795C35.0419 25.5261 34.4038 25.653 33.7595 25.653C32.4405 25.653 31.1755 25.129 30.2428 24.1964C29.3101 23.2637 28.7861 21.9987 28.7861 20.6797V15.3464C28.8037 14.0367 29.34 12.7875 30.2773 11.8727C31.2146 10.9579 32.4765 10.4521 33.7861 10.4664V10.4664Z" stroke="#333333" stroke-width="1.5" stroke-miterlimit="10"/>
<path d="M28.8534 20H23.9201C21.4943 20 19.1678 20.9637 17.4524 22.679C15.7371 24.3943 14.7734 26.7208 14.7734 29.1467V52.8H33.0001V35.6133H42.1334C42.8654 35.6133 43.5674 35.3225 44.085 34.8049C44.6026 34.2873 44.8934 33.5853 44.8934 32.8533C44.8934 32.1213 44.6026 31.4193 44.085 30.9017C43.5674 30.3841 42.8654 30.0933 42.1334 30.0933H33.0001V25.6667" stroke="#333333" stroke-width="1.5" stroke-miterlimit="10"/>
<path d="M49.2272 53.534V37.174C49.2272 36.0283 48.7721 34.9295 47.9619 34.1193C47.1518 33.3091 46.053 32.854 44.9072 32.854V32.854" stroke="#333333" stroke-width="1.5" stroke-miterlimit="10"/>
<path d="M33.0001 41.5208H14.7734" stroke="#333333" stroke-width="1.5" stroke-miterlimit="10"/>
</svg>
