<svg width="64" height="64" viewBox="0 0 64 64" fill="none" xmlns="http://www.w3.org/2000/svg">
<path d="M29.9045 45.1846H30.0945C32.0571 45.1846 33.9393 45.9642 35.327 47.352C36.7148 48.7398 37.4945 50.622 37.4945 52.5846V53.6546H10.5645V52.5846C10.5645 50.622 11.3441 48.7398 12.7319 47.352C14.1196 45.9642 16.0019 45.1846 17.9645 45.1846H18.1545" stroke="#333333" stroke-width="1.5" stroke-miterlimit="10"/>
<path d="M32.0342 34.4547C32.5632 34.6309 33.1167 34.722 33.6742 34.7247H39.4242C39.5203 35.7305 39.3405 36.7434 38.9042 37.6547C38.6573 38.1863 38.3188 38.6704 37.9042 39.0847C37.5141 39.4658 37.0201 39.7232 36.4842 39.8247C36.2877 39.8927 36.1173 40.0203 35.9967 40.1897C35.8761 40.359 35.8113 40.5618 35.8113 40.7697C35.8113 40.9777 35.8761 41.1804 35.9967 41.3498C36.1173 41.5192 36.2877 41.6467 36.4842 41.7147C36.7006 41.73 36.9178 41.73 37.1342 41.7147C37.9078 41.7071 38.6699 41.526 39.3642 41.1847C40.2218 40.7665 40.9947 40.1936 41.6442 39.4947C42.9181 38.1606 43.7794 36.4868 44.1242 34.6747H48.3242C49.6779 34.6695 50.9745 34.1294 51.9317 33.1722C52.8889 32.2151 53.429 30.9184 53.4342 29.5647V15.4447C53.4289 14.092 52.8886 12.7964 51.9311 11.8408C50.9736 10.8852 49.6769 10.3474 48.3242 10.3447H33.6742C32.3224 10.3474 31.0268 10.8855 30.0709 11.8414C29.115 12.7973 28.5769 14.0929 28.5742 15.4447V22.2347" stroke="#333333" stroke-width="1.5" stroke-miterlimit="10"/>
<path d="M31.904 29.1646C31.9677 29.4435 32.0012 29.7285 32.004 30.0146V39.6946C32.004 41.8163 31.1612 43.8511 29.6609 45.3514C28.1606 46.8517 26.1258 47.6946 24.004 47.6946C21.8823 47.6946 19.8475 46.8517 18.3472 45.3514C16.8469 43.8511 16.004 41.8163 16.004 39.6946V30.0146C16.0021 29.7628 16.0255 29.5116 16.074 29.2646" stroke="#333333" stroke-width="1.5" stroke-miterlimit="10"/>
<path d="M21.4844 38.1649V33.5449" stroke="#333333" stroke-width="1.5" stroke-miterlimit="10"/>
<path d="M26.5439 38.1649V33.5449" stroke="#333333" stroke-width="1.5" stroke-miterlimit="10"/>
<path d="M40.9541 29.3748V25.7148" stroke="#333333" stroke-width="1.5" stroke-miterlimit="10"/>
<path d="M40.9541 23.3046V15.4546" stroke="#333333" stroke-width="1.5" stroke-miterlimit="10"/>
<path d="M20.6745 20.4045C21.7768 20.3511 22.8758 20.564 23.8784 21.0253C24.8811 21.4866 25.7578 22.1826 26.4345 23.0545C27.2577 22.4867 28.2344 22.1832 29.2345 22.1845C30.3505 22.1502 31.4371 22.5463 32.2692 23.2909C33.1012 24.0355 33.6151 25.0715 33.7045 26.1845V26.1845C33.7045 28.1845 31.8045 29.8145 29.4545 29.8145H18.5645C16.2145 29.8145 14.3145 28.1845 14.3145 26.1845C14.3145 23.1545 17.0945 20.4945 20.6745 20.4045Z" stroke="#333333" stroke-width="1.5" stroke-miterlimit="10"/>
</svg>
