<svg width="64" height="64" viewBox="0 0 64 64" fill="none" xmlns="http://www.w3.org/2000/svg">
<path d="M19.2354 15.2393V30.3688" stroke="#333333" stroke-width="1.5" stroke-miterlimit="10"/>
<path d="M30.8066 30.3682V12.0103" stroke="#333333" stroke-width="1.5" stroke-miterlimit="10"/>
<path d="M42.3989 30.3686V15.239L30.8067 12L19.2145 15.239L7.64355 12V41.1724L14.3879 43.0582" stroke="#333333" stroke-width="1.5" stroke-miterlimit="10"/>
<path d="M43.2294 48.3853H27.7695" stroke="#333333" stroke-width="1.5" stroke-miterlimit="10"/>
<path d="M20.5253 48.3856H17.0838C16.445 48.3717 15.8369 48.1089 15.3891 47.6531C14.9412 47.1973 14.6892 46.5847 14.6865 45.9457V32.8086C14.6893 32.1623 14.9473 31.5433 15.4043 31.0864C15.8612 30.6294 16.4802 30.3715 17.1264 30.3687H53.9169C54.5631 30.3715 55.1821 30.6294 55.639 31.0864C56.096 31.5433 56.354 32.1623 56.3568 32.8086V45.9457C56.354 46.592 56.096 47.2109 55.639 47.6679C55.1821 48.1249 54.5631 48.3828 53.9169 48.3856H50.4754" stroke="#333333" stroke-width="1.5" stroke-miterlimit="10"/>
<path d="M24.1475 44.7734C24.8637 44.7748 25.5638 44.9859 26.1613 45.3808C26.6088 45.6741 26.9849 46.064 27.2619 46.5218C27.5389 46.9796 27.7097 47.4937 27.7618 48.0262C27.814 48.5587 27.7461 49.0962 27.5631 49.599C27.3802 50.1019 27.0868 50.5573 26.7046 50.9318C26.201 51.4418 25.5546 51.7873 24.8507 51.9227C24.1364 52.0734 23.393 52.0028 22.7198 51.7203C21.9489 51.3996 21.3128 50.8217 20.9199 50.0849C20.5271 49.3481 20.4016 48.498 20.5648 47.6791C20.7281 46.8602 21.1701 46.1232 21.8155 45.5935C22.4609 45.0637 23.2699 44.7739 24.1049 44.7734H24.1475Z" stroke="#333333" stroke-width="1.5" stroke-miterlimit="10"/>
<path d="M46.8531 44.7734C47.5692 44.7748 48.2693 44.9859 48.8668 45.3808C49.4642 45.7736 49.9286 46.3382 50.1986 47.0003C50.4685 47.6613 50.537 48.3874 50.3955 49.0873C50.2541 49.7872 49.9089 50.4296 49.4035 50.934C48.898 51.4383 48.2547 51.782 47.5545 51.9219C46.8543 52.0618 46.1284 51.9916 45.468 51.7203C44.8043 51.4487 44.2369 50.9853 43.8382 50.3892C43.4396 49.7932 43.228 49.0917 43.2305 48.3747C43.2361 47.4176 43.6203 46.5017 44.299 45.8269C44.9778 45.1522 45.896 44.7734 46.8531 44.7734V44.7734Z" stroke="#333333" stroke-width="1.5" stroke-miterlimit="10"/>
<path d="M14.6436 39.3716H56.3564" stroke="#333333" stroke-width="1.5" stroke-miterlimit="10"/>
<path d="M46.8623 30.3687V39.3718" stroke="#333333" stroke-width="1.5" stroke-miterlimit="10"/>
<path d="M35.5059 30.3687V39.3718" stroke="#333333" stroke-width="1.5" stroke-miterlimit="10"/>
<path d="M24.1377 30.3687V39.3718" stroke="#333333" stroke-width="1.5" stroke-miterlimit="10"/>
</svg>
