<svg xmlns="http://www.w3.org/2000/svg" width="64" height="64" fill="none" viewBox="0 0 64 64">
  <g clip-path="url(#a)">
    <path stroke="currentColor" stroke-miterlimit="10" stroke-width="1.5"
          d="M31.74 28.785v-12.61a3.89 3.89 0 0 0-3.89-3.89H12.14a3.89 3.89 0 0 0-3.89 3.89v31.65a3.89 3.89 0 0 0 3.89 3.89h15.68a3.89 3.89 0 0 0 3.92-3.89v-2.31"/>
    <path stroke="currentColor" stroke-miterlimit="10" stroke-width="1.5"
          d="m31.74 45.514 8.43 3.09a7.36 7.36 0 0 0 7.76-1.69l5-4.94a9.619 9.619 0 0 0 0-13.61l-7.43-7.42-.81-.82a3.21 3.21 0 0 0-3.85-.46 3 3 0 0 0-.43 4.53 3 3 0 0 0-4.12.07 2.809 2.809 0 0 0-.05 4.1 3 3 0 0 0-4.91 1.15 2.87 2.87 0 0 0 .72 3l-9.31-9.22a3 3 0 0 0-4.18 0 3 3 0 0 0 0 4.17l8.22 8.22.82 5.51a5.08 5.08 0 0 0 3.59 4.13l.5.19m-4.89-9.829 6.03 6.03m-12.37-21.8v-4.59m-5.41 10.14h-4.59m5.85-3.92-3.25-3.25m11.55 3.25 3.24-3.25m-11.12 11.27-3.24 3.25m8.79 14.58h-4.6"/>
  </g>
  <defs>
    <clipPath id="a">
      <path fill="#fff" d="M0 0h64v64H0z"/>
    </clipPath>
  </defs>
</svg>
