<svg xmlns="http://www.w3.org/2000/svg" width="64" height="64" fill="none" viewBox="0 0 64 64">
  <g clip-path="url(#a)">
    <path stroke="currentColor" stroke-miterlimit="10" stroke-width="1.5"
          d="M43.94 29.285A11.94 11.94 0 1 0 23 37.115a16.37 16.37 0 0 1 4.15 10.74v.43h9.7v-.43a16.57 16.57 0 0 1 4.2-10.82 11.89 11.89 0 0 0 2.89-7.75Z"/>
    <path stroke="currentColor" stroke-miterlimit="10" stroke-width="1.5"
          d="M36.85 48.285h-9.7v3.6h9.7v-3.6Zm-9.7 3.6h9.7a3.6 3.6 0 0 1-3.6 3.6h-2.5a3.6 3.6 0 0 1-3.6-3.6Zm8.52-29.1a3.73 3.73 0 0 1 3.72 3.72m-5.56 10.48h-3.66v11.3h3.66v-11.3Zm-3.66-4.17v4.22m3.66-4.22v4.22M32 12.365v-3.85m12.05 8.45 2.71-2.71m-26.81 2.71-2.71-2.71m-1.9 14.76H11.5m37.16 0h3.84m-32.55 12.05-2.71 2.71m26.81-2.71 2.71 2.71"/>
  </g>
  <defs>
    <clipPath id="a">
      <path fill="#fff" d="M0 0h64v64H0z"/>
    </clipPath>
  </defs>
</svg>
