<svg xmlns="http://www.w3.org/2000/svg" width="64" height="64" fill="none" viewBox="0 0 64 64">
  <g clip-path="url(#a)">
    <path stroke="currentColor" stroke-miterlimit="10" stroke-width="1.5"
          d="M33.6 42.365H11.24v-19.73H43.7v4.82m1.62 18.53h2.85a4.87 4.87 0 0 1 4.84 4.87v2.94H28.25v-2.94a4.87 4.87 0 0 1 4.87-4.87h2.89"/>
    <path stroke="currentColor" stroke-miterlimit="10" stroke-width="1.5"
          d="M41.45 27.045h-1.62a6.74 6.74 0 0 0-6.59 6.87v6.06a7.572 7.572 0 0 0 7.4 7.74 7.58 7.58 0 0 0 7.37-7.73v-6.07a6.75 6.75 0 0 0-6.56-6.87Zm-11.66-13.16 14.17 8.54m-32.97 0 14.17-8.54m2.31 1.92a2.8 2.8 0 1 0 0-5.6 2.8 2.8 0 0 0 0 5.6Zm-6.89 11.74h-4.99m13.68 0h-4.99m-3.7 4.96h-4.99m13.68 0h-4.99m-3.7 4.95h-4.99m13.68 0h-4.99m8.96-3.82h14.81"/>
  </g>
  <defs>
    <clipPath id="a">
      <path fill="#fff" d="M0 0h64v64H0z"/>
    </clipPath>
  </defs>
</svg>
