<svg xmlns="http://www.w3.org/2000/svg" width="64" height="64" fill="none" viewBox="0 0 64 64">
  <g clip-path="url(#a)">
    <path stroke="currentColor" stroke-miterlimit="10" stroke-width="1.5" d="M31.23 10.23v8.55h8.55"/>
    <path stroke="currentColor" stroke-miterlimit="10" stroke-width="1.5"
          d="M39.78 34.22V18.78l-8.55-8.55H17.22v33.56h14.49"/>
    <path stroke="currentColor" stroke-miterlimit="10" stroke-width="1.5"
          d="M17.22 15.29h-4.59v33.55h20.58M24.29 15.3h-4.18m4.18 23.05h-4.18M35.5 24.33H20.11m13.45 3.63H20.11M44.76 39.4a3.819 3.819 0 0 0-2.1-.67c-2.41 0-4.37 2.33-4.37 5.21s2 5.21 4.37 5.21a3.82 3.82 0 0 0 2.1-.67m-8.91-6.01h7.31m-7.31 2.94h6.74"/>
    <path stroke="currentColor" stroke-miterlimit="10" stroke-width="1.5"
          d="M41.54 53.77c5.429 0 9.83-4.401 9.83-9.83 0-5.43-4.401-9.83-9.83-9.83s-9.83 4.4-9.83 9.83c0 5.429 4.401 9.83 9.83 9.83Z"/>
  </g>
  <defs>
    <clipPath id="a">
      <path fill="#fff" d="M0 0h64v64H0z"/>
    </clipPath>
  </defs>
</svg>
