<svg xmlns="http://www.w3.org/2000/svg" width="64" height="64" fill="none" viewBox="0 0 64 64">
  <g clip-path="url(#a)">
    <path stroke="currentColor" stroke-miterlimit="10" stroke-width="1.5"
          d="M29.905 45.185h.19a7.4 7.4 0 0 1 7.4 7.4v1.07h-26.93v-1.07a7.4 7.4 0 0 1 7.4-7.4h.19m13.88-10.73a5.27 5.27 0 0 0 1.64.27h5.75a5.56 5.56 0 0 1-.52 2.93 5 5 0 0 1-1 1.43 2.77 2.77 0 0 1-1.42.74 1 1 0 0 0 0 1.89 4.7 4.7 0 0 0 .65 0 5.17 5.17 0 0 0 2.23-.53 7.75 7.75 0 0 0 2.28-1.69 9.57 9.57 0 0 0 2.48-4.82h4.2a5.13 5.13 0 0 0 5.11-5.11v-14.12a5.12 5.12 0 0 0-5.11-5.1h-14.65a5.11 5.11 0 0 0-5.1 5.1v6.79"/>
    <path stroke="currentColor" stroke-miterlimit="10" stroke-width="1.5"
          d="M31.904 29.165a4 4 0 0 1 .1.85v9.68a8 8 0 1 1-16 0v-9.68a3.739 3.739 0 0 1 .07-.75m5.411 8.9v-4.62m5.059 4.62v-4.62m14.411-4.17v-3.66m0-2.41v-7.85"/>
    <path stroke="currentColor" stroke-miterlimit="10" stroke-width="1.5"
          d="M20.675 20.405a6.87 6.87 0 0 1 5.76 2.65 4.92 4.92 0 0 1 2.8-.87 4.35 4.35 0 0 1 4.47 4c0 2-1.9 3.63-4.25 3.63h-10.89c-2.35 0-4.25-1.63-4.25-3.63 0-3.03 2.78-5.69 6.36-5.78Z"/>
  </g>
  <defs>
    <clipPath id="a">
      <path fill="#fff" d="M0 0h64v64H0z"/>
    </clipPath>
  </defs>
</svg>
