<svg width="48" height="48" viewBox="0 0 48 48" fill="none" xmlns="http://www.w3.org/2000/svg">
  <g clip-path="url(#clip0_234_8944)">
    <path
      d="M15.3785 36.3823C16.3472 36.3823 17.2763 36.7671 17.9612 37.4521C18.6462 38.1371 19.031 39.0661 19.031 40.0348H7.43604C7.43604 39.0661 7.82085 38.1371 8.50583 37.4521C9.1908 36.7671 10.1198 36.3823 11.0885 36.3823"
      stroke="currentColor" stroke-width="1.5" stroke-miterlimit="10"/>
    <path
      d="M13.6162 27.8028H12.8662C12.0487 27.8028 11.2646 28.1275 10.6865 28.7056C10.1085 29.2837 9.78369 30.0677 9.78369 30.8853V33.6003C9.78369 34.5192 10.1488 35.4006 10.7986 36.0504C11.1203 36.3722 11.5023 36.6274 11.9227 36.8015C12.3431 36.9756 12.7937 37.0653 13.2487 37.0653V37.0653C13.7037 37.0653 14.1543 36.9756 14.5747 36.8015C14.9951 36.6274 15.3771 36.3722 15.6988 36.0504C16.0206 35.7286 16.2758 35.3467 16.4499 34.9263C16.6241 34.5059 16.7137 34.0553 16.7137 33.6003V30.8853C16.7137 30.4792 16.6335 30.0771 16.4776 29.7022C16.3218 29.3272 16.0934 28.9867 15.8056 28.7003C15.5177 28.4139 15.1761 28.1871 14.8004 28.0331C14.4247 27.8791 14.0223 27.8008 13.6162 27.8028Z"
      stroke="currentColor" stroke-width="1.5" stroke-miterlimit="10"/>
    <path
      d="M26.0817 16.5454C26.5636 16.5454 27.0407 16.6406 27.4858 16.8254C27.9308 17.0103 28.3349 17.2812 28.675 17.6227C29.015 17.9641 29.2843 18.3694 29.4674 18.8152C29.6504 19.261 29.7436 19.7385 29.7417 20.2204H18.1392C18.1392 19.7408 18.2336 19.2658 18.4172 18.8227C18.6007 18.3795 18.8698 17.9769 19.209 17.6377C19.5481 17.2985 19.9508 17.0295 20.3939 16.8459C20.8371 16.6624 21.312 16.5679 21.7917 16.5679"
      stroke="currentColor" stroke-width="1.5" stroke-miterlimit="10"/>
    <path
      d="M24.319 7.96534H23.569C23.163 7.96435 22.7607 8.0436 22.3854 8.19854C22.01 8.35348 21.669 8.58105 21.3818 8.86818C21.0947 9.15531 20.8671 9.49634 20.7122 9.87168C20.5573 10.247 20.478 10.6493 20.479 11.0553V13.7628C20.481 14.6792 20.8459 15.5575 21.4939 16.2055C22.1419 16.8535 23.0201 17.2184 23.9365 17.2203V17.2203C24.8555 17.2203 25.7368 16.8553 26.3866 16.2055C27.0365 15.5557 27.4015 14.6743 27.4015 13.7553V11.0553C27.4025 10.6499 27.3235 10.2483 27.169 9.87342C27.0146 9.49856 26.7877 9.15787 26.5013 8.87083C26.215 8.5838 25.8748 8.35608 25.5004 8.2007C25.1259 8.04532 24.7244 7.96534 24.319 7.96534V7.96534Z"
      stroke="currentColor" stroke-width="1.5" stroke-miterlimit="10"/>
    <path
      d="M36.9117 36.3823C37.8804 36.3823 38.8095 36.7671 39.4944 37.4521C40.1794 38.1371 40.5642 39.0661 40.5642 40.0348H28.9692C28.9692 39.0661 29.3541 38.1371 30.039 37.4521C30.724 36.7671 31.653 36.3823 32.6217 36.3823"
      stroke="currentColor" stroke-width="1.5" stroke-miterlimit="10"/>
    <path
      d="M35.1491 27.8027H34.3991C33.9937 27.8018 33.592 27.8808 33.2172 28.0352C32.8423 28.1897 32.5016 28.4166 32.2146 28.7029C31.9275 28.9893 31.6998 29.3294 31.5444 29.7039C31.3891 30.0784 31.3091 30.4798 31.3091 30.8852V33.6002C31.3091 34.5192 31.6741 35.4006 32.324 36.0504C32.9738 36.7002 33.8551 37.0652 34.7741 37.0652V37.0652C35.6931 37.0652 36.5744 36.7002 37.2242 36.0504C37.874 35.4006 38.2391 34.5192 38.2391 33.6002V30.8852C38.2391 30.4798 38.1591 30.0784 38.0037 29.7039C37.8483 29.3294 37.6206 28.9893 37.3336 28.7029C37.0466 28.4166 36.7059 28.1897 36.331 28.0352C35.9562 27.8808 35.5545 27.8018 35.1491 27.8027V27.8027Z"
      stroke="currentColor" stroke-width="1.5" stroke-miterlimit="10"/>
    <path d="M19.6313 32.4302H28.2413" stroke="currentColor" stroke-width="1.5" stroke-miterlimit="10"/>
    <path d="M17.7644 22.9204L16.1294 26.3554" stroke="currentColor" stroke-width="1.5" stroke-miterlimit="10"/>
    <path d="M30.1089 22.9204L31.7439 26.3554" stroke="currentColor" stroke-width="1.5" stroke-miterlimit="10"/>
  </g>
  <defs>
    <clipPath id="clip0_234_8944">
      <rect width="48" height="48" fill="white"/>
    </clipPath>
  </defs>
</svg>
