<svg xmlns="http://www.w3.org/2000/svg" width="64" height="64" fill="none" viewBox="0 0 64 64">
  <g clip-path="url(#a)">
    <path stroke="currentColor" stroke-miterlimit="10" stroke-width="1.5"
          d="M31.45 37.41h19.62a1.13 1.13 0 0 1 1.13 1.13v7.22H30.27v-7.22a1.13 1.13 0 0 1 1.18-1.13Z"/>
    <path stroke="currentColor" stroke-miterlimit="10" stroke-width="1.5"
          d="M28.11 45.76h26.3a.86.86 0 0 1 .86.86v1.22a.75.75 0 0 1-.75.75H28a.75.75 0 0 1-.73-.75v-1.2a.859.859 0 0 1 .84-.88Zm.65 2.81v7.95m25-7.95v7.95m-3.07-7.95v7.95m-18.86-7.95v7.95M23.8 33.54l.01 22.98m-5.07-22.68a9.43 9.43 0 0 0 8.76-1.49l.09.05c3.81 2.11 8 1.54 9.47-1.26 1-1.94.35-4.44-1.39-6.49 3.24-1.41 5-4.94 3.82-8a6 6 0 0 0-7.79-3.24 11.28 11.28 0 0 0-3.92-4.2c-4.51-2.85-9.88-2.1-12.09 1.69a7.23 7.23 0 0 0-.84 4.71s-6.12.92-6.12 6.54c0 6.34 5.73 6.2 5.73 6.2s.47 4.2 4.28 5.49Z"/>
  </g>
  <defs>
    <clipPath id="a">
      <path fill="#fff" d="M0 0h64v64H0z"/>
    </clipPath>
  </defs>
</svg>
