<svg width="48" height="48" viewBox="0 0 48 48" fill="none" xmlns="http://www.w3.org/2000/svg">
  <g clip-path="url(#clip0_234_8913)">
    <path
      d="M34.6016 24.5024V29.5049C34.5918 30.5176 34.1831 31.4854 33.4642 32.1987C32.7453 32.9119 31.7743 33.313 30.7616 33.3149H25.6616"
      stroke="currentColor" stroke-width="1.5" stroke-miterlimit="10"/>
    <path
      d="M25.1813 31.1698H10.3313C9.31811 31.1659 8.3475 30.7616 7.63103 30.0452C6.91456 29.3287 6.5103 28.3581 6.50635 27.3448V15.9148C6.50833 14.901 6.91196 13.9292 7.62885 13.2123C8.34575 12.4955 9.3175 12.0918 10.3313 12.0898H29.0813C30.0959 12.0918 31.0684 12.4952 31.7865 13.2119C32.5046 13.9286 32.9099 14.9003 32.9138 15.9148V24.0448"
      stroke="currentColor" stroke-width="1.5" stroke-miterlimit="10"/>
    <path
      d="M11.5314 18.0674H13.9989V21.7349C13.9969 22.0618 13.8657 22.3746 13.6338 22.6051C13.402 22.8355 13.0883 22.9649 12.7614 22.9649V22.9649C12.4332 22.9649 12.1185 22.8345 11.8864 22.6024C11.6543 22.3704 11.5239 22.0556 11.5239 21.7274V18.0674H11.5314Z"
      stroke="currentColor" stroke-width="1.5" stroke-miterlimit="10"/>
    <path
      d="M25.1808 18.0674H27.6483V21.7349C27.6483 22.0631 27.518 22.3779 27.2859 22.6099C27.0538 22.842 26.739 22.9724 26.4108 22.9724C26.0826 22.9724 25.7679 22.842 25.5358 22.6099C25.3037 22.3779 25.1733 22.0631 25.1733 21.7349V18.0674H25.1808Z"
      stroke="currentColor" stroke-width="1.5" stroke-miterlimit="10"/>
    <path d="M27.6489 19.77H32.8764" stroke="currentColor" stroke-width="1.5" stroke-miterlimit="10"/>
    <path d="M13.9985 19.77H25.181" stroke="currentColor" stroke-width="1.5" stroke-miterlimit="10"/>
    <path d="M6.50635 19.77H11.5313" stroke="currentColor" stroke-width="1.5" stroke-miterlimit="10"/>
    <path
      d="M15.0114 8.3999H24.3339C24.8175 8.3999 25.2963 8.49515 25.7431 8.68022C26.1899 8.86528 26.5959 9.13653 26.9378 9.47848C27.2798 9.82043 27.551 10.2264 27.7361 10.6732C27.9211 11.12 28.0164 11.5988 28.0164 12.0824H11.3589C11.3589 11.1109 11.7427 10.1788 12.4268 9.48903C13.111 8.79928 14.0399 8.40782 15.0114 8.3999V8.3999Z"
      stroke="currentColor" stroke-width="1.5" stroke-miterlimit="10"/>
    <path
      d="M31.9837 37.5825C35.7406 37.5825 38.7862 34.537 38.7862 30.78C38.7862 27.0231 35.7406 23.9775 31.9837 23.9775C28.2267 23.9775 25.1812 27.0231 25.1812 30.78C25.1812 34.537 28.2267 37.5825 31.9837 37.5825Z"
      stroke="currentColor" stroke-width="1.5" stroke-miterlimit="10"/>
    <path d="M37.1216 35.2275L41.4941 39.6" stroke="currentColor" stroke-width="1.5" stroke-miterlimit="10"/>
    <path
      d="M28.2788 30.2022C28.2788 29.8024 28.3576 29.4064 28.5106 29.037C28.6636 28.6675 28.8879 28.3318 29.1707 28.0491C29.4534 27.7663 29.7891 27.542 30.1585 27.389C30.528 27.236 30.9239 27.1572 31.3238 27.1572"
      stroke="currentColor" stroke-width="1.5" stroke-miterlimit="10"/>
    <path d="M17.9585 15.7871H21.416" stroke="currentColor" stroke-width="1.5" stroke-miterlimit="10"/>
  </g>
  <defs>
    <clipPath id="clip0_234_8913">
      <rect width="48" height="48" fill="white"/>
    </clipPath>
  </defs>
</svg>
