<svg xmlns="http://www.w3.org/2000/svg" width="64" height="64" fill="none" viewBox="0 0 64 64">
  <g clip-path="url(#a)">
    <path stroke="currentColor" stroke-miterlimit="10" stroke-width="1.5"
          d="M46.135 32.67v6.67a5.13 5.13 0 0 1-5.12 5.08h-6.8m-.64-2.86h-19.8a5.12 5.12 0 0 1-5.1-5.1V21.22a5.11 5.11 0 0 1 5.1-5.1h25a5.12 5.12 0 0 1 5.11 5.1v10.84"/>
    <path stroke="currentColor" stroke-miterlimit="10" stroke-width="1.5"
          d="M15.374 24.09h3.29v4.89a1.65 1.65 0 0 1-1.65 1.64 1.65 1.65 0 0 1-1.65-1.65v-4.88h.01Zm18.201 0h3.29v4.89a1.65 1.65 0 0 1-3.3 0v-4.89h.01Zm3.289 2.27h6.97m-25.169 0h14.91m-24.9 0h6.7m4.64-15.16h12.43a4.911 4.911 0 0 1 4.91 4.91h-22.21a4.91 4.91 0 0 1 4.87-4.91Zm22.629 38.91a9.07 9.07 0 1 0 0-18.14 9.07 9.07 0 0 0 0 18.14Zm6.851-3.14 5.83 5.83"/>
    <path stroke="currentColor" stroke-miterlimit="10" stroke-width="1.5"
          d="M37.705 40.27a4.06 4.06 0 0 1 4.06-4.06M23.944 21.05h4.61"/>
  </g>
  <defs>
    <clipPath id="a">
      <path fill="#fff" d="M0 0h64v64H0z"/>
    </clipPath>
  </defs>
</svg>
