<svg xmlns="http://www.w3.org/2000/svg" width="64" height="64" fill="none" viewBox="0 0 64 64">
  <g clip-path="url(#a)">
    <path stroke="currentColor" stroke-miterlimit="10" stroke-width="1.5"
          d="M54.91 22.99H9.08v26.35h45.83V22.99Zm-26.6-4.91H9.49l-2.61 4.91h50.24l-2.61-4.91H35.69"/>
    <path stroke="currentColor" stroke-miterlimit="10" stroke-width="1.5"
          d="M23.07 22.95h17.86L32 14.65l-8.93 8.3Zm-7.22 8.69v-4.02m8.07 4.02v-4.02M32 31.64v-4.02m8.08 4.02v-4.02m8.07 4.02v-4.02m-32.3 11.03v-4.02m32.3 4.02v-4.02m-32.3 11.03v-4.02m32.3 4.02v-4.02m-7.29-4.56H23.07v12.27h17.79V37.08Zm-12.06 0v12.26m6.17-12.26v12.26"/>
  </g>
  <defs>
    <clipPath id="a">
      <path fill="#fff" d="M0 0h64v64H0z"/>
    </clipPath>
  </defs>
</svg>
